<svg viewBox="0 0 588.13 589.9" version="1.1" xmlns="http://www.w3.org/2000/svg" id="Logo">
  
  <defs>
    <style>
      .st0 {
        fill: #fff;
      }

      .st1 {
        fill: #006eff;
      }
    </style>
  </defs>
  <g id="Skyblue-Logo-Azure">
    <path d="M233.45,358.22c0,18.42-13.9,25.77-30.66,27.5v.45h-57.99v-26.82c9.81,1.09,20.35,2.27,35.36,2.27,17.76,0,21.96-2.26,21.96-7.27,0-3.88-2.75-5.65-10.98-6.46l-18.09-1.78c-21.8-2.1-30.36-9.37-30.36-25.68,0-18.41,14.37-29.23,52.32-29.23,16.63,0,27.94,1.45,35.85,3.07v28.42c-9.69-1.78-20.99-2.91-33.75-2.91-19.38,0-23.9,2.75-23.9,7.27,0,3.55,2.58,5.65,11.63,6.62l18.57,1.94c20.83,2.1,30.03,7.75,30.03,22.61ZM417.87,292.99l-19.22,37.79-19.22-37.79h-68.96l-35.69,48.24v-48.24h-31.17v93.17h31.17v-44.2l33.75,44.2h38.27l-36.17-45.38,35.23-46.35,35.18,61.37v30.36h34.39v-30.36l36.17-62.81h-33.75Z" class="st0"></path>
    <path d="M308.54,386.16h-33.75v-44.2l33.75,44.2ZM381.05,386.16v-30.36l-35.18-61.37-35.23,46.35,36.17,45.38h34.24ZM451.62,292.99l-36.17,62.81v30.36h77.73V94.95H94.95v291.21h49.85v-26.82c9.81,1.09,20.35,2.27,35.36,2.27,17.76,0,21.96-2.26,21.96-7.27,0-3.88-2.75-5.65-10.98-6.46l-18.09-1.78c-21.8-2.1-30.36-9.37-30.36-25.68,0-18.41,14.37-29.23,52.32-29.23,16.63,0,27.94,1.45,35.85,3.07v28.42c-9.69-1.78-20.99-2.91-33.75-2.91-19.38,0-23.9,2.75-23.9,7.27,0,3.55,2.58,5.65,11.63,6.62l18.57,1.94c20.83,2.1,30.03,7.75,30.03,22.61,0,18.42-13.9,25.77-30.66,27.5v.45h40.84v-93.17h31.17v48.24l35.69-48.24h68.96l19.22,37.79,19.22-37.79h33.75ZM493.17,425.38v-25.38h-87.04v93.17h87.04v-25.38h-57.81v-13.84h57.81v-14.73h-57.81v-13.84h57.81ZM232.53,400h-31.17v93.17h80.42v-25.03h-49.25v-68.14ZM191.68,466.69c0,15.5-8.07,26.48-35.2,26.48h-61.52v-93.17h59.91c23.74,0,35.2,6.3,35.2,21.48,0,14.05-8.4,21.48-32.13,21.64v.16c24.71.16,33.75,8.07,33.75,23.41ZM124.02,441.5h25.35c8.07,0,11.95-2.42,11.95-9.2s-4.04-8.72-12.11-8.72h-25.19v17.92ZM162.61,463.3c0-7.27-4.52-8.72-12.43-8.72h-26.16v17.92h26c8.56,0,12.6-1.78,12.6-9.2ZM362.21,455.55c0,10.33-4.84,14.86-19.7,14.86h-2.75c-14.86,0-19.7-4.52-19.7-14.86v-55.55h-31.17v59.43c0,23.74,12.27,35.53,38.43,35.53,22.5,0,32.26-8.44,34.54-28.83h.44l.7,27.06h30.2v-93.17h-31v55.55Z" class="st1"></path>
  </g>
</svg>