<?xml version="1.0" encoding="UTF-8"?> <svg xmlns="http://www.w3.org/2000/svg" width="56" height="56" viewBox="0 0 56 56" fill="none"><path d="M9.34455 40.4021C6.51708 36.1861 5.21899 31.0674 5.69197 25.983C5.78881 24.8658 5.98408 23.6942 6.27059 22.5097C6.53389 21.4741 6.86362 20.477 7.25416 19.5406C8.37139 16.7804 10.0224 14.301 12.1616 12.1698C14.0055 10.3187 16.1127 8.82935 18.4256 7.74334C19.4892 7.24235 20.5968 6.8238 21.7188 6.49887C22.7464 6.19796 23.7724 5.97787 24.7696 5.84342C24.8056 5.83862 24.8408 5.83142 24.8752 5.82102C30.6694 5.00951 36.4444 6.44205 41.1366 9.85934C41.596 10.1923 42.0425 10.5428 42.4747 10.9085L40.7853 10.999C40.3443 11.0222 40.005 11.3991 40.029 11.8409C40.0522 12.2683 40.4059 12.5988 40.8277 12.5988C40.8421 12.5988 40.8565 12.5988 40.8717 12.598L44.4482 12.4067C44.5251 12.4027 44.5971 12.3747 44.6691 12.3483C44.6883 12.3419 44.7091 12.3411 44.7276 12.3331C44.7812 12.3083 44.8252 12.2707 44.8724 12.2346C44.9116 12.2058 44.9532 12.1826 44.986 12.1482C44.9908 12.1434 44.9981 12.141 45.0029 12.1354C45.0277 12.1082 45.0373 12.0722 45.0573 12.0418C45.0933 11.9897 45.1293 11.9393 45.1525 11.8793C45.1669 11.8409 45.1677 11.8017 45.1765 11.7617C45.1885 11.7064 45.2101 11.6552 45.2101 11.5968C45.2101 11.5864 45.2045 11.5768 45.2037 11.5656C45.2037 11.56 45.2061 11.5552 45.2061 11.5496L45.0021 7.98503C44.9772 7.54407 44.5843 7.20474 44.1569 7.23195C43.716 7.25756 43.3782 7.6353 43.4046 8.07707L43.4959 9.67768C43.0373 9.29113 42.5659 8.91739 42.0793 8.56525C37.0262 4.88466 30.8055 3.35368 24.5591 4.25002C24.5271 4.25482 24.4959 4.26122 24.4647 4.27003C23.4179 4.41568 22.3447 4.64857 21.2739 4.96229C20.0734 5.31042 18.8866 5.75859 17.7477 6.29479C15.266 7.45924 13.0059 9.05584 11.0316 11.0382C8.74193 13.3207 6.97246 15.9785 5.7768 18.9324C5.35985 19.9336 5.00531 21.0044 4.7212 22.1248C4.41309 23.3965 4.20421 24.6481 4.10177 25.8398C3.59598 31.2851 4.9869 36.7727 8.02005 41.2936C8.17371 41.5241 8.42741 41.6482 8.6851 41.6482C8.83796 41.6482 8.99322 41.6042 9.13007 41.5129C9.49741 41.2664 9.59505 40.7694 9.34856 40.4021H9.34455Z" fill="#016A78"></path><path d="M46.8734 14.5094C46.506 14.7558 46.4084 15.2528 46.6549 15.6202C49.4823 19.8362 50.7804 24.9549 50.3075 30.0392C50.2106 31.1565 50.0154 32.3281 49.7288 33.5126C49.4655 34.5481 49.1358 35.5453 48.7453 36.4817C47.628 39.2419 45.977 41.7213 43.8378 43.8525C41.9939 45.7036 39.8867 47.1929 37.5738 48.2789C36.5102 48.7799 35.4026 49.1985 34.2806 49.5234C33.253 49.8243 32.227 50.0444 31.2298 50.1789C31.1938 50.1837 31.1586 50.1909 31.1242 50.2013C25.3276 51.0104 19.555 49.5802 14.8628 46.1629C14.3963 45.8252 13.9529 45.4755 13.5239 45.1129L15.2142 45.0193C15.6559 44.9945 15.9945 44.6176 15.9689 44.1758C15.9448 43.7348 15.5583 43.3915 15.1261 43.4211L11.5544 43.6188C11.1126 43.6436 10.7741 44.0205 10.7997 44.4623L10.9966 48.034C11.0198 48.4606 11.3727 48.7903 11.7945 48.7903C11.8097 48.7903 11.8241 48.7903 11.8393 48.7895C12.2811 48.7655 12.6196 48.3878 12.594 47.946L12.5059 46.3478C12.9605 46.7312 13.4287 47.1017 13.9217 47.4586C18.032 50.4518 22.9139 52.0244 27.9526 52.0244C29.109 52.0244 30.2751 51.9411 31.4411 51.7739C31.4731 51.7691 31.5043 51.7627 31.5356 51.7539C32.5823 51.6082 33.6556 51.3753 34.7264 51.0616C35.9268 50.7135 37.1137 50.2653 38.2525 49.7291C40.7342 48.5647 42.9943 46.968 44.9686 44.9857C47.2583 42.7032 49.0278 40.0454 50.2234 37.0915C50.6404 36.0903 50.9949 35.0195 51.279 33.8991C51.5871 32.6274 51.796 31.3757 51.8985 30.1841C52.4043 24.7388 51.0133 19.2512 47.9802 14.7302C47.7345 14.3629 47.2367 14.2637 46.8702 14.5118L46.8734 14.5094Z" fill="#016A78"></path><path d="M40.8688 20.9123C40.8688 20.8242 40.8528 20.7442 40.8208 20.6722C40.8128 20.6402 40.8048 20.6162 40.7888 20.5922C40.7568 20.5121 40.7087 20.4481 40.6527 20.3841C40.6447 20.3761 40.6367 20.3681 40.6207 20.3601C40.5807 20.3121 40.5327 20.272 40.4766 20.24L28.4401 13.3014C28.2 13.1573 27.8879 13.1573 27.6398 13.3014L15.5232 20.296C15.2751 20.4401 15.123 20.7042 15.123 20.9843V34.5735C15.123 34.6055 15.1391 34.6375 15.1391 34.6695C15.1471 34.7255 15.1551 34.7815 15.1791 34.8376C15.1951 34.8856 15.2111 34.9256 15.2431 34.9656C15.2671 35.0136 15.2911 35.0536 15.3311 35.0936C15.3631 35.1337 15.4032 35.1657 15.4432 35.1977C15.4752 35.2217 15.4912 35.2537 15.5232 35.2697L27.5598 42.2163C27.5758 42.2324 27.5998 42.2324 27.6158 42.2484C27.6398 42.2564 27.6558 42.2644 27.6798 42.2724C27.7678 42.3044 27.8639 42.3284 27.9599 42.3284C28.0559 42.3284 28.144 42.3044 28.24 42.2724C28.256 42.2644 28.28 42.2564 28.296 42.2484C28.32 42.2404 28.3361 42.2324 28.3601 42.2243L40.4766 35.2217C40.5087 35.2057 40.5247 35.1737 40.5567 35.1497C40.5967 35.1177 40.6367 35.0936 40.6687 35.0536C40.7087 35.0136 40.7327 34.9656 40.7648 34.9176C40.7888 34.8776 40.8048 34.8376 40.8208 34.7895C40.8448 34.7335 40.8528 34.6775 40.8608 34.6215C40.8608 34.5895 40.8768 34.5654 40.8768 34.5254V20.9363C40.8768 20.9283 40.8688 20.9203 40.8688 20.9123ZM28.0399 14.918L38.4759 20.9363L34.4904 23.2412L24.0544 17.2149L28.0399 14.918ZM27.1596 40.1436L16.7237 34.1173V22.3768L27.1596 28.3951V40.1436ZM27.9519 27.0106L17.524 20.9843L22.4538 18.1432L32.8898 24.1615L27.9519 27.0106ZM39.2762 34.0693L28.7602 40.1436V28.3951L33.6901 25.546V27.7309C33.6901 28.171 34.0422 28.5312 34.4904 28.5312C34.9305 28.5312 35.2907 28.171 35.2907 27.7309V24.6257L39.2762 22.3208V34.0693Z" fill="#016A78"></path></svg> 