<?xml version="1.0" encoding="UTF-8"?> <svg xmlns="http://www.w3.org/2000/svg" width="56" height="56" viewBox="0 0 56 56" fill="none"><path d="M27.3152 51.8963C27.5374 51.9646 27.7686 51.9996 28.0011 52C28.2281 51.9995 28.4537 51.9656 28.6706 51.8995C31.9732 50.9585 35.0938 49.4741 37.9031 47.508C38.07 47.3789 38.1805 47.1908 38.2115 46.9829C38.2425 46.7749 38.1916 46.5631 38.0694 46.3914C37.9473 46.2198 37.7633 46.1016 37.5558 46.0615C37.3482 46.0213 37.133 46.0623 36.9551 46.1759C34.2916 48.0383 31.3331 49.4437 28.2024 50.3339C28.0661 50.3771 27.9197 50.3771 27.7834 50.3339C23.6944 49.1798 19.9129 47.1404 16.7101 44.3619C16.6304 44.2839 16.5356 44.2229 16.4314 44.1826C16.3272 44.1424 16.2158 44.1237 16.1041 44.1277C15.9924 44.1317 15.8826 44.1583 15.7816 44.206C15.6806 44.2536 15.5904 44.3213 15.5167 44.4048C15.4429 44.4883 15.387 44.5859 15.3524 44.6916C15.3179 44.7973 15.3055 44.9089 15.3158 45.0196C15.3262 45.1303 15.3592 45.2377 15.4128 45.3353C15.4663 45.4328 15.5394 45.5185 15.6274 45.587C19.0079 48.5211 22.9991 50.6756 27.3152 51.8963Z" fill="#016A78"></path><path d="M6.289 13.6568C6.18204 13.6426 6.0733 13.6494 5.969 13.677C5.8647 13.7045 5.76688 13.7523 5.68113 13.8174C5.59538 13.8826 5.52339 13.9639 5.46926 14.0567C5.41514 14.1495 5.37994 14.2521 5.36568 14.3584C4.78654 18.6634 4.09651 29.7032 10.1754 39.2434C10.2331 39.3341 10.3082 39.4125 10.3964 39.4743C10.4846 39.5361 10.5842 39.58 10.6894 39.6035C10.7947 39.627 10.9036 39.6296 11.0099 39.6113C11.1162 39.593 11.2178 39.554 11.309 39.4966C11.4001 39.4393 11.479 39.3646 11.5412 39.2769C11.6033 39.1892 11.6474 39.0902 11.6711 38.9855C11.6947 38.8809 11.6974 38.7726 11.679 38.6669C11.6605 38.5612 11.6213 38.4602 11.5636 38.3695C5.7723 29.2842 6.43851 18.7026 6.993 14.5748C7.02196 14.3603 6.96408 14.1431 6.83208 13.971C6.70008 13.7989 6.50475 13.6859 6.289 13.6568Z" fill="#016A78"></path><path d="M12.4253 41.0125C12.3412 41.0797 12.2712 41.1628 12.2194 41.257C12.1675 41.3512 12.1349 41.4546 12.1233 41.5613C12.1117 41.6681 12.1214 41.776 12.1518 41.879C12.1822 41.982 12.2327 42.0781 12.3005 42.1616C12.5469 42.4655 12.8106 42.7693 13.0817 43.0731C13.1533 43.1535 13.2401 43.2192 13.3372 43.2663C13.4343 43.3134 13.5397 43.341 13.6475 43.3475C13.7554 43.3541 13.8634 43.3395 13.9656 43.3045C14.0677 43.2695 14.1619 43.2149 14.2428 43.1438C14.3237 43.0726 14.3898 42.9863 14.4371 42.8898C14.4845 42.7932 14.5122 42.6884 14.5188 42.5812C14.5254 42.474 14.5107 42.3665 14.4756 42.265C14.4404 42.1634 14.3855 42.0697 14.3139 41.9893C14.0601 41.7043 13.8136 41.4176 13.5836 41.1366C13.5159 41.0526 13.4322 40.9827 13.3373 40.931C13.2424 40.8792 13.1381 40.8467 13.0304 40.8351C12.9228 40.8236 12.8139 40.8333 12.7101 40.8638C12.6062 40.8942 12.5095 40.9447 12.4253 41.0125Z" fill="#016A78"></path><path d="M48.5279 11.6689C45.5432 11.1524 42.6191 10.3356 39.8006 9.23096C36.1139 7.78019 32.6377 5.84828 29.4633 3.48606C29.0414 3.17059 28.5278 3 27.9999 3C27.472 3 26.9584 3.17059 26.5365 3.48606C24.955 4.6623 23.2976 5.73398 21.5748 6.69419C21.4805 6.74655 21.3975 6.81689 21.3305 6.9012C21.2635 6.9855 21.214 7.08211 21.1846 7.18549C21.1553 7.28888 21.1467 7.397 21.1595 7.50367C21.1722 7.61034 21.206 7.71346 21.2589 7.80713C21.3118 7.9008 21.3827 7.98318 21.4677 8.04954C21.5526 8.11591 21.6499 8.16497 21.754 8.19389C21.858 8.22282 21.9668 8.23106 22.074 8.21814C22.1813 8.20521 22.2849 8.17138 22.379 8.11857C24.1658 7.12081 25.8848 6.00738 27.5247 4.78548C27.6611 4.68124 27.8283 4.62472 28.0003 4.62472C28.1723 4.62472 28.3396 4.68124 28.4759 4.78548C31.768 7.23698 35.3736 9.24196 39.1977 10.7476C42.1225 11.8946 45.157 12.7429 48.2543 13.2795C48.4229 13.3079 48.5778 13.3895 48.6961 13.5122C48.8144 13.6348 48.89 13.7921 48.9115 13.9607C49.4397 17.4122 50.2439 26.3652 46.3075 34.9213C46.2605 35.0191 46.2336 35.1251 46.2283 35.2333C46.223 35.3416 46.2394 35.4497 46.2766 35.5516C46.3137 35.6534 46.3709 35.7469 46.4447 35.8266C46.5185 35.9062 46.6076 35.9705 46.7066 36.0156C46.8057 36.0608 46.9128 36.0858 47.0217 36.0894C47.1306 36.093 47.2391 36.075 47.341 36.0365C47.4428 35.9979 47.5359 35.9397 47.6149 35.865C47.6938 35.7903 47.7571 35.7008 47.8009 35.6016C51.9222 26.6445 51.0868 17.3117 50.5364 13.7132C50.4619 13.2051 50.2274 12.7336 49.8665 12.3663C49.5057 11.999 49.037 11.7549 48.5279 11.6689Z" fill="#016A78"></path><path d="M27.2084 46.1416C27.4624 46.2342 27.7306 46.282 28.0011 46.2829C28.2674 46.2825 28.5315 46.2358 28.7815 46.1448C29.9148 45.7485 31.0198 45.2761 32.0887 44.7311C32.1847 44.682 32.27 44.6145 32.3397 44.5326C32.4095 44.4507 32.4623 44.356 32.4952 44.2538C32.5281 44.1516 32.5405 44.044 32.5316 43.937C32.5226 43.8301 32.4926 43.7259 32.4432 43.6305C32.3938 43.5351 32.326 43.4503 32.2436 43.381C32.1612 43.3116 32.0659 43.2591 31.9632 43.2264C31.8604 43.1937 31.7521 43.1814 31.6445 43.1903C31.537 43.1991 31.4322 43.229 31.3363 43.2781C30.3316 43.7917 29.2927 44.2365 28.227 44.6094C28.0778 44.6674 27.9121 44.6674 27.7629 44.6094C24.08 43.355 20.7699 41.2072 18.1321 38.3606C11.9316 31.638 11.3854 22.6376 11.6104 17.8883C11.6182 17.7618 11.6502 17.6378 11.7049 17.5233C11.7845 17.3305 11.7869 17.1147 11.7117 16.9202C11.6365 16.7257 11.4894 16.5671 11.3004 16.4769C11.1115 16.3867 10.895 16.3718 10.6953 16.4351C10.4956 16.4984 10.3278 16.6353 10.2263 16.8176C10.0798 17.1252 9.99422 17.4579 9.97409 17.7977C9.73587 22.8181 10.3224 32.3102 16.9245 39.468C19.7414 42.5077 23.2759 44.8013 27.2084 46.1416Z" fill="#016A78"></path><path d="M43.0947 31.5817C43.1849 31.6151 43.2803 31.6323 43.3765 31.6323C43.5449 31.6323 43.7092 31.5808 43.8471 31.4848C43.9851 31.3888 44.0901 31.253 44.1478 31.0957C45.6444 26.8268 46.2835 22.3073 46.029 17.7936C46.0132 17.4635 45.9317 17.1398 45.7893 16.8412C45.6469 16.5426 45.4464 16.275 45.1993 16.0539C45.121 15.9735 45.0269 15.9098 44.9229 15.867C44.8188 15.8242 44.707 15.8031 44.5944 15.8051C44.4818 15.807 44.3708 15.832 44.2683 15.8784C44.1658 15.9248 44.074 15.9916 43.9986 16.0748C43.9232 16.158 43.8658 16.2557 43.83 16.3618C43.7942 16.468 43.7807 16.5803 43.7903 16.6919C43.8 16.8034 43.8327 16.9118 43.8863 17.0103C43.9398 17.1088 44.0132 17.1952 44.1018 17.2643C44.1878 17.3419 44.2574 17.4356 44.3068 17.54C44.3561 17.6444 44.3842 17.7575 44.3894 17.8728C44.6338 22.1678 44.0285 26.4688 42.6076 30.5322C42.5702 30.6329 42.5531 30.7399 42.5574 30.8472C42.5616 30.9545 42.5871 31.0599 42.6323 31.1573C42.6776 31.2548 42.7417 31.3425 42.821 31.4153C42.9004 31.4881 42.9934 31.5446 43.0947 31.5817Z" fill="#016A78"></path><path d="M27.6816 10.4136C27.7977 10.3611 27.9252 10.3386 28.0524 10.348C28.1796 10.3574 28.3024 10.3985 28.4094 10.4675C30.7739 11.9849 33.263 13.3013 35.8502 14.4025C36.049 14.4798 36.2702 14.4771 36.4669 14.395C36.6637 14.313 36.8207 14.158 36.9046 13.963C36.9885 13.7679 36.9928 13.548 36.9165 13.3499C36.8402 13.1517 36.6894 12.9909 36.4959 12.9014C33.9937 11.8352 31.5863 10.5615 29.299 9.09375C28.9636 8.87906 28.5797 8.75069 28.1819 8.72018C27.7841 8.68967 27.3849 8.75798 27.0203 8.91897C26.8322 9.01273 26.6875 9.17465 26.616 9.37135C26.5445 9.56805 26.5516 9.78454 26.6359 9.97619C26.7201 10.1678 26.8751 10.32 27.0689 10.4014C27.2627 10.4828 27.4805 10.4872 27.6775 10.4136H27.6816Z" fill="#016A78"></path><path d="M40.7256 16.2067C40.8023 16.2296 40.8821 16.2412 40.9622 16.241C41.1594 16.2408 41.3499 16.1702 41.4991 16.0419C41.6482 15.9136 41.7459 15.7363 41.7744 15.5423C41.8029 15.3483 41.7603 15.1506 41.6543 14.9853C41.5483 14.8199 41.386 14.698 41.1971 14.6418C40.8004 14.5234 40.4044 14.3894 40.0077 14.2473C39.8027 14.1739 39.5767 14.1845 39.3795 14.2767C39.1823 14.3689 39.03 14.5352 38.9562 14.739C38.8823 14.9428 38.8929 15.1675 38.9857 15.3635C39.0784 15.5596 39.2457 15.711 39.4507 15.7844C39.8762 15.9363 40.3009 16.0801 40.7256 16.2067Z" fill="#016A78"></path><path d="M23.5743 25.4407C23.086 24.965 22.4297 24.6986 21.7461 24.6986C21.0625 24.6986 20.4062 24.965 19.9179 25.4407L18.8894 26.4836C18.4109 26.9744 18.1433 27.6312 18.1433 28.3147C18.1433 28.9983 18.4109 29.6551 18.8894 30.1459L25.1835 36.5319C25.4212 36.7746 25.7054 36.9674 26.0194 37.0991C26.3333 37.2308 26.6705 37.2987 27.0113 37.2987C27.352 37.2987 27.6893 37.2308 28.0032 37.0991C28.3171 36.9674 28.6013 36.7746 28.839 36.5319L40.3987 24.8028C40.8772 24.312 41.1449 23.6553 41.1449 22.9717C41.1449 22.2881 40.8772 21.6314 40.3987 21.1406L39.3702 20.0976C39.133 19.8544 38.849 19.6612 38.5352 19.5294C38.2213 19.3977 37.884 19.3301 37.5433 19.3307C37.2023 19.33 36.8647 19.3976 36.5506 19.5294C36.2364 19.6611 35.9522 19.8544 35.7147 20.0976L27.6643 28.2649C27.4902 28.4361 27.2553 28.5321 27.0104 28.5321C26.7656 28.5321 26.5306 28.4361 26.3566 28.2649L23.5743 25.4407ZM28.839 29.4075L36.8894 21.2402C36.9742 21.1528 37.0758 21.0834 37.1883 21.0359C37.3007 20.9884 37.4215 20.964 37.5437 20.964C37.6658 20.964 37.7867 20.9884 37.8991 21.0359C38.0115 21.0834 38.1132 21.1528 38.198 21.2402L39.2264 22.284C39.4063 22.4682 39.5069 22.7149 39.5069 22.9717C39.5069 23.2284 39.4063 23.4751 39.2264 23.6594L27.6652 35.3893C27.4911 35.5605 27.2561 35.6565 27.0113 35.6565C26.7664 35.6565 26.5315 35.5605 26.3574 35.3893L20.0633 29.0024C19.8835 28.8182 19.7829 28.5715 19.7829 28.3147C19.7829 28.058 19.8835 27.8113 20.0633 27.6271L21.0918 26.5833C21.2661 26.4122 21.5012 26.3163 21.7461 26.3163C21.991 26.3163 22.2261 26.4122 22.4004 26.5833L25.1835 29.4075C25.6717 29.8829 26.3279 30.1492 27.0113 30.1492C27.6946 30.1492 28.3508 29.8829 28.839 29.4075Z" fill="#016A78"></path><path d="M9.10745 12.7968C9.10754 12.9877 9.17489 13.1726 9.29779 13.3192C9.4207 13.4659 9.59139 13.5651 9.78023 13.5997C14.9891 14.5536 15.5551 15.1163 16.5162 20.2969C16.5514 20.4842 16.6514 20.6535 16.7989 20.7752C16.9464 20.897 17.132 20.9637 17.3237 20.9637C17.5154 20.9637 17.7011 20.897 17.8486 20.7752C17.996 20.6535 18.096 20.4842 18.1312 20.2969C19.0907 15.118 19.6567 14.5552 24.8672 13.5997C25.0557 13.5647 25.2259 13.4653 25.3484 13.3186C25.4708 13.172 25.5379 12.9874 25.5379 12.7968C25.5379 12.6062 25.4708 12.4216 25.3484 12.275C25.2259 12.1284 25.0557 12.029 24.8672 11.994C19.6583 11.04 19.0924 10.4773 18.1312 5.29676C18.096 5.1094 17.996 4.94018 17.8486 4.81841C17.7011 4.69664 17.5154 4.62998 17.3237 4.62998C17.132 4.62998 16.9464 4.69664 16.7989 4.81841C16.6514 4.94018 16.5514 5.1094 16.5162 5.29676C15.5568 10.4757 14.9908 11.0384 9.78023 11.994C9.59139 12.0285 9.4207 12.1277 9.29779 12.2744C9.17489 12.4211 9.10754 12.6059 9.10745 12.7968ZM17.3221 8.95082C17.566 9.87529 18.0528 10.7186 18.7326 11.3945C19.4123 12.0703 20.2605 12.5543 21.1904 12.7968C20.2605 13.0394 19.4123 13.5233 18.7326 14.1992C18.0528 14.875 17.566 15.7183 17.3221 16.6428C17.0781 15.7183 16.5914 14.875 15.9116 14.1992C15.2319 13.5233 14.3836 13.0394 13.4538 12.7968C14.3836 12.5543 15.2319 12.0703 15.9116 11.3945C16.5914 10.7186 17.0781 9.87529 17.3221 8.95082Z" fill="#016A78"></path><path d="M50.3294 41.3964C45.1205 40.4424 44.5545 39.8797 43.5933 34.6991C43.5582 34.5118 43.4582 34.3426 43.3107 34.2208C43.1632 34.099 42.9776 34.0324 42.7859 34.0324C42.5942 34.0324 42.4085 34.099 42.261 34.2208C42.1135 34.3426 42.0135 34.5118 41.9784 34.6991C41.0189 39.878 40.4529 40.4408 35.2423 41.3964C35.0539 41.4314 34.8837 41.5308 34.7612 41.6774C34.6387 41.824 34.5717 42.0086 34.5717 42.1992C34.5717 42.3898 34.6387 42.5744 34.7612 42.721C34.8837 42.8676 35.0539 42.9671 35.2423 43.0021C40.4512 43.956 41.0172 44.5187 41.9784 49.6993C42.0135 49.8866 42.1135 50.0558 42.261 50.1776C42.4085 50.2994 42.5942 50.366 42.7859 50.366C42.9776 50.366 43.1632 50.2994 43.3107 50.1776C43.4582 50.0558 43.5582 49.8866 43.5933 49.6993C44.5528 44.5204 45.1188 43.9576 50.3294 43.0021C50.5178 42.9671 50.688 42.8676 50.8105 42.721C50.933 42.5744 51 42.3898 51 42.1992C51 42.0086 50.933 41.824 50.8105 41.6774C50.688 41.5308 50.5178 41.4314 50.3294 41.3964ZM42.7875 46.0452C42.5435 45.1207 42.0568 44.2774 41.377 43.6016C40.6973 42.9257 39.849 42.4418 38.9192 42.1992C39.849 41.9567 40.6973 41.4727 41.377 40.7968C42.0568 40.121 42.5435 39.2777 42.7875 38.3532C43.0315 39.2777 43.5182 40.121 44.198 40.7968C44.8777 41.4727 45.7259 41.9567 46.6558 42.1992C45.7259 42.4418 44.8777 42.9257 44.198 43.6016C43.5182 44.2774 43.0315 45.1207 42.7875 46.0452Z" fill="#016A78"></path></svg> 