<?xml version="1.0" encoding="UTF-8"?> <svg xmlns="http://www.w3.org/2000/svg" width="56" height="56" viewBox="0 0 56 56" fill="none"><path d="M25.2832 18.9041C25.2832 19.3873 24.8918 19.7791 24.4082 19.7791C23.9246 19.7791 23.5332 19.3873 23.5332 18.9041C23.5332 17.5651 24.1339 16.3175 25.1824 15.4818C26.2308 14.6457 27.5946 14.3411 28.9276 14.6448C30.5298 15.011 31.8013 16.2825 32.167 17.8846C32.5959 19.7632 31.7867 21.6824 30.1521 22.6604L29.806 22.8638C28.9285 23.3739 28.7832 23.4756 28.7832 24.0865V25.9041C28.7832 26.3873 28.3918 26.7791 27.9082 26.7791C27.4246 26.7791 27.0332 26.3873 27.0332 25.9041V24.0865C27.0332 22.4515 27.9954 21.8918 28.9259 21.3509L29.2532 21.1586C30.2512 20.5618 30.7255 19.4296 30.4614 18.2743C30.2478 17.3378 29.4745 16.5649 28.538 16.3513C27.7168 16.1616 26.9119 16.3406 26.2736 16.8503C25.6438 17.3519 25.2832 18.1004 25.2832 18.9041ZM28.5294 27.9078C28.197 27.584 27.6108 27.584 27.287 27.9078C27.2084 27.995 27.1469 28.0916 27.1033 28.1962C27.0503 28.3013 27.0332 28.415 27.0332 28.5291C27.0332 28.6427 27.0503 28.7563 27.1033 28.8615C27.1469 28.9751 27.2084 29.0627 27.287 29.1503C27.4528 29.3075 27.6809 29.4041 27.9082 29.4041C27.9603 29.4041 28.0218 29.3951 28.074 29.3865C28.1355 29.3776 28.1876 29.36 28.2406 29.334C28.2927 29.3165 28.3457 29.29 28.3893 29.2549C28.4414 29.2289 28.4858 29.1853 28.5294 29.1503C28.6866 28.9841 28.7832 28.7563 28.7832 28.5291C28.7832 28.415 28.7567 28.3013 28.7131 28.1962C28.6696 28.0916 28.608 27.995 28.5294 27.9078ZM50.6582 32.9041V38.1541C50.6582 40.2667 49.1526 42.034 47.1582 42.4406V44.2791C47.1582 47.6564 44.4102 50.4041 41.0332 50.4041H33.0792C32.6606 52.883 30.5045 54.7791 27.9082 54.7791C25.0132 54.7791 22.6582 52.4241 22.6582 49.5291C22.6582 46.634 25.0132 44.2791 27.9082 44.2791C30.5045 44.2791 32.6606 46.1751 33.0792 48.6541H41.0332C43.4454 48.6541 45.4082 46.6913 45.4082 44.2791V42.5291H44.5332C43.0857 42.5291 41.9082 41.3516 41.9082 39.9041V31.1541C41.9082 29.7065 43.0857 28.5291 44.5332 28.5291H45.4082V21.5291C45.4082 11.8797 37.558 4.02905 27.9082 4.02905C18.2584 4.02905 10.4082 11.8797 10.4082 21.5291V28.5291H11.2832C12.7307 28.5291 13.9082 29.7065 13.9082 31.1541V39.9041C13.9082 41.3516 12.7307 42.5291 11.2832 42.5291H9.5332C7.12097 42.5291 5.1582 40.5663 5.1582 38.1541V32.9041C5.1582 30.7914 6.66382 29.0241 8.6582 28.6175V21.5291C8.6582 10.9146 17.2937 2.27905 27.9082 2.27905C38.5227 2.27905 47.1582 10.9146 47.1582 21.5291V28.6175C49.1526 29.0241 50.6582 30.7914 50.6582 32.9041ZM10.4082 30.2791H9.5332C8.08569 30.2791 6.9082 31.4565 6.9082 32.9041V38.1541C6.9082 39.6016 8.08569 40.7791 9.5332 40.7791H11.2832C11.766 40.7791 12.1582 40.3864 12.1582 39.9041V31.1541C12.1582 30.6717 11.766 30.2791 11.2832 30.2791H10.4082ZM31.4082 49.5291C31.4082 47.5992 29.8385 46.0291 27.9082 46.0291C25.9779 46.0291 24.4082 47.5992 24.4082 49.5291C24.4082 51.4589 25.9779 53.0291 27.9082 53.0291C29.8385 53.0291 31.4082 51.4589 31.4082 49.5291ZM48.9082 32.9041C48.9082 31.4565 47.7307 30.2791 46.2832 30.2791H44.5332C44.0504 30.2791 43.6582 30.6717 43.6582 31.1541V39.9041C43.6582 40.3864 44.0504 40.7791 44.5332 40.7791H46.2832C47.7307 40.7791 48.9082 39.6016 48.9082 38.1541V32.9041ZM25.2841 34.3584L20.4733 37.1603C20.3374 37.2393 20.1853 37.2791 20.0332 37.2791C19.8717 37.2791 19.7111 37.2346 19.5692 37.1458C19.2941 36.9736 19.136 36.6625 19.1608 36.3387L19.535 31.3318C17.0664 29.0148 15.6582 25.7861 15.6582 22.4041C15.6582 15.6493 21.1534 10.1541 27.9082 10.1541C34.663 10.1541 40.1582 15.6493 40.1582 22.4041C40.1582 29.1588 34.663 34.6541 27.9082 34.6541C27.0511 34.6541 26.1702 34.5549 25.2841 34.3584ZM25.3567 32.5781C26.2231 32.7943 27.0811 32.9041 27.9082 32.9041C33.6982 32.9041 38.4082 28.1937 38.4082 22.4041C38.4082 16.6144 33.6982 11.9041 27.9082 11.9041C22.1182 11.9041 17.4082 16.6144 17.4082 22.4041C17.4082 25.4281 18.7233 28.3103 21.015 30.3111C21.2227 30.4922 21.3329 30.761 21.3124 31.0357L21.0295 34.8109L24.7047 32.6708C24.9004 32.5563 25.1345 32.5229 25.3567 32.5781Z" fill="#016A78"></path></svg> 