<?xml version="1.0" encoding="UTF-8"?> <svg xmlns="http://www.w3.org/2000/svg" width="56" height="56" viewBox="0 0 56 56" fill="none"><g clip-path="url(#clip0_13379_13018)"><path d="M48.0796 43.5026C47.1307 43.5033 46.2028 43.2225 45.4134 42.6958C44.6241 42.1691 44.0086 41.4201 43.645 40.5436C43.2814 39.667 43.1859 38.7023 43.3706 37.7715C43.5553 36.8407 44.0119 35.9856 44.6827 35.3143C45.3535 34.643 46.2083 34.1858 47.1389 34.0004C48.0696 33.815 49.0344 33.9098 49.9112 34.2728C50.788 34.6358 51.5374 35.2507 52.0647 36.0397C52.592 36.8287 52.8735 37.7563 52.8735 38.7053C52.8729 39.9768 52.3677 41.1962 51.4689 42.0956C50.5701 42.995 49.3512 43.5011 48.0796 43.5026ZM48.0796 35.658C47.4768 35.6573 46.8873 35.8354 46.3857 36.1698C45.8841 36.5043 45.493 36.9799 45.2618 37.5367C45.0306 38.0935 44.9698 38.7063 45.0869 39.2977C45.2041 39.889 45.4941 40.4323 45.9201 40.8588C46.3462 41.2854 46.8891 41.5759 47.4804 41.6938C48.0716 41.8117 48.6845 41.7515 49.2415 41.521C49.7985 41.2905 50.2747 40.8999 50.6097 40.3987C50.9447 39.8975 51.1235 39.3081 51.1235 38.7053C51.1232 37.8978 50.8025 37.1234 50.2318 36.5521C49.6612 35.9808 48.8871 35.6592 48.0796 35.658Z" fill="#016A78"></path><path d="M22.7991 43.5026C21.8501 43.5035 20.9221 43.223 20.1325 42.6964C19.343 42.1698 18.7274 41.4209 18.3636 40.5444C17.9998 39.6679 17.9041 38.7031 18.0887 37.7722C18.2733 36.8413 18.7298 35.9861 19.4005 35.3147C20.0713 34.6433 20.9261 34.186 21.8568 34.0005C22.7875 33.815 23.7523 33.9097 24.6292 34.2727C25.5061 34.6357 26.2556 35.2505 26.7829 36.0396C27.3103 36.8286 27.5917 37.7563 27.5917 38.7053C27.5908 39.9765 27.0857 41.1955 26.1873 42.0948C25.2888 42.9942 24.0703 43.5005 22.7991 43.5026ZM22.7991 35.658C22.1962 35.657 21.6065 35.835 21.1048 36.1693C20.603 36.5035 20.2117 36.9791 19.9804 37.5359C19.749 38.0926 19.688 38.7055 19.8051 39.2969C19.9221 39.8884 20.212 40.4318 20.638 40.8584C21.064 41.2851 21.6069 41.5758 22.1982 41.6937C22.7894 41.8117 23.4024 41.7516 23.9595 41.5211C24.5166 41.2906 24.9928 40.9 25.3278 40.3988C25.6629 39.8976 25.8417 39.3082 25.8417 38.7053C25.8411 37.8981 25.5205 37.124 24.9502 36.5528C24.3798 35.9816 23.6063 35.6598 22.7991 35.658Z" fill="#016A78"></path><path d="M54.3911 39.5804H51.9983C51.7662 39.5804 51.5437 39.4882 51.3796 39.3241C51.2155 39.16 51.1233 38.9375 51.1233 38.7054C51.1233 38.4733 51.2155 38.2508 51.3796 38.0867C51.5437 37.9226 51.7662 37.8304 51.9983 37.8304H54.1438V33.1906C54.1432 32.5633 53.9826 31.9465 53.6771 31.3986L48.9405 22.9064C48.9 22.8339 48.8409 22.7736 48.7694 22.7315C48.6978 22.6895 48.6163 22.6673 48.5333 22.6672H42.0781V37.8339H44.1618C44.3939 37.8339 44.6164 37.9261 44.7805 38.0902C44.9446 38.2543 45.0368 38.4768 45.0368 38.7089C45.0368 38.941 44.9446 39.1635 44.7805 39.3276C44.6164 39.4917 44.3939 39.5839 44.1618 39.5839H41.2031C40.9711 39.5839 40.7485 39.4917 40.5844 39.3276C40.4203 39.1635 40.3281 38.941 40.3281 38.7089V21.7922C40.3281 21.5602 40.4203 21.3376 40.5844 21.1735C40.7485 21.0094 40.9711 20.9172 41.2031 20.9172H48.5333C48.928 20.917 49.3157 21.0223 49.6562 21.222C49.9966 21.4218 50.2776 21.7089 50.47 22.0536L55.2055 30.5469C55.6557 31.3553 55.8922 32.2652 55.8926 33.1906V38.0789C55.892 38.4769 55.7336 38.8585 55.4522 39.1399C55.1707 39.4214 54.7892 39.5798 54.3911 39.5804Z" fill="#016A78"></path><path d="M18.8802 39.5804H10.4907C10.2587 39.5804 10.0361 39.4882 9.872 39.3241C9.70791 39.16 9.61572 38.9375 9.61572 38.7054V31.9761C9.61572 31.744 9.70791 31.5214 9.872 31.3574C10.0361 31.1933 10.2587 31.1011 10.4907 31.1011C10.7228 31.1011 10.9453 31.1933 11.1094 31.3574C11.2735 31.5214 11.3657 31.744 11.3657 31.9761V37.8304H18.8802C19.1123 37.8304 19.3348 37.9226 19.4989 38.0867C19.663 38.2508 19.7552 38.4733 19.7552 38.7054C19.7552 38.9375 19.663 39.16 19.4989 39.3241C19.3348 39.4882 19.1123 39.5804 18.8802 39.5804Z" fill="#016A78"></path><path d="M10.4907 28.8714C10.2587 28.8714 10.0361 28.7792 9.872 28.6151C9.70791 28.4511 9.61572 28.2285 9.61572 27.9964V22.1211C9.61572 21.889 9.70791 21.6665 9.872 21.5024C10.0361 21.3383 10.2587 21.2461 10.4907 21.2461C10.7228 21.2461 10.9453 21.3383 11.1094 21.5024C11.2735 21.6665 11.3657 21.889 11.3657 22.1211V27.9999C11.3648 28.2314 11.2722 28.453 11.1082 28.6164C10.9442 28.7797 10.7222 28.8714 10.4907 28.8714Z" fill="#016A78"></path><path d="M41.2032 39.5804H26.7167C26.4847 39.5804 26.2621 39.4882 26.098 39.3241C25.9339 39.16 25.8417 38.9374 25.8417 38.7054C25.8417 38.4733 25.9339 38.2507 26.098 38.0867C26.2621 37.9226 26.4847 37.8304 26.7167 37.8304H40.3282V14.9392H11.3657V18.543C11.3657 18.7751 11.2735 18.9977 11.1094 19.1618C10.9453 19.3259 10.7228 19.418 10.4907 19.418C10.2587 19.418 10.0361 19.3259 9.872 19.1618C9.70791 18.9977 9.61572 18.7751 9.61572 18.543V14.7782C9.61634 14.3568 9.78411 13.9528 10.0822 13.6549C10.3803 13.357 10.7844 13.1895 11.2059 13.1892H40.4892C40.9105 13.1898 41.3143 13.3574 41.6121 13.6553C41.91 13.9532 42.0776 14.357 42.0782 14.7782V38.7054C42.0782 38.9374 41.986 39.16 41.8219 39.3241C41.6578 39.4882 41.4353 39.5804 41.2032 39.5804Z" fill="#016A78"></path><path d="M13.9497 32.8511H2.84424C2.61217 32.8511 2.38961 32.7589 2.22552 32.5948C2.06143 32.4307 1.96924 32.2081 1.96924 31.9761C1.96924 31.744 2.06143 31.5214 2.22552 31.3574C2.38961 31.1933 2.61217 31.1011 2.84424 31.1011H13.9497C14.1818 31.1011 14.4044 31.1933 14.5685 31.3574C14.7326 31.5214 14.8247 31.744 14.8247 31.9761C14.8247 32.2081 14.7326 32.4307 14.5685 32.5948C14.4044 32.7589 14.1818 32.8511 13.9497 32.8511Z" fill="#016A78"></path><path d="M22.7991 28.8716H7.30225C7.07018 28.8716 6.84762 28.7794 6.68353 28.6153C6.51943 28.4512 6.42725 28.2286 6.42725 27.9966C6.42725 27.7645 6.51943 27.542 6.68353 27.3779C6.84762 27.2138 7.07018 27.1216 7.30225 27.1216H22.7991C23.0311 27.1216 23.2537 27.2138 23.4178 27.3779C23.5819 27.542 23.6741 27.7645 23.6741 27.9966C23.6741 28.2286 23.5819 28.4512 23.4178 28.6153C23.2537 28.7794 23.0311 28.8716 22.7991 28.8716Z" fill="#016A78"></path><path d="M6.82054 24.2515H0.769043C0.536979 24.2515 0.314419 24.1593 0.150325 23.9952C-0.0137698 23.8311 -0.105957 23.6085 -0.105957 23.3765C-0.105957 23.1444 -0.0137698 22.9218 0.150325 22.7577C0.314419 22.5937 0.536979 22.5015 0.769043 22.5015H6.82054C7.05261 22.5015 7.27517 22.5937 7.43926 22.7577C7.60336 22.9218 7.69554 23.1444 7.69554 23.3765C7.69554 23.6085 7.60336 23.8311 7.43926 23.9952C7.27517 24.1593 7.05261 24.2515 6.82054 24.2515Z" fill="#016A78"></path><path d="M16.5233 19.418H5.84131C5.60924 19.418 5.38668 19.3258 5.22259 19.1617C5.0585 18.9976 4.96631 18.775 4.96631 18.543C4.96631 18.3109 5.0585 18.0883 5.22259 17.9243C5.38668 17.7602 5.60924 17.668 5.84131 17.668H16.5233C16.7554 17.668 16.9779 17.7602 17.142 17.9243C17.3061 18.0883 17.3983 18.3109 17.3983 18.543C17.3983 18.775 17.3061 18.9976 17.142 19.1617C16.9779 19.3258 16.7554 19.418 16.5233 19.418Z" fill="#016A78"></path></g><defs><clipPath id="clip0_13379_13018"><rect width="56" height="56" fill="white"></rect></clipPath></defs></svg> 