<svg xml:space="preserve" style="enable-background:new 0 0 250 51;" viewBox="0 0 250 51" y="0px" x="0px" xmlns:xlink="http://www.w3.org/1999/xlink" xmlns="http://www.w3.org/2000/svg" id="Layer_1" version="1.1">
<style type="text/css">
	.st0{enable-background:new    ;}
	.st1{fill:#32B4AC;}
</style>
<g>
	<g class="st0">
		<path d="M46.9,30.2L44,16.5l-3,13.7H36l-5.2-19h4.8l3,13.2l2.7-13.2h5.1l2.5,13.2l2.5-11.4c0.4-1.1,1.1-1.8,2.3-1.8
			h3.2l-5.3,19H46.9L46.9,30.2z" class="st1"></path>
		<path d="M75.8,24.4c-0.5,2.2-1.5,3.7-2.8,4.7c-1.5,1-3.4,1.5-5.5,1.5c-5.7-0.3-8.6-3.6-8.6-10s2.9-9.8,8.8-9.8
			c6.1,0,8.9,3.7,8.5,11.2H63.9c0.3,2.9,1.5,4.3,3.8,4.3c1.1,0,2.2-0.5,3-1.3c0.4-0.5,1-0.8,1.6-0.8h3.4V24.4z M71.1,18.5
			c-0.3-2.5-1.5-3.8-3.6-3.8s-3.3,1.3-3.7,3.8H71.1z" class="st1"></path>
		<path d="M81.1,5.7c0.6,0,1.1,0.3,1.6,0.6c0.5,0.5,0.8,1,0.8,1.6v22.2h-4.8V5.6L81.1,5.7L81.1,5.7z" class="st1"></path>
		<path d="M89.8,5.7c0.6,0,1.1,0.3,1.6,0.6c0.5,0.5,0.8,1,0.8,1.6v22.2h-4.8V5.6L89.8,5.7L89.8,5.7z" class="st1"></path>
		<path d="M101.4,30.2l-6.7-19h5.3l3.8,13.3l3.3-11.7c0.4-1.1,1.1-1.6,2.3-1.6h3.7l-6.7,19H101.4L101.4,30.2L101.4,30.2
			z" class="st1"></path>
		<path d="M131.5,24.4c-0.5,2.2-1.5,3.7-2.8,4.7c-1.5,1-3.4,1.5-5.5,1.5c-5.7-0.3-8.6-3.6-8.6-10s2.9-9.8,8.8-9.8
			c6.1,0,8.9,3.7,8.5,11.2h-12.3c0.3,2.9,1.5,4.3,3.8,4.3c1.1,0,2.2-0.5,3-1.3c0.4-0.5,1-0.8,1.6-0.8h3.4V24.4z M126.8,18.5
			c-0.3-2.5-1.5-3.8-3.6-3.8s-3.3,1.3-3.7,3.8H126.8z" class="st1"></path>
		<path d="M134.4,20.3c0.1-6.1,3.4-9.3,9.8-9.3h0.8V16h-1.6c-2.7,0-4.1,1.4-4.1,4.2v9.9h-4.8
			C134.4,30.1,134.4,20.3,134.4,20.3z" class="st1"></path>
		<path d="M151.8,23.9c0,1,0.4,1.6,1,2.2c0.6,0.5,1.5,0.8,2.9,0.8c2,0,3-0.6,3-1.8c0-1-1.6-1.8-4.9-2.3
			c-4.2-0.8-6.3-2.7-6.5-5.6c0-1.9,0.6-3.4,2-4.6c1.3-1,3.2-1.5,5.6-1.6c2.4,0,4.3,0.5,5.8,1.6c1.4,1.1,2.2,2.7,2.3,4.7h-3
			c-1.1,0-1.8-0.5-2.2-1.1c-0.4-0.9-1.3-1.3-2.9-1.3c-1.9,0-2.8,0.5-2.8,1.5c0,1,1.3,1.8,3.7,2.2c3.3,0.6,5.3,1.5,6.5,2.4
			c0.9,0.9,1.3,2,1.3,3.4c0,2.2-0.8,3.7-2.3,4.8c-1.5,1-3.6,1.6-6.5,1.6c-2.7,0-4.7-0.5-6-1.6c-1.5-1-2.2-2.7-2.2-4.9h5.1V23.9z" class="st1"></path>
		<path d="M183.1,24.4c-0.5,2.2-1.5,3.7-2.8,4.7c-1.5,1-3.4,1.5-5.5,1.5c-5.7-0.3-8.6-3.6-8.6-10s2.9-9.8,8.8-9.8
			c6.1,0,8.9,3.7,8.5,11.2h-12.3c0.3,2.9,1.5,4.3,3.8,4.3c1.1,0,2.2-0.5,3-1.3c0.4-0.5,1-0.8,1.6-0.8h3.4V24.4z M178.3,18.5
			c-0.3-2.5-1.5-3.8-3.6-3.8s-3.3,1.3-3.7,3.8H178.3z" class="st1"></path>
		<path d="M201.1,5.7c0.6,0,1.3,0.3,1.6,0.8c0.5,0.5,0.8,1,0.8,1.6v2.5v11.3c0,5.7-3,8.5-9,8.5
			c-5.8-0.1-8.9-3.3-8.9-9.6c0-6.5,2.5-9.8,7.6-10c2.4,0,4.2,1,5.5,2.9V5.6h2.4V5.7z M194.6,15.1c-2.5,0-3.9,1.8-4.1,5.5
			c0,3.8,1.3,5.7,4.1,5.7c2.7,0,4.1-1.9,4.1-5.7C198.7,16.9,197.3,15.1,194.6,15.1z" class="st1"></path>
	</g>
	<g class="st0">
		<path d="M211.4,6.9h-2v5.3h-1.3V6.9h-2V5.7h5.3L211.4,6.9L211.4,6.9z" class="st1"></path>
		<path d="M218,12.1V7.9l-1.6,3.2h-0.6L214,7.9v4.2h-1.3V5.6h1.3l1.9,3.7l1.9-3.7h1.3v6.5H218z" class="st1"></path>
	</g>
	<g>
		<path d="M42.1,45.4v-5.3l-2.3,4.1h-0.5L37,40.1v5.3h-0.9v-7h1l2.5,4.6l2.5-4.6h0.9v7H42.1z" class="st1"></path>
		<path d="M47.3,38.4H48l2.9,7h-1l-0.8-2h-3l-0.8,2h-1L47.3,38.4z M48.9,42.6l-1.3-3.2l-1.3,3.2H48.9z" class="st1"></path>
		<path d="M52.6,38.4l2.2,2.9l2.2-2.9h1L55.3,42l2.5,3.4h-1l-2-2.8l-2,2.8h-1l2.5-3.4l-2.7-3.6H52.6z" class="st1"></path>
		<path d="M59.2,45.4v-7h0.9v7H59.2z" class="st1"></path>
		<path d="M68.3,45.4v-5.3L66,44.1h-0.6l-2.3-4.1v5.3h-0.9v-7h1l2.5,4.6l2.5-4.6h0.9v7H68.3z" class="st1"></path>
		<path d="M71.4,45.4v-7h0.9v7H71.4z" class="st1"></path>
		<path d="M81.1,45.4v-7H82v7H81.1z" class="st1"></path>
		<path d="M85.2,40.1v5.3h-0.9v-7h0.8l4.3,5.5v-5.5h0.9v7h-0.8L85.2,40.1z" class="st1"></path>
		<path d="M95.2,45.4c-0.5,0-0.9-0.1-1.3-0.3c-0.4-0.3-0.8-0.5-1-0.8c-0.3-0.4-0.5-0.8-0.8-1.1
			c-0.1-0.4-0.3-0.9-0.3-1.3c0-0.5,0.1-0.9,0.3-1.3c0.1-0.4,0.4-0.8,0.8-1.1c0.3-0.4,0.6-0.6,1-0.8c0.4-0.3,0.9-0.3,1.3-0.3
			c0.6,0,1.3,0.1,1.6,0.4c0.4,0.3,0.8,0.6,1,1.1l-0.6,0.5c-0.3-0.4-0.5-0.8-0.9-0.9c-0.4-0.3-0.8-0.3-1.1-0.3c-0.4,0-0.6,0.1-1,0.3
			c-0.3,0.1-0.5,0.4-0.8,0.6c-0.3,0.3-0.4,0.5-0.5,0.9c-0.1,0.4-0.1,0.6-0.1,1s0,0.8,0.3,1c0.1,0.4,0.3,0.6,0.5,0.9
			c0.3,0.3,0.5,0.5,0.8,0.6c0.3,0.1,0.6,0.3,1,0.3c0.4,0,0.8-0.1,1.1-0.3c0.4-0.3,0.8-0.5,1-0.9v0.9C96.9,45,96.1,45.4,95.2,45.4z
			 M97.4,42.6h-1.5V42h2.3v3.4h-0.8C97.4,45.4,97.4,42.6,97.4,42.6z" class="st1"></path>
		<path d="M108.7,38.4v7h-0.9v-3.2h-3.9v3.2h-0.9v-7h0.9v3h3.9v-3H108.7L108.7,38.4z" class="st1"></path>
		<path d="M113.7,45.4c-0.5,0-1-0.1-1.4-0.3c-0.4-0.3-0.8-0.5-0.9-0.8c-0.3-0.4-0.4-0.8-0.5-1.1
			c-0.1-0.4-0.1-0.9-0.1-1.3v-3.6h0.9V42c0,0.4,0,0.6,0.1,1c0,0.3,0.3,0.6,0.4,0.9c0.1,0.3,0.4,0.5,0.6,0.6c0.3,0.1,0.6,0.3,1,0.3
			c0.4,0,0.8-0.1,1-0.3c0.3-0.1,0.5-0.4,0.6-0.6c0.1-0.3,0.3-0.5,0.4-0.9c0-0.3,0.1-0.6,0.1-1v-3.6h0.9V42c0,0.5,0,0.9-0.1,1.3
			s-0.3,0.8-0.5,1.1c-0.3,0.3-0.5,0.5-0.9,0.8C114.7,45.3,114.2,45.4,113.7,45.4z" class="st1"></path>
		<path d="M124.9,45.4v-5.3l-2.3,4.1h-0.5l-2.3-4.1v5.3h-0.9v-7h1l2.5,4.6l2.5-4.6h0.9v7H124.9z" class="st1"></path>
		<path d="M130.1,38.4h0.8l2.9,7h-1l-0.8-2h-3l-0.8,2h-1L130.1,38.4z M131.7,42.6l-1.3-3.2l-1.3,3.2H131.7z" class="st1"></path>
		<path d="M136,40.1v5.3h-0.9v-7h0.8l4.3,5.5v-5.5h0.9v7h-0.8L136,40.1z" class="st1"></path>
		<path d="M146.3,45.4v-7h2.9c0.3,0,0.6,0,0.9,0.3c0.3,0.1,0.5,0.3,0.6,0.5c0.3,0.3,0.4,0.5,0.5,0.8
			c0.1,0.3,0.1,0.5,0.1,0.8c0,0.4-0.1,0.8-0.3,1c-0.1,0.4-0.4,0.6-0.8,0.8c-0.3,0.3-0.6,0.3-1.1,0.3h-2.2v2.5L146.3,45.4L146.3,45.4
			z M147.2,42.1h2c0.3,0,0.5,0,0.6-0.3c0.1-0.1,0.4-0.3,0.4-0.5c0.1-0.3,0.1-0.5,0.1-0.8c0-0.3,0-0.5-0.1-0.8
			c-0.1-0.3-0.3-0.4-0.5-0.5c-0.3-0.1-0.4-0.3-0.6-0.3h-2L147.2,42.1L147.2,42.1z" class="st1"></path>
		<path d="M155.8,45.4c-0.5,0-1-0.1-1.4-0.3c-0.4-0.3-0.8-0.5-1-0.8c-0.3-0.4-0.5-0.8-0.6-1.1s-0.3-0.9-0.3-1.3
			s0.1-0.9,0.3-1.3s0.4-0.8,0.8-1.1c0.3-0.4,0.6-0.6,1-0.8c0.4-0.3,0.9-0.3,1.3-0.3c0.5,0,1,0.1,1.4,0.3c0.4,0.3,0.8,0.5,1,0.8
			c0.3,0.3,0.5,0.8,0.6,1.1s0.3,0.9,0.3,1.3c0,0.5-0.1,0.9-0.3,1.3s-0.4,0.8-0.8,1.1c-0.3,0.4-0.6,0.6-1,0.8
			C156.7,45.3,156.3,45.4,155.8,45.4z M153.4,41.9c0,0.4,0,0.8,0.1,1c0.1,0.4,0.3,0.6,0.5,0.9s0.5,0.5,0.8,0.6
			c0.3,0.1,0.6,0.3,1,0.3s0.8-0.1,1-0.3c0.3-0.1,0.5-0.4,0.8-0.6s0.4-0.5,0.5-0.9c0.1-0.4,0.1-0.6,0.1-1c0-0.4,0-0.6-0.1-1
			c-0.1-0.4-0.3-0.6-0.5-0.9s-0.5-0.5-0.8-0.6c-0.3-0.1-0.6-0.3-1-0.3s-0.8,0.1-1,0.3c-0.3,0.1-0.5,0.4-0.8,0.6
			c-0.3,0.3-0.4,0.5-0.5,0.9C153.4,41.2,153.4,41.6,153.4,41.9z" class="st1"></path>
		<path d="M165.7,39.2h-2.4v6.1h-0.9v-6.1H160v-0.8h5.8L165.7,39.2L165.7,39.2z" class="st1"></path>
		<path d="M172.1,44.7v0.8h-4.8v-7h4.7v0.8h-3.8v2.3h3.3v0.8h-3.3v2.4H172.1L172.1,44.7z" class="st1"></path>
		<path d="M174.6,40.1v5.3h-0.9v-7h0.8l4.3,5.5v-5.5h0.9v7h-0.8L174.6,40.1z" class="st1"></path>
		<path d="M186.9,39.2h-2.4v6.1h-0.9v-6.1h-2.4v-0.8h5.8L186.9,39.2L186.9,39.2z" class="st1"></path>
		<path d="M188.4,45.4v-7h0.9v7H188.4z" class="st1"></path>
		<path d="M193.6,38.4h0.8l2.9,7h-1l-0.8-2h-3l-0.8,2h-1L193.6,38.4z M195.3,42.6l-1.3-3.2l-1.3,3.2H195.3z" class="st1"></path>
		<path d="M198.7,45.4v-7h0.9v6.1h3.9v0.8h-4.8V45.4z" class="st1"></path>
		<path d="M76.8,45.4c-0.5,0-1-0.1-1.5-0.3c-0.5-0.1-0.9-0.4-1.1-0.6l0.4-0.8c0.3,0.3,0.6,0.4,1,0.5
			c0.4,0.1,0.8,0.3,1.3,0.3c0.4,0,0.8,0,1-0.1c0.3-0.1,0.4-0.3,0.5-0.4c0.1-0.1,0.1-0.4,0.1-0.5c0-0.3-0.1-0.4-0.3-0.5
			c-0.1-0.1-0.4-0.3-0.6-0.4c-0.3-0.1-0.5-0.1-0.8-0.3c-0.3,0-0.6-0.1-0.9-0.3c-0.3-0.1-0.5-0.3-0.8-0.4s-0.4-0.3-0.6-0.5
			c-0.1-0.3-0.3-0.5-0.3-0.9c0-0.4,0.1-0.6,0.3-1c0.3-0.3,0.5-0.5,0.9-0.8c0.4-0.1,0.9-0.3,1.5-0.3c0.4,0,0.8,0,1.1,0.1
			c0.4,0.1,0.8,0.3,1,0.5l-0.3,0.8c-0.3-0.3-0.6-0.4-0.9-0.4c-0.4-0.1-0.6-0.1-1-0.1c-0.4,0-0.8,0-1,0.1s-0.4,0.3-0.5,0.4
			c-0.1,0.1-0.1,0.4-0.1,0.5c0,0.3,0.1,0.4,0.3,0.5s0.4,0.3,0.6,0.4c0.3,0.1,0.5,0.1,0.8,0.3c0.3,0,0.6,0.1,0.9,0.3
			c0.3,0.1,0.5,0.3,0.8,0.4c0.3,0.1,0.5,0.3,0.6,0.5c0.1,0.3,0.3,0.5,0.3,0.9c0,0.4-0.1,0.6-0.3,1c-0.3,0.3-0.5,0.5-0.9,0.8
			C77.8,45.4,77.3,45.4,76.8,45.4z" class="st1"></path>
	</g>
</g>
</svg>
