<svg xmlns="http://www.w3.org/2000/svg" fill="none" viewBox="0 0 24 24" height="24" width="24">
<path stroke-width="0.9" stroke="#2C2C2C" d="M22.5418 7.36094L22.5425 7.36354C22.5471 7.3824 22.55 7.40469 22.55 7.42857C22.55 9.18749 21.2499 10.55 19.7344 10.55C18.8487 10.55 18.0466 10.0931 17.5228 9.35756L17.1562 8.84275L16.7897 9.35756C16.2659 10.0931 15.4638 10.55 14.5781 10.55C13.6925 10.55 12.8903 10.0931 12.3666 9.35756L12 8.84275L11.6334 9.35756C11.1097 10.093 10.3063 10.55 9.42188 10.55C8.53749 10.55 7.73401 10.093 7.21032 9.35756L6.84375 8.84275L6.47718 9.35756C5.95349 10.093 5.15001 10.55 4.26562 10.55C2.75008 10.55 1.45 9.18749 1.45 7.42857C1.45 7.40468 1.45286 7.3824 1.45752 7.36354L1.45752 7.36354L1.45815 7.36094L2.70235 2.18738C2.70238 2.18726 2.7024 2.18715 2.70243 2.18704C2.81023 1.74268 3.18764 1.45 3.60013 1.45H20.4012C20.814 1.45 21.1909 1.74286 21.2974 2.18648L21.2975 2.18665L22.5418 7.36094Z"></path>
<path fill="#2C2C2C" d="M16.2183 14.3627C15.3396 13.4839 14.1713 13 12.9286 13C11.6859 13 10.5175 13.4839 9.63879 14.3627C8.76006 15.2414 8.27612 16.4097 8.27612 17.6524C8.27612 20.1664 10.6531 22.2573 11.9301 23.3807C12.1076 23.5368 12.2608 23.6716 12.3829 23.7856C12.5359 23.9285 12.7322 24 12.9286 24C13.1249 24 13.3212 23.9285 13.4742 23.7856C13.5963 23.6716 13.7495 23.5368 13.927 23.3807C15.204 22.2573 17.581 20.1664 17.581 17.6524C17.581 16.4097 17.0971 15.2414 16.2183 14.3627ZM13.5014 22.8969C13.32 23.0564 13.1634 23.1942 13.0343 23.3148C12.975 23.3701 12.8821 23.3702 12.8228 23.3148C12.6937 23.1941 12.537 23.0564 12.3557 22.8969C11.1551 21.8408 8.92044 19.875 8.92044 17.6524C8.92044 15.4424 10.7184 13.6444 12.9285 13.6444C15.1386 13.6444 16.9366 15.4424 16.9366 17.6524C16.9366 19.875 14.7019 21.8408 13.5014 22.8969Z"></path>
<path fill="#2C2C2C" d="M12.9286 15.4268C11.798 15.4268 10.8783 16.3465 10.8783 17.477C10.8783 18.6075 11.798 19.5273 12.9286 19.5273C14.0591 19.5273 14.9788 18.6075 14.9788 17.477C14.9788 16.3465 14.0591 15.4268 12.9286 15.4268ZM12.9286 18.8829C12.1534 18.8829 11.5227 18.2522 11.5227 17.477C11.5227 16.7018 12.1534 16.0711 12.9286 16.0711C13.7038 16.0711 14.3345 16.7018 14.3345 17.477C14.3345 18.2522 13.7038 18.8829 12.9286 18.8829Z"></path>
<path fill="#2C2C2C" d="M19.6 10.5V20.6003H15.7417L15.0684 21.4003H20H20.4V21.0003V10.5H19.6Z" clip-rule="evenodd" fill-rule="evenodd"></path>
<path fill="#2C2C2C" d="M4.4 10.2852V20.8657L9.98101 20.6004C10.0308 20.598 10.0788 20.6049 10.1236 20.6194L10.3954 20.9394C10.3975 20.953 10.3989 20.9669 10.3995 20.9809C10.41 21.2016 10.2397 21.389 10.019 21.3995L4.01899 21.6847L3.6 21.7046V21.2852V10.2852H4.4Z" clip-rule="evenodd" fill-rule="evenodd"></path>
</svg>
