<svg id="Layer_1" enable-background="new 0 0 64 64" viewBox="0 0 64 64" xmlns="http://www.w3.org/2000/svg"><g><path d="m54.75 29.96h-45.5c-.55 0-1-.45-1-1v-5.68c0-.55.45-1 1-1h45.51c.55 0 1 .45 1 1v5.68c-.01.55-.45 1-1.01 1zm-44.5-2h43.51v-3.68h-43.51z"/></g><g><path d="m56.08 62.34h-48.16c-.55 0-1-.45-1-1v-4.74c0-.55.45-1 1-1h48.16c.55 0 1 .45 1 1v4.73c0 .56-.45 1.01-1 1.01zm-47.16-2h46.16v-2.74h-46.16z"/></g><g><path d="m53.3 57.6h-42.6c-.55 0-1-.45-1-1v-27.64c0-.55.45-1 1-1h42.6c.55 0 1 .45 1 1v27.64c0 .56-.45 1-1 1zm-41.6-2h40.6v-25.64h-40.6z"/></g><g><path d="m49.39 57.6h-10.34c-.55 0-1-.45-1-1v-17.78c0-.55.45-1 1-1h10.34c.55 0 1 .45 1 1v17.78c0 .56-.45 1-1 1zm-9.34-2h8.34v-15.78h-8.34z"/></g><g><path d="m33.68 45.25h-19.67c-.55 0-1-.45-1-1v-10.86c0-.55.45-1 1-1h19.67c.55 0 1 .45 1 1v10.86c0 .55-.45 1-1 1zm-18.67-2h17.67v-8.86h-17.67z"/></g><g><path d="m33.68 37.56h-19.67c-.55 0-1-.45-1-1s.45-1 1-1h19.67c.55 0 1 .45 1 1s-.45 1-1 1z"/></g><g><path d="m49.39 42.88h-10.34c-.55 0-1-.45-1-1s.45-1 1-1h10.34c.55 0 1 .45 1 1s-.45 1-1 1z"/></g><g><g><path d="m27.38 10.13c-.12 0-.25-.02-.37-.07-.51-.2-.77-.78-.56-1.3 1.56-3.97 4.76-6.74 4.9-6.86.37-.32.93-.32 1.3 0 .14.12 3.33 2.88 4.89 6.85.05.12.07.24.07.37 0 .55-.45 1-1 1-.44 0-.82-.29-.95-.69-.97-2.45-2.71-4.43-3.66-5.39-.95.96-2.71 2.97-3.69 5.45-.15.4-.53.64-.93.64z"/></g><g><path d="m32 24.28c-.46 0-.87-.32-.97-.77-.07-.3-1.7-7.42 1.89-12.33s10.86-5.52 11.17-5.54c.49-.04.94.29 1.05.77.07.3 1.7 7.42-1.89 12.33s-10.86 5.52-11.17 5.54c-.03 0-.05 0-.08 0zm11.35-16.53c-1.92.31-6.45 1.37-8.82 4.61-2.38 3.25-2 7.88-1.71 9.8 1.92-.31 6.45-1.37 8.82-4.61 2.36-3.24 1.99-7.88 1.71-9.8z"/></g><g><path d="m32 24.28c-.03 0-.05 0-.08 0-.31-.02-7.59-.63-11.17-5.55-3.59-4.91-1.96-12.02-1.89-12.32.11-.48.56-.8 1.05-.77.18.01 4.4.36 8.01 2.65 1.29.81 2.35 1.79 3.16 2.9.88 1.2 1.51 2.64 1.89 4.27.12.54-.21 1.08-.75 1.2-.54.13-1.07-.21-1.2-.75-.32-1.37-.84-2.56-1.56-3.55-.66-.91-1.54-1.71-2.61-2.39-2.26-1.43-4.86-2.01-6.2-2.23-.29 1.92-.65 6.56 1.72 9.8 3.03 4.16 9.64 4.73 9.71 4.73.55.04.96.52.92 1.07-.05.54-.48.94-1 .94z"/></g></g></svg>