<svg id="Capa_1" enable-background="new 0 0 512 512" height="512" viewBox="0 0 512 512" width="512" xmlns="http://www.w3.org/2000/svg"><g><g><path d="m510.507 456.742c-1.822-2.947-5.041-4.742-8.507-4.742h-15.262l-54.532-66.651c18.205-29.138 27.794-62.59 27.794-97.229v-9.386c17.233-4.452 30-20.13 30-38.734 0-22.056-17.944-40-40-40h-6.211c1.048-6.667 2.648-13.701 4.801-21.04.75-2.561.45-5.271-.83-7.61s-3.4-4.05-5.96-4.8c-.92-.27-1.87-.4-2.82-.4-4.41 0-8.35 2.95-9.59 7.19-2.72 9.31-4.68 18.28-5.83 26.66h-98.9c4.42-4.37 8.62-9.4 12.479-14.94 7.271-10.45 13.62-22.96 18.88-37.18 4.12-11.11 7.67-23.55 10.55-36.99 4.5-21.109 5.711-37.22 5.91-40.229l.021-.661c0-13.351 5.2-25.9 14.64-35.36 9.46-9.44 22.02-14.64 35.36-14.64s25.899 5.2 35.35 14.64c9.44 9.46 14.641 22.01 14.65 35.36 0 7.2-1.5 14.149-4.46 20.66-2.29 5.01-.061 10.949 4.96 13.239 1.31.601 2.7.9 4.13.9 3.91 0 7.479-2.29 9.11-5.85 0 0 0 0 0-.011 4.159-9.12 6.26-18.85 6.26-28.939 0-9.45-1.851-18.62-5.5-27.25-3.53-8.33-8.58-15.82-15-22.25-6.431-6.431-13.92-11.47-22.25-15-8.63-3.649-17.8-5.499-27.25-5.499-9.42 0-18.561 1.84-27.17 5.47-8.32 3.5-15.79 8.521-22.21 14.91-6.42 6.4-11.48 13.84-15.021 22.14-3.67 8.58-5.55 17.71-5.6 27.12h.05l-.05.021c-.021.3-2.061 31-12.21 62.51-5.51 17.16-12.37 31.5-20.4 42.64-9.219 12.783-19.519 21.034-31.444 25.19h-7.148c12.382-12.004 18.653-26.374 18.703-42.97.015-4.99-.544-10.116-1.653-15.366l28.134-48.663c2.63-4.554 4.02-9.73 4.02-14.971 0-10.692-5.75-20.658-15.014-26.013-3.04-1.754-6.263-2.907-9.534-3.509l2.028-3.507c2.63-4.554 4.02-9.73 4.02-14.971 0-10.692-5.75-20.658-15.014-26.013-14.325-8.265-32.714-3.339-40.997 10.983l-20.151 34.914c-29.763-27.982-58.709-47.407-59.944-48.231-2.513-1.679-5.65-2.129-8.537-1.228-2.885.902-5.207 3.061-6.317 5.872-13.53 34.28-19.286 64.682-20.64 90.572-24.053-20.822-44.463-34.519-45.507-35.216-2.514-1.679-5.652-2.13-8.538-1.228-2.885.901-5.207 3.061-6.317 5.872-18.589 47.09-24.914 91.99-18.87 133.672h-21.169c-22.056 0-40 17.944-40 40 0 19.247 13.666 35.36 31.804 39.152 8.762 36.669 25.719 71.014 49.462 100.199l-30.218 30.217c-17.487 17.487-22.471 42.544-13.007 65.393 9.464 22.847 30.703 37.039 55.429 37.039 7.917 0 15.644-1.538 22.967-4.571 7.305-3.026 13.851-7.396 19.464-12.998l42.281-42.29c21.406 9.084 43.729 15.064 66.663 17.911l18.21 36.42c1.695 3.388 5.157 5.528 8.945 5.528h210c3.788 0 7.25-2.14 8.944-5.528l20-40c1.55-3.1 1.384-6.782-.437-9.73zm-49.609-4.742h-167.795l67.138-82.058c4.129-5.047 10.239-7.942 16.759-7.942s12.63 2.895 16.76 7.941zm-150.398-373.97c0 1.758-.45 3.43-1.337 4.965l-19.667 34.019c-3.187-6.41-7.093-12.977-11.722-19.696l14.032-24.311c2.766-4.778 8.905-6.422 13.679-3.67 3.094 1.788 5.015 5.119 5.015 8.693zm-37.193-53.023c2.765-4.779 8.906-6.421 13.679-3.67 3.094 1.788 5.015 5.119 5.015 8.693 0 1.758-.45 3.43-1.337 4.964l-26.068 45.079c-4.293-5.128-8.987-10.338-14.053-15.622zm-98.105.592c36.746 26.691 104.935 85.68 104.798 131.371-.052 17.158-10.343 30.825-31.406 41.671-9.658-12.471-34.926-49.749-40.648-104.677-.572-5.492-5.488-9.478-10.982-8.91-5.493.572-9.482 5.489-8.91 10.982 5.066 48.629 23.945 84.45 36.904 103.964h-40.531c-9.997-15.004-43.671-75.989-9.225-174.401zm-81.032 60.067c10.774 7.88 28.519 21.55 46.378 38.27.917 14.095 3.074 26.318 5.638 36.505 4.268 16.953 10.048 30.209 15.021 39.559h-24.267c-4.998-14.886-8.356-30.341-9.994-46.038-.573-5.493-5.498-9.471-10.984-8.908-5.493.573-9.481 5.491-8.908 10.984 1.558 14.931 4.543 29.662 8.891 43.962h-34.551c-5.702-35.498-1.413-73.866 12.776-114.334zm-74.17 154.334c0-11.028 8.972-20 20-20h410c11.028 0 20 8.972 20 20s-8.972 20-20 20h-410c-11.028 0-20-8.972-20-20zm101.767 240.281c-3.742 3.734-8.111 6.651-12.983 8.67-4.885 2.024-10.036 3.049-15.314 3.049-19.703 0-32.006-12.756-36.95-24.692-4.945-11.938-5.265-29.661 8.671-43.597l29.585-29.585c6.303 5.77 12.197 9.865 12.541 10.103 1.734 1.198 3.714 1.772 5.674 1.772 3.174 0 6.297-1.509 8.237-4.318 3.138-4.544 1.999-10.772-2.546-13.911-2.698-1.863-10.875-8.073-16.236-14.348-.022-.026-.048-.048-.07-.074-.008-.009-.014-.019-.022-.028-23.536-26.798-40.58-58.851-49.716-93.322h387.362v8.12c0 28.57-7.319 56.228-21.262 80.767l-9.5-11.611c-7.944-9.708-19.695-15.276-32.238-15.276s-24.294 5.568-32.238 15.277l-77.353 94.543c-30.319-1.122-59.64-8.054-87.222-20.649-8.884-4.26-17.903-11.863-17.988-11.934-4.208-3.575-10.519-3.064-14.096 1.143s-3.066 10.519 1.142 14.096c.28.238 4.552 3.85 10.477 7.843zm354.052 11.719h-197.638l-10-20h217.639z"/><circle cx="455.407" cy="134.255" r="10"/></g></g></svg>