<svg id="Layer_1" enable-background="new 0 0 75 75" viewBox="0 0 75 75" xmlns="http://www.w3.org/2000/svg"><g id="Ayurveda"><path d="m52.781765 40.7272339c-4.6066284-4.0805054-9.1080322-3.6682739-12.3238525-2.381897 1.1118774-2.8405151 1.8342896-7.5614624-2.4124756-12.3251343-.3027534-.3424244-.8347015-.3239384-1.1210938.0019531-4.0140381 4.5401001-3.6705322 8.9822998-2.4321289 12.1911621-6.6307354-2.5466919-12.2261333 2.4931641-12.2846661 2.5461426-.319828.2935104-.3235226.8047409.0009766 1.1025391.046875.0429688 3.6142578 3.2597656 8.4179688 3.2597656 1.1782227 0 2.4327984-.2010498 3.7266216-.6831665-2.4323711 6.5739746 2.5499268 12.0927734 2.6034546 12.1509399.2929764.3192406.8040199.3243065 1.1025391-.0009766.053894-.0585327 5.0831299-5.6589355 2.5196533-12.2785034 4.1820984 1.5869446 8.4582291.8741875 12.2049561-2.4607544.3314132-.29504.3382682-.8210257-.0019532-1.1220702zm-17.0253906 2.0625c-.0031738-.0038452-.0078735-.005249-.0111084-.0090332-.8127098-.979084-.7100868-2.4561119.3275146-3.2878418.0021973-.00177.0029907-.0045166.005188-.0062866.8117065-.6334229 2.0402832-.6393433 2.8463745.0111694.0037231.0029907.0083618.003479.012085.0064087.0022583.00177.0031738.0045166.0054932.0062866 1.2406502.9441986 1.0139961 2.9524651.0332031 3.5488281-.8921891.7708779-2.3991127.7141648-3.21875-.2695312zm1.7314453-15.1015625c3.008728 3.8170166 2.6228027 7.4989014 1.5545044 10.163208-.9708252-.4182739-2.1087646-.4177246-3.0824585-.0043335-1.0669556-2.6599121-1.4571534-6.3377075 1.5279541-10.1588745zm-13.5781231 13.6210937c1.5577393-1.1511841 5.5670166-3.5117188 10.1766338-1.6541748-.5005608 1.0533714-.5131874 2.1986732.0024414 3.2766724-4.6060772 1.8728638-8.6171856-.477478-10.1790752-1.6224976zm13.5966778 13.578125c-1.149292-1.5585938-3.510376-5.5667725-1.6542358-10.1760864 1.067215.5182076 2.2095375.5228081 3.2833252.0042114 1.8677367 4.6005249-.4832765 8.611084-1.6290894 10.171875zm3.4638671-12.03125c.392189-.8716469.450016-1.9727135.0465698-2.972229-.0175171-.043457-.0244751-.0903931-.0436401-.1332397 2.6582031-1.0664063 6.328125-1.4482422 10.1425781 1.5400391-3.8085937 2.9980468-7.4824218 2.6279296-10.1455078 1.5654296z"/><path d="m41.3862572 49.494812c-.2373047.3398438-.1552734.8066406.1835938 1.0449219 1.7910156 1.2548828 3.9892578 1.9658203 6.5322266 2.1123047.4339218.0289268.8191948-.3366928.7919922-.7949219-.1337891-2.1796875-.6826172-4.1103516-1.6318359-5.7402344-.2080078-.3574219-.6660156-.4775391-1.0263672-.2705078-.3574219.2089844-.4785156.6679688-.2705078 1.0263672.7041016 1.2080078 1.1572266 2.6191406 1.3515625 4.2050781-1.890625-.2236328-3.5302734-.8164063-4.8857422-1.7666016-.3398439-.2392578-.8066408-.1552734-1.044922.1835938z"/><path d="m33.524929 33.1627808c.2109375-.3564453.0927734-.8164063-.2626953-1.0283203-2.91992-1.7294922-5.8837872-1.8652344-6.0087872-1.8701172-.3802738-.0428486-.7980976.3100109-.7783203.7802734.0039063.1005859.1162109 2.4960938 1.3916016 5.0957031.1308594.265625.3974609.4199219.6748047.4199219.550806 0 .9173088-.5800247.671875-1.0800781-.6904297-1.4082031-1-2.7675781-1.1357422-3.6162109 1.0058594.1582031 2.7304688.5605469 4.4189434 1.5615234.3564453.2099609.8164063.0927734 1.0283203-.2626953z"/><path d="m29.6489544 45.2985229c-.3398438-.2382813-.8066406-.15625-1.0449219.1835938-1.2558594 1.7900391-1.9667969 3.9882813-2.1132813 6.53125-.0249653.4556198.3539391.8195534.7949219.7919922 2.1796875-.1328125 4.1113281-.6816406 5.741209-1.6318359.3574219-.2089844.4785156-.6679688.2695313-1.0263672-.2070313-.3564453-.6640625-.4775391-1.0253906-.2695313-1.2080059.7041016-2.6201153 1.1572266-4.2060528 1.3505859.2236328-1.8896484.8164063-3.5302734 1.7675781-4.8847656.2373047-.3388672.1552735-.8066406-.1835937-1.0449219z"/><path d="m46.3628197 37.541687c.2568359 0 .5058594-.1308594.6464844-.3671875 1.7294922-2.9199219 1.8642578-5.8837891 1.8691406-6.0087891.0195923-.4657879-.4012108-.8234463-.7802734-.7783203-.1005859.0039063-2.4960938.1162109-5.0947266 1.390625-.3720703.1826172-.5253906.6318359-.34375 1.0039063.1826172.3710938.6289063.5253906 1.0039063.34375 1.4082031-.6904297 2.7666016-1 3.6162109-1.1357422-.1591797 1.0058594-.5605469 2.7294922-1.5615234 4.4189453-.2955399.4994087.0659599 1.1328125.6445312 1.1328125z"/><path d="m64.6548157 49.6911011c.3271484 0 .6279297-.2158203.7216797-.5458984 3.8882065-13.7436142-2.9354477-28.3007011-15.8710976-34.2011719-.3779297-.1708984-.8222656-.0058594-.9941406.3710938s-.0058594.8222656.3710938.9941406c12.2725868 5.5963001 18.7331276 19.4019585 15.0507813 32.4277344-.1345102.47723.2231787.9541015.7216834.9541015z"/><path d="m10.5132122 51.7848511c.1162109.296875.3994141.4775391.6992188.4775391.5283279 0 .8902264-.5325394.6992188-1.0224609-5.260149-13.4809494.9216204-29.171072 14.6806641-35.1386719.3798828-.1650391.5537109-.6064453.3896484-.9873047-.1650391-.3789063-.6054688-.5527344-.9873047-.3896484-14.5384951 6.3065795-21.0154572 22.8729018-15.4814454 37.0605468z"/><path d="m60.7065697 48.3551636c.3300781 0 .6328125-.21875.7236328-.5527344 3.1913795-11.6908722-2.6356087-24.0452366-13.6933594-29.0820313-.375-.1708984-.8203125-.0058594-.9931641.3720703-.171875.3769531-.0048828.8212891.3720703.9931641 10.3987579 4.7368183 15.8630333 16.3483543 12.8671875 27.3222656-.1093749.3994141.2298012.9472657.7236329.9472657z"/><path d="m27.5444622 20.2467651c.3740234-.1777344.5341797-.625.3564453-.9990234-.1767578-.3740234-.625-.5332031-.9990234-.3564453-10.904562 5.1683083-16.622551 17.612915-13.2207031 29.3144531.1164904.403511.5392332.6259384.9287109.5107422.3984375-.1152344.6269531-.53125.5107422-.9287109-3.1870222-10.9780884 2.1606788-22.6771813 12.4238281-27.5410157z"/><path d="m28.1147747 15.3043823c-.2109375.2705078-.2109375.6503906 0 .921875.1640625.2109375 4.0820293 5.1679688 9.553709 5.2177734 3.8011284 0 6.80019-2.2265224 9.2080078-5.2070313.2226563-.2753906.2226563-.6679688 0-.9433594-2.4087601-2.9774628-5.4101486-5.2001953-9.2080078-5.2001953-5.4716797.0507814-9.3896465 5.0000001-9.553709 5.2109376zm9.6367168-3.7109375c2.6425781 0 5.1855469 1.4023438 7.5664063 4.171875-2.0205536 2.3535862-4.5257683 4.1787109-7.6269531 4.1787109-3.8320313-.03125-6.9277325-3.0107422-7.9931622-4.1787109 2.0505276-2.2420606 4.9986592-4.171875 8.053709-4.171875z"/><path d="m37.500515 18.369812c1.3730469 0 2.4892578-1.1162109 2.4892578-2.4892578s-1.1162109-2.4902344-2.4892578-2.4902344-2.4902344 1.1171875-2.4902344 2.4902344 1.1171875 2.4892578 2.4902344 2.4892578zm0-3.4794922c.5458984 0 .9892578.4443359.9892578.9902344s-.4433594.9892578-.9892578.9892578c-.5459137 0-.9902344-.4433594-.9902344-.9892578s.4443207-.9902344.9902344-.9902344z"/><path d="m43.2329369 8.8395386 1.5888672-1.9296875c.2626953-.3193359.2177734-.7919922-.1025391-1.0556641-.3193359-.2626953-.7919922-.21875-1.0556641.1025391l-1.5888672 1.9296875c-.2626953.3193359-.2177734.7919922.1025391 1.0556641.3177872.262227.7917938.2186231 1.0556641-.1025391z"/><path d="m33.8178978 8.9420776c.3203125-.2636719.3652344-.7363281.1025391-1.0556641l-1.5888672-1.9296875c-.2636719-.3212891-.7363262-.3652344-1.0556622-.1025391-.3203125.2636719-.3652344.7363281-.1025391 1.0556641l1.5888653 1.9296875c.2636834.3209296.7376671.3649426 1.0556641.1025391z"/><path d="m38.6059837 8.1325073v-2.633789c0-.4140625-.3359375-.75-.75-.75s-.75.3359375-.75.75v2.6337891c0 .4140625.3359375.75.75.75s.75-.3359376.75-.7500001z"/><path d="m27.7143841 67.7575073c-.1337891.3925781.0761719.8183594.4677734.9521484 6.9620762 2.3751907 14.9625378 2.0789642 22.0429668-1.3994141.3710938-.1826172.5244141-.6318359.3417969-1.0039063-.1816406-.3701172-.6308594-.5273438-1.0039063-.3417969-6.7475357 3.314209-14.3372383 3.5620193-20.8964825 1.3251953-.392578-.1337889-.8183593.0761721-.9521483.4677736z"/><path d="m30.3862591 64.2799683c-.1103516.3994141.1230469.8125.5224609.9228516 5.7212582 1.5850296 12.2383137 1.1405792 18.0908184-1.9472656.3671875-.1933594.5068359-.6464844.3134766-1.0126953-.1914063-.3662109-.6445313-.5097656-1.0126953-.3134766-5.4924507 2.8964844-11.6160698 3.3175888-16.991209 1.828125-.4062501-.1123048-.8125001.1240234-.9228516.5224609z"/><path d="m66.7563782 63.6657104c1.3955078-1.3964844 2.1630859-3.2519531 2.1611328-5.2265625-.0049973-5.0347443-4.9528542-8.4193497-9.7021523-7.7705078-8.0476532.9620895-11.527298 11.9750519-5.2314453 18.2646484.1464844.1464844.3388672.2197266.5302734.2197266.6656685 0 1.0010109-.8111038.5302734-1.2802734-5.4614677-5.4614716-2.339138-14.9193382 4.3623047-15.7158203 3.8489227-.5408058 8.0081825 2.1699677 8.010746 6.2832031.0019531 1.5732422-.609375 3.0527344-1.7216797 4.1650391-1.7753944 1.7753906-4.6630898 1.7734375-6.4384804 0-1.3730774-1.3730812-1.3524704-3.5804062 0-4.9453125 1.0078049-1.0078049 2.681778-1.0565033 3.7363281-.0019531.7617188.7685547.7617188 2.0195313.0029297 2.7861328-.5527344.5537109-1.4521484.5537109-2.0107422-.0039063-.3835754-.3776169-.3952179-1.0025253 0-1.3916016.2949219-.2900391.2988281-.7646484.0078125-1.0605469-.2910156-.2949219-.765625-.3007813-1.0605469-.0078125-.9940491.9777527-.977562 2.5648384-.0039063 3.5244141 1.1396484 1.1386719 2.9912109 1.1386719 4.1308632-.0029297 1.3378906-1.3515625 1.3378906-3.5498047-.0029297-4.9033203-1.6335831-1.6289063-4.2528458-1.6075096-5.8632851.0029297-1.95187 1.9707146-1.9387703 5.1227531.0029297 7.0644531 2.3593752 2.359375 6.2001994 2.359375 8.5595744 0z"/><path d="m6.1684856 63.1305542c.0917969.1748047 2.2880859 4.2890625 6.1064453 5.0859375 2.2126312.4588394 4.25811-.3232574 6.0703125-1.703186 1.8122559 1.3799744 3.8577366 2.1620178 6.0703125 1.703186 3.8183594-.796875 6.0146484-4.9111328 6.1064453-5.0859375.1640625-.3125.0878906-.6962891-.1816406-.9228516-.1213989-.1011353-2.9692993-2.4408569-6.4076538-1.8734741.0883179-.4729614.1332397-.9604492.1332397-1.4595337 0-3.5664063-5.1162109-10.6337891-5.3339844-10.9326172-.2832031-.3886719-.9296875-.3886719-1.2128906 0-.2177734.2988281-5.3339844 7.3662109-5.3339844 10.9326172 0 .4754028.0462646.9418335.1269531 1.3989258-3.2325439-.3086548-5.8458252 1.8373413-5.9619141 1.934082-.2695311.2265625-.345703.6103516-.1816405.9228516zm22.6894532-.1425781c-.6855469 1.0517578-2.3818359 3.2695313-4.7548828 3.7607422-1.1299438.2349854-2.2981567.0421143-3.4896851-.5626831 1.5873413-.8615723 3.2717896-1.5180664 5.0336304-1.9275513.4033203-.09375.6542969-.4970703.5605469-.9003906-.0927734-.4042969-.4990234-.65625-.9003906-.5605469-1.8557129.4315186-3.6312866 1.1171875-5.3068237 2.0154419 1.1795654-1.6896973 2.5410156-2.6923218 4.06073-2.9832153 2.0351561-.3916016 3.9189452.5917968 4.7968749 1.1582031zm-10.7324219-13.3027344c1.6357422 2.3867188 4.4404297 6.9443359 4.4404297 9.1894531 0 .703186-.1265869 1.3675537-.3392944 1.9937744-1.6610241.7785149-2.917757 2.1871185-3.8814087 3.7473145-1.2423706-2.0090942-2.7139282-3.335083-4.3922119-3.9577026-.1657715-.5720825-.2679443-1.1659546-.2679443-1.7833862-.0000001-2.2431641 2.8046874-6.8027345 4.4404296-9.1894532zm-5.4960938 12.1445312c1.5194702.2908325 2.8807373 1.2930908 4.0601196 2.9822998-1.6759644-.8983154-3.4517212-1.5831299-5.3062134-2.0145264-.4042969-.0957031-.8066406.15625-.9003906.5605469-.09375.4033203.1572266.8066406.5605469.9003906 1.7610474.4094849 3.446167 1.065979 5.0343018 1.9276123-1.1920166.605896-2.3601074.7991943-3.4903564.5626221-2.3730469-.4912109-4.0693359-2.7089844-4.7548828-3.7607422.8779296-.5673827 2.7617187-1.5517577 4.7968749-1.1582031z"/></g></svg>