<svg id="Capa_1" enable-background="new 0 0 512 512" height="512" viewBox="0 0 512 512" width="512" xmlns="http://www.w3.org/2000/svg"><g><path d="m256.425 104.693-19.498-51.471c-.017-.044-.034-.089-.052-.133-1.328-3.314-4.491-5.455-8.058-5.455s-6.729 2.141-8.058 5.455c-.015.037-.029.075-.044.113l-19.668 51.471c-1.479 3.869.46 8.204 4.329 9.683 3.87 1.479 8.204-.461 9.683-4.329l1.195-3.126h24.967l1.177 3.106c1.136 2.999 3.987 4.845 7.015 4.845.883 0 1.781-.157 2.656-.488 3.872-1.468 5.824-5.797 4.356-9.671zm-34.439-12.792 6.806-17.811 6.747 17.811z"/><path d="m274.316 114.851c4.143 0 7.5-3.357 7.5-7.5v-11.272l17.328 16.676c1.454 1.4 3.328 2.096 5.199 2.096 1.968 0 3.933-.77 5.405-2.3 2.872-2.984 2.781-7.732-.204-10.604l-22.594-21.743 20.609-18.878c3.055-2.798 3.263-7.542.465-10.596-2.798-3.055-7.541-3.263-10.596-.465l-15.613 14.302v-9.425c0-4.143-3.357-7.5-7.5-7.5s-7.5 3.357-7.5 7.5v52.209c.001 4.142 3.359 7.5 7.501 7.5z"/><path d="m330.93 114.851h21.86c4.143 0 7.5-3.357 7.5-7.5s-3.357-7.5-7.5-7.5h-14.36v-10.864h12.767c4.143 0 7.5-3.357 7.5-7.5s-3.357-7.5-7.5-7.5h-12.767v-10.863h14.36c4.143 0 7.5-3.357 7.5-7.5s-3.357-7.5-7.5-7.5h-21.86c-4.143 0-7.5 3.357-7.5 7.5v51.727c0 4.142 3.357 7.5 7.5 7.5z"/><path d="m184.771 77.081c1.715-2.901 2.717-6.269 2.717-9.874 0-10.772-8.766-19.537-19.54-19.537h-15.228c-4.143 0-7.5 3.357-7.5 7.5v24.074.029 28.134c0 1.994.794 3.906 2.207 5.314 1.406 1.399 3.31 2.186 5.293 2.186h.03s14.009-.057 17.845-.057c11.904 0 21.589-9.669 21.589-21.553.001-6.466-2.881-12.262-7.413-16.216zm-24.55-14.411h7.728c2.503 0 4.54 2.035 4.54 4.537 0 2.486-2.037 4.509-4.54 4.509-1.471 0-4.649.012-7.728.024zm10.375 37.181c-1.921 0-6.385.014-10.375.028v-13.135h10.375c3.633 0 6.589 2.94 6.589 6.554s-2.956 6.553-6.589 6.553z"/><path d="m441.719 82.92-.052 24.415c-.009 4.142 3.342 7.507 7.484 7.516h.016c4.135 0 7.491-3.348 7.5-7.484l.052-24.437 15.381-23.577c2.264-3.469 1.286-8.116-2.184-10.379-3.469-2.264-8.116-1.287-10.379 2.184l-10.321 15.82-10.423-15.94c-2.268-3.468-6.916-4.438-10.382-2.173-3.467 2.268-4.439 6.915-2.173 10.382z"/><path d="m379.118 114.851c4.143 0 7.5-3.357 7.5-7.5v-12.256l15.198 17.218c1.482 1.68 3.549 2.537 5.626 2.537 1.764 0 3.534-.618 4.96-1.877 3.105-2.741 3.401-7.48.66-10.586l-12.314-13.951c8.282-3.003 14.191-10.71 14.191-19.725 0-11.618-9.812-21.07-21.874-21.07h-13.918c-.005 0-.01.001-.015.001s-.01-.001-.015-.001c-4.143 0-7.5 3.357-7.5 7.5v52.209c.001 4.143 3.359 7.501 7.501 7.501zm13.947-52.209c3.727 0 6.874 2.78 6.874 6.07s-3.147 6.07-6.874 6.07c-1.514 0-3.955.009-6.371.02-.011-2.324-.023-9.718-.028-12.16z"/><path d="m430.353 263.973h-174.851c-9.927 0-18.003 8.063-18.003 17.976v127.158c0 .267.015.53.042.79.441 9.638 8.826 17.357 19.099 17.357h172.573c10.273 0 18.658-7.719 19.099-17.357.027-.26.042-127.948.042-127.948.001-9.913-8.075-17.976-18.001-17.976zm-174.851 15h174.851c1.628 0 3.003 1.362 3.003 2.976v23.298c-3.114-1.38-6.555-2.152-10.176-2.152h-29.801c-6.895 0-13.149 2.777-17.704 7.265-4.555-4.488-10.81-7.265-17.704-7.265h-29.802c-6.892 0-13.145 2.775-17.7 7.261-4.55-4.486-10.795-7.261-17.68-7.261h-29.83c-3.731 0-7.272.821-10.46 2.281v-23.426c0-1.615 1.375-2.977 3.003-2.977zm120.086 109.548c-7.676-8.808-20.208-13.338-32.646-13.338-12.439 0-24.972 4.531-32.647 13.34-7.676-8.809-20.208-13.34-32.647-13.34-8.95 0-17.944 2.353-25.147 6.949v-28.749h57.966 65.21 57.681v28.746c-7.2-4.595-16.188-6.946-25.134-6.946-12.436 0-24.964 4.53-32.636 13.338zm-7.499 23.732h-50.295v-3.146c0-13.002 13.036-18.924 25.147-18.924 6.893 0 13.477 1.894 18.065 5.194 4.699 3.381 7.082 8 7.082 13.729v3.147zm-50.124-84.029c0-5.586 4.577-10.13 10.204-10.13h29.802c5.627 0 10.204 4.544 10.204 10.13v9.875h-50.21zm65.21 0c0-5.586 4.577-10.13 10.204-10.13h29.801c5.611 0 10.176 4.544 10.176 10.13v9.875h-50.181zm-80.21 9.875h-50.182v-9.875c0-5.586 4.564-10.13 10.176-10.13h29.83c5.611 0 10.176 4.544 10.176 10.13zm-50.466 71.007c0-13.002 13.036-18.924 25.147-18.924 6.893 0 13.477 1.894 18.065 5.194 4.699 3.381 7.082 8 7.082 13.729v3.146h-46.153c-2.205.002-4.141-1.469-4.141-3.145zm176.715 3.147h-46.125v-3.146c0-13.002 13.028-18.924 25.133-18.924 6.889 0 13.469 1.894 18.055 5.193 4.697 3.381 7.079 8.001 7.079 13.73-.001 1.676-1.936 3.147-4.142 3.147z"/><path d="m117.255 345.404h54.906c7.274 0 13.192-5.898 13.192-13.149v-21.974c0-7.251-5.918-13.149-13.192-13.149h-54.906c-7.274 0-13.192 5.898-13.192 13.149v21.974c-.001 7.251 5.917 13.149 13.192 13.149zm1.807-33.272h51.291v18.272h-51.291z"/><path d="m504.115 134.433v-110.378c0-4.143-3.357-7.5-7.5-7.5h-400.174c-8.057-6.298-18.15-9.993-28.826-9.993-18.851 0-35.891 11.53-43.088 28.594-13.934 2.622-24.527 14.9-24.527 29.553 0 11.427 6.419 21.383 15.847 26.47l11.311 41.292h-7.191c-8.482 0-15.384 6.893-15.384 15.364v21.576c0 8.108 6.302 14.756 14.26 15.336v13.054c0 14.225 7.513 26.846 19.042 34.643v219.497h-13.876c-8.185 0-14.844 6.65-14.844 14.825v23.848c0 8.174 6.659 14.824 14.844 14.824h468.594c8.185 0 14.844-6.65 14.844-14.824v-23.848c0-8.175-6.659-14.825-14.844-14.825h-13.904v-219.486c11.545-7.796 19.07-20.422 19.07-34.654v-13.056c7.945-.594 14.231-7.236 14.231-15.334v-21.576c0-5.752-3.187-10.769-7.885-13.402zm-474.094-84.794c3.312-.016 6.224-2.203 7.159-5.382 3.935-13.362 16.45-22.695 30.435-22.695 14.001 0 26.527 9.333 30.462 22.695.936 3.179 3.847 5.366 7.159 5.382 8.283.038 15.021 6.799 15.021 15.07 0 8.31-6.786 15.07-15.128 15.07-3.025 0-5.938-.884-8.422-2.556-2.743-1.845-6.373-1.677-8.934.415-5.653 4.62-12.812 7.165-20.159 7.165-7.328 0-14.479-2.545-20.132-7.165-1.375-1.124-3.059-1.692-4.747-1.692-1.456 0-2.916.423-4.187 1.277-2.484 1.672-5.396 2.556-8.421 2.556-8.34 0-15.127-6.76-15.127-15.07 0-8.271 6.738-15.032 15.021-15.07zm2.34 45.049c3.397-.249 6.702-1.055 9.794-2.402 7.54 4.876 16.409 7.518 25.461 7.518 9.066 0 17.945-2.643 25.487-7.519 3.054 1.331 6.314 2.133 9.667 2.393l-10.362 37.792h-49.698zm-12.778 53.147c0-.168.168-.364.384-.364h223.296c4.143 0 7.5-3.357 7.5-7.5s-3.357-7.5-7.5-7.5h-135.301l11.301-41.215c9.508-5.063 15.995-15.061 15.995-26.546 0-14.653-10.593-26.931-24.527-29.554-.519-1.231-1.096-2.429-1.715-3.601h380.099v100.916h-208.594c-4.143 0-7.5 3.357-7.5 7.5s3.357 7.5 7.5 7.5h216.094c.217 0 .385.196.385.364v21.576c0 .209-.18.393-.385.393h-476.648c-.204 0-.384-.184-.384-.393zm385.851 49.966c0 15.354-13.976 27.846-31.153 27.846s-31.153-12.491-31.153-27.846v-12.997h62.307v12.997zm-77.307 0c0 15.354-13.988 27.846-31.183 27.846-17.178 0-31.153-12.491-31.153-27.846v-12.997h62.336zm-77.336 0c0 15.354-13.976 27.846-31.153 27.846s-31.153-12.491-31.153-27.846v-12.997h62.307v12.997zm-77.307 0c0 15.354-13.988 27.846-31.182 27.846-17.178 0-31.153-12.491-31.153-27.846v-12.997h62.335zm-139.641-12.997h62.307v12.997c0 15.354-13.976 27.846-31.153 27.846-5.754 0-11.144-1.407-15.774-3.848-.193-.115-.391-.222-.595-.32-8.865-4.914-14.784-13.688-14.784-23.678v-12.997zm429.855 267.137h-92.037c-4.143 0-7.5 3.357-7.5 7.5s3.357 7.5 7.5 7.5h120.785v23.497h-468.281v-23.497h310.209c4.143 0 7.5-3.357 7.5-7.5s-3.357-7.5-7.5-7.5h-120.301v-175.472c0-6.891-5.612-12.496-12.51-12.496h-113.71c-6.897 0-12.51 5.605-12.51 12.496v175.473h-22.458v-212.803c3.862.976 7.92 1.507 12.111 1.507 16.166 0 30.407-7.762 38.653-19.475 8.246 11.714 22.488 19.475 38.653 19.475 16.177 0 30.429-7.763 38.679-19.479 8.246 11.715 22.488 19.479 38.656 19.479 16.166 0 30.407-7.762 38.653-19.475 8.246 11.714 22.488 19.475 38.653 19.475 16.177 0 30.429-7.763 38.68-19.479 8.246 11.716 22.488 19.479 38.656 19.479 16.166 0 30.407-7.762 38.653-19.475 8.246 11.714 22.488 19.475 38.653 19.475 4.191 0 8.249-.53 12.111-1.505v212.8zm-264.625 0h-108.73v-172.968h108.73zm283.696-254.14c0 9.96-5.89 18.711-14.719 23.633-.265.123-.521.261-.768.413-4.614 2.411-9.975 3.8-15.695 3.8-17.178 0-31.153-12.491-31.153-27.846v-12.997h62.335z"/></g></svg>