<svg id="SPA" enable-background="new 0 0 64 64" height="512" viewBox="0 0 64 64" width="512" xmlns="http://www.w3.org/2000/svg"><path d="m35 40.21875h-22.9492187c-1.3320923 0-2.6334229.2253418-3.8782349.6705933-.399353.1428833-.5812988.6079712-.4123535.9969482l.0016479.0037842c.1603394.3691406.5782471.5307617.9577637.3969116 1.0701294-.3774414 2.1876831-.5682373 3.3311768-.5682373h22.9492187c.4142456 0 .75-.3358154.75-.75s-.3357544-.75-.75-.75z"/><path d="m34.7803955 51.7869873c.3795166.1338501.7974243-.027771.9577637-.3969116l.0016479-.0037842c.1689453-.3889771-.0130005-.8540649-.4122925-.9969482-1.244812-.4452515-2.5461426-.6705933-3.8782959-.6705933h-22.9492187c-.4141846 0-.75.3358154-.75.75s.3358154.75.75.75h22.9492188c1.1435546 0 2.2610473.1907959 3.3311767.5682373z"/><path d="m60 39.1679688h-1.8641357l.9012451-3.362793c.4287109-1.6020508-.5263672-3.2553711-2.1279297-3.6850586-1.6035156-.4291992-3.2558594.5253906-3.6855469 2.1279297l-1.3178101 4.9199219h-2.1558227v-13.4624024c0-.4140625-.3359375-.75-.75-.75s-.75.3359375-.75.75v13.4624023h-8.4121704c-.7622681-1.8555908-2.5092773-3.2041016-4.5878296-3.3926392v-15.7753295c0-.6894531.5605469-1.25 1.25-1.25h2.25 6 2.25c.6894531 0 1.25.5605469 1.25 1.25v2.7055664c0 .4140625.3359375.75.75.75s.75-.3359375.75-.75v-2.7055664c0-1.5166016-1.2333984-2.75-2.75-2.75h-1.5v-4.75c0-.371582-.1162109-.7163086-.3144531-1 .1982422-.2836914.3144531-.628418.3144531-1v-1.5c0-.6894531-.5605469-1.25-1.25-1.25h-5c-.6894531 0-1.25.5605469-1.25 1.25v1.5c0 .371582.1162109.7163086.3144531 1-.1982422.2836914-.3144531.628418-.3144531 1v4.75h-1.5c-1.5166016 0-2.75 1.2333984-2.75 2.75v15.75h-4.854187c2.5941162-2.1318359 3.8127441-5.8521729 3.8737183-6.0427856.0634766-.2011719.0400391-.4199219-.0654297-.6030273s-.2832031-.3129883-.4892578-.3579102c-.1863403-.0404663-3.6654663-.7675171-6.7103271.1787109-.7053223-3.1171875-3.0906982-5.7767334-3.2017822-5.8989258-.1416016-.15625-.34375-.2451172-.5546875-.2451172s-.4121094.0888672-.5546875.2451172c-.111145.1222534-2.4968872 2.7814941-3.2019653 5.8977661-3.0442505-.944519-6.5199585-.2183838-6.7062378-.1775513-.2060547.0449219-.3837891.1748047-.4892578.3579102s-.1289063.4018555-.0654297.6030273c.0609741.1906128 1.2796021 3.9109497 3.8737183 6.0427856h-5.8541872c-3.0322266 0-5.5 2.4672852-5.5 5.5 0 2.0264282 1.1048584 3.7958984 2.7406616 4.75-1.6358032.9541017-2.7406616 2.7235719-2.7406616 4.7500001 0 3.0327148 2.4677734 5.5 5.5 5.5h4.1201172c.4140625 0 .75-.3359375.75-.75s-.3359375-.75-.75-.75h-4.1201172c-2.2060547 0-4-1.7944336-4-4s1.7939453-4 4-4h26c2.2060547 0 4 1.7944336 4 4s-1.7939453 4-4 4h-18.8798828c-.4140625 0-.75.3359375-.75.75s.3359375.75.75.75h18.8798828 7c.4140625 0 .75-.3359375.75-.75s-.3359375-.75-.75-.75h-3.2369385c1.0663452-1.0037231 1.7369385-2.4234619 1.7369385-4 0-2.0264282-1.1048584-3.7958984-2.7406616-4.75 1.6358032-.9541016 2.7406616-2.7235718 2.7406616-4.75 0-.1966553-.0112915-.390625-.0315552-.5820313h19.0188599c-.2617188 5.0068359-4.4169922 9-9.4873047 9-3.3085938 0-6.328125-1.6801758-8.0761719-4.4946289-.2177734-.3520508-.6796875-.4599609-1.0322266-.2416992-.3525391.21875-.4599609.6811523-.2412109 1.0327148 1.4291382 2.3012695 3.5996704 3.9289551 6.0968628 4.6975098-1.5546875 1.048645-2.5792847 2.8258667-2.5792847 4.8381348 0 .4140625.3359375.75.75.75h10.1640625c.4140625 0 .75-.3359375.75-.75 0-2.0056763-1.0180054-3.7776489-2.5640869-4.8275757 4.4746704-1.3950195 7.7320557-5.576477 7.7320557-10.5044555v-.25c0-.4140625-.3359375-.75-.75-.75zm-20.5-26.6679688c0-.1376953.1123047-.25.25-.25h1.25c.4141846 0 .75-.3358154.75-.75s-.3358154-.75-.75-.75h-1.25c-.1376953 0-.25-.1123047-.25-.25v-1.25h4.5v1.25c0 .1376953-.1123047.25-.25.25-.4140625 0-.75.3359375-.75.75s.3359375.75.75.75c.1376953 0 .25.1123047.25.25v4.75h-4.5zm-8.4716797 17.5724487c-.6113281 1.4702148-2.1230469 4.4814453-4.5400391 5.387207-1.2431641.4643555-2.5498047.3129883-3.9853516-.4663086.0429688-1.6318359.5644531-2.8388672 1.5859375-3.6816406 1.9882813-1.6376953 5.3603517-1.4423828 6.9394532-1.2392578zm-9.2792969-5.355957c.7366943.9644165 1.9771118 2.8336182 2.3414917 4.805603-.3321533.1829834-.6547852.3848877-.9518433.6294556-.583374.4798584-1.0432129 1.0543823-1.3886719 1.7126465-.345459-.6582642-.8052979-1.2327881-1.3886719-1.7126465-.2981567-.2454224-.6220703-.447937-.9555664-.6313477.3647462-1.9656372 1.605774-3.8376464 2.3432618-4.8037109zm-9.2763671 5.355957c1.5810547-.203125 4.9511719-.3979492 6.9384766 1.2392578 1.0214844.8427734 1.5429688 2.0498047 1.5859375 3.6816406-1.4335938.7788086-2.7412109.9316406-3.9814453.4672852-2.4121095-.9013672-3.928711-3.9165039-4.5429688-5.3881836zm22.2773437 15.1775513h-26c-2.2060547 0-4-1.7944336-4-4s1.7939453-4 4-4h26c2.2060547 0 4 1.7944336 4 4s-1.7939453 4-4 4zm22.8378906-9.8330078-1.0053711 3.7509766h-3.1236572l1.2139893-4.5317383c.2158203-.8032227 1.046875-1.2832031 1.8476563-1.0668945.8037109.215332 1.2822265 1.0444335 1.0673827 1.8476562zm-3.571289 19.3330078h-8.5332031c.3554688-2.0327148 2.1337891-3.5820313 4.2666016-3.5820313s3.9111327 1.5493165 4.2666015 3.5820313z"/><path d="m38.5 21.9555664c-.4140625 0-.75.3359375-.75.75v4.5c0 .4140625.3359375.75.75.75h6.5c.4140625 0 .75-.3359375.75-.75v-4.5c0-.4140625-.3359375-.75-.75-.75zm5.75 4.5h-5v-3h5z"/></svg>