<svg clip-rule="evenodd" fill-rule="evenodd" height="173.397mm" image-rendering="optimizeQuality" shape-rendering="geometricPrecision" text-rendering="geometricPrecision" viewBox="0 0 173.397 173.397" width="173.397mm" xmlns="http://www.w3.org/2000/svg"><g id="Layer_x0020_1"><g id="_260966856"><path id="_260967192" d="m65.8581 163.586c-.984 0-1.7822-.798-1.7822-1.7818l.0002-56.1795c0-.984.7979-1.7819 1.7818-1.7819.9869-.0001 1.782.7982 1.782 1.782l.0002 56.1792c0 .9838-.7953 1.7822-1.782 1.782z"/><path id="_260966976" d="m30.3017 163.586c-.984 0-1.7823-.798-1.7823-1.7818l.0003-19.5371c0-.984.7979-1.782 1.7818-1.782.984 0 1.782.7983 1.782 1.782l.0002 19.5369c0 .9838-.7984 1.7822-1.782 1.782z"/><path id="_260966880" d="m14.3472 163.655c-3.0287-.0526-5.4173-2.441-5.4669-5.4388l.0001-35.1142c-.0369-8.9532 5.5903-17.0712 14.0053-20.1927.022-.0093.0434-.0155.065-.0248l12.9134-4.2263 13.9156-4.5632v-9.7299c0-.9836.7982-1.7817 1.782-1.7817.9839 0 1.782.7981 1.782 1.7819v11.0199c0 .7703-.495 1.4542-1.2282 1.6924l-15.1408 4.9682-12.8791 4.217c-7.0013 2.611-11.6822 9.3711-11.6513 16.8332l.0001 35.0922c.0188 1.0334.8662 1.8843 1.9335 1.9029l102.994-.0001c1.0487 0 1.9025-.8538 1.9025-1.9027l.0003-35.0863c0-7.4743-4.6812-14.2373-11.6514-16.8422l-27.989-9.1824c-.7302-.238-1.2253-.9218-1.2253-1.6921l.0001-10.7168c0-.9839.7982-1.7819 1.7819-1.7819.9841-.0001 1.782.7981 1.782 1.782l.0001 9.4264 26.7951 8.7893c.0216.0093.043.0158.0648.025 8.3781 3.1092 14.0054 11.2241 14.0054 20.1929v35.086c0 3.0134-2.4534 5.4669-5.4667 5.4669l-103.025-.0001z"/><path id="_260967168" d="m101.418 163.586c-.9838 0-1.7821-.798-1.7821-1.7818l.0001-19.5371c0-.984.7981-1.782 1.7819-1.782.9837 0 1.782.7983 1.782 1.782l.0001 19.5369c0 .9838-.7984 1.7822-1.782 1.782z"/><path id="_260967000" d="m79.9843 117.103c-.7459 0-1.5008-.2226-2.1629-.6836l-27.299-19.5528c-.7983-.5722-.984-1.6857-.4086-2.487.5726-.7986 1.6861-.9839 2.4843-.4116l27.2776 19.5401c.0588.04.1299.028.1392.0155l14.0085-14.4138c.6839-.7056 1.813-.7207 2.5183-.034.7057.6837.7209 1.813.0372 2.5183l-13.993 14.4015c-.6961.7298-1.6398 1.1075-2.6016 1.1074z"/><path id="_260967624" d="m51.735 117.1c-.9682 0-1.912-.3805-2.6143-1.1199l-13.9805-14.386c-.6867-.7055-.6684-1.8346.037-2.5183.7054-.6868 1.8346-.6713 2.5183.034l13.9932 14.4014c.0248.0248.0958.0342.1731-.0186l12.9257-9.2812 14.2964-10.2744c.798-.5724 1.9117-.3927 2.4872.4085.5724.7979.3898 1.9119-.4084 2.4874l-14.2959 10.2743-12.9474 9.2966c-.6745.4671-1.4358.6963-2.1844.6962z"/><path id="_260967504" d="m51.5617 91.6907h-12.3376c-5.4357 0-9.86-4.2103-9.86-9.3861l.0003-40.8005c0-7.057 2.6386-13.8228 7.4309-19.0513 3.3599-3.6073 7.2734-6.5247 11.6479-8.6748 8.6069-4.2354 25.4213-8.8729 41.7718 7.3105 5.9339 1.4571 10.5095 6.1876 11.7315 12.1863.3096 1.4197.4424 2.7905.4084 4.1642v44.8315c0 5.1757-4.4087 9.3864-9.8258 9.3864h-12.3378c-.9836 0-1.7821-.7981-1.7821-1.782.0001-.9839.7983-1.782 1.782-1.782h12.338c3.4526 0 6.2617-2.6111 6.2617-5.8223v-44.8564c0-.0156 0-.0309 0-.0463.031-1.0953-.0805-2.1936-.3311-3.363-.9775-4.8015-4.7086-8.5418-9.5102-9.5504-.3401-.0712-.6527-.2413-.8971-.4888-14.8962-15.0356-30.226-10.8343-38.0376-6.9888-3.9816 1.9581-7.5488 4.6159-10.6023 7.8953-4.1795 4.5599-6.4846 10.4692-6.4846 16.632l.0004 40.8004c0 3.211 2.8242 5.8223 6.2955 5.8223l12.3378-.0002c.9839 0 1.782.7985 1.782 1.7822s-.7982 1.782-1.782 1.7818z"/><path id="_260967552" d="m79.9717 37.6122c.0156.0401.0277.0836.0401.1269-.0123-.0496-.0278-.0928-.0401-.1269zm.1083.6032s-.0001.0032-.0001.0032c.0001-.0001 0-.0031.0001-.0032zm0 .0031c0 .0032-.0001.0032-.0001.0032.0001 0 0 0 .0001-.0032zm0 .0032c0 .003-.0001.0031-.0001.0062.0001-.0032 0-.0031.0001-.0062zm-37.6879 25.5636c.662 13.0709 11.2765 23.6982 23.67 23.6982 12.4214 0 23.0329-10.6178 23.6703-23.6765l.0003-15.9298c-3.2487-.0651-6.3085-1.2962-8.9443-3.6227-1.0826-.9562-2.1966-2.2522-3.0165-3.4341-9.1169 6.376-18.6182 8.0005-25.1397 8.2077-4.5878.1452-8.3161-.3588-10.5652-.7857zm23.6703 27.2622c-14.2717 0-26.489-12.1615-27.2315-27.1106-.0028-.0186-.0031-.034-.0031-.0525l-.3711-17.8449c-.0125-.5694.2474-1.1074.699-1.4539.4488-.3438 1.0365-.4548 1.584-.294.0465.0122 4.9656 1.4108 11.9079 1.1694 9.2382-.3188 17.5013-3.2298 24.5643-8.6469.5417-.4149 1.2654-.4857 1.8749-.1857.3931.1948.6899.5198.8539.9096.2165.43 3.9816 7.6199 11.3509 6.6949.5075-.062 1.0178.0928 1.4015.4331.3836.337.6033.8229.6033 1.3365v17.8444c0 .0278 0 .056-.0032.0839-.3337 7.0876-3.3072 13.8259-8.3685 18.9708-5.1663 5.2529-11.8645 8.1459-18.8623 8.1459z"/><path id="_260967456" d="m34.2555 122.752c-.984 0-1.7822-.7951-1.7822-1.7788l.0002-19.9114c0-.984.7979-1.7819 1.7818-1.7819.984-.0001 1.782.7981 1.782 1.782l.0002 19.9113c0 .9835-.7984 1.7789-1.782 1.7788z"/><path id="_260966520" d="m97.4638 122.043c-.9838 0-1.7821-.7979-1.7821-1.7818l.0001-19.1998c0-.984.7981-1.7819 1.7819-1.7819.9837-.0001 1.782.7981 1.782 1.782l.0001 19.1995c0 .9839-.7984 1.7823-1.782 1.782z"/><path id="_260966688" d="m41.5905 135.495h-3.2793c-.9835 0-1.7821-.7949-1.7821-1.7819.0001-.9838.7982-1.782 1.782-1.782l1.4978-.0001v-3.626c0-3.0597-2.4908-5.553-5.5536-5.553-3.0626-.0001-5.5533 2.4936-5.5533 5.5532v3.6258h1.4977c.9835 0 1.7816.7983 1.7816 1.7821.0004.9869-.7981 1.782-1.782 1.782l-3.2793-.0001c-.9835 0-1.782-.7949-1.782-1.7819v-5.4081c0-5.024 4.0899-9.1139 9.1173-9.1139 5.0273 0 9.1172 4.09 9.1172 9.1141v5.4078c0 .987-.7981 1.7821-1.782 1.782z"/><path id="_260966832" d="m97.4638 122.043c-2.7255 0-4.944 2.2185-4.944 4.944 0 2.7287 2.2182 4.9438 4.9439 4.9438 2.7257-.0001 4.9438-2.2151 4.9438-4.9438 0-2.7256-2.2182-4.9437-4.9437-4.944zm0 13.4517c-4.6933 0-8.508-3.8144-8.508-8.5077 0-4.6903 3.8146-8.5078 8.5079-8.5078 4.6901-.0002 8.5078 3.8177 8.5078 8.5078 0 4.693-3.8177 8.5078-8.5077 8.5077z"/><path id="_260966136" d="m98.1384 128.769h-1.3863c-.9835 0-1.782-.7951-1.782-1.782 0-.9839.7982-1.782 1.782-1.782h1.3863c.9867 0 1.7816.7982 1.7816 1.782.0004.9867-.795 1.782-1.7816 1.782z"/><path id="_260966424" d="m122.511 72.0855c-7.1249 0-12.9227 5.7981-12.9227 12.9229.0001 7.125 5.7977 12.9195 12.9227 12.9195 7.1249-.0002 12.9194-5.7945 12.9194-12.9195 0-7.1251-5.7945-12.9225-12.9194-12.9229zm0 29.4062c-9.0892 0-16.4867-7.3938-16.4867-16.4833.0001-9.0926 7.3972-16.4865 16.4867-16.4865 9.0896-.0004 16.4834 7.3941 16.4834 16.4865 0 9.0894-7.394 16.4835-16.4834 16.4833z"/><path id="_260966256" d="m141.033 105.313c-.4549 0-.9127-.1731-1.2592-.5226l-8.1457-8.1458c-.6961-.6961-.6963-1.8254-.0002-2.5214.6963-.6932 1.8222-.6931 2.5183 0l8.146 8.1486c.6962.6961.6959 1.8225-.0001 2.5186-.3465.3493-.8044.5228-1.2591.5226z"/><path id="_260966208" d="m139.362 107.689 14.5591 14.5591c.7734.7734 1.8098 1.2005 2.9143 1.2005 1.1046-.0001 2.1378-.427 2.9143-1.2004 1.6058-1.6088 1.6056-4.223 0-5.8286l-14.5589-14.5594zm17.4734 19.3235c-2.0574 0-3.9878-.7981-5.4357-2.246l-15.8182-15.8184c-.6961-.696-.6963-1.8252-.0002-2.5213l8.3502-8.3471c.693-.6961 1.8221-.696 2.5181.0002l15.8184 15.8182c2.9981 2.9977 2.9979 7.8737 0 10.8684-1.4478 1.4476-3.3784 2.2461-5.4326 2.246z"/><path id="_260966184" d="m122.511 95.5425c-.9836 0-1.782-.798-1.782-1.7818v-17.5418c0-.9839.7981-1.7818 1.782-1.7818.9839-.0002 1.782.7982 1.782 1.782v17.5414c0 .984-.7983 1.7822-1.782 1.782z"/><path id="_260966352" d="m131.263 86.7902h-17.5075c-.9839 0-1.7822-.7979-1.7822-1.7818.0002-.9838.7981-1.782 1.782-1.782l17.5077-.0002c.9866 0 1.7849.7985 1.7849 1.7822.0001.9837-.7983 1.782-1.7849 1.7818z"/></g></g></svg>