<svg id="Capa_1" enable-background="new 0 0 512 512" height="512" viewBox="0 0 512 512" width="512" xmlns="http://www.w3.org/2000/svg"><g><path d="m301.257 497.003h15.013v14.997h-15.013z"/><path d="m15.013 211.138h-15.013v300.862h286.244v-14.997h-271.231z"/><path d="m31.047 481.081h105.122v-74.889h-105.122zm15.013-59.891h75.096v44.895h-75.096z"/><path d="m512 120.838c0-66.348-54.035-120.326-120.453-120.326-66.419 0-120.454 53.978-120.454 120.326 0 5.28.345 10.481 1.009 15.584h-272.102v59.72h15.013v-44.723h113.219v86.712l25.02 17.14 17.509-11.998 17.514 11.997 17.516-11.997 17.518 11.997 25.025-17.138v-86.713h26.705c6.664 25.314 21.397 47.391 41.275 63.316v151.955l45.239-25.315v155.628h-30.271v14.997h45.284v-179.026l14.768-8.264 75.052 41.977v-151.638c27.774-22.062 45.614-56.093 45.614-94.211zm-278.679 109.391-10.012 6.857-17.519-11.998-17.515 11.997-17.516-11.998-17.508 11.997-10.007-6.855v-78.812h90.077zm52.784-109.391c0-58.079 47.301-105.329 105.441-105.329s105.44 47.25 105.44 105.329-47.3 105.329-105.44 105.329-105.441-47.251-105.441-105.329zm165.269 220.265-60.041-33.581-60.006 33.578v-116.084c17.726 10.264 38.297 16.148 60.219 16.148 21.76 0 42.19-5.795 59.827-15.919v115.858z"/><path d="m391.547 210.276c49.369 0 89.533-40.122 89.533-89.439 0-24.372-9.636-47.151-27.134-64.14l-10.464 10.755c14.564 14.141 22.586 33.1 22.586 53.386 0 41.048-33.43 74.442-74.521 74.442-41.092 0-74.522-33.394-74.522-74.442 0-41.047 33.43-74.441 74.522-74.441 14.535 0 28.615 4.179 40.72 12.085l8.216-12.552c-14.554-9.506-31.476-14.53-48.936-14.53-49.369 0-89.534 40.122-89.534 89.438-.001 49.317 40.164 89.438 89.534 89.438z"/><path d="m391.547 72.96-19.449 24.905-29.722 10.781 17.702 26.174 1.08 31.569 30.389-8.729 30.389 8.729 1.08-31.569 17.702-26.174-29.722-10.781zm16.613 57.037-.57 16.665-16.043-4.608-16.043 4.608-.57-16.665-9.345-13.817 15.69-5.692 10.268-13.148 10.268 13.148 15.69 5.692z"/><path d="m233.3 32.69h15v45.03h-15z" transform="matrix(.407 -.913 .913 .407 92.339 252.669)"/><path d="m284.658 28.343-34.978-28.343-9.457 11.647 34.977 28.343z"/><path d="m221.428 72.5h14.997v45.037h-14.997z" transform="matrix(.157 -.988 .988 .157 99.127 306.178)"/><path d="m31.047 166.148h15.013v14.997h-15.013z"/><path d="m61.297 166.148h15.013v14.997h-15.013z"/><path d="m158.635 166.148h15.013v14.997h-15.013z"/><path d="m346.476 256.129h15.013v14.997h-15.013z"/></g></svg>