<svg version="1.1" id="Capa_1" xmlns="http://www.w3.org/2000/svg" xmlns:xlink="http://www.w3.org/1999/xlink" x="0px" y="0px" viewBox="0 0 512.001 512.001" style="enable-background:new 0 0 512.001 512.001;" xml:space="preserve">
<g>
	<g>
		<g>
			<g>
				<g>
					<path style="fill:none;stroke:#000000;stroke-width:15;stroke-linecap:round;stroke-linejoin:round;stroke-miterlimit:10;" d="&#10;&#9;&#9;&#9;&#9;&#9;&#9;M380.383,324.795c23.944-0.008,74.455-4.372,119.84-36.628c3.501-2.488,5.077-6.899,3.883-11.025&#10;&#9;&#9;&#9;&#9;&#9;&#9;c-4.868-16.823-18.579-62.214-35.748-102.081"/>
					<path style="fill:none;stroke:#000000;stroke-width:15;stroke-linecap:round;stroke-linejoin:round;stroke-miterlimit:10;" d="&#10;&#9;&#9;&#9;&#9;&#9;&#9;M454.129,145.255c-9.042-16.785-18.562-30.148-27.949-36.175c-1.706-1.096-3.655-1.753-5.667-2.001l-31.49-3.88&#10;&#9;&#9;&#9;&#9;&#9;&#9;c-10.543-1.301-20.406,5.406-23.076,15.688l-4.771,18.357c-2.797,10.775,3.23,21.879,13.789,25.401l17.423,5.802&#10;&#9;&#9;&#9;&#9;&#9;&#9;c5.593,1.862,11.755,0.269,15.733-4.075c1.638-1.787,2.827-3.851,3.552-6.042l20.07,82.448&#10;&#9;&#9;&#9;&#9;&#9;&#9;c-7.484-3.972-18.22-6.226-32.66-1.571"/>
					<g>
						
							<path style="fill:none;stroke:#000000;stroke-width:15;stroke-linecap:round;stroke-linejoin:round;stroke-miterlimit:10;" d="&#10;&#9;&#9;&#9;&#9;&#9;&#9;&#9;M431.742,240.779c0,0,8.504,3.576,12.853,14.968"/>
					</g>
					<path style="fill:none;stroke:#000000;stroke-width:15;stroke-linecap:round;stroke-linejoin:round;stroke-miterlimit:10;" d="&#10;&#9;&#9;&#9;&#9;&#9;&#9;M113.37,239.356c-14.668-4.849-25.549-2.59-33.111,1.423l20.07-82.448c0.725,2.191,1.914,4.255,3.552,6.042&#10;&#9;&#9;&#9;&#9;&#9;&#9;c3.978,4.344,10.14,5.937,15.733,4.075l17.423-5.802c10.558-3.522,16.585-14.626,13.789-25.401l-4.771-18.357&#10;&#9;&#9;&#9;&#9;&#9;&#9;c-2.669-10.282-12.532-16.989-23.076-15.688l-31.49,3.88c-2.013,0.248-3.961,0.905-5.668,2.001&#10;&#9;&#9;&#9;&#9;&#9;&#9;C51.998,130.799,16.413,247.706,7.895,277.141c-1.194,4.126,0.382,8.537,3.883,11.025c12.713,9.035,25.828,15.88,38.648,21.055&#10;&#9;&#9;&#9;&#9;&#9;&#9;"/>
					<path style="fill:none;stroke:#000000;stroke-width:15;stroke-linecap:round;stroke-linejoin:round;stroke-miterlimit:10;" d="&#10;&#9;&#9;&#9;&#9;&#9;&#9;M81.829,319.063c20.571,4.737,38.475,5.741,50.046,5.73"/>
				</g>
				<g>
					<path style="fill:none;stroke:#000000;stroke-width:15;stroke-linecap:round;stroke-linejoin:round;stroke-miterlimit:10;" d="&#10;&#9;&#9;&#9;&#9;&#9;&#9;M345.728,357.138l31.397-31.397c32.678-32.678,32.678-85.659,0-118.337l0,0c-32.678-32.678-85.659-32.678-118.337,0&#10;&#9;&#9;&#9;&#9;&#9;&#9;l-2.787,2.787l-2.788-2.787c-32.678-32.678-85.659-32.678-118.337,0h0c-32.678,32.678-32.678,85.659,0,118.337l113.778,113.778&#10;&#9;&#9;&#9;&#9;&#9;&#9;c4.057,4.057,10.636,4.057,14.694,0l59.166-59.166"/>
				</g>
			</g>
			<g>
				<path style="fill:none;stroke:#000000;stroke-width:15;stroke-linecap:round;stroke-linejoin:round;stroke-miterlimit:10;" d="&#10;&#9;&#9;&#9;&#9;&#9;M294.814,79.341h-16.947V62.394c0-5.523-4.477-10-10-10h-23.734c-5.523,0-10,4.477-10,10v16.947h-16.947&#10;&#9;&#9;&#9;&#9;&#9;c-5.523,0-10,4.477-10,10v23.734c0,5.523,4.477,10,10,10h16.947v16.947c0,5.523,4.477,10,10,10h23.734c5.523,0,10-4.477,10-10&#10;&#9;&#9;&#9;&#9;&#9;v-16.947h16.947c5.523,0,10-4.477,10-10V89.341C304.814,83.818,300.337,79.341,294.814,79.341z"/>
			</g>
			<path style="fill:none;stroke:#000000;stroke-width:15;stroke-linecap:round;stroke-linejoin:round;stroke-miterlimit:10;" d="&#10;&#9;&#9;&#9;&#9;M80.259,240.779c0,0-8.504,3.576-12.853,14.968"/>
		</g>
		<g>
			<g>
				<path style="fill:none;stroke:#000000;stroke-width:15;stroke-linecap:round;stroke-linejoin:round;stroke-miterlimit:10;" d="&#10;&#9;&#9;&#9;&#9;&#9;M226.068,324.034c6.275,9.916,17.329,16.504,29.933,16.504s23.658-6.588,29.933-16.504"/>
			</g>
			<g>
				
					<line style="fill:none;stroke:#000000;stroke-width:15;stroke-linecap:round;stroke-linejoin:round;stroke-miterlimit:10;" x1="219.092" y1="285.282" x2="219.092" y2="290.417"/>
				
					<line style="fill:none;stroke:#000000;stroke-width:15;stroke-linecap:round;stroke-linejoin:round;stroke-miterlimit:10;" x1="292.911" y1="285.282" x2="292.911" y2="290.417"/>
			</g>
		</g>
	</g>
	<g>
		<g>
			<path style="fill:none;stroke:#000000;stroke-width:15;stroke-linecap:round;stroke-linejoin:round;stroke-miterlimit:10;" d="&#10;&#9;&#9;&#9;&#9;M132.811,388.926h-16.947v-16.947c0-5.523-4.477-10-10-10H82.131c-5.523,0-10,4.477-10,10v16.947H55.184c-5.523,0-10,4.477-10,10&#10;&#9;&#9;&#9;&#9;v23.734c0,5.523,4.477,10,10,10h16.947v16.947c0,5.523,4.477,10,10,10h23.734c5.523,0,10-4.477,10-10V432.66h16.947&#10;&#9;&#9;&#9;&#9;c5.523,0,10-4.477,10-10v-23.734C142.811,393.403,138.334,388.926,132.811,388.926z"/>
		</g>
		<g>
			<path style="fill:none;stroke:#000000;stroke-width:15;stroke-linecap:round;stroke-linejoin:round;stroke-miterlimit:10;" d="&#10;&#9;&#9;&#9;&#9;M456.819,388.926h-16.947v-16.947c0-5.523-4.477-10-10-10h-23.734c-5.523,0-10,4.477-10,10v16.947h-16.947&#10;&#9;&#9;&#9;&#9;c-5.523,0-10,4.477-10,10v23.734c0,5.523,4.477,10,10,10h16.947v16.947c0,5.523,4.477,10,10,10h23.734c5.523,0,10-4.477,10-10&#10;&#9;&#9;&#9;&#9;V432.66h16.947c5.523,0,10-4.477,10-10v-23.734C466.819,393.403,462.342,388.926,456.819,388.926z"/>
		</g>
	</g>
</g>
<g>
</g>
<g>
</g>
<g>
</g>
<g>
</g>
<g>
</g>
<g>
</g>
<g>
</g>
<g>
</g>
<g>
</g>
<g>
</g>
<g>
</g>
<g>
</g>
<g>
</g>
<g>
</g>
<g>
</g>
</svg>