<?xml version="1.0" encoding="UTF-8" standalone="no"?>
<!-- Created with Inkscape (http://www.inkscape.org/) -->

<svg
   version="1.1"
   id="svg7809"
   xml:space="preserve"
   width="682.66669"
   height="682.66669"
   viewBox="0 0 682.66669 682.66669"
   xmlns="http://www.w3.org/2000/svg"
   xmlns:svg="http://www.w3.org/2000/svg"><defs
     id="defs7813"><clipPath
       clipPathUnits="userSpaceOnUse"
       id="clipPath7823"><path
         d="M 0,512 H 512 V 0 H 0 Z"
         id="path7821" /></clipPath></defs><g
     id="g7815"
     transform="matrix(1.3333333,0,0,-1.3333333,0,682.66667)"><g
       id="g7817"><g
         id="g7819"
         clip-path="url(#clipPath7823)"><g
           id="g7825"
           transform="translate(389.1133,449.54)"><path
             d="m 0,0 c 2.942,-0.407 5.947,-0.55 8.982,-0.408 28.782,1.339 52.48,-22.361 51.141,-51.141 -0.888,-19.092 9.424,-36.953 26.402,-45.729 25.594,-13.232 34.269,-45.605 18.719,-69.86 -10.315,-16.09 -10.315,-36.715 0,-52.804 15.55,-24.255 6.875,-56.628 -18.719,-69.86 -16.978,-8.776 -27.29,-26.637 -26.402,-45.729 1.339,-28.781 -22.359,-52.48 -51.141,-51.141 -19.091,0.888 -36.953,-9.424 -45.729,-26.402 -13.232,-25.594 -45.605,-34.269 -69.859,-18.719 -16.09,10.315 -36.714,10.315 -52.805,0 -24.255,-15.55 -56.628,-6.875 -69.86,18.719 -8.776,16.978 -26.637,27.29 -45.729,26.402 -28.78,-1.339 -52.479,22.36 -51.141,51.141 0.888,19.092 -9.423,36.953 -26.402,45.729 -25.594,13.232 -34.269,45.605 -18.719,69.86 10.316,16.089 10.316,36.714 0,52.804 -15.55,24.255 -6.875,56.628 18.719,69.86 16.979,8.776 27.29,26.637 26.402,45.729 -1.338,28.78 22.361,52.48 51.141,51.141 19.092,-0.888 36.953,9.424 45.729,26.402 13.232,25.594 45.605,34.269 69.86,18.719 16.091,-10.316 36.715,-10.316 52.805,0 10.276,6.588 22.009,8.828 33.127,7.274"
             style="fill:none;stroke:#000000;stroke-width:20;stroke-linecap:round;stroke-linejoin:round;stroke-miterlimit:10;stroke-dasharray:none;stroke-opacity:1"
             id="path7827" /></g><g
           id="g7829"
           transform="translate(125.8105,125.7061)"><path
             d="M 0,0 C 71.959,-71.96 188.629,-71.96 260.588,0"
             style="fill:none;stroke:#000000;stroke-width:20;stroke-linecap:round;stroke-linejoin:round;stroke-miterlimit:10;stroke-dasharray:none;stroke-opacity:1"
             id="path7831" /></g><g
           id="g7833"
           transform="translate(386.3984,386.2939)"><path
             d="M 0,0 C -71.959,71.96 -188.629,71.96 -260.588,0"
             style="fill:none;stroke:#000000;stroke-width:20;stroke-linecap:round;stroke-linejoin:round;stroke-miterlimit:10;stroke-dasharray:none;stroke-opacity:1"
             id="path7835" /></g><g
           id="g7837"
           transform="translate(158.2383,254.1826)"><path
             d="M 0,0 33.605,-38.183"
             style="fill:none;stroke:#000000;stroke-width:20;stroke-linecap:round;stroke-linejoin:round;stroke-miterlimit:10;stroke-dasharray:none;stroke-opacity:1"
             id="path7839" /></g><g
           id="g7841"
           transform="translate(151.5908,296)"><path
             d="M 0,0 V -80"
             style="fill:none;stroke:#000000;stroke-width:20;stroke-linecap:round;stroke-linejoin:round;stroke-miterlimit:10;stroke-dasharray:none;stroke-opacity:1"
             id="path7843" /></g><g
           id="g7845"
           transform="translate(191.8437,275.209)"><path
             d="m 0,0 c 0,-11.482 -10.068,-20.791 -21.968,-20.791 -5.901,0 -18.11,-0.092 -18.11,-0.092 0,0 -0.096,15.095 -0.096,20.883 0,4.754 -0.053,20.791 -0.053,20.791 h 18.259 C -10.068,20.791 0,11.482 0,0 Z"
             style="fill:none;stroke:#000000;stroke-width:20;stroke-linecap:round;stroke-linejoin:round;stroke-miterlimit:10;stroke-dasharray:none;stroke-opacity:1"
             id="path7847" /></g><g
           id="g7849"
           transform="translate(113.4268,277.5918)"><path
             d="m 0,0 c 0,-10.166 -8.242,-18.408 -18.408,-18.408 -5.042,0 -23.238,-0.081 -23.238,-0.081 V 0 18.408 h 23.238 C -8.242,18.408 0,10.167 0,0 Z"
             style="fill:none;stroke:#000000;stroke-width:20;stroke-linecap:round;stroke-linejoin:round;stroke-miterlimit:10;stroke-dasharray:none;stroke-opacity:1"
             id="path7851" /></g><g
           id="g7853"
           transform="translate(120.6104,237.6289)"><path
             d="m 0,0 c 0,-11.893 -9.641,-21.534 -21.533,-21.534 -5.899,0 -27.297,-0.095 -27.297,-0.095 V 0 21.533 h 27.297 C -9.641,21.533 0,11.893 0,0 Z"
             style="fill:none;stroke:#000000;stroke-width:20;stroke-linecap:round;stroke-linejoin:round;stroke-miterlimit:10;stroke-dasharray:none;stroke-opacity:1"
             id="path7855" /></g><g
           id="g7857"
           transform="translate(440.4287,256)"><path
             d="M 0,0 C 0,-22.043 -12.233,-39.484 -31.644,-39.824 -38.104,-39.937 -46.558,-40 -46.558,-40 c 0,0 -0.104,28.978 -0.104,40.088 0,9.126 -0.058,39.912 -0.058,39.912 h 14.413 C -11.018,40 0,22.043 0,0 Z"
             style="fill:none;stroke:#000000;stroke-width:20;stroke-linecap:round;stroke-linejoin:round;stroke-miterlimit:10;stroke-dasharray:none;stroke-opacity:1"
             id="path7859" /></g><g
           id="g7861"
           transform="translate(221.8691,216)"><path
             d="m 0,0 26.592,78.873 c 0.543,1.501 2.424,1.503 2.97,0.004 L 55.91,0"
             style="fill:none;stroke:#000000;stroke-width:20;stroke-linecap:round;stroke-linejoin:round;stroke-miterlimit:10;stroke-dasharray:none;stroke-opacity:1"
             id="path7863" /></g><g
           id="g7865"
           transform="translate(230.1621,229.168)"><path
             d="M 0,0 H 39.459"
             style="fill:none;stroke:#000000;stroke-width:20;stroke-linecap:round;stroke-linejoin:round;stroke-miterlimit:10;stroke-dasharray:none;stroke-opacity:1"
             id="path7867" /></g><g
           id="g7869"
           transform="translate(306.5107,215.9521)"><path
             d="M 0,0 V 79.945 L 52.868,1.677 c 0.98,-1.448 2.029,-0.739 2.029,1.022 v 77.397"
             style="fill:none;stroke:#000000;stroke-width:20;stroke-linecap:round;stroke-linejoin:round;stroke-miterlimit:10;stroke-dasharray:none;stroke-opacity:1"
             id="path7871" /></g><g
           id="g7873"
           transform="translate(256.1045,390.8115)"><path
             d="M 0,0 V -38.007"
             style="fill:none;stroke:#000000;stroke-width:20;stroke-linecap:round;stroke-linejoin:round;stroke-miterlimit:10;stroke-dasharray:none;stroke-opacity:1"
             id="path7875" /></g><g
           id="g7877"
           transform="translate(239.6475,381.3096)"><path
             d="M 0,0 32.915,-19.003"
             style="fill:none;stroke:#000000;stroke-width:20;stroke-linecap:round;stroke-linejoin:round;stroke-miterlimit:10;stroke-dasharray:none;stroke-opacity:1"
             id="path7879" /></g><g
           id="g7881"
           transform="translate(239.6475,362.3066)"><path
             d="M 0,0 32.915,19.003"
             style="fill:none;stroke:#000000;stroke-width:20;stroke-linecap:round;stroke-linejoin:round;stroke-miterlimit:10;stroke-dasharray:none;stroke-opacity:1"
             id="path7883" /></g><g
           id="g7885"
           transform="translate(256.1045,121.1885)"><path
             d="M 0,0 V 38.007"
             style="fill:none;stroke:#000000;stroke-width:20;stroke-linecap:round;stroke-linejoin:round;stroke-miterlimit:10;stroke-dasharray:none;stroke-opacity:1"
             id="path7887" /></g><g
           id="g7889"
           transform="translate(239.6475,130.6904)"><path
             d="M 0,0 32.915,19.003"
             style="fill:none;stroke:#000000;stroke-width:20;stroke-linecap:round;stroke-linejoin:round;stroke-miterlimit:10;stroke-dasharray:none;stroke-opacity:1"
             id="path7891" /></g><g
           id="g7893"
           transform="translate(239.6475,149.6934)"><path
             d="M 0,0 32.915,-19.003"
             style="fill:none;stroke:#000000;stroke-width:20;stroke-linecap:round;stroke-linejoin:round;stroke-miterlimit:10;stroke-dasharray:none;stroke-opacity:1"
             id="path7895" /></g><g
           id="g7897"
           transform="translate(352.3662,475.5342)"><path
             d="M 0,0 V 0"
             style="fill:none;stroke:#000000;stroke-width:20;stroke-linecap:round;stroke-linejoin:round;stroke-miterlimit:10;stroke-dasharray:none;stroke-opacity:1"
             id="path7899" /></g></g></g></g></svg>
