<svg id="Icons" height="512" viewBox="0 0 512 512" width="512" xmlns="http://www.w3.org/2000/svg"><path d="m307.09 317.19a7.51 7.51 0 0 0 3-7.34l-8.25-48.1 34.94-34.06a7.5 7.5 0 0 0 -4.15-12.79l-48.3-7-21.59-43.76a7.51 7.51 0 0 0 -13.46 0l-21.59 43.76-48.3 7a7.5 7.5 0 0 0 -4.15 12.79l34.94 34.06-8.25 48.1a7.5 7.5 0 0 0 10.88 7.91l43.19-22.71 43.2 22.71a7.46 7.46 0 0 0 7.89-.57zm-18.56-63.43a7.52 7.52 0 0 0 -2.15 6.64l6.34 37-33.23-17.47a7.51 7.51 0 0 0 -7 0l-33.23 17.47 6.34-37a7.52 7.52 0 0 0 -2.15-6.64l-26.89-26.2 37.16-5.4a7.49 7.49 0 0 0 5.64-4.11l16.64-33.67 16.62 33.67a7.49 7.49 0 0 0 5.64 4.11l37.16 5.4z"/><path d="m396.27 344.89c-10.47 3-25.91 7.66-41.62 12.48a5.42 5.42 0 0 1 .54-1.29l1.76-2.95a5.31 5.31 0 0 1 3.19-2.44c11.66-3.15 29.82-6.37 30-6.4l.42-.09a17.07 17.07 0 0 0 12.26-22.08l-10.74-31.88a2.1 2.1 0 0 1 .54-2.19l24.49-23.05a17.1 17.1 0 0 0 -.43-25.26l-25.24-22.24a2.09 2.09 0 0 1 -.62-2.16l9.67-32.23a17.1 17.1 0 0 0 -13-21.66l-33-6.63a2.1 2.1 0 0 1 -1.62-1.57l-7.74-32.74a17.09 17.09 0 0 0 -22.09-12.26l-31.86 10.75a2.09 2.09 0 0 1 -2.18-.54l-23.07-24.52a17.1 17.1 0 0 0 -25.26.43l-22.24 25.24a2.09 2.09 0 0 1 -2.17.62l-32.26-9.66a17.08 17.08 0 0 0 -21.66 13l-6.63 33a2.1 2.1 0 0 1 -1.57 1.62l-32.74 7.74a17.09 17.09 0 0 0 -12.22 22.07l10.74 31.88a2.1 2.1 0 0 1 -.54 2.19l-24.49 23.06a17.09 17.09 0 0 0 .43 25.25l25.24 22.24a2.11 2.11 0 0 1 .62 2.17c0 .15-.09.3-.12.45l-6.37 27.39a182.51 182.51 0 0 0 -51.26 17.28 7.5 7.5 0 0 0 7.22 13.14c.4-.21 40-21.61 82.31-17.26 22.45 2.31 35.34 10.61 46.72 17.94 8.48 5.46 16.5 10.62 26.7 12.16 46.44 7 62.93 11.8 63 25a4.85 4.85 0 0 1 -2.11 4.37c-2.94 2.22-13.35 6.81-46.61 1.56a351.2 351.2 0 0 1 -36.9-8.05 7.5 7.5 0 0 0 -4.13 14.42 360.54 360.54 0 0 0 38.54 8.42 187.35 187.35 0 0 0 28.91 2.64c13.37 0 23-2.34 29.23-7a19.74 19.74 0 0 0 8.07-16.38c0-.73 0-1.42-.09-2.11 16.82-5.3 71-22.28 96.13-29.46 12.63-3.61 19.25-.73 20.62 2.08 1.18 2.42-.3 7-6.34 11.44-8.85 6.43-43.68 25.75-81.42 44.25-43.17 21.15-75.07 33.8-85.33 33.83h-.54c-64.19 0-177.08-33.07-178.22-33.4a7.5 7.5 0 0 0 -4.24 14.39c.29.08 29.38 8.64 66.17 17 49.28 11.27 88.4 17 116.28 17h.6c30.56-.09 157.19-67.62 175.53-81 11.35-8.25 15.77-20.37 11-30.14-4.35-8.75-16.66-16.04-38.26-9.86zm-167.66 6.16c-7-1.05-13.11-5-20.81-9.93-12.16-7.83-27.29-17.58-53.31-20.25a135.17 135.17 0 0 0 -23.93-.26l5.06-21.77a17.12 17.12 0 0 0 -5.14-17.47l-25.25-22.24a2.08 2.08 0 0 1 0-3.09l24.43-23.04a17.15 17.15 0 0 0 4.48-17.89l-10.75-31.91a2.08 2.08 0 0 1 1.5-2.7l32.74-7.74a17.13 17.13 0 0 0 12.82-13.26l6.63-33a2.1 2.1 0 0 1 2.65-1.59l32.27 9.69a17.14 17.14 0 0 0 17.73-5.07l22.23-25.25a2 2 0 0 1 1.54-.7 2.06 2.06 0 0 1 1.55.65l23.07 24.48a17.13 17.13 0 0 0 17.88 4.48l31.88-10.75a2.1 2.1 0 0 1 2.7 1.5l7.74 32.74a17.13 17.13 0 0 0 13.26 12.82l33 6.64a2 2 0 0 1 1.38 1 2 2 0 0 1 .21 1.67l-9.72 32.19a17.14 17.14 0 0 0 5.07 17.73l25.25 22.27a2.09 2.09 0 0 1 .71 1.54 2 2 0 0 1 -.66 1.55l-24.48 23.07a17.16 17.16 0 0 0 -4.48 17.9l10.75 31.88a2.07 2.07 0 0 1 -.15 1.68 2.1 2.1 0 0 1 -1.22 1c-2.5.45-19.39 3.5-31 6.64a20.28 20.28 0 0 0 -12.16 9.24l-1.75 2.94a20.54 20.54 0 0 0 -2.79 12.56c0 .36.07.7.11 1-17.26 5.35-32.94 10.27-40.41 12.62-10.89-14.62-38.12-18.68-70.63-23.57z"/><path d="m253 83a7.5 7.5 0 0 0 7.5-7.5v-21.91a7.5 7.5 0 0 0 -15 0v21.93a7.5 7.5 0 0 0 7.5 7.48z"/><path d="m205.59 106.65a7.49 7.49 0 0 0 7.24 5.56 7.67 7.67 0 0 0 1.94-.26 7.51 7.51 0 0 0 5.31-9.19l-5.1-19a7.5 7.5 0 0 0 -14.49 3.89z"/><path d="m138.53 151.63a7.5 7.5 0 0 0 10.61-10.63l-13.93-13.9a7.5 7.5 0 1 0 -10.6 10.61z"/><path d="m78.63 209.83a7.49 7.49 0 0 0 5.3 9.19l19 5.1a7.65 7.65 0 0 0 1.94.25 7.5 7.5 0 0 0 1.94-14.74l-19-5.1a7.49 7.49 0 0 0 -9.18 5.3z"/><path d="m77.05 307.06a7.51 7.51 0 0 0 7.24 5.56 7.37 7.37 0 0 0 1.95-.26l21-5.63a7.5 7.5 0 1 0 -3.89-14.49l-21 5.64a7.49 7.49 0 0 0 -5.3 9.18z"/><path d="m399.87 289.73a7.49 7.49 0 0 0 5.3 9.18l19 5.1a7.65 7.65 0 0 0 1.94.25 7.5 7.5 0 0 0 1.94-14.74l-19-5.1a7.49 7.49 0 0 0 -9.18 5.31z"/><path d="m422.64 198.76-19 5.1a7.5 7.5 0 0 0 1.94 14.74 7.32 7.32 0 0 0 1.95-.26l19-5.09a7.5 7.5 0 1 0 -3.89-14.49z"/><path d="m358.64 147.41a7.52 7.52 0 0 0 10.61 0l13.92-13.93a7.5 7.5 0 0 0 -10.61-10.6l-13.92 13.92a7.5 7.5 0 0 0 0 10.61z"/><path d="m291.46 110.4a7.24 7.24 0 0 0 1.94.26 7.51 7.51 0 0 0 7.24-5.56l5.1-19a7.5 7.5 0 0 0 -14.49-3.88l-5.1 19a7.5 7.5 0 0 0 5.31 9.18z"/><path d="m157.54 104.71a7.49 7.49 0 0 0 6.5 3.75 7.39 7.39 0 0 0 3.75-1 7.5 7.5 0 0 0 2.74-10.24l-11-19a7.5 7.5 0 1 0 -13 7.5z"/><path d="m77 163 19 11a7.5 7.5 0 1 0 7.5-13l-19-11a7.5 7.5 0 1 0 -7.5 13z"/><path d="m84.75 257.26a7.5 7.5 0 0 0 -7.5-7.5h-21.93a7.5 7.5 0 1 0 0 15h21.93a7.5 7.5 0 0 0 7.5-7.5z"/><path d="m456.68 243.78h-21.93a7.5 7.5 0 0 0 0 15h21.93a7.5 7.5 0 1 0 0-15z"/><path d="m409.32 169.81a7.48 7.48 0 0 0 3.74-1l19-11a7.5 7.5 0 1 0 -7.5-13l-19 11a7.5 7.5 0 0 0 3.76 14z"/><path d="m339 104.47a7.5 7.5 0 0 0 10.24-2.75l11-19a7.5 7.5 0 1 0 -13-7.5l-11 19a7.5 7.5 0 0 0 2.76 10.25z"/></svg>