<svg id="Layer_1" enable-background="new 0 0 512 512" height="512" viewBox="0 0 512 512" width="512" xmlns="http://www.w3.org/2000/svg"><path d="m207.92 256.89c-6.217 0-11.274 5.058-11.274 11.275v13.015c0 6.217 5.058 11.274 11.274 11.274 4.578 0 6.384 3.501 6.828 4.574.445 1.073 1.644 4.826-1.593 8.062-2.13 2.13-3.303 4.961-3.303 7.974s1.173 5.844 3.302 7.973l9.203 9.203c4.395 4.396 11.548 4.396 15.944 0 3.247-3.245 6.994-2.048 8.068-1.604 1.071.444 4.569 2.25 4.569 6.839 0 6.217 5.058 11.274 11.274 11.274h13.015c6.217 0 11.275-5.058 11.275-11.274 0-4.578 3.501-6.384 4.574-6.829 1.072-.444 4.825-1.643 8.062 1.594 4.396 4.396 11.549 4.396 15.945 0l9.202-9.202c2.13-2.13 3.303-4.961 3.303-7.974s-1.173-5.844-3.302-7.973c-3.237-3.237-2.039-6.99-1.594-8.063.444-1.073 2.25-4.574 6.828-4.574 6.217 0 11.274-5.058 11.274-11.274v-13.015c0-6.217-5.058-11.275-11.274-11.275-4.578 0-6.384-3.501-6.828-4.574-.445-1.073-1.644-4.826 1.592-8.062 2.131-2.129 3.304-4.961 3.304-7.974s-1.173-5.844-3.302-7.973l-9.203-9.203c-4.396-4.396-11.549-4.396-15.945 0-3.237 3.237-6.99 2.039-8.062 1.594-1.073-.444-4.574-2.25-4.574-6.829 0-6.217-5.059-11.274-11.275-11.274h-13.015c-6.217 0-11.274 5.058-11.274 11.274 0 4.578-3.501 6.384-4.574 6.829-1.07.445-4.824 1.644-8.062-1.594-4.396-4.396-11.549-4.396-15.945 0l-9.202 9.202c-2.13 2.13-3.303 4.961-3.303 7.974s1.173 5.844 3.302 7.972c3.237 3.237 2.039 6.99 1.594 8.063-.444 1.074-2.25 4.575-6.828 4.575zm19.763.784c3.023-7.298 1.919-15.224-2.817-21.277l5.581-5.582c6.053 4.736 13.979 5.842 21.276 2.818 7.299-3.023 12.122-9.409 13.053-17.038h7.893c.931 7.629 5.754 14.014 13.053 17.038s15.225 1.917 21.276-2.818l5.581 5.582c-4.736 6.052-5.841 13.979-2.817 21.277 3.023 7.298 9.408 12.121 17.037 13.051v7.893c-7.629.93-14.014 5.753-17.037 13.052s-1.919 15.225 2.818 21.277l-5.582 5.582c-6.052-4.736-13.978-5.841-21.276-2.818-7.299 3.023-12.122 9.409-13.053 17.038h-7.893c-.93-7.635-5.751-14.025-13.048-17.047-7.298-3.023-15.226-1.913-21.281 2.828l-5.581-5.582c4.735-6.052 5.841-13.979 2.817-21.277s-9.408-12.122-17.037-13.052v-7.893c7.628-.931 14.013-5.754 17.037-13.052zm41.039 55.8c21.396 0 38.802-17.406 38.802-38.802s-17.406-38.802-38.802-38.802-38.802 17.406-38.802 38.802 17.406 38.802 38.802 38.802zm0-63.604c13.676 0 24.802 11.126 24.802 24.802s-11.126 24.802-24.802 24.802-24.802-11.126-24.802-24.802 11.126-24.802 24.802-24.802zm108.314-109.604c0-4.562-2.645-8.509-6.476-10.416v-34.811c0-3.238-.855-6.133-2.614-8.848l-19.342-29.869c-3.058-4.722-8.038-7.43-13.664-7.43h-37.987v-26.942c0-3.866-3.134-7-7-7h-117.906c-3.866 0-7 3.134-7 7v109.038c-2.812 2.127-4.641 5.489-4.641 9.278v11.386c0 6.418 5.222 11.639 11.64 11.639h18.726c4.982 7.619 13.583 12.667 23.347 12.667 9.763 0 18.365-5.048 23.348-12.667h60.673c4.982 7.619 13.584 12.667 23.348 12.667 9.763 0 18.365-5.048 23.348-12.667h20.562c6.418 0 11.639-5.221 11.639-11.639v-11.386zm-40.182-76.334 12.345 19.064h-27.05v-20.104h12.792c.869 0 1.441.311 1.913 1.04zm-28.706-1.04v27.104c0 3.866 3.134 7 7 7h41.412v31.631h-15.118c-5.068-5.199-12.139-8.436-19.955-8.436s-14.887 3.237-19.955 8.436h-4.579v-65.735zm-25.195-33.942v99.676h-48.879c-5.068-5.199-12.139-8.436-19.955-8.436s-14.887 3.237-19.955 8.436h-15.118v-99.676zm-108.547 120.341v-6.665h12.368c-.351 1.763-.538 3.584-.538 5.448 0 .408.013.813.031 1.217zm39.713 12.667c-7.655 0-13.883-6.228-13.883-13.884 0-7.655 6.228-13.883 13.883-13.883s13.884 6.228 13.884 13.883c0 7.656-6.229 13.884-13.884 13.884zm27.853-12.667c.018-.404.031-.809.031-1.217 0-1.864-.188-3.685-.538-5.448h52.677c-.351 1.763-.538 3.584-.538 5.448 0 .408.013.813.031 1.217zm79.515 12.667c-7.655 0-13.884-6.228-13.884-13.884 0-7.655 6.229-13.883 13.884-13.883s13.884 6.228 13.884 13.883c0 7.656-6.228 13.884-13.884 13.884zm41.549-12.667h-13.696c.018-.404.031-.809.031-1.217 0-1.864-.188-3.685-.538-5.448h14.203zm75.497 237.727c15.39-1.688 27.406-14.762 27.406-30.594 0-16.972-13.81-30.78-30.783-30.78s-30.783 13.808-30.783 30.78c0 15.832 12.016 28.906 27.405 30.594-30.669 1.757-55.082 27.253-55.082 58.351 0 6.819 3.585 16.267 20.662 22.554 10.088 3.714 23.511 5.76 37.796 5.76 26.967 0 58.458-7.416 58.458-28.314-.001-31.098-24.413-56.594-55.079-58.351zm-20.161-30.593c0-9.252 7.529-16.78 16.783-16.78s16.783 7.527 16.783 16.78c0 9.254-7.529 16.783-16.783 16.783s-16.783-7.53-16.783-16.783zm16.781 103.258c-26.2 0-44.458-7.544-44.458-14.314 0-24.513 19.944-44.456 44.46-44.456 24.513 0 44.456 19.943 44.456 44.456 0 6.77-18.257 14.314-44.458 14.314zm-282.73-98.242c-1.731-1.325-3.979-1.768-6.084-1.197l-42.306 11.459v-4.703c0-2.18-1.016-4.235-2.746-5.559-1.732-1.325-3.979-1.768-6.084-1.197l-42.307 11.459v-42.929c0-5.769-4.693-10.462-10.462-10.462h-22.971c-5.77 0-10.463 4.693-10.463 10.462v110.776c0 3.866 3.134 7 7 7h132.169c3.866 0 7-3.134 7-7v-72.55c0-2.179-1.016-4.235-2.746-5.559zm-113.527-29.129v7.405h-15.896v-7.405zm-15.896 100.238v-78.833h15.896v78.833zm29.896-46.343 37.137-10.059v56.402h-37.137zm88.273 46.343h-37.136v-46.343l37.136-10.059zm222.52 23.157c1.68 3.481.219 7.666-3.263 9.346-51.426 24.816-112.337 27.391-165.718 7.543l6.135 14.766c1.483 3.57-.208 7.667-3.778 9.15-.878.365-1.788.537-2.683.537-2.744 0-5.349-1.624-6.467-4.316l-12.678-30.514c-.713-1.714-.715-3.642-.006-5.357.708-1.716 2.069-3.08 3.784-3.792l30.515-12.677c3.57-1.484 7.666.208 9.149 3.779 1.483 3.57-.208 7.667-3.778 9.15l-15.051 6.252c49.785 18.441 106.551 16.006 154.491-7.128 3.483-1.68 7.668-.222 9.348 3.261zm136.579-159.421-26.193 20.144c-1.23.946-2.732 1.451-4.268 1.451-.302 0-.604-.02-.906-.059-1.841-.24-3.511-1.202-4.643-2.674l-20.144-26.194c-2.356-3.064-1.783-7.459 1.281-9.816 3.066-2.357 7.46-1.783 9.816 1.282l9.936 12.919c4.926-52.86-12.118-107.061-46.871-147.381-2.524-2.929-2.196-7.349.731-9.873 2.929-2.523 7.349-2.196 9.872.732 37.28 43.251 55.533 101.422 50.177 158.119l12.676-9.748c3.065-2.357 7.459-1.783 9.816 1.282 2.357 3.064 1.784 7.459-1.28 9.816zm-403.571-144.331-15.852 2.104c-3.835.51-7.352-2.186-7.86-6.018s2.187-7.351 6.019-7.86l32.756-4.348c3.836-.509 7.351 2.186 7.86 6.018l4.348 32.756c.508 3.832-2.187 7.351-6.019 7.86-3.839.508-7.351-2.186-7.86-6.018l-2.144-16.156c-30.695 43.314-43.036 98.776-33.1 151.071.722 3.798-1.772 7.462-5.57 8.184-.441.083-.881.124-1.314.124-3.296 0-6.231-2.338-6.869-5.694-10.659-56.096 2.619-115.599 35.605-162.023zm231.633-3.881c0 3.78-3.063 6.843-6.843 6.843-3.779 0-6.843-3.064-6.843-6.843s3.064-6.843 6.843-6.843c3.78 0 6.843 3.064 6.843 6.843zm-107.367 0c0 3.78-3.064 6.843-6.843 6.843-3.78 0-6.844-3.064-6.844-6.843s3.064-6.843 6.844-6.843c3.779 0 6.843 3.064 6.843 6.843zm-152.5 244.55v9.068c0 .47-.383.853-.854.853h-9.068c-.47 0-.854-.383-.854-.853v-9.068c0-.47.383-.854.854-.854h9.068c.471 0 .854.384.854.854zm57.139 9.068v-9.068c0-.47.383-.854.854-.854h9.068c.47 0 .854.384.854.854v9.068c0 .47-.383.853-.854.853h-9.068c-.471 0-.854-.383-.854-.853zm-16.777 0v-9.068c0-.47.384-.854.854-.854h9.068c.47 0 .854.384.854.854v9.068c0 .47-.383.853-.854.853h-9.068c-.471 0-.854-.383-.854-.853zm-23.584-9.068v9.068c0 .47-.383.853-.854.853h-9.068c-.47 0-.854-.383-.854-.853v-9.068c0-.47.383-.854.854-.854h9.068c.47 0 .854.384.854.854z"/></svg>