<svg xmlns="http://www.w3.org/2000/svg" viewBox="0 0 128 128" id="cafes">
  <path d="M35.21 12.88a2.69 2.69 0 0 1 .72-.85A3.75 3.75 0 0 1 37 11.47a3.93 3.93 0 0 1 1.32-.21l.54 0a5.87 5.87 0 0 1 1.32.43 2.53 2.53 0 0 1 1 .8 3.33 3.33 0 0 0 .75.71 1.88 1.88 0 0 0 1.08.29 2.18 2.18 0 0 0 1.44-.5 1.52 1.52 0 0 0 .6-1.2 1.23 1.23 0 0 0-.1-.48 2.41 2.41 0 0 0-.23-.43 6.22 6.22 0 0 0-2.52-2.1 7.87 7.87 0 0 0-2.28-.68A8.91 8.91 0 0 0 38.33 8a8.67 8.67 0 0 0-2.95.48 7.41 7.41 0 0 0-2.3 1.3 6.13 6.13 0 0 0-1.53 1.93A5.14 5.14 0 0 0 31 14.06v4.08a4.69 4.69 0 0 0 .6 2.33 6.28 6.28 0 0 0 1.59 1.87 7.44 7.44 0 0 0 2.31 1.23 8.89 8.89 0 0 0 2.83.44h.27a8.24 8.24 0 0 0 3.61-.76 6.09 6.09 0 0 0 2.46-2q.15-.25.26-.48a1.12 1.12 0 0 0 .1-.48 1.51 1.51 0 0 0-.6-1.22A2.18 2.18 0 0 0 43 18.54a2 2 0 0 0-1.17.27 3.84 3.84 0 0 0-.69.7 2.85 2.85 0 0 1-1 .8 5.06 5.06 0 0 1-1.44.43h-.36a4.06 4.06 0 0 1-1.4-.23 3.74 3.74 0 0 1-1.08-.6 2.63 2.63 0 0 1-.72-.89 2.14 2.14 0 0 1-.23-1.09v-4A2.19 2.19 0 0 1 35.21 12.88zM61.48 9.66a7.43 7.43 0 0 0-2.31-1.23A8.71 8.71 0 0 0 56.4 8a8.48 8.48 0 0 0-2.89.48 7.41 7.41 0 0 0-2.3 1.3 6.13 6.13 0 0 0-1.53 1.93 5.44 5.44 0 0 0-.59 2.35v8.31a1.33 1.33 0 0 0 .6 1.1 2.24 2.24 0 0 0 1.38.45 2.13 2.13 0 0 0 1.38-.49 1.44 1.44 0 0 0 .6-1.14V19.44h6.7v2.93a1.34 1.34 0 0 0 .59 1.12 2.28 2.28 0 0 0 1.4.44 2.14 2.14 0 0 0 1.37-.5 1.44 1.44 0 0 0 .56-1.13V13.86a4.7 4.7 0 0 0-.6-2.33A6.3 6.3 0 0 0 61.48 9.66zm-1.71 6.52h-6.7V13.93a2.19 2.19 0 0 1 .27-1.05 2.69 2.69 0 0 1 .72-.85 3.84 3.84 0 0 1 2.31-.78 3.88 3.88 0 0 1 1.34.23 3.76 3.76 0 0 1 1.08.6 2.65 2.65 0 0 1 .72.89 2.41 2.41 0 0 1 .26 1.09zM78.7 8H70.1a2.1 2.1 0 0 0-1.46.53 1.55 1.55 0 0 0-.59 1.18V22.3a1.52 1.52 0 0 0 .59 1.21 2.42 2.42 0 0 0 2.91 0 1.52 1.52 0 0 0 .59-1.21V18.49h4.54A2.15 2.15 0 0 0 78.13 18a1.51 1.51 0 0 0 .57-1.19 1.55 1.55 0 0 0-.57-1.2 2.1 2.1 0 0 0-1.44-.5H72.14V11.38H78.7a2.18 2.18 0 0 0 1.43-.48 1.48 1.48 0 0 0 .59-1.2 1.53 1.53 0 0 0-.59-1.2A2.12 2.12 0 0 0 78.7 8zM95 11.38a2.18 2.18 0 0 0 1.43-.48A1.48 1.48 0 0 0 97 9.7a1.53 1.53 0 0 0-.59-1.2A2.12 2.12 0 0 0 95 8h-8.6a2 2 0 0 0-1.44.53 1.57 1.57 0 0 0-.57 1.18V22.3A1.49 1.49 0 0 0 85 23.51a2.19 2.19 0 0 0 1.4.49H95a2.15 2.15 0 0 0 1.43-.49 1.51 1.51 0 0 0 0-2.39 2.12 2.12 0 0 0-1.43-.5H88.37v-3H93a2.18 2.18 0 0 0 1.41-.49 1.48 1.48 0 0 0 .6-1.19 1.52 1.52 0 0 0-.6-1.2 2.14 2.14 0 0 0-1.41-.5h-4.6V11.38zM128 69a5.25 5.25 0 0 0-1.46-3.59 12 12 0 0 1-3.78 2.6c.28 0 .55 0 .78 0A1.24 1.24 0 0 1 124 69v31H111a3 3 0 0 0-3.1 3v20.58a.45.45 0 0 1-.2.42H105.2a.44.44 0 0 1-.2-.42V96.26h3A3.16 3.16 0 0 0 111.1 93V75.87a8.41 8.41 0 0 1 .78-3.48c.57-.92 2.87-2.43 5.61-3.41a11.91 11.91 0 0 1-5.65-1.7 10.59 10.59 0 0 0-3.36 3 12.08 12.08 0 0 0-1.37 5.59V92.26h-3a3.16 3.16 0 0 0-3.1 3.21v28.11a4.32 4.32 0 0 0 4.2 4.42h2.51a4.32 4.32 0 0 0 4.2-4.42V104H124v20h-4v-1.95a2 2 0 1 0-4 0V126a2 2 0 0 0 2 2h8a2 2 0 0 0 2-2zM118 49a8 8 0 1 0 8 8A8 8 0 0 0 118 49zm0 12a4 4 0 1 1 4-4A4 4 0 0 1 118 61zM93 61a2 2 0 0 0-3.83-.8 16.42 16.42 0 0 1-1.7.54C85.48 61.29 83 62 83 64.33c0 2 1.8 2.8 3.56 3.33C84.8 68.2 83 69 83 71a2 2 0 0 0 3.83.8 16.43 16.43 0 0 1 1.7-.54c2-.55 4.46-1.24 4.46-3.59 0-2-1.79-2.8-3.55-3.33C91.21 63.8 93 63 93 61zM11 82C4.83 82 0 88.59 0 97c0 7.48 3.82 13.5 9 14.75V126a2 2 0 0 0 4 0V111.75c5.18-1.25 9-7.27 9-14.75C22 88.59 17.17 82 11 82zm2 25.52V100a2 2 0 0 0-4 0v7.52C6.14 106.13 4 101.88 4 97c0-6 3.21-11 7-11s7 5 7 11C18 101.88 15.86 106.13 13 107.52zM36 112a2 2 0 0 0 0-4H28a2 2 0 0 0 0 4zM38 116H26a2 2 0 0 0 0 4H38a2 2 0 0 0 0-4zM56 49a8 8 0 1 0 8 8A8 8 0 0 0 56 49zm0 12a4 4 0 1 1 4-4A4 4 0 0 1 56 61zM31 62a4 4 0 0 0-4 4V94H25.8a25 25 0 0 1 .2 3c0 .34 0 .67 0 1H42V94H31V66H42.51a9.2 9.2 0 0 1 2.63-3.92l0-.08zM69.9 92.26h-3V75.87a12.09 12.09 0 0 0-1.37-5.59 10.58 10.58 0 0 0-3.36-3A11.91 11.91 0 0 1 56.51 69c2.74 1 5 2.49 5.61 3.41a8.41 8.41 0 0 1 .78 3.48V93A3.16 3.16 0 0 0 66 96.26h3v27.32a.44.44 0 0 1-.2.42H66.3a.45.45 0 0 1-.2-.42V103a3 3 0 0 0-3.1-3H50V69a1.36 1.36 0 0 1 .41-.93 8.43 8.43 0 0 1 .84-.05 12 12 0 0 1-3.79-2.6A5.25 5.25 0 0 0 46 69v57a2 2 0 0 0 2 2h8a2 2 0 0 0 2-2v-3.95a2 2 0 1 0-4 0V124H50V104H62.1v19.58A4.32 4.32 0 0 0 66.3 128H68.8a4.32 4.32 0 0 0 4.2-4.42V95.47A3.16 3.16 0 0 0 69.9 92.26z"></path>
  <path d="M103.1 86H94.4l.36-2H96a2 2 0 0 0 0-4h-.51l.12-.67A3.61 3.61 0 0 0 92 75H80a3.61 3.61 0 0 0-3.61 4.33L77.6 86H70.9v2.33A7 7 0 0 1 74.52 90h25a7 7 0 0 1 3.61-1.67zm-12.71-.33A.54.54 0 0 1 90 86H82a.54.54 0 0 1-.39-.33L80.4 79H91.6zM77 95.47V126a2 2 0 0 0 4 0V98H93v28a2 2 0 0 0 4 0V95.47A7.31 7.31 0 0 1 97.15 94H76.85A7.31 7.31 0 0 1 77 95.47zM4.23 48H14V78.37a13 13 0 0 1 4 1.77V48H48.09a11.93 11.93 0 0 1 15.82 0H110v.08a12.06 12.06 0 0 1 1.88-1.39 14.1 14.1 0 0 1 2.1-1 11.9 11.9 0 0 1 11.7 2.09c2.78-.67 3.15-2.92.59-5.59L113 28.3V8.17A8 8 0 0 0 105.24 0H22.76A8 8 0 0 0 15 8.17V28.3L1.72 42.2C-1.34 45.4-.21 48 4.23 48zm18.6-4l12-12H47.17l-12 12zM62 44H40.83l12-12H62zm4 0V32h9.17l12 12zm26.83 0l-12-12H93.17l12 12zM111 32l11.46 12H110.83l-12-12zM19 8.17A4 4 0 0 1 22.76 4h82.47A4 4 0 0 1 109 8.17V28H19zM17 32H29.17l-12 12H5.54z"></path>
</svg>
