<svg id="Layer_1" enable-background="new 0 0 115 115" viewBox="0 0 115 115" xmlns="http://www.w3.org/2000/svg"><g id="_x31_98"><path d="m23.2260761 56.3601532c.6308594 0 1.1738281-.4765625 1.2412109-1.1191406l.8203125-7.7695312c.0722656-.6865234-.4257812-1.3017578-1.1123047-1.3740234-.6679688-.0722656-1.3017578.4248047-1.3740234 1.1123047l-.8203125 7.7695312c-.0771961.7333678.4957848 1.3808593 1.2451172 1.3808593z"/><path d="m71.2114258 66.396286c2.6152878-1.7798004 2.527359-4.7230606.9833984-6.7138672-.7695312-.9912109-.9697266-1.6669922-1.0556641-2.4990234-.1791611-1.7669678-2.6825638-1.969738-3.1542969-.2802734-.8064728 2.8995323-3.1821365 4.381958-1.4248047 8.546875.2675781.6357422 1 .9375 1.6367188.6660156.6367188-.2675781.9345703-1.0009766.6660156-1.6367188-.8425369-1.998703-.3465652-2.7168999.5517578-4.4863281.6122665 1.1374779 1.0826569 1.3602142 1.2802734 2.1748047.2324219.9462891-.0253906 1.5732422-.8896484 2.1621094-1.0177917.6924438-.5200348 2.2832031.7041016 2.2832031.2421875 0 .4873047-.0703125.7021485-.2167969z"/><path d="m80.0415039 62.6951141c-1.1959534.5717354-.7848969 2.3769531.5410156 2.3769531.1806641 0 .3652344-.0390625.5390625-.1230469 1.8935547-.90625 2.7978516-2.4570312 2.6152344-4.484375-.1979675-2.1838608-1.4160309-2.2923813-1.3037109-4.6347656.0889206-1.7605858-2.3511047-2.3713875-3.0761719-.75-1.247818 2.768013-3.804657 3.8544312-2.6923828 8.2363281.1699219.6679688.8466797 1.0693359 1.5195312.9042969.6689453-.1699219 1.0742188-.8505859.9042969-1.5195312-.5323181-2.0952454.0615234-2.7473869 1.2177734-4.3525391.4341202 1.2155304.8659363 1.5127373.9404297 2.3417969.0878907.9716797-.2617187 1.5527344-1.2050781 2.0048828z"/><path d="m64.3774414 90.4851532c-.1780472.7813721.415863 1.5273438 1.2197266 1.5273438.5703125 0 1.0859375-.3925781 1.2177734-.9726562.4326172-1.9003906.4375-4.0517578.0136719-6.5771484-.1132812-.6806641-.7617188-1.1357422-1.4394531-1.0253906-.6806641.1132812-1.1396484.7578125-1.0253906 1.4394531.368164 2.1972655.3730468 4.0322264.0136718 5.6083983z"/><path d="m61.1069374 95.8972626c-1.8330078-.4765625-3.6962891-.4384766-5.53125.1162109-1.370575.4129944-1.0705147 2.4462891.3613281 2.4462891.5597763 0 2.0276718-.7967072 4.5410156-.1425781.6660156.171875 1.3505859-.2275391 1.5244141-.8955078s-.227539-1.350586-.8955078-1.5244141z"/><path d="m68.0375977 97.146286c-.1826172-.0273438-1.8291016-.2646484-3.2519531-.0673828-.6835938.09375-1.1621056.7236328-1.0683556 1.4082031.09375.6835938.7255821 1.1582031 1.4081993 1.0683594 1.1551743-.1561737 2.5613022.0771484 2.7294922.0771484.6083984 0 1.1416016-.4453125 1.234375-1.0654297.102539-.6826171-.3681641-1.3183593-1.0517578-1.4208984z"/><path d="m96.3149414 73.3132782c.6230469 0 1.1621094-.4658203 1.2392578-1.1005859.4169922-3.4599609-.7460938-4.9638672-1.5947266-6.0615234-.6728516-.8691406-1.0097656-1.3056641-.609375-2.7617188.3190155-1.1566887-1.0272903-2.0584145-1.9785156-1.3144531-1.8535156 1.4589844-3.7509766 4.2451172-2.2587891 9.2314453.1982422.6611328.8964844 1.0410156 1.5556641.8388672.6611328-.1972656 1.0371094-.8945312.8388672-1.5556641-.4648438-1.5527344-.5585938-2.8808594-.2792969-4.0009766.9107742 1.6432571 2.2432327 2.016922 1.84375 5.3251953-.0886306.7407074.4874878 1.3994141 1.2431641 1.3994141z"/><path d="m69.1469727 67.4236298c-.6435547-.2509766-1.3671875.0703125-1.6162109.7158203-.4902344 1.2714844-.5068359 2.8017578-.0488281 4.6796875.1599503.654335.8180237 1.0819397 1.5107422.9189453.6708984-.1640625 1.0820312-.8408203.9189453-1.5107422-.3339844-1.3662109-.3496094-2.4082031-.0488281-3.1875.2490233-.6445313-.0722658-1.3681641-.7158204-1.6162109z"/><path d="m101.3133545 88.3520966c.0643616-3.937233.3578873-9.2800064.083374-11.4760742-.1018066-1.4442139-1.6612549-2.5063477-4.4431152-2.9924316-.6689453-.1191406-1.3271484.3349609-1.4462891 1.0166016-.1191406.6796875.3359375 1.3271484 1.0166016 1.4462891 1.1484375.2011719 1.8232422.4804688 2.1679688.6816406-.5557861.3251953-1.8378906.7293701-3.6994629.8510742.0869141-.1335449.1547852-.2814941.185791-.4477539.2880859-1.5556641.2880859-3.1347656 0-4.6904297-.1269531-.6787109-.7744141-1.1220703-1.4570312-1.0019531-.6787109.1259766-1.1269531.7783203-1.0019531 1.4570312.5604706 3.0237274-.4014969 3.7970581.1899414 4.6940918-1.9443359-.109375-3.2755127-.5292969-3.8442383-.8630371.4208984-.2441406 1.296875-.5761719 2.7080078-.7626953.6845703-.0908203 1.1660156-.71875 1.0751953-1.4033203s-.7246094-1.1640625-1.4033203-1.0751953c-2.8359375.375-4.614502 1.324585-5.015625 2.6467285.1556854-4.9242477.6064987-6.3194809.4584961-7.0181885-.2502441-1.5457764-2.131958-2.654541-5.402832-3.1304932-.6699219-.0986328-1.3173828.3740234-1.4169922 1.0576172-.0986328.6826172.3740234 1.3173828 1.0576172 1.4169922 1.7998047.2617188 2.8066406.71875 3.1875 1.0068359-.5517578.4177246-2.3563232 1.0865479-5.2565918 1.1740723.4812012-.2663574.7580566-.8112793.6218262-1.3713379-.3330078-1.3662109-.3496094-2.4091797-.0488281-3.1884766.2490234-.6445312-.0722656-1.3681641-.7158203-1.6162109-.6435547-.2490234-1.3671875.0703125-1.6162109.7158203-.4902344 1.2714844-.5058594 2.8017578-.0488281 4.6806641.0859375.3513184.3201904.6169434.612793.7805176-1.4391174-.0406342-4.1450348-.3096085-5.293457-1.1740723.3730469-.28125 1.3457031-.7255859 3.0751953-.9892578.6826172-.1035156 1.1513672-.7412109 1.046875-1.4238281-.1035156-.6826172-.7539062-1.1464844-1.4238281-1.046875-3.4335938.5224609-5.3242188 1.7509766-5.3242188 3.4580078 0 1.7790527 2.078125 2.8706055 4.7694092 3.3696289-.6209717.4492188-2.6201172 1.1762695-5.852417 1.1762695-3.2675781 0-5.2763634-.7451172-5.8691368-1.1923828.2929688-.2207031.9980469-.5869141 2.3662071-.8681641 1.1246033-.2323914 1.3759689-1.7337723.3508301-2.3061523.9066925-.4300385.9525757-1.6694565.1247559-2.184082-3.1262169-1.9423828-5.8933067-3.4597168-8.711422-4.4423828-1.2028809-4.8444824-2.4489746-10.0603027-3.487793-15.9541016-.7490234-4.2509766-3.7197266-5.9853516-6.6904297-7.3935547-1.2373886-.5956001-2.9661179-1.0992393-4.2880859-1.4707031.0412598-.0996094.0957031-.1906738.1411133-.2873535 2.0132484 1.4565201 4.6636429 1.2578545 6.722168-2.5183105 1.4267387.5290756 2.8180542.6962624 3.7783203-.4296875.5439453-.6376953.7333984-1.5117188.5058594-2.3388672-.3525391-1.2756348.4169922-2.7180176 2.5509033-4.7125244l.0092773.0065918c2.1549072-1.4979248 1.7956543-1.0980225 1.6724854-3.7860107-.112793-2.6987305-.2871094-5.6022949-1.918457-7.869751-2.0932617-2.8935537-10.3220215-6.7207022-13.6877441-3.9709463-5.3557129-10.0142822-19.6590595 5.0072012-7.5616455 8.4134512l.7384033.2155762c-.215332 1.6623535-.4001465 3.3345947-.4104004 5.0175781-.2207031 1.72229-.1645508 2.8787842.128418 3.548584-.2695312.6726074-.612793 1.3928223-1.0441895 2.1179199-1.1040993-.7267151-2.3011513-1.1808147-3.4096699-.5341797-2.105505 1.2050743-2.0868511 2.5959015-3.9892578 2.7441406-1.8945312.1611328-3.4833984.3720703-4.8583984.6455078-2.9560547.5908203-5.4619141 2.5869141-6.7011719 5.3378906-3.3300781 7.3642578-5.5058594 13.421875-6.8486328 19.0615234-.9267578 3.8642578 1.1425781 7.8603516 4.8095703 9.2939453 1.4057617.5541992 2.8563232 1.0515137 4.3725586 1.4989014-.6038818-.0128174-1.1383057.3823242-1.2563477.9874268-1.8494062 9.5552673-6.5895634 16.147316-3.1992188 30.8427734.1328125.578125.6474609.96875 1.2167969.96875.805419 0 1.3993473-.7486649 1.21875-1.53125-2.2830896-9.8990784-.8207588-15.2665634 1.5935059-23.4257812 1.1901855 1.1358643 2.5267334 2.1047363 3.973999 2.9287109-1.0943604 5.3018799-1.1314697 11.5849609-.6585693 16.8973389.0817871.9542236-.0821533 3.3347168 1.2003174 3.6114502.5130615.1027832 1.600708-.4719238 1.6418457-.4616699.6873779 1.6520996 2.2572021 1.5699463 2.7602539.0822754.1021729-.3283691.1638184-.8720703.6152344-.7797852.6568604.6361084-.317627 2.4523926 1.7445068 2.2982178.902832-.0718994 1.149292-1.4364014 1.2414551-2.1136475.6462402.4616699 1.7855225 1.1800537 2.4113789.2976074 1.8776855-2.6264648-3.078249-8.7111816 5.4995117-12.8359375 1.2208252-.5952148 3.0681152-.8516846 2.6982422-2.6162109-.9597168-4.618042-1.1474609-3.7320557 1.4440918-7.1439209 1.5633354.5077209 1.9886284-.381073 2.6418457-.2279053 1.5273438.3564453 2.7050781.2929688 3.8779297-1.1210938.2497253-.3018417 1.0838928-.2288208 1.9196777-.671875.5897141.2687912 1.0336533.2381516 1.168457.2525635l9.0131836 3.8095703c-.0205078 1.1983643-.0565186 2.3414307-.1148682 3.4090576-2.6386719.2266846-5.1673584.5456543-7.5528564.9517822-.0726128-.68927-.2086639-2.2161255-.2784424-2.6258545-.3724403-4.3627853-11.0819092-4.2203445-11.0819092.2028809v5.4644775c-3.576149 1.4906769-7.762207 4.0944061-7.0025635 7.8681641-.3012695 2.2193604-.4801025 4.6009521.1246338 7.0511475.1635437.6621323.8333969 1.0791779 1.5136719.9140625.6699219-.1660156 1.0791016-.8427734.9140625-1.5136719-.2509766-1.0163574-.3347168-2.0454102-.3253174-3.0656738 11.3038254 9.6097336 56.8137703 9.489212 67.6297607-.1594238-.0001221.9688721-.0839844 1.9411621-.3200684 2.9018555-.1931152.7850342.3997803 1.5488281 1.2148438 1.5488281.5615234 0 1.0722656-.3818359 1.2128906-.9511719.6660156-2.7089844.3613281-5.4296875.0234375-7.7666016-.1446727-.3341676.3219564-3.0652772-5.064091-5.8781739zm-2.3126221-8.7324219c.0230789 3.0998764-.2026978 6.8967133-.2060547 10.1523438-.1455078.1414795-.4771729.3195801-.9760742.4897461-.2316895-1.0072021-.3100586-2.1616211-.2253418-3.4553223.0458984-.6894531-.4765625-1.2841797-1.1650391-1.3291016-.7099609-.0585938-1.2841797.4765625-1.3291016 1.1650391-.1003418 1.5290527-.0046387 2.8800049.2705078 4.1047363-1.0465012.1029282-1.5642548.0785446-1.9610596.0705566-.1088867-1.3703613.0570068-2.8815918.5313721-4.6030273.1835938-.6650391-.2070312-1.3535156-.8730469-1.5371094-.6650391-.1816406-1.3535156.2060547-1.5371094.8730469-.5026855 1.8222656-.7116699 3.4733887-.6479492 5.0085449-.2055664-.0405273-.4130859-.0791016-.6016846-.128418.0018311-1.7567139-.0516357-3.4482422-.1485596-5.0795898.2256851-.8909988-.1019669-1.8332062-1.3681641-2.5463867-.1320801-1.0488281-.0883789-2.0582275-.0206299-3.1904297 2.7725909 1.0721893 7.4805529 1.0731201 10.2579348.0053711zm-13.1843262 16.9770508c-.1711426-.9313965-.1228027-1.9282227.1508789-3.0227051.1669922-.6689453-.2402344-1.3476562-.9101562-1.515625-.6660156-.1640625-1.3466797.2402344-1.515625.9101562-.336792 1.3464355-.3918457 2.6312256-.2043457 3.8476562-.5463867-.0014648-1.0473633-.0322266-1.5007324-.0822754-.161377-.9033203-.1142578-1.8710938.1572266-2.9411621.1689453-.6689453-.2353516-1.3486328-.9052734-1.5185547-.6660156-.1708984-1.3486328.2363281-1.5185547.9052734-.0195312.0769043-.0253906.1508789-.0432129.227417.2041016-2.0981445.215332-4.0637207.0327148-5.9229736 2.3784103.6869659 5.8861618.6555252 8.1682129-.114624.0939941 2.710083.0578613 5.5926514-.111084 8.6065674-.2368164.1866456-.8632813.4401856-1.8000489.6208497zm-1.7608642-22.7338868c-.3686523-.2025146-.821167-.2344971-1.2122803-.010498-1.7353516.9892578-2.7451172 2.734375-3 5.1875-.0712891.6865234.4267578 1.3007812 1.1142578 1.3720703.6738052.0748672 1.3003311-.4200211 1.3720703-1.1142578.1601562-1.5415039.6965332-2.5683594 1.6098633-3.1629639-.0366211 1.0440674-.0571289 2.0699463-.0424805 3.0526123.0201874 1.2846222 1.7153015 1.7119141 2.3352051.5637207-.0429688.7412109-.0678711 1.4733887-.0415039 2.2227783-.4445953-.0776138-.8816071-.2272034-1.3951416.1343994-.0203857-.3571777-.0506592-.706665-.0919189-1.0488281-.0830078-.6855469-.703125-1.1669922-1.3916016-1.0908203-.6845703.0830078-1.1738281.7060547-1.0908203 1.3916016.0362549.2990723.0622559.6064453.0797119.9215088-.2679443-.2835693-.6480713-.4541016-1.0631104-.3970947-1.6818848.2310791-2.9104004.6877441-3.6606445 1.3203125-.0246582-.0015869-.0490723-.003418-.0737305-.0048828-.2193604-2.7402344-.2678223-5.9689941-.152832-9.7719727 2.1747971.1027222 4.7761841-.0851212 6.7973633-.817627-.0352783.4221192-.0645752.8380127-.0924072 1.2524414zm-1.8192139 11.5598145c-1.2021484-.1026611-2.0998535-.3426514-2.6166992-.5654297 1.3654709-.6006622 2.0912094-.258934 2.6850586-.8903809-.0170898.4121094-.0428467.8339844-.0864258 1.2780762-.0061035.0617676.0152588.1174317.0180664.1777344zm2.5643311-1.2890625c.1583252.1118164.335083.1994629.5406494.2275391.9150391.1259766 1.5615234.3232422 1.9619141.4970703-.5157471.2209473-1.4035645.4588623-2.5915527.5625.0422362-.4428711.0705566-.8701172.0889892-1.2871094zm-5.5372315 11.9263916c-.0296631-.0175781-.0556641-.0344238-.0795898-.0511475.0266113-.1638184.0499268-.3251953.0744629-.4875488-.003418.1810303-.0021973.3605957.0051269.5386963zm-4.4645996-20.1816406c-.0743408 6.553833.4075928 11.338623 1.4870605 14.8804932-.1787109.2202148-.7254639.536377-1.6275635.8361816.0624771-.7518921-.6583786-2.0372543.0042725-5.9868164.1142578-.6806641-.3447266-1.3251953-1.0253906-1.4394531-.6748047-.1132812-1.3242188.3447266-1.4394531 1.0253906-.4238281 2.5224609-.4199219 4.6738281.0136719 6.5761719.029541.1300049.0842285.2467041.1485596.3555908-.3271484.0494385-.6827393.0874023-1.0487061.1225586.1179199-1.425415.0380859-2.9854736-.255127-4.7349854-.1132812-.6816406-.7705078-1.140625-1.4384766-1.0263672-.6816406.1132812-1.140625.7578125-1.0263672 1.4384766.2797852 1.6766357.3398438 3.1292725.1975098 4.421875-4.22229-.0629883-6.5729942-1.171875-6.8256798-1.5688477.9060822-4.632515 1.0310936-10.1808548.9627686-14.9002686 3.1623497 1.2438355 8.7072869 1.2435227 11.872921.0000001zm-20.7172813-2.2791748 6.3405762 2.0911865c.0087891.5513916.0102539 1.0750732.0129395 1.602417l-6.5566406-2.7712402c.2148093-.5483094.1882819-.8221665.2031249-.9223633zm-21.9255371-25.2141114c-.043457-4.1948242-.7240009-8.5814209-2.0273457-13.0682373.0324707-.0281982.0609131-.060791.0926514-.0899658 1.6014404 2.8986816 3.4527607 5.9587402 5.4969501 8.2709961 1.8262825 2.0484581 5.0190048 2.1126404 6.9101562.1083984.291748-.30896.5786133-.6495361.8620605-1.0062256.3695068 2.0941162.9788818 4.2363281 1.6881104 6.4440918-3.8396758-.0384826-9.7638892-.0878486-13.0225829-.6590576zm19.307373-14.7749023c-.4599609-.0507812-.9130859-.1777344-1.3847656-.3867188-.9697266-.4326172-2.1015625-.0166016-2.5839844.9443359-.7802734 1.5507812-1.6689453 2.4316406-2.3720703 2.3789062-.9580078-.0488281-2.2119141-1.4853516-2.9160156-3.3388672-.2460938-.6464844-.9707031-.9677734-1.6123047-.7255859-.6455078.2451172-.9707031.9677734-.7255859 1.6123047.2746582.7226562.6594238 1.4885254 1.1359863 2.197876-.3234863.5325928-.6130371 1.0848389-.8254395 1.6741943-.4149017 1.1557922.179924 2.4867706 1.5241699 2.8631592-.2935791.383667-.5910645.7412109-.8913574 1.0596924-.8912086.941185-2.3782501.8986473-3.2246094-.0517578-1.3310547-1.505127-2.5948486-3.3956299-3.7624512-5.3505859 2.0256348-1.9506836 3.3995361-4.5102539 4.088623-6.4915771.8251953-.1468506 1.579834-.3734131 2.3392334-.7713623 4.2064209-2.2366943-1.0671387-3.8476562 2.9549561-5.8586426 1.4257812-.0720215.7695312 1.2312012 1.1181641 2.2674561l.0205078.0821533c.8106689.7695312 1.5085449.3591309 2.0827637-.4616699 1.0471191-.1643066 2.072998-.4002686 3.1091309-.6567383 1.5844727.7110596 3.1192627 1.480835 4.732666 2.1433105-2.0238037 1.9748535-3.5805664 4.2661133-2.8076172 6.8701172zm-11.7034912-14.1948242c.0616455-.2770996.133667-.5335693.2364502-.800293 1.0771484.1845703 3.7243652 1.7955322 4.7810059 2.5240479l-.0410156.0819092c-1.6618653-.4719239-3.3963624-1.0976563-4.9764405-1.8056641zm15.1141358 3.9501953c-.5440674-.4001465-.9544678-1.4261475-1.3237305-2.0109863-1.7443848-2.729248-3.5500488-4.7508545-6.3820801-6.3718252 4.0324707-.225586 7.0695801 4.90454 7.7058106 8.3828115zm-12.7539063-7.1823731c2.0109863-.8514395 7.7463379 3.6219482 8.1057129 5.2736816l-.0617676.0617676-.215332-.1230469c-2.8111572-1.9085693-5.4173584-4.0939941-8.7109375-5.2124023zm-3.5500488-3.5911855c.6872559-.0819092.9543457.0205078 1.4262695.5643311-3.776123 2.3291016-2.7294922 4.3709707-3.5811768 5.4587393-3.7965087-.6259767-.1437988-5.1302482 2.1549073-6.0230704zm-6.0374756 21.645751c-.1112061-.2003174-.2232666-.4005127-.3321533-.5993652.2084961.0880127.4104004.1860352.6010742.3040771-.0875244.1002197-.1779785.1977539-.2689209.2952881zm-21.6297627 25.5032959c1.3056641-5.4824219 3.4326172-11.3974609 6.6953125-18.6142578.9091797-2.0185547 2.7460938-3.4814453 4.9111328-3.9150391 2.5666924-.508255 4.3315353-.5096092 5.3493652-.7438965 1.3188839 4.6854668 1.8122559 8.6983528 1.8122559 12.789917-.2825928.3956299-.50354.9085693-.6435547 1.5750732-2.7094765 5.4662971-3.2912445 5.9782944-1.4157715 6.9771729 1.4674072.7799072 5.5405293 2.8421631 7.0285664 3.2628174.902832.2564697 1.6212158-.5026855 2.4729004-.6259766 1.4257812-.2050781 2.9033203-.1333008 4.3195801.0615234 1.0671387.1437988 5.694458 1.5803223 6.3613281 1.2519531.3797607-.1950684 1.2724609-2.0214844 1.4779053-2.4523926 1.1387939-2.4008789 1.4364014-5.0478516.5330811-7.5825195-.3076172-.8720703-.9644775-1.4260254-1.4052734-2.1647949-.1313477-.2155762-.3284912-.3747559-.564209-.4344482-.7808838-2.3791504-1.4682617-4.6676025-1.8630371-6.8466797 2.9899902 1.4290771 4.7099609 2.7485352 5.1970215 5.5172119.9553223 5.4178467 2.0795898 10.2556152 3.1861572 14.7553711-.8363037-.1802979-1.682373-.329834-2.5592041-.4116211-.6933594-.0703125-1.296875.4414062-1.3603516 1.1279297-.0644531.6875.4404297 1.296875 1.1279297 1.3603516 4.4006348.4108887 8.2149658 2.314209 12.9418907 5.2507324-3.3204308.7631836-4.1013145 2.1135254-4.1374474 3.1599121l-8.9733887-2.9597168c-1.2481689-.8677979-2.5932617-1.6768799-4.0380859-2.4089355.0136719-.1396484.046875-.2724609.1113281-.3789062.6691399-1.1047134-.0310555-2.52771-1.3398438-2.6992188-2.8403511-.3425369-5.888031-1.5411491-9.1203613-1.0806885-13.0270958-2.6797066-15.8745537-11.252594-23.0310078-8.5648193-.6464844.2421875-.9736328.9628906-.7304688 1.609375.2431641.6474609.9667969.9746094 1.609375.7304688 5.2765446-1.978447 8.0771465 5.4234047 20.4501972 8.4091797-.9651184 1.2961044-1.5223656 2.8604202-1.6865234 4.4199219-8.2056084-.5351028-14.5099564-2.0521317-19.4248066-3.9892578-2.5146483-.982422-3.9296874-3.7265626-3.2919921-6.3857423zm7.1136475 15.258789c.3057861-1.1501465.5935059-2.3349609.8355713-3.5830078.1004639-.5209961-.1402588-1.022583-.5625-1.2897949 1.3244629.3742676 2.6912842.7182617 4.1325684 1.0229492-.4323483 1.518959-.6780243 6.8718109-.6864014 7.0081787-1.3898926-.875-2.6258545-1.9412841-3.7192383-3.1583252zm27.0045185.2998047c-1.266468-.3089371-2.2738686.2901306-2.3740234.3203125-1.4858704-.3301926-2.1001587-1.6032257-2.6640625-2.3945312-.9941521-1.4583282-2.3609428-2.1463699-3.8295898-3.1351318.3116722-2.0083084 1.1780548-3.1470108 2.4453125-4.1861572 2.0078392.0193176 4.1831932.6821442 6.3481445 1.0429688-.1210938.5205078-.1298828 1.0966797-.0273438 1.7246094.0654297.4023438.3232422.7480469.6904297.9248047 2.2070312 1.0634766 4.1894531 2.2998047 5.9042969 3.6826172.1002502.0782471.0581818.1945496.0693359.2949219-.0019531.0283203-.0029297.0585938-.0683594.0908203-.3554802.1848526-.5534019-.5160294-5.1835938-2.7773438-.6210938-.3027344-1.3691406-.0458984-1.671875.5742188s-.0458984 1.3691406.5742188 1.671875c.7648926.3737793 1.4755859.7456055 2.1481934 1.1149902-1.5312653.74028-.7041206 1.4411009-2.361084 1.0510252zm4.8237305 18.6184082c-.0427246-.5946045.0532227-1.2502441.3256836-1.9973145.2363281-.6484375-.0976562-1.3652344-.7470703-1.6025391-.6416016-.2314453-1.3652344.0976562-1.6025391.7470703-.4152832 1.1391602-.5717773 2.2121582-.4719238 3.2075195-.2625732-.0048828-.5134277-.0175781-.7460938-.0424805.0581055-.2900391.1394043-.592041.2590332-.9121094.2421875-.6464844-.0869141-1.3662109-.7333984-1.6083984-.6445312-.2421875-1.3671875.0859375-1.6083984.7333984-.1286621.3435059-.2236328.6789551-.3032227 1.0102539-.1975098-.1427002-.3128662-.2712402-.324707-.3481445 0-.3205795 0-8.8317947 0-8.2883301 1.8738785.713623 4.4988403.7088242 6.3815918-.1130371l.8383789 8.40979c-.0375977.1644289-.4660645.5255129-1.267334.8043215zm.1440429-11.9797363c-.8221931 1.2544785-5.4404449 1.0879288-6.0966797.0482178v-.0142822c.5057526-1.1369248 5.2662621-1.3009644 6.0966797-.0339356zm20.3574181 21.3886719c-19.7734337 0-33.5527306-4.7001953-33.5527306-8.9179688 0-1.387207 1.6619873-2.9051514 4.5986328-4.2729492v2.9692383c0 2.7853241 4.2219086 4.1096344 7.7854004 3.5426025.0019531-.0003662.0037842-.0003662.0056152-.0008545 2.1024628-.3358383 4.6338387-1.6144867 4.4287109-3.6657715l-.6107178-6.1260986c2.24646-.3880615 4.6280518-.6959229 7.1156006-.920166-.109375 1.1721191-.2452393 2.2659912-.4118652 3.2769775-1.135498.1789551-2.2575684.1098633-3.4064941-.2365723-.6601562-.2021484-1.3583984.1748047-1.5576172.8349609-.2001953.6601562.1738281 1.3583984.8349609 1.5576172 1.447567.4375687 2.7501335.5255585 4.0871582.3752441 1.7178268 3.7130432 13.1911354 3.9392548 17.3596153 1.5720215-.0876465.8643799-.2049561 1.7508545-.362793 2.6699219-.7305984 4.2260284 13.1832123 4.580101 13.4462891.2832031.064209-1.1157227.1069336-2.2106934.1359863-3.2912598 1.057373.2225342 2.244751.3527832 3.5085449.3527832 3.1149902 0 6.2458496-.7261963 7.2229004-2.3127441 1.8835449 1.1223145 2.916748 2.3006592 2.916748 3.3918457.0000002 4.2177736-13.776367 8.9179689-33.5439451 8.9179689z"/></g></svg>