<svg id="Capa_1" enable-background="new 0 0 512 512" viewBox="0 0 512 512" xmlns="http://www.w3.org/2000/svg"><g><path d="m61.62 179.179v21.661c0 11.893 9.643 21.572 21.52 21.637v24.913c0 25.292 19.646 46.068 44.479 47.912v13.035c0 9.267 7.539 16.805 16.806 16.805h30.765c9.267 0 16.806-7.539 16.806-16.805v-12.887h57.475c4.142 0 7.5-3.358 7.5-7.5s-3.358-7.5-7.5-7.5h-118.261c-18.235 0-33.07-14.831-33.07-33.06v-24.91h33.66c4.142 0 7.5-3.358 7.5-7.5s-3.358-7.5-7.5-7.5h-48.54c-3.661 0-6.64-2.979-6.64-6.64v-21.27h358.76v21.27c0 3.662-2.979 6.64-6.64 6.64h-261.94c-4.142 0-7.5 3.358-7.5 7.5s3.358 7.5 7.5 7.5h247.06v24.91c0 18.229-14.835 33.06-33.07 33.06h-96.32c-4.142 0-7.5 3.358-7.5 7.5s3.358 7.5 7.5 7.5h35.534v12.887c0 9.267 7.539 16.805 16.806 16.805h30.765c9.267 0 16.805-7.539 16.805-16.805v-13.035c24.834-1.844 44.48-22.62 44.48-47.912v-24.913c11.877-.065 21.52-9.745 21.52-21.637v-21.664c4.548-.834 8.736-3.006 12.073-6.343 4.345-4.344 6.737-10.123 6.737-16.273 0-12.682-10.322-23-23.01-23h-17.384c-1.778-52.912-45.37-95.41-98.707-95.41h-26.731v-13.176c.001-13.771-11.202-24.974-24.973-24.974h-44.771c-13.771 0-24.974 11.203-24.974 24.974v13.176h-26.73c-11.938 0-23.586 2.103-34.619 6.25-3.877 1.458-5.839 5.782-4.382 9.659 1.458 3.877 5.781 5.84 9.659 4.382 9.34-3.511 19.212-5.291 29.341-5.291h148.18c45.064 0 81.913 35.773 83.685 80.41h-82.914c-4.142 0-7.5 3.358-7.5 7.5s3.358 7.5 7.5 7.5h115.32c4.417 0 8.01 3.589 8.01 8 0 2.143-.832 4.155-2.343 5.667s-3.523 2.343-5.667 2.343h-380.36c-4.417 0-8.01-3.593-8.01-8.01 0-2.142.829-4.147 2.334-5.647 1.522-1.517 3.538-2.353 5.676-2.353h230.04c4.142 0 7.5-3.358 7.5-7.5s-3.358-7.5-7.5-7.5h-197.645c.896-22.122 10.6-43.2 26.947-58.265 3.046-2.807 3.24-7.552.433-10.598s-7.552-3.24-10.598-.433c-19.42 17.897-30.889 42.993-31.793 69.295h-17.384c-6.134 0-11.91 2.389-16.263 6.727-4.351 4.334-6.747 10.114-6.747 16.273 0 11.254 8.122 20.64 18.81 22.62zm115.375 129.158c0 .996-.81 1.805-1.806 1.805h-30.765c-.996 0-1.806-.81-1.806-1.805v-12.887h34.376v12.887zm190.579 1.805h-30.764c-.996 0-1.806-.81-1.806-1.805v-12.887h34.375v12.887c0 .996-.809 1.805-1.805 1.805zm-143.933-285.168c0-5.5 4.474-9.974 9.974-9.974h44.771c5.5 0 9.974 4.474 9.974 9.974v13.176h-64.718v-13.176z"/><path d="m123.315 342.925c-3.921 0-7.492 2.462-8.886 6.124l-24.333 63.89c-1.474 3.871.469 8.204 4.339 9.678.879.335 1.781.493 2.668.493 3.022 0 5.871-1.84 7.01-4.833l4.343-11.403h29.534l4.295 11.382c1.462 3.874 5.789 5.832 9.665 4.369 3.875-1.463 5.832-5.79 4.369-9.665l-24.111-63.888c-1.388-3.676-4.962-6.147-8.893-6.147zm-9.145 48.95 9.122-23.95 9.038 23.95z"/><path d="m403.194 342.925c-4.142 0-7.5 3.358-7.5 7.5v43.103l-32.58-47.354c-1.862-2.707-5.269-3.886-8.404-2.911-3.137.975-5.274 3.877-5.274 7.162v65.184c0 4.142 3.358 7.5 7.5 7.5s7.5-3.358 7.5-7.5v-41.05l30.898 44.91c1.573 2.28 4.166 3.641 6.935 3.641 4.646 0 8.425-3.779 8.425-8.425v-64.259c0-4.143-3.358-7.501-7.5-7.501z"/><path d="m337.996 415.608v-65.184c0-4.142-3.358-7.5-7.5-7.5s-7.5 3.358-7.5 7.5v65.184c0 4.142 3.358 7.5 7.5 7.5s7.5-3.358 7.5-7.5z"/><path d="m244.146 357.925c4.142 0 7.5-3.358 7.5-7.5s-3.358-7.5-7.5-7.5h-27.466c-4.142 0-7.5 3.358-7.5 7.5v65.184c0 4.142 3.358 7.5 7.5 7.5h27.466c4.142 0 7.5-3.358 7.5-7.5s-3.358-7.5-7.5-7.5h-19.966v-17.592h16.895c4.142 0 7.5-3.358 7.5-7.5s-3.358-7.5-7.5-7.5h-16.895v-17.592z"/><path d="m490.235 375.517h-19.5c-4.142 0-7.5 3.358-7.5 7.5s3.358 7.5 7.5 7.5h11.224c-1.968 9.212-7.868 17.592-19.859 17.592-13.835 0-25.092-11.256-25.092-25.092s11.256-25.092 25.092-25.092c5.029 0 9.879 1.48 14.024 4.281 3.433 2.318 8.095 1.416 10.414-2.016 2.319-3.433 1.416-8.095-2.016-10.414-6.635-4.482-14.388-6.851-22.421-6.851-22.107 0-40.092 17.985-40.092 40.092s17.985 40.092 40.092 40.092c20.981 0 35.635-16.486 35.635-40.092-.001-4.142-3.359-7.5-7.501-7.5z"/><path d="m80.638 411.225c2.66-3.175 2.244-7.905-.931-10.566-3.176-2.662-7.906-2.244-10.566.931-3.651 4.342-8.631 6.513-14.784 6.518-13.836 0-25.092-11.256-25.092-25.092s11.256-25.092 25.092-25.092c5.029 0 9.878 1.48 14.023 4.281 3.434 2.318 8.094 1.416 10.414-2.016 2.319-3.433 1.416-8.095-2.016-10.414-6.635-4.482-14.388-6.851-22.421-6.851-22.107 0-40.092 17.985-40.092 40.092s17.985 40.092 40.092 40.092c10.543.007 19.816-4.16 26.281-11.883z"/><path d="m180.757 357.927h10.571c4.142 0 7.5-3.358 7.5-7.5s-3.358-7.5-7.5-7.5h-35.996c-4.142 0-7.5 3.358-7.5 7.5s3.358 7.5 7.5 7.5h10.425v57.68c0 4.142 3.358 7.5 7.5 7.5s7.5-3.358 7.5-7.5z"/><path d="m310.229 410.663-17.154-19.557c10.925-2.741 19.016-12.345 19.016-23.74 0-13.477-11.394-24.44-25.399-24.44h-17.302c-4.142 0-7.5 3.358-7.5 7.5v65.184c0 4.142 3.358 7.5 7.5 7.5s7.5-3.358 7.5-7.5v-20.21l22.063 25.154c1.482 1.69 3.557 2.555 5.641 2.555 1.756 0 3.519-.613 4.942-1.862 3.114-2.731 3.424-7.47.693-10.584zm-33.339-52.738h9.802c5.637 0 10.399 4.323 10.399 9.44 0 5.164-4.762 9.526-10.399 9.526h-9.802z"/><path d="m316.283 431.816c-4.142 0-7.5 3.358-7.5 7.5v65.184c0 4.142 3.358 7.5 7.5 7.5s7.5-3.358 7.5-7.5v-65.184c0-4.142-3.358-7.5-7.5-7.5z"/><path d="m159.878 446.816c4.142 0 7.5-3.358 7.5-7.5s-3.358-7.5-7.5-7.5h-27.466c-4.142 0-7.5 3.358-7.5 7.5v65.184c0 4.142 3.358 7.5 7.5 7.5h27.466c4.142 0 7.5-3.358 7.5-7.5s-3.358-7.5-7.5-7.5h-19.966v-17.592h16.895c4.142 0 7.5-3.358 7.5-7.5s-3.358-7.5-7.5-7.5h-16.895v-17.592z"/><path d="m447.792 446.816c4.142 0 7.5-3.358 7.5-7.5s-3.358-7.5-7.5-7.5h-27.466c-4.142 0-7.5 3.358-7.5 7.5v65.184c0 4.142 3.358 7.5 7.5 7.5h27.466c4.142 0 7.5-3.358 7.5-7.5s-3.358-7.5-7.5-7.5h-19.966v-17.592h16.895c4.142 0 7.5-3.358 7.5-7.5s-3.358-7.5-7.5-7.5h-16.895v-17.592z"/><path d="m400.129 489.552c-3.175-2.661-7.905-2.246-10.566.928-3.652 4.341-8.631 6.515-14.786 6.52-13.835 0-25.092-11.256-25.092-25.092s11.256-25.092 25.092-25.092c5.029 0 9.879 1.48 14.024 4.281 3.432 2.318 8.094 1.417 10.414-2.016 2.319-3.433 1.416-8.095-2.016-10.414-6.635-4.482-14.388-6.851-22.421-6.851-22.107 0-40.092 17.985-40.092 40.092s17.984 40.092 40.091 40.092c10.544.007 19.814-4.161 26.28-11.882 2.661-3.174 2.246-7.904-.928-10.566z"/><path d="m95.116 464.83c-8.533-2.883-14.456-4.899-17.65-7.038-2.564-1.629-2.396-4.423-2.284-5.241.185-1.341 1.117-4.611 5.779-6.015 9.727-2.926 18.661 4.14 18.925 4.352 3.17 2.635 7.878 2.216 10.534-.943 2.665-3.171 2.255-7.902-.915-10.567-.612-.514-15.184-12.532-32.871-7.204-8.873 2.673-15.124 9.698-16.312 18.333-1.105 8.034 2.381 15.677 9.099 19.946 4.844 3.163 11.253 5.326 20.858 8.576 6.058 2.064 9.15 5.552 8.484 9.571-.674 4.072-5.044 8.4-11.812 8.4-6.793 0-13.337-2.747-17.506-7.347-2.781-3.069-7.524-3.303-10.594-.521-3.069 2.782-3.303 7.524-.521 10.594 6.964 7.686 17.664 12.274 28.621 12.274 13.409 0 24.6-8.811 26.611-20.949 2.307-13.929-8.495-22.831-18.446-26.221z"/><path d="m292.882 432.198c-3.932-1.305-8.176.825-9.48 4.756l-16.056 48.384-16.848-48.483c-1.36-3.913-5.634-5.983-9.546-4.623-3.913 1.359-5.982 5.634-4.623 9.546l22.19 63.858c1.322 3.806 4.917 6.364 8.947 6.364 4.089 0 7.702-2.608 8.989-6.488l21.183-63.833c1.305-3.932-.825-8.176-4.756-9.481z"/><path d="m229.408 456.257c0-13.477-11.394-24.44-25.399-24.44h-17.302c-4.142 0-7.5 3.358-7.5 7.5v65.184c0 4.142 3.358 7.5 7.5 7.5s7.5-3.358 7.5-7.5v-20.208l22.063 25.154c1.482 1.69 3.557 2.555 5.641 2.555 1.756 0 3.519-.613 4.943-1.862 3.114-2.731 3.424-7.47.692-10.584l-17.154-19.557c10.925-2.743 19.016-12.347 19.016-23.742zm-25.399 9.526h-9.802v-18.966h9.802c5.637 0 10.399 4.323 10.399 9.44 0 5.163-4.762 9.526-10.399 9.526z"/></g><g/><g/><g/><g/><g/><g/><g/><g/><g/><g/><g/><g/><g/><g/><g/></svg>