<svg xmlns="http://www.w3.org/2000/svg" viewBox="0 0 64 64" id="chemical-free">
  <g>
    <g>
      <path d="M32,2A30,30,0,1,0,62,32,30.034,30.034,0,0,0,32,2Zm0,58A28,28,0,1,1,60,32,28.0314,28.0314,0,0,1,32,60ZM32,6A26,26,0,1,0,58,32,26.0292,26.0292,0,0,0,32,6Zm0,50A24,24,0,1,1,56,32,24.0275,24.0275,0,0,1,32,56ZM49.99,27.8574a.9942.9942,0,0,0-1.0605-.855c-.3779.0264-9.3223.7027-13.33,5.2862A17.31,17.31,0,0,0,33,36.2924V32.1111c1.6208-.8906,6-3.8,6-9.2776,0-5.0977-6.125-9.92-6.3857-10.1231a1.0029,1.0029,0,0,0-1.2286,0C31.125,12.9136,25,17.7358,25,22.8335c0,5.4772,4.3792,8.387,6,9.2776v3.773a16.6145,16.6145,0,0,0-2.3838-3.5955c-4.0088-4.584-13.16-5.26-13.5478-5.2862a1.0077,1.0077,0,0,0-1.0616.8785c-.0459.3867-1.0908,9.5253,2.9385,14.1328C20.86,46.49,27.3584,47.061,30.418,47.061c.2137,0,.4039-.0034.582-.0079V50.5a1,1,0,0,0,2,0V47.0528c.187.0048.39.0082.6162.0082,3.1192,0,9.7393-.5708,13.6543-5.0473C51.3086,37.3955,50.0459,28.2446,49.99,27.8574ZM27,22.8335c0-3.2881,3.543-6.7441,5-8.0264,1.457,1.2823,5,4.7383,5,8.0264a8.5126,8.5126,0,0,1-4,6.9307V24.5a1,1,0,0,0-2,0v5.2642A8.5126,8.5126,0,0,1,27,22.8335ZM18.4512,40.6973c-2.7461-3.14-2.6817-9.2227-2.5381-11.5967,2.375.2964,8.4326,1.3428,11.1973,4.5044A17.1925,17.1925,0,0,1,30.99,43.6971l-5.309-4.93a1,1,0,0,0-1.3614,1.4658l5.1612,4.7926C26.4977,44.8949,21.4651,44.1432,18.4512,40.6973Zm27.3134,0c-3.0339,3.4693-8.2188,4.2163-11.2523,4.3347l5.1684-4.7991a1,1,0,0,0-1.3614-1.4658L33.0771,43.635a17.9514,17.9514,0,0,1,4.0284-10.03c2.7646-3.1616,8.6865-4.208,11.0058-4.5044C48.3105,31.4536,48.5176,37.5488,45.7646,40.6973Z"></path>
    </g>
  </g>
</svg>
