<svg id="a" height="512" viewBox="0 0 512 512" width="512" xmlns="http://www.w3.org/2000/svg" data-name="Layer 4"><path d="m457.848 59.997c1.536 0 3.071-.586 4.243-1.758l7.09-7.09c2.343-2.343 2.343-6.142 0-8.484-2.343-2.344-6.143-2.344-8.485 0l-7.09 7.09c-2.343 2.343-2.343 6.142 0 8.484 1.171 1.172 2.707 1.758 4.243 1.758z"/><path d="m437.188 51.439c3.313 0 6-2.687 6-6v-10.026c0-3.313-2.687-6-6-6s-6 2.687-6 6v10.026c0 3.313 2.687 6 6 6z"/><path d="m460.927 75.179c0 3.313 2.687 6 6 6h10.027c3.313 0 6-2.687 6-6s-2.687-6-6-6h-10.027c-3.313 0-6 2.687-6 6z"/><path d="m398.037 96.181h-6.646c-3.313 0-6 2.687-6 6s2.687 6 6 6h6.646c3.309 0 6 2.691 6 6v21.311c0 3.309-2.691 6-6 6h-96.955c-3.309 0-6-2.691-6-6v-21.311c0-3.309 2.691-6 6-6h44.309c3.314 0 6-2.687 6-6s-2.686-6-6-6h-44.309c-9.925 0-18 8.075-18 18v21.311c0 9.163 6.887 16.733 15.754 17.844v126.227c0 3.313 2.687 6 6 6s6-2.687 6-6v-92.484h77.446v178.018c0 1.128-.049 2.266-.146 3.381-.286 3.301 2.158 6.209 5.46 6.495 3.252.297 6.222-2.15 6.495-5.46.126-1.458.19-2.943.19-4.416v-211.762c8.867-1.111 15.754-8.682 15.754-17.844v-21.311c0-9.925-8.075-18-18-18zm-9.754 78.897h-77.446v-21.587h77.446z"/><path d="m265.381 152.423h-81.684c-3.313 0-6 2.687-6 6s2.687 6 6 6h81.684c3.309 0 6 2.691 6 6v21.311c0 3.309-2.691 6-6 6h-36.374c-3.313 0-6 2.687-6 6s2.687 6 6 6h26.789v26.788c0 3.313 2.687 6 6 6s6-2.687 6-6v-26.97c8.785-1.186 15.585-8.714 15.585-17.818v-21.311c0-9.925-8.075-18-18-18z"/><path d="m237.796 253.045h-41.784c-2.144 0-4.124 1.144-5.196 2.999l-69.468 120.288c-.906 1.567-1.385 3.353-1.385 5.164 0 5.692 4.631 10.323 10.323 10.323h173.236c5.692 0 10.323-4.631 10.323-10.323 0-1.81-.478-3.594-1.383-5.162l-69.469-120.29c-1.072-1.855-3.052-2.999-5.196-2.999zm-104.604 126.774 66.284-114.774h34.857l66.284 114.774h-167.426z"/><path d="m228.109 297.819c-2.005-2.638-5.768-3.152-8.407-1.148-2.638 2.005-3.152 5.769-1.148 8.407s5.768 3.152 8.407 1.147c2.638-2.004 3.152-5.768 1.148-8.407z"/><path d="m360.041 264.918c-2.638 2.004-3.152 5.768-1.148 8.407 2.005 2.638 5.768 3.152 8.407 1.148 2.638-2.004 3.152-5.769 1.148-8.407-2.005-2.639-5.768-3.153-8.407-1.148z"/><path d="m341.822 218.49c-2.004-2.639-5.768-3.152-8.407-1.148-2.638 2.004-3.152 5.768-1.148 8.407s5.768 3.152 8.407 1.148c2.638-2.004 3.152-5.769 1.148-8.407z"/><path d="m193.632 328.202c-2.638 2.005-3.152 5.769-1.148 8.407 2.005 2.638 5.768 3.152 8.407 1.148 2.638-2.005 3.152-5.769 1.148-8.407s-5.768-3.152-8.407-1.148z"/><path d="m228.849 344.245c-2.638 2.005-3.152 5.769-1.148 8.407 2.005 2.638 5.768 3.152 8.407 1.147 2.638-2.004 3.152-5.768 1.148-8.407-2.005-2.638-5.768-3.152-8.407-1.148z"/><path d="m434.004 77.731c-47.546-47.545-110.763-73.731-178.004-73.731s-130.458 26.186-178.004 73.731c-.044.044-.086.089-.129.133 0 0 0 0-.001 0 0 0 0 .001-.001.002-47.463 47.532-73.601 110.693-73.601 177.87s26.185 130.457 73.731 178.004c47.547 47.547 110.763 73.731 178.004 73.731s130.333-26.135 177.864-73.594c.002-.002.005-.004.008-.006.002-.002.003-.004.005-.006.042-.042.086-.083.128-.125 47.546-47.547 73.731-110.763 73.731-178.004s-26.185-130.458-73.731-178.005zm-178.004 417.74c-132.191 0-239.736-107.545-239.736-239.735 0-63.875 25.114-121.993 65.981-165.006l70.637 70.637c-1.604 2.74-2.456 5.828-2.456 9.056v21.311c0 9.104 6.801 16.633 15.585 17.818v41.452l-65.448 113.327c-3.01 5.211-4.601 11.146-4.601 17.165 0 18.926 15.397 34.323 34.323 34.323h173.236c7.712 0 14.838-2.558 20.575-6.869 7.718 4.5 16.428 6.868 25.463 6.868 15.297 0 29.609-6.872 39.204-18.57l32.242 32.243c-43.013 40.867-101.131 65.981-165.006 65.981zm93.93-120.83c2.005 2.639 5.768 3.152 8.407 1.148 2.213-1.681 2.924-4.597 1.916-7.051l19.984 19.984c-7.318 9.496-18.602 15.096-30.678 15.096-5.985 0-11.783-1.36-17.06-3.963 3.378-5.314 5.345-11.609 5.345-18.359 0-6.019-1.591-11.954-4.6-17.165l-30.896-53.498 54.633 54.633c-1.901-.777-4.149-.563-5.903.769-2.638 2.004-3.152 5.769-1.148 8.407zm-27.078-4.309c1.957 3.389 2.992 7.249 2.992 11.163 0 12.31-10.014 22.323-22.323 22.323h-173.235c-12.309 0-22.323-10.014-22.323-22.323 0-3.914 1.035-7.774 2.992-11.163l66.252-114.72c.527-.912.804-1.947.804-3.001v-42.879h23.237l68.373 68.373c.075.162.154.322.245.479zm-154.426-172.599c-3.309 0-6-2.691-6-6v-20.822l26.822 26.822zm261.074 223.282-338.779-338.779c43.04-41.02 101.27-66.236 165.279-66.236 132.191 0 239.736 107.545 239.736 239.736 0 64.009-25.216 122.239-66.236 165.279z"/><circle cx="368.391" cy="102.181" r="6"/><path d="m339.415 294.266c-2.638 2.004-3.152 5.769-1.148 8.407 2.004 2.639 5.768 3.152 8.407 1.148 2.638-2.004 3.152-5.768 1.148-8.407s-5.768-3.152-8.407-1.148z"/></svg>