<svg version="1.1" id="Layer_1" xmlns="http://www.w3.org/2000/svg" xmlns:xlink="http://www.w3.org/1999/xlink" x="0px" y="0px" viewBox="0 0 512 512" style="enable-background:new 0 0 512 512;" xml:space="preserve">
<g>
	<path style="fill:none;stroke:#000000;stroke-width:20;stroke-linecap:round;stroke-linejoin:round;stroke-miterlimit:10;" d="&#10;&#9;&#9;M356.785,477.274H20c-5.523,0-10-4.477-10-10v-20c0-5.523,4.477-10,10-10h472c5.523,0,10,4.477,10,10v20c0,5.523-4.477,10-10,10&#10;&#9;&#9;h-44.095"/>
	
		<line style="fill:none;stroke:#000000;stroke-width:20;stroke-linecap:round;stroke-linejoin:round;stroke-miterlimit:10;" x1="402.264" y1="477.274" x2="402.264" y2="477.274"/>
	<path style="fill:none;stroke:#000000;stroke-width:20;stroke-linecap:round;stroke-linejoin:round;stroke-miterlimit:10;" d="&#10;&#9;&#9;M407.694,287.122l-82.959-39.164l-13.518-6.382c-11.338-5.352-24.886-1.229-31.32,9.533l0,0&#10;&#9;&#9;c-7.104,11.883-2.893,27.29,9.267,33.908l80.242,43.673c3.538,1.926,3.463,7.031-0.131,8.852l-97.761,49.524H111.941&#10;&#9;&#9;c-14.074,0-25.932,11.518-25.665,25.59c0.259,13.641,11.397,24.619,25.1,24.619h160.138h50.93c29.192,0,57.686-8.925,81.661-25.579&#10;&#9;&#9;l0,0c29.646-20.592,41.298-58.83,28.173-92.456l-3.876-9.93C424.589,299.54,417.179,291.6,407.694,287.122z"/>
	
		<circle style="fill:none;stroke:#000000;stroke-width:20;stroke-linecap:round;stroke-linejoin:round;stroke-miterlimit:10;" cx="443.942" cy="259.719" r="42.924"/>
	
		<circle style="fill:none;stroke:#000000;stroke-width:20;stroke-linecap:round;stroke-linejoin:round;stroke-miterlimit:10;" cx="116.783" cy="80.057" r="45.332"/>
	<path style="fill:none;stroke:#000000;stroke-width:20;stroke-linecap:round;stroke-linejoin:round;stroke-miterlimit:10;" d="&#10;&#9;&#9;M123.636,336.857L99.364,322.67c-21.436-12.529-35.288-34.848-37.002-59.618l-5.396-77.994&#10;&#9;&#9;c-2.361-34.126,26.244-62.331,60.333-59.489l0,0c29.805,2.484,57.976,14.661,80.206,34.669l22.124,19.912l57.155,18.356&#10;&#9;&#9;c16.006,5.141,22.543,24.248,13.04,38.116l0,0c-5.962,8.701-16.724,12.75-26.943,10.138l-65.148-16.654l-43.437-37.474&#10;&#9;&#9;c-3.555-3.067-8.995,0.014-8.193,4.64l13.883,80.079l43.669,22.706c15.261,7.935,24.836,23.705,24.836,40.906v0&#10;&#9;&#9;c0,25.463-20.642,46.105-46.105,46.105H50.238c-13.703,0-24.841-10.978-25.1-24.619c-0.267-14.072,11.591-25.59,25.665-25.59&#10;&#9;&#9;h97.997"/>
	
		<line style="fill:none;stroke:#000000;stroke-width:20;stroke-linecap:round;stroke-linejoin:round;stroke-miterlimit:10;" x1="260.987" y1="197.174" x2="247.653" y2="235.821"/>
	
		<line style="fill:none;stroke:#000000;stroke-width:20;stroke-linecap:round;stroke-linejoin:round;stroke-miterlimit:10;" x1="324.712" y1="251.527" x2="307.748" y2="290.174"/>
	
		<line style="fill:none;stroke:#000000;stroke-width:20;stroke-linecap:round;stroke-linejoin:round;stroke-miterlimit:10;" x1="271.514" y1="387.066" x2="336.595" y2="431.174"/>
	
		<line style="fill:none;stroke:#000000;stroke-width:20;stroke-linecap:round;stroke-linejoin:round;stroke-miterlimit:10;" x1="159.986" y1="277.349" x2="67.469" y2="274.242"/>
</g>
<g>
</g>
<g>
</g>
<g>
</g>
<g>
</g>
<g>
</g>
<g>
</g>
<g>
</g>
<g>
</g>
<g>
</g>
<g>
</g>
<g>
</g>
<g>
</g>
<g>
</g>
<g>
</g>
<g>
</g>
</svg>