<?xml version="1.0" encoding="UTF-8"?>
<svg xmlns="http://www.w3.org/2000/svg" viewBox="0 0 64 64" width="512" height="512"><g id="Artboard_03" data-name="Artboard 03"><path d="M55,16H53V14h1a1,1,0,0,0,1-1V8a1,1,0,0,0-1-1H52.18l.806-4.835A1,1,0,0,0,52,1H43a1,1,0,0,0-.986,1.165L42.82,7H41a1,1,0,0,0-1,1v5a1,1,0,0,0,1,1h1v2H40a3,3,0,0,0-3,3V38.418a19.254,19.254,0,0,0-5.413-6.228h0a5.5,5.5,0,0,0-3.844-1.354c-4.067,0-9.539,2.951-14.281,7.7-6.9,6.912-9.56,14.686-6.209,18.119h0a19.1,19.1,0,0,0,10.726,6.071,17.828,17.828,0,0,0,3.093.266,18.751,18.751,0,0,0,4.119-.46c6.621-1.493,9.978-5.2,11.627-8.043.069-.118.117-.236.182-.354V60a3,3,0,0,0,3,3H55a3,3,0,0,0,3-3V19A3,3,0,0,0,55,16ZM14.877,39.95c4.315-4.322,9.365-7.114,12.866-7.114a3.464,3.464,0,0,1,2.549.871c2.218,2.221.243,8.957-6.233,15.443-4.259,4.266-9.264,7.022-12.75,7.022a3.541,3.541,0,0,1-2.6-.89C6.5,53.072,8.453,46.384,14.877,39.95ZM35.088,53.487a13.614,13.614,0,0,1-1.467,2.056A16.589,16.589,0,0,1,26.991,57a16.3,16.3,0,0,1-5.66-.943l-.662,1.886A18.557,18.557,0,0,0,26.842,59h.167a18.553,18.553,0,0,0,2.605-.23,18.3,18.3,0,0,1-4.864,1.812,16.423,16.423,0,0,1-6.423.175c-.273-.048-.522-.124-.784-.185a1.463,1.463,0,0,1,.262-.978A1.656,1.656,0,0,1,19.026,59l-.052-2A3.635,3.635,0,0,0,16.2,58.406a3.416,3.416,0,0,0-.631,1.578,16.72,16.72,0,0,1-3.573-1.841c3.684-.279,8.335-2.753,12.527-6.658a2.914,2.914,0,0,1-.376,2l1.716,1.026a4.79,4.79,0,0,0,.239-4.6,30.425,30.425,0,0,0,5.51-7.811,2.736,2.736,0,0,1-.045,2.9l1.717,1.025a4.733,4.733,0,0,0-.032-5.077,4.268,4.268,0,0,0-.811-.862,12.14,12.14,0,0,0,.7-3.759,15.16,15.16,0,0,1,3.822,8.758A14.592,14.592,0,0,1,35.088,53.487ZM44.181,3h6.638l-.666,4H44.847ZM42,9H53v3H42Zm2,5h7v2H44Zm-4,4H55a1,1,0,0,1,1,1v2H53.829a7.774,7.774,0,0,0-5.536,2.293A5.789,5.789,0,0,1,44.171,25H39V19A1,1,0,0,1,40,18ZM55,61H40a1,1,0,0,1-1-1V27h5.171a7.774,7.774,0,0,0,5.536-2.293A5.789,5.789,0,0,1,53.829,23H56V60A1,1,0,0,1,55,61Z"/><path d="M54,30H41a1,1,0,0,0-1,1V52a1,1,0,0,0,1,1H54a1,1,0,0,0,1-1V31A1,1,0,0,0,54,30ZM53,51H42V32H53Z"/><path d="M32.815,50.017a1.733,1.733,0,0,1-1.856-1.3l-1.918.566a3.786,3.786,0,0,0,3.537,2.756,3.28,3.28,0,0,0,.607-.056,3.641,3.641,0,0,0,2.785-2.739l-1.94-.488A1.661,1.661,0,0,1,32.815,50.017Z"/><path d="M13.169,53.973h0c2.6,0,6.528-2.252,10.007-5.736,4.3-4.3,7.38-9.931,4.956-12.36a3.084,3.084,0,0,0-2.267-.841h0c-2.6,0-6.56,2.277-10.078,5.8C11.519,45.11,8.461,50.7,10.876,53.123A3.117,3.117,0,0,0,13.169,53.973ZM17.2,42.25c3.577-3.583,7-5.214,8.663-5.214h0a1.181,1.181,0,0,1,.851.254c.93.932-.537,5.11-4.955,9.534-4.4,4.408-8.589,5.771-9.47,4.885C11.367,50.783,12.82,46.637,17.2,42.25Z"/><path d="M23.684,27.949A1.019,1.019,0,0,0,24,28a1,1,0,0,0,.8-.4l.066-.088a23.241,23.241,0,0,1,4.579-4.346A4,4,0,1,0,23,20v7A1,1,0,0,0,23.684,27.949ZM25,20a2,2,0,1,1,3.221,1.584A34.446,34.446,0,0,0,25,24.34Z"/><path d="M14.555,27.166a23.241,23.241,0,0,1,4.579,4.346l.066.088a1,1,0,0,0,.8.4,1.019,1.019,0,0,0,.316-.051A1,1,0,0,0,21,31V24a4,4,0,1,0-6.445,3.166ZM17,22a2,2,0,0,1,2,2v4.34a34.6,34.6,0,0,0-3.221-2.756A2,2,0,0,1,17,22Z"/></g></svg>
