<svg id="Capa_1" enable-background="new 0 0 511.918 511.918" height="512" viewBox="0 0 511.918 511.918" width="512" xmlns="http://www.w3.org/2000/svg"><g><g><path d="m469.512 122.015c-7.049-1.124-13.757-.951-20.083.163-1.983-11.533-4.973-22.924-8.955-34.036 4.98-4.407 10.302-7.887 15.699-9.492 3.971-1.181 6.232-5.356 5.053-9.326-1.181-3.97-5.353-6.233-9.326-5.053-6.145 1.827-11.952 5.159-17.302 9.293-9.779-21.773-23.576-42.16-41.416-60l-2.929-2.942c-22.849-22.846-76.045-8.254-138.856 38.081-3.065 2.261-4.151 6.494-2.284 9.814 2.258 4.016 7.426 5.036 11.011 2.388 53.919-39.815 103.07-56.129 119.521-39.675 10.524 10.523 7.927 34.743-7.127 66.448-16.38 34.498-45.321 73.417-81.494 109.589-37.703 37.704-78.463 67.546-113.466 83.288v-22.082c0-6.309 3.697-12.143 9.418-14.862 7.903-3.757 16.934-9.109 26.515-15.713 18.672-12.878 38.904-30.048 58.51-49.653 24.319-24.321 44.876-49.614 57.883-71.222 15.076-25.046 18.227-42.239 9.364-51.103-8.864-8.862-26.056-5.713-51.103 9.365-21.607 13.007-46.901 33.563-71.221 57.883-34.401 34.401-60.995 70.735-69.339 94.605-13.757 13.719-22.211 38.028-25.267 72.608-2.917-1.051-5.38-2.541-7.332-4.493-10.524-10.523-7.926-34.743 7.127-66.447 16.38-34.498 45.322-73.418 81.494-109.591 10.029-10.028 20.438-19.65 30.942-28.604 2.908-2.479 3.734-6.763 1.643-9.961-2.526-3.865-7.763-4.529-11.161-1.636-9.614 8.185-19.147 16.915-28.396 25.994-14.075-25.1-31.352-50.023-51.473-74.21-3.658-4.398-9.251-6.725-14.952-6.226-5.717.501-10.83 3.773-13.676 8.755-7.268 12.718-17.777 35.275-20.521 62.918-10.895-6.376-22.286-12.497-33.998-18.265-5.133-2.526-11.185-2.375-16.191.402-5.018 2.785-8.354 7.855-8.927 13.564-2.861 28.563-1.823 98.563 67.484 139.794-14.139 33.791-14.218 59.904-.003 74.12.707.707 1.445 1.377 2.211 2.015 4.348 4.347 9.832 9.611 14.541 13.538-.078 3.27-.122 6.603-.122 10.02v23.868c0 17.884-4.022 35.715-11.635 51.585-1.763 3.676-.473 8.238 3.135 10.138 3.775 1.988 8.417.438 10.256-3.373 8.665-17.952 13.244-38.129 13.244-58.35v-23.868c0-68.187 15.617-91.314 28.717-98.71 9.884-5.58 20.899-3.803 29.335-.708-4.813 2.941-9.336 5.42-13.525 7.412-10.921 5.191-17.978 16.343-17.978 28.409v86.718c0 22.861 5.764 45.336 16.668 64.993 7.328 13.208 12.062 29.291 12.062 40.973 0 24.377-19.533 45.76-41.8 45.76s-41.801-21.383-41.801-45.76c0-5.12.929-11.271 2.686-17.789 1.079-3.999-1.29-8.115-5.289-9.193-3.997-1.083-8.115 1.289-9.194 5.289-2.095 7.772-3.203 15.273-3.203 21.693 0 32.367 26.542 60.76 56.801 60.76s56.8-28.393 56.8-60.76c0-14.256-5.343-32.744-13.945-48.25-9.663-17.418-14.774-37.354-14.785-57.655 7.206 2.778 14.584 5.159 22.049 7.09.63.163 1.262.241 1.884.241 3.437 0 6.564-2.38 7.328-5.931.851-3.954-1.75-7.868-5.664-8.886-8.715-2.266-17.306-5.181-25.598-8.679v-32.196c38.021-15.704 82.965-47.91 124.074-89.018 37.354-37.354 67.34-77.756 84.437-113.763 8.819-18.573 13.702-35.1 14.642-48.975 9.14 12.298 16.568 25.475 22.301 39.198-13.595 14.796-22.285 31.95-22.851 33.084-1.852 3.704-.352 8.204 3.351 10.059 1.078.539 2.223.795 3.352.795 2.748 0 5.396-1.518 6.712-4.141 2.592-5.167 8.15-14.592 15.341-23.608 2.666 8.523 4.703 17.201 6.124 25.96-29.109 12.343-47.201 42.372-48.208 44.077-2.104 3.563-.923 8.154 2.638 10.264 1.198.709 2.514 1.047 3.812 1.047 2.562 0 5.059-1.313 6.461-3.674.202-.34 14.774-24.448 37.179-35.948 4.036 52.608-14.01 106.608-54.158 146.756-26.785 26.785-60.609 44.479-96.999 51.452 8.449-11.081 18.138-13.394 18.9-13.56 4.03-.812 6.66-4.724 5.881-8.77-.783-4.067-4.715-6.733-8.782-5.946-1.19.229-22.701 4.737-35.087 30.913-10.541.913-21.223.951-31.95.054-4.198-.332-7.866 2.816-8.113 7.04-.242 4.134 3.1 7.599 7.227 7.938 5.566.456 11.119.682 16.651.682 3.604 0 7.197-.104 10.779-.294-1.24 5.034-2.174 10.601-2.702 16.765-.354 4.127 2.705 7.76 6.832 8.113.218.019.435.027.649.027 3.852 0 7.129-2.95 7.464-6.859.653-7.617 2.016-14.062 3.809-19.549 7.067-.944 14.06-2.265 20.954-3.94-3.934 10.013-3.409 21.288 1.594 33.543 1.187 2.907 3.988 4.668 6.946 4.668.943 0 1.903-.18 2.831-.558 3.835-1.565 5.675-5.943 4.109-9.778-3.608-8.842-4.033-16.598-1.262-23.053 4.271-9.95 15.691-14.617 15.976-14.729 23.97-10.023 46.05-24.7 64.901-43.551 24.232-24.232 40.977-53.157 50.284-83.883.438-1.528 1.743-6.025 2.144-7.562 2.311-6.999 8.069-19.06 21.169-23.998 3.876-1.461 5.833-5.787 4.372-9.663-1.46-3.876-5.787-5.836-9.663-4.372-3.809 1.436-7.171 3.262-10.149 5.337 1.173-12.756 1.144-25.605-.089-38.358 4.999-.968 10.252-1.158 15.709-.287 4.094.652 7.936-2.134 8.589-6.224.652-4.086-2.134-7.931-6.225-8.585zm-339.954-90.609c.566-.991 1.472-1.211 1.961-1.254.482-.044 1.396.017 2.112.876 20.546 24.698 38.023 50.146 52.012 75.715-20.077 20.839-37.792 42.454-52.219 63.596-41.294-58.764-16.829-116.248-3.866-138.933zm-77.735 52.673c.114-1.136.852-1.705 1.281-1.944.422-.233 1.281-.556 2.285-.061 13.913 6.852 27.342 14.215 39.995 21.907.661 24.629 8.287 52.149 29.28 79.79-5.25 8.445-9.931 16.767-13.979 24.886-60.546-36.983-61.413-99.105-58.862-124.578zm118.024 121.547c11.815-20.638 32.797-46.963 57.683-71.849 23.483-23.483 47.757-43.243 68.351-55.64 22.769-13.705 31.756-12.615 32.759-11.608 1.005 1.004 2.097 9.991-11.608 32.76-12.396 20.593-32.155 44.866-55.639 68.35-17.632 17.632-35.725 33.182-52.591 45.222-8.684-4.587-23.506-10.377-38.955-7.235z"/><path d="m274.699 290.297c2.86 0 5.594-1.646 6.844-4.425 4.367-9.707 15.456-14.206 15.68-14.296 3.849-1.491 5.771-5.814 4.295-9.673-1.479-3.867-5.811-5.807-9.685-4.325-.69.264-17.001 6.649-23.97 22.14-1.699 3.777-.015 8.218 3.763 9.917.999.449 2.044.662 3.073.662z"/><path d="m365.931 259.543c2.86 0 5.594-1.646 6.844-4.425 4.366-9.706 15.454-14.205 15.681-14.296 3.848-1.491 5.771-5.813 4.295-9.672-1.479-3.869-5.814-5.808-9.684-4.326-.691.264-17.003 6.649-23.972 22.14-1.699 3.777-.015 8.218 3.763 9.917.998.449 2.043.662 3.073.662z"/></g></g></svg>