<svg xmlns="http://www.w3.org/2000/svg" viewBox="0 0 74 74" id="coconut-oil">
  <path d="M60.2 60.2c-1.8 1.8-4.3 3-7 3.3-.5.1-.9.6-.9 1.1.1.5.5.9 1 .9h.1c3.2-.3 6.1-1.7 8.2-3.8.4-.4.4-1 0-1.4s-1-.5-1.4-.1zm-10.5 3.1h-.2c-.5-.1-1 .3-1.1.9-.1.5.4 1.1.9 1.1h.4c.5 0 1-.4 1-.9 0-.6-.4-1-1-1.1z"></path>
  <path d="M70 50.7c-.3-5.4-2.6-10.5-6.6-14.5-3.3-3.3-11.6.1-19.3 7.8-7.7 7.7-11.1 16-7.8 19.3 4.4 4.4 10.1 6.6 15.6 6.6 4.8 0 9.5-1.7 13-5.2 3.5-3.6 5.4-8.6 5.1-14zM37.6 61.9c-2-2 .7-9.3 7.8-16.5 5.6-5.6 11.3-8.5 14.5-8.5.9 0 1.6.2 2 .7 2 2-.7 9.3-7.8 16.5-7.1 7.2-14.4 9.9-16.5 7.8zm25.8 1.5c-5.8 5.8-15.3 6.1-22.6 1.2 4-.5 9.5-3.7 14.8-9 5.2-5.2 8.5-10.8 9-14.8 2.1 3 3.3 6.5 3.5 10.1.1 4.8-1.5 9.2-4.7 12.5z"></path>
  <path d="M58.9 40.7c-2.4-2.4-10.1 5.2-11.6 6.7C45 49.6 43 52 41.8 54c-1.6 2.5-2 4.1-1.1 5 .3.3.7.5 1.2.5 3.1 0 9.1-5.8 10.4-7.1 2.3-2.3 4.3-4.7 5.6-6.6 1.6-2.7 1.9-4.3 1-5.1zm-8 10.2c-4.2 4.2-7.5 6.2-8.6 6.5.3-1.2 2.3-4.4 6.5-8.6 4.2-4.2 7.5-6.2 8.6-6.5-.3 1.1-2.3 4.3-6.5 8.6zM23.1 18.6h.3c.6 0 1-.4 1-1V8.1c0-2.2-1.8-4.1-4.1-4.1h-6c-2.2 0-4.1 1.8-4.1 4.1v9.6c0 .6.4 1 1 1h.3c-.2 4.8-2.1 7.6-5.4 10.8C4.8 30.9 4 32.8 4 34.8v30.8C4 68 6 70 8.4 70h18c2.4 0 4.4-2 4.4-4.4V34.9c0-2-.8-3.9-2.2-5.4-3.4-3.3-5.3-6.1-5.5-10.9zM12.3 8.1c0-1.1.9-2.1 2.1-2.1h6c1.1 0 2.1.9 2.1 2.1v1.2H12.3V8.1zm0 3.2h10.2v5.3H12.3v-5.3zm16.4 54.3c0 1.3-1.1 2.4-2.4 2.4h-18C7.1 68 6 66.9 6 65.6V65h22.7v.6zm0-2.6H6V35.9h22.7V63zM6.1 33.9c.2-1.1.7-2.1 1.6-3 3.6-3.6 5.7-6.8 5.9-12.3h7.5c.2 5.4 2.4 8.7 5.9 12.3.8.8 1.4 1.9 1.6 3H6.1z"></path>
  <path d="M17.4 53c1.8 0 3.3-1.5 3.3-3.3 0-1.5-1.9-4.1-2.5-4.9-.2-.2-.5-.4-.8-.4-.3 0-.6.1-.8.4-.6.8-2.5 3.4-2.5 4.9 0 1.8 1.4 3.3 3.3 3.3zm0-5.8c.8 1.1 1.3 2.2 1.3 2.6 0 .7-.6 1.3-1.3 1.3-.7 0-1.3-.6-1.3-1.3 0-.5.5-1.5 1.3-2.6z"></path>
  <path d="M17.4 58c4.9 0 8.8-4 8.8-8.8 0-4.9-4-8.8-8.8-8.8s-8.8 4-8.8 8.8C8.5 54 12.5 58 17.4 58zm0-15.7c3.8 0 6.8 3.1 6.8 6.8 0 3.8-3.1 6.8-6.8 6.8-3.8 0-6.8-3.1-6.8-6.8-.1-3.7 3-6.8 6.8-6.8z"></path>
</svg>
