<svg id="Layer_1" enable-background="new 0 0 512 512" height="512" viewBox="0 0 512 512" width="512" xmlns="http://www.w3.org/2000/svg"><g><path d="m479.139 363.332v-85.694c0-4.143-3.357-7.5-7.5-7.5s-7.5 3.357-7.5 7.5v85.601h-15.576v-228.612c0-15.704-12.775-28.479-28.479-28.479h-134.817v-15.578h134.341c24.555 0 44.531 19.977 44.531 44.531v107.537c0 4.143 3.357 7.5 7.5 7.5s7.5-3.357 7.5-7.5v-107.536c0-32.825-26.706-59.531-59.531-59.531h-136.288c-1.124-1.853-2.679-3.408-4.532-4.532v-25.462h26.246c10.191 0 18.483-8.292 18.483-18.484v-8.608c.001-10.193-8.291-18.485-18.483-18.485h-31.534c-4.143 0-7.5 3.357-7.5 7.5s3.357 7.5 7.5 7.5h31.534c1.921 0 3.483 1.563 3.483 3.484v8.608c0 1.921-1.563 3.484-3.483 3.484-10.41 0-87.478 0-98.068 0-1.921 0-3.483-1.563-3.483-3.484v-8.608c0-1.921 1.563-3.484 3.483-3.484h31.534c4.143 0 7.5-3.357 7.5-7.5s-3.357-7.5-7.5-7.5h-31.534c-10.191 0-18.483 8.292-18.483 18.484v8.608c0 10.192 8.292 18.484 18.483 18.484h26.246v25.461c-1.853 1.124-3.409 2.679-4.532 4.532h-136.287c-32.825 0-59.531 26.706-59.531 59.532v228.23c-11 .937-19.67 10.175-19.67 21.414v105.747c0 11.859 9.647 21.507 21.506 21.507h442.605c11.858 0 21.506-9.647 21.506-21.507v-105.746c0-11.239-8.67-20.477-19.67-21.414zm-59.056-242.185c7.433 0 13.479 6.047 13.479 13.479v228.612h-31.631c7.558-8.233 12.18-19.202 12.18-31.232v-167.814c0-7.196-5.854-13.051-13.051-13.051h-19.476c-7.196 0-13.051 5.854-13.051 13.051v17.858h-65.023v-10.222c0-11.407-9.28-20.688-20.688-20.688h-4.036v-25.46c1.853-1.124 3.409-2.68 4.533-4.533zm-191.404 0c1.124 1.853 2.68 3.409 4.533 4.533v25.461h-4.035c-11.407 0-20.688 9.28-20.688 20.688v10.222h-65.023v-17.858c0-7.196-5.854-13.051-13.051-13.051h-19.476c-7.196 0-13.051 5.854-13.051 13.051v167.814c0 12.03 4.623 22.999 12.18 31.232h-31.63v-228.612c0-7.433 6.047-13.479 13.479-13.479h136.762zm79.839 158.999c0 6.896-5.61 12.506-12.506 12.506s-12.506-5.61-12.506-12.506 5.61-12.506 12.506-12.506 12.506 5.61 12.506 12.506zm-40.012 0c0 6.896-5.61 12.506-12.506 12.506s-12.506-5.61-12.506-12.506 5.61-12.506 12.506-12.506 12.506 5.61 12.506 12.506zm-40.012 0c0 6.896-5.61 12.506-12.506 12.506s-12.506-5.61-12.506-12.506 5.61-12.506 12.506-12.506 12.506 5.61 12.506 12.506zm-40.012 0c0 6.896-5.61 12.506-12.506 12.506s-12.506-5.61-12.506-12.506 5.61-12.506 12.506-12.506 12.506 5.61 12.506 12.506zm147.541 12.505c-6.896 0-12.506-5.61-12.506-12.506s5.61-12.506 12.506-12.506 12.506 5.61 12.506 12.506-5.61 12.506-12.506 12.506zm-7.5-52.517c0 6.896-5.61 12.506-12.506 12.506s-12.506-5.61-12.506-12.506 5.61-12.506 12.506-12.506 12.506 5.61 12.506 12.506zm-40.011 0c0 6.896-5.61 12.506-12.506 12.506s-12.506-5.61-12.506-12.506 5.61-12.506 12.506-12.506 12.506 5.61 12.506 12.506zm-40.012 0c0 6.896-5.61 12.506-12.506 12.506s-12.506-5.61-12.506-12.506 5.61-12.506 12.506-12.506 12.506 5.61 12.506 12.506zm-40.012 0c0 6.896-5.61 12.506-12.506 12.506s-12.506-5.61-12.506-12.506 5.61-12.506 12.506-12.506 12.506 5.61 12.506 12.506zm-36.818 12.845c-13.128 2.073-23.2 13.464-23.2 27.166 0 4.638 1.158 9.008 3.194 12.845-2.91.46-5.667 1.381-8.2 2.68v-68.043h28.031c-1.926 3.755-3.02 8.004-3.02 12.506.002 4.639 1.16 9.009 3.195 12.846zm-28.205 67.178c0-6.896 5.61-12.506 12.506-12.506s12.506 5.61 12.506 12.506-5.61 12.506-12.506 12.506-12.506-5.61-12.506-12.506zm40.012 0c0-6.896 5.61-12.506 12.506-12.506s12.506 5.61 12.506 12.506-5.61 12.506-12.506 12.506-12.506-5.61-12.506-12.506zm40.011 0c0-6.896 5.61-12.506 12.506-12.506s12.506 5.61 12.506 12.506-5.61 12.506-12.506 12.506-12.506-5.61-12.506-12.506zm40.012 0c0-6.896 5.61-12.506 12.506-12.506s12.506 5.61 12.506 12.506-5.61 12.506-12.506 12.506-12.506-5.61-12.506-12.506zm40.012 0c0-6.896 5.61-12.506 12.506-12.506s12.506 5.61 12.506 12.506-5.61 12.506-12.506 12.506-12.506-5.61-12.506-12.506zm40.011 0c0-6.896 5.61-12.506 12.506-12.506s12.506 5.61 12.506 12.506-5.61 12.506-12.506 12.506-12.506-5.61-12.506-12.506zm25.012-24.486c-2.533-1.299-5.29-2.221-8.2-2.68 2.035-3.837 3.194-8.208 3.194-12.845 0-13.702-10.071-25.093-23.2-27.166 2.035-3.837 3.194-8.208 3.194-12.845 0-4.502-1.094-8.751-3.02-12.506h28.031v68.042zm0-83.043h-225.07v-15.577h225.07zm-80.023-30.91h-65.023v-9.889c0-3.136 2.552-5.688 5.688-5.688h53.647c3.136 0 5.688 2.552 5.688 5.688zm-40.3-30.576v-23.516h15.576v23.516zm22.055-38.516h-28.533v-28.533h28.533zm-157.379 219.381v-165.865h15.577v165.865c0 8.633 7.022 15.656 15.655 15.656h223.76c8.633 0 15.655-7.023 15.655-15.656 0-9.35 0-159.419 0-165.865h15.577v165.865c0 17.222-14.011 31.232-31.232 31.232h-223.76c-17.222 0-31.232-14.01-31.232-31.232zm150.9-286.43v23.516h-15.576v-23.516zm-215.927 89.526c0-24.555 19.977-44.532 44.531-44.532h134.341v15.577h-134.816c-15.704 0-28.479 12.775-28.479 28.479v228.612h-15.577zm435.948 355.39c0 3.588-2.919 6.507-6.506 6.507h-442.606c-3.587 0-6.506-2.919-6.506-6.507v-105.747c0-3.588 2.919-6.507 6.506-6.507h442.605c3.587 0 6.506 2.919 6.506 6.507v105.747z"/></g></svg>