<svg id="Capa_1" enable-background="new 0 0 512 512" viewBox="0 0 512 512" xmlns="http://www.w3.org/2000/svg"><g><g><path d="m284.247 365.5v44c0 4.143 3.357 7.5 7.5 7.5s7.5-3.357 7.5-7.5v-44c0-4.143-3.357-7.5-7.5-7.5s-7.5 3.357-7.5 7.5z"/><path d="m328.747 358c-4.143 0-7.5 3.357-7.5 7.5v44c0 4.143 3.357 7.5 7.5 7.5s7.5-3.357 7.5-7.5v-44c0-4.143-3.357-7.5-7.5-7.5z"/><path d="m373.247 409.5v-44c0-4.143-3.357-7.5-7.5-7.5s-7.5 3.357-7.5 7.5v44c0 4.143 3.357 7.5 7.5 7.5s7.5-3.357 7.5-7.5z"/><path d="m466.248 361.405h-23.248v-44.914c0-12.953-11.894-23.491-26.512-23.491h-183.088v-21.5h41.024c11.345 0 20.575-9.23 20.575-20.575v-144.925c0-6.341-5.159-11.5-11.5-11.5h-22c-6.341 0-11.5 5.159-11.5 11.5v9.153h-40v-107.653c0-4.143-3.357-7.5-7.5-7.5h-30c-4.143 0-7.5 3.357-7.5 7.5v107.653h-40v-9.153c0-6.341-5.159-11.5-11.5-11.5h-22c-6.34 0-11.499 5.159-11.499 11.5v35.904c0 4.143 3.357 7.5 7.5 7.5s7.5-3.357 7.5-7.5v-32.404h15v106.5c0 5.238 4.262 9.5 9.5 9.5h136c5.238 0 9.5-4.262 9.5-9.5v-106.5h15v141.425c0 3.074-2.501 5.575-5.575 5.575h-173.85c-3.074 0-5.575-2.501-5.575-5.575v-73.925c0-4.143-3.357-7.5-7.5-7.5s-7.5 3.357-7.5 7.5v73.925c0 11.345 9.23 20.575 20.575 20.575h41.025v21.5h-115.088c-14.618 0-26.512 10.538-26.512 23.491v142.018c0 11.729 9.751 21.476 22.446 23.215v11.536c0 10.333 8.407 18.74 18.74 18.74h15.52c10.333 0 18.74-8.407 18.74-18.74v-11.26h119.554v11.26c0 10.333 8.407 18.74 18.74 18.74h15.52c10.333 0 18.74-8.407 18.74-18.74v-11.26h71.777c4.143 0 7.5-3.357 7.5-7.5s-3.357-7.5-7.5-7.5h-293.265c-6.241 0-11.512-3.889-11.512-8.491v-142.018c0-4.603 5.271-8.491 11.512-8.491h389.977c6.24 0 11.512 3.889 11.512 8.491v142.018c0 4.603-5.271 8.491-11.512 8.491h-61.6c-4.143 0-7.5 3.357-7.5 7.5s3.357 7.5 7.5 7.5h12.665v11.26c0 10.333 8.407 18.74 18.74 18.74h15.52c10.333 0 18.74-8.407 18.74-18.74v-11.536c12.695-1.739 22.446-11.487 22.446-23.215v-38.054h21.01v15.781c0 6.814 5.544 12.358 12.359 12.358h23.272c6.814 0 12.358-5.544 12.358-12.358v-29.079c.001-25.227-20.523-45.752-45.751-45.752zm-286.248-346.405h15v100.153h-15zm70 115.153v17h-125v-17zm-48.023 80.347h-31.519c1.017-3.717 2.979-7.333 5.741-10.382 8.148-8.995 19.167-10.213 24.348-5.704 3.723 3.239 4.248 9.709 1.43 16.086zm15.799 0c2.644-10.578.051-20.933-7.382-27.401-12.032-10.47-32.357-7.352-45.312 6.949-5.273 5.821-8.771 13.072-9.964 20.452h-30.118v-48.347h125v48.347zm15.224 271.5v11.26c0 2.062-1.678 3.74-3.74 3.74h-15.52c-2.062 0-3.74-1.678-3.74-3.74v-11.26zm-172.554 0v11.26c0 2.062-1.678 3.74-3.74 3.74h-15.52c-2.062 0-3.74-1.678-3.74-3.74v-11.26zm96.154-189v-21.5h61.8v21.5zm248.954 200.26c0 2.062-1.678 3.74-3.74 3.74h-15.52c-2.062 0-3.74-1.678-3.74-3.74v-11.26h23zm91.446-59.665h-17.99v-16.555c0-6.388-5.197-11.585-11.585-11.585h-24.425v-29.05h23.248c16.957 0 30.752 13.795 30.752 30.752z"/><path d="m211.427 323h-164.818c-9.158 0-16.609 7.451-16.609 16.609v95.781c0 9.159 7.451 16.61 16.609 16.61h164.817c9.158 0 16.609-7.451 16.609-16.609v-95.781c.001-9.159-7.45-16.61-16.608-16.61zm1.609 112.391c0 .888-.722 1.609-1.609 1.609h-164.818c-.888 0-1.609-.722-1.609-1.609v-95.781c0-.888.722-1.609 1.609-1.609h164.817c.888 0 1.609.722 1.609 1.609v95.781z"/><path d="m186.536 353h-56.804c-6.341 0-11.5 5.159-11.5 11.5v46c0 6.341 5.159 11.5 11.5 11.5h56.804c6.341 0 11.5-5.159 11.5-11.5v-46c0-6.341-5.159-11.5-11.5-11.5zm-3.5 54h-49.804v-39h49.804z"/><path d="m93.5 353h-22c-6.341 0-11.5 5.159-11.5 11.5v46c0 6.341 5.159 11.5 11.5 11.5h22c6.341 0 11.5-5.159 11.5-11.5v-46c0-6.341-5.159-11.5-11.5-11.5zm-3.5 54h-15v-39h15z"/></g></g><g/><g/><g/><g/><g/><g/><g/><g/><g/><g/><g/><g/><g/><g/><g/></svg>