<svg id="Layer_1" enable-background="new 0 0 512 512" viewBox="0 0 512 512" xmlns="http://www.w3.org/2000/svg"><path d="m415.97 250.021c-1.499-1.499-3.532-2.342-5.652-2.342s-4.153.843-5.652 2.342l-24.265 24.265c-7.973 7.974-12.361 18.609-12.354 29.95.006 11.326 4.396 21.941 12.354 29.884 7.967 7.967 18.592 12.355 29.917 12.355s21.95-4.389 29.911-12.35c7.965-7.948 12.355-18.563 12.361-29.89.006-11.341-4.382-21.977-12.355-29.95zm12.959 72.794c-4.947 4.947-11.557 7.672-18.611 7.672s-13.665-2.725-18.618-7.678c-4.94-4.93-7.662-11.528-7.666-18.582-.004-7.066 2.721-13.686 7.672-18.637l18.612-18.612 18.612 18.612c4.951 4.951 7.676 11.57 7.672 18.637-.004 7.054-2.726 13.653-7.673 18.588zm-33.408 60.134c-4.415 0-7.994 3.579-7.994 7.994v105.052h-351.014v-170.248h277.483c4.415 0 7.994-3.579 7.994-7.994s-3.579-7.994-7.994-7.994h-59.925v-19.303h57.232c4.415 0 7.994-3.579 7.994-7.994v-187.881c0-4.415-3.579-7.994-7.994-7.994h-37.332c-4.415 0-7.994 3.579-7.994 7.994v8.504h-37.503v-95.074c0-4.415-3.579-7.994-7.994-7.994h-44.844c-4.415 0-7.994 3.579-7.994 7.994v95.074h-37.472v-8.504c0-4.415-3.579-7.994-7.994-7.994h-37.332c-4.415 0-7.994 3.579-7.994 7.994v187.881c0 4.415 3.579 7.994 7.994 7.994h57.232v19.303h-113.556c-4.415 0-7.994 3.579-7.994 7.994v186.236c0 4.415 3.579 7.994 7.994 7.994h367.001c4.415 0 7.994-3.579 7.994-7.994v-113.046c0-4.415-3.579-7.994-7.994-7.994zm-157.436-73.19h-80.021v-19.303h80.021zm-54.453-293.754h28.856v87.08h-28.856zm-53.462 103.068h135.809v27.495h-135.809zm0 43.484h135.809v68.37h-23.065c-.722-5.403-2.18-10.811-4.357-15.959-5.019-11.844-13.292-21.563-23.296-27.368-10.751-6.239-22.228-7.314-32.298-3.042-16.193 6.831-24.33 25.728-21.09 46.369h-31.703zm96.569 68.37h-48.605c-3.036-14.252 1.352-27.55 11.06-31.646 5.342-2.268 11.75-1.506 18.043 2.146 7.028 4.079 12.924 11.104 16.598 19.773 1.336 3.162 2.302 6.441 2.904 9.727zm-133.901 43.541v-171.893h21.345v136.346c0 4.415 3.579 7.994 7.994 7.994h49.865c.008 0 .017.002.025.002.016 0 .032-.002.048-.002h101.859c4.415 0 7.994-3.579 7.994-7.994v-136.346h21.345v171.893zm317.48-58.536c-44.75 0-81.156 36.407-81.156 81.156 0 13.215 3.218 26.218 9.332 37.817l-2.531 9.465h-201.144c-4.415 0-7.994 3.579-7.994 7.994v117.014c0 4.415 3.579 7.994 7.994 7.994h226.914c4.415 0 7.994-3.579 7.994-7.994v-97.698l5.413-1.451c10.915 5.251 23.009 8.015 35.18 8.015 44.75 0 81.156-36.407 81.156-81.156s-36.408-81.156-81.158-81.156zm-56.579 245.452h-210.927v-69.58c24.379-10.55 51.491-7.932 71.78 7.217 2.047 1.529 4 3.001 5.872 4.412 14.9 11.233 25.667 19.349 38.642 21.641 2.425.429 4.895.647 7.451.647 11.044 0 23.703-4.101 41.4-13.183 11.066-5.691 26.455-7.017 45.781-3.996v52.842zm0-69.013c-21.658-3.039-39.485-1.047-53.086 5.946-35.946 18.447-41.91 13.951-70.564-7.649-1.89-1.425-3.861-2.911-5.93-4.456-23.162-17.293-53.402-21.37-81.346-11.569v-14.284h188.876l-2.623 9.812c-.737 2.758.052 5.7 2.072 7.719 1.519 1.518 3.559 2.34 5.651 2.34.689 0 1.385-.09 2.069-.273l14.881-3.989zm56.579-30.115c-10.641 0-21.203-2.626-30.545-7.596-1.165-.619-2.455-.937-3.754-.937-.693 0-1.389.091-2.07.273l-25.865 6.933 6.688-25.012c.55-2.057.256-4.249-.816-6.089-5.761-9.888-8.807-21.209-8.807-32.741 0-35.934 29.235-65.168 65.169-65.168s65.168 29.234 65.168 65.168-29.234 65.169-65.168 65.169zm-300.303-9.892c0 4.415-3.579 7.994-7.994 7.994h-6.604c-4.415 0-7.994-3.579-7.994-7.994s3.579-7.994 7.994-7.994h6.604c4.416 0 7.994 3.579 7.994 7.994zm-33.363 1.446c0 4.415-3.579 7.994-7.994 7.994h-6.577c-4.415 0-7.994-3.579-7.994-7.994s3.579-7.994 7.994-7.994h6.577c4.415-.001 7.994 3.579 7.994 7.994zm33.363 23.187c0 4.415-3.579 7.994-7.994 7.994h-6.604c-4.415 0-7.994-3.579-7.994-7.994s3.579-7.994 7.994-7.994h6.604c4.416 0 7.994 3.579 7.994 7.994zm-33.363 1.445c0 4.415-3.579 7.994-7.994 7.994h-6.577c-4.415 0-7.994-3.579-7.994-7.994s3.579-7.994 7.994-7.994h6.577c4.415 0 7.994 3.579 7.994 7.994zm33.363 23.188c0 4.415-3.579 7.994-7.994 7.994h-6.604c-4.415 0-7.994-3.579-7.994-7.994s3.579-7.994 7.994-7.994h6.604c4.416 0 7.994 3.579 7.994 7.994zm-33.363 1.445c0 4.415-3.579 7.994-7.994 7.994h-6.577c-4.415 0-7.994-3.579-7.994-7.994s3.579-7.994 7.994-7.994h6.577c4.415 0 7.994 3.579 7.994 7.994z"/></svg>