<svg id="Capa_1" enable-background="new 0 0 512 512" height="512" viewBox="0 0 512 512" width="512" xmlns="http://www.w3.org/2000/svg"><g><path d="m88.135 108.788h9.438c4.142 0 7.5-3.358 7.5-7.5s-3.358-7.5-7.5-7.5h-9.438c-1.423 0-2.581-1.158-2.581-2.581v-8.434h12.019c4.142 0 7.5-3.358 7.5-7.5s-3.358-7.5-7.5-7.5h-12.019v-8.435c0-1.423 1.158-2.581 2.581-2.581h9.438c4.142 0 7.5-3.358 7.5-7.5s-3.358-7.5-7.5-7.5h-9.438c-9.694 0-17.581 7.887-17.581 17.581v31.869c0 9.694 7.886 17.581 17.581 17.581z"/><path d="m48.158 82.443c8.938-1.64 15.738-9.477 15.738-18.887v-2.581c0-10.597-8.616-19.217-19.207-19.217h-14.307c-4.142 0-7.5 3.358-7.5 7.5v52.03c0 4.142 3.358 7.5 7.5 7.5 4.143 0 7.5-3.358 7.5-7.5v-7.908l13.211 13.211c2.93 2.929 7.678 2.929 10.607 0s2.929-7.678 0-10.606zm-10.276-25.685h6.808c2.319 0 4.207 1.892 4.207 4.217v2.581c0 2.325-1.888 4.217-4.207 4.217h-6.808z"/><path d="m300.478 108.788c4.143 0 7.5-3.358 7.5-7.5v-7.909l13.213 13.212c2.927 2.929 7.677 2.929 10.607 0 2.929-2.929 2.929-7.678-.001-10.606l-13.543-13.543c8.94-1.643 15.74-9.478 15.74-18.886v-2.581c0-10.597-8.621-19.217-19.218-19.217h-14.298c-4.143 0-7.5 3.358-7.5 7.5v52.03c0 4.142 3.358 7.5 7.5 7.5zm7.5-52.03h6.798c2.325 0 4.218 1.892 4.218 4.217v2.581c0 2.325-1.893 4.217-4.218 4.217h-6.798z"/><path d="m131.328 93.788h-11.165c-4.143 0-7.5 3.358-7.5 7.5s3.357 7.5 7.5 7.5h11.165c8.736 0 15.844-7.107 15.844-15.844v-9.328c0-8.736-7.107-15.843-15.844-15.843h-2.821c-.465 0-.844-.378-.844-.844v-9.328c0-.465.379-.844.844-.844h11.165c4.143 0 7.5-3.358 7.5-7.5s-3.357-7.5-7.5-7.5h-11.165c-8.736 0-15.844 7.107-15.844 15.844v9.328c0 8.736 7.107 15.844 15.844 15.844h2.821c.465 0 .844.378.844.843v9.328c0 .465-.379.844-.844.844z"/><path d="m160.415 56.758h5.503v44.53c0 4.142 3.357 7.5 7.5 7.5 4.142 0 7.5-3.358 7.5-7.5v-44.53h5.512c4.143 0 7.5-3.358 7.5-7.5s-3.357-7.5-7.5-7.5h-26.015c-4.143 0-7.5 3.358-7.5 7.5s3.357 7.5 7.5 7.5z"/><path d="m455.603 56.758h5.502v44.53c0 4.142 3.357 7.5 7.5 7.5 4.142 0 7.5-3.358 7.5-7.5v-44.53h5.513c4.143 0 7.5-3.358 7.5-7.5s-3.357-7.5-7.5-7.5h-26.015c-4.143 0-7.5 3.358-7.5 7.5s3.358 7.5 7.5 7.5z"/><path d="m194.964 108.788c3.039 0 5.899-1.862 7.027-4.877.043-.115 1.253-3.344 3.05-8.137h18.864c1.797 4.793 3.007 8.022 3.05 8.137h.001c1.446 3.873 5.761 5.851 9.643 4.404 3.882-1.446 5.857-5.765 4.41-9.646-.112-.301-19.454-51.884-19.513-52.039-2.395-6.41-11.601-6.543-14.049 0-.152.404-19.498 52.003-19.512 52.039-1.828 4.913 1.828 10.119 7.029 10.119zm15.701-28.013c2.761-7.363 3.684-9.824 3.808-10.155.618 1.649 2.703 7.209 3.808 10.155z"/><path d="m347.708 108.79c3.03 0 5.885-1.851 7.018-4.854.012-.032 1.234-3.29 3.06-8.161h18.872l3.056 8.147c1.456 3.878 5.778 5.843 9.657 4.388 3.878-1.455 5.842-5.778 4.388-9.656-.421-1.121-17.937-47.808-19.289-51.418-3.884-8.278-12.224-6.095-14.276-.605-.156.417-19.327 51.545-19.504 52.015-1.856 4.93 1.818 10.144 7.018 10.144zm15.702-28.015c1.275-3.399 2.573-6.863 3.809-10.159l3.811 10.159z"/><path d="m264.193 108.788c11.311 0 20.512-9.202 20.512-20.513v-39.017c0-4.142-3.357-7.5-7.5-7.5s-7.5 3.358-7.5 7.5v39.017c0 3.04-2.473 5.513-5.512 5.513-3.034 0-5.503-2.473-5.503-5.513v-39.017c0-4.142-3.357-7.5-7.5-7.5s-7.5 3.358-7.5 7.5v39.017c0 11.31 9.198 20.513 20.503 20.513z"/><path d="m409.327 108.788c4.143 0 7.5-3.358 7.5-7.5v-20.259l11.807 23.613c1.291 2.582 3.915 4.147 6.706 4.146 4.135 0 7.502-3.353 7.502-7.501v-52.03c0-4.142-3.357-7.5-7.5-7.5s-7.5 3.358-7.5 7.5v20.259l-11.807-23.613c-1.556-3.111-5.045-4.744-8.431-3.945s-5.777 3.821-5.777 7.299v52.03c0 4.143 3.358 7.501 7.5 7.501z"/><path d="m470.111 150.545c23.098 0 41.889-18.791 41.889-41.888v-66.769c0-23.097-18.791-41.888-41.889-41.888h-428.222c-23.098 0-41.889 18.791-41.889 41.888v66.769c0 23.097 18.791 41.888 41.889 41.888h18.354v30.182h-12.752c-26.186 0-47.491 21.305-47.491 47.491v236.29c0 26.187 21.305 47.492 47.491 47.492h417.018c26.186 0 47.491-21.305 47.491-47.491v-236.29c0-26.187-21.305-47.491-47.491-47.491h-12.751v-30.182h18.353zm-455.111-41.888v-66.769c0-14.826 12.062-26.888 26.889-26.888h428.223c14.826 0 26.888 12.062 26.888 26.888v66.769c0 14.826-12.062 26.888-26.889 26.888-11.379 0-416.819 0-428.223 0-14.826 0-26.888-12.062-26.888-26.888zm391.576 72.07v-30.182h30.182v30.182zm-331.334-30.182h30.182v30.182h-30.182zm-60.151 316.275h74.089c4.143 0 7.5-3.357 7.5-7.5s-3.357-7.5-7.5-7.5h-74.18v-195.85h482v195.849h-165.728v-98.929c0-28.495-23.183-51.678-51.678-51.678h-47.189c-28.495 0-51.678 23.183-51.678 51.678v98.931h-55.667c-4.143 0-7.5 3.357-7.5 7.5s3.357 7.5 7.5 7.5h55.668v30.179h-133.237c-17.138 0-31.209-13.34-32.4-30.18zm264.504-150.608c20.225 0 36.678 16.453 36.678 36.678v144.11h-52.773v-180.788zm-83.868 36.678c0-20.225 16.453-36.678 36.678-36.678h16.095v180.788h-52.773c.005-56.241 0-143.745 0-144.11zm268.782 144.11h-133.237v-30.182h165.636c-1.189 16.841-15.261 30.182-32.399 30.182zm32.491-268.782v12.751h-482v-12.751c0-17.916 14.575-32.491 32.491-32.491 72.383.003 37.906.003 237.398.003 4.143 0 7.5-3.358 7.5-7.5s-3.357-7.5-7.5-7.5h-164.465v-30.185h271.152v30.185h-70.806c-4.142 0-7.5 3.358-7.5 7.5s3.358 7.5 7.5 7.5c2.095 0 140.9-.003 143.739-.003 17.916 0 32.491 14.576 32.491 32.491z"/><path d="m286.121 429.167c4.143 0 7.5-3.357 7.5-7.5v-7.53c0-4.143-3.357-7.5-7.5-7.5s-7.5 3.357-7.5 7.5v7.53c0 4.143 3.357 7.5 7.5 7.5z"/><path d="m225.879 406.637c-4.143 0-7.5 3.357-7.5 7.5v7.53c0 4.143 3.357 7.5 7.5 7.5s7.5-3.357 7.5-7.5v-7.53c0-4.143-3.358-7.5-7.5-7.5z"/><path d="m361.424 429.167h105.425c4.143 0 7.5-3.357 7.5-7.5s-3.357-7.5-7.5-7.5h-7.561v-40.382c4.817-5.461 7.53-12.534 7.53-19.892v-23.093c0-16.315-13.273-29.589-29.589-29.589-14.674 0-31.513 0-46.186 0-16.315 0-29.589 13.273-29.589 29.589v23.093c0 7.361 2.716 14.436 7.53 19.893v40.381h-7.561c-4.142 0-7.5 3.357-7.5 7.5.001 4.143 3.358 7.5 7.501 7.5zm22.56-46.154c11.031 2.863 22.621-.711 30.152-9.274 7.525 8.555 19.11 12.14 30.151 9.274v31.154h-60.304v-31.154zm67.834-52.212v23.093c0 8.377-6.83 15.091-15.091 15.091-8.321 0-15.091-6.77-15.091-15.091v-37.682h15.593c8.044 0 14.589 6.545 14.589 14.589zm-75.364 0c0-8.044 6.545-14.589 14.589-14.589h15.594v37.682c0 8.321-6.77 15.091-15.091 15.091-8.356 0-15.092-6.808-15.092-15.091z"/><path d="m150.576 429.167c4.143 0 7.5-3.357 7.5-7.5s-3.357-7.5-7.5-7.5h-7.561v-40.382c4.817-5.461 7.53-12.534 7.53-19.892v-23.093c0-16.315-13.273-29.589-29.589-29.589-14.674 0-31.513 0-46.187 0-16.315 0-29.589 13.273-29.589 29.589v23.093c0 7.361 2.716 14.436 7.53 19.893v40.381h-7.561c-4.143 0-7.5 3.357-7.5 7.5s3.357 7.5 7.5 7.5zm-15.03-98.366v23.093c0 8.378-6.831 15.091-15.092 15.091-8.321 0-15.091-6.77-15.091-15.091v-37.682h15.594c8.044 0 14.589 6.545 14.589 14.589zm-75.364 0c0-8.044 6.545-14.589 14.589-14.589h15.593v37.682c0 8.321-6.77 15.091-15.091 15.091-8.355 0-15.091-6.808-15.091-15.091zm7.53 52.212c11.031 2.863 22.621-.713 30.151-9.274 7.525 8.556 19.111 12.14 30.152 9.274v31.154h-60.303z"/></g></svg>