<svg id="Layer_1" viewBox="0 0 512 512" xmlns="http://www.w3.org/2000/svg" data-name="Layer 1"><path d="m73.811 300.271c33.547 0 60.839-27.28 60.839-60.812s-27.292-60.84-60.839-60.84-60.811 27.292-60.811 60.84 27.28 60.812 60.811 60.812zm0-105.651c24.725 0 44.839 20.115 44.839 44.84s-20.115 44.812-44.839 44.812-44.811-20.103-44.811-44.812 20.102-44.84 44.811-44.84zm-21.352 33.019c0-8.291 5.533-15.396 13.352-18.338v-.74c0-4.418 3.582-8 8-8s8 3.582 8 8v.721c4.66 1.732 8.584 4.954 10.977 9.244 2.152 3.858.77 8.731-3.089 10.884s-8.731.77-10.884-3.089c-.637-1.141-2.33-2.474-5.004-2.474-2.851 0-5.352 1.772-5.352 3.792 0 2.173 0 2.507 6.997 3.978 6.396 1.345 19.706 4.143 19.706 19.636 0 8.303-5.533 15.418-13.352 18.364v.714c0 4.418-3.582 8-8 8s-8-3.582-8-8v-.699c-4.655-1.737-8.578-4.966-10.977-9.264-2.153-3.858-.771-8.731 3.087-10.885 3.857-2.153 8.731-.771 10.885 3.087.695 1.246 2.513 2.504 5.005 2.504 3.154 0 5.352-2.014 5.352-3.821 0-2.173 0-2.507-6.997-3.978-6.396-1.345-19.706-4.143-19.706-19.636zm444.847-107.455-56.1-71.861c-1.516-1.942-3.842-3.077-6.306-3.077s-4.79 1.135-6.306 3.077l-56.1 71.861c-1.882 2.41-2.225 5.683-.883 8.431 1.341 2.749 4.131 4.492 7.189 4.492h12.467v317.649h-33.069v-147.004c0-4.418-3.582-8-8-8h-71.294c-4.418 0-8 3.582-8 8v147.004h-33.069v-222.89c0-4.418-3.582-8-8-8h-71.293c-4.418 0-8 3.582-8 8v222.89h-33.069v-111.116c0-4.418-3.582-8-8-8h-71.295c-4.418 0-8 3.582-8 8v111.116h-9.178c-4.418 0-8 3.582-8 8s3.582 8 8 8h466.74c4.418 0 8-3.582 8-8s-3.582-8-8-8h-9.178v-317.65h12.438c3.058 0 5.849-1.744 7.189-4.492 1.341-2.748.999-6.021-.883-8.431zm-210.402 191.568h55.294v139.004h-55.294zm-120.363-75.886h55.293v214.89h-55.293zm-120.363 111.774h55.294v103.116h-55.294zm361.089 103.116v-325.65c0-4.418-3.582-8-8-8h-4.072l39.705-50.86 39.705 50.86h-4.044c-4.418 0-8 3.582-8 8v325.649h-55.294zm-213.093-262.259c33.547 0 60.839-27.28 60.839-60.811s-27.292-60.811-60.839-60.811-60.812 27.279-60.812 60.811 27.28 60.811 60.812 60.811zm0-105.622c24.725 0 44.839 20.102 44.839 44.811s-20.115 44.811-44.839 44.811-44.812-20.103-44.812-44.811 20.103-44.811 44.812-44.811zm-21.352 33.018c0-8.302 5.534-15.417 13.352-18.364v-.714c0-4.418 3.582-8 8-8s8 3.582 8 8v.697c4.644 1.73 8.562 4.942 10.965 9.217 2.165 3.852.797 8.729-3.054 10.894-3.854 2.165-8.729.797-10.894-3.054-.698-1.242-2.52-2.496-5.017-2.496-3.154 0-5.352 2.014-5.352 3.821 0 2.161 0 2.493 6.993 3.966 6.398 1.349 19.71 4.153 19.71 19.647 0 8.29-5.533 15.396-13.351 18.337v.712c0 4.418-3.582 8-8 8s-8-3.582-8-8v-.697c-4.645-1.73-8.563-4.942-10.965-9.217-2.165-3.852-.797-8.729 3.055-10.894 3.851-2.165 8.729-.797 10.894 3.055.698 1.242 2.521 2.496 5.017 2.496 2.851 0 5.351-1.772 5.351-3.792 0-2.179 0-2.514-7.009-3.991-6.393-1.347-19.694-4.15-19.694-19.623zm141.715 148.519c33.547 0 60.84-27.292 60.84-60.84s-27.292-60.811-60.84-60.811-60.811 27.279-60.811 60.811 27.28 60.84 60.811 60.84zm0-105.651c24.725 0 44.84 20.102 44.84 44.811s-20.115 44.84-44.84 44.84-44.811-20.115-44.811-44.84 20.102-44.811 44.811-44.811zm-21.352 33.019c0-8.302 5.533-15.418 13.352-18.364v-.713c0-4.418 3.582-8 8-8s8 3.582 8 8v.698c4.656 1.738 8.579 4.967 10.978 9.266 2.152 3.858.77 8.731-3.089 10.884-3.86 2.152-8.731.77-10.884-3.089-.644-1.154-2.341-2.503-5.005-2.503-3.154 0-5.352 2.014-5.352 3.821 0 2.172 0 2.506 7.009 3.978 6.402 1.344 19.722 4.141 19.722 19.636 0 8.294-5.546 15.402-13.38 18.342v.736c0 4.418-3.582 8-8 8s-8-3.582-8-8v-.721c-4.66-1.732-8.583-4.954-10.977-9.244-2.152-3.858-.77-8.731 3.088-10.884 3.858-2.152 8.731-.77 10.884 3.089.687 1.231 2.501 2.475 5.004 2.475 2.866 0 5.38-1.772 5.38-3.793 0-2.172 0-2.506-7.01-3.978-6.401-1.344-19.722-4.141-19.722-19.636z"/></svg>