<svg id="Layer_1" height="512" viewBox="0 0 66 66" width="512" xmlns="http://www.w3.org/2000/svg"><g><g><g><g><g><g><g><g><g style="fill:none;stroke:#000;stroke-linecap:round;stroke-linejoin:round;stroke-miterlimit:10;stroke-width:1.5"><path d="m64.1 10.2c.5 3.6-.8 6.9-3.1 9.1-1.2 1.1-1.8 2.6-1.8 4.2 0 1-.8 1.8-1.7 1.8h-5.9c-1 0-1.7-.8-1.7-1.8 0-1.6-.6-3.1-1.7-4.1-2.1-1.8-3.4-4.6-3.4-7.6 0-5.9 5-10.6 10.9-10 4.2.5 7.7 4 8.4 8.4z"/><path d="m56.5 25.3v2.3c0 1.2-.9 2.2-2.1 2.2-1.2 0-2.1-1-2.1-2.2v-2.3"/></g></g></g></g></g></g></g></g><g><g><g><g><g><g><g><g><path d="m59.4 13.4c0 .1-.1.2-.1.2-.1.3-.1.7.1 1 .3.4.3 1-.1 1.3l-.3.5c-.4.4-.9.4-1.3.1-.3-.2-.7-.3-1-.1-.1 0-.2.1-.2.1-.3.1-.6.4-.6.8-.1.5-.5.9-1 .9h-.5c-.5 0-.9-.4-1-.9-.1-.4-.3-.7-.6-.8-.1 0-.2-.1-.2-.1-.3-.1-.7-.1-1 .1-.4.3-1 .3-1.3-.1l-.7-.4c-.4-.4-.4-.9-.1-1.3.2-.3.3-.7.1-1 0-.1-.1-.2-.1-.2-.1-.3-.4-.6-.8-.6-.5-.1-.9-.5-.9-1v-.5c0-.5.4-.9.9-1 .4-.1.7-.3.8-.6 0-.1.1-.2.1-.2.1-.3.1-.7-.1-1-.3-.4-.3-1 .1-1.3l.4-.4c.4-.4.9-.4 1.3-.1.3.2.7.3 1 .1.1 0 .2-.1.2-.1.3-.1.6-.4.6-.8.1-.5.5-.9 1-.9h.5c.5 0 .9.4 1 .9.1.4.3.7.6.8.1 0 .2.1.2.1.3.1.7.1 1-.1.4-.3 1-.3 1.3.1l.6.1c.4.4.4.9.1 1.3-.2.3-.3.7-.1 1 0 .1.1.2.1.2.1.3.4.6.8.6.5.1.9.5.9 1v.5c0 .5-.4.9-.9 1-.3.2-.7.5-.8.8z" style="fill:none;stroke:#000;stroke-linecap:round;stroke-linejoin:round;stroke-miterlimit:10;stroke-width:1.5"/></g><circle cx="54.4" cy="11.5" r="2.2" style="fill:none;stroke:#000;stroke-linecap:round;stroke-linejoin:round;stroke-miterlimit:10;stroke-width:1.5"/></g></g></g></g></g></g></g><path d="m5.8 50.2v14h53.4v-14" style="fill:none;stroke:#000;stroke-linecap:round;stroke-linejoin:round;stroke-miterlimit:10;stroke-width:1.5"/><path d="m1.8 46.8h61.4v3.4h-61.4z" style="fill:none;stroke:#000;stroke-linecap:round;stroke-linejoin:round;stroke-miterlimit:10;stroke-width:1.5"/><g style="fill:none;stroke:#000;stroke-linecap:round;stroke-linejoin:round;stroke-miterlimit:10;stroke-width:1.5"><path d="m35.6 26.1-3.9-1.4c-.5-.2-.8-.8-.6-1.3l1.8-5.1c.2-.5.8-.8 1.3-.6l3.9 1.4c.5.2.8.8.6 1.3l-1.8 5.1c-.2.5-.7.8-1.3.6z"/><path d="m33.7 25.5 1.5-4.3"/><path d="m33.7 25.5-2.3 6.4"/></g><g><path d="m10.9 46.8v-12.8c-2 2-4 5.3-4.3 8.3-.1.9-.9 1.6-1.9 1.5-.1 0-.2 0-.3-.1-.8-.2-1.3-1-1.2-1.8.6-5.4 4.3-11.4 7.7-12.6.5-.2 2.3 0 2.3 0v-3.2l2.5 1.4.1 1.8h2.7l.1-1.8 2.5-1.4v3.2s1.7-.2 2.3 0c1.4.5 4.4 3.8 4.4 3.8l3.6-2.4c.8-.5 1.8-.3 2.4.5.5.8.3 1.8-.5 2.4l-4.6 3.1c-.3.2-.6.3-.9.3-.4 0-.7-.1-1-.3l-3.3-3v13.2" style="fill:none;stroke:#000;stroke-linecap:round;stroke-linejoin:round;stroke-miterlimit:10;stroke-width:1.5"/></g><g style="fill:none;stroke:#000;stroke-linecap:round;stroke-linejoin:round;stroke-miterlimit:10;stroke-width:1.5"><path d="m23.2 16.3c.1.5.2.9.2 1.4 0 3.4-2.8 6.2-6.2 6.2s-6.2-2.8-6.2-6.2c0-.5.1-1 .2-1.4"/><path d="m23.2 16.3s-1.5-2.4-1-4.9c.4-2.1 4.7-2.2 4.6-4.3-.1-1.2-1.4-2.2-3.2-3-4.1-1.8-8.9-1.8-13.1 0-1.7.8-3.1 1.7-3.2 3-.1 2.1 4.2 2.2 4.6 4.3.5 2.5-1 4.9-1 4.9 4.3-2.1 8.3-2.1 12.3 0z"/><path d="m12.2 12.6c3.3-1.4 6.7-1.4 10 0"/><path d="m17.1 2.7v2.6"/><path d="m21.3 3.3-.8 2"/><path d="m25.4 5.1-1.6 1.2"/><path d="m13 3.3.8 2"/><path d="m8.9 5.1 1.6 1.2"/><path d="m10.9 29.4 4.5 6.8"/><path d="m23.4 29.4-4.5 6.8"/><path d="m13.4 46.8v-10.6h7.5v10.6"/><path d="m57 46.8v-3.3h-21.2v3.3"/><path d="m53.4 43.5c1.1 0 2-.9 2-2v-4.3h-13.2v4.3c0 1.1.9 2 2 2"/><path d="m42.2 39.3h-5.7"/></g></g></svg>