<svg id="Capa_1" enable-background="new 0 0 512 512" height="512" viewBox="0 0 512 512" width="512" xmlns="http://www.w3.org/2000/svg"><g><path d="m14.76 323.267h14.104c9.672.008 19.088 1.679 27.922 4.876v59.235c0 21.202 21.732 40.417 61.194 54.103 36.98 12.826 85.997 19.89 138.021 19.89 38.016 0 74.886-3.813 106.624-11.028 4.039-.918 6.569-4.937 5.651-8.976-.918-4.04-4.942-6.565-8.976-5.651-30.665 6.971-66.386 10.655-103.3 10.655-108.561 0-184.215-31.09-184.215-58.992v-51.984c5.392 3.329 10.434 7.311 15.027 11.904 2.931 2.929 7.678 2.928 10.607 0 2.929-2.93 2.929-7.678 0-10.607-7.61-7.609-16.262-13.8-25.635-18.438 0-14.468 0-35.18 0-50.12 10.372 9.452 25.95 17.929 46.194 24.95 36.98 12.825 85.997 19.889 138.021 19.889s101.04-7.063 138.021-19.889c20.244-7.021 35.822-15.498 46.194-24.95v50.12c-9.373 4.638-18.025 10.828-25.635 18.438-2.929 2.93-2.929 7.678 0 10.607 2.931 2.929 7.678 2.928 10.607 0 4.593-4.593 9.635-8.575 15.027-11.904v51.984c0 13.312-16.938 27.259-46.473 38.264-3.881 1.447-5.855 5.766-4.409 9.647 1.447 3.883 5.768 5.854 9.647 4.409 36.789-13.709 56.234-31.801 56.234-52.32v-59.235c8.833-3.198 18.25-4.869 27.922-4.876 2.886-.002-7.294 0 14.104 0 8.139 0 14.76-6.621 14.76-14.76v-36.607c0-8.139-6.621-14.76-14.76-14.76-15.191 0-14.292-.001-14.465.001-9.415.041-18.644 1.421-27.561 4.115v-22.277c0-21.202-21.732-40.417-61.194-54.104-74.254-25.752-191.235-26.317-267.593-2.764-3.958 1.222-6.177 5.42-4.956 9.378s5.421 6.173 9.378 4.956c34.406-10.614 78.853-16.459 125.15-16.459 108.561 0 184.215 31.09 184.215 58.992 0 2.907-.822 5.848-2.416 8.786-4.611-5.071-9.495-14.777-19.709-19.861-9.157-4.559-20.085-2.277-28.141-4.951-6.745-2.24-14.768-11.395-26.223-13.44-6.093-6.759-13.393-11.28-21.752-11.28-6.453 0-12.316 2.694-17.492 7.067-4.13-1.948-8.703-3.82-13.774-4.331-10.434-1.054-20.022 4.336-27.629 3.961-7.115-.345-16.353-6.653-27.079-6.653-10.728 0-19.957 6.308-27.082 6.653-7.661.372-17.171-5.014-27.63-3.96-5.069.511-9.641 2.383-13.77 4.33-5.176-4.373-11.039-7.067-17.492-7.067-8.36 0-15.66 4.522-21.753 11.281-11.496 2.054-19.447 11.189-26.222 13.439-8.155 2.707-18.946.373-28.141 4.95-10.203 5.079-15.113 14.805-19.71 19.862-1.594-2.937-2.416-5.879-2.416-8.786 0-9.938 9.756-20.551 27.471-29.882 3.665-1.931 5.071-6.466 3.141-10.131-1.93-3.664-6.466-5.071-10.131-3.141-29.325 15.447-35.48 31.993-35.48 43.153v22.275c-8.79-2.655-18.163-4.116-27.987-4.116-8.436 0-5.634 0-14.038 0-8.139 0-14.76 6.621-14.76 14.76v36.607c.003 8.142 6.624 14.763 14.763 14.763zm482.24-15h-13.456v-36.127h13.456zm-28.456-34.816c0 37.843-.006 35.475.012 35.908-4.534.682-8.99 1.681-13.341 2.985v-35.285c4.352-1.584 8.803-2.788 13.329-3.608zm-100.3-21.44c-2.955.776-5.93 1.388-11.499 1.388-12.958 0-13.974-4-29.539-4-4.759 0-8.246.387-11.087.916 4.692-17.921 16.23-37.081 25.855-37.081 12.061 0 23.321 26.361 26.27 38.777zm-198.218-38.777c9.625 0 21.163 19.16 25.855 37.081-2.841-.529-6.328-.916-11.087-.916-15.755 0-16.314 4-29.539 4-5.569 0-8.544-.613-11.499-1.388 2.89-12.171 14.139-38.777 26.27-38.777zm-69.43 28.098c5.341-2.657 15.98-.756 26.181-4.142 2.559-.849 4.918-2.06 7.166-3.415-2.157 5.4-3.821 10.797-4.96 15.689-1.018-.042-2.103-.066-3.264-.066-4.143 0-7.5 3.357-7.5 7.5s3.357 7.5 7.5 7.5c12.956 0 13.973 4 29.536 4 15.755 0 16.314-4 29.539-4 13.287 0 13.794 4 29.54 4 4.143 0 7.5-3.357 7.5-7.5s-3.357-7.5-7.5-7.5c-.874 0-1.685-.015-2.441-.044-2.05-11.28-6.939-25.147-14.149-36.15 1.739-.664 3.425-1.146 5.051-1.31 6.757-.683 16.362 4.515 26.852 4.019 10.166-.495 19.112-6.636 26.354-6.636 7.211 0 16.225 6.143 26.351 6.636 10.404.499 20.146-4.696 26.852-4.02 1.626.164 3.313.647 5.053 1.311-7.21 11.003-12.098 24.87-14.148 36.15-.756.028-1.566.044-2.441.044-4.143 0-7.5 3.357-7.5 7.5s3.357 7.5 7.5 7.5c15.859 0 16.182-4 29.54-4 12.958 0 13.974 4 29.539 4 15.753 0 16.312-4 29.536-4 4.143 0 7.5-3.357 7.5-7.5s-3.357-7.5-7.5-7.5c-1.161 0-2.245.023-3.264.066-1.14-4.893-2.804-10.29-4.96-15.69 2.248 1.356 4.608 2.566 7.167 3.416 10.027 3.328 20.953 1.54 26.181 4.143 6.817 3.394 10.575 11.865 16.438 17.723-21.189 17.267-68.239 32.558-130.531 37.358-.994-3.065-2.122-6.11-3.374-9.105-1.599-3.821-5.991-5.62-9.813-4.026-3.821 1.599-5.624 5.991-4.026 9.813.592 1.415 1.151 2.842 1.678 4.278-16.594.778-34.172.815-51.573-.001 6.574-18.073 17.295-31.619 25.796-31.619 2.1 0 4.36.808 6.721 2.4 3.433 2.316 8.094 1.412 10.412-2.021 2.317-3.434 1.412-8.095-2.021-10.412-4.884-3.296-9.968-4.967-15.111-4.967-20.929 0-35.013 26.41-41.302 45.66-62.296-4.799-109.35-20.09-130.541-37.359 5.882-5.88 9.611-14.325 16.436-17.723zm-43.811 71.011c-4.351-1.304-8.807-2.302-13.341-2.985.018-.461.012 4.679.012-35.908 4.526.82 8.977 2.025 13.329 3.608zm-41.785-40.203h13.456v36.127h-13.456z"/><circle cx="236.516" cy="233.663" r="7.5"/><circle cx="281.352" cy="241.163" r="7.5"/><path d="m269.5 58.13c0-4.143-3.357-7.5-7.5-7.5s-7.5 3.357-7.5 7.5c0 18.551-12 19.799-12 43.342 0 23.501 12 24.859 12 43.341 0 4.143 3.357 7.5 7.5 7.5s7.5-3.357 7.5-7.5c0-12.773-3.687-19.431-6.938-25.305-2.828-5.105-5.062-9.14-5.062-18.036 0-18.551 12-19.799 12-43.342z"/><path d="m319.771 58.13c0-4.143-3.357-7.5-7.5-7.5s-7.5 3.357-7.5 7.5c0 18.551-12 19.799-12 43.342 0 23.501 12 24.859 12 43.341 0 4.143 3.357 7.5 7.5 7.5s7.5-3.357 7.5-7.5c0-12.773-3.687-19.431-6.938-25.305-2.828-5.105-5.062-9.14-5.062-18.036 0-18.551 12-19.799 12-43.342z"/><path d="m219.229 58.13c0-4.143-3.357-7.5-7.5-7.5s-7.5 3.357-7.5 7.5c0 18.551-12 19.799-12 43.342 0 23.501 12 24.859 12 43.341 0 4.143 3.357 7.5 7.5 7.5s7.5-3.357 7.5-7.5c0-12.773-3.687-19.431-6.938-25.305-2.828-5.105-5.062-9.14-5.062-18.036 0-18.551 12-19.799 12-43.342z"/></g></svg>