<svg id="Layer_1" viewBox="0 0 64 64" xmlns="http://www.w3.org/2000/svg" data-name="Layer 1"><path d="m3 62h32a1 1 0 0 0 1-1v-14a1 1 0 0 0 -1-1h-7v-13a1 1 0 0 0 -1-1h-16a1 1 0 0 0 -1 1v13h-7a1 1 0 0 0 -1 1v14a1 1 0 0 0 1 1zm31-2h-14v-12h4v5a1 1 0 0 0 1 1h4a1 1 0 0 0 1-1v-5h4zm-8-12h2v4h-2zm-8-14h2v4h-2zm-6 0h4v5a1 1 0 0 0 1 1h4a1 1 0 0 0 1-1v-5h4v12h-14zm-2 14h2v4h-2zm-6 0h4v5a1 1 0 0 0 1 1h4a1 1 0 0 0 1-1v-5h4v12h-14z"/><path d="m61 2h-38a1 1 0 0 0 -1 1v3h-3a1 1 0 0 0 -1 1v23h2v-22h36v52h-18v2h19a1 1 0 0 0 1-1v-3h3a1 1 0 0 0 1-1v-54a1 1 0 0 0 -1-1zm-1 54h-2v-49a1 1 0 0 0 -1-1h-33v-2h36z"/><path d="m38 10a10 10 0 1 0 10 10 10 10 0 0 0 -10-10zm4 9a24.47 24.47 0 0 0 -.24-2.74 9.72 9.72 0 0 0 2.4-1.38 7.9 7.9 0 0 1 1.77 4.12zm-1.22-6.5a8.34 8.34 0 0 1 1.89 1 8.58 8.58 0 0 1 -1.31.76 11.35 11.35 0 0 0 -.6-1.76zm-1.33 2.36a8.08 8.08 0 0 1 -2.86 0c.46-1.86 1.11-2.86 1.41-2.86s1 1 1.43 2.86zm-4.77-.6a8.58 8.58 0 0 1 -1.31-.76 8.34 8.34 0 0 1 1.89-1 11.35 11.35 0 0 0 -.6 1.76zm.58 13.24a8.34 8.34 0 0 1 -1.89-1 8.58 8.58 0 0 1 1.31-.76 11.35 11.35 0 0 0 .56 1.76zm1.33-2.36a8.08 8.08 0 0 1 2.86 0c-.45 1.86-1.15 2.86-1.45 2.86s-.95-1-1.43-2.86zm4.77.6a7.83 7.83 0 0 1 1.31.76 8.34 8.34 0 0 1 -1.89 1 11.35 11.35 0 0 0 .56-1.76zm-1.56-2.56a10.36 10.36 0 0 0 -3.6 0c-.08-.66-.15-1.38-.18-2.18h4c-.02.8-.14 1.52-.22 2.18zm-3.8-4.18c0-.8.1-1.52.18-2.18a9.09 9.09 0 0 0 3.6 0c.08.66.15 1.38.18 2.18zm-4.16-4.12a10.1 10.1 0 0 0 2.4 1.38 24.47 24.47 0 0 0 -.24 2.74h-4a7.9 7.9 0 0 1 1.86-4.12zm-1.77 6.12h4a24.47 24.47 0 0 0 .24 2.74 9.9 9.9 0 0 0 -2.4 1.38 7.9 7.9 0 0 1 -1.84-4.12zm14.07 4.12a10.1 10.1 0 0 0 -2.4-1.38 24.47 24.47 0 0 0 .26-2.74h4a7.9 7.9 0 0 1 -1.86 4.12z"/><path d="m30 32h24v2h-24z"/><path d="m30 36h24v2h-24z"/><path d="m30 40h24v2h-24z"/><path d="m38 44h16v2h-16z"/><path d="m38 48h16v2h-16z"/><path d="m38 52h16v2h-16z"/><path d="m38 56h16v2h-16z"/></svg>