<svg id="Layer_1" enable-background="new 0 0 512 512" height="512" viewBox="0 0 512 512" width="512" xmlns="http://www.w3.org/2000/svg"><g><g><path d="m57.15 353.508c-3.169 2.489-8.475 6.656-8.475 14.707 0 4.142 3.358 7.5 7.5 7.5s7.5-3.358 7.5-7.5c0-.54.105-.841 2.74-2.911 11.347-7.855 11.301-21.598 0-29.413-3.711-3.019-3.726-2.795 0-5.82 11.32-7.813 11.322-21.598-.001-29.412-2.634-2.069-2.739-2.37-2.739-2.908 0-.539.105-.84 2.74-2.909 3.17-2.489 8.475-6.656 8.475-14.706-.297-9.889-14.688-9.933-15 0 0 .538-.105.84-2.74 2.909-11.348 7.854-11.302 21.597 0 29.411 3.711 3.018 3.725 2.793 0 5.818-11.32 7.813-11.321 21.598 0 29.413 2.635 2.07 2.74 2.371 2.74 2.911s-.104.84-2.74 2.91z"/><path d="m134.837 353.508c-3.17 2.489-8.475 6.656-8.475 14.707 0 4.142 3.358 7.5 7.5 7.5s7.5-3.358 7.5-7.5c0-.54.105-.841 2.74-2.911 3.17-2.489 8.475-6.656 8.475-14.707s-5.305-12.217-8.474-14.707c-2.635-2.07-2.74-2.372-2.74-2.911s.105-.84 2.739-2.909c11.319-7.813 11.322-21.598 0-29.412-2.634-2.069-2.739-2.37-2.739-2.908s.105-.84 2.739-2.909c3.17-2.489 8.475-6.656 8.475-14.706-.297-9.889-14.688-9.933-15 0 0 .538-.105.84-2.739 2.909-11.348 7.854-11.302 21.596 0 29.411 3.711 3.018 3.725 2.793 0 5.818-11.32 7.814-11.32 21.598 0 29.413 2.635 2.07 2.74 2.371 2.74 2.911s-.106.841-2.741 2.911z"/><path d="m221.789 294.843c3.17-2.489 8.475-6.656 8.475-14.706 0-4.142-3.358-7.5-7.5-7.5s-7.5 3.358-7.5 7.5c0 .539-.105.84-2.74 2.909-3.17 2.489-8.475 6.656-8.475 14.706s5.305 12.216 8.475 14.705c2.635 2.069 2.74 2.37 2.74 2.909s-.105.84-2.74 2.909c-11.32 7.813-11.32 21.598 0 29.413 2.635 2.07 2.74 2.371 2.74 2.911s-.105.841-2.74 2.911c-3.169 2.489-8.475 6.656-8.475 14.707.297 9.889 14.688 9.933 15 0 0-.539.105-.841 2.74-2.91 11.347-7.855 11.301-21.598 0-29.413-3.711-3.019-3.726-2.795 0-5.82 11.32-7.813 11.322-21.598-.001-29.412-3.717-3.017-3.709-2.811.001-5.819z"/><path d="m299.476 294.843c3.17-2.489 8.475-6.656 8.475-14.706 0-4.142-3.358-7.5-7.5-7.5s-7.5 3.358-7.5 7.5c0 .539-.105.84-2.74 2.909-3.17 2.489-8.475 6.656-8.475 14.706s5.305 12.216 8.475 14.705c2.635 2.069 2.74 2.37 2.74 2.909s-.105.84-2.74 2.909c-11.32 7.813-11.32 21.598 0 29.413 2.635 2.07 2.74 2.371 2.74 2.911s-.105.841-2.74 2.911c-3.169 2.489-8.475 6.656-8.475 14.707.297 9.889 14.688 9.933 15 0 0-.539.105-.841 2.74-2.91 11.347-7.855 11.301-21.598 0-29.413-3.711-3.019-3.726-2.795 0-5.82 11.32-7.813 11.322-21.598-.001-29.412-3.718-3.017-3.709-2.811.001-5.819z"/><path d="m370.637 280.137c0 .539-.105.84-2.739 2.909-11.348 7.854-11.302 21.596 0 29.411 3.711 3.018 3.725 2.793 0 5.818-11.319 7.814-11.32 21.598 0 29.413 2.635 2.07 2.74 2.371 2.74 2.911s-.105.841-2.74 2.911c-3.17 2.489-8.475 6.656-8.475 14.707 0 4.142 3.358 7.5 7.5 7.5s7.5-3.358 7.5-7.5c0-.54.105-.841 2.74-2.911 11.347-7.855 11.301-21.598 0-29.413-2.635-2.07-2.74-2.372-2.74-2.911s.105-.84 2.739-2.909c11.319-7.813 11.322-21.598 0-29.412-3.717-3.014-3.709-2.808 0-5.817 3.17-2.489 8.475-6.656 8.475-14.706 0-4.142-3.358-7.5-7.5-7.5s-7.5 3.357-7.5 7.499z"/><path d="m445.584 353.508c-3.169 2.489-8.475 6.656-8.475 14.707 0 4.142 3.358 7.5 7.5 7.5s7.5-3.358 7.5-7.5c0-.54.105-.841 2.74-2.911 11.347-7.855 11.301-21.598 0-29.413-3.711-3.019-3.726-2.795 0-5.82 11.32-7.813 11.322-21.598-.001-29.412-2.634-2.069-2.739-2.37-2.739-2.908 0-.539.105-.84 2.74-2.909 3.17-2.489 8.475-6.656 8.475-14.706-.297-9.889-14.688-9.933-15 0 0 .538-.105.84-2.74 2.909-11.348 7.854-11.302 21.597 0 29.411 3.711 3.018 3.725 2.793 0 5.818-11.32 7.813-11.321 21.598 0 29.413 2.635 2.07 2.74 2.371 2.74 2.911s-.105.84-2.74 2.91z"/><path d="m500.5 466.967h-9.878c.843-10.689-3.853-21.447-12.934-27.969l-8.088-5.81c-13.186-9.891-33.413-6.869-43.135 6.416-4.309-1.525-8.938-2.088-13.623-1.608-7.062.709-16.274 1.094-22.282 5.005-5.162-7.244-13.204-11.979-22.219-12.905-6.637-14.884-24.697-21.514-39.682-15.457-1.999.848-10.164 3.938-11.942 4.953-6.635-11.57-20.255-18.043-33.95-15.008l-9.723 2.154c-14.67 2.958-25.602 17.479-24.49 32.33-9.528-4.113-20.312-3.231-28.811 2.004-2.111-10.063-9.112-18.771-18.992-22.729l-9.245-3.704c-14.983-6.061-33.045.574-39.681 15.457-1.183.121-2.353.289-3.498.538-2.348-14.896-16.623-26.566-31.747-25.845 0 0-9.954.288-9.954.288-13.608.172-26.165 10.257-29.4 23.396-8.832-2.449-18.654-1.035-26.659 4.716l-8.088 5.81c-9.081 6.523-13.777 17.28-12.934 27.969h-18.045c-6.341 0-11.5 5.159-11.5 11.5v7.635c0 14.262 11.603 25.865 25.865 25.865h57.854c9.888-.299 9.935-14.687 0-15h-57.854c-5.991 0-10.865-4.874-10.865-10.865v-4.135h482v4.135c0 5.991-4.874 10.865-10.865 10.865h-367.522c-9.7.217-10.094 14.653 0 15h367.522c14.262 0 25.865-11.603 25.865-25.865v-7.635c0-6.342-5.159-11.501-11.5-11.501zm-51.807-24.446c4.301-.704 8.618.308 12.156 2.849l8.088 5.81c5.078 3.648 7.527 9.833 6.6 15.787h-28.287c-.442-7.171-3.415-13.887-8.212-19.066 2.488-2.865 5.863-4.758 9.655-5.38zm-44.23 11.411 9.907-1.015c8.508-1.05 16.855 5.537 17.813 14.05h-42.055c1.367-6.831 7.051-12.289 14.335-13.035zm-24.917-.288c-2.473 3.97-4.081 8.506-4.574 13.323h-19.977c-1.298-3.57-3.234-6.846-5.717-9.706 3.545-14.404 23.44-16.831 30.268-3.617zm-110.766 2.718c7.969-3.057 14.951-7.571 23.331-2.767-2.889 3.99-4.759 8.583-5.53 13.372h-27.383c1.388-4.711 4.859-8.713 9.582-10.605zm35.464 6.05c4.968-7.228 15.753-8.994 22.768-3.732 2.113 1.642 9.219 6.233 10.81 8.286h-35.853c.517-1.613 1.27-3.154 2.275-4.554zm29.994-33.849c6.397-2.561 13.567-.778 18.057 4.093-6.631 2.983-12.065 8.204-15.292 14.732-5.975-4.627-13.29-7.094-20.761-6.742 1.708-3.722 4.781-6.788 8.753-8.379zm-68.176-.02c2.341-3.675 5.974-6.218 10.229-7.161l9.723-2.154c8.257-1.826 16.46 2.977 19.032 10.853-2.211 3.322-3.794 7.048-4.621 10.991-8.265-5.06-18.595-6.097-27.978-2.339l-8.237 3.301c-1.393-4.552-.715-9.483 1.852-13.491zm-23.92 24.115 6.089 2.44c-2.219 3.597-3.716 7.635-4.352 11.869h-10.295c-.771-4.789-2.64-9.382-5.53-13.372 4.222-2.385 9.382-2.822 14.088-.937zm-96.948 14.309c-.493-4.818-2.101-9.354-4.574-13.324.7-1.343 1.575-2.559 2.586-3.633 1.28-.554 2.4-1.451 3.208-2.63 9.006-5.948 22.142-.583 24.473 9.88-2.484 2.861-4.42 6.136-5.717 9.707zm-57.21 0c.96-8.513 9.301-15.099 17.812-14.05 0 0 9.907 1.015 9.907 1.015 7.285.746 12.968 6.204 14.336 13.035zm97.083-2.476 8.088-5.81c8.717-6.49 21.932-2.11 25.043 8.287h-35.853c.806-.912 1.708-1.749 2.722-2.477zm.861-35.928 9.245 3.704c3.977 1.594 7.054 4.667 8.76 8.396-7.216-.353-14.709 2.006-20.768 6.725-3.227-6.529-8.661-11.75-15.292-14.732 4.489-4.872 11.659-6.656 18.055-4.093zm-78.868-8.492 9.955-.289c9.792-.532 18.226 8.893 16.631 18.568-1.492 1.4-2.84 2.961-4.042 4.65-3.692-2.122-7.87-3.528-12.373-3.989l-9.907-1.015c-4.683-.479-9.313.084-13.623 1.609-.777-1.016-1.599-1.979-2.473-2.874-.372-8.717 7.106-16.588 15.832-16.66zm-55.831 31.109 8.088-5.81c6.886-4.945 16.35-3.738 21.81 2.532-4.796 5.178-7.769 11.895-8.21 19.064h-28.288c-.927-5.953 1.522-12.138 6.6-15.786z"/><path d="m256 180.967c49.443.633 80.678-56.518 53.486-97.74-5.627-8.182-17.713-.405-12.626 8.098 20.755 31.473-3.103 75.135-40.861 74.641-26.742 0-48.499-21.756-48.499-48.5-.646-33.456 35.282-57.859 66.138-45.195 9.337 3.329 14.581-10.087 5.457-13.972-40.656-16.537-87.23 15.214-86.595 59.168 0 35.014 28.486 63.5 63.5 63.5z"/><path d="m256 32.967c4.142 0 7.5-3.358 7.5-7.5v-18c-.304-9.909-14.694-9.916-15 0v18c0 4.142 3.358 7.5 7.5 7.5z"/><path d="m248.5 209.467v18c0 4.142 3.358 7.5 7.5 7.5s7.5-3.358 7.5-7.5v-18c-.304-9.909-14.694-9.916-15 0z"/><path d="m203.505 41.543c5.25 8.448 17.679 1.209 12.99-7.5 0 0-9-15.588-9-15.588-2.071-3.588-6.658-4.816-10.245-2.745s-4.816 6.658-2.745 10.245z"/><path d="m314.75 219.225c3.587-2.071 4.816-6.658 2.745-10.245l-9-15.588c-5.216-8.429-17.684-1.241-12.99 7.5 0 0 9 15.588 9 15.588 2.083 3.62 6.721 4.798 10.245 2.745z"/><path d="m156.987 68.962 15.588 9c1.181.682 2.471 1.006 3.743 1.006 7.538.038 10.394-10.164 3.757-13.997 0 0-15.588-9-15.588-9-8.733-4.692-15.934 7.769-7.5 12.991z"/><path d="m331.924 169.962 15.588 9c3.524 2.053 8.162.875 10.245-2.745 2.071-3.587.842-8.174-2.745-10.245l-15.588-9c-8.733-4.691-15.934 7.768-7.5 12.99z"/><path d="m146 124.967h18c4.142 0 7.5-3.358 7.5-7.5s-3.358-7.5-7.5-7.5h-18c-9.909.304-9.916 14.694 0 15z"/><path d="m340.5 117.467c0 4.142 3.358 7.5 7.5 7.5h18c9.909-.304 9.916-14.694 0-15h-18c-4.142 0-7.5 3.358-7.5 7.5z"/><path d="m172.576 156.972-15.588 9c-3.587 2.071-4.816 6.658-2.745 10.245 2.083 3.62 6.721 4.798 10.245 2.745 0 0 15.588-9 15.588-9 8.428-5.216 1.241-17.684-7.5-12.99z"/><path d="m335.681 78.969c1.272 0 2.562-.324 3.743-1.006l15.588-9c8.429-5.216 1.241-17.684-7.5-12.99 0 0-15.588 9-15.588 9-6.633 3.829-3.786 14.035 3.757 13.996z"/><path d="m207.495 216.48 9-15.588c2.071-3.587.842-8.174-2.745-10.245-3.588-2.072-8.174-.842-10.245 2.745l-9 15.588c-4.687 8.705 7.737 15.951 12.99 7.5z"/><path d="m298.25 44.288c3.524 2.053 8.162.875 10.245-2.745 0 0 9-15.588 9-15.588 4.691-8.732-7.767-15.936-12.99-7.5 0 0-9 15.588-9 15.588-2.071 3.587-.842 8.174 2.745 10.245z"/></g></g></svg>