<svg height="512" viewBox="0 0 64 64" width="512" xmlns="http://www.w3.org/2000/svg"><g id="Line_OK" fill="rgb(0,0,0)" data-name="Line OK"><path d="m8 54a1 1 0 0 1 -.707-1.707l11-11a1 1 0 0 1 .707-.293h16a4 4 0 0 1 0 8h-10a1 1 0 0 1 0-2h10a2 2 0 0 0 0-4h-15.586l-10.707 10.707a1 1 0 0 1 -.707.293z"/><path d="m17 63a1 1 0 0 1 -.707-1.707l6-6a1 1 0 0 1 .707-.293h20.587l10.875-10.842a1.857 1.857 0 0 0 0-2.617 1.878 1.878 0 0 0 -2.6 0l-7.15 7.166a1 1 0 0 1 -.712.293h-19a1 1 0 0 1 0-2h18.585l6.857-6.872a3.927 3.927 0 0 1 5.434 0 3.862 3.862 0 0 1 0 5.443l-11.17 11.137a1 1 0 0 1 -.706.292h-20.586l-5.707 5.707a1 1 0 0 1 -.707.293z"/><path d="m32 39a19 19 0 1 1 19-19 19.021 19.021 0 0 1 -19 19zm0-36a17 17 0 1 0 17 17 17.019 17.019 0 0 0 -17-17z"/><path d="m49.29 26h-2.79a2.5 2.5 0 0 1 -2.5-2.5.5.5 0 0 0 -.5-.5h-7.5a4.024 4.024 0 0 1 -2.9-1.248 3.963 3.963 0 0 1 -1.1-2.964 4.151 4.151 0 0 1 4.17-3.788h4.33a1.5 1.5 0 0 0 1.5-1.661 1.593 1.593 0 0 0 -1.64-1.339h-3.36a3 3 0 0 1 -2.956-3.5 3.082 3.082 0 0 1 3.066-2.5h7.33a1 1 0 0 1 0 2h-7.33a1.082 1.082 0 0 0 -1.092.821 1 1 0 0 0 .982 1.179h3.36a3.607 3.607 0 0 1 3.625 3.141 3.5 3.5 0 0 1 -3.485 3.859h-4.33a2.128 2.128 0 0 0 -2.17 1.9 2 2 0 0 0 2 2.1h7.5a2.5 2.5 0 0 1 2.5 2.5.5.5 0 0 0 .5.5h2.79a1 1 0 0 1 0 2z"/><path d="m43.31 35h-4.81a3.525 3.525 0 0 1 -2.478-1.023 3.5 3.5 0 0 1 2.478-5.977h9.08a1 1 0 0 1 0 2h-9.08a1.5 1.5 0 1 0 0 3h4.81a1 1 0 0 1 0 2z"/><path d="m26.5 32h-8.74a1 1 0 0 1 0-2h8.74a2.5 2.5 0 0 0 0-5h-3.5a4 4 0 0 1 0-8h2a1 1 0 0 0 0-2h-1a3 3 0 0 1 -3-3 1 1 0 0 0 -1-1h-2.96a1 1 0 0 1 0-2h2.96a3 3 0 0 1 3 3 1 1 0 0 0 1 1h1a3 3 0 0 1 0 6h-2a2 2 0 0 0 0 4h3.5a4.5 4.5 0 0 1 0 9z"/></g></svg>