<svg id="Layer_1" viewBox="0 0 128 128" xmlns="http://www.w3.org/2000/svg" data-name="Layer 1"><path d="m19.55469 43.29785-1.55078 4.10108 1.72168.65136 1.73241-4.58056 2.27441.86035-2.80176 7.40967-10.08885-3.81543 2.71679-7.18506 2.27539.86035-1.64746 4.356 1.542.583 1.55078-4.10161z"/><path d="m29.44043 34.92285a7.951 7.951 0 0 1 -1.30566 2.82815c-2.457 3.61132-5.63282 3.812-8.02735 2.18261-3.0957-2.10693-3.10644-5.67529-1.11621-8.59912a7.35857 7.35857 0 0 1 2.1875-2.24707l1.58008 1.83058a6.185 6.185 0 0 0 -1.69434 1.69238c-1.0166 1.49512-1.11035 3.36719.66211 4.57324 1.53516 1.04444 3.31739.72852 4.56934-1.11035a6.78208 6.78208 0 0 0 .96484-2.07226z"/><path d="m35.41016 22.48682c2.15039 2.45263 2.002 5.75195-.78711 8.19824a5.32489 5.32489 0 0 1 -7.90918-.35986 5.53518 5.53518 0 0 1 .69433-8.1592c2.74121-2.40428 5.91407-2.06 8.00196.32082zm-6.332 5.65869c1.22266 1.395 2.89942 1.7539 4.126.67871 1.23828-1.08594 1.06543-2.76318-.1582-4.1582-1.22266-1.39454-2.9209-1.77784-4.13477-.7129-1.2149 1.06495-1.05572 2.79788.16693 4.19239z"/><path d="m40.77051 13.56641 7.081-2.71241.86914 2.27051-4.25683 1.63086.66894 1.748 4.00391-1.53369.86914 2.2705-4.00293 1.5337 1.44727 3.77929-2.82315 1.0816z"/><path d="m52.45508 9.80029a26.83691 26.83691 0 0 1 3.74219-.73877 6.52791 6.52791 0 0 1 3.916.335 2.76626 2.76626 0 0 1 1.42188 2.19873 2.84686 2.84686 0 0 1 -1.56153 2.82129l.00782.06348a2.8526 2.8526 0 0 1 1.6621 1.69873c.50977 1.0459 1.083 2.5669 1.34375 2.95166l-3.04394.4043a12.66143 12.66143 0 0 1 -1.14844-2.332c-.5039-1.23975-.96582-1.43653-1.96387-1.3042l-.53906.07177.52832 3.9795-2.96484.39355zm3.55664 4.06153.88769-.11817c1.17286-.15576 1.80762-.72412 1.7002-1.53271s-.76465-1.14063-1.7793-1.00586a6.55379 6.55379 0 0 0 -1.13281.21484z"/><path d="m68.49316 8.76953-.57616 10.76807-3.01954-.1616.57617-10.7676z"/><path d="m78.80957 17.26025-4.26857-1.00781-.42286 1.792 4.76661 1.125-.5586 2.36817-7.71191-1.82031 2.47853-10.5005 7.47852 1.76513-.55957 2.36817-4.5332-1.07031-.37891 1.605 4.26855 1.00732z"/><path d="m80.20117 22.11572 5.00883-9.5542 3.35938 1.76123.124 3.58887a30.90748 30.90748 0 0 1 -.208 4.499l.043.02247a34.65152 34.65152 0 0 1 1.85156-3.981l1.30762-2.49463 2.48144 1.30035-5.00884 9.55419-2.93457-1.53808-.07227-4.06788a46.05138 46.05138 0 0 1 .09668-4.66551l-.05664-.02979c-.6875 1.48291-1.40137 2.8794-2.15918 4.32569l-1.35254 2.57957z"/><path d="m98.2959 20.37891a26.31331 26.31331 0 0 1 2.91406 2.437 8.50285 8.50285 0 0 1 2.76465 4.127 4.54994 4.54994 0 0 1 -1.25586 4.43311 5.20206 5.20206 0 0 1 -4.46775 1.8232 9.361 9.361 0 0 1 -5.04981-2.8125 20.76024 20.76024 0 0 1 -2.1875-2.34229zm-3.60352 8.18209a4.955 4.955 0 0 0 .48828.50781c1.57911 1.54345 3.46582 1.90283 5.08594.19775 1.47559-1.55371.99121-3.25-.42383-4.59375a5.535 5.535 0 0 0 -.82031-.66943z"/><path d="m108.94238 31.416 1.61719 2.55517-6.97559 4.417 2.49122 3.93409-2.13575 1.35253-4.10937-6.48925z"/><path d="m105.15723 46.68555 4.20215-1.59473 4.54785-5.73 1.25488 3.30469-1.88574 1.79349c-.61328.59229-.97364.95118-1.50489 1.44385l.01172.02979c.67383.01806 1.26758.04931 2.0625.07226l2.61621.085 1.23731 3.25977-7.16309-1.47217-4.30664 1.63477z"/><g stroke="#000" stroke-linecap="round" stroke-linejoin="round" stroke-width="3"><path d="m14.59332 56.38092a50 50 0 1 0 98.81336 0" fill="none"/><path d="m33.58349 51.31314s10.12532 4.54174 13.48351 6.09261c8.205 3.78918 13.83579 9.6147 16.933 17.03452" fill="none"/><path d="m33.58349 51.31314c14.41837 11.58932 26.46967 27.81913 30.41651 47.55342" fill="none"/><path d="m30.566 67.46h18.859" fill="#fff"/><path d="m34.574 81.143h23.164" fill="#fff"/><path d="m94.16014 50.77237s-10.11164 4.9342-13.46465 6.61429c-15.92538 7.97974-22.9579 23.7566-16.69549 41.4799" fill="none"/><path d="m94.16014 50.77237c-14.41837 11.58932-25.92451 28.3599-30.16014 48.09419" fill="none"/><path d="m97.434 67.44h-19.097" fill="#fff"/><path d="m93.189 81.124h-23.164" fill="#fff"/><path d="m33.58349 51.31325a33.50043 33.50043 0 1 0 60.57665-.54076" fill="none"/></g></svg>