<svg id="Layer_1" enable-background="new 0 0 512.158 512.158" height="512" viewBox="0 0 512.158 512.158" width="512" xmlns="http://www.w3.org/2000/svg"><g><g><path d="m509.545 352.523c-7.224-46.018-28.706-86.009-60.49-112.607-2.89-2.417-6.893-3.006-10.355-1.523-3.463 1.483-5.799 4.787-6.042 8.547-2.462 38.076-27.667 65.666-52.041 92.348-41.411 43.129-68.446 85.162-35.462 145.367-8.337 3.317-16.67 5.751-24.842 7.704-5.371 1.284-8.686 6.679-7.402 12.051 1.263 5.413 6.82 8.694 12.051 7.402 12.616-3.015 24.335-7.024 35.214-12.094 48.469 21.514 100.506 15.598 129.957-31.254 19.166-30.168 26.241-72.426 19.412-115.941zm-36.294 105.215c-19.695 31.002-51.346 40.97-90.386 29.03 37.44-25.801 62.952-68.213 79.926-131.077 1.439-5.332-1.716-10.821-7.048-12.261-5.333-1.437-10.821 1.715-12.261 7.048-19.626 72.687-49.195 107.379-80.313 125.457-51.141-91.014 68.789-125.449 86.382-207.887 48.739 53.474 54.027 141.957 23.7 189.69z"/><path d="m369.899 117.645c7.041 5.562 13.316 11.562 19.094 17.662 3.803 4.015 10.133 4.178 14.137.385 4.01-3.797 4.183-10.127.385-14.137-8.919-9.419-18.251-17.563-28.081-24.45-6.259-54.971-37.304-94.348-92.044-96.919-76.81-4.487-166.832 72.969-177.392 149.849-.649 3.711.843 7.473 3.858 9.729 3.018 2.258 7.048 2.628 10.423.959 86.08-40.783 181.255 65.608 249.62-43.078zm-139.324 22.441c-31.7-7.146-67.457-14.324-100.461-4.549 21.94-68.946 95.944-117.781 152.427-115.369 36.696 1.557 61.154 23.982 70.333 63.761-41.064-19.524-90.55-20.413-153.478-3.678-5.338 1.419-8.514 6.896-7.095 12.233 1.419 5.339 6.9 8.518 12.233 7.095 72.764-19.347 117.591-11.087 148.806 6.823-32.708 53.504-72.683 44.706-122.765 33.684z"/><path d="m231.953 484.682c-31.744-21.171-43.035-56.794-53.954-91.243-8.091-25.523-16.456-51.916-33.204-71.448-17.46-20.364-42.001-30.88-74.789-31.946 1.145-8.283 3.008-16.719 5.58-25.367 1.574-5.294-1.44-10.861-6.734-12.436-5.299-1.579-10.862 1.441-12.436 6.734-3.7 12.442-6.077 24.59-7.116 36.529-24.184 18.145-39.657 38.717-46.028 61.223-6.18 21.828-3.38 44.984 8.098 66.966 35.698 68.745 143.435 107.881 218.467 78.7 3.539-1.294 6.05-4.466 6.497-8.206.446-3.741-1.248-7.416-4.381-9.506zm-202.855-70.245c-17.008-32.574-9.801-64.982 20.094-92.83 2.5 30.913 14.465 60.802 36.193 91.247 3.227 4.526 9.502 5.516 13.949 2.33 4.495-3.208 5.538-9.453 2.33-13.949-22.093-30.956-32.897-60.301-33.021-91.226 104.043 1.356 74.07 122.402 136.581 178.75-70.678 15.47-149.95-24.192-176.126-74.322z"/><path d="m198.549 226.084c13.268-.529 13.258-19.476 0-20h-35c-5.522 0-10 4.478-10 10v80c0 5.522 4.478 10 10 10h35c13.268-.529 13.258-19.476 0-20h-25v-20h11c13.268-.529 13.258-19.476 0-20h-11v-20z"/><path d="m253.551 226.084c5.514 0 10 4.486 10 10 .524 13.259 19.473 13.266 20 0-1.648-39.8-58.359-39.786-60 0v40c1.651 39.804 58.36 39.783 60 0 0-5.522-4.478-10-10-10s-10 4.478-10 10c0 5.514-4.486 10-10 10s-10-4.486-10-10v-40c0-5.513 4.486-10 10-10z"/><path d="m358.553 276.084v-40c-1.653-39.809-58.363-39.778-60.001 0v40c1.653 39.809 58.363 39.779 60.001 0zm-40.001 0v-40c.551-13.269 19.455-13.26 20.001 0v40c-.551 13.271-19.455 13.259-20.001 0z"/><path d="m122.303 431.641h-.007c-5.522 0-9.996 4.478-9.996 10 .528 13.263 19.478 13.262 20.003 0 0-5.522-4.477-10-10-10z"/></g></g></svg>