<svg height="512" viewBox="0 0 512 512" width="512" xmlns="http://www.w3.org/2000/svg"><g id="OUTLINE"><path d="m456 416v-104a24.02687 24.02687 0 0 0 -24-24h-352a24.02687 24.02687 0 0 0 -24 24v104h-40v40a24.0275 24.0275 0 0 0 24 24h73.3761a23.995 23.995 0 0 0 45.2478 0h186.7522a23.995 23.995 0 0 0 45.2478 0h81.3761a24.0275 24.0275 0 0 0 24-24v-40zm-96 0v-48h16v24h16v-24h48v48zm-160-88v-24h48v48h-80v-48h16v24zm96 0v-24h48v48h-80v-48h16v24zm-112 40v24h16v-24h48v48h-80v-48zm80 0h16v24h16v-24h48v48h-80zm176-56v40h-80v-48h16v24h16v-24h40a8.00917 8.00917 0 0 1 8 8zm-360-8h8v24h16v-24h48v48h-80v-40a8.00917 8.00917 0 0 1 8-8zm-8 64h16v24h16v-24h48v48h-80zm64 112a8 8 0 1 1 8-8 8.00917 8.00917 0 0 1 -8 8zm232 0a8 8 0 1 1 8-8 8.00917 8.00917 0 0 1 -8 8zm112-24a8.00917 8.00917 0 0 1 -8 8h-81.3761a23.995 23.995 0 0 0 -45.2478 0h-186.7522a23.995 23.995 0 0 0 -45.2478 0h-73.3761a8.00917 8.00917 0 0 1 -8-8v-24h448z"/><path d="m69.274 225.684h117.452v16h-117.452z" transform="matrix(.954 -.301 .301 .954 -64.428 49.391)"/><path d="m31.416 252.211h25.168v16h-25.168z" transform="matrix(.954 -.301 .301 .954 -76.317 25.329)"/><path d="m75.56934 206.88281a23.90915 23.90915 0 0 0 23.85351 6.021l112.51343-33.02527-9.24683 64.72746a24.00033 24.00033 0 0 0 23.75879 27.394h10.60645a23.84974 23.84974 0 0 0 22.36816-15.30127l41.10022-105.686 109.81189-32.105a22.99988 22.99988 0 0 0 9.60693-38.27929 60.85691 60.85691 0 0 0 -60.43066-15.31594l-65.23572 19.39441-85.2091-63.90662a24.14773 24.14773 0 0 0 -14.39991-4.80029h-12.77a23.99984 23.99984 0 0 0 -19.96923 37.3125l39.35962 59.03967-98.43189 29.26355a7.98935 7.98935 0 0 1 -7.937-2.01123l-12.57471-12.5747a23.843 23.843 0 0 0 -16.97073-7.02979h-18.74512a23.99982 23.99982 0 0 0 -16.9707 40.97021zm99.67041-162.44531a7.99994 7.99994 0 0 1 6.65673-12.4375h12.77a8.05165 8.05165 0 0 1 4.8003 1.6001l75.7124 56.78418-57.844 17.19677zm-136.00342 96.501a7.84723 7.84723 0 0 1 7.39111-4.9385h18.74512a7.94834 7.94834 0 0 1 5.65723 2.34326l12.5747 12.57474a23.97629 23.97629 0 0 0 23.81006 6.03467l183.70337-54.61451.08228.06177.08325-.11108 72.78735-21.63944a44.8741 44.8741 0 0 1 44.55762 11.29248 7.00107 7.00107 0 0 1 -2.854 11.6294l-97.93677 28.63281 3.6184-9.30469-14.9121-5.79882-52.03321 133.79931a7.95009 7.95009 0 0 1 -7.45605 5.1001h-10.60645a7.99991 7.99991 0 0 1 -7.91992-9.13135l13.39111-93.7373-15.83886-2.2627-1.65784 11.605-119.56824 35.09617a7.98936 7.98936 0 0 1 -7.97168-2.00048l-45.9126-45.9126a7.84674 7.84674 0 0 1 -1.73388-8.71826z"/><path d="m78.637 56.842h58.726v16h-58.726z" transform="matrix(.954 -.301 .301 .954 -14.513 35.533)"/><path d="m39.416 74.527h25.168v16h-25.168z" transform="matrix(.954 -.301 .301 .954 -22.439 19.491)"/><path d="m350.507 153.684h64.319v16h-64.319z" transform="matrix(.954 -.301 .301 .954 -30.926 122.736)"/><path d="m311.416 172.211h25.168v16h-25.168z" transform="matrix(.954 -.301 .301 .954 -39.228 105.934)"/><path d="m335.611 29.474h16.779v16h-16.779z" transform="matrix(.954 -.301 .301 .954 4.685 105.337)"/><path d="m447.611 37.474h16.779v16h-16.779z" transform="matrix(.954 -.301 .301 .954 7.475 139.438)"/><path d="m455.611 114.527h16.779v16h-16.779z" transform="matrix(.954 -.301 .301 .954 -15.359 145.415)"/><path d="m293.671 256.347 4.658 15.306 168.052-51.146-9.809 24.522 14.856 5.942 18.971-47.428-47.428-18.971-5.942 14.856 18.866 7.546z"/></g></svg>