<svg id="Layer_1" enable-background="new 0 0 512 512" viewBox="0 0 512 512" xmlns="http://www.w3.org/2000/svg"><path d="m491.094 337.714-67.671-26.312c6.866-20.05 10.351-41.023 10.351-62.464 0-106.34-86.514-192.854-192.854-192.854-106.341 0-192.854 86.514-192.854 192.854 0 103.66 82.21 188.465 184.854 192.676v5.296c0 3.3 2.025 6.261 5.101 7.456l123.638 48.074c.933.362 1.916.544 2.899.544s1.967-.182 2.899-.544l123.637-48.074c3.075-1.195 5.101-4.156 5.101-7.456v-101.74c-.001-3.3-2.026-6.261-5.101-7.456zm-126.536 46.947-18.852-7.33 101.562-39.491 18.851 7.33zm-300.304-127.723h72.03c.609 28.061 4.418 55.07 11.093 79.508h-60.1c-13.519-23.644-21.733-50.69-23.023-79.508zm353.33-16h-72.028c-.609-28.061-4.418-55.07-11.093-79.508h60.099c13.519 23.643 21.732 50.689 23.022 79.508zm-168.664 92.538v-76.538h80.634c-.365 16.01-1.839 31.725-4.369 46.885zm80.634-92.538h-80.634v-79.508h68.936c7.036 24.132 11.059 51.21 11.698 79.508zm-80.634-95.508v-72.602c19.786 3.647 38.475 20.756 53.31 49.108 3.834 7.327 7.293 15.188 10.362 23.494zm-16-72.602v72.602h-63.672c3.069-8.306 6.528-16.167 10.362-23.494 14.836-28.352 33.523-45.461 53.31-49.108zm0 88.602v79.508h-80.634c.639-28.298 4.663-55.375 11.699-79.508zm-96.636 79.508h-72.03c1.29-28.819 9.503-55.865 23.022-79.508h60.101c-6.675 24.438-10.483 51.446-11.093 79.508zm16.002 16h80.634v79.508h-68.936c-7.035-24.134-11.059-51.211-11.698-79.508zm80.634 95.507v72.603c-19.787-3.647-38.474-20.756-53.31-49.107-3.834-7.327-7.294-15.188-10.362-23.495h63.672zm131.638-46.765 18.85 7.329-101.56 39.492-18.853-7.331zm-60.636 55.404 101.56-39.492 19.711 7.665-101.562 39.491zm-14.073 11.694 25.78 10.024v15.09l-8.61-7.333c-2.088-1.777-4.941-2.365-7.562-1.548l-9.608 2.987zm77.608-83.137c-1.865-.725-3.934-.725-5.799 0l-19.264 7.49c1.803-13.109 2.871-26.554 3.168-40.193h72.032c-.738 16.665-3.784 32.973-9.091 48.663zm16.77-144.211h-54.672c-3.768-11.012-8.158-21.375-13.148-30.912-7.396-14.135-15.791-25.887-24.922-35.056 37.711 11.272 70.174 34.809 92.742 65.968zm-193.872-65.969c-9.131 9.169-17.525 20.921-24.921 35.056-4.991 9.537-9.381 19.899-13.149 30.912h-54.674c22.569-31.158 55.033-54.696 92.744-65.968zm-92.744 272.984h54.674c3.769 11.013 8.159 21.376 13.149 30.913 7.396 14.135 15.79 25.887 24.921 35.056-37.711-11.272-70.175-34.81-92.744-65.969zm151.309 81.346v-76.927l24.929 9.693v34.077c0 3.055 1.467 5.958 3.924 7.768 2.457 1.809 5.667 2.35 8.581 1.439l13.646-4.243 15.731 13.397c1.775 1.515 4.012 2.302 6.268 2.302 1.368 0 2.744-.29 4.028-.883 3.402-1.57 5.602-5.007 5.602-8.756v-22.634l24.929 9.693v84.573l-107.638-41.853zm123.638 49.499v-84.573l107.637-41.853v84.573zm135.961-306.449-28.288-36.609c-2.253-2.913-5.656-4.583-9.337-4.583-3.68.001-7.082 1.672-9.334 4.586l-28.287 36.605c-2.776 3.593-3.262 8.344-1.268 12.401 2.005 4.079 6.067 6.612 10.599 6.612h.008 5.979v70.06c0 7.156 5.822 12.978 12.979 12.978h18.653c7.156 0 12.978-5.821 12.978-12.978v-70.06h5.977.008c4.535 0 8.598-2.533 10.603-6.613 1.991-4.057 1.505-8.808-1.27-12.399zm-23.319 3.013c-4.418 0-8 3.582-8 8v75.037h-12.609v-75.037c0-4.418-3.582-8-8-8h-5.427l19.731-25.534 19.731 25.534zm-268.844 293.581c1.283 1.916 1.677 4.293 1.08 6.521s-2.126 4.09-4.195 5.107l-31.561 15.53c-1.136.56-2.341.824-3.526.824-2.953 0-5.792-1.642-7.184-4.47-1.951-3.965-.318-8.76 3.646-10.71l8.806-4.334c-47.64-11.743-90.866-38.014-123.471-75.441-38.015-43.638-58.952-99.581-58.952-157.524 0-64.085 24.956-124.334 70.271-169.649 45.315-45.316 105.565-70.272 169.65-70.272 38.374 0 76.542 9.282 110.376 26.843 32.735 16.99 61.575 41.743 83.399 71.583 2.608 3.566 1.832 8.571-1.734 11.18s-8.572 1.832-11.18-1.734c-42.076-57.528-109.687-91.872-180.861-91.872-123.471 0-223.921 100.45-223.921 223.921 0 105.254 74.809 196.786 176.318 218.843l-9.823-14.675c-2.458-3.671-1.475-8.641 2.197-11.098 3.671-2.458 8.641-1.474 11.098 2.197z"/></svg>