<svg id="Layer_1" enable-background="new 0 0 512 512" viewBox="0 0 512 512" xmlns="http://www.w3.org/2000/svg"><path d="m271.871 471.241c0 4.418-3.582 8-8 8-11.904 0-17.632-6.223-21.815-10.766-3.434-3.73-5.158-5.603-10.044-5.603s-6.61 1.872-10.044 5.603c-4.183 4.543-9.911 10.766-21.815 10.766s-17.632-6.223-21.814-10.766c-3.435-3.73-5.158-5.603-10.044-5.603s-6.609 1.872-10.043 5.603c-4.183 4.543-9.912 10.766-21.815 10.766s-17.632-6.223-21.815-10.766c-3.434-3.73-5.158-5.603-10.043-5.603s-6.61 1.872-10.044 5.603c-4.183 4.543-9.911 10.766-21.815 10.766s-17.632-6.223-21.815-10.766c-3.434-3.73-5.158-5.603-10.044-5.603s-6.61 1.872-10.044 5.603c-4.183 4.543-9.911 10.766-21.815 10.766-4.418 0-8-3.582-8-8s3.582-8 8-8c4.886 0 6.61-1.872 10.044-5.603 4.183-4.543 9.911-10.766 21.815-10.766s17.632 6.223 21.815 10.766c3.434 3.73 5.158 5.603 10.044 5.603s6.61-1.872 10.044-5.603c4.183-4.543 9.911-10.766 21.815-10.766s17.632 6.223 21.815 10.766c3.434 3.73 5.158 5.603 10.043 5.603 4.886 0 6.61-1.872 10.044-5.603 4.183-4.543 9.911-10.766 21.815-10.766s17.632 6.223 21.815 10.766c3.434 3.73 5.158 5.603 10.043 5.603s6.61-1.872 10.044-5.603c4.183-4.543 9.911-10.766 21.815-10.766s17.632 6.223 21.815 10.766c3.434 3.73 5.158 5.603 10.044 5.603 4.417 0 7.999 3.582 7.999 8zm239.129-75.08v50.539c0 8.861-7.209 16.07-16.07 16.07h-5.941c-3.323 9.575-12.429 16.471-23.121 16.471s-19.798-6.896-23.121-16.471h-43.49c-3.323 9.575-12.429 16.471-23.121 16.471-9.042 0-16.948-4.933-21.185-12.246-4.236 7.313-12.143 12.246-21.185 12.246-10.692 0-19.797-6.895-23.12-16.47h-1.342c-8.861 0-16.07-7.209-16.07-16.07v-53.287c-12.216 2.984-24.782 4.5-37.49 4.5-7.082 0-14.175-.475-21.167-1.413l-3.962 12.775c.461-.02.917-.046 1.398-.046 11.904 0 17.632 6.223 21.815 10.766 3.434 3.73 5.158 5.603 10.044 5.603 4.418 0 8 3.582 8 8s-3.582 8-8 8c-11.904 0-17.632-6.223-21.815-10.766-3.434-3.73-5.158-5.603-10.044-5.603s-6.61 1.872-10.044 5.603c-4.183 4.543-9.911 10.766-21.815 10.766s-17.632-6.223-21.814-10.766c-3.435-3.73-5.158-5.603-10.044-5.603s-6.609 1.872-10.043 5.603c-4.183 4.543-9.912 10.766-21.815 10.766s-17.632-6.223-21.815-10.766c-3.434-3.73-5.158-5.603-10.043-5.603s-6.61 1.872-10.044 5.603c-4.183 4.543-9.911 10.766-21.815 10.766s-17.632-6.223-21.815-10.766c-3.434-3.73-5.158-5.603-10.044-5.603s-6.61 1.872-10.044 5.603c-4.183 4.543-9.911 10.766-21.815 10.766-4.418 0-8-3.582-8-8s3.582-8 8-8c4.886 0 6.61-1.872 10.044-5.603 3.528-3.832 8.173-8.845 16.68-10.324l-10.236-33.01c-.753-2.428-.307-5.068 1.201-7.115 1.508-2.046 3.898-3.254 6.44-3.254h10.766v-17.676c0-6.552 5.119-11.918 11.566-12.342v-13.979c0-6.062 4.932-10.994 10.994-10.994h5.407v-16.388c0-4.418 3.582-8 8-8s8 3.582 8 8v16.388h5.407c6.062 0 10.993 4.932 10.993 10.994v13.979c6.447.425 11.566 5.79 11.566 12.342v17.676h45.275c-16.968-12.789-31.299-28.943-41.923-47.399-13.673-23.755-20.9-50.88-20.9-78.442 0-86.826 70.638-157.464 157.464-157.464 17.554 0 35.004 2.961 51.493 8.648l-4.352-7.537c-7.882-13.653-3.188-31.175 10.465-39.059 0 0 0 0 0-.001 13.654-7.883 31.175-3.188 39.059 10.467l14.368 24.886 28.215-1.406c-2.301-8.452 1.234-17.736 9.168-22.317 4.562-2.636 9.889-3.333 14.999-1.962 5.111 1.368 9.376 4.635 12.01 9.197l7.453 12.908 26.092-1.3c3.692-.195 7.027 2.185 8.071 5.728 1.045 3.545-.473 7.344-3.673 9.19l-72.404 41.803 33.093 57.32 34.566-.001c2.858 0 5.499 1.524 6.928 4l13.374 23.165c1.378 2.388 1.43 5.316.138 7.751-1.293 2.436-3.748 4.033-6.498 4.229l-56.598 4.029-8.589 12.699c-.863 28.243-9.069 55.115-23.984 78.75h37.59c8.861 0 16.07 7.209 16.07 16.07v3.87h18.872c5.869 0 11.063 2.289 15.022 6.62l28.975 31.691c3.486 3.817 5.33 8.566 5.33 13.735zm-49.329-36.046h-18.871v33.278h51.194c-.049-.057-.082-.113-.134-.171l-28.976-31.691c-.907-.993-1.868-1.416-3.213-1.416zm-152.368-19.94-.047 71.403h117.544v-71.333zm83.62-64.885-3.001 4.437c-1.491 2.205-3.977 3.519-6.625 3.519-.095 0-.19-.002-.285-.005-2.755-.098-5.266-1.607-6.644-3.995l-13.374-23.165c-1.429-2.476-1.429-5.524 0-8l17.283-29.935-33.094-57.32-40.194 23.206c.975 1.973 2.228 4.037 3.737 6.137 6.914 9.622 13.66 13.427 20.184 17.106 8.005 4.516 16.283 9.185 21.847 22.301 5.575 13.142-1.41 23.436-7.023 31.708-4.753 7.004-9.242 13.62-8.713 22.617.632 10.766 8.529 24.309 23.452 40.274h9.303c10.936-14.849 18.729-31.358 23.147-48.885zm-104.938-120.981 4.599-7.122-1.416-2.453c-.671-1.162-1.725-1.591-2.293-1.744-.569-.152-1.696-.308-2.858.363-1.771 1.023-2.404 3.383-1.381 5.153zm124.21-76.181 8.468-.422-3.35-5.803c-.67-1.161-1.725-1.591-2.293-1.743s-1.696-.309-2.859.363c-1.771 1.022-2.403 3.382-1.381 5.152zm-95.454-2.03 16.812 29.12c1.5 2.599 1.42 5.818-.208 8.34l-37.871 58.647 50.637-29.235c1.837-1.062 4.021-1.349 6.07-.8 2.05.55 3.797 1.89 4.858 3.728l39.403 68.248c1.429 2.476 1.429 5.524 0 8l-17.283 29.935 4.672 8.093 26.805-39.633c1.375-2.034 3.609-3.324 6.059-3.498l47.726-3.397-4.672-8.093-34.566.001c-2.858 0-5.499-1.524-6.928-4l-39.403-68.248c-2.209-3.826-.898-8.719 2.928-10.928l50.638-29.236-69.727 3.474c-2.995.152-5.826-1.391-7.326-3.99l-16.812-29.119c-3.472-6.013-11.188-8.081-17.202-4.61-6.014 3.47-8.082 11.188-4.61 17.201zm-199.063 133.499c19.264-.162 26.993 7.816 36.401 17.556 6.263 6.483 13.361 13.831 26.442 21.393 14.217 8.218 14.305 18.893 14.368 26.688.046 5.662.086 10.557 4.567 16.418 12.432 14.957 14.027 27.454 15.193 36.585.829 6.485 1.352 9.731 4.151 12.473.665-.361 1.568-1.258 1.833-2.093 2.114-10.422 5.21-14.396 9.032-18.497 2.39-2.564 4.65-4.991 6.949-14.979.274-25.3 16.367-30.308 25.062-33.012.895-.278 1.975-.614 2.861-.932-.718-1.777-2.541-5.271-7.165-11.571-2.305-3.142-4.254-6.236-6.139-9.228-5.224-8.293-8.422-13.009-13.423-13.487-12.888-1.236-19.943-5.593-25.094-8.774-5.711-3.527-7.849-4.848-17.409-1.146-19.032 7.366-28.603-.592-38.699-16.828-6.971-11.211-3.757-19.518-1.221-23.472 5.32-8.295 17.13-12.59 30.091-10.948.237.03.626.095 1.157.191 16.795 3.072 33.217-2.758 46.275-16.42 5.618-6.982 6.682-14.112 3.251-21.787-5.702-12.759-23.492-24.57-38.856-26.095-39.861 18.152-69.872 54.281-79.627 97.965zm58.847 148.059 7.558-9.72c1.516-1.949 3.846-3.089 6.315-3.089h11.943c-2.296-4.748-2.942-9.72-3.563-14.585-1.071-8.388-2.179-17.062-11.712-28.486-.064-.077-.127-.155-.188-.234-7.858-10.174-7.933-19.424-7.988-26.179-.057-6.975-.076-9.324-6.375-12.966-15.023-8.684-23.295-17.247-29.942-24.127-8.571-8.873-13.022-13.465-27.522-12.604-.507 4.861-.771 9.792-.771 14.785-.001 47.516 23.143 90.811 62.245 117.205zm-105.064-30.355v8.932h16.801v-8.932zm-11.566 38.991h39.933v-14.06h-39.933zm150.302 53.703c.167-.181.34-.368.512-.554l18.174-58.594h-34.571l-14.274 18.356c-1.516 1.949-3.847 3.089-6.315 3.089h-129.737l9.241 29.801c4.206 2.215 7.077 5.327 9.447 7.902 3.434 3.73 5.158 5.603 10.044 5.603s6.61-1.872 10.044-5.603c4.183-4.543 9.911-10.766 21.815-10.766s17.632 6.223 21.815 10.766c3.434 3.73 5.158 5.603 10.043 5.603 4.886 0 6.61-1.872 10.044-5.603 4.183-4.543 9.911-10.766 21.815-10.766s17.632 6.223 21.815 10.766c3.434 3.73 5.158 5.603 10.043 5.603s6.611-1.872 10.045-5.603zm83.036-43.107v-36.643c0-8.861 7.209-16.07 16.07-16.07h30.011c-11.55-14.502-17.568-27.469-18.265-39.336-.848-14.422 5.969-24.468 11.446-32.539 5.592-8.242 7.518-11.798 5.533-16.477-3.438-8.104-8.029-10.693-14.978-14.612-7.282-4.107-16.344-9.219-25.316-21.707-1.805-2.512-3.334-5.003-4.613-7.465l-18.34 10.589c-3.201 1.849-7.249 1.264-9.796-1.413-2.547-2.678-2.929-6.75-.925-9.854l14.171-21.946-7.453-12.909c-2.634-4.562-3.331-9.89-1.961-15s4.636-9.375 9.199-12.009 9.889-3.333 14.999-1.962c3.44.922 6.482 2.72 8.916 5.177l13.32-20.627c-18.53-8.585-38.937-13.099-59.507-13.099-11.555 0-22.786 1.403-33.544 4.029 12.627 6.613 23.529 16.902 28.57 28.181 5.921 13.249 3.913 26.982-5.657 38.671-.123.149-.25.294-.383.435-16.937 17.873-38.59 25.465-60.972 21.368l-.379-.067c-7.04-.87-12.907 1.204-14.523 3.724-1.104 1.721.12 4.422 1.34 6.385 8.941 14.378 11.56 13.365 19.337 10.355 15.761-6.101 23.035-2.829 31.592 2.455 4.442 2.743 9.036 5.58 18.213 6.46 13.067 1.253 19.638 11.684 25.435 20.888 1.736 2.756 3.531 5.604 5.5 8.288 7.827 10.665 12.534 19.302 10.068 26.791-2.248 6.828-8.715 8.84-13.912 10.457-8.06 2.507-13.882 4.317-13.817 18.602.002.593-.061 1.185-.189 1.765-3.057 13.817-6.814 18.706-11.052 23.255-2.23 2.393-3.704 3.975-5.099 10.984-.025.128-.054.255-.085.381-.209.834-.483 1.655-.815 2.455h4.37c2.542 0 4.933 1.208 6.44 3.255 1.508 2.046 1.954 4.688 1.2 7.115l-7.989 25.758c5.414.622 10.885.94 16.351.94 12.747-.002 25.33-1.695 37.489-5.028zm16 69.813 1.431.012c3.339-9.546 12.431-16.414 23.102-16.414 9.042 0 16.948 4.933 21.185 12.246 4.236-7.313 12.143-12.246 21.185-12.246 10.692 0 19.798 6.896 23.121 16.471h27.543v-19.192h-117.555zm33.003 8.07c0-4.671-3.8-8.471-8.471-8.471s-8.471 3.8-8.471 8.471 3.8 8.471 8.471 8.471 8.471-3.801 8.471-8.471zm42.37 0c0-4.671-3.8-8.471-8.471-8.471s-8.471 3.8-8.471 8.471 3.8 8.471 8.471 8.471 8.471-3.801 8.471-8.471zm89.732 0c0-4.671-3.8-8.471-8.471-8.471s-8.471 3.8-8.471 8.471 3.8 8.471 8.471 8.471 8.471-3.801 8.471-8.471zm20.592-8 .052-37.377h-52.182v37.219c3.367-9.494 12.434-16.313 23.067-16.313 10.692 0 19.799 6.896 23.121 16.471zm-438.879-198.321c4.418 0 8-3.582 8-8 0-105.699 85.993-191.691 191.692-191.691 4.418 0 8-3.582 8-8s-3.582-8-8-8c-114.522 0-207.692 93.17-207.692 207.691 0 4.418 3.581 8 8 8z"/></svg>