<svg id="Layer_1" enable-background="new 0 0 512 512" height="512" viewBox="0 0 512 512" width="512" xmlns="http://www.w3.org/2000/svg"><path d="m261.765 31.321c0-4.418 3.582-8 8-8h156.898l-1.302-1.017c-3.482-2.719-4.101-7.746-1.381-11.229 2.719-3.483 7.746-4.103 11.229-1.381l19.618 15.321c1.941 1.516 3.076 3.842 3.076 6.305s-1.135 4.789-3.076 6.305l-19.618 15.32c-1.462 1.143-3.196 1.695-4.918 1.695-2.379 0-4.733-1.056-6.311-3.076-2.72-3.482-2.102-8.51 1.381-11.229l1.301-1.016h-156.897c-4.418.002-8-3.58-8-7.998zm242.235 224.679c0 66.243-25.797 128.521-72.638 175.362s-109.119 72.638-175.362 72.638-128.521-25.797-175.362-72.638-72.638-109.119-72.638-175.362c0-4.418 3.582-8 8-8h480c4.418 0 8 3.582 8 8zm-343.679 8h-18.187c3.407 6.218 5.94 14.593 6.074 26.647.392 34.898 7.346 39.615 16.97 46.145 11.935 8.096 26.786 18.171 35.396 66.437 7.108 39.852 16.767 48.738 19.651 48.738.013 0 .024 0 .037-.001 3.466-.092 13.158-11.478 16.576-39.109 2.789-22.547 14.578-36.455 25.979-49.906 12.088-14.261 23.505-27.73 25.361-52.183.23-3.047-1.471-6.541-5.058-10.386-18.435-19.761-72.715-35.004-80.259-35.024-6.306.504-11.534 1.113-15.74 1.604-11.866 1.383-19.54 2.26-26.8-2.962zm265.647 149.731c-.822.045-1.64.073-2.449.073-5.904 0-11.43-1.207-15.835-3.765-7.677-4.458-10.955-12.372-8.769-21.17 5.021-20.206 4.255-30.104 3.443-40.584-.381-4.919-.774-10.006-.644-16.211.438-20.724-1.977-33.971-7.175-39.371-4.034-4.191-10.464-4.502-21.48-4.69-9.621-.165-20.526-.351-32.225-4.643-.573-.211-1.121-.485-1.632-.82-9.17-6.014-15.812-12.119-20.161-18.55h-65.529c15.341 6.409 30.476 14.627 39.938 24.053 7.709 7.681 11.303 15.73 10.681 23.926-2.248 29.628-16.519 46.463-29.108 61.317-10.787 12.727-20.103 23.717-22.306 41.525-3.941 31.866-16.514 52.725-32.028 53.139-.168.005-.338.007-.505.007-16.137 0-28.031-20.828-35.362-61.93-7.424-41.622-18.688-49.263-28.625-56.004-14.197-9.631-23.536-18.954-23.986-59.206-.172-15.406-4.638-21.377-10.225-26.827h-97.85c4.232 124.235 106.617 224 231.864 224 67.068 0 127.572-28.616 169.968-74.269zm61.896-149.731h-146.991c1.891 1.543 3.994 3.095 6.322 4.651 8.873 3.068 17.646 3.219 26.139 3.363 11.747.201 23.895.409 32.734 9.593 8.605 8.94 12.196 24.609 11.644 50.805-.114 5.417.232 9.896.6 14.638.874 11.288 1.778 22.959-3.868 45.679-.535 2.152.005 2.736 1.276 3.474 5.61 3.258 20.297 1.865 29.772-6.491 25.323-35.783 40.781-79.018 42.372-125.712zm16.136-113.702v58.066c0 8.566-6.97 15.536-15.537 15.536h-9.552c-3.454 11.607-14.218 20.099-26.932 20.099s-23.477-8.491-26.931-20.099h-102.632c-3.454 11.607-14.218 20.099-26.932 20.099s-23.477-8.491-26.932-20.099h-8.697c-3.454 11.607-14.218 20.099-26.932 20.099s-23.477-8.491-26.932-20.099h-19.711c-9.952 0-18.049-8.097-18.049-18.049v-136.168c0-9.952 8.097-18.049 18.049-18.049h202.811c9.952 0 18.049 8.097 18.049 18.049v14.2h56.35c8.447 0 15.94 4.79 19.09 12.203l19.933 46.934c1.015 2.393 1.487 4.705 1.487 7.278zm-258.978 65.602c0-6.671-5.428-12.098-12.099-12.098s-12.099 5.427-12.099 12.098 5.428 12.099 12.099 12.099 12.099-5.428 12.099-12.099zm62.561 0c0-6.671-5.428-12.098-12.099-12.098s-12.099 5.427-12.099 12.098 5.428 12.099 12.099 12.099 12.099-5.428 12.099-12.099zm14.833-8h68.725v-138.217c0-1.11-.938-2.049-2.049-2.049h-202.811c-1.11 0-2.049.938-2.049 2.049v136.169c0 1.11.938 2.049 2.049 2.049h19.711c3.454-11.607 14.218-20.098 26.932-20.098s23.477 8.491 26.932 20.098h8.697c3.454-11.607 14.218-20.098 26.932-20.098s23.477 8.49 26.931 20.097zm141.662 8c0-6.671-5.428-12.098-12.099-12.098s-12.098 5.427-12.098 12.098 5.427 12.099 12.098 12.099 12.099-5.428 12.099-12.099zm23.922-65.602c0-.384-.032-.597-.216-1.028l-19.931-46.929c-.654-1.539-2.285-2.458-4.363-2.458h-56.35v108.017h17.908c3.454-11.607 14.217-20.098 26.931-20.098s23.477 8.491 26.932 20.098h9.089zm-7.2-4.736c1.05 2.471.79 5.303-.691 7.542-1.481 2.238-3.987 3.585-6.672 3.585h-52.863c-4.418 0-8-3.582-8-8v-37.604c0-4.418 3.582-8 8-8h36.893c3.21 0 6.108 1.918 7.363 4.873zm-19.452-4.874-9.176-21.604h-23.599v21.604zm-228.424 68.365c-3.785 0-6.848 3.063-6.848 6.848 0 3.784 3.063 6.847 6.848 6.847 3.784 0 6.847-3.063 6.847-6.847 0-3.785-3.063-6.848-6.847-6.848zm219.056 0c-3.784 0-6.847 3.063-6.847 6.848 0 3.784 3.063 6.847 6.847 6.847s6.848-3.063 6.848-6.847c-.001-3.785-3.064-6.848-6.848-6.848zm-156.496 0c-3.784 0-6.847 3.063-6.847 6.848 0 3.784 3.063 6.847 6.847 6.847s6.848-3.063 6.848-6.847c0-3.785-3.063-6.848-6.848-6.848zm-23.193-131.261c-4.418 0-8 3.582-8 8v83.853c0 4.418 3.582 8 8 8s8-3.582 8-8v-83.853c0-4.418-3.582-8-8-8zm92.38 99.853c4.418 0 8-3.582 8-8v-83.853c0-4.418-3.582-8-8-8s-8 3.582-8 8v83.853c0 4.417 3.582 8 8 8zm-61.587-99.853c-4.418 0-8 3.582-8 8v83.853c0 4.418 3.582 8 8 8s8-3.582 8-8v-83.853c0-4.418-3.582-8-8-8zm-92.38 0c-4.418 0-8 3.582-8 8v83.853c0 4.418 3.582 8 8 8s8-3.582 8-8v-83.853c0-4.418-3.582-8-8-8zm123.173 99.853c4.418 0 8-3.582 8-8l.001-83.853c0-4.418-3.582-8-8-8s-8 3.582-8 8l-.001 83.853c0 4.417 3.582 8 8 8zm-92.379-99.853c-4.418 0-8 3.582-8 8l-.001 83.853c0 4.418 3.582 8 8 8s8-3.582 8-8l.001-83.853c0-4.418-3.582-8-8-8zm-174.763 148.501c-26.168-29.821-58.735-66.937-58.735-101.443 0-42.075 34.23-76.307 76.306-76.307s76.306 34.231 76.306 76.307c0 34.507-32.567 71.622-58.735 101.443-4.114 4.688-8 9.117-11.462 13.211-1.521 1.797-3.755 2.834-6.108 2.834s-4.588-1.037-6.108-2.834c-3.464-4.094-7.349-8.523-11.464-13.211zm-42.735-101.443c0 28.482 31.651 64.553 54.762 90.891 1.9 2.166 3.754 4.277 5.544 6.333 1.79-2.056 3.644-4.167 5.544-6.333 23.11-26.338 54.762-62.408 54.762-90.891 0-33.253-27.053-60.307-60.306-60.307s-60.306 27.054-60.306 60.307zm60.306 48.381c-26.679 0-48.383-21.704-48.383-48.382 0-26.679 21.704-48.383 48.383-48.383s48.383 21.704 48.383 48.383c-.001 26.678-21.705 48.382-48.383 48.382zm0-16c17.856 0 32.383-14.526 32.383-32.382s-14.526-32.383-32.383-32.383-32.383 14.526-32.383 32.383c0 17.856 14.526 32.382 32.383 32.382z"/></svg>