<svg id="Layer_1" height="512" viewBox="0 0 66 66" width="512" xmlns="http://www.w3.org/2000/svg"><g fill="none" stroke="#000" stroke-miterlimit="10" stroke-width="1.5"><g stroke-linecap="round" stroke-linejoin="round"><path d="m16.3 53.5c-.7 4.9-1.7 9.8-2.6 9.7-1.3-.1-1.8-4.8-2-10.6"/><path d="m21.1 63.4c-.2.4-.4.6-.7.6-1.1 0-1.9-5.2-2.3-10.3"/><path d="m34.3 25.4v.8.4.5 3.2"/><path d="m35.9 62.5c.3.9.7 1.5 1.1 1.5 2.6 0 3.5-21.3 3.6-24.5 0-.3 0-.4 0-.4s0 .1 0 .3c.3 3 2.5 23.8 4.7 23.6 4.2-.4 2-41.9 2-42.3 0 0 14.9-15.8 12.5-18.4-2.2-2.5-13 10.8-20.3 13.5-1.7.6-4.1.9-6.7.9"/><path d="m33.3 22.5c-.2 0-.4 0-.7 0z"/></g><circle cx="38.2" cy="7" r="5"/><path d="m20 50.8c-6.5-.3-14.5-2.6-14.1-5.6 0 0 7.7-17.2 7.6-23.3-.1-4.5-6-17.1-2.6-17.8 3.3-.6 6.1 14 10.1 16.7 2 1.4 6.8 1.5 11.1 1.6h.4.7 1.1" stroke-linecap="round" stroke-linejoin="round"/><path d="m25.1 37.2c-4.1-1.8-9.9-6.9-11.5-4.3-2 3 10 10.6 10 10.6" stroke-linecap="round" stroke-linejoin="round"/><path d="m40.7 39.4s-.1.1 0 0c0-.2 0-.3 0-.3s-.1.1 0 .3z" stroke-linecap="round" stroke-linejoin="round"/><path d="m28.4 52.8s1 11.2 3.2 11.2c3.3 0 2.6-22.7 2.6-22.7s9.3-7.6 7.3-10c-2.4-3-10.1 6.3-14 6.5-3.7.2-11.9-8.1-14-4.9-2 3 10 10.6 10 10.6s-2.2 20.5 2.1 20.5c2.8 0 2.8-11.2 2.8-11.2z" stroke-linecap="round" stroke-linejoin="round"/><circle cx="27.6" cy="30.8" r="3.7" stroke-linecap="round" stroke-linejoin="round"/><circle cx="25.7" cy="13.4" r="5"/></g></svg>