<svg id="Layer_1" enable-background="new 0 0 512 512" viewBox="0 0 512 512" xmlns="http://www.w3.org/2000/svg"><path d="m491.585 123.708c-4.871 0-6.792-3.725-7.265-4.866s-1.748-5.133 1.698-8.578c4.449-4.451 4.448-11.692-.001-16.143l-9.504-9.503c-2.156-2.157-5.023-3.346-8.073-3.346s-5.917 1.188-8.071 3.344c-3.444 3.445-7.436 2.169-8.578 1.696-1.141-.473-4.865-2.395-4.865-7.265 0-6.294-5.121-11.414-11.415-11.414h-13.441c-6.294 0-11.415 5.12-11.415 11.414 0 4.871-3.724 6.792-4.865 7.265s-5.133 1.748-8.577-1.695c-2.156-2.156-5.023-3.345-8.073-3.345s-5.917 1.188-8.071 3.344l-9.505 9.505c-4.45 4.45-4.45 11.691 0 16.145 3.444 3.443 2.169 7.436 1.696 8.576-.473 1.142-2.394 4.866-7.265 4.866-6.294 0-11.415 5.121-11.415 11.415v13.44c0 6.294 5.121 11.415 11.415 11.415 4.871 0 6.792 3.725 7.265 4.865.473 1.142 1.748 5.135-1.696 8.578-4.451 4.451-4.451 11.692 0 16.144l9.505 9.505c4.45 4.448 11.691 4.451 16.143 0 3.452-3.453 7.44-2.18 8.582-1.707 1.14.473 4.861 2.393 4.861 7.275 0 6.294 5.121 11.414 11.415 11.414h13.441c6.294 0 11.415-5.12 11.415-11.414 0-4.871 3.725-6.792 4.866-7.265s5.133-1.747 8.577 1.696c4.451 4.45 11.692 4.451 16.143 0l9.505-9.505c4.451-4.451 4.451-11.692 0-16.144-3.444-3.443-2.169-7.437-1.696-8.578s2.394-4.865 7.265-4.865c6.294 0 11.415-5.121 11.415-11.415v-13.44c-.001-6.292-5.122-11.414-11.416-11.414zm-2.585 22.416c-7.885.891-14.497 5.841-17.613 13.363-3.116 7.523-1.941 15.7 3.005 21.905l-6.054 6.053c-6.205-4.944-14.382-6.12-21.904-3.005-7.523 3.116-12.473 9.729-13.364 17.613h-8.56c-.89-7.893-5.838-14.509-13.359-17.624s-15.699-1.936-21.909 3.016l-6.053-6.053c4.946-6.205 6.121-14.382 3.005-21.905-3.116-7.522-9.728-12.473-17.613-13.363v-8.56c7.885-.891 14.498-5.841 17.614-13.364s1.94-15.7-3.006-21.904l6.054-6.053c6.205 4.945 14.381 6.121 21.905 3.004 7.522-3.115 12.472-9.728 13.363-17.612h8.56c.891 7.885 5.84 14.496 13.363 17.612 7.521 3.117 15.698 1.942 21.905-3.005l6.054 6.055c-4.946 6.204-6.122 14.38-3.006 21.903s9.729 12.474 17.614 13.364v8.56zm-60.21-43.573c-21.666 0-39.293 17.626-39.293 39.292s17.627 39.293 39.293 39.293 39.292-17.627 39.292-39.293-17.626-39.292-39.292-39.292zm0 64.585c-13.947 0-25.293-11.347-25.293-25.293s11.346-25.292 25.293-25.292c13.946 0 25.292 11.346 25.292 25.292s-11.346 25.293-25.292 25.293zm14.302 216.049h-11.926l8.855-61.795c.047-.329.071-.661.071-.993 0-23.865-14.92-44.297-35.916-52.497 3.286-4.315 5.243-9.694 5.243-15.524 0-14.157-11.518-25.675-25.674-25.675-14.157 0-25.675 11.518-25.675 25.675 0 5.83 1.957 11.209 5.243 15.524-20.996 8.2-35.916 28.633-35.916 52.497 0 .332.024.664.071.993l8.855 61.795h-32.902l8.855-61.795c.047-.329.071-.661.071-.993 0-23.865-14.92-44.297-35.917-52.498 3.287-4.315 5.243-9.694 5.243-15.524 0-14.157-11.518-25.675-25.674-25.675s-25.674 11.518-25.674 25.675c0 5.83 1.957 11.209 5.243 15.524-20.996 8.2-35.916 28.633-35.916 52.497 0 .332.024.664.071.993l8.855 61.795h-32.901l8.855-61.795c.047-.329.071-.661.071-.993 0-31.07-25.277-56.348-56.347-56.348s-56.348 25.277-56.348 56.348c0 .332.024.664.071.993l8.855 61.795h-11.927c-33.033.001-59.907 26.875-59.907 59.908s26.874 59.908 59.907 59.908h374.185c33.033 0 59.908-26.875 59.908-59.908s-26.875-59.907-59.908-59.907zm-71.023-130.81c0-6.438 5.237-11.675 11.675-11.675s11.674 5.237 11.674 11.675-5.237 11.674-11.674 11.674-11.675-5.236-11.675-11.674zm11.675 25.674c20.967 0 38.42 15.316 41.766 35.348h-83.532c3.345-20.032 20.799-35.348 41.766-35.348zm-41.273 49.348h82.546l-7.994 55.788h-66.557zm-98.146-75.022c0-6.438 5.237-11.675 11.674-11.675s11.674 5.237 11.674 11.675-5.237 11.674-11.674 11.674-11.674-5.236-11.674-11.674zm11.674 25.674c20.967 0 38.421 15.316 41.766 35.348h-83.532c3.346-20.032 20.799-35.348 41.766-35.348zm-41.273 49.348h82.546l-7.994 55.788h-66.558zm-86.471-49.348c20.967 0 38.42 15.316 41.766 35.348h-83.532c3.345-20.032 20.799-35.348 41.766-35.348zm-41.273 49.348h82.546l-7.994 55.788h-66.558zm356.11 161.603h-374.185c-25.314 0-45.907-20.594-45.907-45.908s20.594-45.907 45.907-45.907h374.185c25.313 0 45.908 20.594 45.908 45.907s-20.595 45.908-45.908 45.908zm52.908-480h-480c-3.866 0-7 3.134-7 7v28c0 3.866 3.134 7 7 7h105.254v47.983c-14.238 3.201-24.91 15.937-24.91 31.127 0 4.583.979 8.939 2.726 12.881l-27.718 23.816c-4.459 3.832-7.069 8.586-7.35 13.388-.176 3.016.473 7.546 4.571 11.997l32.115 34.887c.623.677 1.353 1.195 2.136 1.569 1.707 12.513 12.457 22.188 25.431 22.188s23.724-9.675 25.431-22.188c.783-.374 1.512-.892 2.136-1.569l32.114-34.887c4.099-4.451 4.748-8.981 4.571-11.999-.281-4.802-2.892-9.556-7.35-13.386l-27.718-23.815c1.747-3.943 2.726-8.299 2.726-12.883 0-15.19-10.672-27.927-24.91-31.127v-47.982h360.745c3.866 0 7-3.134 7-7v-28c0-3.866-3.134-7-7-7zm-367.745 227.836c-6.438 0-11.674-5.236-11.674-11.674s5.237-11.675 11.674-11.675 11.674 5.237 11.674 11.675-5.237 11.674-11.674 11.674zm50.276-55.824c.026.453-.274 1.024-.895 1.698l-27.2 29.548c-4.456-7.63-12.727-12.771-22.182-12.771s-17.726 5.141-22.182 12.771l-27.2-29.548c-.62-.674-.921-1.245-.895-1.697.041-.699.72-2.059 2.499-3.586l26.959-23.164c5.593 4.828 12.868 7.758 20.819 7.758s15.226-2.93 20.819-7.757l26.96 23.164c1.779 1.527 2.457 2.885 2.498 3.584zm-32.366-50.901c0 9.876-8.034 17.91-17.91 17.91-9.875 0-17.91-8.034-17.91-17.91s8.034-17.91 17.91-17.91 17.91 8.034 17.91 17.91zm-24.955-93.111v-14h14.09v14zm-98.21-14h84.21v14h-84.21zm466 14h-339.7v-14h339.7zm-45.91 374.03h-374.181c-17.595 0-31.91 14.314-31.91 31.91s14.315 31.91 31.91 31.91h374.181c17.595 0 31.91-14.314 31.91-31.91s-14.315-31.91-31.91-31.91zm-205.001 31.91c0-9.876 8.034-17.91 17.91-17.91s17.91 8.034 17.91 17.91-8.034 17.91-17.91 17.91c-9.875 0-17.91-8.034-17.91-17.91zm-8.485 17.91h-134.3c3.478-5.11 5.515-11.276 5.515-17.91s-2.037-12.8-5.515-17.91h134.3c-3.478 5.11-5.515 11.276-5.515 17.91s2.037 12.8 5.515 17.91zm52.79-35.82h134.3c-3.478 5.11-5.515 11.276-5.515 17.91s2.037 12.8 5.515 17.91h-134.3c3.478-5.11 5.515-11.276 5.515-17.91s-2.036-12.8-5.515-17.91zm-231.395 17.91c0-9.876 8.034-17.91 17.91-17.91s17.91 8.034 17.91 17.91-8.034 17.91-17.91 17.91-17.91-8.034-17.91-17.91zm392.091 17.91c-9.876 0-17.91-8.034-17.91-17.91s8.034-17.91 17.91-17.91 17.91 8.034 17.91 17.91-8.034 17.91-17.91 17.91zm7-17.91c0 3.866-3.134 7-7 7s-7-3.134-7-7 3.134-7 7-7 7 3.134 7 7zm-321.835-319.829c3.866 0 7 3.134 7 7s-3.134 7-7 7-7-3.134-7-7 3.134-7 7-7zm-52.346 319.829c0 3.866-3.134 7-7 7s-7-3.134-7-7 3.134-7 7-7 7 3.134 7 7zm187.09 0c0 3.866-3.134 7-7 7s-7-3.134-7-7 3.134-7 7-7 7 3.134 7 7z"/></svg>