<?xml version="1.0" encoding="iso-8859-1"?>
<!-- Generator: Adobe Illustrator 19.0.0, SVG Export Plug-In . SVG Version: 6.00 Build 0)  -->
<svg version="1.1" id="Capa_1" xmlns="http://www.w3.org/2000/svg" xmlns:xlink="http://www.w3.org/1999/xlink" x="0px" y="0px"
	 viewBox="0 0 512 512" style="enable-background:new 0 0 512 512;" xml:space="preserve">
<g>
	<g>
		<path d="M479.499,60.944c-8.975,0-17.037,3.959-22.549,10.216c-5.512-6.257-13.575-10.216-22.55-10.216
			c-8.975,0-17.037,3.959-22.549,10.216c-5.512-6.257-13.575-10.216-22.55-10.216c-8.98,0-17.046,3.963-22.558,10.226
			c-3.922-4.453-9.122-7.754-15.037-9.276V42.135c0-21.42-17.427-38.857-38.847-38.857h-67.915
			c-21.42,0-38.847,17.437-38.847,38.857v18.808c-7.137,0.3-9.686-0.899-12.812,1.972l-54.572,49.988
			c-2.182,1.992-3.824,4.484-4.805,7.217h-9.739c-3.243-6.286-9.799-10.6-17.357-10.6H74.141c-10.76,0-19.519,8.758-19.519,19.519
			v45.564c0,10.76,8.758,19.519,19.519,19.519h32.671c7.547,0,14.114-4.304,17.347-10.59h10.88c0.881,1.602,2.002,3.073,3.343,4.364
			c56.184,53.566,55.018,54.802,59.977,54.802h145.84c8.977,0,17.039-3.959,22.552-10.215c12.013,13.638,33.114,13.609,45.1,0.002
			c12.014,13.637,33.114,13.605,45.099,0c8.18,9.285,20.686,12.29,31.642,8.813c3.952-1.253,6.14-5.473,4.887-9.426
			c-1.254-3.953-5.474-6.139-9.426-4.886c-9.669,3.068-19.596-4.177-19.596-14.343c0-11.29,0-105.944,0-121.642
			c0-8.295,6.747-15.042,15.041-15.042s15.041,6.747,15.041,15.042v120.115c0,4.146,3.36,7.507,7.507,7.507s7.507-3.361,7.507-7.507
			V91.001C509.555,74.427,496.071,60.944,479.499,60.944z M111.317,174.602c0,2.442-2.062,4.504-4.504,4.504
			c-8.457,0-24.711,0-32.671,0c-2.442,0-4.504-2.062-4.504-4.504v-45.564c0-2.442,2.062-4.504,4.504-4.504
			c7.974,0,24.221,0,32.671,0c2.442,0,4.504,2.062,4.504,4.504C111.317,143.106,111.317,160.525,111.317,174.602z M132.797,168.516
			h-6.466v-33.382h6.466V168.516z M190.853,85.508v132.046c-45.38-43.675-43.041-40.664-43.041-42.792c0-9.003,0-36.701,0-48.416
			c0-0.901,0.38-1.762,1.041-2.362c32.943-30.179,40.349-36.963,41.731-38.23c-0.001,0.001-0.003,0.002-0.004,0.003
			c0.001-0.001,0.005-0.005,0.007-0.006c0.018-0.017,0.047-0.043,0.082-0.076c-0.018,0.016-0.033,0.03-0.046,0.042
			c0.024-0.022,0.044-0.04,0.063-0.058c-0.006,0.005-0.012,0.011-0.018,0.016c0.012-0.011,0.025-0.023,0.039-0.035
			c0.004-0.004,0.008-0.008,0.012-0.011c-0.002,0.002-0.004,0.004-0.006,0.006c0.024-0.022,0.053-0.048,0.084-0.077
			c-0.001,0.001-0.001,0.001-0.001,0.001c0.001-0.001,0.003-0.003,0.005-0.005c0.008-0.007,0.016-0.014,0.024-0.022
			c-0.002,0.002-0.005,0.004-0.007,0.007c0.019-0.017,0.031-0.028,0.039-0.035C190.856,85.505,190.854,85.507,190.853,85.508z
			 M221.112,42.135c0-13.143,10.69-23.843,23.833-23.843h67.915c13.143,0,23.833,10.7,23.833,23.843v18.808h-6.266V42.135
			c0-9.689-7.878-17.577-17.567-17.577h-67.915c-9.689,0-17.567,7.888-17.567,17.577v18.808h-6.266V42.135z M315.412,42.135v18.808
			h-73.02V42.135c0-1.411,1.141-2.562,2.552-2.562h67.915C314.271,39.573,315.412,40.724,315.412,42.135z M359.244,212.648
			c0,5.555-3.033,10.42-7.537,13.032c-4.822,2.771-6.526,2.002-33.512,2.002H205.867V75.958h0.23
			c150.29,0,140.648-0.862,145.609,2.012c4.504,2.603,7.537,7.467,7.537,13.032V212.648z M404.344,212.643
			c0,8.295-6.747,15.042-15.042,15.042c-8.294,0-15.041-6.747-15.041-15.042V91.001c0-8.295,6.747-15.042,15.042-15.042
			c8.294,0,15.041,6.747,15.041,15.042V212.643z M449.443,212.643c0,8.295-6.747,15.042-15.042,15.042
			c-8.294,0-15.041-6.747-15.041-15.042V91.001h0c0-8.295,6.747-15.042,15.041-15.042c8.295,0,15.042,6.747,15.042,15.042
			C449.443,116.434,449.443,187.96,449.443,212.643z"/>
	</g>
</g>
<g>
	<g>
		<path d="M484.474,420.377h-32.551c-4.144,0-7.507,3.353-7.507,7.507c0,4.144,3.363,7.507,7.507,7.507h32.551
			c6.897,0,12.512,5.605,12.512,12.512v0.14c0,6.907-5.615,12.512-12.512,12.512H358.553c4.935-7.747,8.859-16.195,11.601-25.164
			h51.74c4.144,0,7.507-3.363,7.507-7.507c0-4.154-3.363-7.507-7.507-7.507h-48.346c1.224-8.224,1.066-14.091,1.121-15.635
			c0-9.659-7.857-17.517-17.517-17.517H17.517C7.858,387.226,0,395.083,0,404.742v0.38c0,57.125,46.474,103.599,103.599,103.599
			h167.47c29.949,0,56.965-12.772,75.883-33.152h137.522c15.174,0,27.526-12.342,27.526-27.526v-0.14
			C512,432.719,499.648,420.377,484.474,420.377z M271.069,493.707h-167.47c-48.847,0-88.585-39.738-88.585-88.585v-0.38
			c0-1.381,1.121-2.502,2.502-2.502h339.635c1.381,0,2.502,1.121,2.502,2.502c-0.066,1.567,0.171,7.1-1.311,15.635
			C351.129,461.814,314.835,493.707,271.069,493.707z"/>
	</g>
</g>
<g>
	<g>
		<path d="M111.302,284.331l-4.874-8.236c-2.111-3.567-6.713-4.75-10.284-2.638c-3.568,2.111-4.75,6.715-2.638,10.284
			c2.843,5.729,9.803,12.875,9.803,26.046c0,18.482-14.511,35.625-35.8,34.891c-26.408-0.892-41.483-30.231-28.186-52.702
			l28.97-48.959c0.254-0.429,0.861-0.431,1.116,0l8.804,14.879c2.112,3.569,6.718,4.75,10.284,2.638
			c3.568-2.111,4.75-6.715,2.638-10.284l-8.805-14.881c-2.849-4.813-7.888-7.685-13.479-7.685c-5.592,0-10.631,2.874-13.479,7.686
			l-28.97,48.959c-19.328,32.663,3.256,75.387,42.45,75.387C108.084,359.716,130.603,316.948,111.302,284.331z"/>
	</g>
</g>
<g>
</g>
<g>
</g>
<g>
</g>
<g>
</g>
<g>
</g>
<g>
</g>
<g>
</g>
<g>
</g>
<g>
</g>
<g>
</g>
<g>
</g>
<g>
</g>
<g>
</g>
<g>
</g>
<g>
</g>
</svg>
