<svg id="Artboard_30" height="512" viewBox="0 0 64 64" width="512" xmlns="http://www.w3.org/2000/svg" data-name="Artboard 30"><path d="m58.712 4.2c-4.332-3.834-10.812-.472-18.312 3.548a25.971 25.971 0 0 0 -23.754 2.6l.108-.332a15.943 15.943 0 0 1 .646-1.593l.171-.384a5.044 5.044 0 0 0 .271-3.279 4.953 4.953 0 0 0 -3.657-3.6 5.025 5.025 0 0 0 -4.291.94 5 5 0 0 0 -1.271 6.337 9.078 9.078 0 0 1 .622 1.578l1.755 5.41a25.951 25.951 0 0 0 -4.278 25.9c-7.245 10.282-4.722 15.091-1.679 18.132a12.5 12.5 0 0 0 8.985 3.56q.441 0 .888-.027c3.135-.184 7.424-1.408 12.673-5.224a26.3 26.3 0 0 0 3.411.234 25.982 25.982 0 0 0 25.192-32.411c5.073-7.813 8.785-15.844 2.52-21.389zm-1.326 1.5c5.876 5.2.834 13.562-6.368 23.955a1.851 1.851 0 0 1 -1.235.777 1.887 1.887 0 0 1 -1.837-2.965c7.124-10.12 9.212-15.723 6.769-18.167-1.409-1.409-4.557-1.117-9.573.86a25.7 25.7 0 0 0 -2.42-1.379c7.116-3.75 11.761-5.65 14.664-3.081zm-12.4 13.684a5.189 5.189 0 0 0 -.138-1.624 4.953 4.953 0 0 0 -3.657-3.6 4.992 4.992 0 0 0 -5.643 7.115l-1.437.288a3.876 3.876 0 0 0 -3.111 3.787v5.462a3.84 3.84 0 0 0 1.133 2.735l1.8 1.8-3.145.673a1 1 0 0 0 -.469 1.712l3.184 2.94a67.44 67.44 0 0 1 -15.892 11.235 23.9 23.9 0 0 1 -10.592-19.3l.734-.367a3.007 3.007 0 0 1 4.3 2.1l.613 3.063a5 5 0 0 0 2.426 3.367l2.758 1.576a5.009 5.009 0 0 0 6.026-7.891l-.991-.991a3.028 3.028 0 0 1 -.885-2.124v-4.934a3.017 3.017 0 0 1 .66-1.88l2.241-2.8a5.024 5.024 0 0 0 1.1-3.13v-2.936a3.028 3.028 0 0 1 .881-2.127l5.49-5.49a23.809 23.809 0 0 1 15.648 7.039l-1.449 3.381a1.365 1.365 0 0 1 -.987.8zm-7.986-.366a3 3 0 0 1 5.9-.78 3.065 3.065 0 0 1 -.157 1.992l-.167.374a17.5 17.5 0 0 0 -.727 1.8l-1.882 5.596-1.819-5.6a10.628 10.628 0 0 0 -.775-1.93 3 3 0 0 1 -.373-1.452zm-26.713 28.7a26.017 26.017 0 0 0 5.155 5.112c-2.795 1.024-4.837 1.124-5.735.227-.651-.657-.448-2.457.58-5.342zm36.789-36.158c3.8-1.362 5.728-1.342 6.225-.845.562.562.855 2.093-1.148 6.162a26.1 26.1 0 0 0 -5.077-5.317zm-17.556-3.494-4.053 4.053a5.039 5.039 0 0 0 -1.467 3.541v2.934a3.017 3.017 0 0 1 -.66 1.88l-2.241 2.8a5.024 5.024 0 0 0 -1.1 3.13v1.448c-.05-.01-.1-.014-.151-.025l-.428 1.953c.191.042.386.065.579.095v1.465a5.039 5.039 0 0 0 1.467 3.541l.991.991a3.009 3.009 0 0 1 -3.62 4.74l-2.757-1.575a3.007 3.007 0 0 1 -1.457-2.022l-.613-3.065a5 5 0 0 0 -6.936-3.59 24.006 24.006 0 0 1 4.926-12.978v.618h2v-1.282a2.066 2.066 0 0 0 .936-1.1l.649-2a23.981 23.981 0 0 1 13.935-5.552zm-19.52-2.048a3 3 0 0 1 5.9-.78 3.065 3.065 0 0 1 -.157 1.992l-.167.374a17.5 17.5 0 0 0 -.724 1.796l-1.885 5.6-1.819-5.6a10.628 10.628 0 0 0 -.775-1.93 3 3 0 0 1 -.373-1.452zm4.8 54.975a10.679 10.679 0 0 1 -8.341-2.95c-2.667-2.667-4.3-6.3 1.212-14.562.375.763.782 1.51 1.231 2.232-1.408 3.54-2.375 6.987-.607 8.755 4.214 4.214 17.244-3.589 27.369-13.065a1 1 0 0 0 -.005-1.465l-2.559-2.365 10.818-2.317-.772 11.591-3.178-2.934a1 1 0 0 0 -1.464.115c-10.647 13.495-18.768 16.672-23.704 16.965zm16.2-4.993c-.364 0-.728-.023-1.093-.04a69.357 69.357 0 0 0 9.493-9.849l3.925 3.623a1 1 0 0 0 1.675-.668l.494-7.412.253.064a2.317 2.317 0 0 1 1.19.726l3.348 3.826a23.98 23.98 0 0 1 -19.285 9.73zm24-24a23.854 23.854 0 0 1 -3.558 12.558l-3-3.43a4.3 4.3 0 0 0 -2.211-1.351l-.6-.15.369-5.561a1 1 0 0 0 -.344-.822.982.982 0 0 0 -.864-.222l-8.528 1.828-2.717-2.717a1.854 1.854 0 0 1 -.547-1.321v-.812h.62v-2h-.62v-2.65a1.87 1.87 0 0 1 1.5-1.83l1.792-.359 1.783 5.491a2.047 2.047 0 0 0 3.86-.033l1.818-5.6a14.872 14.872 0 0 1 .593-1.467l1.631-.325a3.362 3.362 0 0 0 2.431-1.975l1.09-2.542a24.591 24.591 0 0 1 1.591 2.177c-1.117 1.983-2.656 4.416-4.778 7.431a3.885 3.885 0 0 0 3.155 6.141 3.931 3.931 0 0 0 .638-.052 3.834 3.834 0 0 0 2.557-1.611c.656-.947 1.321-1.908 1.979-2.876a24.2 24.2 0 0 1 .36 4.08z"/><path d="m12 5.018h2v2h-2z"/><path d="m39 18.018h2v2h-2z"/><path d="m14 20.555v-.555h-2v.555a9.5 9.5 0 0 0 .137 1.607l1.97-.338a7.592 7.592 0 0 1 -.107-1.269z"/><path d="m27.62 28h2v2h-2z"/><path d="m35.62 28h2v2h-2z"/><path d="m17.312 29.05.875-1.8a7.407 7.407 0 0 1 -1.477-.95l-1.273 1.541a9.446 9.446 0 0 0 1.875 1.209z"/><path d="m23.62 28h2v2h-2z"/><path d="m12.773 24.3a9.435 9.435 0 0 0 1.127 1.93l1.6-1.2a7.464 7.464 0 0 1 -.884-1.519z"/></svg>