<svg id="Capa_1" enable-background="new 0 0 512.096 512.096" height="512" viewBox="0 0 512.096 512.096" width="512" xmlns="http://www.w3.org/2000/svg"><g><g id="Page-1_49_"><g id="_x30_50---Parcel-Conveyor-Sorting" transform="translate(0 -1)"><path id="Shape_269_" d="m443.781 265.629h-69.837c1.011-2.733 1.542-5.62 1.57-8.533v-8.533h4.267c16.495 0 29.867-13.372 29.867-29.867s-13.372-29.867-29.867-29.867h-4.267v-25.6c0-14.139-11.462-25.6-25.6-25.6h-93.867c-5.456.016-10.762 1.79-15.13 5.06-6.34-13.407-16.851-24.4-29.961-31.334 22.573-14.14 33.057-41.518 25.7-67.118-7.354-25.601-30.772-43.237-57.408-43.237s-50.054 17.636-57.41 43.237 3.127 52.978 25.7 67.118c-22.461 11.781-36.539 35.044-36.557 60.407v93.867h-42.666c-35.886.213-65.48 28.173-67.728 63.989s23.618 67.257 59.195 71.956v85.922c0 14.138 11.462 25.6 25.6 25.6h341.333c14.138 0 25.6-11.461 25.6-25.6v-85.922c35.577-4.698 61.443-36.14 59.195-71.956-2.249-35.816-31.843-63.776-67.729-63.989zm-64-59.733c7.069 0 12.8 5.731 12.8 12.8s-5.731 12.8-12.8 12.8h-4.267v-25.6zm-21.333-42.667v93.867c0 4.713-3.821 8.533-8.533 8.533h-93.867c-4.713 0-8.533-3.821-8.533-8.533v-8.533h4.267c11.608-.036 22.144-6.795 27.017-17.331 4.156.44 8.328-.669 11.716-3.115l12.467-10.351 13.013 10.778c5.008 3.51 11.556 3.931 16.973 1.092 5.137-2.62 8.383-7.887 8.414-13.653v-61.286h8.533c2.263 0 4.434.899 6.034 2.499s2.499 3.77 2.499 6.033zm-76.8-8.533h42.667v58.607l-11.947-9.899c-5.867-3.999-13.626-3.827-19.311.427l-11.409 9.463zm-34.133 8.533c0-4.713 3.821-8.533 8.533-8.533h8.533v37.129c-3.988-1.947-8.363-2.97-12.8-2.995h-4.267v-25.601zm-110.934-102.4c0-23.564 19.103-42.667 42.667-42.667s42.667 19.103 42.667 42.667-19.103 42.667-42.667 42.667c-23.553-.028-42.639-19.114-42.667-42.667zm-8.533 110.933c0-28.277 22.923-51.2 51.2-51.2s51.2 22.923 51.2 51.2v17.067h-59.733v-34.133c0-4.713-3.82-8.533-8.533-8.533s-8.533 3.821-8.533 8.533v42.667c0 4.713 3.821 8.533 8.533 8.533h89.6c7.069 0 12.8 5.731 12.8 12.8s-5.731 12.8-12.8 12.8h-93.867c-16.495 0-29.867-13.372-29.867-29.867zm0 66.04c8.395 6.962 18.961 10.768 29.867 10.761h72.533v17.067h-102.4zm298.667 258.227h-341.334c-4.713 0-8.533-3.82-8.533-8.533v-51.2h51.2c4.713 0 8.533-3.82 8.533-8.533s-3.821-8.533-8.533-8.533h-51.2v-17.067h358.4v17.067h-256c-4.713 0-8.533 3.82-8.533 8.533s3.821 8.533 8.533 8.533h256v51.2c0 4.713-3.821 8.533-8.533 8.533zm17.066-110.933h-375.466c-28.277 0-51.2-22.923-51.2-51.2s22.923-51.2 51.2-51.2h375.467c28.277 0 51.2 22.923 51.2 51.2s-22.924 51.2-51.201 51.2z"/><path id="Shape_268_" d="m443.781 299.763c-18.851 0-34.133 15.282-34.133 34.133s15.282 34.133 34.133 34.133 34.133-15.282 34.133-34.133c.001-18.852-15.281-34.133-34.133-34.133zm0 51.199c-9.426 0-17.067-7.641-17.067-17.067s7.641-17.067 17.067-17.067 17.067 7.641 17.067 17.067-7.641 17.067-17.067 17.067z"/><path id="Shape_267_" d="m349.915 299.763c-18.851 0-34.133 15.282-34.133 34.133s15.282 34.133 34.133 34.133 34.133-15.282 34.133-34.133c0-18.852-15.282-34.133-34.133-34.133zm0 51.199c-9.426 0-17.067-7.641-17.067-17.067s7.641-17.067 17.067-17.067 17.067 7.641 17.067 17.067-7.642 17.067-17.067 17.067z"/><path id="Shape_266_" d="m256.048 299.763c-18.851 0-34.133 15.282-34.133 34.133s15.282 34.133 34.133 34.133 34.133-15.282 34.133-34.133c0-18.852-15.282-34.133-34.133-34.133zm0 51.199c-9.426 0-17.067-7.641-17.067-17.067s7.641-17.067 17.067-17.067 17.067 7.641 17.067 17.067-7.641 17.067-17.067 17.067z"/><path id="Shape_265_" d="m162.181 299.763c-18.851 0-34.133 15.282-34.133 34.133s15.282 34.133 34.133 34.133 34.133-15.282 34.133-34.133c.001-18.852-15.281-34.133-34.133-34.133zm0 51.199c-9.426 0-17.067-7.641-17.067-17.067s7.641-17.067 17.067-17.067 17.067 7.641 17.067 17.067-7.641 17.067-17.067 17.067z"/><path id="Shape_264_" d="m68.315 299.763c-18.851 0-34.133 15.282-34.133 34.133s15.282 34.133 34.133 34.133 34.133-15.282 34.133-34.133c0-18.852-15.282-34.133-34.133-34.133zm0 51.199c-9.426 0-17.067-7.641-17.067-17.067s7.641-17.067 17.067-17.067 17.067 7.641 17.067 17.067-7.642 17.067-17.067 17.067z"/></g></g></g></svg>