<svg id="Layer_1" enable-background="new 0 0 1024 1024" viewBox="0 0 1024 1024" xmlns="http://www.w3.org/2000/svg"><g><g><path d="m854.86 199.02c-3.57 0-6.64-2.51-7.35-6.01l-2.23-10.95c-1.49-7.31-7.17-13-14.49-14.49l-10.95-2.23c-3.5-.71-6.01-3.78-6.01-7.35s2.51-6.64 6.01-7.35l10.95-2.23c7.31-1.49 13-7.17 14.49-14.49l2.23-10.95c.71-3.49 3.78-6.01 7.35-6.01 3.57 0 6.64 2.51 7.35 6.01l2.23 10.95c1.49 7.31 7.17 13 14.49 14.49l10.95 2.23c3.49.71 6.01 3.78 6.01 7.35s-2.51 6.64-6.01 7.35l-10.95 2.23c-7.31 1.49-13 7.17-14.49 14.49l-2.23 10.95c-.71 3.5-3.78 6.01-7.35 6.01zm-8.89-41.02c3.5 2.38 6.52 5.39 8.89 8.89 2.38-3.5 5.39-6.52 8.89-8.89-3.5-2.38-6.52-5.39-8.89-8.89-2.37 3.5-5.39 6.52-8.89 8.89z"/></g><g><path d="m763.17 891.4c-2.47 0-4.86-1.23-6.29-3.4-14.06-21.56-23.76-46.58-28.33-72.54-4.29 7.26-9.22 14.25-14.14 21.02-10.4 14.28-19.66 28.37-18.8 43.6.19 3.37-1.89 6.44-5.08 7.52s-6.71-.1-8.61-2.89c-16.9-24.87-19.58-55.79-7.95-91.9 5.23-16.25 12.41-31.68 19.36-46.6 4.85-10.43 9.87-21.21 14.09-32.02 11.96-30.64 14.76-57.18 8.32-78.89-4.58-15.46-13.78-28.93-23.51-43.2-12.38-18.14-25.18-36.9-27.79-60.19-2.06-18.42 2.73-36.28 7.37-53.56 5.04-18.77 9.8-36.51 5.68-53.6-5.27-21.83-23.99-37.03-42.09-51.73-2.92-2.37-5.95-4.83-8.86-7.27-37.19-31.16-67.08-72.17-86.44-118.59-5.08-12.18-3.71-26.52 3.57-37.43 20.23-30.3 50.29-50.55 84.65-57.03 38.37-7.23 79.64 3.74 110.39 29.37 30.14 25.12 49.19 62.25 65.99 95.01 19.19 37.41 40.94 79.81 41.34 126.73.13 15.98-2.28 31.86-4.61 47.22-3.18 20.91-6.18 40.66-3.19 60.3 1.96 12.88 6.42 25.05 11.14 37.93 2.4 6.55 4.88 13.33 7 20.2 8.21 26.63 7.97 48.96-.72 66.35-4.11 8.22-9.94 15.01-15.59 21.58-7.44 8.65-14.46 16.83-16.11 26.9-1.67 10.18 2.38 20.62 6.66 31.68 1.69 4.36 3.44 8.87 4.86 13.45 9.95 32.13 1.96 70.17-19.87 94.65-2.26 2.54-5.95 3.24-8.98 1.7-3.03-1.53-4.66-4.92-3.95-8.24 2.78-13.16.6-27.5-5.38-39.47-.59 8.24-2.08 16.42-4.43 24.14-2.78 9.13-6.63 17.7-10.37 26-2.23 4.97-4.54 10.1-6.53 15.18-6.03 15.42-7.83 28.15-5.49 38.93.77 3.54-1.1 7.12-4.44 8.51-.92.39-1.91.58-2.87.58zm-207.02-673.34c-4.53 6.79-5.38 15.73-2.21 23.33 18.44 44.22 46.87 83.25 82.23 112.87 2.82 2.36 5.8 4.78 8.68 7.12 19.1 15.51 40.75 33.1 47.21 59.85 5.02 20.81-.46 41.24-5.77 61.01-4.47 16.66-8.7 32.4-6.95 47.99 2.2 19.59 13.41 36.02 25.27 53.41 9.96 14.59 20.25 29.68 25.5 47.39 7.4 24.97 4.46 54.79-8.73 88.6-4.39 11.25-9.51 22.25-14.46 32.89-6.75 14.51-13.74 29.51-18.68 44.87-7.17 22.29-8.24 42.09-3.23 59.16 4.14-10.27 10.65-19.81 17.28-28.92 10.21-14.02 20.43-29 23.45-44.29.74-3.76 4.2-6.35 8.02-6.02 3.82.34 6.77 3.5 6.84 7.33.44 24.51 5.97 49.04 15.86 71.21 1.25-5.69 3.1-11.67 5.57-17.97 2.12-5.42 4.51-10.73 6.82-15.86 3.7-8.23 7.2-16 9.69-24.21 4.01-13.17 5.11-27.88 3.1-41.41-.46-3.09 1.04-6.14 3.77-7.66 2.73-1.51 6.11-1.19 8.49.83 12.61 10.68 21.01 26.38 23.9 43.15 7.77-18.29 9.28-39.81 3.37-58.9-1.27-4.09-2.84-8.16-4.52-12.47-4.82-12.44-9.81-25.31-7.48-39.53s11.08-24.4 19.53-34.25c5.28-6.15 10.27-11.96 13.55-18.51 6.91-13.82 6.84-32.4-.2-55.22-2-6.5-4.42-13.09-6.75-19.46-4.77-13.01-9.69-26.46-11.88-40.83-3.34-21.9-.02-43.72 3.19-64.81 2.25-14.77 4.57-30.05 4.44-44.83-.37-43.37-21.25-84.09-39.68-120.01-16.15-31.49-34.46-67.17-62.25-90.33-27.35-22.79-63.99-32.57-98.01-26.16-30.37 5.75-56.99 23.73-74.96 50.64z"/></g><g><path d="m457.45 637.61-13.93-5.55c5.21-13.09 4.44-26.66 2.65-32.59-.91-3.02-1.99-5.99-3.14-9.13-1.73-4.75-3.52-9.66-4.74-14.91-3.77-16.1-1.61-33.7 5.94-48.27l.18-.35c.5-.96.97-1.88 1.38-2.76 17.08-36.98 17.15-51.04 17.31-88.62.02-4.22.04-8.71.08-13.55.07-7.76-.14-15.73-.34-23.43-.39-14.69-.79-29.87.69-44.95 1.91-19.53 8.15-46.71 26.99-65.28 5.07-5 9.68-7.27 14.13-9.47 5.14-2.54 9.99-4.93 16.84-12.31 5.81-6.26 15.57-19.23 15.57-35.85h15c0 21.74-12.27 38.19-19.58 46.06-8.73 9.39-15.64 12.8-21.19 15.54-3.85 1.9-6.89 3.4-10.24 6.7-15.64 15.41-20.92 38.99-22.59 56.06-1.38 14.15-1 28.86-.62 43.09.21 7.83.42 15.94.34 23.96-.04 4.81-.06 9.28-.08 13.47-.17 38.83-.24 54.91-18.69 94.85-.55 1.19-1.12 2.3-1.68 3.37l-.18.35c-5.93 11.45-7.62 25.28-4.66 37.96 1.02 4.37 2.58 8.66 4.24 13.2 1.16 3.2 2.37 6.5 3.4 9.92 2.97 9.85 3.17 26.8-3.08 42.49z"/></g><g><path d="m411.89 408.67-14.92-1.52c.76-7.46.68-15 .6-22.98-.12-11.22-.24-22.83 2.15-34.33 3.24-15.62 10.71-29.23 17.93-42.39 5.39-9.82 10.48-19.09 13.92-29.1 2.79-8.11 4.74-16.43 6.81-25.25 2.67-11.4 5.44-23.19 10.17-34.38 13.74-32.54 34.2-52.82 59.16-58.65 26.52-6.21 55.06-.06 76.34 16.45l-9.19 11.85c-17.75-13.76-41.58-18.88-63.73-13.69-20.1 4.7-36.96 21.95-48.76 49.88-4.23 10.02-6.73 20.68-9.38 31.97-2.06 8.79-4.19 17.88-7.23 26.7-3.86 11.22-9.5 21.5-14.95 31.44-7 12.75-13.61 24.8-16.4 38.23-2.06 9.92-1.96 20.22-1.84 31.12.07 8.04.16 16.35-.68 24.65z"/></g><g><path d="m485.72 849.05c-.22 0-.45-.01-.67-.03-2.55-.23-4.81-1.75-5.99-4.02-4.22-8.15-5.69-18.32-4.51-31.1.34-3.7.86-7.36 1.35-10.89.78-5.56 1.52-10.81 1.61-16.04.19-10.73-2.29-22.36-7.37-34.68-9.38 12.01-17.29 29.81-21.95 40.31l-1.16 2.61c-1.39 3.1-4.68 4.88-8.03 4.34s-5.92-3.26-6.27-6.64c-2.04-19.81-6.88-43.35-12.34-59.96-4.04-12.3-6.39-23.58-7.05-33.75l-12.84-6.77c4.7-8.93 10.75-16.75 17.96-23.26 2.54-2.29 6.3-2.57 9.15-.69s4.07 5.45 2.97 8.68c-4.25 12.43-2.84 30.1 4.06 51.09 3.55 10.8 6.85 24.35 9.37 38.02 6.23-12.12 14.21-25.1 23.46-32.94 1.75-1.48 4.08-2.08 6.33-1.63s4.17 1.91 5.21 3.95c9.26 18.2 13.81 35.54 13.52 51.55-.11 6.14-.94 12.1-1.75 17.86-.49 3.52-.96 6.84-1.27 10.19-.31 3.32-.4 6.36-.29 9.16 16.3-22.45 31.1-48.04 31.62-76.46.33-18.41-5.32-36.04-11.3-54.7-5.05-15.75-10.27-32.03-11.74-49.14-1.33-15.49.48-30.85 2.24-45.71 1.63-13.77 3.17-26.77 2.4-39.84-1.38-23.78-9.87-45.04-18.86-67.55-10.75-26.93-21.87-54.77-20.6-88.03l14.99.58c-1.15 30.08 8.9 55.25 19.54 81.89 9.04 22.63 18.38 46.03 19.91 72.25.84 14.39-.85 28.67-2.48 42.48-1.75 14.76-3.39 28.7-2.19 42.67 1.33 15.43 6.06 30.21 11.08 45.85 6.09 19 12.39 38.65 12.01 59.55-.7 38.44-23.16 70.68-44.16 97.89-1.45 1.84-3.65 2.91-5.96 2.91z"/></g><g><path d="m785.09 655.57-13.5-6.54c8.81-18.17 8.09-41.8-2.27-74.39-1.41-4.43-2.93-8.96-4.4-13.35-7.37-21.95-14.98-44.64-13.72-68.71.75-14.36 4.66-28.06 8.43-41.31 4.34-15.24 8.44-29.63 7.87-44.39-1.33-34.33-27.76-62.28-53.44-85.09l-2.13-1.89c-26.37-23.4-56.26-49.91-64.19-87.81l14.68-3.07c6.92 33.04 33.63 56.74 59.47 79.66l2.13 1.89c28.05 24.91 56.93 55.76 58.47 95.72.66 17.15-3.96 33.38-8.43 49.08-3.71 13.02-7.21 25.33-7.88 37.99-1.12 21.22 6.04 42.54 12.96 63.15 1.49 4.45 3.04 9.04 4.48 13.58 7.29 22.96 15.37 56.79 1.47 85.48z"/></g><g><path d="m361.03 921.54h-168.83c-29.61 0-53.7-24.04-53.7-53.58l.12-442.16c0-24.08 12.89-46.64 33.64-58.86l34.55-20.36c1.15-.68 2.47-1.04 3.81-1.04h132c1.34 0 2.65.36 3.81 1.04l34.55 20.36c14.72 8.67 25.6 22.44 30.62 38.77 2 6.52 3.02 13.28 3.02 20.1v442.16c0 29.53-24.04 53.57-53.59 53.57zm-148.37-561-32.79 19.32c-16.2 9.54-26.26 27.14-26.26 45.94l-.12 442.16c0 21.27 17.36 38.58 38.7 38.58h168.83c21.28 0 38.59-17.31 38.59-38.58v-442.16c0-5.32-.79-10.6-2.36-15.69-3.92-12.74-12.41-23.49-23.9-30.25l-32.79-19.32z"/></g><g><path d="m342.61 360.54h-132c-4.14 0-7.5-3.36-7.5-7.5v-95c0-4.14 3.36-7.5 7.5-7.5h132c4.14 0 7.5 3.36 7.5 7.5v95c0 4.14-3.35 7.5-7.5 7.5zm-124.5-15h117v-80h-117z"/></g><g><path d="m397.86 265.54h-242.5c-15.03 0-27.25-12.22-27.25-27.25v-32.25c0-4.14 3.36-7.5 7.5-7.5h282c4.14 0 7.5 3.36 7.5 7.5v32.25c0 15.02-12.22 27.25-27.25 27.25zm-254.75-52v24.75c0 6.75 5.5 12.25 12.25 12.25h242.5c6.75 0 12.25-5.5 12.25-12.25v-24.75z"/></g><g><path d="m144.61 109.96h15v96.08h-15z"/></g><g><path d="m186.11 109.96h15v96.08h-15z"/></g><g><path d="m227.61 109.96h15v96.08h-15z"/></g><g><path d="m269.11 109.96h15v96.08h-15z"/></g><g><path d="m310.61 109.96h15v96.08h-15z"/></g><g><path d="m352.11 109.96h15v96.08h-15z"/></g><g><path d="m393.61 109.96h15v96.08h-15z"/></g><g><path d="m274.25 768c-.28 0-.56 0-.84-.01-10.34-.32-20.31-7.66-24.78-18.26-3.32-7.86-3.9-17.28-1.73-27.99 1.05-5.16 2.58-10.09 4.06-14.86.92-2.98 1.8-5.79 2.56-8.65 4.47-16.79 4.85-34.44 4.86-52.56v-4.72c-.02-16.83-.03-34.24 3.13-51.35 4.04-21.88 13.03-40.04 26-52.5l10.39 10.82c-13.51 12.98-19.23 31.31-21.64 44.4-.01.05-.02.09-.03.14-3.33 18.77-1.49 33.58 3.07 54.36 3.82 17.4 9.68 34.79 15.35 51.6.83 2.46 1.66 4.92 2.48 7.37 4.08 12.18 7.57 25.09 5.54 37.08-2.45 14.46-14.59 25.13-28.42 25.13zm-2.06-89.94c-.78 8.05-2.07 16.05-4.19 24.02-.84 3.15-1.8 6.25-2.73 9.24-1.43 4.62-2.79 8.98-3.68 13.39-1.56 7.7-1.28 14.15.85 19.17 2.21 5.22 6.91 8.97 11.44 9.11 6.72.2 12.75-5.22 14-12.63 1.48-8.75-1.69-19.98-4.98-29.81-.82-2.45-1.64-4.9-2.47-7.34-2.78-8.26-5.61-16.64-8.24-25.15z"/></g><g><path d="m274.54 792.15c-4.49 0-8.97-.53-13.23-1.63-18.97-4.9-34.58-21.45-38.86-41.19-3.28-15.11-.35-31.01 3.22-45.02-5.63 1.14-11.41 3.77-17.41 6.51-6.73 3.07-13.69 6.24-21.3 7.78-15.07 3.04-29.84-.85-42.87-4.29l3.83-14.5c11.45 3.02 24.43 6.44 36.08 4.09 5.92-1.2 11.82-3.88 18.05-6.72 10.72-4.88 21.8-9.93 34.57-8.06 2.13.31 4.02 1.52 5.19 3.32 1.18 1.8 1.52 4.02.95 6.09-3.98 14.47-8.92 32.48-5.64 47.64 3.06 14.11 14.55 26.38 27.95 29.84 11.52 2.98 25.52.16 33.28-6.7 8.35-7.38 13.69-18.1 15.03-30.19 1.32-11.88-3.58-27.82-8.69-37.59-1-1.91-1.13-4.16-.35-6.17s2.38-3.59 4.41-4.34c5.99-2.21 12.79-2.47 20.8-.82 3.41.7 6.66 1.66 9.8 2.58 2.34.69 4.56 1.34 6.77 1.88 22.23 5.35 46.15-1.4 58.43-5.89l5.16 14.08c-13.87 5.08-41.03 12.67-67.1 6.39-2.58-.62-5.08-1.36-7.5-2.07-2.98-.88-5.79-1.71-8.59-2.28-1.48-.31-2.88-.52-4.21-.63 4.29 11.26 7.27 25.03 5.99 36.53-1.76 15.8-8.86 29.92-20.01 39.77-8.42 7.41-21.14 11.59-33.75 11.59z"/></g><g><path d="m342.61 631.06c-10.64 0-19.29-8.66-19.29-19.29s8.65-19.29 19.29-19.29 19.29 8.66 19.29 19.29-8.65 19.29-19.29 19.29zm0-23.59c-2.37 0-4.29 1.93-4.29 4.29s1.93 4.29 4.29 4.29c2.37 0 4.29-1.93 4.29-4.29s-1.92-4.29-4.29-4.29z"/></g><g><path d="m208.8 567.61c-5.14 0-9.31-4.18-9.31-9.31s4.18-9.31 9.31-9.31 9.31 4.18 9.31 9.31-4.17 9.31-9.31 9.31zm0-15c-3.14 0-5.69 2.55-5.69 5.69s2.55 5.69 5.69 5.69 5.69-2.55 5.69-5.69-2.56-5.69-5.69-5.69z"/></g></g></svg>