<svg id="Layer_1" viewBox="0 0 2500 2500" xmlns="http://www.w3.org/2000/svg" data-name="Layer 1"><path d="m1097.11 1620.64h163.71c.29 0 .56-.07.84-.09a16.93 16.93 0 0 0 2-.2 17.18 17.18 0 0 0 1.9-.35 17.74 17.74 0 0 0 1.71-.53 18.65 18.65 0 0 0 2-.79c.49-.23 1-.5 1.45-.78a20.32 20.32 0 0 0 1.91-1.26c.2-.14.42-.24.61-.4a256.46 256.46 0 0 1 161-57c57.42 0 118 27.65 166.29 75.87a19.65 19.65 0 0 0 22.35 3.85l226.12-107.86a19.72 19.72 0 0 0 -16.91-35.62l-213.94 102c-53.91-49.53-120.26-77.7-184-77.7a295.91 295.91 0 0 0 -180.07 61.39h-157a81 81 0 0 0 -73.82 47.94l-104.81-101a86.46 86.46 0 0 0 -122.17 122.38l232.49 232.89a148.54 148.54 0 0 0 105.84 43.93c167.38 0 479.56-89.89 712-165.28a19.72 19.72 0 0 0 -12.13-37.53c-229.72 74.53-537.6 163.37-699.84 163.37a109.54 109.54 0 0 1 -78-32.37l-232.5-232.81a47.07 47.07 0 1 1 66.78-66.35l126.85 122.19a81.13 81.13 0 0 0 79.34 64.89h245.14a19.72 19.72 0 0 0 0-39.44h-245.14a41.67 41.67 0 0 1 0-83.34z"/><path d="m640.72 763.47a19.72 19.72 0 0 0 24.8 12.69c229.69-74.53 537.56-163.37 699.84-163.37a109.51 109.51 0 0 1 78 32.36l232.5 232.85a47.07 47.07 0 1 1 -66.78 66.35l-126.85-122.14a81.14 81.14 0 0 0 -79.34-64.9h-245.14a19.72 19.72 0 0 0 0 39.44h245.14a41.67 41.67 0 0 1 0 83.34h-163.71c-.29 0-.56.08-.85.09a19.35 19.35 0 0 0 -2 .2c-.64.09-1.26.2-1.88.35a17.94 17.94 0 0 0 -1.76.55 15.68 15.68 0 0 0 -1.9.76c-.51.24-1 .52-1.5.81a18.28 18.28 0 0 0 -1.87 1.23c-.2.15-.43.25-.62.41a256.4 256.4 0 0 1 -161 57c-57.42 0-118-27.65-166.29-75.87a19.67 19.67 0 0 0 -22.36-3.84l-226.15 107.86a19.72 19.72 0 1 0 16.93 35.62l213.93-102c53.91 49.53 120.26 77.7 184 77.7a295.84 295.84 0 0 0 180.07-61.39h157a81 81 0 0 0 73.81-47.94l104.82 100.95a86.46 86.46 0 0 0 122.17-122.38l-232.53-232.93a148.56 148.56 0 0 0 -105.84-43.92c-167.42 0-479.58 89.88-712 165.28a19.74 19.74 0 0 0 -12.64 24.84z"/><path d="m1240.38 1530.49 9.62 5.4 9.62-5.4c114.9-64.5 188.22-129.13 245.14-216.09l.48-.76c57.6-97.37 53.06-189.19-12.45-251.92-66.72-63.89-172-68.5-242.79-13.36-70.76-55.14-176.06-50.52-242.79 13.36-65.51 62.72-70.05 154.55-12.44 251.92l.47.76c56.92 86.96 130.23 151.6 245.14 216.09zm-206-440.26c56.13-53.77 146.75-54.5 202-1.6l13.6 13 13.6-13c55.25-52.9 145.84-52.17 202 1.6 69.83 66.86 33.88 155.67 6 202.92-51.62 78.71-118.26 138.19-221.6 197.47-103.34-59.28-170-118.76-221.58-197.47-27.85-47.25-63.81-136.07 6.02-202.92z"/><path d="m1410.19 1278.05a19.67 19.67 0 0 0 28.25-6.22c37-63.43 32.12-105.93 15.71-133.44a19.62 19.62 0 0 0 -31.07-3.61 19.42 19.42 0 0 0 -2.72 23.46c8.64 14.17 14.38 41.41-15.45 92.88-5.23 9.02-3.28 21 5.28 26.93z"/><path d="m1308.57 1401.55a19.55 19.55 0 0 0 11.91-4 514.64 514.64 0 0 0 74.23-68.33 19.7 19.7 0 1 0 -29.43-26.19 476.53 476.53 0 0 1 -68.64 63.13 19.72 19.72 0 0 0 11.93 35.42z"/><path d="m814.68 2203.85.55-1q14.25-25.93 6-54.53t-34.32-43l-50.77-28a17.62 17.62 0 0 0 -13.58-1.65 17.05 17.05 0 0 0 -10.51 8.5l-116.05 211.09a17.51 17.51 0 0 0 7 24.22 17.37 17.37 0 0 0 13.41 1.56 17.66 17.66 0 0 0 10.6-8.67l54.81-99.71 35.34 19.49q26 14.35 54.6 6.08t42.92-34.38zm-30.47-18.11-.55 1a36.5 36.5 0 0 1 -49.39 14.33l-35.34-19.49 35.54-64.65 35.33 19.5a36.61 36.61 0 0 1 14.41 49.31z"/><path d="m979.49 2208.22q-13-26.76-41.15-36.46l-54.79-18.9a17.61 17.61 0 0 0 -13.66.71 17 17 0 0 0 -8.91 10.16l-78.3 227.81a17.48 17.48 0 0 0 11 22.67 17.34 17.34 0 0 0 13.48-.77 17.61 17.61 0 0 0 9-10.34l37-107.63 38.14 13.15a36.62 36.62 0 0 1 22.6 46.13l-25.22 73.37a17.66 17.66 0 0 0 .71 13.68 17.81 17.81 0 0 0 23.61 8.2 17.28 17.28 0 0 0 9.15-10.29l25.22-73.36q10.54-30.68-5.89-59.22 30.42-12.16 41-43l.37-1.08q9.68-28.05-3.36-54.83zm-30.08 43.21-.36 1.07a36.51 36.51 0 0 1 -46.22 22.58l-38.15-13.16 24-69.78 38.13 13.16a36.6 36.6 0 0 1 22.6 46.13z"/><path d="m1098 2208q-32.93-5.19-59.78 14.38-27.06 19.74-32.22 52.54l-18.4 116.92q-5.18 33 14.55 59.91 19.51 27.09 52.44 32.28t59.81-14.57q27-19.56 32.22-52.54l18.38-116.92q5.14-32.79-14.55-59.91-19.54-26.92-52.45-32.09zm32 86.48-18.37 116.94a45.28 45.28 0 0 1 -51.53 37.58 43 43 0 0 1 -29.37-18.08 43.47 43.47 0 0 1 -8.14-33.55l18.41-116.95a45.08 45.08 0 0 1 89 14z"/><path d="m1322.75 2246.45q-21.37-20.7-51.1-20.2l-57.94 1a17.47 17.47 0 0 0 -17.51 17.93l4 237.31a17.48 17.48 0 0 0 18.09 17.53l58-1q29.73-.49 50.39-21.91t20.17-51.19l-2.17-129.17q-.57-29.6-21.93-50.3zm-21.75 206.05a34.84 34.84 0 0 1 -25.39 11.05l-40.33.68-3.39-201.82 40.33-.68a36.56 36.56 0 0 1 37 35.61l2.17 129.18a34.88 34.88 0 0 1 -10.39 25.98z"/><path d="m1516.25 2204.53a17.35 17.35 0 0 0 -7.6-11.49 17.83 17.83 0 0 0 -24.55 4.73 17.65 17.65 0 0 0 -2.63 13.45l34.1 177.92a43.31 43.31 0 0 1 -8.52 36 43.75 43.75 0 0 1 -32.89 17.53 41.83 41.83 0 0 1 -30.68-10.13 46.22 46.22 0 0 1 -16.76-28.07l-33.78-176.26a17.67 17.67 0 0 0 -7.42-11.51 17.4 17.4 0 0 0 -13.24-2.67 17.5 17.5 0 0 0 -14.12 20.87l33.64 175.51q6.18 32.23 32.29 51.75 26.55 19.82 58.64 15.19 34.17-4.85 54-33 20.06-28.2 13.58-61.93z"/><path d="m1729.49 2335.59a17.08 17.08 0 0 0 -16.07-1.87q-11.89 4.46-11.49 16.87a36.7 36.7 0 0 1 -23.47 35.14l-1.06.39a36.17 36.17 0 0 1 -46.81-21.33l-47.59-127.21a36.3 36.3 0 0 1 21.37-46.71l1.07-.39a35.34 35.34 0 0 1 22.25-1.06 34.68 34.68 0 0 1 18.48 12.11q7.79 9.43 19.66 5a17.27 17.27 0 0 0 11-11.81 16.54 16.54 0 0 0 -3.21-15.61 71.4 71.4 0 0 0 -80.56-21.84l-1.06.4q-27.85 10.44-40.17 37.55t-2 54.82l47.56 127.21q10.42 27.9 37.48 40.23t54.9 1.89l1.07-.4a72.33 72.33 0 0 0 46.43-69.48 16.46 16.46 0 0 0 -7.78-13.9z"/><path d="m1765.08 2116 41.06-23.61a16.72 16.72 0 0 0 8.2-10.84 17.1 17.1 0 0 0 -1.78-13.41 17.43 17.43 0 0 0 -10.67-8.31 17 17 0 0 0 -13.38 1.79l-112.68 64.79a17.76 17.76 0 0 0 -8.46 10.77 17.53 17.53 0 0 0 1.79 13.41 17 17 0 0 0 10.66 8.31 17.28 17.28 0 0 0 13.65-1.72l40.89-23.52 111.16 194a17.4 17.4 0 0 0 10.92 8.38 17 17 0 0 0 13.39-1.8 17.38 17.38 0 0 0 8.29-10.67 17.7 17.7 0 0 0 -1.88-13.58z"/><path d="m445.76 669.35a17.49 17.49 0 0 0 25.12-2.22 17.46 17.46 0 0 0 4.12-12.91 17.72 17.72 0 0 0 -6.45-12.11l-87.23-73.22 46.17-55.18 87.23 73.21a17.33 17.33 0 0 0 13.15 4.1 17.88 17.88 0 0 0 16.08-19.23 17.7 17.7 0 0 0 -6.45-12.11l-187-156.92a17.71 17.71 0 0 0 -29 15.1 16.78 16.78 0 0 0 6.24 12.14l72.55 60.89-46.17 55.2-72.54-60.89a17 17 0 0 0 -12.89-4.12 17.4 17.4 0 0 0 -12 6.32 17.71 17.71 0 0 0 -4.24 13.05 17.07 17.07 0 0 0 6.31 12z"/><path d="m427.94 370.85a73.11 73.11 0 0 0 11.48 19.15l121.67 146a17.75 17.75 0 1 0 27.23-22.77l-72.93-87.51 56.61-47.41 73 87.52a17.72 17.72 0 0 0 12 6.49 17.91 17.91 0 0 0 19.22-16.08 17.43 17.43 0 0 0 -4.07-13.18l-121.67-146a69.54 69.54 0 0 0 -16.86-14.61l-.25-.29a.75.75 0 0 0 -.51-.31q-31.28-19.14-65-5.06a.51.51 0 0 1 -.42.1q-2.65 1.25-5.48 2.61l-.58.49a1.33 1.33 0 0 0 -.56.22q-2.4 1.26-4.83 2.8l-1.29.83c-1.92 1.44-3.67 2.81-5.22 4.11l-1 .86q-2.33 1.93-5.12 4.52l-.89 1c-1.3 1.41-2.5 2.84-3.62 4.26a3.1 3.1 0 0 0 -.46.64l-.43.36q-1.85 2.54-3.55 4.94a1.36 1.36 0 0 1 -.31.51q-19.87 30.72-6.65 65c-.18-.7-.02-.41.49.81zm30.33-27.35c.07-1.71.23-3.49.48-5.35a4.31 4.31 0 0 1 .27-1.47 26.77 26.77 0 0 1 .66-2.77 13.93 13.93 0 0 1 .91-2.75 26.33 26.33 0 0 1 1.2-2.73c.34-.77.72-1.59 1.16-2.45l1.09-1.66a24.65 24.65 0 0 1 2.62-3.67 14.09 14.09 0 0 0 1-1.12 35 35 0 0 1 3.4-3.34l1.31-1.09a33.36 33.36 0 0 1 3.88-2.76 10.62 10.62 0 0 0 1.29-.83 26 26 0 0 1 4.08-1.92 11.07 11.07 0 0 1 1.67-.66l2.77-.82 2.89-.69c1-.18 2-.32 2.87-.42s1.85-.15 2.84-.15a9 9 0 0 0 1.48 0c1.87.09 3.65.24 5.34.49.62.14.83.21.65.19a38.52 38.52 0 0 1 9.67 3.3l.39.16a35 35 0 0 1 11.06 8.83l26 31.22-56.59 47.36-26-31.21a34.94 34.94 0 0 1 -6.66-12.48c-.15-.37-.17-.51-.1-.41a33.9 33.9 0 0 1 -1.66-10 .51.51 0 0 0 .17-.39.57.57 0 0 1 -.14-.41z"/><path d="m699 423.81a17 17 0 0 0 10.58 8.45 17.64 17.64 0 0 0 22-12.35 17.13 17.13 0 0 0 -1.58-13.45l-82.39-147.38 163.31 111.35a17.44 17.44 0 0 0 13.37 2.57 17.78 17.78 0 0 0 13.28-22.91l-.19-.34a11.13 11.13 0 0 0 -.85-1.91c-.39-.94-.58-1.42-.58-1.42l.28.5-119.14-213.25a17.7 17.7 0 0 0 -32.6 3.91 17.09 17.09 0 0 0 1.65 13.42l82.36 147.41-163.31-111.35c-.11.06-.22 0-.35-.25a.58.58 0 0 0 -.42 0 6.74 6.74 0 0 0 -2.18-1.18l-.09-.17a17.06 17.06 0 0 0 -15.42.81 17.37 17.37 0 0 0 -8.5 10.86 17.16 17.16 0 0 0 1.65 13.46z"/><path d="m866.59 334.13a17.5 17.5 0 0 0 22.59 11.22l55-18.58q28.22-9.52 41.44-36.25t3.72-55l-41.27-122.6q-9.47-28.08-36.13-41.33t-54.89-3.72l-55 18.58a17.68 17.68 0 0 0 -10.41 8.92 17.49 17.49 0 0 0 -.85 13.52zm1.78-232.59a36.59 36.59 0 0 1 46.09 22.73l41.26 122.61a36.65 36.65 0 0 1 -22.87 46.22l-38.29 12.9-64.47-191.53z"/><path d="m1020.19 228.67q4.57 29.47 28.62 47.07t53.46 13l1.12-.18a72.32 72.32 0 0 0 59.6-58.71 16.45 16.45 0 0 0 -4.85-15.2 17.13 17.13 0 0 0 -15.38-5.1q-12.57 2-14.69 14.21a36.75 36.75 0 0 1 -30.13 29.69l-1.12.17a36.27 36.27 0 0 1 -41.59-30.43l-20.88-134.41a36.33 36.33 0 0 1 30.41-41.47l1.13-.17a35.44 35.44 0 0 1 22 3.48 34.91 34.91 0 0 1 15.67 15.63q5.72 10.85 18.28 8.89a17.29 17.29 0 0 0 13.16-9.36 16.55 16.55 0 0 0 0-16 71.55 71.55 0 0 0 -74.56-37.78l-1.13.18q-29.43 4.57-47 28.66t-13 53.37z"/><path d="m1210.53 276.79a17.43 17.43 0 0 0 12.6-4.92 17.69 17.69 0 0 0 5.32-12.64l1.85-114 40.39.66a36.63 36.63 0 0 1 35.83 36.87l-1.26 77.71a17.69 17.69 0 0 0 4.92 12.8 17.81 17.81 0 0 0 25 .41 17.36 17.36 0 0 0 5.52-12.64l1.26-77.7q.52-32.49-24-54.55 25.2-21.06 25.72-53.74v-1.14q.48-29.62-20.23-51.06t-50.45-21.85l-58-1a17.6 17.6 0 0 0 -12.79 4.93 17 17 0 0 0 -5.33 12.45l-3.88 241.27a17.5 17.5 0 0 0 17.54 18.14zm21.53-241 40.4.66a34.91 34.91 0 0 1 25.43 11.05 34.69 34.69 0 0 1 10.4 25.83v1.13a34.9 34.9 0 0 1 -11.29 25.69 34.87 34.87 0 0 1 -25.77 10.22l-40.4-.65z"/><path d="m1382.33 285a17.47 17.47 0 0 0 13.27-2.65 17.67 17.67 0 0 0 7.4-11.55l21.66-111.92 72.48 14.12-21.66 111.92a17.69 17.69 0 0 0 2.61 13.47 17.84 17.84 0 0 0 24.58 4.77 17.4 17.4 0 0 0 7.63-11.48l36.13-186.72a69.27 69.27 0 0 0 .66-22.32l.07-.37a.82.82 0 0 0 -.08-.6q-4.93-36.38-37.15-53.66a.57.57 0 0 1 -.33-.26c-1.77-.86-3.59-1.73-5.48-2.62l-.75-.14a1.47 1.47 0 0 0 -.52-.29q-2.5-1.06-5.22-2l-1.45-.48c-2.34-.58-4.5-1.07-6.49-1.45l-1.3-.25q-3-.58-6.74-1.12l-1.34-.06q-2.86-.18-5.58-.12a2.88 2.88 0 0 0 -.78 0l-.56-.11c-2.08.11-4.1.24-6.06.37a1.47 1.47 0 0 1 -.59.08q-36.33 4-54.47 35.87c.36-.57.24-.27-.37.9a72.74 72.74 0 0 0 -7.54 21l-36.14 186.67a17.53 17.53 0 0 0 14.11 21zm56.85-200.89a34.7 34.7 0 0 1 5.43-13.11c.19-.36.28-.47.26-.34a33.68 33.68 0 0 1 6.68-7.61.5.5 0 0 0 .45-.05.6.6 0 0 1 .26-.33 50.67 50.67 0 0 1 4.45-3c.74-.5 1.17-.75 1.3-.72a27.18 27.18 0 0 1 2.55-1.25 14.87 14.87 0 0 1 2.71-1c.7-.24 1.65-.51 2.86-.79.82-.23 1.7-.44 2.64-.65l2-.2a24.8 24.8 0 0 1 4.5-.28 13.63 13.63 0 0 0 1.53.1 34.75 34.75 0 0 1 4.72.53l1.68.33a32.67 32.67 0 0 1 4.58 1.27 12.47 12.47 0 0 0 1.46.48 24.92 24.92 0 0 1 4.06 2 10.3 10.3 0 0 1 1.57.89l2.39 1.62 2.36 1.82c.77.66 1.48 1.31 2.12 2a26.46 26.46 0 0 1 1.91 2.12 11.6 11.6 0 0 0 .94 1.14 51.27 51.27 0 0 1 3 4.46c.28.57.36.78.27.63a38.51 38.51 0 0 1 3.55 9.59l.12.42a34.82 34.82 0 0 1 .15 14.16l-7.72 39.91-72.5-14.25z"/><path d="m1542.83 315.64a17.73 17.73 0 0 0 10.1 9.28 17.44 17.44 0 0 0 13.52-.39 17.67 17.67 0 0 0 9.26-10.12l38.81-103.52 60.38 22.72a17.35 17.35 0 0 0 13.76-.51 17.89 17.89 0 0 0 8.81-23.47 17.68 17.68 0 0 0 -10.1-9.29l-60.37-22.71 25.87-69 71 26.72a18.14 18.14 0 0 0 23-10.44 17.84 17.84 0 0 0 -10.49-22.82l-87.54-32.94a17.49 17.49 0 0 0 -22.9 10.27l-83.44 222.5a17.74 17.74 0 0 0 .33 13.72z"/><path d="m1799.46 165.39 40.9 23.66-111.84 193.95a17.35 17.35 0 0 0 -1.76 13.68 17 17 0 0 0 8.28 10.72 17.48 17.48 0 0 0 13.4 1.83 17.69 17.69 0 0 0 10.79-8.46l111.84-194 41.06 23.75a16.71 16.71 0 0 0 13.5 1.66 17 17 0 0 0 10.69-8.29 17.43 17.43 0 0 0 1.83-13.42 17.06 17.06 0 0 0 -8.28-10.71l-112.67-65.2a17.73 17.73 0 0 0 -13.57-1.92 17.47 17.47 0 0 0 -10.69 8.29 17.08 17.08 0 0 0 -1.83 13.43 17.38 17.38 0 0 0 8.35 11.03z"/><path d="m1827.31 459.66a17.67 17.67 0 0 0 6.54 12.06l72.15 59.62a17 17 0 0 0 12.92 4 17.37 17.37 0 0 0 12.18-6.43 17.86 17.86 0 0 0 -2.53-25l-58.57-48.35 59-71.65 49.81 41.09a17.35 17.35 0 0 0 13.18 4 17.88 17.88 0 0 0 15.93-19.35 17.67 17.67 0 0 0 -6.54-12.06l-49.74-41.12 46.85-56.85 58.51 48.38a18.12 18.12 0 0 0 25.1-2.4 17.87 17.87 0 0 0 -2.52-25l-72.12-59.6a17.66 17.66 0 0 0 -13.06-4.14 17.41 17.41 0 0 0 -11.92 6.41l-151 183.32a17.7 17.7 0 0 0 -4.17 13.07z"/><path d="m2089.11 625 97.66-84.69q22.38-19.4 24.51-49.14t-17.35-52.3l-38-44a17.68 17.68 0 0 0 -12.19-6.26 17.41 17.41 0 0 0 -12.82 4.32l-179.4 155.57a17.53 17.53 0 0 0 -1.81 25.19l38 44q19.49 22.56 49.19 24.7t52.21-17.39zm-101-61.17 152.59-132.31 26.43 30.6a36.7 36.7 0 0 1 -3.55 51.33l-97.66 84.68a36.53 36.53 0 0 1 -51.37-3.71z"/><path d="m2286.73 948.36c7.15 24.67 13.49 49.93 18.86 75.09a19.69 19.69 0 1 0 38.5-8.24c-5.56-26.09-12.14-52.27-19.55-77.85a19.69 19.69 0 1 0 -37.81 11z"/><path d="m2165.1 640.06a19.72 19.72 0 0 0 -5.93 27.24c13.83 21.6 27.08 44 39.38 66.63a19.7 19.7 0 1 0 34.58-18.87c-12.75-23.43-26.49-46.67-40.83-69.06a19.66 19.66 0 0 0 -27.2-5.94z"/><path d="m2233.06 803.22c10.64 23.44 20.55 47.53 29.44 71.6a19.69 19.69 0 1 0 36.92-13.7c-9.22-25-19.49-49.92-30.52-74.22a19.69 19.69 0 1 0 -35.84 16.32z"/><path d="m2335.78 1077.45a19.72 19.72 0 0 0 -16.78 22.25c3.55 25.45 6.22 51.37 7.94 77a19.68 19.68 0 0 0 19.62 18.39h1.34a19.71 19.71 0 0 0 18.32-21c-1.79-26.6-4.55-53.45-8.22-79.83a19.68 19.68 0 0 0 -22.22-16.81z"/><path d="m2256 1695a19.69 19.69 0 0 0 -26.14 9.6c-10.78 23.31-22.56 46.54-35 69.06a19.72 19.72 0 0 0 7.69 26.8 19.63 19.63 0 0 0 26.75-7.69c12.9-23.34 25.12-47.43 36.29-71.58a19.74 19.74 0 0 0 -9.59-26.19z"/><path d="m2061.53 1963.3c-16.93 19.33-34.77 38.28-53 56.35a19.71 19.71 0 1 0 27.67 28.07c18.92-18.73 37.41-38.37 55-58.4a19.7 19.7 0 1 0 -29.59-26z"/><path d="m1951.59 2072.1c-18 15.48-36.82 30.53-55.78 44.72a19.71 19.71 0 1 0 23.57 31.6c19.65-14.72 39.11-30.32 57.82-46.37a19.7 19.7 0 0 0 -25.61-30z"/><path d="m2182.17 1834.22a19.66 19.66 0 0 0 -27.24 5.75c-14 21.55-29 42.86-44.49 63.33a19.73 19.73 0 0 0 3.78 27.63 19.66 19.66 0 0 0 27.58-3.79c16.07-21.22 31.59-43.3 46.12-65.64a19.74 19.74 0 0 0 -5.75-27.28z"/><path d="m2340.25 1391.94a19.65 19.65 0 0 0 -22.33 16.64c-3.75 25.53-8.44 51.17-14 76.2a19.7 19.7 0 0 0 15 23.51 19 19 0 0 0 4.27.48 19.7 19.7 0 0 0 19.2-15.46c5.74-26 10.61-52.54 14.48-79a19.7 19.7 0 0 0 -16.62-22.37z"/><path d="m2309.05 1546.51a19.67 19.67 0 0 0 -24.49 13.26c-7.35 24.67-15.67 49.36-24.76 73.38a19.69 19.69 0 1 0 36.82 14c9.42-24.91 18.05-50.51 25.67-76.08a19.73 19.73 0 0 0 -13.24-24.56z"/><path d="m2349.13 1234.51h-.06a19.71 19.71 0 0 0 -19.69 19.66c-.09 25.76-1.1 51.8-3 77.39a19.72 19.72 0 0 0 18.18 21.13h1.47a19.7 19.7 0 0 0 19.61-18.26c2-26.51 3-53.49 3.1-80.18a19.71 19.71 0 0 0 -19.61-19.74z"/><path d="m609.61 2145.47a19.74 19.74 0 0 0 -4-27.59c-20.56-15.35-40.85-31.66-60.31-48.47a19.7 19.7 0 0 0 -25.71 29.86c20.16 17.42 41.18 34.32 62.49 50.23a19.65 19.65 0 0 0 27.54-4z"/><path d="m213.46 882.88a19.63 19.63 0 0 0 25.33-11.56c9-24.07 19-48.12 29.7-71.49a19.69 19.69 0 1 0 -35.78-16.45c-11.1 24.22-21.46 49.16-30.79 74.12a19.73 19.73 0 0 0 11.54 25.38z"/><path d="m435.77 1960.21a19.7 19.7 0 1 0 -29.69 25.89c17.43 20.06 35.85 39.77 54.73 58.61a19.7 19.7 0 0 0 27.77-28c-18.22-18.12-35.99-37.16-52.81-56.5z"/><path d="m155.1 1348.93a19.7 19.7 0 0 0 18.24-21.06c-1.8-25.6-2.72-51.64-2.72-77.4a19.69 19.69 0 1 0 -39.37 0c0 26.69.95 53.67 2.83 80.19a19.68 19.68 0 0 0 19.61 18.34c.47 0 .94 0 1.41-.07z"/><path d="m171.79 1034.9a19.46 19.46 0 0 0 4.19.45 19.72 19.72 0 0 0 19.22-15.54c5.45-25.11 11.88-50.36 19.12-75a19.69 19.69 0 1 0 -37.77-11.12c-7.51 25.57-14.17 51.74-19.82 77.78a19.71 19.71 0 0 0 15.06 23.43z"/><path d="m152.31 1191.32h1.41a19.69 19.69 0 0 0 19.61-18.32c1.81-25.67 4.57-51.59 8.2-77a19.69 19.69 0 1 0 -39-5.58c-3.75 26.37-6.61 53.22-8.49 79.81a19.69 19.69 0 0 0 18.27 21.09z"/><path d="m342.84 1836.55a19.69 19.69 0 1 0 -33.06 21.45c14.44 22.38 29.87 44.51 45.87 65.79a19.7 19.7 0 1 0 31.45-23.79c-15.43-20.5-30.33-41.86-44.26-63.45z"/><path d="m306.31 648.18c-13.19 20.7-25.83 42.06-37.58 63.49a19.69 19.69 0 1 0 34.51 19c11.34-20.68 23.53-41.29 36.26-61.26a19.7 19.7 0 1 0 -33.19-21.22z"/><path d="m268.49 1700.91a19.69 19.69 0 1 0 -35.78 16.46c11.1 24.21 23.22 48.32 36 71.67a19.69 19.69 0 1 0 34.52-19c-12.34-22.51-24.04-45.77-34.74-69.13z"/><path d="m180.17 1504.53a19.71 19.71 0 0 0 15.06-23.45c-5.44-25.12-10-50.76-13.69-76.21a19.68 19.68 0 1 0 -39 5.58c3.77 26.38 8.54 53 14.19 79a19.7 19.7 0 0 0 19.27 15.55 19.41 19.41 0 0 0 4.17-.47z"/><path d="m238.81 1629.47c-9-24.1-17.24-48.8-24.46-73.41a19.68 19.68 0 1 0 -37.76 11.12c7.48 25.52 16 51.13 25.35 76.11a19.69 19.69 0 1 0 36.87-13.82z"/></svg>