<svg xmlns="http://www.w3.org/2000/svg" xml:space="preserve" id="herbal" x="0" y="0" baseProfile="tiny" overflow="visible" version="1.2" viewBox="0 0 64 64">
  <g>
    <g>
      <g>
        <path d="M19.189,41.938c1.116,3.14,4.154,5.249,7.559,5.249h6.378c3.404,0,6.443-2.11,7.56-5.251
				c0.162-0.456,0.22-0.742,0.22-0.742c0.071-0.353-0.051-0.725-0.322-0.961c-1.464-1.273-3.009-1.842-4.616-1.703
				c-0.97,0.086-1.813,0.431-2.49,0.833c-0.421-3.092-2.819-4.91-2.944-5.003c-0.354-0.263-0.838-0.263-1.191,0
				c-0.125,0.093-2.523,1.91-2.943,5.003c-0.679-0.401-1.522-0.746-2.491-0.833c-1.607-0.146-3.151,0.431-4.615,1.703
				c-0.271,0.235-0.393,0.605-0.323,0.957C18.967,41.189,19.025,41.479,19.189,41.938z M23.713,40.52
				c1.727,0.146,2.957,1.627,2.967,1.638c0.288,0.36,0.785,0.473,1.203,0.279c0.417-0.195,0.647-0.65,0.557-1.102
				c-0.461-2.306,0.726-3.998,1.496-4.818c0.771,0.822,1.958,2.514,1.497,4.818c-0.091,0.452,0.14,0.907,0.557,1.102
				c0.418,0.195,0.915,0.081,1.203-0.279c0.012-0.015,1.237-1.484,2.951-1.637c0.874-0.081,1.752,0.199,2.627,0.825
				c-0.857,2.3-3.115,3.84-5.646,3.84h-6.378c-2.531,0-4.789-1.54-5.646-3.84C21.971,40.725,22.834,40.447,23.713,40.52z"></path>
      </g>
      <g>
        <path d="M61.926,16.99c1.581-1.573,2.327-3.835,1.997-6.05C63.586,8.68,62.2,6.752,60.121,5.65
				c-2.135-1.135-4.666-1.059-6.772,0.205C51.892,6.726,50.828,8,50.274,9.535c-1.237,3.404-3.495,6.709-6.906,10.104l-2.78,2.781
				H26.672c2.058-4.962-1.586-11.72-1.751-12.021c-0.2-0.362-0.605-0.561-1.011-0.509c-0.409,0.055-0.743,0.357-0.839,0.759
				c-0.01,0.039-0.956,3.891-3.535,5.495c-2.482,1.52-3.97,3.817-4.126,6.276H1.644C0.737,22.42,0,23.163,0,24.076v5.274
				c0,0.906,0.737,1.643,1.644,1.643H2.53v8.947c0,2.346,0.701,4.61,2.026,6.547c1.289,1.883,3.089,3.333,5.205,4.192l6.311,2.561
				l-1.262,4.754c-0.179,0.676-0.037,1.383,0.39,1.937c0.427,0.555,1.073,0.873,1.773,0.873h25.925c0.7,0,1.347-0.318,1.773-0.874
				c0.427-0.555,0.568-1.261,0.389-1.937L43.8,53.239l6.312-2.561c2.117-0.859,3.916-2.309,5.204-4.191
				c1.325-1.936,2.026-4.199,2.026-6.547v-8.947h0.882c0.913,0,1.656-0.737,1.656-1.643v-5.274c0-0.913-0.743-1.656-1.656-1.656
				h-5.622c2.132-1.741,4.327-2.992,6.547-3.721C60.198,18.361,61.132,17.785,61.926,16.99z M20.587,17.847
				c1.746-1.086,2.874-2.862,3.555-4.318c0.905,2.345,1.907,6.097,0.409,8.707c-0.966,1.682-2.915,2.69-5.803,3.003
				c1.486-3.081,3.943-3.558,4.08-3.582c0.542-0.089,0.911-0.599,0.826-1.142c-0.087-0.546-0.597-0.922-1.144-0.833
				c-0.15,0.023-3.09,0.527-5.083,3.796c-0.011-0.094-0.02-0.188-0.027-0.282C17.252,21.16,18.441,19.162,20.587,17.847z
				 M43.087,58.711c-0.032,0.042-0.091,0.093-0.188,0.093H16.974c-0.097,0-0.156-0.05-0.188-0.093
				c-0.032-0.042-0.065-0.112-0.041-0.205l1.29-4.861h23.803l1.29,4.862C43.153,58.599,43.12,58.669,43.087,58.711z M55.342,39.94
				c0,1.942-0.58,3.816-1.677,5.417c-1.065,1.558-2.555,2.757-4.306,3.468l-6.948,2.819H17.46l-6.947-2.819
				c-1.751-0.71-3.24-1.91-4.307-3.468C5.11,43.755,4.53,41.882,4.53,39.94v-8.947h50.812V39.94z M57.88,28.993H2v-4.572h13.564
				c0.158,0.785,0.416,1.571,0.786,2.347c0.143,0.299,0.435,0.504,0.758,0.556c0.053,0.009,0.106,0.013,0.161,0.013
				c0.011,0,0.021,0,0.032,0c3.72-0.099,6.424-1.087,8.092-2.916h24.572c0.001,0,0.003,0,0.004,0h7.911V28.993z M49.586,22.42
				h-6.171l1.365-1.366c3.622-3.606,6.034-7.151,7.374-10.839c0.396-1.098,1.165-2.013,2.224-2.646
				c1.499-0.897,3.296-0.957,4.805-0.153c1.514,0.802,2.521,2.194,2.763,3.819c0.236,1.589-0.298,3.211-1.432,4.339
				c-0.57,0.57-1.236,0.981-1.984,1.223C55.448,17.81,52.442,19.706,49.586,22.42z"></path>
      </g>
      <g>
        <path d="M13.77,20.651c0.009,0,0.018,0,0.027,0c0.003,0,0.006,0,0.009,0c0.003,0,0.007,0,0.01,0h0.001h0.001
				c0.001,0,0.001,0,0.001,0c0.001,0,0.001,0,0.001,0c0.001,0,0.001,0,0.001,0c0.001,0,0.001,0,0.002,0s0.002,0,0.002,0
				c0.001,0,0.001,0,0.002,0s0.001,0,0.002,0s0.001,0,0.002,0c0.183-0.003,0.357-0.056,0.508-0.148c0,0,0,0,0.001,0c0,0,0,0,0.001,0
				v0c0.001,0,0.001,0,0.001,0c0.001,0,0.001,0,0.001,0c0.013-0.002,0.002,0,0.002-0.001c0.001-0.001,0.002-0.001,0.003-0.002
				c0.025-0.016,0.049-0.032,0.071-0.049c0.001,0,0.001,0,0.001,0c0,0,0.001,0,0.001-0.001c0,0,0.001,0,0.001,0c0,0,0,0,0.001,0
				l0.001-0.001c0.106-0.082,0.196-0.185,0.264-0.306c0,0,0.001,0,0.001-0.001c0.011-0.02,0.021-0.04,0.031-0.061
				c0.538-1.131,0.855-2.28,0.94-3.42c0.205-2.797-1.339-5.488-4.124-7.195C8.95,7.854,8.004,4.003,7.994,3.964
				C7.899,3.562,7.565,3.26,7.155,3.205C6.749,3.152,6.345,3.351,6.145,3.714C5.971,4.031,1.91,11.546,4.78,16.545
				C6.276,19.151,9.301,20.533,13.77,20.651z M6.926,6.845c0.682,1.456,1.81,3.231,3.559,4.318c2.141,1.312,3.329,3.311,3.181,5.345
				c-0.007,0.095-0.017,0.189-0.027,0.284c-1.993-3.27-4.933-3.773-5.083-3.796c-0.549-0.085-1.057,0.287-1.144,0.833
				c-0.085,0.545,0.287,1.058,0.833,1.143c0.028,0.004,2.558,0.44,4.073,3.581c-2.887-0.313-4.834-1.32-5.801-3.001
				C5.02,12.951,6.022,9.194,6.926,6.845z"></path>
      </g>
    </g>
  </g>
</svg>
