<?xml version="1.0" encoding="UTF-8" standalone="no"?>
<!-- Created with Inkscape (http://www.inkscape.org/) -->

<svg
   version="1.1"
   id="svg6201"
   xml:space="preserve"
   width="682.66669"
   height="682.66669"
   viewBox="0 0 682.66669 682.66669"
   xmlns="http://www.w3.org/2000/svg"
   xmlns:svg="http://www.w3.org/2000/svg"><defs
     id="defs6205"><clipPath
       clipPathUnits="userSpaceOnUse"
       id="clipPath6219"><path
         d="M 0,512 H 512 V 0 H 0 Z"
         id="path6217" /></clipPath></defs><g
     id="g6207"
     transform="matrix(1.3333333,0,0,-1.3333333,0,682.66667)"><g
       id="g6209"
       transform="translate(392.69,136.06)"><path
         d="M 0,0 V -0.01 L 11.77,-24.19"
         style="fill:none;stroke:#000000;stroke-width:15;stroke-linecap:round;stroke-linejoin:round;stroke-miterlimit:10;stroke-dasharray:none;stroke-opacity:1"
         id="path6211" /></g><g
       id="g6213"><g
         id="g6215"
         clip-path="url(#clipPath6219)"><g
           id="g6221"
           transform="translate(419.79,80.4)"><path
             d="m 0,0 7.33,-15.06 c 3.03,-6.21 -0.94,-13.56 -7.8,-14.43 l -43.83,-5.6 c -3.08,-0.39 -5.95,-1.8 -8.16,-3.98 l -31.19,-30.9 c -4.92,-4.87 -13.17,-3.47 -16.2,2.75 l -33.04,67.88"
             style="fill:none;stroke:#000000;stroke-width:15;stroke-linecap:round;stroke-linejoin:round;stroke-miterlimit:10;stroke-dasharray:none;stroke-opacity:1"
             id="path6223" /></g><g
           id="g6225"
           transform="translate(119.3051,136.0631)"><path
             d="m 0,0 v -0.01 l -34.426,-70.711 c -3.031,-6.213 0.939,-13.567 7.798,-14.435 l 43.831,-5.597 c 3.081,-0.394 5.95,-1.798 8.162,-3.98 l 31.194,-30.901 c 4.919,-4.869 13.162,-3.464 16.193,2.748 l 33.042,67.883"
             style="fill:none;stroke:#000000;stroke-width:15;stroke-linecap:round;stroke-linejoin:round;stroke-miterlimit:10;stroke-dasharray:none;stroke-opacity:1"
             id="path6227" /></g><g
           id="g6229"
           transform="translate(428.606,176.3078)"><path
             d="m 0,0 c 0.333,-1.333 0.495,-2.667 0.495,-3.98 0,-9.395 -8.112,-17.547 -18.294,-16.577 -0.546,0.051 -1.091,0.081 -1.626,0.081 -9.698,0 -17.517,-8.384 -16.567,-18.274 0.051,-0.555 0.081,-1.101 0.081,-1.646 0,-11.425 -11.506,-19.688 -22.517,-15.577 -1.939,0.727 -3.909,1.061 -5.838,1.061 -7.859,0 -15.052,-5.627 -16.446,-13.92 -1.434,-8.526 -8.778,-13.941 -16.506,-13.941 -3.283,0 -6.637,0.98 -9.627,3.112 -2.959,2.111 -6.333,3.101 -9.647,3.101 -6.263,0 -12.354,-3.525 -15.203,-9.758 -2.909,-6.374 -9.03,-9.758 -15.213,-9.758 -4.707,0 -9.445,1.959 -12.829,6.061 -3.333,4.04 -8.101,6.071 -12.869,6.071 -4.768,0 -9.536,-2.031 -12.869,-6.071 -3.385,-4.102 -8.122,-6.061 -12.83,-6.061 -6.182,0 -12.303,3.384 -15.213,9.758 -2.848,6.233 -8.939,9.758 -15.202,9.758 -3.314,0 -6.688,-0.99 -9.647,-3.101 -2.991,-2.132 -6.344,-3.112 -9.627,-3.112 -7.728,0 -15.072,5.415 -16.506,13.941 -1.394,8.293 -8.587,13.92 -16.446,13.92 -1.929,0 -3.899,-0.334 -5.838,-1.061 -1.96,-0.727 -3.93,-1.071 -5.859,-1.071 -9.395,0 -17.547,8.112 -16.577,18.294 0.05,0.546 0.081,1.091 0.081,1.627 0,9.697 -8.385,17.516 -18.274,16.566 -0.556,-0.05 -1.101,-0.081 -1.647,-0.081 -10.778,0 -18.738,10.233 -16.152,20.638"
             style="fill:none;stroke:#000000;stroke-width:15;stroke-linecap:round;stroke-linejoin:round;stroke-miterlimit:10;stroke-dasharray:none;stroke-opacity:1"
             id="path6231" /></g><g
           id="g6233"
           transform="translate(55.6954,295.5067)"><path
             d="m 0,0 c -0.687,3.657 -2.616,7.132 -5.768,9.728 -4.101,3.384 -6.061,8.122 -6.061,12.829 0,6.182 3.384,12.304 9.758,15.213 6.233,2.849 9.758,8.94 9.758,15.203 0,3.313 -0.99,6.687 -3.101,9.647 -2.131,2.99 -3.111,6.344 -3.111,9.627 0,7.727 5.414,15.071 13.94,16.506 8.293,1.394 13.92,8.586 13.92,16.445 0,1.929 -0.333,3.899 -1.061,5.839 -0.727,1.959 -1.07,3.929 -1.07,5.859 0,9.394 8.111,17.546 18.294,16.576 0.545,-0.05 1.091,-0.08 1.626,-0.08 9.698,0 17.516,8.384 16.567,18.273 -0.051,0.556 -0.081,1.102 -0.081,1.647 0,11.425 11.505,19.688 22.516,15.577 1.94,-0.728 3.91,-1.061 5.839,-1.061 7.859,0 15.051,5.627 16.445,13.92 1.435,8.526 8.779,13.94 16.506,13.94 3.283,0 6.637,-0.98 9.627,-3.111 2.96,-2.111 6.334,-3.101 9.647,-3.101 6.263,0 12.355,3.525 15.203,9.758 2.909,6.374 9.031,9.758 15.213,9.758 4.708,0 9.445,-1.96 12.829,-6.061 3.334,-4.041 8.102,-6.071 12.87,-6.071 4.768,0 9.536,2.03 12.869,6.071 7.839,9.496 22.921,7.516 28.042,-3.697 2.849,-6.233 8.94,-9.758 15.203,-9.758 3.313,0 6.687,0.99 9.647,3.101 2.99,2.131 6.344,3.111 9.627,3.111 7.728,0 15.071,-5.414 16.506,-13.94 1.394,-8.293 8.586,-13.92 16.445,-13.92 1.93,0 3.9,0.333 5.839,1.061 1.96,0.727 3.93,1.07 5.859,1.07 9.394,0 17.546,-8.111 16.577,-18.294 -0.051,-0.545 -0.081,-1.091 -0.081,-1.626 0,-9.697 8.384,-17.516 18.274,-16.567 0.555,0.051 1.101,0.081 1.646,0.081 11.425,0 19.688,-11.505 15.577,-22.516 -0.727,-1.94 -1.061,-3.91 -1.061,-5.839 0,-7.859 5.627,-15.051 13.92,-16.445 8.526,-1.435 13.94,-8.779 13.94,-16.506 0,-3.283 -0.979,-6.637 -3.111,-9.627 -2.111,-2.96 -3.101,-6.334 -3.101,-9.647 0,-6.263 3.525,-12.354 9.758,-15.203 6.374,-2.909 9.758,-9.031 9.758,-15.213 0,-4.707 -1.959,-9.445 -6.061,-12.829 C 403.226,7.132 401.296,3.657 400.609,0"
             style="fill:none;stroke:#000000;stroke-width:15;stroke-linecap:round;stroke-linejoin:round;stroke-miterlimit:10;stroke-dasharray:none;stroke-opacity:1"
             id="path6235" /></g><g
           id="g6237"
           transform="translate(133.3464,176.3078)"><path
             d="m 0,0 c 30.78,-32.507 74.348,-52.791 122.654,-52.791 48.305,0 91.874,20.284 122.653,52.791"
             style="fill:none;stroke:#000000;stroke-width:15;stroke-linecap:round;stroke-linejoin:round;stroke-miterlimit:10;stroke-dasharray:none;stroke-opacity:1"
             id="path6239" /></g><g
           id="g6241"
           transform="translate(424.82,295.51)"><path
             d="M 0,0 C -0.69,37.46 -13.56,71.94 -34.84,99.63"
             style="fill:none;stroke:#000000;stroke-width:15;stroke-linecap:round;stroke-linejoin:round;stroke-miterlimit:10;stroke-dasharray:none;stroke-opacity:1"
             id="path6243" /></g><g
           id="g6245"
           transform="translate(87.18,295.51)"><path
             d="m 0,0 c 1.68,91.81 76.61,165.7 168.82,165.7 42,0 80.42,-15.33 109.96,-40.7"
             style="fill:none;stroke:#000000;stroke-width:15;stroke-linecap:round;stroke-linejoin:round;stroke-miterlimit:10;stroke-dasharray:none;stroke-opacity:1"
             id="path6247" /></g><g
           id="g6249"
           transform="translate(216.387,384.5668)"><path
             d="M 0,0 V -54.549"
             style="fill:none;stroke:#000000;stroke-width:15;stroke-linecap:round;stroke-linejoin:round;stroke-miterlimit:10;stroke-dasharray:none;stroke-opacity:1"
             id="path6251" /></g><g
           id="g6253"
           transform="translate(289.2155,379.9088)"><path
             d="m 0,0 c -4.353,2.941 -9.601,4.658 -15.249,4.658 -15.063,0 -27.275,-12.211 -27.275,-27.274 0,-15.064 12.212,-27.275 27.275,-27.275 15.063,0 23.544,12.211 23.544,27.275 H -8.023"
             style="fill:none;stroke:#000000;stroke-width:15;stroke-linecap:round;stroke-linejoin:round;stroke-miterlimit:10;stroke-dasharray:none;stroke-opacity:1"
             id="path6255" /></g><g
           id="g6257"
           transform="translate(152.1142,383.725)"><path
             d="M 0,0 V -54.549"
             style="fill:none;stroke:#000000;stroke-width:15;stroke-linecap:round;stroke-linejoin:round;stroke-miterlimit:10;stroke-dasharray:none;stroke-opacity:1"
             id="path6259" /></g><g
           id="g6261"
           transform="translate(189.8626,383.725)"><path
             d="M 0,0 V -54.549"
             style="fill:none;stroke:#000000;stroke-width:15;stroke-linecap:round;stroke-linejoin:round;stroke-miterlimit:10;stroke-dasharray:none;stroke-opacity:1"
             id="path6263" /></g><g
           id="g6265"
           transform="translate(152.1142,357.3862)"><path
             d="M 0,0 H 37.748"
             style="fill:none;stroke:#000000;stroke-width:15;stroke-linecap:round;stroke-linejoin:round;stroke-miterlimit:10;stroke-dasharray:none;stroke-opacity:1"
             id="path6267" /></g><g
           id="g6269"
           transform="translate(322.1374,383.725)"><path
             d="M 0,0 V -54.549"
             style="fill:none;stroke:#000000;stroke-width:15;stroke-linecap:round;stroke-linejoin:round;stroke-miterlimit:10;stroke-dasharray:none;stroke-opacity:1"
             id="path6271" /></g><g
           id="g6273"
           transform="translate(359.8858,383.725)"><path
             d="M 0,0 V -54.549"
             style="fill:none;stroke:#000000;stroke-width:15;stroke-linecap:round;stroke-linejoin:round;stroke-miterlimit:10;stroke-dasharray:none;stroke-opacity:1"
             id="path6275" /></g><g
           id="g6277"
           transform="translate(322.1374,357.3862)"><path
             d="M 0,0 H 37.748"
             style="fill:none;stroke:#000000;stroke-width:15;stroke-linecap:round;stroke-linejoin:round;stroke-miterlimit:10;stroke-dasharray:none;stroke-opacity:1"
             id="path6279" /></g><g
           id="g6281"
           transform="translate(150.85,295.51)"><path
             d="m 0,0 h 343.54 c 6.91,0 11.78,-6.79 9.57,-13.34 l -14.16,-41.85 c -0.99,-2.95 -0.99,-6.14 0.01,-9.08 l 14.12,-41.58 c 2.23,-6.55 -2.64,-13.35 -9.56,-13.35 h -476.76 c -6.91,0 -11.78,6.79 -9.57,13.34 l 14.16,41.87 c 0.99,2.94 0.99,6.14 -0.01,9.08 l -14.12,41.56 C -145.01,-6.8 -140.14,0 -133.22,0 H -35"
             style="fill:none;stroke:#000000;stroke-width:15;stroke-linecap:round;stroke-linejoin:round;stroke-miterlimit:10;stroke-dasharray:none;stroke-opacity:1"
             id="path6283" /></g><g
           id="g6285"
           transform="translate(334.6563,263.1856)"><path
             d="M 0,0 V -54.549"
             style="fill:none;stroke:#000000;stroke-width:15;stroke-linecap:round;stroke-linejoin:round;stroke-miterlimit:10;stroke-dasharray:none;stroke-opacity:1"
             id="path6287" /></g><g
           id="g6289"
           transform="translate(254.9456,208.637)"><path
             d="m 0,0 -20.483,53.78 c -0.418,1.024 -1.867,1.025 -2.288,0.003 L -43.067,0"
             style="fill:none;stroke:#000000;stroke-width:15;stroke-linecap:round;stroke-linejoin:round;stroke-miterlimit:10;stroke-dasharray:none;stroke-opacity:1"
             id="path6291" /></g><g
           id="g6293"
           transform="translate(248.5576,222.0311)"><path
             d="M 0,0 H -30.394"
             style="fill:none;stroke:#000000;stroke-width:15;stroke-linecap:round;stroke-linejoin:round;stroke-miterlimit:10;stroke-dasharray:none;stroke-opacity:1"
             id="path6295" /></g><g
           id="g6297"
           transform="translate(364.9612,263.1856)"><path
             d="M 0,0 H 30.125"
             style="fill:none;stroke:#000000;stroke-width:15;stroke-linecap:round;stroke-linejoin:round;stroke-miterlimit:10;stroke-dasharray:none;stroke-opacity:1"
             id="path6299" /></g><g
           id="g6301"
           transform="translate(379.9627,261.4437)"><path
             d="M 0,0 V -52.807"
             style="fill:none;stroke:#000000;stroke-width:15;stroke-linecap:round;stroke-linejoin:round;stroke-miterlimit:10;stroke-dasharray:none;stroke-opacity:1"
             id="path6303" /></g><g
           id="g6305"
           transform="translate(425.3908,263.1856)"><path
             d="M 0,0 17.424,-26.685 34.705,-0.138"
             style="fill:none;stroke:#000000;stroke-width:15;stroke-linecap:round;stroke-linejoin:round;stroke-miterlimit:10;stroke-dasharray:none;stroke-opacity:1"
             id="path6307" /></g><g
           id="g6309"
           transform="translate(442.7466,208.637)"><path
             d="M 0,0 0.068,27.864"
             style="fill:none;stroke:#000000;stroke-width:15;stroke-linecap:round;stroke-linejoin:round;stroke-miterlimit:10;stroke-dasharray:none;stroke-opacity:1"
             id="path6311" /></g><g
           id="g6313"
           transform="translate(143.6698,263.1856)"><path
             d="m 0,0 v -37.535 c 0,-6.393 3.171,-10.696 8.558,-14.138 2.623,-1.676 5.936,-2.87 10.054,-2.876 3.566,-0.004 6.547,0.821 9.011,2.062 6.278,3.162 10.281,7.962 10.281,14.991 V 0"
             style="fill:none;stroke:#000000;stroke-width:15;stroke-linecap:round;stroke-linejoin:round;stroke-miterlimit:10;stroke-dasharray:none;stroke-opacity:1"
             id="path6315" /></g><g
           id="g6317"
           transform="translate(89.2128,226.308)"><path
             d="M 0,0 17.451,-17.451"
             style="fill:none;stroke:#000000;stroke-width:15;stroke-linecap:round;stroke-linejoin:round;stroke-miterlimit:10;stroke-dasharray:none;stroke-opacity:1"
             id="path6319" /></g><g
           id="g6321"
           transform="translate(106.453,235.9113)"><path
             d="m 0,0 c 0,-15.063 -12.211,-27.274 -27.274,-27.274 -15.064,0 -27.275,12.211 -27.275,27.274 0,15.063 12.211,27.274 27.275,27.274 C -12.211,27.274 0,15.063 0,0 Z"
             style="fill:none;stroke:#000000;stroke-width:15;stroke-linecap:round;stroke-linejoin:round;stroke-miterlimit:10;stroke-dasharray:none;stroke-opacity:1"
             id="path6323" /></g><g
           id="g6325"
           transform="translate(285.2504,263.1856)"><path
             d="m 0,0 v -54.503 c 0.603,-0.103 19.101,0 19.101,0"
             style="fill:none;stroke:#000000;stroke-width:15;stroke-linecap:round;stroke-linejoin:round;stroke-miterlimit:10;stroke-dasharray:none;stroke-opacity:1"
             id="path6327" /></g></g></g></g></svg>
