<svg id="Layer_1" viewBox="0 0 512 512" xmlns="http://www.w3.org/2000/svg" data-name="Layer 1"><path d="m213.896 279.974h77.726c3.866 0 7-3.134 7-7v-32.404c0-3.866-3.134-7-7-7h-77.726c-3.866 0-7 3.134-7 7v32.404c0 3.866 3.134 7 7 7zm7-32.404h63.726v18.404h-63.726zm166.348 192.516h35.807c3.866 0 7-3.134 7-7v-41.944c0-3.866-3.134-7-7-7h-35.807c-3.866 0-7 3.134-7 7v41.944c0 3.866 3.134 7 7 7zm7-41.944h21.807v27.944h-21.807zm-275.038-11.993h22.183c3.866 0 7-3.134 7-7v-58.229c0-3.866-3.134-7-7-7h-22.183c-3.866 0-7 3.134-7 7v58.229c0 3.866 3.134 7 7 7zm7-58.229h8.183v44.229h-8.183zm374.794 130.446h-18.106v-99.503c0-3.866-3.134-7-7-7h-19.494l-9.472-144.808c5.617-1.649 9.733-6.841 9.733-12.984v-21.965c0-7.465-6.073-13.538-13.539-13.538h-62.552c-7.465 0-13.539 6.073-13.539 13.538v21.965c0 6.143 4.116 11.335 9.733 12.985l-9.473 144.807h-25.891v-156.259c0-1.856-.738-3.637-2.05-4.95-1.313-1.312-3.093-2.05-4.95-2.05h-17.012s0-26.045 0-26.045c0-3.866-3.134-7-7-7h-67.078l3.331-8.04 10.215-2.014c5.511-1.085 9.511-5.951 9.511-11.569v-25.745c0-5.617-4-10.482-9.511-11.568l-10.215-2.014-7.141-17.235 5.8-8.65c3.128-4.665 2.516-10.934-1.456-14.905l-18.205-18.204c-3.972-3.972-10.241-4.583-14.905-1.455l-8.649 5.8-17.235-7.141-2.014-10.216c-1.086-5.511-5.952-9.511-11.569-9.511h-25.745c-5.617 0-10.482 4-11.569 9.511l-2.014 10.216-17.236 7.141-8.649-5.8c-4.664-3.128-10.934-2.515-14.904 1.456l-18.205 18.204c-3.971 3.971-4.583 10.24-1.455 14.905l5.8 8.649-7.141 17.235-10.214 2.014c-5.511 1.086-9.512 5.952-9.512 11.568v25.745c0 5.618 4 10.484 9.511 11.569l10.215 2.014 7.141 17.235-5.8 8.65c-3.128 4.666-2.516 10.934 1.456 14.904l18.204 18.204c3.971 3.972 10.24 4.585 14.905 1.456l8.649-5.8 17.235 7.141 2.014 10.216c1.086 5.511 5.952 9.511 11.569 9.511h18.594v1.033l-77.374 32.811c-2.587 1.097-4.267 3.634-4.267 6.444v34.606h-47.962c-3.866 0-7 3.134-7 7v147.437h-16.513c-3.866 0-7 3.134-7 7v26.544c0 3.866 3.134 7 7 7h490c3.866 0 7-3.134 7-7v-26.544c0-3.866-3.134-7-7-7zm-119.97-285.798h61.629v21.042h-61.629zm9.726 35.042h42.177l9.436 144.253h-61.049zm78.137 158.253v92.503h-127.494v-92.503zm-141.494 92.503h-34.976v-78.084c0-11.824-9.62-21.444-21.445-21.444h-36.443c-11.824 0-21.444 9.62-21.444 21.444v78.084h-34.976v-255.761h149.283s0 255.761 0 255.761zm-48.976 0h-51.332v-78.084c0-4.104 3.339-7.444 7.444-7.444h36.443c4.105 0 7.445 3.339 7.445 7.444zm-120.029-292.521c-24.692 0-44.781-20.089-44.781-44.781s20.089-44.782 44.781-44.782 44.781 20.089 44.781 44.782-20.088 44.781-44.781 44.781zm144.993 22.759h-101.258s0-19.046 0-19.046h101.258zm-156.05 26.431-2.388-12.113c-.453-2.298-2.025-4.216-4.188-5.113l-24.163-10.01c-2.164-.896-4.632-.652-6.578.653l-10.256 6.877-15.637-15.637 6.877-10.255c1.304-1.945 1.549-4.414.653-6.578l-10.01-24.163c-.896-2.164-2.815-3.735-5.113-4.188l-12.112-2.388v-22.114l12.112-2.388c2.298-.453 4.216-2.025 5.113-4.188l10.01-24.163c.896-2.164.651-4.632-.653-6.578l-6.877-10.256 15.637-15.637 10.255 6.877c1.945 1.305 4.415 1.549 6.578.653l24.163-10.011c2.164-.896 3.735-2.815 4.188-5.113l2.388-12.112h22.114l2.388 12.112c.453 2.297 2.025 4.216 4.188 5.113l24.163 10.011c2.163.896 4.632.65 6.578-.653l10.255-6.877 15.637 15.637-6.877 10.256c-1.304 1.945-1.549 4.414-.653 6.578l10.01 24.163c.896 2.164 2.815 3.735 5.113 4.188l12.112 2.388v22.114l-12.112 2.388c-2.297.453-4.216 2.025-5.113 4.188l-6.986 16.861h-22.209c7.053-9.696 11.229-21.614 11.229-34.495 0-32.412-26.369-58.782-58.781-58.782s-58.781 26.37-58.781 58.782 26.369 58.781 58.781 58.781c10.844 0 21.004-2.964 29.734-8.106v16.866h-17.013c-3.866 0-7 3.134-7 7v19.43h-16.779zm16.779 30.239v213.091h-67.641v-184.408zm-122.603 72.654h40.962v140.437h-40.962zm452.486 166.981h-475.999v-12.544h476v12.544z"/></svg>