<svg id="_x3C_Layer_x3E_" height="512" viewBox="0 0 32 32" width="512" xmlns="http://www.w3.org/2000/svg"><g id="pediatrics_x2C__baby_care_x2C__baby"><g id="XMLID_2446_"><g id="XMLID_30_"><g><path d="m23.5 31c.276 0 .5-.224.5-.5v-3.795l3.371-2.642c.422-.336.987-.995 1.208-1.519l2.38-5.533c.027-.062.041-.13.041-.198v-4.819c0-.622-.705-1.081-1.386-1.164-.844-.109-1.905.35-2.305 1.947-.206.829-.252 1.53-.293 2.148-.019.275.189.534.465.552.276.019.513-.17.53-.445.041-.618.084-1.271.269-2.014.126-.502.396-1.119.973-1.196.386-.055.709.152.762.246l-.015 4.642-2.341 5.443c-.146.349-.6.88-.908 1.126l-3.56 2.79c-.121.094-.191.239-.191.393v4.038c0 .276.224.5.5.5z" fill="rgb(0,0,0)"/></g></g><g id="XMLID_2473_"><g><path d="m8.5 31c-.276 0-.5-.224-.5-.5v-3.795l-3.371-2.642c-.422-.336-.987-.995-1.208-1.519l-2.38-5.533c-.027-.062-.041-.13-.041-.198v-4.819c0-.622.705-1.081 1.386-1.164.844-.109 1.905.35 2.305 1.947.206.829.252 1.53.293 2.148.019.275-.189.534-.465.552-.276.019-.513-.17-.53-.445-.041-.618-.084-1.271-.269-2.014-.126-.502-.396-1.119-.973-1.196-.386-.055-.709.152-.762.246l.015 4.642 2.341 5.443c.146.349.6.88.908 1.126l3.56 2.79c.121.094.191.239.191.393v4.038c0 .276-.224.5-.5.5z" fill="rgb(0,0,0)"/></g></g><g id="XMLID_2472_"><g><path d="m14.5 31c-.276 0-.5-.224-.5-.5v-5.463c0-2.107-1.455-3.944-3.539-4.468-.268-.067-.43-.339-.363-.607.067-.267.334-.433.607-.363 2.528.636 4.295 2.872 4.295 5.438v5.463c0 .276-.224.5-.5.5z" fill="rgb(0,0,0)"/></g></g><g id="XMLID_2471_"><g><path d="m8.762 22.417c-.128 0-.256-.049-.354-.146l-4.387-4.38c-.094-.094-.146-.221-.146-.354 0-.132.053-.26.146-.354 1.375-1.375 3.07-1.259 4.649.32l2.255 2.25c.195.195.195.512 0 .707-.195.196-.512.195-.707.001l-2.255-2.25c-1.025-1.025-1.984-1.242-2.851-.644l4.002 3.996c.195.195.195.512 0 .708-.096.097-.224.146-.352.146z" fill="rgb(0,0,0)"/></g></g><g id="XMLID_2464_"><g id="XMLID_2466_"><g><path d="m17.5 31c-.276 0-.5-.224-.5-.5v-5.463c0-2.566 1.767-4.802 4.295-5.438.271-.07.539.096.607.363.066.268-.096.54-.363.607-2.084.524-3.539 2.361-3.539 4.468v5.463c0 .276-.224.5-.5.5z" fill="rgb(0,0,0)"/></g></g><g id="XMLID_2465_"><g><path d="m23.238 22.417c-.128 0-.256-.049-.354-.146-.195-.196-.195-.512 0-.708l4.002-3.996c-.866-.597-1.826-.38-2.851.644l-2.255 2.25c-.195.194-.512.195-.707-.001-.195-.195-.195-.512 0-.707l2.255-2.25c1.579-1.579 3.274-1.695 4.649-.32.094.094.146.221.146.354s-.053.26-.146.354l-4.387 4.38c-.096.097-.224.146-.352.146z" fill="rgb(0,0,0)"/></g></g></g><g id="XMLID_2463_"><g><path d="m23.238 22.417c-.128 0-.256-.049-.354-.146-.195-.196-.195-.512 0-.708l4.002-3.996c-.866-.597-1.826-.38-2.851.644l-2.255 2.25c-.195.194-.512.195-.707-.001-.195-.195-.195-.512 0-.707l2.255-2.25c1.579-1.579 3.274-1.695 4.649-.32.094.094.146.221.146.354s-.053.26-.146.354l-4.387 4.38c-.096.097-.224.146-.352.146z" fill="rgb(0,0,0)"/></g></g><g id="XMLID_2475_"><g id="XMLID_2525_"><g id="XMLID_2527_"><g><path d="m18.199 12.449c-.271 0-.542-.022-.813-.067-1.294-.215-2.428-.922-3.193-1.992s-1.067-2.372-.853-3.666c.151-.904 1.007-1.519 1.913-1.367.904.15 1.518 1.009 1.367 1.913-.06.36.008.733.188 1.048.138.24.055.545-.185.683-.237.135-.544.055-.683-.185-.295-.514-.404-1.121-.308-1.709.06-.361-.185-.704-.545-.764-.362-.057-.703.184-.763.545-.171 1.03.07 2.067.68 2.92s1.514 1.417 2.544 1.588c.283.046.57.064.85.048.281-.006.512.198.525.473.015.276-.197.511-.473.526-.081.004-.166.006-.251.006z" fill="rgb(0,0,0)"/></g></g><g id="XMLID_2526_"><g><path d="m15.286 19.2c-.458 0-.945-.044-1.465-.14-1.352-.25-2.455-1.028-3.107-2.193-.449-.801-.825-2.054-.572-3.89-.185.087-.366.141-.541.183-.693.167-1.687-.125-2.265-.663-.438-.409-.629-.94-.536-1.495.081-.479.317-.86.683-1.103.417-.276.918-.321 1.267-.3.698-1.844 2.171-2.747 3.847-2.319.739.189 1.34.646 1.737 1.321.723 1.227.659 2.895.358 4.046-.069.267-.339.426-.609.358-.268-.07-.428-.343-.357-.61.237-.914.314-2.322-.253-3.286-.264-.447-.642-.737-1.124-.86-1.271-.327-2.302.439-2.775 2.039-.076.254-.333.404-.595.345-.163-.037-.655-.091-.945.103-.084.057-.201.163-.247.434-.014.081-.056.329.231.597.39.363 1.062.491 1.349.422.354-.085.825-.199 1.332-1.46.057-.164.117-.331.183-.501.097-.254.377-.386.636-.292.256.092.392.371.306.629-.061.179-.121.345-.183.5-.757 2.195-.776 4.025-.054 5.315.504.9 1.362 1.503 2.417 1.698 4.44.818 6.116-2.646 7.115-4.718.339-.704.544-1.128.834-1.335.089-.063.265-.159.504-.285 1.19-.625 3.978-2.09 4.293-4.835.265-2.291-1.39-4.465-3.686-4.846-1.088-.182-2.192.073-3.095.718-.902.645-1.499 1.603-1.681 2.697-.026.214-.19.459-.401.501-.659.131-1.156.64-1.265 1.295-.111.667.219 1.333.822 1.658.243.131.334.434.203.677-.132.243-.433.334-.678.204-.979-.527-1.516-1.613-1.334-2.703.155-.934.822-1.708 1.707-2.017.263-1.26.983-2.367 2.044-3.125 1.119-.801 2.483-1.117 3.841-.892 2.813.467 4.839 3.135 4.516 5.947-.377 3.271-3.606 4.967-4.822 5.606-.182.096-.318.164-.387.212-.097.09-.329.571-.516.957-.876 1.818-2.608 5.406-6.732 5.406z" fill="rgb(0,0,0)"/></g></g></g></g></g></g></svg>