<svg height="512" viewBox="0 0 54 60" width="512" xmlns="http://www.w3.org/2000/svg"><g id="Page-1" fill="none" fill-rule="evenodd"><g id="038---Carton-Date" fill="rgb(0,0,0)" fill-rule="nonzero"><path id="Shape" d="m5 43c-.55228475 0-1 .4477153-1 1v3c0 .5522847.44771525 1 1 1h3c.55228475 0 1-.4477153 1-1s-.44771525-1-1-1h-2v-2c0-.5522847-.44771525-1-1-1z"/><path id="Shape" d="m21 29c0-.5522847-.4477153-1-1-1h-10c-.55228475 0-1 .4477153-1 1s.44771525 1 1 1h10c.5522847 0 1-.4477153 1-1z"/><path id="Shape" d="m12 32c-.5522847 0-1 .4477153-1 1s.4477153 1 1 1h6c.5522847 0 1-.4477153 1-1s-.4477153-1-1-1z"/><path id="Shape" d="m38 28c-8.836556 0-16 7.163444-16 16s7.163444 16 16 16 16-7.163444 16-16c-.0104696-8.8322157-7.1677843-15.9895304-16-16zm0 30c-7.7319865 0-14-6.2680135-14-14s6.2680135-14 14-14 14 6.2680135 14 14c-.0082673 7.7285595-6.2714405 13.9917327-14 14z"/><path id="Shape" d="m39 43.586v-9.586c0-.5522847-.4477153-1-1-1s-1 .4477153-1 1v10c.0000566.2651948.1054506.5195073.293.707l7 7c.3923789.3789722 1.0160848.3735524 1.4018186-.0121814s.3911536-1.0094397.0121814-1.4018186z"/><path id="Shape" d="m20.34 50h-17.34c-.55228475 0-1-.4477153-1-1v-8h17.43c.5522847 0 1-.4477153 1-1s-.4477153-1-1-1h-17.43v-14h26v2.27c0 .5522847.4477153 1 1 1s1-.4477153 1-1v-13.27c0-.2163702-.0701779-.4269038-.2-.6l-5.8-7.733v-3.667c0-1.1045695-.8954305-2-2-2h-14c-1.1045695 0-2 .8954305-2 2v3.667l-5.8 7.733c-.12982213.1730962-.2.3836298-.2.6v35c0 1.6568542 1.34314575 3 3 3h17.34c.5522847 0 1-.4477153 1-1s-.4477153-1-1-1zm-18.34-27v-8h26v8zm5.5-16h2.5v4c.0487323.8328624.5142783 1.584956 1.238 2h-8.238zm7.5 5c-2.035 0-3-.8-3-1v-1.579c.9498349.39628338 1.9709126.5933514 3 .579 1.0290874.0143514 2.0501651-.18271662 3-.579v1.579c0 .2-.965 1-3 1zm0-4c-2.035 0-3-.8-3-1 .0411125-.10009941.1106407-.18596678.2-.247.8256917-.55084749 1.8093906-.81539223 2.8-.753.9952423-.06286649 1.9833938.20464802 2.811.761.0841379.060396.149624.14320645.189.239 0 .2-.97 1-3 1zm7.5-1 4.5 6h-8.238c.7237217-.415044 1.1892677-1.1671376 1.238-2v-4zm-14.5-5h14v3h-3.207c-2.3535061-1.33240226-5.2334939-1.33240226-7.587 0h-3.206z"/></g></g></svg>