<?xml version="1.0" encoding="UTF-8"?>
<svg xmlns="http://www.w3.org/2000/svg" viewBox="0 0 64 64" width="512" height="512"><g id="Layer_6" data-name="Layer 6"><path d="M62,34.789v-.132a4.968,4.968,0,0,0-1.465-3.535l-5.828-5.829a1,1,0,0,0-1.414,1.414L56.586,30,54.5,32.086l-1.793-1.793A1,1,0,0,0,51,31V41H35V31a1,1,0,0,0-1.707-.707L31.5,32.086,29.414,30l4.121-4.122A2.983,2.983,0,0,1,35.657,25H50.343a3,3,0,0,1,.494.041,1,1,0,0,0,.326-1.974,5.144,5.144,0,0,0-.82-.067H47.889A6.973,6.973,0,0,0,50,18V12a6,6,0,0,0-3.081-5.238A3.958,3.958,0,0,0,47,6a4,4,0,1,0-7.92.763A6,6,0,0,0,36,12v6a6.973,6.973,0,0,0,2.111,5H35.657a4.968,4.968,0,0,0-3.536,1.464l-6.656,6.658A4.968,4.968,0,0,0,24,34.657v.132a4.974,4.974,0,0,0,.84,2.773L29.132,44H25.42a4.917,4.917,0,0,0-.42-.667L21,38a5.025,5.025,0,0,0-4-2H9.458a3.992,3.992,0,1,0-6.833,4.125A6.945,6.945,0,0,0,2,43v2a7.007,7.007,0,0,0,4.466,6.518A3.109,3.109,0,0,0,6,53.142,3.059,3.059,0,0,0,6.134,54H3a1,1,0,0,0-1,1v6a1,1,0,0,0,1,1H61a1,1,0,0,0,1-1V42a1,1,0,0,0-1-1H58.869l2.291-3.437A4.979,4.979,0,0,0,62,34.789ZM41,6a2,2,0,0,1,4,0c0,.03-.013.058-.014.088A6.055,6.055,0,0,0,44,6H42a6,6,0,0,0-.992.089C41.006,6.059,41,6.03,41,6Zm-3,6a4,4,0,0,1,4-4h2a4,4,0,0,1,4,4v1.928a2.977,2.977,0,0,1-1.465-.806l-.828-.829a1,1,0,0,0-1.414,0A5.789,5.789,0,0,1,40.172,14H38Zm0,6V16h2.172a7.766,7.766,0,0,0,4.783-1.63l.166.166A4.954,4.954,0,0,0,48,15.936V18a5,5,0,0,1-10,0ZM53.793,34.207l.99.99L53,38.764v-5.35ZM47,49h5v5H34.414l.293-.293a1,1,0,0,0-1.414-1.414l-1.951,1.951-3.611,2.708L8.98,54.273A1.142,1.142,0,0,1,9.143,52H26a1,1,0,0,0,.747-.335l4.282-4.818,1.139,1.708A1,1,0,0,0,33,49h6a1,1,0,0,0,1-1,4,4,0,0,0-4-4h-.382l-.5-1H50.882l-.5,1H50a4,4,0,0,0-4,4A1,1,0,0,0,47,49ZM33,38.764,31.217,35.2l.99-.99L33,33.414Zm-7-3.975v-.132a3.017,3.017,0,0,1,.879-2.121L28,31.415,30.086,33.5l-.793.793a1,1,0,0,0-.188,1.154l5,10A1,1,0,0,0,35,46h1a2,2,0,0,1,1.731,1h-4.2L26.5,36.453A2.984,2.984,0,0,1,26,34.789ZM29.107,46l-3.556,4h-.577A4.948,4.948,0,0,0,26,47v-.667c0-.111-.02-.222-.027-.333ZM24,46.333V47a3,3,0,0,1-3,3H10V46.414l3.707-3.707A1,1,0,0,0,14,42V41h1.764l1.789.9A1,1,0,0,0,18,42h3.5l1.9,2.533A3.018,3.018,0,0,1,24,46.333ZM4,38a1.983,1.983,0,0,1,3.017-1.709A7,7,0,0,0,4.009,38.1C4.007,38.067,4,38.034,4,38Zm0,7V43a5.006,5.006,0,0,1,5-5h8a3.017,3.017,0,0,1,2.4,1.2l.6.8H18.236l-1.789-.9A1,1,0,0,0,16,39H13a1,1,0,0,0-1,1v1.586L8.293,45.293A1,1,0,0,0,8,46v3.9A5.009,5.009,0,0,1,4,45ZM4,56H7.87a3.053,3.053,0,0,0,.827.252L27.858,58.99A.969.969,0,0,0,28,59a1,1,0,0,0,.6-.2L32.333,56H52v4H4ZM60,43V60H54V48.318l0-.012L57.535,43Zm0-8.211a2.984,2.984,0,0,1-.5,1.664L52.465,47h-4.2A2,2,0,0,1,50,46h1a1,1,0,0,0,.9-.553l5-10a1,1,0,0,0-.188-1.154l-.793-.793L58,31.415l1.121,1.121A3.017,3.017,0,0,1,60,34.657Z"/></g></svg>
