<svg fill="none" height="23" viewBox="0 0 24 23" width="24" xmlns="http://www.w3.org/2000/svg"><g clip-rule="evenodd" fill="#000" fill-rule="evenodd"><path d="m2.5 9.58334c0-.27614.22386-.5.5-.5h18c.2761 0 .5.22386.5.5 0 4.58256-4.3315 8.16666-9.5 8.16666-5.16852 0-9.5-3.5841-9.5-8.16666zm1.02065.49996c.30334 3.6632 3.91292 6.6667 8.47935 6.6667 4.5664 0 8.176-3.0035 8.4793-6.6667z"/><path d="m8.5 16.7708v1.875c0 .2762.22386.5.5.5h6c.2761 0 .5-.2238.5-.5v-1.875h1v1.875c0 .8285-.6716 1.5-1.5 1.5h-6c-.82843 0-1.5-.6715-1.5-1.5v-1.875z"/><path d="m20 3.85417c-.8487 0-1.5.65411-1.5 1.41667 0 .07482.0061.14795.0178.21906.0293.17845-.0401.35879-.1814.47163l-3.909 3.12181h2.3717l2.4056-2.30539c.1205-.11541.2905-.16317.4534-.12733.1094.02405.2237.03689.3419.03689.8487 0 1.5-.65411 1.5-1.41667s-.6513-1.41667-1.5-1.41667zm-2.5 1.41667c0-1.35453 1.1396-2.41667 2.5-2.41667 1.3605 0 2.5 1.06214 2.5 2.41667s-1.1395 2.41667-2.5 2.41667c-.0955 0-.19-.00521-.283-.01536l-2.371 2.27218c-.0931.08917-.217.13897-.346.13897h-4c-.2124 0-.4016-.13418-.4719-.33466-.0702-.20048-.0061-.42344.1599-.556l4.8133-3.84395c-.0008-.02586-.0013-.05182-.0013-.07785z"/><path d="m11.5 15.3333v-3.8333h1v3.8333z"/><path d="m14 13.9167h-4v-1h4z"/><path d="m3.5 3.35417c0-.27614.22386-.5.5-.5h3c1.933 0 3.5 1.567 3.5 3.5v.83334c0 .27614-.2239.5-.5.5h-3c-1.933 0-3.5-1.56701-3.5-3.5zm1 .5v.33334c0 1.38071 1.11929 2.5 2.5 2.5h2.5v-.33334c0-1.38071-1.11929-2.5-2.5-2.5z"/><path d="m12 5.29167c-.8284 0-1.5.67157-1.5 1.5v.39584h-1v-.39584c0-1.38071 1.1193-2.5 2.5-2.5h1v1z"/></g></svg>