<svg id="Capa_1" enable-background="new 0 0 512 512" height="512" viewBox="0 0 512 512" width="512" xmlns="http://www.w3.org/2000/svg"><g><path d="m507.185 272.807c-2.551-2.834-6.199-4.46-10.011-4.46h-16.302c.222-4.108.345-8.239.345-12.347 0-4.11-.125-8.24-.346-12.35h16.308c3.818 0 7.471-1.629 10.021-4.47 2.542-2.832 3.766-6.625 3.358-10.389-7.556-71.522-45.354-136.994-103.717-179.638-3.073-2.235-6.975-3.066-10.689-2.277-3.73.79-6.965 3.137-8.878 6.443l-8.135 14.091c-6.892-4.507-14.043-8.643-21.375-12.364l8.147-14.111c1.913-3.306 2.332-7.283 1.15-10.914-1.178-3.62-3.847-6.58-7.32-8.118-13.165-5.841-26.911-10.587-40.856-14.106-4.01-1.01-8.093 1.42-9.107 5.438-1.013 4.016 1.421 8.094 5.438 9.107 12.559 3.169 24.946 7.396 36.852 12.573l-62.879 108.913c-10.771-3.179-21.93-4.789-33.187-4.789-11.255 0-22.412 1.61-33.188 4.789l-62.881-108.912c30.36-13.216 62.673-19.916 96.066-19.916 8.588 0 17.232.453 25.691 1.348 4.127.432 7.811-2.551 8.247-6.669.436-4.12-2.55-7.812-6.669-8.247-8.981-.951-18.156-1.432-27.269-1.432-36.088 0-70.991 7.37-103.738 21.902-3.467 1.536-6.133 4.488-7.312 8.099-1.187 3.628-.774 7.608 1.136 10.929l8.15 14.117c-7.332 3.722-14.481 7.859-21.374 12.366l-8.139-14.098c-1.91-3.301-5.145-5.647-8.875-6.438-3.719-.789-7.616.042-10.702 2.287-35.233 25.743-63.482 60.214-81.695 99.684-1.736 3.762-.094 8.217 3.667 9.952 3.762 1.736 8.217.094 9.952-3.667 16.907-36.641 43.004-68.705 75.524-92.826l62.868 108.9c-16.478 15.647-27.931 35.461-33.199 57.443h-125.716c1.602-14.15 4.462-28.175 8.509-41.712 1.187-3.969-1.069-8.147-5.037-9.334-3.972-1.187-8.147 1.069-9.334 5.037-4.476 14.971-7.585 30.497-9.24 46.129-.41 3.78.813 7.573 3.356 10.407 2.55 2.843 6.202 4.473 10.02 4.473h16.308c-.222 4.11-.346 8.24-.346 12.35 0 4.109.125 8.239.347 12.35h-16.309c-3.818 0-7.471 1.629-10.021 4.47-2.542 2.832-3.766 6.625-3.358 10.389 7.556 71.522 45.354 136.994 103.717 179.638 2.312 1.682 5.091 2.568 7.91 2.568.928 0 1.859-.096 2.779-.291 3.73-.79 6.965-3.137 8.878-6.443l8.137-14.093c6.891 4.507 14.04 8.643 21.373 12.365l-8.152 14.119c-1.907 3.303-2.323 7.277-1.143 10.905 1.177 3.617 3.844 6.575 7.314 8.116 32.752 14.536 67.657 21.907 103.745 21.907s70.993-7.371 103.744-21.907c3.471-1.541 6.136-4.498 7.313-8.114 1.182-3.628.766-7.603-1.142-10.906l-8.152-14.12c7.332-3.721 14.481-7.857 21.372-12.365l8.137 14.094c1.908 3.306 5.146 5.654 8.881 6.443.919.193 1.849.289 2.773.289 2.825 0 5.608-.891 7.922-2.581 58.353-42.628 96.154-108.1 103.713-179.628.401-3.779-.829-7.569-3.375-10.398zm-107.779-210.499c53.67 39.812 88.574 100.257 96.047 166.343h-42.394c-4.143 0-7.5 3.357-7.5 7.5s3.357 7.5 7.5 7.5h12.791c.237 4.106.367 8.239.367 12.35 0 4.109-.127 8.242-.364 12.347h-59.896c.333-4.102.52-8.231.52-12.347 0-4.115-.188-8.244-.521-12.35h12.104c4.143 0 7.5-3.357 7.5-7.5s-3.357-7.5-7.5-7.5h-48.321c-5.27-21.986-16.727-41.807-33.2-57.443zm-49.153 5.748c7.345 3.692 14.502 7.829 21.376 12.363l-29.953 51.884c-6.781-4.704-13.932-8.845-21.374-12.369zm-179.931 64.248-29.95-51.88c6.875-4.535 14.027-8.677 21.372-12.37l29.954 51.884c-7.443 3.523-14.594 7.661-21.376 12.366zm-49.229 111.346h22.407c6.312 0 11.703-4.314 13.11-10.486 4.554-19.891 14.906-37.801 29.956-51.81 4.626-4.331 5.65-11.158 2.499-16.585l-11.219-19.434c6.742-4.77 13.9-8.913 21.375-12.368l11.218 19.43c2.463 4.256 6.915 6.722 11.623 6.722 1.33 0 2.682-.197 4.013-.606 9.695-2.967 19.764-4.472 29.926-4.472s20.23 1.505 29.917 4.469c6.052 1.86 12.486-.653 15.648-6.119l11.217-19.429c7.474 3.456 14.63 7.606 21.371 12.375l-11.21 19.418c-3.16 5.442-2.136 12.27 2.506 16.616 15.034 13.993 25.387 31.903 29.938 51.787 1.409 6.179 6.801 10.493 13.112 10.493h22.407c.369 4.099.57 8.232.57 12.35s-.195 8.252-.564 12.347h-22.413c-6.309 0-11.702 4.312-13.117 10.489-4.55 19.893-14.901 37.805-29.936 51.8-4.633 4.314-5.669 11.14-2.52 16.598.001.001.001.001.001.001l11.218 19.43c-6.741 4.769-13.894 8.917-21.369 12.372l-11.218-19.43c-3.151-5.459-9.578-7.975-15.64-6.117-9.661 2.964-19.728 4.467-29.921 4.467-10.192 0-20.26-1.503-29.924-4.468-6.054-1.852-12.485.661-15.637 6.118l-11.218 19.43c-7.474-3.456-14.631-7.601-21.373-12.37l11.208-19.419c3.16-5.442 2.136-12.27-2.506-16.616-15.034-13.993-25.387-31.903-29.938-51.787-1.409-6.179-6.801-10.493-13.112-10.493h-22.413c-.369-4.096-.564-8.23-.564-12.35.002-4.121.202-8.253.572-12.353zm-74.944 0h59.896c-.333 4.105-.521 8.234-.521 12.35 0 4.117.187 8.247.52 12.35h-59.894c-.237-4.108-.368-8.24-.368-12.35 0-4.111.13-8.243.367-12.35zm94.225 187.928 5.871-10.168c2.071-3.587.842-8.174-2.745-10.245-3.586-2.07-8.174-.843-10.245 2.745l-20.661 35.783c-53.67-39.812-88.574-100.258-96.047-166.344h125.715c5.27 21.986 16.727 41.807 33.2 57.443l-24.708 42.808c-2.07 3.587-.841 8.174 2.747 10.245 3.585 2.069 8.173.84 10.245-2.747l6.58-11.4c6.781 4.705 13.932 8.843 21.373 12.366l-29.953 51.881c-7.347-3.694-14.499-7.833-21.372-12.367zm115.625 65.422c-33.395 0-65.705-6.7-96.065-19.918l62.88-108.911c10.741 3.175 21.899 4.784 33.186 4.784s22.445-1.609 33.186-4.784l62.88 108.911c-30.361 13.218-62.672 19.918-96.067 19.918zm94.254-53.055-29.953-51.882c7.442-3.523 14.592-7.661 21.373-12.365l29.952 51.88c-6.875 4.535-14.027 8.674-21.372 12.367zm49.149 5.745-62.867-108.89c16.481-15.652 27.935-35.474 33.198-57.454h125.725c-7.468 66.084-42.378 126.533-96.056 166.344z"/><path d="m62.038 160.549c-2.071 3.587-.842 8.174 2.745 10.245l49.726 28.709c1.182.682 2.471 1.006 3.743 1.006 2.592 0 5.113-1.345 6.502-3.751 2.071-3.587.842-8.174-2.745-10.245l-12.218-7.054 27.001-7.757c3.981-1.144 6.282-5.298 5.138-9.278-1.143-3.981-5.301-6.284-9.278-5.138l-33.863 9.728-6.864-30.736c-.902-4.043-4.905-6.587-8.954-5.685-4.042.902-6.588 4.911-5.685 8.954l5.421 24.274-10.423-6.018c-3.59-2.07-8.176-.843-10.246 2.746z"/><path d="m264.67 395.481c-4.143 0-7.5 3.357-7.5 7.5v20.062h-10.118c-14.193 0-25.74 11.413-25.74 25.442 0 14 11.547 25.39 25.74 25.39h17.618c4.143 0 7.5-3.357 7.5-7.5v-63.395c0-4.141-3.357-7.499-7.5-7.499zm-7.5 63.395h-10.118c-5.822 0-10.74-4.758-10.74-10.39 0-5.66 4.918-10.442 10.74-10.442h10.118z"/><path d="m407 337.49 35.265 20.36c1.182.682 2.471 1.006 3.743 1.006 2.592 0 5.113-1.345 6.502-3.751 2.071-3.587.842-8.174-2.745-10.245l-15.998-9.236 27.497-2.178c3.274-.259 6-2.619 6.724-5.823.725-3.204-.721-6.506-3.565-8.148l-35.773-20.653c-3.59-2.07-8.175-.843-10.245 2.745-2.071 3.587-.842 8.174 2.745 10.245l14.873 8.587-25.633 2.029c-2.644.215-5.016 1.714-6.352 4.021-1.081 1.875-1.365 4.059-.801 6.147.563 2.09 1.908 3.832 3.763 4.894z"/><path d="m377.762 383.159 28.043 16.19c1.182.682 2.471 1.006 3.743 1.006 2.592 0 5.113-1.345 6.502-3.751 1.319-2.285 1.295-4.973.179-7.16 2.117-1.682 3.928-3.754 5.321-6.166 2.91-5.041 3.684-10.913 2.177-16.535-1.506-5.622-5.111-10.321-10.152-13.231-10.402-6.006-23.758-2.429-29.767 7.977-1.412 2.445-2.275 5.053-2.664 7.69-2.458.123-4.806 1.445-6.127 3.736-2.071 3.586-.842 8.173 2.745 10.244zm24.919-17.565c3.751 0 6.791 3.041 6.791 6.791s-3.041 6.792-6.791 6.792-6.791-3.041-6.791-6.792 3.041-6.791 6.791-6.791z"/><path d="m208.659 96.479c1.312 2.42 3.842 3.927 6.594 3.927h34.075c4.143 0 7.5-3.357 7.5-7.5s-3.357-7.5-7.5-7.5h-20.236l25.727-39.483c1.502-2.306 1.621-5.249.31-7.668-1.312-2.42-3.842-3.927-6.594-3.927h-32.235c-4.143 0-7.5 3.357-7.5 7.5s3.357 7.5 7.5 7.5h18.395l-25.727 39.483c-1.502 2.306-1.621 5.25-.309 7.668z"/><path d="m280.106 51.265c-1.328-1.193-3.079-1.925-5.005-1.925-4.143 0-7.5 3.357-7.5 7.5v34.652c0 4.143 3.357 7.5 7.5 7.5s7.5-3.357 7.5-7.5v-16.724c0-1.686.246-10.094 5.105-10.094 1.412 0 4.042 0 4.042 9.492v17.161c0 4.143 3.357 7.5 7.5 7.5s7.5-3.357 7.5-7.5v-17.161c0-22.105-13.316-24.492-19.042-24.492-2.586 0-5.177.523-7.6 1.591z"/><path d="m383.208 183.545c1.272 0 2.562-.324 3.743-1.006l21.088-12.175 7.913 13.705c1.39 2.406 3.91 3.751 6.502 3.751 1.272 0 2.562-.324 3.743-1.006 3.587-2.071 4.816-6.658 2.745-10.245l-7.913-13.705 13.568-7.833 8.919 15.448c2.07 3.587 6.659 4.815 10.245 2.745 3.587-2.071 4.816-6.658 2.745-10.245l-12.669-21.943c-.994-1.723-2.633-2.979-4.554-3.494-1.92-.516-3.968-.245-5.691.749l-54.142 31.259c-3.587 2.071-4.816 6.658-2.745 10.245 1.39 2.405 3.912 3.75 6.503 3.75z"/><path d="m113.096 344.165c-1.277-.373-2.604-.657-3.946-.846-4.101-.58-7.895 2.281-8.47 6.384-.576 4.102 2.282 7.894 6.384 8.47 3.873.548 6.923 2.655 9.203 6.284 2.523 4.035 3.325 8.812 2.257 13.449-1.069 4.638-3.88 8.582-7.916 11.106-8.327 5.209-19.346 2.673-24.555-5.657-1.895-3.029-2.83-6.506-2.705-10.054.146-4.14-3.091-7.614-7.23-7.76-4.163-.16-7.613 3.092-7.76 7.23-.231 6.55 1.49 12.959 4.978 18.537 6.22 9.944 16.931 15.406 27.877 15.406 5.941-.001 11.953-1.61 17.351-4.986 7.432-4.648 12.609-11.913 14.577-20.455 1.969-8.542.492-17.34-4.156-24.772-3.855-6.16-9.349-10.426-15.889-12.336z"/><path d="m77.418 347.004c4.425 0 8.771-1.238 12.615-3.643 5.407-3.382 9.174-8.667 10.606-14.882s.357-12.615-3.024-18.021c-1.791-2.864-4.128-5.25-6.842-7.091 1.47-2.356 1.576-5.436.005-7.949-2.196-3.512-6.822-4.578-10.336-2.381l-31.461 19.678c-3.512 2.196-4.577 6.824-2.381 10.336 1.57 2.495 4.366 3.787 7.135 3.471.467 3.248 1.604 6.393 3.396 9.258 3.382 5.407 8.667 9.174 14.882 10.606 1.795.413 3.607.618 5.405.618zm-8.924-23.886c0-4.904 3.975-8.879 8.879-8.879s8.879 3.975 8.879 8.879-3.975 8.879-8.879 8.879-8.879-3.975-8.879-8.879z"/><path d="m196.862 307.923c4.073.742 7.979-1.968 8.715-6.045l15.46-85.444 24.718 83.981c1.321 4.491 5.515 7.628 10.197 7.628 4.729 0 8.935-3.177 10.224-7.723l23.862-83.938 16.398 85.571c.688 3.592 3.832 6.091 7.358 6.09.468 0 .942-.044 1.419-.135 4.068-.78 6.734-4.71 5.955-8.777l-19.946-104.086c-.947-4.949-5.293-8.541-10.339-8.541-4.681 0-8.843 3.145-10.118 7.643l-24.887 87.539-25.792-87.631c-1.308-4.445-5.457-7.551-10.092-7.551-5.092 0-9.445 3.637-10.351 8.646l-18.827 104.057c-.736 4.076 1.97 7.979 6.046 8.716z"/></g></svg>