<svg id="outline" height="512" viewBox="0 0 64 64" width="512" xmlns="http://www.w3.org/2000/svg"><g><path d="m4 55c0 1.302.839 2.402 2 2.816v5.184c0 .552.447 1 1 1h47c.553 0 1-.448 1-1v-3.5c0-1.326-.841-2.467-2.1-2.862l-14.9-6.301v-8.687l8.406-3.736c.156-.069.291-.177.394-.313l2.567-3.423 2.316.772c.472.157.987-.056 1.211-.501.82-1.641 1.032-4.804 1.087-6.447h2.019c.553 0 1-.448 1-1 0-5.154-2.082-10.213-2.839-11.881l2.639-3.521c.185-.246.245-.562.166-.858s-.29-.54-.572-.661l-6.572-2.817c-2.315-7.179-8.756-7.264-8.822-7.264-.431 0-.812.275-.948.684l-.56 1.678c-3.866-2.332-11.148-2.362-11.492-2.362-.553 0-1 .448-1 1v2.883l-7.89-.876c-.358-.041-.702.112-.913.398-.212.286-.257.663-.116.99l2.571 6.001-4.969 1.656c-.305.102-.542.344-.638.65-.097.307-.039.641.154.898.124.165 2.865 3.717 8.272 4.308l-4.123 8.835c-1.559 3.339-1.833 7.123-.774 10.653l.97 3.236c.396 1.315 1.326 2.421 2.59 3.053 1.225.612 2.534.997 3.865 1.165v5.525l-8 3.91v-3.751l2.109-1.406c.559-.371.892-.993.892-1.663v-1.465c0-1.103-.897-2-2-2h-1v-3c0-.552-.447-1-1-1h-12c-.553 0-1 .448-1 1v3c-1.103 0-2 .897-2 2v7c0 1.103.897 2 2 2zm4 3h5v4h-5zm20-13.072c1.344-.056 2.683-.324 3.957-.833l4.043-1.618v8.33c-.217.478-1.194 2.193-4 2.193-2.793 0-3.778-1.712-4-2.194zm-5.684-32.979c.265-.088.481-.284.596-.539s.117-.546.007-.804l-2.324-5.422 7.295.81c.283.033.565-.058.777-.249.212-.189.333-.46.333-.745v-2.978c2.892.117 8.335.727 10.293 2.685.245.245.598.347.937.266.338-.08.609-.328.719-.657l.749-2.245c1.496.247 4.952 1.343 6.341 6.203.083.289.291.526.568.644l5.83 2.499-2.237 2.983c-.228.303-.264.708-.095 1.047.027.055 2.568 5.208 2.866 10.553h-1.971c-.552 0-1 .448-1 1 0 1.125-.117 4.005-.6 5.746l-2.084-.695c-.409-.135-.857.004-1.116.349l-2.844 3.792-5.871 2.609 1.243-2.072 4.786-2.871c.07-.042.135-.092.192-.15l2.435-2.435c1.253-1.253 1.253-3.292 0-4.545l-.532-.533c-.433-.432-1.032-.654-1.64-.611-.609.043-1.169.349-1.535.837l-1.733 2.312-.41-.205 2.628-6.133c.133-.309.101-.664-.084-.944-.186-.282-.499-.451-.835-.451h-1.78l.761-3.804c.075-.375-.07-.759-.373-.991-.304-.231-.713-.27-1.055-.1-1.126.563-3.185.789-4.553.863v-1.968c0-.332-.165-.642-.439-.828-.275-.187-.626-.224-.932-.101-.049.02-4.888 1.929-10.629 1.929-3.543 0-5.923-1.492-7.17-2.556zm-.855 28.109-.97-3.235c-.918-3.061-.68-6.339.671-9.233l4.483-9.607c4.027-.091 7.52-.994 9.355-1.576v1.593c0 .265.105.52.293.707s.441.293.707.293c.133 0 2.567-.007 4.681-.503l-.661 3.307c-.059.294.018.599.207.83.19.232.473.366.773.366h1.483l-2.402 5.606c-.209.487-.002 1.052.472 1.289l2 1c.434.217.957.092 1.247-.294l2.234-2.979.161-.012.532.532c.473.473.473 1.244 0 1.717l-2.348 2.348-4.895 2.937.007.011c-.137.082-.262.185-.349.332l-2.827 4.711-5.101 2.041c-2.65 1.06-5.633.936-8.222-.359-.735-.37-1.294-1.034-1.531-1.822zm5.111 12.265c.719 1.092 2.3 2.677 5.428 2.677 3.169 0 4.751-1.628 5.458-2.721l14.712 6.222c.036.015.073.028.11.04.431.125.72.51.72.959v2.5h-38v-4c.966 0 1.818-.467 2.367-1.178zm-7.572-6.323v1.465l-1 .667v-2.132zm-13-4h10v13c0 .551-.448 1-1 1h-8c-.552 0-1-.449-1-1h1.93c1.005 0 1.938-.5 2.496-1.336l1.07-1.606c.33-.495.504-1.07.504-1.664v-3.394c0-1.654-1.346-3-3-3h-3zm-2 4h5c.552 0 1 .449 1 1v3.395c0 .198-.059.39-.168.555l-1.07 1.605c-.186.278-.497.445-.832.445h-3.93z"/><path d="m31.832 37.555c1.364-2.046 1.752-3.932 1.123-5.452-.64-1.542-2.24-2.58-4.759-3.083-3.885-.777-5.715 1.4-6.143 2.658-.058.167-.069.346-.034.519l.811 4.052c.188.945.826 1.748 1.704 2.146 1.377.625 2.643.935 3.749.935 1.536 0 2.764-.597 3.549-1.775zm-4.028-6.575c1.254.251 2.846.782 3.303 1.887.093.224.137.477.138.752-.513-.027-1.016.024-1.443.11-.228-.62-.612-.956-.954-1.139-.923-.494-2.036-.137-2.746.206-.626-.408-1.313-.559-2.011-.449l-.045-.226c.288-.509 1.233-1.646 3.758-1.141zm-3.013 4.876-.305-1.526c.275-.012.531.1.807.376.338.336.865.388 1.262.125.462-.308 1.154-.554 1.332-.49.001.002.113.144.113.659 0 .331.165.641.439.827.168.114.364.172.562.172.125 0 .251-.023.37-.07.315-.125.801-.25 1.278-.299-.139.265-.294.536-.481.816-1.028 1.545-3.452.743-4.807.128-.298-.136-.506-.397-.57-.718z"/><path d="m28.033 26.257c.074.277.263.509.52.638l2 1c.143.071.296.105.446.105.367 0 .72-.202.896-.553.247-.494.047-1.095-.447-1.342l-.987-.493 1.372-2.058c.307-.459.183-1.081-.277-1.387-.462-.307-1.081-.183-1.387.277l-2 3c-.16.24-.209.535-.136.813z"/><path d="m26 22h2c.553 0 1-.448 1-1s-.447-1-1-1h-2c-.553 0-1 .448-1 1s.447 1 1 1z"/><path d="m34.553 22.895 2 1c.143.071.296.105.446.105.367 0 .72-.202.896-.553.247-.494.047-1.095-.447-1.342l-2-1c-.494-.247-1.094-.047-1.342.447-.248.495-.047 1.095.447 1.343z"/></g></svg>