<svg id="Outline" viewBox="0 0 64 64" xmlns="http://www.w3.org/2000/svg"><path d="m31.61 19.41-12.61-8.93v-6.48c0-1.65-1.35-3-3-3h-12c-1.65 0-3 1.35-3 3v54c0 2.76 2.24 5 5 5h32c2.76 0 5-2.24 5-5v-16.55c0-8.74-4.26-16.98-11.39-22.03zm-28.61-15.41c0-.55.45-1 1-1h12c.55 0 1 .45 1 1v6h-2v-2c0-.55-.45-1-1-1s-1 .45-1 1v2h-2v-2c0-.55-.45-1-1-1s-1 .45-1 1v2h-2v-2c0-.55-.45-1-1-1s-1 .45-1 1v2h-2zm38 54c0 1.65-1.35 3-3 3h-32c-1.65 0-3-1.35-3-3v-46h14.68l12.77 9.04c6.61 4.68 10.55 12.31 10.55 20.4v16.55zm-8.33-16.5c-2.48 0-4.8-.96-6.53-2.71l-12.56-12.56c-.77-.76-1.39-1.65-1.86-2.65-.16-.35-.52-.58-.91-.58h-3.81c-.55 0-1 .45-1 1v21c0 7.17 5.83 13 13 13h18c.55 0 1-.45 1-1v-14.5c0-.55-.45-1-1-1zm3.33 14.5h-17c-6.07 0-11-4.93-11-11v-20h2.19c.52.98 1.19 1.87 1.97 2.65l12.56 12.56c2.11 2.12 4.94 3.29 7.95 3.29h3.33zm-7.28-32.51-11.73-8.31c-.4-.28-.94-.24-1.28.11-1.18 1.18-1.83 2.74-1.83 4.41s.65 3.23 1.83 4.41l12.56 12.56c1.18 1.18 2.74 1.83 4.41 1.83h3.95c.3 0 .58-.13.77-.36s.27-.53.21-.83c-1.07-5.61-4.23-10.52-8.88-13.82zm3.95 13.01c-1.13 0-2.19-.44-2.99-1.24l-12.56-12.56c-.8-.8-1.24-1.86-1.24-3 0-.85.25-1.66.71-2.35l10.98 7.78c3.9 2.76 6.64 6.77 7.81 11.37zm-20.67 5.5c0-.55.45-1 1-1h5c.55 0 1 .45 1 1s-.45 1-1 1h-5c-.55 0-1-.45-1-1zm16 5c0 .55-.45 1-1 1h-14c-.55 0-1-.45-1-1s.45-1 1-1h14c.55 0 1 .45 1 1zm0 5c0 .55-.45 1-1 1h-11c-.55 0-1-.45-1-1s.45-1 1-1h11c.55 0 1 .45 1 1zm21.29-45.71c-.22.22-5.29 5.34-5.29 9.71 0 3.31 2.69 6 6 6s6-2.69 6-6c0-4.36-5.08-9.49-5.29-9.71-.38-.38-1.04-.38-1.41 0zm.71 13.71c-2.21 0-4-1.79-4-4 0-2.5 2.46-5.8 4-7.54 1.54 1.74 4 5.04 4 7.54 0 2.21-1.79 4-4 4zm0-19c-7.17 0-13 5.83-13 13 0 5.52 3.41 10.35 8.55 12.22l.46 3.9c.04.35.26.65.58.8.13.06.27.09.41.09.2 0 .4-.06.57-.18l6.4-4.44c5.41-1.73 9.03-6.69 9.03-12.38 0-7.17-5.83-13-13-13zm3.24 23.51c-.1.03-.19.08-.28.13l-5.16 3.58-.34-2.87c-.05-.39-.32-.72-.7-.84-4.64-1.43-7.76-5.65-7.76-10.51 0-6.07 4.93-11 11-11s11 4.93 11 11c0 4.86-3.12 9.09-7.76 10.51z"/></svg>