<svg id="mustard" enable-background="new 0 0 300 300" height="512" viewBox="0 0 300 300" width="512" xmlns="http://www.w3.org/2000/svg"><g><path d="m138 69.092c6.617 0 12-5.383 12-12s-5.383-12-12-12-12 5.383-12 12 5.383 12 12 12zm0-16c2.205 0 4 1.795 4 4s-1.795 4-4 4-4-1.795-4-4 1.795-4 4-4z"/><path d="m203.172 87.92c.781.781 1.805 1.172 2.828 1.172s2.047-.391 2.828-1.172l3.172-3.172 3.172 3.172c.781.781 1.805 1.172 2.828 1.172s2.047-.391 2.828-1.172c1.562-1.562 1.562-4.094 0-5.656l-3.172-3.172 3.172-3.172c1.562-1.562 1.562-4.094 0-5.656s-4.094-1.562-5.656 0l-3.172 3.172-3.172-3.172c-1.562-1.562-4.094-1.562-5.656 0s-1.562 4.094 0 5.656l3.172 3.172-3.172 3.172c-1.563 1.562-1.563 4.093 0 5.656z"/><path d="m174.397 51.461c2.362 0 4.276-1.915 4.276-4.276s-1.915-4.276-4.276-4.276-4.277 1.915-4.277 4.276 1.915 4.276 4.277 4.276z"/><path d="m238.397 99.461c2.362 0 4.276-1.915 4.276-4.276s-1.915-4.276-4.276-4.276-4.277 1.915-4.277 4.276 1.915 4.276 4.277 4.276z"/><path d="m150.397 107.461c2.362 0 4.276-1.915 4.276-4.276s-1.915-4.276-4.276-4.276-4.277 1.915-4.277 4.276 1.915 4.276 4.277 4.276z"/><path d="m254 153.092c0-19.85-16.15-36-36-36-6.996 0-13.671 1.975-19.472 5.724-6.436-6.012-15.047-9.724-24.528-9.724-.083 0-.163.019-.246.019-1.975-18.165-17.15-32.019-35.754-32.019-12.435 0-23.719 6.344-30.302 16.688-5.233-2.97-11.264-4.688-17.698-4.688-19.85 0-36 16.15-36 36 0 8.184 2.736 15.942 7.738 22.268-9.491 6.489-15.738 17.392-15.738 29.732 0 17.145 11.958 31.651 28.362 35.175-.214 1.583-.362 3.185-.362 4.825 0 19.85 16.15 36 36 36s36-16.15 36-36c0-6.098-1.536-11.841-4.223-16.879 2.952-.648 5.775-1.712 8.466-3.08 2.017 17.953 17.276 31.96 35.758 31.96 19.85 0 36-16.15 36-36 0-2.808-.356-5.529-.967-8.154 18.431-1.55 32.966-17.022 32.966-35.847zm-52-4c0 5.032-1.396 9.85-3.916 14.131-3.784-1.355-7.84-2.131-12.084-2.131-5.849 0-11.36 1.433-16.248 3.919-1.441-12.698-9.518-23.387-20.666-28.561 4.728-9.277 14.347-15.358 24.915-15.358 15.438 0 27.999 12.56 27.999 28zm-64-60c14.524 0 26.357 10.855 27.822 25.059-10.603 2.509-19.643 9.73-24.34 19.735-2.416-.513-4.916-.793-7.482-.793-2.887 0-5.675.431-8.387 1.073.236-1.674.387-3.364.387-5.073 0-10.539-4.581-20.005-11.823-26.595 5.078-8.296 13.986-13.406 23.823-13.406zm-76 40c0-15.439 12.561-28 28-28s28 12.561 28 28c0 2.928-.517 5.783-1.4 8.536-5.819 3.208-10.708 7.968-14.027 13.964-5.838-4.084-12.924-6.5-20.573-6.5-4.589 0-8.964.896-13.003 2.469-4.508-5.113-6.997-11.594-6.997-18.469zm-8 52c0-15.439 12.561-28 28-28s28 12.561 28 28c0 1.349-.129 2.688-.32 4.016-15.281.135-28.287 9.846-33.368 23.408-12.891-2.64-22.312-13.996-22.312-27.424zm56 68c-15.439 0-28-12.561-28-28s12.561-28 28-28 28 12.561 28 28-12.561 28-28 28zm7.645-63.165c.215-1.601.355-3.214.355-4.835 0-9.216-3.511-17.608-9.228-23.983 4.625-9.765 14.281-16.017 25.228-16.017 15.439 0 28 12.561 28 28 0 .438-.039.865-.059 1.298-6.035 5.443-10.209 12.881-11.487 21.277-4.092 2.99-8.831 4.774-13.872 5.234-4.947-5.432-11.506-9.359-18.937-10.974zm68.355 39.165c-15.439 0-28-12.561-28-28s12.561-28 28-28 28 12.561 28 28-12.561 28-28 28zm32.196-44.01c-2.934-5.875-7.412-10.832-12.919-14.342 3.042-5.378 4.723-11.385 4.723-17.648 0-7.433-2.266-14.347-6.142-20.089 4.278-2.523 9.087-3.911 14.142-3.911 15.439 0 28 12.561 28 28 0 15.373-12.455 27.883-27.804 27.99z"/><path d="m230.397 134.908c-2.362 0-4.277 1.915-4.277 4.276s1.915 4.276 4.277 4.276 4.276-1.915 4.276-4.276-1.914-4.276-4.276-4.276z"/><path d="m102.397 119.461c2.362 0 4.276-1.915 4.276-4.276s-1.915-4.276-4.276-4.276-4.277 1.915-4.277 4.276 1.915 4.276 4.277 4.276z"/><path d="m186.397 139.461c2.362 0 4.276-1.915 4.276-4.276s-1.915-4.276-4.276-4.276-4.277 1.915-4.277 4.276 1.915 4.276 4.277 4.276z"/><path d="m150.673 155.185c0-2.362-1.915-4.276-4.276-4.276s-4.277 1.915-4.277 4.276 1.915 4.276 4.277 4.276 4.276-1.915 4.276-4.276z"/><path d="m198.397 178.908c-2.362 0-4.277 1.915-4.277 4.276s1.915 4.276 4.277 4.276 4.276-1.915 4.276-4.276-1.914-4.276-4.276-4.276z"/><path d="m94.397 171.461c2.362 0 4.276-1.915 4.276-4.276s-1.915-4.276-4.276-4.276-4.277 1.915-4.277 4.276 1.915 4.276 4.277 4.276z"/><path d="m122.397 202.908c-2.362 0-4.277 1.915-4.277 4.276s1.915 4.276 4.277 4.276 4.276-1.915 4.276-4.276-1.914-4.276-4.276-4.276z"/></g></svg>