<svg id="Layer_1" enable-background="new 0 0 500 500" viewBox="0 0 500 500" xmlns="http://www.w3.org/2000/svg"><path clip-rule="evenodd" d="m40.561 308.648c.358.224.721.447 1.096.615-.459-.913.423-.256.771-.727.332-.448-2.043-1.284 2.611-.447 5.027.903 9.628-.225 14.576-.615 1.386-.109 6.261-.475 7.358-.951.877-.381 1.085-.054 1.342-.223l3.847-1.23c4.932-1.595 13.433-6.953 16.465-10.791l1.912-2.852-2.287-.503c-6.784-.835-10.725-.507-17.394 1.062l-6.05 1.957c-3.075 1.312-1.36.214-4.808 2.348l-3.198 1.845c-.787.551-3.79 2.639-4.663 2.851-1.581.385-7.354 5.109-8.364 4.752-.57-.201-1.52.427-1.806.503-.878.503-.883.559-1.331 1.23-.129-.391-.14-.895-.548-1.23-.245-.222.333-1.038.005-1.957-.384-1.079.561-1.615.257-3.802-.133-.956 1.422-2.563 2.231-4.361 1.378-3.062 3.97-5 4.193-5.759.353-1.203 1.296-1.234 1.56-2.069.017-.056.045-.112.09-.112.446-.114 1.473-1.701 1.823-2.125l1.89-1.398c3.511-3.073 7.189-5.032 11.954-6.374.598-.168 1.163-.447 1.756-.615 8.007-2.301 18.993-3.445 27.044-.839l4.903 1.789c1.308.839 2.846 1.174 4.154 2.013.565.391 1.157.727 1.756 1.062 3.003 1.677 4.283 5.255 3.176 8.386-1.532 4.383-1.072 3.682-3.796 8.219-3.871 6.447-12.653 12.636-19.764 15.543-.263.112-.52.224-.772.335-5.963 2.873-13.819 4.231-20.418 4.361-.703.014-1.138-.217-1.907-.056-1.234.259-1.474-.495-1.962-.615-1.355-.225-4.095-.554-6.027-1.23-2.642-.924-2.167-1.087-4.372-1.621-1.164-.282-2.296-.321-2.382-.951-.169-1.235-4.987-1.324-6.167-5.815-.028-.112.011-.223.034-.335.536.173.838.452 1.212.732zm-2.303-100.75c-.139-1.007.001-2.682.621-3.411l1.079 2.46c.152-.758-.055-.451 1.029-.112.296-.224.011-.559.207-.783.541 0 2.95 2.951 4.568 4.082 2.348 1.64 4.701 3.23 7.279 4.473 1.405.677 6.939 4.34 8.985 5.032 1.1.227.818.6 1.219.615l3.847 1.23c4.048 1.147 8.253 1.677 12.457 1.733 4.134.056 6.814-.407 10.405-1.901l-1.538-1.789c-1.851-1.896-5.818-4.848-8.079-6.206-3.106-1.866-10.691-4.991-14.688-5.703l-6.922-.727c-.84 0-4.674-.172-5.429-.503-1.263-.554-3.085-.071-4.585-.391-.922-.197-4.348-.001-4.993-.615-.864-.823-2.577-.856-3.545-.503.129-.391.402-.783.285-1.286-.081-.376.758-.478 1.157-1.621.393-1.124 1.472-.994 2.432-2.851.505-.978 2.61-1.186 4.383-2.236 2.91-1.723 6.102-1.657 6.799-2.237.515-.415 3.211-.775 3.981-.95 2.049-.635.818-.503 2.997-.503l3.662-.112c3.395-.08 8.842 1.354 12.233 2.572 8.358 3.002 16.846 8.196 22.353 15.263.749.961 2.521 3.295 2.913 4.305.576 1.454 1.605 2.628 2.153 4.082.229.671.514 1.286.805 1.901 1.437 3.131.363 6.765-2.376 8.666-4.926 3.339-7.839 5.015-14.089 6.038-6.422 1.051-12.622.706-18.942-.727l-6.693-1.789c-4.43-1.523-9.391-4.199-13.2-6.877-.628-.441-.638-.775-1.51-1.174-1.198-.549-.813-1.311-1.235-1.621-.47-.447-.956-.839-1.325-1.398-.042-.063-3.408-3.231-4.406-5.815-.467-1.21-2.803-2.581-2.348-3.411.453-.828-1.557-2.609-1.946-5.2zm415.603 98.29c0-.056.011-.056.028-.056.006.056.095.056-.028.056zm-2.7-.951c0 .001-1.311.571-1.688.224-.616-.566-1.821 1.069-2.986.951-1.179-.12-6.736.482-7.24.056-.739-.624-.648-.202-2.594-.447-1.809-.227-2.485-.087-4.836-.559-4.241-.852-11.105-3.304-14.358-5.982-3.348-2.756-5.26-4.087-7.76-7.995 7.032-1.599 11.305-1.774 18.719.28.419.112.9.112 1.314.335.799.391 1.621.671 2.454 1.006 1.894.672 4.387 2.101 6.659 2.851.493.163.454.67 2.505 1.174.865.213.784.559.973.559.819 0 .889.839 1.728.839.726 0 2.696 2.474 4.143 3.411 1.459.944 1.702 2.603 2.488 2.796.285.056.526.168.744.28-.086.054-.176.11-.265.221zm3.723-11.685c-.461-1.975-3.466-5.08-4.915-6.486-3.553-3.448-11.106-7.787-15.867-9.393-8.174-2.757-15.941-3.306-24.427-1.565-2.756.565-8.284 2.762-10.763 4.026l-3.802 2.348c-2.628 1.621-3.757 4.976-2.527 7.939 1.78 4.036 2.55 5.612 5.278 8.89.788.95 1.476 2.013 2.449 2.739l1.437 1.51c6.495 6.365 12.649 9.85 21.324 12.077 1.275.327 3.792 1.024 5.015.95.428-.026.202.424 1.689.336 1.809-.107 7.749 1.196 12.91-.615 2.786-.977 4.775-1.982 7.195-3.634.453-.309 6.463-5.028 5.356-5.591-.294-.15-.541.276-.962-.447l-.43-.391c0-.056.011-.056.011-.056l1.258.391.883-.447c.831-1.036 1.229-1.246 1.303-2.963.206-4.76-1.76-7.179-2.415-9.618zm-42.682-75.702c1.906-2.148 4.013-3.815 6.525-5.255 1.375-.788 6.395-3.359 7.783-3.578.872-.168 1.727-.391 2.572-.671l7.078-1.566 1.7-.168c2.214-.841 1.833-.411 2.13-.503 1.309-.408 1.18.086 1.89-.335.678-.403 3.779.392 5.362.279 1.504-.107 2.937 1.137 3.634.783.268-.112.525-.168.771-.168l-.855 1.342c-.372.458-.64-.164-.951.447-1.134 2.235-.476 1.606-3.176 3.69-.494.381-3.432 2.909-4.02 2.851-.832-.082-.757.305-2.32 1.174-.889.559-1.767 1.174-2.717 1.677-3.75 2.07-8.392 3.2-12.524 4.082l-4.132.28c-4.427-.231-6.55-.278-10.975-1.901zm42.118-11.686s-.006 0 0-.056c.016.001.1.001 0 .056zm-60.45 12.972-.995 2.46c-1.152 2.907-.101 6.262 2.634 7.939 3.527 2.047 5.64 3.149 9.516 4.081 1.191.28 2.348.727 3.584.783l2.057.391c8.127 1.558 19.128-.074 26.568-3.802.805-.391 1.705-.559 2.393-1.23.38-.299.304.24 1.554-.727l2.773-1.677c7.426-4.704 10.727-10.132 12.211-18.842.675-3.964-.51-1.632-1.264-2.236l-.581-.056c.088-.295 1.093-.427 1.252-.447l.442-.895c.046-1.836.299-1.18-.324-2.46-.889-1.824-3.578-4.452-5.334-5.423-.895-.503-1.811-.95-2.656-1.621-2.544-2.163-10.965-2.943-14.503-2.516l-2.438.224c-.848-.216-7.862 1.263-9.197 1.677-8.944 2.777-17.031 8.061-22.621 15.655l-4.389 7.045c-.274.558-.431 1.174-.682 1.677zm-252.911-151.853c.343-1.375-.706-3.778.134-4.193.482-.238.66-2.124.66-2.125-.281-2.18 2.175-5.591 3.321-5.591-.015.719-.471 1.451-.609 2.684.444-.556.326-.287.906.503.555-.08.745-2.077 1.275 2.292.613 5.056 3.687 9.942 5.429 14.649l2.762 5.759c.835.967.311.904.626 1.174.189.162 3.025 4.669 6.245 7.604 4.115 3.751 6.048 5.496 11.456 8.051l3.265.95c0-2.86-1.786-9.398-3.064-12.132-1.527-3.266-4.605-8.789-7.145-11.573-2.299-2.519-.148-.752-3.724-3.858l-2.773-2.46c-.584-.349-3.693-2.88-4.143-3.578-.844-1.311-2.38-1.894-3.461-3.019-.721-.75-3.651-2.778-3.718-3.522-.089-.99-1.322-2.135-2.522-2.46 1.629-1.034.74-1.008 1.711-1.062 1.634-.091 1.068-.727 2.253-.727 2.915 0 1.889-1.369 5.367-.223 2.977.981 2.424-.189 8.157 2.46.782.361.958-.05 1.862.503 1.099.674.823.353 1.387.559.727.615 1.689.783 2.594 1.062l1.929 1.398c7.082 3.645 14.323 15.258 16.863 22.42 2.031 5.727 3.286 10.163 3.047 16.438-.05.895.062 1.845-.19 2.739-.392 1.51-.235 3.075-.649 4.585-.201.671-.335 1.342-.475 2.013-.769 3.723-3.89 5.73-7.665 5.591-4.917-.181-7.416-.605-11.971-2.348-5.58-2.375-11.19-6.304-15.341-10.735-5.24-5.593-8.298-9.614-11.3-16.829-.877-2.107-1.276-2.973-1.795-5.088-.233-.95-.826-1.316-.358-2.348.261-.575-1.185-5.878-.346-9.563zm181.999 26.725c.666-3.945.68-4.497 2.164-8.107.553-1.346 3.321-6.521 4.16-7.436.615-.671 1.163-1.342 1.711-2.013.99-1.454 2.365-2.46 3.382-3.802 1.794-2.289 2.002-2.001 2.695-2.74.397-.559.671-1.342 1.342-1.621.028 0 .05 0 .067-.056.191-.596 1.057-.7 1.348-1.398.189-.454 2.476-1.68 2.611-1.733 1.559-.614 2.306-1.792 3.355-1.901 1.823-.189 1.935-.901 2.466-1.398.17.339.259 1.742-.168 1.957-.785.396.45 1.973-.017 3.131-.327.811-1.614 6.64-2.192 6.933-.855.433-.587.995-.805 1.621-.095.224-.274.503-.369.727-1.734 4.415-2.768 6.021-5.502 9.672-3.695 4.937-8.929 8.875-14.721 10.903l-1.845.615zm27.111-34.272h.062zm-41.91 41.82 1.398 6.877c.749 3.019 3.595 5.144 6.776 4.864 4.647-.475 5.869-.604 10.114-2.292 6.534-2.599 12.739-6.39 17.573-11.518 2.108-2.236 5.69-6.897 6.95-9.505.397-.839 1.029-1.51 1.208-2.404.134-.598.512-.232.827-1.509l1.247-3.019c2.126-5.931 2.796-9.337 1.297-15.599-.365-1.524-2.388-7.622-3.841-8.722-.443-.336-.091.585-1.079.783l-.341.112c.156-.392.335-.615.609-.895l-.151-.951-1.068-1.398c-1.79-1.25-5.936-1.874-8.152-1.621-1.023.112-2.013.335-3.114.224-2.951-.149-8.884 3.175-11.573 5.144l-3.444 2.963c-1.38.795-5.341 5.297-6.474 6.821-3.348 4.503-4.945 7.503-6.871 13.027-2.302 6.599-2.389 11.815-1.891 18.618zm21.9 272.339c-3.132 7.831-9.465 19.453-13.502 25.942l-5.675 8.442c-2.387 3.634-5.149 6.989-7.621 10.567l-4.02 5.423c-.626.783-1.376 1.51-1.94 2.348-.922 1.454-1.705 2.963-3.014 4.137-.582.705-.038.393-1.722 2.181-1.314 1.395-.855 1.397-2.119 2.851-2.585 2.975-5.508 5.472-8.414 8.778-2.396 2.725-5.889 4.82-6.782 6.374-.47.783-1.051 1.51-1.694 2.237-.243-2.161-1.791-8.425-1.403-9.337.491-1.157-2.053-7.208-2.561-9.84-1.311-6.739-4.385-14.751-7.011-21.19-.652-1.599.15-1.366-1.582-4.585l-3.193-6.486-2.538-4.752c2.412-3.499 1.132-2.354 3.919-5.927.894-1.146 1.025-.316 1.716-1.51.948-1.635 2.279-4.285 3.629-5.647 1.359-1.342 2.488-2.907 3.768-4.361 1.308-1.398 2.555-2.851 3.796-4.305.498-.559.895-1.23 1.426-1.789l3.114-3.075c1.743-.807 2.07-1.98 3.136-3.131.503-.503 1.04-.951 1.538-1.454 3.48-3.597 6.367-6.725 10.226-10.12 15.467-13.608 29.577-23.211 49.112-29.129.016 2.858-.213 9.547-.682 12.132-.5 2.755-.481 5.121-1.292 7.604-.486 1.454-.632 3.019-1.04 4.529-2.327 8.659-4.304 14.739-7.575 23.093zm-61.803 82.58.436.168c.787.519.833-.131 1.208.335h.011c-.52-1.565-.99-3.131-1.431-4.752-2.957-11.063-11.107-27.106-16.46-37.18-.47-.895-.889-1.845-1.348-2.74-2.894-5.523-5.294-9.574-8.487-14.872-.966-1.603-2.083-2.681-2.807-4.361-.101-.224-.257-.503-.425-.671-1.387-1.621-2.438-3.467-3.684-5.2-1.157-1.454-2.27-3.019-3.399-4.529-8.376-11.072-22.224-25.799-32.898-34.217-8.922-7.037-8.728-6.791-18.21-12.58-2.248-1.372-4.72-2.319-6.737-3.467-3.887-2.21-12.893-5.737-17.176-6.933.245 13.67 4.724 31.306 9.946 43.889 4.299 10.356 7.66 17.235 12.87 26.613 1.966 3.442 4.59 7.151 6.273 10.288 1.011 1.859 11.189 15.418 12.91 17.556 2.136 2.653 9.037 10.859 10.478 13.083 2.26 3.488 11.107 12.859 14.464 17.053 4.697 5.866 16.151-2.662 34.67-.112l7.693.727c.258.061.453-.451.699.28.118.349 1.421.375 1.935.671l-.822.559.196.391c.033.001.072.001.095.001zm-53.35-.224c-.881-.826-5.779.241-8.873-.28-1.816-.264-18.276-1.996-20.128-2.628-1.855-.977-2.936-.609-4.87-.951-11.896-2.065-16.876-2.761-29.258-6.374-20.361-5.941-32.791-12.799-49.866-25.551-7.122-5.319-11.27-8.547-18.831-13.195l-12.591-6.541-9.98-3.914c8.483-4.09 16.995-7.751 26.199-9.673 4.376-.914 5.766-1.401 10.55-2.125 4.774-.722 9.541-1.559 14.358-1.957 1.113-.056 2.225 0 3.327-.168 2.359-.465 3.196-.699 5.625-.559.033.002 1.396-.279 3.047-.224 2.49.083 2.122-.223 3.903-.223l7.24.447c3.539.409 6.816.067 10.628.783 1.233.232 4.75.949 5.859.783 1.711-.28 3.506-.28 5.289.112 4.778 10.314 12.927 25.188 19.965 33.938l8.006 9.896c1.588 1.566 3.282 2.907 4.68 4.752.061.056.151.168.24.224 1.213.811 2.715 3.135 4.406 4.249 1.15.758 7.525 7.498 9.896 9.449l6.782 5.423c2.905 2.496 3.151 3.157 6.558 4.641-.695-.035-1.697.01-2.161-.334zm38.891-66.925 3.142-6.821c5.616-10.816 9.487-17.157 17.634-25.998-.995-2.164-1.591-.887-1.996-4.026-.198-1.531-1.302-2.787-1.672-4.473-.086-.393-.864-3.315-1.281-3.69-.77-.692-.351-1.186-1.101-2.125-.224-.323.272-.175-1.303-2.404-.285-.391-.324-.895-.498-1.398l-1.353-3.019-3.433-9.057c-.179-.503-.487-1.007-.71-1.51-1.617-3.852-4.218-9.168-6.295-12.748l-5.669-8.442c-7.994 9.991-12.781 19.574-17.136 31.421l-1.616 4.697c-.355.887.083 1.331-.911 2.013-.404.277-1.889 5.153-2.141 5.759-1.406 3.382-1.265 2.49-1.566 5.926-.087.988-.49-.208-.978 1.566l5.731 6.486c3.322 3.637 6.268 7.748 9.242 11.629 4.584 5.982 8.789 12.559 12.585 19.065zm-36.559-48.418c.302 2.292.453 4.473.487 6.541.481.503.945.95 1.403 1.454l-.078-6.933c.204-4.955 2.729-11.613 2.879-12.859.176-1.455.554-1.184.581-1.677l1.571-4.976c3.382-9.986 6.594-15.671 12.037-24.433 3.495-5.625 3.857-6.316 8.04-11.238 2.376-2.74 6.53-3.019 9.275-.671l2.337 2.516c.408.447.895.783 1.281 1.23l8.308 10.567c3.086 4.52 7.619 12.684 9.46 17.556.831 2.2 3.383 8.937 3.724 11.182l1.353 4.249c.708 2.888 2.28 9.946 1.694 12.412l-.246 3.578c.907-.885.568-.511.844-2.572.574-4.286-.235-3.94.436-8.89.592-4.585 1.023-9.002 1.084-13.251.045-2.807 1.674-11.713 2.236-14.537.733-3.634 1.314-7.38 1.879-11.014 1.917-12.376 4.273-21.38 7.408-33.323.881-3.357 1.465-6.387 2.633-9.728 2.404-6.878 2.503-7.617 5.809-14.649 3.833-8.153 4.898-8.406 10.304-13.978l13.066-13.642c8.348-8.778 17.103-17.165 25.59-25.831 4.423-4.529 8.906-8.946 13.43-13.362l11.339-11.406c2.711-2.666 3.761-6.664 2.533-10.343-2.398-7.184-11.074-8.429-15.616-4.417l-5.239 4.808-44.314 40.87c-9.424 8.646-19.452 18.765-31.427 23.986-7.568 3.299-15.175 5.96-23.415 6.989-19.108 2.387-36.654-1.026-53.132-11.462-6.677-4.228-9.737-7.236-15.453-12.524l-42.212-39.193c-1.809-1.679-14.223-13.485-15.89-14.592-6.894-4.582-15.2 1.008-15.722 6.933-.431 4.892.735 7.068 3.964 10.287l23.656 23.93 41.312 41.653c4.522 4.58 9.096 11.193 10.712 17.332.173.615.453 1.398.716 2.069 5.189 13.221 10.203 33.873 12.222 47.468.648 4.39 4.346 19.553 4.014 21.693-.18 1.161 1.114 9.796 1.476 11.573.734 3.525 1.192 7.103 1.651 10.625zm249.019 54.792c-12.577-8.511-23.413-14.418-37.667-19.345-9.319-3.07-24.103-6.669-33.2-6.765-2.197 0-4.389-.224-6.581-.056l-5.267-.112c-2.041.224-4.031.783-6.145.671-.101 0-.212 0-.313.056-1.021.426-3.549.001-5.597.783l-3.416.447c-3.506.308-8.953 1.093-12.283 2.013-3.347.924-7.893 1.35-10.248 2.292 3.705-9.817 4.997-15.426 7.212-25.775 1.298-6.062 2.421-15.262 2.388-21.414-.023-1.621-.162-3.299-.05-4.976l-.917-8.61c-.811-3.187-4.087-5.144-7.313-4.361-9.061 2.326-12.079 3.24-20.871 6.933-4.639 1.949-10.399 5.128-14.738 7.716l-9.225 6.262c-3.34 2.454-13.662 10.851-16.594 13.922.612-1.343.71-.797 1.062-2.069.66-2.292 1.376-4.473 1.985-6.877l4.92-19.792c2.399-8.98 4.674-20.078 7.537-28.626.47-1.398.956-2.907 1.37-4.417 2.597-9.21 9.69-33.595 16.957-41.709l8.034-7.884c5.11-5.032 10.17-10.12 15.247-15.207.441-.447.872-.895 1.325-1.286 3.724-3.411 7.291-7.045 10.897-10.623l32.456-32.093c3.148-3.113 5.196-5.506 6.877-10.008 6.646-17.795-8.156-36.865-28.128-33.323-8.21 1.456-12.582 6.471-18.355 11.797l-53.903 50.152c-3.871 3.638-6.992 6.139-11.775 8.946 2.525-6.448 2.922-14.008 1.392-20.743l-.749-2.348c.032-.962-.618-1.76-1.057-2.963-1.346-3.691-5.212-9.3-8.426-11.853-3.873-3.077-9.978-5.26-14.895-5.423-1.878-.062-5.976-.116-7.665.671-.805.375.367.486.503.839-.525 1.125-.665.339-.134 1.006-.459.092-1.368.21-1.683.559 2.155 2.529 6.303 1.499 6.67 2.795.253.892 2.679.471 3.869 1.566 1.097.94 6.823 5.144 6.799 6.318-.02.981.575 1.045 1.174 1.901 3.035 4.333 4.262 8.849 4.294 14.033.049 7.879-5.237 15.914-12.401 19.122-2.757 1.234-5.694 2.136-8.694 2.516-3.885.492-1.89 0-5.2 0-1.47 0-1.383-.381-2.874-.727-3.892-.902-10.136-5.441-12.104-8.89-1.916-3.316-3.383-6.457-3.55-10.567-.006-.559-.202-1.118-.123-1.621.619-4.263.114-3.84 1.705-8.442l1.493-3.746c.212-.447.654-.783.811-1.23.518-1.508.118-1.067 1.185-2.292.034-.056.05-.112.062-.112.145-.91 1.038-.955 1.375-2.013.354-1.108 4.533-3.606 5.406-4.361 1.552-1.342 3.857-1.35 4.473-2.125 1.162-1.459 2.762-1.18 3.293-1.957.514-.752 1.093-.327 1.235-.671.252-.503.665-.615 1.102-.839-1.07-.623-.734-.794-1.303-1.23-1.546-1.184-.878-1.635-3.193-2.124-2.627-.555-6.47-.781-9.069-.056l-4.109 1.118c-2.147.31-6.656 3.318-8.085 4.752-4.637 4.655-6.126 6.558-8.56 12.468-3.531 7.81-3.831 17.645-.783 25.551-7.682-4.584-14.583-12-21.531-17.835l-7.956-7.212-39.708-36.118-2.98-2.572c-13.876-10.275-32.661-2.826-36.459 12.804-2.1 8.644.507 16.352 6.681 22.476l15.029 14.816c3.086 3.019 6.15 6.094 9.253 9.113 3.466 3.299 6.765 6.877 10.343 10.064.447.391.928.895 1.308 1.286 3.003 3.315 5.298 5.316 8.398 8.331l24.053 23.762c6.907 6.883 15.209 33.41 17.981 42.883 4.89 16.712 9.505 35.603 13.038 52.668.509 2.46 1.001 4.92 1.532 7.324-11.219-10.017-20.746-17.715-34.575-24.545-5.812-2.87-15.604-6.728-22.029-7.995l-5.753-1.286c-3.858-.503-7.386 2.236-7.9 6.094-2.729 20.472 2.95 42.456 10.612 61.613-4.632-1.818-4.996-2.138-10.31-3.578-2.158-.615-4.355-1.062-6.446-1.789-4.382-1.537-12.613-2.03-17.528-2.293-9.666-.516-11.787.074-20.335.727-4.526.273-7.68 1.017-11.937 1.845-3.102.603-2.903.379-6.01 1.23-2.788.764-5.124 1.238-7.956 2.236-2.454.783-4.914 1.621-7.358 2.516l-10.506 4.752c-9.582 4.848-13.189 7.331-21.514 13.251-5.816 4.135-3.249 13.726 4.769 13.53 5.926-.145 8.426-.542 15.308.839 7.879 1.58 20.681 8.218 27.413 13.027l5.994 3.802c2.086 1.454 4.109 3.019 6.318 4.305l3.685 2.572c11.099 7.707 21.561 13.774 34.161 18.339 5.986 2.14 15.586 5.355 21.425 6.486 2.002.391 3.936 1.118 5.977 1.286.541.022 1.877.596 3.796.838l7.24 1.23 13.737 1.677c12.969 1.049 81.286 3.969 84.391 1.286l4.299-3.019-1.029-2.628c-.005 0-.017 0-.022 0 .509-.112 1.034-.168 1.51-.112.095.391.218.839.475 1.174l.274-1.062c1.15 0 5.535-2.06 6.665-2.628 2.681-1.346 5.378-2.823 7.833-4.529 1.66-1.118 3.276-2.348 5.032-3.299 4.157-2.235 14.71-12.707 18.283-16.885l9.331-11.518 2.835-3.914c.581-.783 1.264-1.51 1.817-2.348 7.795-11.751 11.435-17.485 17.394-31.03l8.18-.112c3.494.076 9.342-.514 12.138-.112l15.297.112c2.259.068 17.458.857 19.68 1.23 3.01.743 5.937.937 8.28 1.454l14.799 3.914c2.175.839 4.333 1.621 6.525 2.348 4.143 1.677 8.308 3.299 12.294 5.367-6.054 1.442-18.504 8.082-23.197 11.35l-5.96 3.969c-1.521 1.174-3.047 2.348-4.568 3.522-8.064 6.15-15.343 11.478-24.45 16.717-2.827 1.627-12.964 6.716-16.796 8.163l-3.036 1.23c-5.993 2.485-10.835 3.914-16.902 5.703l-6.34 1.733c-2.394.275-2.425.523-4.652 1.062l-15.504 2.851c-5.67.702-12.064 2.059-17.791 3.075-7.677 1.362-14.467 2.503-22.252 3.466-.513.063-6.429.553-5.988 1.118.425.28 1.124.112 1.448.503-.848 1.061-1.11.412-.156 1.006-.816.08-3.575 1.945-4.216 2.298 3.836 2.326 10.399-.34 14.554.051 1.705.16 1.069.7 2.578.559l7.772-.447c2.794.239 10.513.144 13.413-.056.883-.056 1.767-.279 2.639-.223 1.582.051 4.387-.409 5.122-.224 1.847.466 3.06-.028 5.211-.279 10.038-1.174 21.531-3.353 31.354-5.982 4.958-1.438 12.447-3.549 16.823-5.479 3.592-1.584 6.627-2.55 10.511-4.417l7.436-3.522c10.22-5.412 21.809-13.318 31.114-19.904 3.363-2.38 10.34-6.875 14.324-9.057 1.813-.925 8.011-3.909 9.907-4.361 1.521-.335 3.014-.839 4.568-1.23 3.639-.859 11.306-1.528 15.107-1.118 2.533.112 5.065-1.118 6.586-3.354 2.318-3.466 1.395-8.106-2.065-10.455zm-222.881-331.995c.118-.839.168-1.733.185-2.628.012-1.497.611-4.989.654-7.212l.408-1.677c-.043-.662-.271-1.464.129-2.069.017 0 .017-.056.011-.112-.177-.86.478-1.073.257-1.901-.191-.717 1.476-3.336 1.94-4.976.484-1.714 1.937-2.438 1.856-3.243-.028-.28 0-.559.045-.783.732.49.223.021 1.023 1.23.315.475-.31.6.123 1.006.538.505 1.561 1.299 1.75 2.013.205.774 2.599 6.28 2.287 6.821-.429.742.087 1.059.28 1.789 1.483 5.632 1.836 11.33.945 17.109-.377 2.446-1.972 7.101-3.187 9.337l-2.969 4.529-3.545-6.653c-1.174-2.982-2.019-8.056-2.097-11.182-.006-.447-.151-.895-.095-1.398zm-14.8 6.318c.768 6.841 3.499 14.772 7.699 20.351l5.39 6.374 3.444 2.851c2.371 2.013 5.904 2.013 8.325-.056 5.093-4.577 6.371-6.625 9.639-12.859 4.011-7.728 5.324-15.424 4.792-23.985-.064-1.024-.296-4.294-.66-5.088-.198-.431.276-.468-.229-1.733l-.749-3.131c-1.768-6.6-4.015-10.428-9.605-14.592-.399-.298-6.859-4.637-6.961-3.355-.04.504.428.281-.156 1.062l-.201.447c-.011 0-.017.056-.039.112-.006 0-.006 0-.017 0-.005-.056-.005-.056-.017-.056-.151-.559-.095-.839-.005-1.286l-.699-.671c-1.358-.312-.776-.907-3.226-.336-1.48.345-4.793 2.147-6.005 3.299l-3.142 2.628c-3.177 3.411-5.819 9.822-6.508 14.481-.017.112-.028.224-.078.335-1.098 2.486-1.501 11.864-.992 15.208z" fill-rule="evenodd"/></svg>