<?xml version="1.0" encoding="UTF-8"?>
<svg xmlns="http://www.w3.org/2000/svg" xmlns:xlink="http://www.w3.org/1999/xlink" version="1.1" id="Capa_1" x="0px" y="0px" viewBox="0 0 511.996 511.996" style="enable-background:new 0 0 511.996 511.996;" xml:space="preserve" width="512" height="512">
<g>
	<g>
		<g>
			<path style="fill:none;stroke:#000000;stroke-width:15;stroke-linecap:round;stroke-linejoin:round;stroke-miterlimit:10;" d="&#10;&#9;&#9;&#9;&#9;M101.224,98.8c-12.948-7.955-27.073-15.791-42.475-23.376c-6.248-3.077-13.648,1.055-14.342,7.985&#10;&#9;&#9;&#9;&#9;c-2.924,29.191-1.26,97.579,69.594,135.863"/>
		</g>
		<g>
			<path style="fill:none;stroke:#000000;stroke-width:15;stroke-linecap:round;stroke-linejoin:round;stroke-miterlimit:10;" d="&#10;&#9;&#9;&#9;&#9;M194.903,108.107c-13.403-25.305-31.38-52.853-55.459-81.798c-4.454-5.354-12.895-4.592-16.35,1.455&#10;&#9;&#9;&#9;&#9;c-14.799,25.898-41.765,90.74,10.785,155.636"/>
		</g>
		<g>
			<g>
				<g>
					<g>
						
							<path style="fill:none;stroke:#000000;stroke-width:15;stroke-linecap:round;stroke-linejoin:round;stroke-miterlimit:10;" d="&#10;&#9;&#9;&#9;&#9;&#9;&#9;&#9;M170.518,334.262c10.072,4.533,20.452,8.166,31.015,10.899"/>
						
							<path style="fill:none;stroke:#000000;stroke-width:15;stroke-linecap:round;stroke-linejoin:round;stroke-miterlimit:10;" d="&#10;&#9;&#9;&#9;&#9;&#9;&#9;&#9;M112.846,294.389c5.104,5.104,10.421,9.864,15.922,14.282"/>
						
							<path style="fill:none;stroke:#000000;stroke-width:15;stroke-linecap:round;stroke-linejoin:round;stroke-miterlimit:10;" d="&#10;&#9;&#9;&#9;&#9;&#9;&#9;&#9;M234.144,350.702c55.107,4.614,111.803-14.148,153.967-56.313l0,0c76.013-76.013,76.013-199.253,0-275.266"/>
					</g>
					<path style="fill:none;stroke:#000000;stroke-width:15;stroke-linecap:round;stroke-linejoin:round;stroke-miterlimit:10;" d="&#10;&#9;&#9;&#9;&#9;&#9;&#9;M170.518,291.729c36.433-14.013,82.38-45.602,125.856-89.079c76.013-76.013,115.69-159.576,88.622-186.645&#10;&#9;&#9;&#9;&#9;&#9;&#9;c-20.309-20.309-72.418-3.046-129.28,38.945"/>
					<path style="fill:none;stroke:#000000;stroke-width:15;stroke-linecap:round;stroke-linejoin:round;stroke-miterlimit:10;" d="&#10;&#9;&#9;&#9;&#9;&#9;&#9;M229.94,75.44c-10.562,8.992-21.147,18.744-31.59,29.187c-76.013,76.013-115.69,159.576-88.621,186.645&#10;&#9;&#9;&#9;&#9;&#9;&#9;c4.819,4.819,11.429,7.523,19.468,8.282"/>
					<g>
						
							<path style="fill:none;stroke:#000000;stroke-width:15;stroke-linecap:round;stroke-linejoin:round;stroke-miterlimit:10;" d="&#10;&#9;&#9;&#9;&#9;&#9;&#9;&#9;M154.16,221.965c6.925-21.889,32.507-57.806,68.114-93.414c49.419-49.419,99.437-79.527,111.716-67.247&#10;&#9;&#9;&#9;&#9;&#9;&#9;&#9;s-17.828,62.297-67.247,111.716c-19.891,19.891-39.88,36.654-57.465,48.783"/>
					</g>
				</g>
				<path style="fill:none;stroke:#000000;stroke-width:15;stroke-linecap:round;stroke-linejoin:round;stroke-miterlimit:10;" d="&#10;&#9;&#9;&#9;&#9;&#9;M393.334,174.455c0,0,30.732-52.032,75.042-44.955"/>
				<g>
					<path style="fill:none;stroke:#000000;stroke-width:15;stroke-linecap:round;stroke-linejoin:round;stroke-miterlimit:10;" d="&#10;&#9;&#9;&#9;&#9;&#9;&#9;M406.913,120.854c0,0,20.726-41.452,47.169-49.314"/>
				</g>
				<path style="fill:none;stroke:#000000;stroke-width:15;stroke-linecap:round;stroke-linejoin:round;stroke-miterlimit:10;" d="&#10;&#9;&#9;&#9;&#9;&#9;M325.089,336.572c0,0-32.526,12.268-18.232,47.287"/>
				<path style="fill:none;stroke:#000000;stroke-width:15;stroke-linecap:round;stroke-linejoin:round;stroke-miterlimit:10;" d="&#10;&#9;&#9;&#9;&#9;&#9;M303.226,319.625c0,0-32.855,6.327-37.143,56.373"/>
			</g>
			<path style="fill:none;stroke:#000000;stroke-width:15;stroke-linecap:round;stroke-linejoin:round;stroke-miterlimit:10;" d="&#10;&#9;&#9;&#9;&#9;M103.178,431.495c-1.898,7.041-2.944,13.846-2.944,19.741c0,27.228,22.073,53.26,49.301,53.26&#10;&#9;&#9;&#9;&#9;c27.228,0,49.301-26.032,49.301-53.26c0-12.867-4.93-30.058-13.004-44.612c-10.405-18.756-15.727-39.905-15.727-61.354v-86.718&#10;&#9;&#9;&#9;&#9;c0-9.256,5.339-17.662,13.698-21.636c7.574-3.601,16.186-8.716,25.469-15.124c-1.148-0.475-80.716-54.307-80.716,100.356v23.869&#10;&#9;&#9;&#9;&#9;c0,19.093-4.225,37.947-12.498,55.089"/>
		</g>
	</g>
	<path style="fill:none;stroke:#000000;stroke-width:15;stroke-linecap:round;stroke-linejoin:round;stroke-miterlimit:10;" d="&#10;&#9;&#9;M437.052,212.347c0,0,4.13-26.376,27.315-35.116"/>
	<path style="fill:none;stroke:#000000;stroke-width:15;stroke-linecap:round;stroke-linejoin:round;stroke-miterlimit:10;" d="&#10;&#9;&#9;M294.56,264.661c0,0-14.03,5.367-19.81,18.212"/>
	<path style="fill:none;stroke:#000000;stroke-width:15;stroke-linecap:round;stroke-linejoin:round;stroke-miterlimit:10;" d="&#10;&#9;&#9;M385.792,233.907c0,0-14.03,5.367-19.81,18.212"/>
</g>















</svg>
