<svg id="Layer_1" height="512" viewBox="0 0 100.92 99.39" width="512" xmlns="http://www.w3.org/2000/svg" data-name="Layer 1"><g transform="translate(-250.04 -250.3)"><path d="m283.84 293.76c.91-.85 1.75-1.78 2.59-2.7l18.72 18.41a4.72 4.72 0 0 0 3.33 1.36 4.92 4.92 0 0 0 2.16-.5l2.61 2.56a1.79 1.79 0 0 0 2.5 0l.23-.23a1.71 1.71 0 0 0 0-2.45l-2.61-2.57a4.6 4.6 0 0 0 -.87-5.4l-18.75-18.45c1-1 2-1.93 3-2.81l18.62 18.32a8.7 8.7 0 0 1 2.58 7.08l.9.89a5.83 5.83 0 0 1 0 8.33l-.23.23a5.92 5.92 0 0 1 -8.28 0l-.94-.93a7.3 7.3 0 0 1 -.94.05 8.79 8.79 0 0 1 -6.22-2.54l-18.68-18.41z"/><path d="m310 326.69c0-4.37 4.95-12.44 5.52-13.35a2.08 2.08 0 0 1 1.75-1 2.06 2.06 0 0 1 1.75 1c.56.91 5.52 9 5.52 13.34a7.28 7.28 0 1 1 -14.54 0zm4.12 0a3.18 3.18 0 1 0 6.3 0c0-1.72-1.57-5.19-3.16-8.13-1.6 2.93-3.16 6.44-3.16 8.13z"/><path d="m285.38 274.72 4.37 4.3 1-.93a2.16 2.16 0 0 1 1.53-.62 2.41 2.41 0 0 1 1.67.7l.42.41a2.19 2.19 0 0 1 .08 3.15l-10.1 9.94a2.18 2.18 0 0 1 -1.53.62 2.37 2.37 0 0 1 -1.68-.7l-.42-.41a2.21 2.21 0 0 1 -.08-3.15l.95-.94-4.37-4.3a5.17 5.17 0 0 1 0-7.39l.69-.68a5.37 5.37 0 0 1 7.51 0zm-3.76-5.65a9.41 9.41 0 0 0 -6.64 2.71l-.69.68a9.27 9.27 0 0 0 0 13.26l1.88 1.85a6.18 6.18 0 0 0 -.31 2 6.47 6.47 0 0 0 1.93 4.59l.42.41a6.48 6.48 0 0 0 4.57 1.88 6.27 6.27 0 0 0 4.42-1.8l10.1-9.94a6.17 6.17 0 0 0 1.86-4.44 6.48 6.48 0 0 0 -1.94-4.59l-.42-.41a6.47 6.47 0 0 0 -4.56-1.88 6.32 6.32 0 0 0 -2 .33l-1.93-1.9a9.42 9.42 0 0 0 -6.65-2.71z"/><path d="m294.73 302.75h19a1.76 1.76 0 1 0 0-3.51h-19a1.76 1.76 0 1 0 0 3.51z"/><path d="m250 300c0-27.4 22.64-49.7 50.46-49.7s50.54 22.3 50.54 49.7-22.64 49.7-50.46 49.7-50.54-22.3-50.54-49.7zm5.7 0c0 24.26 20.08 44 44.76 44s44.76-19.74 44.76-44-20.08-44-44.76-44-44.72 19.74-44.72 44z"/><path d="m308.29 295.19 27.56-27.56-2.93-2.93-27.24 27.24c.89 1.06 1.81 2.11 2.61 3.25z"/><path d="m294.9 302.75-29.74 29.74 3 2.83 29.31-29.32c-.89-1-1.71-2.16-2.57-3.25z"/></g></svg>