<?xml version="1.0"?>
<svg xmlns="http://www.w3.org/2000/svg" id="Line" viewBox="0 0 64 64"><path d="M54.2619,39.34357C60.96964,22.796,47.88617,3.6654,29.99971,4.00031A26.02864,26.02864,0,0,0,4,30C3.821,46.24116,19.37922,58.88965,35.23845,55.47055a1.00025,1.00025,0,0,0-.39665-1.96078A24.44589,24.44589,0,0,1,30,54C-1.83434,52.68392-1.8345,7.31565,30.00018,6c16.47808-.3046,28.5532,17.28458,22.42371,32.55317a10.92628,10.92628,0,0,0-3.02173-.53273,21.00658,21.00658,0,0,0-2.81237-20.89293,1,1,0,0,0-1.58,1.22562,18.996,18.996,0,0,1,2.13285,19.81618,11.01124,11.01124,0,0,0-8.9734,8.97344c-12.238,6.12744-27.40184-3.43914-27.169-17.14295C10.87233,14.38141,29.40678,5.29267,41.6466,14.99051A1.00032,1.00032,0,0,0,42.873,13.41013c-13.5259-10.71542-34.017-.675-33.87285,16.59016-.30335,14.64156,15.64891,25.2566,29.02049,19.40158A11.00432,11.00432,0,0,0,49,60C60.43471,59.86194,64.129,44.81327,54.2619,39.34357ZM49,58a9.00984,9.00984,0,0,1-9-9c.48321-11.90882,17.47789-11.96814,18,.00006A9.00987,9.00987,0,0,1,49,58Z"/><path d="M52.707,45.293a.99962.99962,0,0,0-1.41406,0L49,47.58594l-2.293-2.293A.99989.99989,0,0,0,45.293,46.707L47.58594,49l-2.293,2.293A.99989.99989,0,0,0,46.707,52.707L49,50.41406l2.293,2.293A.99989.99989,0,0,0,52.707,51.293L50.41406,49l2.293-2.293A.99962.99962,0,0,0,52.707,45.293Z"/><path d="M42.48535,22.51514a5.02483,5.02483,0,0,0-8.53521-3.53548l-1.415,1.41389a3.07156,3.07156,0,0,0-4.24219-.00048,3.01394,3.01394,0,0,0,.00028,4.24292l-7.7764,7.77636a5.00494,5.00494,0,0,0-1.40162,4.23023l-.72168.72168a2.99987,2.99987,0,0,0,4.24226,4.24212l.72161-.72161a4.99536,4.99536,0,0,0,4.22852-1.39942L35.36426,31.707a3,3,0,0,0,4.24212-4.24274C41.027,26.12493,42.5767,24.64121,42.48535,22.51514ZM26.17188,38.07129a2.97114,2.97114,0,0,1-2.8877.76172.99608.99608,0,0,0-.96289.25976l-1.09961,1.09961a1.00009,1.00009,0,0,1-1.414-1.4141l1.09957-1.09957a1.00023,1.00023,0,0,0,.25976-.96289,2.95572,2.95572,0,0,1,.53729-2.59473h8.41779Zm5.95019-5.9502H23.63586l6.07142-6.071L33.9502,30.293Zm7.48438-7.48486-2.1211,2.12109a.99965.99965,0,0,0,0,1.41407l.707.707a1.00026,1.00026,0,0,1-1.4141,1.4145L29.707,23.22119a.98921.98921,0,0,1-.293-.70654,1.00658,1.00658,0,0,1,1.70705-.707l.707.707a.99965.99965,0,0,0,1.41407,0l2.12207-2.1211A3.00011,3.00011,0,0,1,39.60645,24.63623Z"/></svg>
