<svg id="Capa_1" enable-background="new 0 0 512 512" height="512" viewBox="0 0 512 512" width="512" xmlns="http://www.w3.org/2000/svg"><g><g><path d="m94.296 359.843c5.522 0 10-4.477 10-10v-76.863c0-5.523-4.478-10-10-10h-16.429c-5.522 0-10 4.477-10 10s4.478 10 10 10h6.429v66.863c0 5.523 4.477 10 10 10z"/><path d="m124.296 293.639v35.546c0 17.77 14.457 32.227 32.227 32.227s32.227-14.457 32.227-32.227v-35.546c0-17.77-14.457-32.227-32.227-32.227s-32.227 14.457-32.227 32.227zm44.453 0v35.546c0 6.742-5.484 12.227-12.227 12.227s-12.227-5.485-12.227-12.227v-35.546c0-6.742 5.484-12.227 12.227-12.227s12.227 5.485 12.227 12.227z"/><path d="m208.749 293.639v35.546c0 17.77 14.457 32.227 32.228 32.227 17.77 0 32.227-14.457 32.227-32.227v-35.546c0-17.77-14.457-32.227-32.227-32.227-17.771 0-32.228 14.457-32.228 32.227zm44.454 0v35.546c0 6.742-5.484 12.227-12.227 12.227s-12.228-5.485-12.228-12.227v-35.546c0-6.742 5.485-12.227 12.228-12.227s12.227 5.485 12.227 12.227z"/><path d="m349.114 360.704c1.212.482 2.462.71 3.692.71 3.976 0 7.736-2.387 9.295-6.307l31.818-80c2.041-5.132-.465-10.947-5.597-12.988-5.126-2.04-10.946.464-12.987 5.596l-31.818 80c-2.04 5.133.465 10.948 5.597 12.989z"/><path d="m323.203 321.412c16.542 0 30-13.458 30-30s-13.458-30-30-30-30 13.458-30 30 13.458 30 30 30zm0-40c5.514 0 10 4.486 10 10s-4.486 10-10 10-10-4.486-10-10 4.486-10 10-10z"/><path d="m384.133 331.666c0 16.542 13.458 30 30 30s30-13.458 30-30-13.458-30-30-30-30 13.458-30 30zm30-10c5.514 0 10 4.486 10 10s-4.486 10-10 10-10-4.486-10-10 4.486-10 10-10z"/><path d="m466.974 110.956c-3.131-4.548-9.358-5.697-13.908-2.563-4.548 3.133-5.695 9.359-2.562 13.908 27.146 39.415 41.496 85.647 41.496 133.699 0 63.038-24.548 122.303-69.123 166.877-44.574 44.575-103.839 69.123-166.877 69.123s-122.303-24.548-166.877-69.123c-44.575-44.574-69.123-103.839-69.123-166.877s24.548-122.303 69.123-166.877c44.574-44.575 103.839-69.123 166.877-69.123 48.052 0 94.284 14.35 133.7 41.498 4.544 3.132 10.773 1.985 13.907-2.563 3.133-4.548 1.985-10.775-2.562-13.908-42.768-29.457-92.923-45.027-145.045-45.027-68.38 0-132.667 26.628-181.02 74.981-48.351 48.352-74.98 112.639-74.98 181.019s26.629 132.667 74.98 181.019c48.353 48.353 112.64 74.981 181.02 74.981s132.667-26.628 181.02-74.981c48.351-48.352 74.98-112.639 74.98-181.019 0-52.122-15.569-102.277-45.026-145.044z"/><path d="m346.772 209.886c17.002-17.002 27.127-39.574 28.511-63.557.577-10.002-3.146-19.793-10.216-26.863s-16.866-10.8-26.863-10.217c-23.983 1.384-46.555 11.51-63.557 28.511-7.727 7.727-13.972 16.513-18.647 25.975-4.675-9.462-10.92-18.248-18.647-25.976-17.002-17.001-39.573-27.126-63.557-28.511-10.013-.575-19.794 3.146-26.863 10.217-7.07 7.07-10.793 16.861-10.216 26.862 1.384 23.983 11.509 46.555 28.511 63.557 18.634 18.634 43.396 28.708 69.053 28.708 7.208 0 14.487-.797 21.72-2.421 7.234 1.624 14.51 2.421 21.72 2.421 25.653.002 50.419-10.073 69.051-28.706zm-57.982-57.983c13.528-13.528 31.486-21.585 50.566-22.687 4.378-.252 8.484 1.307 11.569 4.392 3.084 3.084 4.644 7.192 4.391 11.568-1.101 19.08-9.157 37.039-22.687 50.567-14.232 14.232-32.958 22.186-52.5 22.802l33.837-33.837c3.905-3.905 3.905-10.237 0-14.142-3.904-3.905-10.234-3.905-14.143 0l-33.802 33.802c-.005-.196-.005-.393-.011-.589.766-19.313 8.7-37.795 22.78-51.876zm-132.106-6.727c-.253-4.375 1.307-8.483 4.391-11.567 2.869-2.869 6.623-4.418 10.653-4.418.304 0 .609.009.916.026 19.08 1.101 37.038 9.158 50.566 22.686 14.08 14.081 22.014 32.563 22.778 51.877-.006.196-.006.392-.011.588l-33.802-33.802c-3.906-3.905-10.236-3.905-14.143 0-3.905 3.905-3.905 10.237 0 14.142l33.838 33.838c-19.539-.615-38.268-8.571-52.5-22.803-13.529-13.528-21.586-31.486-22.686-50.567z"/><circle cx="430" cy="82.002" r="10"/></g></g></svg>