<svg id="Capa_1" enable-background="new 0 0 512 512" height="512" viewBox="0 0 512 512" width="512" xmlns="http://www.w3.org/2000/svg"><g><path d="m309.503 82.459v-52.459h1.403c8.284 0 15-6.716 15-15s-6.716-15-15-15h-109.682c-8.284 0-15 6.716-15 15s6.716 15 15 15h1.273v52.467c-95.805 24.223-164.578 110.783-164.578 211.452 0 120.526 97.538 218.081 218.081 218.081 120.526 0 218.081-97.538 218.081-218.081 0-101.016-69.109-187.317-164.578-211.46zm134.578 211.46c0 26.096-5.347 50.966-14.995 73.577l-36.052-18.833c-2.583-14.725-1.864-7.365-83.531-180.263v-54.834c78.826 23.373 134.578 96.902 134.578 180.353zm-258.716-19.895 47.32 24.719c-16.477 16.115-31.592 21.868-59.629 1.092zm-34.154 71.621 8.774-18.4c18.885 12.716 39.666 20.076 61.358 13.498 15.745-4.776 28.173-15.916 39.049-27.524l102.623 53.61c-3.403 13.113-15.019 23.672-30.461 23.672h-153.037c-23.093-.001-38.26-23.982-28.306-44.856zm130.16-55.314c16.284-16.381 28.298-21.008 50.261-5.923l20.461 42.867zm-1.868-260.331v141.796c0 2.236.5 4.443 1.463 6.461l32.062 67.174c-24.695-2.292-42.701 12.304-59.34 30.438l-55.402-28.942 32.75-68.676c.961-2.016 1.46-4.222 1.46-6.456v-141.795zm-77.006 83.569v54.833l-30.818 64.625-74.746-39.047c23.92-37.963 61.078-67.206 105.564-80.411zm53.503 368.431c-103.708 0-188.081-84.373-188.081-188.081 0-25.782 5.354-50.64 15.073-73.375l75.766 39.58-34.625 72.607c-19.399 40.679 10.231 87.769 55.384 87.769h153.039c26.227 0 48.473-16.249 57.387-39.606l25.194 13.161c-33.343 52.799-92.209 87.945-159.137 87.945z"/></g></svg>