<svg id="Capa_1" enable-background="new 0 0 512 512" height="512" viewBox="0 0 512 512" width="512" xmlns="http://www.w3.org/2000/svg"><g><path d="m437.02 74.981c-48.353-48.352-112.64-74.981-181.02-74.981s-132.667 26.629-181.02 74.981-74.98 112.639-74.98 181.019 26.628 132.667 74.98 181.019 112.64 74.981 181.02 74.981 132.667-26.629 181.02-74.981c48.351-48.352 74.98-112.639 74.98-181.019s-26.629-132.667-74.98-181.019zm-10.607 351.432c-45.519 45.519-106.039 70.587-170.413 70.587s-124.894-25.068-170.413-70.587-70.587-106.039-70.587-170.413 25.068-124.894 70.587-170.413 106.039-70.587 170.413-70.587 124.894 25.068 170.413 70.587 70.587 106.039 70.587 170.413-25.068 124.894-70.587 170.413z"/><path d="m415.947 96.053c-42.724-42.723-99.527-66.252-159.947-66.252s-117.224 23.529-159.947 66.252c-42.723 42.724-66.252 99.527-66.252 159.947s23.529 117.223 66.252 159.947c42.723 42.723 99.527 66.252 159.947 66.252s117.223-23.529 159.947-66.252c42.723-42.724 66.252-99.527 66.252-159.947s-23.529-117.223-66.252-159.947zm-159.947 371.146c-116.456 0-211.199-94.743-211.199-211.199s94.743-211.199 211.199-211.199 211.199 94.744 211.199 211.199-94.743 211.199-211.199 211.199z"/><path d="m312.98 329.999c-14.206-.943-39.825-.192-56.981 14.42-17.155-14.612-42.771-15.361-56.981-14.42-9.402.624-16.962 8.184-17.586 17.586-.994 14.986-.116 42.673 16.937 59.726 14.266 14.266 35.973 17.213 51.461 17.212 2.373 0 11.002.01 12.7.01 27.832 0 43.096-9.22 51.098-17.222 17.053-17.053 17.931-44.74 16.937-59.727-.622-9.401-8.183-16.961-17.585-17.585zm-104.003 66.706c-5.523-5.523-14.501-19.12-12.577-48.127.128-1.931 1.681-3.484 3.612-3.612 2.73-.181 5.322-.266 7.785-.266 23.708 0 35.338 7.839 40.342 12.843 5.523 5.523 14.501 19.119 12.577 48.126-.128 1.931-1.681 3.484-3.613 3.612-29.007 1.926-42.603-7.053-48.126-12.576zm94.046 0c-7.26 7.26-17.797 10.553-27.586 11.932.113-.649.201-1.305.246-1.975.835-12.593.345-34.152-9.95-50.835 6.476-5.468 20.102-12.599 46.255-10.861 1.931.128 3.484 1.681 3.612 3.612 1.924 29.007-7.054 42.604-12.577 48.127z"/><path d="m376.569 247.919c-.026-.068-.053-.136-.081-.204-1.331-3.237-4.451-5.327-7.951-5.327-.003 0-.005 0-.008 0-3.503.003-6.624 2.1-7.95 5.342-.023.057-.046.114-.067.171l-18.176 47.725c-1.474 3.871.468 8.204 4.339 9.678 3.872 1.474 8.204-.469 9.678-4.339l1.545-4.055h21.125l1.522 4.034c1.134 3.004 3.987 4.854 7.019 4.854.879 0 1.775-.156 2.646-.485 3.875-1.462 5.832-5.79 4.369-9.665zm-12.957 33.989 4.898-12.861 4.853 12.861z"/><path d="m184.263 305.311c3.875-1.462 5.832-5.79 4.369-9.665l-18.011-47.727c-.026-.068-.053-.136-.081-.204-1.331-3.237-4.451-5.327-7.951-5.327-.003 0-.007 0-.01 0-3.503.004-6.624 2.102-7.949 5.345-.022.056-.044.111-.066.167l-18.177 47.725c-1.474 3.871.468 8.204 4.339 9.678 3.87 1.474 8.204-.469 9.678-4.339l1.545-4.055h21.125l1.522 4.034c1.134 3.004 3.987 4.854 7.019 4.854.881-.001 1.777-.157 2.648-.486zm-26.599-23.403 4.898-12.86 4.853 12.86z"/><path d="m119.39 242.387c-4.142.04-7.467 3.43-7.427 7.572l.239 24.771-20.037-29.015c-1.865-2.701-5.271-3.874-8.403-2.898-3.134.977-5.268 3.878-5.268 7.16v48.316c0 4.142 3.358 7.5 7.5 7.5s7.5-3.358 7.5-7.5v-24.257l19 27.514c2.148 3.101 5.751 4.412 9.18 3.34 3.487-1.09 5.741-4.319 5.74-8.301l-.452-46.775c-.04-4.141-3.468-7.482-7.572-7.427z"/><path d="m425.963 290.753c-3.193.018-6.555.031-9.408.037v-40.903c0-4.142-3.358-7.5-7.5-7.5s-7.5 3.358-7.5 7.5v48.366c0 3.654 2.633 6.776 6.234 7.392.534.092.887.152 6.364.152 2.61 0 6.383-.014 11.894-.044 4.142-.023 7.481-3.4 7.458-7.542s-3.371-7.489-7.542-7.458z"/><path d="m243.286 242.387c-4.142 0-7.5 3.358-7.5 7.5v33.309c0 7.831 3.72 14.178 11.056 18.866 3.865 2.47 8.222 3.725 12.951 3.732h.037c4.06 0 7.875-.885 11.343-2.631 8.544-4.302 13.249-11.406 13.249-20.001v-33.274c0-4.142-3.358-7.5-7.5-7.5s-7.5 3.358-7.5 7.5v33.274c0 2.022-.594 4.387-4.996 6.604-1.375.692-2.878 1.029-4.596 1.029-.006 0-.012 0-.017 0-1.853-.003-3.454-.451-4.895-1.372-3.456-2.208-4.132-3.955-4.132-6.226v-33.309c0-4.143-3.358-7.501-7.5-7.501z"/><path d="m193.176 242.387c-4.142 0-7.5 3.358-7.5 7.5s3.358 7.5 7.5 7.5h5.812v40.906c0 4.142 3.358 7.5 7.5 7.5s7.5-3.358 7.5-7.5v-40.906h5.92c4.142 0 7.5-3.358 7.5-7.5s-3.358-7.5-7.5-7.5z"/><path d="m335.917 262.468c0-11.072-9.328-20.08-20.792-20.08h-12.863c-.003 0-.005 0-.008 0s-.005 0-.008 0c-4.142 0-7.5 3.358-7.5 7.5v48.406c0 4.142 3.358 7.5 7.5 7.5s7.5-3.358 7.5-7.5v-9.863l13.042 14.818c1.482 1.685 3.552 2.545 5.633 2.545 1.76 0 3.527-.616 4.952-1.87 3.109-2.737 3.412-7.476.675-10.585l-10.876-12.357c7.479-3.044 12.745-10.196 12.745-18.514zm-20.792-5.081c3.086 0 5.792 2.374 5.792 5.08s-2.707 5.08-5.792 5.08c-1.278 0-3.274.007-5.315.016-.009-1.966-.016-3.875-.016-5.096 0-1.051-.004-3.013-.01-5.08z"/><path d="m144.653 153.412v56.771c0 4.142 3.358 7.5 7.5 7.5s7.5-3.358 7.5-7.5v-64.271c0-4.142-3.358-7.5-7.5-7.5h-13.737c-4.142 0-7.5 3.358-7.5 7.5s3.358 7.5 7.5 7.5z"/><path d="m348.384 210.247 25.576-60.941c1.603-3.819-.194-8.215-4.013-9.818-3.817-1.602-8.214.194-9.818 4.013l-25.576 60.941c-1.603 3.819.194 8.215 4.013 9.818.948.398 1.932.586 2.899.586 2.931.001 5.714-1.728 6.919-4.599z"/><path d="m320.242 177.327c10.367 0 18.801-9.255 18.801-20.632s-8.434-20.632-18.801-20.632-18.8 9.255-18.8 20.632 8.433 20.632 18.8 20.632zm0-26.264c1.798 0 3.801 2.313 3.801 5.632s-2.003 5.632-3.801 5.632c-1.797 0-3.8-2.313-3.8-5.632s2.002-5.632 3.8-5.632z"/><path d="m387.411 177.73c-10.367 0-18.801 9.255-18.801 20.632s8.434 20.632 18.801 20.632 18.801-9.255 18.801-20.632-8.434-20.632-18.801-20.632zm0 26.264c-1.798 0-3.801-2.313-3.801-5.632s2.003-5.632 3.801-5.632 3.801 2.313 3.801 5.632-2.003 5.632-3.801 5.632z"/><path d="m195.724 218.994c14.384 0 26.085-11.702 26.085-26.085v-29.723c0-14.384-11.702-26.085-26.085-26.085s-26.085 11.702-26.085 26.085v29.723c-.001 14.383 11.701 26.085 26.085 26.085zm-11.086-55.808c0-6.113 4.973-11.085 11.085-11.085s11.085 4.973 11.085 11.085v29.723c0 6.113-4.973 11.085-11.085 11.085s-11.085-4.973-11.085-11.085z"/><path d="m259.088 218.994c14.384 0 26.085-11.702 26.085-26.085v-29.723c0-14.384-11.702-26.085-26.085-26.085s-26.085 11.702-26.085 26.085v29.723c-.001 14.383 11.701 26.085 26.085 26.085zm-11.086-55.808c0-6.113 4.973-11.085 11.085-11.085s11.085 4.973 11.085 11.085v29.723c0 6.113-4.973 11.085-11.085 11.085s-11.085-4.973-11.085-11.085z"/></g></svg>