<svg id="Layer_1" enable-background="new 0 0 500 500" viewBox="0 0 500 500" xmlns="http://www.w3.org/2000/svg"><path clip-rule="evenodd" d="m388.185 371.079c0-4.369-3.535-7.914-7.93-7.914h-260.561c-4.344 0-7.879 3.545-7.879 7.914s3.535 7.914 7.879 7.914h260.561c4.394 0 7.93-3.546 7.93-7.914zm-230.662-21.122h36.314v-38.354c-8.384-11.859-13.334-26.465-13.334-42.243 0-14.733 5.505-26.319 13.334-36.905v-84.078h-36.314zm-37.829-214.782h260.561c4.394 0 7.93-3.561 7.93-7.919 0-4.364-3.535-7.914-7.93-7.914h-260.561c-4.344 0-7.879 3.551-7.879 7.914 0 4.358 3.536 7.919 7.879 7.919zm74.042 134.184c0-32.571 37.542-49.029 56.264-86.138 18.522 36.949 56.264 53.504 56.264 86.138 0 32.303-25.253 58.587-56.264 58.587-31.061 0-56.264-26.283-56.264-58.587zm62.83-120.982v15.869c6.212 20.561 19.596 34.875 32.576 48.708 1.263 1.349 2.525 2.677 3.788 4.015v-68.592zm-49.496 0v68.592c1.263-1.338 2.475-2.667 3.737-4.015 12.98-13.834 26.415-28.147 32.577-48.708v-15.869zm36.314 201.58v-9.142c-13.637-1.328-26.112-6.763-36.314-15.061v24.202h36.314zm49.546 0v-24.202c-10.202 8.298-22.677 13.733-36.364 15.061v9.142h36.364zm49.496-201.58h-36.314v84.078c7.828 10.586 13.384 22.172 13.384 36.905 0 15.778-5 30.384-13.384 42.243v38.354h36.314zm58.991 222.702c0 11.647-9.495 21.122-21.162 21.122h-260.561c-11.616 0-21.111-9.475-21.111-21.122s9.495-21.122 21.111-21.122h24.647v-201.58h-24.647c-11.616 0-21.111-9.47-21.111-21.122 0-11.647 9.495-21.122 21.111-21.122h260.561c11.667 0 21.162 9.475 21.162 21.122 0 11.652-9.495 21.122-21.162 21.122h-24.596v201.58h24.596c11.667 0 21.162 9.475 21.162 21.122zm-104.85-274.956c2.717 3.17 6.667 3.63 9.697 1.056l.959-1.056 12.93-17.233c2.222-2.924 1.616-7.061-1.313-9.243-2.929-2.192-7.071-1.601-9.243 1.318l-1.061 1.439v-27.519c0-3.641-2.98-6.601-6.616-6.601s-6.617 2.96-6.617 6.601v27.525l-1.06-1.444c-2.222-2.914-6.313-3.51-9.243-1.318-2.929 2.182-3.535 6.319-1.313 9.243zm52.93-27.566c0 5.526 8.384 5.526 8.384 0 0-5.548-8.384-5.548-8.384 0zm-13.232 0c0-9.606 7.828-17.42 17.425-17.42 9.596 0 17.425 7.813 17.425 17.42 0 9.596-7.828 17.405-17.425 17.405-9.597-.001-17.425-7.809-17.425-17.405zm-90.305 0c0 5.526 8.384 5.527 8.384 0 0-5.548-8.384-5.548-8.384 0zm-13.233 0c0-9.606 7.828-17.42 17.425-17.42 9.596 0 17.424 7.813 17.424 17.42 0 9.596-7.828 17.405-17.424 17.405-9.597-.001-17.425-7.809-17.425-17.405zm-90.305 0c0 5.526 8.384 5.527 8.384 0 0-5.548-8.384-5.548-8.384 0zm-13.233 0c0-9.606 7.828-17.42 17.425-17.42 9.596 0 17.374 7.813 17.374 17.42 0 9.596-7.778 17.405-17.374 17.405-9.596-.001-17.425-7.809-17.425-17.405zm63.84 27.566c1.35 1.664 3.043 2.697 5.354 2.697 0 0 0 .005 0 0 2.023 0 4.312-1.15 5.303-2.697l12.93-17.233c2.172-2.924 1.616-7.061-1.313-9.243-2.929-2.192-7.071-1.601-9.242 1.318l-1.061 1.444v-27.524c0-3.641-2.98-6.601-6.616-6.601s-6.616 2.96-6.616 6.601v27.525l-1.061-1.444c-2.222-2.914-6.364-3.51-9.243-1.318-2.929 2.182-3.535 6.319-1.364 9.243zm43.536 336.416c-2.929-2.192-7.071-1.596-9.243 1.318l-1.06 1.445v-27.526c0-3.642-2.98-6.601-6.617-6.601-3.687 0-6.616 2.96-6.616 6.601v27.526l-1.06-1.445c-2.222-2.914-6.364-3.51-9.243-1.318-2.929 2.182-3.536 6.328-1.364 9.243 1.89 2.527 12.574 16.994 13.788 18.192 1.162 1.076 2.727 1.732 4.445 1.742 1.739 0 3.317-.647 4.495-1.727l.859-.985 12.93-17.223c2.171-2.913 1.616-7.06-1.314-9.242zm60.709 0c-2.929-2.192-7.071-1.596-9.243 1.318l-1.061 1.445v-27.526c0-3.642-2.98-6.601-6.616-6.601s-6.617 2.96-6.617 6.601v27.526l-1.06-1.445c-2.222-2.914-6.364-3.51-9.243-1.318-2.929 2.182-3.535 6.328-1.364 9.243l13.435 17.849h.05c.101.121.202.237.354.354v.005c1.162 1.066 2.727 1.717 4.394 1.727 0 0 .051-.01.051 0 0-.01 0 0 0 0 2.167-.013 4.116-1.035 5.303-2.712l12.93-17.223c2.222-2.914 1.616-7.061-1.313-9.243zm60.708 0c-2.929-2.192-7.071-1.596-9.243 1.318l-1.061 1.445v-27.526c0-3.642-2.98-6.601-6.616-6.601s-6.616 2.96-6.616 6.601v27.526l-1.061-1.445c-2.172-2.914-6.364-3.51-9.243-1.318-2.929 2.182-3.535 6.328-1.313 9.243 1.686 2.233 12.876 17.502 13.788 18.202v.005c1.162 1.066 2.727 1.717 4.394 1.727 0 0 .051-.01.051 0 0-.01 0 0 0 0 1.688 0 3.267-.637 4.445-1.697l.859-1.015 12.93-17.223c2.222-2.913 1.615-7.06-1.314-9.242zm-182.125 0c-2.929-2.192-7.071-1.596-9.243 1.318l-1.111 1.445v-27.526c0-3.642-2.929-6.601-6.566-6.601-3.687 0-6.616 2.96-6.616 6.601v27.526l-1.111-1.445c-2.172-2.914-6.313-3.51-9.243-1.318-2.879 2.182-3.485 6.328-1.313 9.243 1.677 2.242 12.874 17.425 13.839 18.228v.01c1.162 1.045 2.727 1.687 4.394 1.697 1.739 0 3.317-.646 4.495-1.727l.859-.985 12.93-17.223c2.171-2.914 1.615-7.061-1.314-9.243zm27.223-163.18c0 11.904 4.142 23.435 11.718 32.48 1.263 1.566 3.182 2.379 5.051 2.379 5.511 0 8.708-6.478 5.051-10.833-5.556-6.672-8.586-15.212-8.586-24.026 0-7.074 3.506-15.605 9.546-25.491 1.919-3.116.909-7.177-2.222-9.071-3.081-1.894-7.172-.899-9.041 2.217-4.948 8.209-11.517 20.381-11.517 32.345z" fill-rule="evenodd"/></svg>