<svg xmlns="http://www.w3.org/2000/svg" enable-background="new 0 0 60 60" viewBox="0 0 60 60" id="oil-container">
  <path fill="#231f20" d="M7,48.1206055h5.3272095c0.4664307,2.2769165,2.4856567,3.9951172,4.8983765,3.9951172
	s4.4319458-1.7182007,4.8983765-3.9951172h15.7520752c0.4664307,2.2769165,2.4856567,3.9951172,4.8983765,3.9951172
	s4.4319458-1.7182007,4.8983765-3.9951172H53c0.5522461,0,1-0.4477539,1-1v-7.3701172c0-0.5522461-0.4477539-1-1-1h-4.3621216
	C51.8660278,36.602417,54,32.9326782,54,28.7705078V25.140625c0-4.9799805-3.03479-9.3707886-7.6201172-11.1580811V9.8657227
	c0-0.5522461-0.4477539-1-1-1s-1,0.4477539-1,1v2.2329102h-8.25V9.8657227c0-0.5522461-0.4477539-1-1-1s-1,0.4477539-1,1v3.2949219
	h-3.1484375V9.8842773h1.5361328c0.5522461,0,1-0.4477539,1-1s-0.4477539-1-1-1h-2.5361328h-9.9628906h-2.5356445
	c-0.5522461,0-1,0.4477539-1,1s0.4477539,1,1,1h1.5356445v3.2763672h-1.0385742C11.3740234,13.1606445,6,18.534668,6,25.140625
	v3.6298828c0,4.1621704,2.1357422,7.8319092,5.3665161,9.9799805H7c-0.5522461,0-1,0.4477539-1,1v7.3701172
	C6,47.6728516,6.4477539,48.1206055,7,48.1206055z M17.2255859,50.1157227c-1.6481934,0-2.9884033-1.3363037-2.99823-2.9822388
	c0.000061-0.0045776,0.0026245-0.0083008,0.0026245-0.0128784c0-0.0057373-0.0031128-0.010437-0.0032349-0.0161133
	c0.0062256-1.6489868,1.3483887-2.9887695,2.9988403-2.9887695c1.6542969,0,3,1.3457031,3,3
	S18.8798828,50.1157227,17.2255859,50.1157227z M42.7744141,50.1157227c-1.6542969,0-3-1.3457031-3-3s1.3457031-3,3-3
	c1.6504517,0,2.9926147,1.3397827,2.9988403,2.9887695c-0.0001221,0.0056763-0.0032349,0.010376-0.0032349,0.0161133
	c0,0.0045776,0.0025635,0.0083008,0.0026245,0.0128784C45.7628174,48.7794189,44.4226074,50.1157227,42.7744141,50.1157227z
	 M44.3798828,23.121582h-8.25v-3.5117188h8.25V23.121582z M36.1298828,25.121582h8.25v3.5112305h-8.25V25.121582z
	 M44.3798828,14.0986328v3.5112305h-8.25v-3.5112305H44.3798828z M21.0185547,9.8842773h7.9628906v3.2763672h-7.9628906V9.8842773z
	 M8,28.7705078V25.140625c0-5.5029297,4.4770508-9.9799805,9.9799805-9.9799805h2.0385742h9.9628906h4.1484375v17.7050781
	c0,0.5522461,0.4477539,1,1,1s1-0.4477539,1-1v-2.2329102h8.25v2.2329102c0,0.5522461,0.4477539,1,1,1s1-0.4477539,1-1V16.161438
	C49.7891235,17.8109131,52,21.2612305,52,25.140625v3.6298828c0,5.5029297-4.4726563,9.9799805-9.9702148,9.9799805H17.9799805
	C12.4770508,38.7504883,8,34.2734375,8,28.7705078z M8,40.7504883h9.9799805h24.0498047H52v5.3701172h-4.3261719
	c-0.4628296-2.2816772-2.4833374-4.0048828-4.8994141-4.0048828S38.3378296,43.8389282,37.875,46.1206055h-15.75
	c-0.4628296-2.2816772-2.4833374-4.0048828-4.8994141-4.0048828s-4.4365845,1.7232056-4.8994141,4.0048828H8V40.7504883z"></path>
</svg>
