<svg xmlns="http://www.w3.org/2000/svg" width="163.839" height="163.839" fill-rule="evenodd" clip-rule="evenodd" image-rendering="optimizeQuality" shape-rendering="geometricPrecision" text-rendering="geometricPrecision" viewBox="0 0 1707 1707" id="olive-oil-quality">
  <path d="M1099 1707l-508 0c-107,0 -195,-88 -195,-195l0 -667c0,-107 88,-195 195,-195l508 0c108,0 195,88 195,195l0 667c0,107 -87,195 -195,195zm-508 -1017c-85,0 -155,70 -155,155l0 667c0,85 70,155 155,155l508 0c86,0 155,-70 155,-155l0 -667c0,-85 -69,-155 -155,-155l-508 0z"></path>
  <path d="M992 690l-294 0c-11,0 -20,-9 -20,-20l0 -333c0,-11 9,-20 20,-20l294 0c11,0 20,9 20,20l0 333c0,11 -9,20 -20,20zm-274 -40l254 0 0 -293 -254 0 0 293zm274 -494l-294 0c-11,0 -20,-9 -20,-20l0 -116c0,-11 9,-20 20,-20l294 0c11,0 20,9 20,20l0 116c0,11 -9,20 -20,20zm-274 -40l254 0 0 -76 -254 0 0 76z"></path>
  <path d="M1069 357l-448 0c-67 0-121-54-121-121 0-66 54-120 121-120l448 0c67 0 121 54 121 120 0 67-54 121-121 121zm-448-201c-45 0-81 36-81 80 0 45 36 81 81 81l448 0c45 0 81-36 81-81 0-44-36-80-81-80l-448 0 0 0zM1274 1449l-858 0c-11 0-20-9-20-20l0-501c0-11 9-20 20-20l858 0c11 0 20 9 20 20l0 501c0 11-9 20-20 20zm-838-40l818 0 0-461-818 0 0 461z"></path>
  <path d="M845 1383c-113,0 -205,-92 -205,-205 0,-113 92,-204 205,-204 113,0 205,91 205,204 0,113 -92,205 -205,205zm0 -369c-91,0 -165,73 -165,164 0,91 74,165 165,165 91,0 165,-74 165,-165 0,-91 -74,-164 -165,-164z"></path>
  <path d="M797 1275c-5 0-10-2-14-6l-57-57c-8-8-8-20 0-28 8-8 20-8 28 0l43 43 139-139c8-8 21-8 28 0 8 7 8 20 0 28l-153 153c-4 4-9 6-14 6zM423 817c-1 0-1 0-2 0-70-6-136-37-186-87-76-76-105-187-78-290 2-7 8-12 14-14 26-7 52-10 78-10 80 0 156 31 212 87 49 48 78 109 86 177 1 9-4 17-12 21-45 17-79 55-93 101-2 9-10 15-19 15zm-230-355c-19 86 8 177 70 240 40 39 91 65 146 73 18-45 53-83 96-105-9-53-34-100-72-138-49-49-114-76-184-76-19 0-37 2-56 6z"></path>
  <path d="M527 702c-3 0-7-1-10-3-5-3-9-8-9-14-7-59-33-112-75-153-24-24-52-43-83-56-9-4-14-14-12-24 14-51 41-97 78-135 5-5 12-7 19-5 104 28 185 109 213 213 13 49 13 101 1 150-2 9-10 15-20 15l-38 0c-19 0-38 4-56 11-3 1-5 1-8 1zm-145-256c29 15 56 34 79 57 43 43 71 95 82 153 16-4 32-6 48-6l22 0c7-38 6-77-4-115-23-86-89-154-173-181-24 27-43 58-54 92zM1272 838c-9 0-16-6-19-14l0-1c0-1-1-2-1-3-8-53-45-98-94-118-9-4-14-13-12-22 11-64 41-122 87-168 59-59 137-92 221-92 27 0 54 4 81 11 7 2 12 7 14 14 29 108-2 223-81 302-52 52-121 84-194 91-1 0-1 0-2 0zm-84-166c49 25 86 70 100 124 57-9 110-36 152-77 66-66 93-162 73-252-19-5-39-7-59-7-73 0-142 29-193 80-37 37-62 82-73 132z"></path>
  <path d="M1165 703c-2,0 -5,0 -7,-1 -19,-8 -39,-12 -59,-12l-46 0c-10,0 -18,-7 -20,-16 -9,-47 -7,-94 5,-140 29,-108 114,-193 222,-222 7,-2 14,0 19,5 39,39 67,88 81,141 3,9 -2,19 -12,23 -32,14 -62,34 -87,59 -40,40 -66,91 -76,146 -1,6 -5,12 -10,15 -3,1 -6,2 -10,2zm-95 -53l29 0c18,0 35,2 51,7 14,-55 42,-105 83,-145 24,-25 52,-45 83,-60 -12,-36 -31,-70 -57,-98 -89,28 -158,100 -182,190 -9,35 -12,71 -7,106z"></path>
  <g>
    <path d="M1551 1707l-1395 0c-11,0 -20,-9 -20,-20 0,-11 9,-20 20,-20l1395 0c11,0 20,9 20,20 0,11 -9,20 -20,20z"></path>
  </g>
</svg>
