<?xml version="1.0" encoding="UTF-8"?>
<svg xmlns="http://www.w3.org/2000/svg" id="simpleline" viewBox="0 0 512 512" width="512" height="512"><path d="M352,8a150.84,150.84,0,0,0-85.137,26.1,8,8,0,1,0,8.992,13.234A134.932,134.932,0,0,1,352,24c74.992,0,136,61.008,136,136S426.992,296,352,296,216,234.992,216,160a135.358,135.358,0,0,1,36.8-92.922,8,8,0,0,0-11.672-10.953A151.167,151.167,0,0,0,214.324,224H32.7a8,8,0,0,0-7.883,6.625l-16.7,96c-.037.218.05.429.03.647-.024.252-.147.47-.147.728v16a40.047,40.047,0,0,0,40,40V496a8,8,0,0,0,8,8H304a8,8,0,0,0,8-8V383.191A40.067,40.067,0,0,0,344,344V328c0-.258-.123-.475-.146-.726-.02-.213.066-.42.029-.633l-2.625-15.185c3.563.251,7.116.544,10.742.544,83.812,0,152-68.188,152-152S435.812,8,352,8ZM97.231,240h41.825l-2.784,80H88.879l.791-7.578Zm102.483,80h-47.43l2.783-80h41.848ZM88,344v-8h48v8a24,24,0,0,1-48,0Zm64,0v-8h48v8a24,24,0,0,1-48,0Zm64,0v-8h48v8a24,24,0,0,1-48,0Zm42.94-64.081L263.121,320H215.728l-2.784-80H223A152.977,152.977,0,0,0,258.94,279.919ZM39.43,240H81.145l-.791,7.578L72.792,320H25.512ZM24,344v-8H72v8a24,24,0,0,1-48,0Zm40,36.609a40.116,40.116,0,0,0,16-12.857,39.636,39.636,0,0,0,64,0,39.636,39.636,0,0,0,64,0,39.636,39.636,0,0,0,64,0,39.954,39.954,0,0,0,24,15.439V424H160a8,8,0,0,0-8,8v56H64ZM296,488H168V440H296Zm32-144a24,24,0,0,1-48,0v-8h48Zm-1.5-24H279.209l-2.965-28.418A150.731,150.731,0,0,0,324.666,309.4Z" fill="rgb(0,0,0)"/><path d="M352,264a8,8,0,0,0,8-8V200h24a72.081,72.081,0,0,0,72-72,8,8,0,0,0-8-8H416a71.523,71.523,0,0,0-39.244,11.715A71.336,71.336,0,0,0,320,104H256a8,8,0,0,0-8,8v16a72.081,72.081,0,0,0,72,72h24v56A8,8,0,0,0,352,264Zm87.43-128A56.088,56.088,0,0,1,384,184H360.57A56.088,56.088,0,0,1,416,136ZM264,128v-8h56a55.476,55.476,0,0,1,44.39,21.907,72.291,72.291,0,0,0-11.817,16.071c-18.84-11.54-37.39-18.886-55.257-21.869a8,8,0,1,0-2.632,15.782c16.561,2.761,34.006,9.937,51.907,21.251A71.221,71.221,0,0,0,344.472,184H320A56.065,56.065,0,0,1,264,128Z" fill="rgb(0,0,0)"/></svg>
