<svg id="Outline" height="512" viewBox="0 0 512 512" width="512" xmlns="http://www.w3.org/2000/svg"><path d="m192 360a24.039 24.039 0 0 0 17.707 23.157 23.961 23.961 0 0 0 22.293 32.843h48a23.961 23.961 0 0 0 22.293-32.843 24 24 0 1 0 -22.368-40.957 23.992 23.992 0 0 0 -47.85 0 23.986 23.986 0 0 0 -40.075 17.8zm88 40h-48a8 8 0 0 1 0-16 8 8 0 0 0 8-8 8.009 8.009 0 0 1 8-8h16a8.009 8.009 0 0 1 8 8 8 8 0 0 0 8 8 8 8 0 0 1 0 16zm16-48a8 8 0 1 1 -8 8 8.009 8.009 0 0 1 8-8zm-40-16a8 8 0 1 1 -8 8 8.009 8.009 0 0 1 8-8zm-32 24a8 8 0 1 1 -8-8 8.009 8.009 0 0 1 8 8z"/><path d="m488 176h-8v-24a40.045 40.045 0 0 0 -40-40h-24v-24a8 8 0 0 0 -8-8h-8v-24a40.045 40.045 0 0 0 -40-40h-208a40.045 40.045 0 0 0 -40 40v24h-8a8 8 0 0 0 -8 8v24h-24a40.045 40.045 0 0 0 -40 40v24h-8a8 8 0 0 0 -8 8v32a8 8 0 0 0 8 8h8v248a24.027 24.027 0 0 0 24 24h400a24.028 24.028 0 0 0 24-24v-248h8a8 8 0 0 0 8-8v-32a8 8 0 0 0 -8-8zm-136-64v-16h48v16zm-184-32h-8v-8a8.009 8.009 0 0 1 8-8h176a8.009 8.009 0 0 1 8 8v8h-8a8 8 0 0 0 -8 8v24h-160v-24a8 8 0 0 0 -8-8zm-40-24a24.028 24.028 0 0 1 24-24h208a24.028 24.028 0 0 1 24 24v24h-16v-8a24.028 24.028 0 0 0 -24-24h-176a24.028 24.028 0 0 0 -24 24v8h-16zm-16 40h48v16h-48zm-64 56a24.027 24.027 0 0 1 24-24h368a24.028 24.028 0 0 1 24 24v24h-416zm0 320v-248h152v16h-64a40.045 40.045 0 0 0 -40 40v136h-24a8 8 0 0 0 -8 8v32a8 8 0 0 0 8 8h24v16h-40a8.009 8.009 0 0 1 -8-8zm200-248h16v8a8 8 0 0 1 -16 0zm8 32a24.027 24.027 0 0 0 24-24v-8h16v24a24.028 24.028 0 0 1 -24 24h-32a24.027 24.027 0 0 1 -24-24v-24h16v8a24.027 24.027 0 0 0 24 24zm144 224h-288v-16h24a8 8 0 0 0 8-8v-32a8 8 0 0 0 -8-8h-24v-136a24.028 24.028 0 0 1 24-24h64.805a40.075 40.075 0 0 0 15.839 24.443 96 96 0 1 0 78.711 0 40.072 40.072 0 0 0 15.845-24.443h64.8a24.028 24.028 0 0 1 24 24zm-272-48v16h-48v-16zm208-64a80 80 0 1 1 -80-80 80.091 80.091 0 0 1 80 80zm128 104a8.009 8.009 0 0 1 -8 8h-40v-200a40.045 40.045 0 0 0 -40-40h-64v-16h152zm16-264h-448v-16h448z"/></svg>