<svg id="Pet_Shampoo" enable-background="new 0 0 64 64" height="512" viewBox="0 0 64 64" width="512" xmlns="http://www.w3.org/2000/svg"><path d="m43.4711 13.9176v-2.1254c0-1.1029-.8972-2.0002-1.9995-2.0002h-1.5015v-5.3321h1.4893c1.2305 0 2.2303-1.0004 2.2303-2.2303-.0001-1.2292-.9998-2.2296-2.2303-2.2296h-8.5469c-.3027 0-.6067.0702-.8777.2033l-2.7906 1.3623c-.6812.3339-.9638 1.1591-.6305 1.8384l.7501 1.5363c.1611.3302.4407.5774.788.697.1465.0507.2979.0757.4486.0757.2063 0 .4114-.047.6018-.1404l2.2498-1.1127h1.6815v5.3321h-1.5003c-1.1029 0-2.0002.8972-2.0002 2.0002v2.1229c-6.0353.3649-10.8376 5.3767-10.8376 11.5028v23.1094c-1.3709.9234-2.4152 2.3062-2.8705 3.9809-.2094-.0293-.4114-.0427-.6122-.0427-2.8797 0-5.2222 2.3413-5.2222 5.221s2.3426 5.221 5.2222 5.221c.9003 0 1.7694-.2332 2.5489-.6799 1.1403 1.134 2.6607 1.7724 4.2641 1.7724 1.4508 0 2.8205-.5054 3.9191-1.4356.9143.5274 1.9416.8032 3.0042.8032 1.6715 0 3.1867-.6791 4.286-1.7749h14.7743c2.2876 0 4.1492-1.8616 4.1492-4.1492v-32.0256c.0001-6.1094-4.7747-11.111-10.7874-11.5003zm-10.6227-10.8182-2.1918 1.0706-.6403-1.3123 2.677-1.3068c.069-.0336.1422-.0507.2191-.0507h8.5469c.4028 0 .7312.3272.7312.7294 0 .4028-.3284.73-.7312.73h-8.0073c-.2099 0-.4193.0489-.6036.1398zm3.7842 1.3605h1.8384v5.3321h-1.8384zm-2.9993 6.8324h7.8383c.2808 0 .5005.2197.5005.4999v2.0874h-8.8386v-2.0874c-.0001-.2802.2197-.4999.4998-.4999zm-1.3 4.0876h10.3883c5.4944 0 9.9669 4.4392 10.032 9.9184h-30.4517c.0651-5.4793 4.537-9.9184 10.0314-9.9184zm-10.0374 11.4186h30.4637v21.8814h-23.8325c-.0128 0-.0234.0068-.0361.0075-1.1832-.8679-2.6243-1.3747-4.1659-1.3747-.8535 0-1.6693.1589-2.4292.4365zm8.7532 35.0701c-.954 0-1.8708-.2979-2.6502-.8594-.304-.2185-.7196-.1831-.9778.0867-.8765.9058-2.0471 1.4051-3.2953 1.4051-1.3745 0-2.6709-.6299-3.5566-1.7261-.1477-.1831-.365-.2783-.5841-.2783-.1587 0-.318.05-.4535.1526-.6519.4968-1.4191.7593-2.2187.7593-2.0526 0-3.722-1.6699-3.722-3.722s1.6693-3.722 3.722-3.722c.1913 0 .3784.0306.5654.0597.1346.0243.2706.051.4228.0929.0014.0004.0027-.0002.0041.0002.6688.1868 1.2855.5431 1.7604 1.0655.1483.1624.351.2441.5548.2441.1807 0 .3613-.0635.5048-.1953.3064-.2783.329-.7532.05-1.0596-.501-.5502-1.111-.9784-1.7807-1.2696.6579-2.3992 2.7971-4.0906 5.3306-4.0906 1.952 0 3.7134 1.0112 4.7185 2.6326-.4096.1121-.8093.2593-1.1858.4546-.368.1904-.5115.6421-.3211 1.0108.1337.2576.3955.4053.6665.4053.116 0 .2344-.0281.3442-.0854.6537-.3381 1.3605-.5103 2.1015-.5103 2.522 0 4.5753 2.0533 4.5753 4.5753s-2.0531 4.5739-4.5751 4.5739zm19.0603-1.7749h-13.7019c.442-.8417.7159-1.7845.7159-2.7991 0-3.3497-2.7246-6.0743-6.0743-6.0743-.0018 0-.0037 0-.0061 0-.1855-.3719-.4101-.7141-.6516-1.0413h22.3682v7.2645c0 1.4612-1.189 2.6502-2.6502 2.6502zm-17.3989-21.9339c-1.2366 1.6101-1.6828 3.5584-1.225 5.348.5371 2.0728 1.9757 2.511 3.3234 2.511.575 0 1.1341-.0806 1.5991-.1465.7947-.1135 1.4026-.127 2.2937 0 1.5564.2222 4.1566.5933 4.9219-2.3645 0-.0012 0-.0012 0-.0024.4578-1.7871.011-3.7354-1.2244-5.3455-1.2403-1.6138-3.075-2.627-4.9-2.6441-1.7137.017-3.5485 1.0302-4.7887 2.644zm4.8853-1.1451c1.2439.0134 2.6624.8215 3.6133 2.0594.9546 1.2415 1.305 2.721.9619 4.0601-.3882 1.4942-1.3404 1.5259-3.2569 1.2525-.9094-.1282-1.7249-.1392-2.7185 0-1.9214.2759-2.8711.2417-3.2575-1.2525-.3424-1.3391.0079-2.8186.9613-4.0601.9522-1.2378 2.3707-2.0459 3.6964-2.0594zm-4.2579-2.3352c.4492.4028.9912.6189 1.5283.6189.1294 0 .2588-.0122.3857-.0378.6604-.1294 1.2256-.5908 1.5515-1.2647.2966-.6116.3796-1.3519.2356-2.085-.3198-1.6175-1.5991-2.6807-2.9249-2.4213-.6592.1306-1.2244.5914-1.5503 1.2647-.296.6122-.3796 1.3526-.235 2.085.1448.733.5031 1.3873 1.0091 1.8402zm.5762-3.2716c.0708-.1447.2271-.3943.4907-.4462.0305-.0061.0623-.0092.094-.0092.4065 0 .9155.4767 1.0681 1.2488.0806.4095.0403.8252-.1135 1.1414-.0696.144-.2258.3943-.4907.4456-.2649.0586-.5042-.1172-.6238-.2258-.2612-.2338-.4578-.603-.5383-1.0132-.0806-.4095-.0391-.8252.1135-1.1414zm-3.1623 7.2951c.5402 0 1.051-.1733 1.4466-.5335.9949-.907.9046-2.5721-.2051-3.7916-.5029-.5518-1.1475-.9253-1.8158-1.0517-.7361-.1398-1.4423.0409-1.9397.4938-.9949.9058-.9046 2.5708.2051 3.7903.6506.7143 1.5118 1.0927 2.3089 1.0927zm-1.5033-3.7745c.1282-.1172.296-.1489.4413-.1489.08 0 .1532.0098.2094.0208.3449.0647.7037.2795.9845.5884.5719.6274.6195 1.3855.3046 1.6712-.3156.2869-1.0645.1697-1.6358-.4602-.572-.6276-.619-1.3844-.304-1.6713zm10.5617.332c.1282.0244.2564.0378.3857.0378.5396 0 1.0803-.2161 1.5296-.6189.5066-.4529.8643-1.106 1.0095-1.8396.144-.733.061-1.4734-.2356-2.0856-.3259-.6732-.8911-1.1347-1.5503-1.2647-1.3318-.2588-2.6062.8038-2.9249 2.4213-.144.733-.061 1.4734.2356 2.0862.326.6727.8912 1.1342 1.5504 1.2635zm-.3137-3.0591c.1526-.7721.6616-1.2488 1.0681-1.2488.0317 0 .0635.0031.094.0092.2649.0519.4211.3015.4907.4462.1538.3156.1941.7318.1135 1.1414s-.2771.7788-.5383 1.0132c-.1196.1062-.3687.2844-.6238.2258-.2649-.0513-.4211-.3015-.4907-.4456-.1526-.3162-.1941-.7324-.1135-1.1414zm3.3704 5.9693c.3943.3589.9046.5322 1.4453.5322.7971 0 1.6577-.3784 2.3084-1.0925.5029-.553.8154-1.2305.8777-1.9068.0696-.7446-.1758-1.4319-.6726-1.8836-.9961-.9094-2.6453-.661-3.7549.5579-1.1097 1.2196-1.2 2.8846-.2039 3.7928zm1.3122-2.782c.5725-.6287 1.3184-.7483 1.637-.459.199.1807.2039.4761.1892.6348-.033.3491-.2124.7276-.4932 1.0352-.5737.6299-1.3233.7434-1.6358.4614-.3148-.2869-.2685-1.0449.3028-1.6724zm-29.802 14.6792c0-1.2781-1.0394-2.3169-2.3175-2.3169s-2.3182 1.0388-2.3182 2.3169 1.0401 2.3169 2.3182 2.3169 2.3175-1.0388 2.3175-2.3169zm-2.3176.8179c-.4511 0-.8179-.3674-.8179-.8179s.3668-.8179.8179-.8179c.4504 0 .8173.3674.8173.8179s-.3668.8179-.8173.8179zm5.2534-2.4976c1.7157 0 3.1122-1.3965 3.1122-3.1128s-1.3965-3.1116-3.1122-3.1116c-1.7163 0-3.1128 1.3953-3.1128 3.1116s1.3965 3.1128 3.1128 3.1128zm0-4.7254c.8887 0 1.612.7239 1.612 1.6126 0 .8899-.7233 1.6138-1.612 1.6138-.8893 0-1.6126-.7239-1.6126-1.6138 0-.8887.7233-1.6126 1.6126-1.6126zm23.0674 9.7169c-1.2769 0-2.3157 1.0388-2.3157 2.3157s1.0388 2.3145 2.3157 2.3145 2.3145-1.0376 2.3145-2.3145-1.0377-2.3157-2.3145-2.3157zm0 3.1312c-.4504 0-.8167-.3662-.8167-.8154 0-.4504.3662-.8167.8167-.8167.4492 0 .8154.3662.8154.8167 0 .4492-.3662.8154-.8154.8154z"/></svg>