<svg xmlns="http://www.w3.org/2000/svg" version="1.1" xmlns:xlink="http://www.w3.org/1999/xlink" width="512" height="512" x="0" y="0" viewBox="0 0 100 100" style="enable-background:new 0 0 512 512" xml:space="preserve" class=""><g><path d="M96.987 77.354c-4.396-9.193-11.89-15.188-22.682-17.886-1.598-.4-3.297 0-4.596 1.1l-8.893 7.293c-1.699 1.4-4.197 1.6-6.095.4-9.393-5.795-17.087-13.49-22.882-22.882-1.2-1.898-1-4.396.4-6.095l7.294-8.893c1.099-1.299 1.499-2.998 1.099-4.596-2.798-10.892-8.793-18.386-17.986-22.782-1.499-.7-3.197-.7-4.696.1-4.596 2.498-9.093 5.295-13.29 8.393-1.598 1.199-2.398 3.197-2.098 5.196C5.56 34.588 15.252 53.372 30.94 69.06s34.472 25.28 52.358 28.378c1.999.3 3.997-.5 5.196-2.098a106.585 106.585 0 0 0 8.393-13.29c.8-1.499.8-3.197.1-4.696z" fill="#ffffff" opacity="1" data-original="#000000" class=""></path></g></svg>