<?xml version="1.0"?>
<svg xmlns="http://www.w3.org/2000/svg" id="Layer_1" data-name="Layer 1" viewBox="0 0 100 100"><path d="M99.14,59,89.23,40.23A3.15,3.15,0,0,0,85,38.91l-3.35,1.78c0-.31,0-.62,0-.94a31.66,31.66,0,1,0-63.32,0,31.48,31.48,0,0,0,.24,3.79l-5.52-2.18h0A3.15,3.15,0,0,0,9,43.13l-8.26,21a3.14,3.14,0,0,0,1.77,4.06l9.35,3.69a3.1,3.1,0,0,0,1.16.22,3.22,3.22,0,0,0,1.25-.26,3.15,3.15,0,0,0,1.67-1.73l.24-.61,4.12,1.24-.77.77a4.81,4.81,0,0,0,0,6.79l.07.07h0a4.79,4.79,0,0,0,2,1.17,4.79,4.79,0,0,0,.88,5.52l.07.08h0a4.78,4.78,0,0,0,3.4,1.41,4.91,4.91,0,0,0,.67-.06,4.71,4.71,0,0,0,1.35,2.79l.07.07a4.74,4.74,0,0,0,3.39,1.41,4.57,4.57,0,0,0,1.33-.21,4.69,4.69,0,0,0,1.23,2.21l.07.07a4.79,4.79,0,0,0,3.39,1.4h0A4.76,4.76,0,0,0,40.65,93l.26.31a5.56,5.56,0,0,0,7.58.89l.11-.08a5.6,5.6,0,0,0,1.82-2.38,5.49,5.49,0,0,0,3.29,1.42,3,3,0,0,0,.42,0,5.53,5.53,0,0,0,3.65-1.37,5.47,5.47,0,0,0,1.48-2.17l.46.54a5.56,5.56,0,0,0,3.82,1.92h.4a5.55,5.55,0,0,0,3.65-1.37,5.48,5.48,0,0,0,1.73-2.94,5.47,5.47,0,0,0,2.84.82,5.59,5.59,0,0,0,4.16-9.34L73.9,76.59a2.21,2.21,0,0,0,.12-.27l1-4.33a3.65,3.65,0,0,1,1.66-2.27L84.59,65l.7,1.33a3.14,3.14,0,0,0,1.85,1.54,3.34,3.34,0,0,0,.94.14,3.16,3.16,0,0,0,1.46-.37l8.29-4.38A3.14,3.14,0,0,0,99.14,59ZM76.69,43.3a3.13,3.13,0,0,0-1.31,4.22l.5.94-.72.41A9.45,9.45,0,0,1,71.69,50a9.28,9.28,0,0,1-3-.08l-1.31-.24a55.45,55.45,0,0,0,.86-8.47h10.4c0,.36-.05.72-.08,1.07ZM38.11,53.1l-1.73-.54a49,49,0,0,1-1.61-11.31H48.5v5.54a5.19,5.19,0,0,0-1,.45ZM65.24,38.25H51.5V10.94C58.84,12.37,64.84,24.17,65.24,38.25ZM48.5,10.94V38.25H34.76C35.16,24.17,41.16,12.37,48.5,10.94Zm3,30.31H65.21a50.05,50.05,0,0,1-.83,7.91L51.5,46.74Zm27.13-3H68.24c-.28-11-3.61-20.43-8.59-25.76A29,29,0,0,1,78.63,38.25ZM40.35,12.49c-5,5.33-8.31,14.74-8.59,25.76H21.37A29,29,0,0,1,40.35,12.49Zm-19,28.76H31.77A54,54,0,0,0,33,51.49l-8.7-2.74a3.11,3.11,0,0,0-1.86-3.7l-.63-.25A27.54,27.54,0,0,1,21.38,41.25ZM13.05,69.11a.2.2,0,0,1-.11,0L3.59,65.42a.13.13,0,0,1-.08-.17l8.26-21a.16.16,0,0,1,.15-.08h0l9.35,3.69a.12.12,0,0,1,.08.16L13.13,69A.16.16,0,0,1,13.05,69.11Zm8.58,4.54,1.79-1.79a1.85,1.85,0,0,1,2.55,0l.07.07a1.82,1.82,0,0,1,0,2.56l-1.79,1.79a1.84,1.84,0,0,1-2.54,0l-.08-.07A1.82,1.82,0,0,1,21.63,73.65Zm3,9.4L24.56,83a1.8,1.8,0,0,1,0-2.56l3.7-3.71a1.84,1.84,0,0,1,2.56,0l.06.06a1.82,1.82,0,0,1,0,2.56l-3.7,3.71A1.84,1.84,0,0,1,24.63,83.05Zm5.48,4.21h0L30,87.19a1.8,1.8,0,0,1,0-2.56l3.06-3.07a1.8,1.8,0,0,1,2.55,0l.07.07a1.82,1.82,0,0,1,0,2.56l-3.06,3.07A1.84,1.84,0,0,1,30.11,87.26Zm8.57,3.47a1.8,1.8,0,0,1-2.55,0h0l-.06-.06a1.8,1.8,0,0,1,0-2.56l1.78-1.79a1.81,1.81,0,0,1,1.28-.53,1.79,1.79,0,0,1,1.27.53l.07.07a1.8,1.8,0,0,1,0,2.56ZM75.19,67.15a6.7,6.7,0,0,0-3,4.13l-.64,2.66-7.32-8.1a1.5,1.5,0,1,0-2.22,2L74.09,81.28a2.53,2.53,0,0,1,.66,1.87,2.56,2.56,0,0,1-.9,1.81,2.53,2.53,0,0,1-3.53-.16l-8.39-9.32a1.49,1.49,0,0,0-.34-.28l-3.41-4a1.5,1.5,0,1,0-2.28,2l10,11.69A2.57,2.57,0,0,1,62,88.22l-7-8.31a1.57,1.57,0,0,0-.27-.25L52.51,77A1.5,1.5,0,0,0,50.21,79l5.87,7a2.6,2.6,0,0,1-.28,3.6,2.56,2.56,0,0,1-3.61-.25l-3.33-4-.09-.09-2.45-2.93A1.5,1.5,0,1,0,44,84.13L47.24,88a2.6,2.6,0,0,1,.58,2,2.57,2.57,0,0,1-1,1.76l-.1.08a2.56,2.56,0,0,1-3.49-.4l-.44-.53a4.81,4.81,0,0,0-.18-6.58l-.08-.07a4.74,4.74,0,0,0-3.27-1.4,4.78,4.78,0,0,0-1.4-3.28l-.07-.07A4.78,4.78,0,0,0,34.4,78,4.84,4.84,0,0,0,33,74.65l-.07-.06a4.8,4.8,0,0,0-3.37-1.41,4.8,4.8,0,0,0-1.4-3.37l-.07-.07a4.76,4.76,0,0,0-3.4-1.41,4.65,4.65,0,0,0-1.35.22l-6.08-1.83,6-15.16,12.84,4c-.05.16-.12.3-.16.47l-2.35,9.82a3.12,3.12,0,0,0,2.91,3.84h.3a8.35,8.35,0,0,0,8-6l.84-2.81a1.48,1.48,0,0,1,1.13-1l8.37-1.72a1.5,1.5,0,0,0-.6-2.94L46.14,57a4.47,4.47,0,0,0-3.41,3.13l-.83,2.8a5.39,5.39,0,0,1-5.33,3.84l-.1-.14,2.35-9.82a1.63,1.63,0,0,1,.75-1l9.53-5.94a1.72,1.72,0,0,1,1.19-.23l17.83,3.35a12.43,12.43,0,0,0,8.53-1.44l.63-.36,5.91,11.23Zm21.24-6.54L88.14,65A.14.14,0,0,1,88,65a.1.1,0,0,1-.08-.07L78,46.12a.12.12,0,0,1,0-.17l8.29-4.38a.13.13,0,0,1,.12,0,.16.16,0,0,1,.08.06l9.91,18.81A.14.14,0,0,1,96.43,60.61Z"/></svg>
