<?xml version="1.0" encoding="UTF-8"?>
<svg xmlns="http://www.w3.org/2000/svg" xmlns:xlink="http://www.w3.org/1999/xlink" version="1.1" id="Capa_1" x="0px" y="0px" viewBox="0 0 512 512" style="enable-background:new 0 0 512 512;" xml:space="preserve" width="512" height="512">
<g>
	<g>
		<g>
			<g>
				
					<polyline style="fill:none;stroke:#000000;stroke-width:15;stroke-linecap:round;stroke-linejoin:round;stroke-miterlimit:10;" points="&#10;&#9;&#9;&#9;&#9;&#9;101.858,304.533 121.504,304.533 121.504,396.451 &#9;&#9;&#9;&#9;"/>
			</g>
			<g>
				
					<line style="fill:none;stroke:#000000;stroke-width:15;stroke-linecap:round;stroke-linejoin:round;stroke-miterlimit:10;" x1="387.817" y1="301.908" x2="350.669" y2="390.425"/>
				
					<ellipse style="fill:none;stroke:#000000;stroke-width:15;stroke-linecap:round;stroke-linejoin:round;stroke-miterlimit:10;" cx="343.557" cy="316.856" rx="16.414" ry="19.074"/>
				
					<ellipse style="fill:none;stroke:#000000;stroke-width:15;stroke-linecap:round;stroke-linejoin:round;stroke-miterlimit:10;" cx="393.728" cy="377.377" rx="16.414" ry="19.074"/>
			</g>
			<g>
				<path style="fill:none;stroke:#000000;stroke-width:15;stroke-linecap:round;stroke-linejoin:round;stroke-miterlimit:10;" d="&#10;&#9;&#9;&#9;&#9;&#9;M207.798,369.871c0,14.68-11.9,26.581-26.58,26.581c-14.68,0-26.58-11.901-26.58-26.581v-42.509&#10;&#9;&#9;&#9;&#9;&#9;c0-14.68,11.901-26.58,26.58-26.58c14.68,0,26.58,11.901,26.58,26.58V369.871z"/>
			</g>
			<g>
				<path style="fill:none;stroke:#000000;stroke-width:15;stroke-linecap:round;stroke-linejoin:round;stroke-miterlimit:10;" d="&#10;&#9;&#9;&#9;&#9;&#9;M294.093,369.871c0,14.68-11.9,26.581-26.58,26.581c-14.68,0-26.58-11.901-26.58-26.581v-42.509c0-14.68,11.9-26.58,26.58-26.58&#10;&#9;&#9;&#9;&#9;&#9;c14.68,0,26.58,11.901,26.58,26.58V369.871z"/>
			</g>
		</g>
		<g>
			<g>
				<path style="fill:none;stroke:#000000;stroke-width:15;stroke-linecap:round;stroke-linejoin:round;stroke-miterlimit:10;" d="&#10;&#9;&#9;&#9;&#9;&#9;M172.919,219.84c-10.316-15.668-16.319-34.429-16.319-54.591c0-54.897,44.503-99.4,99.4-99.4s99.4,44.503,99.4,99.4&#10;&#9;&#9;&#9;&#9;&#9;c0,54.897-44.503,99.4-99.4,99.4c-22.075,0-42.469-7.196-58.965-19.37"/>
			</g>
			<path style="fill:none;stroke:#000000;stroke-width:15;stroke-linecap:round;stroke-linejoin:round;stroke-miterlimit:10;" d="&#10;&#9;&#9;&#9;&#9;M197.349,129.957c-2.907,0.772-5.175,3.04-5.947,5.947c-4.395,16.56-0.11,34.944,12.878,47.931&#10;&#9;&#9;&#9;&#9;c13.677,13.677,33.339,17.704,50.553,12.104c1.204-0.392,2.16-1.348,2.552-2.552c5.6-17.214,1.573-36.876-12.104-50.553&#10;&#9;&#9;&#9;&#9;C232.293,129.848,213.909,125.562,197.349,129.957z"/>
			<g>
				
					<line style="fill:none;stroke:#000000;stroke-width:15;stroke-linecap:round;stroke-linejoin:round;stroke-miterlimit:10;" x1="257.486" y1="193.069" x2="285.307" y2="165.249"/>
				<path style="fill:none;stroke:#000000;stroke-width:15;stroke-linecap:round;stroke-linejoin:round;stroke-miterlimit:10;" d="&#10;&#9;&#9;&#9;&#9;&#9;M256,195.295c0.353,0.271,0.736,0.504,1.167,0.645c17.214,5.6,36.876,1.573,50.553-12.104&#10;&#9;&#9;&#9;&#9;&#9;c12.987-12.988,17.273-31.371,12.878-47.931c-0.772-2.907-3.04-5.176-5.947-5.947c-16.56-4.395-34.944-0.11-47.931,12.878&#10;&#9;&#9;&#9;&#9;&#9;c-4.742,4.743-8.297,10.214-10.72,16.044"/>
			</g>
		</g>
	</g>
	<path style="fill:none;stroke:#000000;stroke-width:15;stroke-linecap:round;stroke-linejoin:round;stroke-miterlimit:10;" d="&#10;&#9;&#9;M71.171,96.221c-0.717,2.785-1.098,5.705-1.098,8.714v3.54c0,14.1-8.494,26.812-21.521,32.208l-3.27,1.355&#10;&#9;&#9;c-17.788,7.368-26.235,27.761-18.867,45.548l1.354,3.27c5.396,13.027,2.413,28.021-7.557,37.991l-2.503,2.503&#10;&#9;&#9;c-13.614,13.614-13.614,35.687,0,49.301l2.503,2.503c9.97,9.97,12.953,24.965,7.557,37.992l-1.354,3.27&#10;&#9;&#9;c-7.368,17.788,1.079,38.181,18.867,45.549l3.27,1.354c13.027,5.396,21.52,18.108,21.52,32.208v3.54&#10;&#9;&#9;c0,19.253,15.608,34.861,34.861,34.861h3.54c14.1,0,26.812,8.494,32.208,21.52l1.355,3.27&#10;&#9;&#9;c7.368,17.788,27.761,26.235,45.548,18.867l3.27-1.355c13.027-5.396,28.021-2.413,37.991,7.557l2.503,2.503&#10;&#9;&#9;c13.614,13.614,35.687,13.614,49.301,0l2.503-2.503c9.97-9.97,24.965-12.953,37.991-7.557l3.27,1.355&#10;&#9;&#9;c17.788,7.368,38.18-1.079,45.548-18.867l1.354-3.27c5.396-13.027,18.108-21.52,32.208-21.52h3.54&#10;&#9;&#9;c19.253,0,34.861-15.608,34.861-34.861v-3.54c0-14.1,8.494-26.812,21.52-32.208l3.27-1.355&#10;&#9;&#9;c17.788-7.368,26.235-27.761,18.867-45.548l-1.354-3.27c-5.396-13.027-2.413-28.021,7.557-37.991l2.503-2.503&#10;&#9;&#9;c13.614-13.614,13.614-35.687,0-49.301l-2.503-2.503c-9.97-9.97-12.953-24.965-7.557-37.991l1.355-3.27&#10;&#9;&#9;c7.368-17.788-1.079-38.181-18.867-45.548l-3.27-1.355c-13.027-5.396-21.521-18.107-21.521-32.208v-3.54&#10;&#9;&#9;c0-19.253-15.608-34.861-34.861-34.861h-3.54c-14.1,0-26.812-8.494-32.208-21.52l-1.355-3.27&#10;&#9;&#9;c-7.368-17.788-27.76-26.235-45.548-18.867l-3.27,1.355c-13.027,5.396-28.021,2.413-37.991-7.557l-2.503-2.503&#10;&#9;&#9;c-13.614-13.614-35.687-13.614-49.301,0l-2.503,2.503c-9.97,9.97-24.965,12.953-37.991,7.557l-3.27-1.355&#10;&#9;&#9;c-17.788-7.368-38.18,1.079-45.548,18.867l-1.355,3.27c-5.396,13.027-18.108,21.52-32.208,21.52h-3.54&#10;&#9;&#9;c-3.206,0-6.311,0.433-9.26,1.243"/>
</g>















</svg>
