<svg id="Layer_2" viewBox="0 0 128 128" xmlns="http://www.w3.org/2000/svg" data-name="Layer 2"><g fill="#231f20"><path d="m16.31 38.58-.554 3.799 2.416.846.353-2.612.02-.031 7.46 4.568 1.701-2.778-9.977-6.11z"/><path d="m33.707 35.7207c2.55859-2.456 1.58887-5.49218-.62988-7.80468-2.207-2.29786-5.21387-3.40332-7.75879-.96-2.5459 2.44336-1.56348 5.49317.64258 7.792 2.21975 2.31155 5.21389 3.40432 7.74609.97268zm-6.68164-6.98535c.67578-.64844 1.88965-.2666 3.61035 1.52442 1.72071 1.793 2.06446 3.03418 1.40235 3.66992-.68848.66015-1.915.2666-3.63575-1.52539s-2.05172-3.02149-1.37692-3.66895z"/><path d="m42.74609 29.02734c3.09961-1.72461 2.9336-4.91015 1.375-7.71-1.55078-2.78418-4.17871-4.61816-7.26269-2.90136-3.083 1.71679-2.90918 4.916-1.3584 7.70117 1.55859 2.80085 4.17871 4.61918 7.24609 2.91019zm-4.6875-8.457c.81836-.45508 1.89649.22266 3.1045 2.39453 1.209 2.16993 1.22558 3.459.42382 3.90625-.834.46387-1.92089-.22949-3.12988-2.40039-1.20803-2.17093-1.2168-3.44436-.39844-3.90042z"/><path d="m72.36621 19.9668c.208.06054.51856.16113.88867.23632a6.44275 6.44275 0 0 0 4.56934-.42968 3.85256 3.85256 0 0 0 1.752-2.65625 3.62925 3.62925 0 0 0 -.85058-3.22266 6.67418 6.67418 0 0 0 -3.66993-1.73828 29.50388 29.50388 0 0 0 -4.41015-.62109l-2.38482 11.73046 3.29883.66993zm1.11524-5.48535a6.40038 6.40038 0 0 1 1.10742.15136c1.32324.26953 1.86133.9668 1.68554 1.83106-.21875 1.07519-1.2539 1.47168-2.542 1.21a5.007 5.007 0 0 1 -.85351-.22852z"/><path d="m92.28418 26.13477 3.05762-5.73438-3.00293-1.60059-3.09864 5.81348c-.94043 1.76367-2.09375 2.4336-3.46 1.70508-1.36523-.72852-1.40918-2.13867-.51172-3.82227l3.09961-5.81347-3.002-1.60059-3.01465 5.6543c-1.96484 3.68555-1 6.19922 2.06543 7.834 3.25693 1.73631 6.004 1.05858 7.86728-2.43556z"/><path d="m96.4082 37.5 2.458 2.42871c.16211-.49707 1.12012-2.05566 1.69824-3.22949a3.21238 3.21238 0 0 0 .36621-2.65039l.05079-.05078a3.20054 3.20054 0 0 0 3.585-.55567 3.11209 3.11209 0 0 0 .97656-2.78027 7.35045 7.35045 0 0 0 -2.40235-3.71484 30.24137 30.24137 0 0 0 -3.23632-2.81836l-8.41211 8.51367 2.39355 2.36523 3.17578-3.21289.43457.42969c.80664.79687.9502 1.34375.19434 2.64648a14.31435 14.31435 0 0 0 -1.28226 2.62891zm4.28321-9.37891a7.289 7.289 0 0 1 .97265.85938c.81934.80859.97656 1.623.332 2.27539-.6455.65332-1.58789.48047-2.53515-.45508l-.71778-.709z"/><path d="m112.264 44.114 2.361-1.382-4.365-7.457-10.47 6.13 4.502 7.689 2.36-1.382-2.782-4.753 1.786-1.046 2.492 4.256 2.361-1.382-2.491-4.256 1.599-.937z"/><path d="m64 100.74121a26.34435 26.34435 0 0 0 26.31445-26.31445c0-13.32813-14.55761-29.59375-21.55371-37.41016-.623-.69629-1.18554-1.32519-1.67187-1.87695a4.11056 4.11056 0 0 0 -6.17774 0c-.65527.74316-1.44922 1.61426-2.34277 2.59375-7.29785 7.999-20.88281 22.88965-20.88281 36.69336a26.34435 26.34435 0 0 0 26.31445 26.31445zm-3.21582-60.98535c.9082-.99512 1.71484-1.87988 2.37891-2.63574a1.11371 1.11371 0 0 1 1.67382 0c.49024.55859 1.0586 1.19336 1.68848 1.89746 6.748 7.53906 20.78906 23.22754 20.78906 35.40918a23.31445 23.31445 0 0 1 -46.6289 0c0-12.6416 13.07422-26.97266 20.09863-34.6709z"/><path d="m59.09766 91.76953a1.50027 1.50027 0 1 0 .80468-2.89062 15.358 15.358 0 0 1 -11.21679-14.73926 17.42008 17.42008 0 0 1 1.42871-6.34082 1.50007 1.50007 0 0 0 -2.78516-1.11524 20.35388 20.35388 0 0 0 -1.64355 7.45606 18.36894 18.36894 0 0 0 13.41211 17.62988z"/><path d="m55.27539 10.71387-.58594 12.96484a1.00065 1.00065 0 0 0 .9541 1.044c.01563.001.03028.001.0459.001a1.00051 1.00051 0 0 0 .998-.95508l.58594-12.96484a1 1 0 0 0 -1.998-.08984z"/><path d="m51.41309 18.9375a2.64386 2.64386 0 0 0 1.14941-.26074 2.76109 2.76109 0 0 0 1.44922-1.78321 3.31782 3.31782 0 0 0 -.23242-2.30855l-.001-.001a3.31782 3.31782 0 0 0 -1.66113-1.62011 2.702 2.702 0 0 0 -3.7461 1.80468 3.32408 3.32408 0 0 0 .2334 2.31055 3.18629 3.18629 0 0 0 2.80862 1.85838zm-1.11133-3.6435a.77574.77574 0 0 1 .38769-.50586.65486.65486 0 0 1 .28711-.06348.90144.90144 0 0 1 .34864.07617 1.39893 1.39893 0 0 1 .75683 1.56836.77358.77358 0 0 1 -.38769.50586 1.063 1.063 0 0 1 -1.28809-.66406 1.333 1.333 0 0 1 -.10449-.91699z"/><path d="m60.9082 20.751a2.63114 2.63114 0 0 0 1.15039-.26075 3.03062 3.03062 0 0 0 1.21582-4.09179l-.001-.001a2.88512 2.88512 0 1 0 -5.17481 2.49414 3.18693 3.18693 0 0 0 2.8096 1.8594zm-.72461-4.14942a.66776.66776 0 0 1 .28907-.06347 1.20472 1.20472 0 0 1 1 .72851.90784.90784 0 1 1 -1.57227.75684 1.06109 1.06109 0 0 1 .2832-1.4219z"/><path d="m111.50488 51.61914a1.49929 1.49929 0 0 0 -1.00976 1.86524 48.5 48.5 0 1 1 -92.99024 0 1.49979 1.49979 0 1 0 -2.875-.85547 51.5 51.5 0 1 0 98.74024 0 1.49768 1.49768 0 0 0 -1.86524-1.00977z"/></g></svg>