<svg version="1.1" id="Capa_1" xmlns="http://www.w3.org/2000/svg" xmlns:xlink="http://www.w3.org/1999/xlink" x="0px" y="0px" viewBox="0 0 512 512" style="enable-background:new 0 0 512 512;" xml:space="preserve">
<g>
	<g>
		<path style="fill:none;stroke:#000000;stroke-width:15;stroke-linecap:round;stroke-linejoin:round;stroke-miterlimit:10;" d="&#10;&#9;&#9;&#9;M427.5,100.333v39.336c0,9.212,5.978,17.359,14.766,20.123l31.659,9.956c18.197,5.723,30.575,22.592,30.575,41.667V479.74&#10;&#9;&#9;&#9;c0,13.674-11.085,24.76-24.76,24.76H313.26c-13.674,0-24.76-11.085-24.76-24.76V386"/>
		<path style="fill:none;stroke:#000000;stroke-width:15;stroke-linecap:round;stroke-linejoin:round;stroke-miterlimit:10;" d="&#10;&#9;&#9;&#9;M288.5,266.444v-55.028c0-19.075,12.378-35.944,30.575-41.667l31.659-9.956c8.788-2.764,14.766-10.911,14.766-20.123V47.5h62&#10;&#9;&#9;&#9;v17.167"/>
		<path style="fill:none;stroke:#000000;stroke-width:15;stroke-linecap:round;stroke-linejoin:round;stroke-miterlimit:10;" d="&#10;&#9;&#9;&#9;M428.5,47.5h-64c-3.314,0-6-2.686-6-6v-28c0-3.314,2.686-6,6-6h64c3.314,0,6,2.686,6,6v28C434.5,44.814,431.814,47.5,428.5,47.5z"/>
		
			<line style="fill:none;stroke:#000000;stroke-width:15;stroke-linecap:round;stroke-linejoin:round;stroke-miterlimit:10;" x1="367.574" y1="126.536" x2="425.099" y2="126.536"/>
		
			<ellipse style="fill:none;stroke:#000000;stroke-width:15;stroke-linecap:round;stroke-linejoin:round;stroke-miterlimit:10;" cx="396.5" cy="337.376" rx="56.596" ry="119"/>
		
			<line style="fill:none;stroke:#000000;stroke-width:15;stroke-linecap:round;stroke-linejoin:round;stroke-miterlimit:10;" x1="293.333" y1="277" x2="343.667" y2="277"/>
		
			<line style="fill:none;stroke:#000000;stroke-width:15;stroke-linecap:round;stroke-linejoin:round;stroke-miterlimit:10;" x1="293.333" y1="393" x2="343.667" y2="393"/>
		
			<line style="fill:none;stroke:#000000;stroke-width:15;stroke-linecap:round;stroke-linejoin:round;stroke-miterlimit:10;" x1="448" y1="277" x2="502.707" y2="277"/>
		
			<line style="fill:none;stroke:#000000;stroke-width:15;stroke-linecap:round;stroke-linejoin:round;stroke-miterlimit:10;" x1="449.333" y1="393" x2="502.707" y2="393"/>
		<path style="fill:none;stroke:#000000;stroke-width:15;stroke-linecap:round;stroke-linejoin:round;stroke-miterlimit:10;" d="&#10;&#9;&#9;&#9;M86.772,399.938l-74.034,74.034c-6.984,6.984-6.984,18.306,0,25.29l0,0c6.984,6.984,18.306,6.984,25.29,0l74.409-74.409"/>
		<path style="fill:none;stroke:#000000;stroke-width:15;stroke-linecap:round;stroke-linejoin:round;stroke-miterlimit:10;" d="&#10;&#9;&#9;&#9;M71.68,371.395C89.456,415.428,132.599,446.5,183,446.5c66.274,0,120-53.726,120-120s-53.726-120-120-120s-120,53.726-120,120&#10;&#9;&#9;&#9;c0,3.666,0.164,7.294,0.486,10.876"/>
		
			<circle style="fill:none;stroke:#000000;stroke-width:15;stroke-linecap:round;stroke-linejoin:round;stroke-miterlimit:10;" cx="183" cy="326" r="90"/>
		
			<polyline style="fill:none;stroke:#000000;stroke-width:15;stroke-linecap:round;stroke-linejoin:round;stroke-miterlimit:10;" points="&#10;&#9;&#9;&#9;161.407,326.544 179.55,342.679 204.593,303.58 &#9;&#9;"/>
	</g>
</g>
<g>
</g>
<g>
</g>
<g>
</g>
<g>
</g>
<g>
</g>
<g>
</g>
<g>
</g>
<g>
</g>
<g>
</g>
<g>
</g>
<g>
</g>
<g>
</g>
<g>
</g>
<g>
</g>
<g>
</g>
</svg>