<svg id="Capa_1" enable-background="new 0 0 512 512" height="512" viewBox="0 0 512 512" width="512" xmlns="http://www.w3.org/2000/svg"><g><path d="m335.793 238.405-61.805-19.976c-4.491-1.451-5.264-3.015-5.169-10.456l.151-11.816 16.095 2.207c5.047.691 10.051-.826 14.093-4.273 4.608-3.931 7.44-9.966 7.575-16.145l.587-26.89 7.325-2.242c7.448-2.28 10.963-6.763 12.6-10.122 2.582-5.299 2.565-11.696-.049-18.5l-10.606-27.605c-.3-27.503-9.399-50.798-26.359-67.435-17.304-16.974-41.189-25.675-69.112-25.128-27.136.521-50.442 9.672-67.399 26.463-17.185 17.018-26.269 40.362-26.269 67.511 0 26.124 10.581 50.594 29.794 68.903 15.715 14.975 16.002 28.651 14.851 37.635l-.156 1.247c-1.05 8.513-2.289 14.268-9.652 16.599l-63.202 20.009c-33.804 10.702-50.236 31.293-50.236 62.95v210.659h277.136v-15h-262.136v-195.659c0-24.939 12.264-39.943 39.764-48.649l63.202-20.009c17.095-5.412 18.993-20.797 20.012-29.063l.147-1.177c2.453-19.148-3.887-35.635-19.382-50.4-16.213-15.45-25.143-36.064-25.143-58.044 0-23.056 7.546-42.715 21.823-56.852 14.167-14.028 33.922-21.679 57.133-22.125 23.79-.453 43.958 6.749 58.319 20.838 14.308 14.036 21.871 34.14 21.871 58.138v1.391l4.835 12.583h-59.014c-20.678 0-37.5 16.822-37.5 37.5v164.514c0 9.825-6.792 18.425-15.935 21.468-.179-3.95-.413-7.76-.712-11.358-1.93-23.192-7.356-36.325-17.079-41.329-6.919-3.56-15.086-2.594-24.271 2.876-11.175 6.656-22.096 16.573-31.583 28.68l11.808 9.252c10.558-13.475 20.755-21.057 27.451-25.044 2.5-1.49 7.091-3.786 9.731-2.427 1.608.828 7.01 5.382 8.995 29.235.281 3.381.503 6.941.673 10.623-8.549-1.369-17.88-4.755-25.04-9.273l-8.005 12.686c5.478 3.457 11.869 6.335 18.443 8.438-23.324 14.864-46.644 39.41-49.222 84.289l14.976.86c.705-12.281 3.164-22.776 6.867-31.809 3.988 3.212 7.51 7.863 11.1 14.534l13.209-7.108c-5.167-9.601-10.673-16.307-17.252-20.88 9.417-14.471 22.399-24.191 35.38-31.401.079 31.425-2.308 64.383-3.375 70.676-1.891 11.152-7.805 29.589-26.101 27.865-9.08-.864-18.435 2.499-27.478 5.749-8.106 2.913-17.295 6.216-20.918 3.634-1.604-1.143-5.311-5.771-5.089-24.031.492-40.64 9.91-76.801 27.236-104.573l-12.727-7.939c-18.78 30.102-28.984 68.945-29.509 112.331-.232 19.156 3.386 30.732 11.386 36.431 3.798 2.705 7.958 3.736 12.323 3.736 7.146 0 14.839-2.765 22.372-5.472 7.492-2.692 15.23-5.482 20.988-4.932 10.467.99 19.95-2.155 27.402-9.105 7.579-7.068 12.593-17.56 14.903-31.185 1.453-8.573 3.937-45.498 3.541-78.644 9.298-1.95 17.47-7.368 23.012-14.758 5.542 7.39 13.714 12.808 23.012 14.758-.395 33.146 2.088 70.071 3.541 78.644 2.311 13.625 7.324 24.117 14.903 31.185 7.453 6.95 16.927 10.099 27.402 9.105 5.749-.55 13.496 2.239 20.989 4.932 7.533 2.707 15.225 5.472 22.372 5.472 4.364 0 8.526-1.031 12.323-3.736 8-5.698 11.618-17.274 11.386-36.43-1.011-83.487-37.045-134.481-70.43-154.366-9.185-5.47-17.352-6.438-24.271-2.876-9.722 5.004-15.149 18.136-17.079 41.329-.299 3.599-.534 7.408-.712 11.358-9.143-3.043-15.935-11.642-15.935-21.468v-134.516c0-12.407 10.093-22.5 22.5-22.5h44.856l-.538 24.647c-.042 1.911-.95 3.897-2.314 5.061-1.151.982-2.032.862-2.319.823l-32.916-4.513-.368 28.792c-.082 6.431-.252 19.812 15.555 24.92l61.804 19.976c27.902 9.018 39.807 23.571 39.807 48.663v195.659h-30v15h45v-210.659c0-17.652-5.297-32.154-15.744-43.103-8.075-8.464-19.343-14.951-34.448-19.833zm-70.284 53.7c2.641-1.359 7.23.938 9.731 2.427 10.326 6.15 61.899 41.885 63.107 141.66.221 18.26-3.485 22.889-5.089 24.031-3.625 2.582-12.812-.721-20.918-3.634-8.066-2.899-16.376-5.886-24.525-5.886-.986 0-1.972.044-2.953.137-18.309 1.729-24.209-16.713-26.1-27.864-1.067-6.294-3.454-39.252-3.376-70.677 12.981 7.21 25.963 16.931 35.38 31.401-6.579 4.573-12.085 11.278-17.252 20.88l13.209 7.108c3.591-6.672 7.112-11.323 11.1-14.534 3.702 9.033 6.161 19.528 6.867 31.809l14.976-.86c-2.578-44.878-25.898-69.425-49.222-84.289 6.574-2.103 12.966-4.982 18.443-8.438l-8.005-12.686c-7.16 4.518-16.492 7.905-25.04 9.273.17-3.681.392-7.241.673-10.623 1.984-23.853 7.385-28.407 8.994-29.235zm-40.591-146.613v-.02c0-12.406 10.093-22.5 22.5-22.5h64.777l.999 2.6c1.038 2.7 1.25 5.149.567 6.549-.485.996-1.665 1.786-3.506 2.35l-11.436 3.501h-51.399c-8.437 0-16.23 2.801-22.502 7.52z"/><path d="m425.651 136.305c0-16.542-13.458-30-30-30s-30 13.458-30 30h15c0-8.271 6.729-15 15-15s15 6.729 15 15-6.729 15-15 15h-58.563v15h58.563c16.542 0 30-13.458 30-30z"/><path d="m433.15 181.304h-96.063v15h96.063c8.271 0 15 6.729 15 15s-6.729 15-15 15-15-6.729-15-15h-15c0 16.542 13.458 30 30 30s30-13.458 30-30-13.458-30-30-30z"/><path d="m258.586 48.923h15v15h-15z"/><path d="m228.586 33.923h15v15h-15z"/></g></svg>