<svg xmlns="http://www.w3.org/2000/svg" viewBox="0 0 64 64" id="restaurant">
  <path d="M3.493 19.862a.995.995 0 0 0 .843.079L32 10.061l12.086 4.3a1 1 0 0 0 .67-1.884L32.335 8.058a.985.985 0 0 0-.671 0L4.79 17.656l-.665-3.986L32 4.058l27.891 9.618-.58 3.973-10.785-3.834a1 1 0 0 0-.67 1.884L56 18.6V27h-3a1 1 0 0 0-1 1v7h-1a1 1 0 0 0 0 2h5v12a1 1 0 0 0 2 0V19.306l1.79.636a1 1 0 0 0 1.324-.8l.875-6a1 1 0 0 0-.663-1.09l-29-10a1 1 0 0 0-.652 0l-29 10a1 1 0 0 0-.66 1.109l1 6a1 1 0 0 0 .479.701ZM56 29v2h-2v-2Zm-2 6v-2h2v2Z"></path>
  <path d="M61 56h-1v-3a1 1 0 0 0-1-1H15V34a1 1 0 0 0-1-1H8V21.929a1 1 0 0 0-2 0V52H5a1 1 0 0 0-1 1v3H3a1 1 0 0 0 0 2h44a1 1 0 0 0 0-2H6v-2h52v2h-7a1 1 0 0 0 0 2h9v2H3a1 1 0 0 0 0 2h58a1 1 0 0 0 1-1v-4a1 1 0 0 0-1-1ZM8 35h5v5h-1a1 1 0 0 0 0 2h1v10H8Z"></path>
  <path d="M50.557 25.364a1 1 0 0 0-1.414-1.414l-3.537 3.535-1.414-1.414 3.535-3.536a1 1 0 0 0-1.414-1.414l-3.535 3.536-1.415-1.415 3.537-3.535a1 1 0 0 0-1.414-1.414l-4.243 4.242-.313.314a13.889 13.889 0 0 0-13.635-.12l-1.608-1.608a5 5 0 0 0-7.071 7.071l2.828 2.829a4.95 4.95 0 0 0 2.908 1.4 9.863 9.863 0 0 0 1.489 8.345l-1.412 1.411A11.9 11.9 0 0 1 20 35c0-.308.012-.614.035-.916a1 1 0 0 0-1.994-.154c-.027.352-.041.71-.041 1.07a13.921 13.921 0 0 0 3.425 9.131 3.191 3.191 0 0 0-.031.325 3 3 0 0 0 3 3 3.02 3.02 0 0 0 .942-.164 13.842 13.842 0 0 0 13.455-.07 2.989 2.989 0 0 0 4.074-3.434 13.763 13.763 0 0 0 2.413-13.144l1.035-1.036Zm-7.072 4.242a3 3 0 0 1-4.243-4.242l.707-.708 4.243 4.244ZM40 35a7.887 7.887 0 0 1-1.148 4.116l-2.438-2.438 3.395-3.4A7.956 7.956 0 0 1 40 35Zm-7.829-2.565-4.259-4.259v-.032a7.828 7.828 0 0 1 8.393.155Zm5.329-8.082a4.947 4.947 0 0 0-.92 1.765 9.972 9.972 0 0 0-8.859-.157 4.935 4.935 0 0 0-.972-1.727 12.178 12.178 0 0 1 10.751.119Zm-19.47 2.425a3 3 0 0 1 4.243-4.243l2.827 2.829a3 3 0 0 1-4.244 4.242ZM24 35a7.907 7.907 0 0 1 .262-1.989l1.546 1.546a1 1 0 0 0 1.414-1.414l-1.486-1.486a4.98 4.98 0 0 0 1.414-1.415l3.607 3.607-5.473 5.473A7.978 7.978 0 0 1 24 35Zm-.314 10.163a1 1 0 0 1 0-1.414l9.191-9.191 4.313-4.313a4.98 4.98 0 0 0 1.414 1.415L25.1 45.163a1 1 0 0 1-1.414 0Zm8.486-4.243 1.813 1.814a7.963 7.963 0 0 1-3.7.071Zm-5.025 5.024 1.527-1.527a9.739 9.739 0 0 0 6.9-.1l1.514 1.515a12.141 12.141 0 0 1-9.941.112Zm13.51-.781a1 1 0 0 1-1.415 0l-5.656-5.657L35 38.092l5.657 5.657a1 1 0 0 1 0 1.414Zm1.074-3.169L40.3 40.566a9.864 9.864 0 0 0 1.355-8.112 4.974 4.974 0 0 0 1.931-.516 11.817 11.817 0 0 1-1.857 10.056Z"></path>
  <path d="M34 19a1 1 0 0 0 1-1v-4a1 1 0 0 0-1-1h-4a1 1 0 0 0-1 1v4a1 1 0 0 0 1 1Zm-3-4h2v2h-2Z"></path>
</svg>
