<svg id="Layer_1" enable-background="new 0 0 512.002 512.002" height="512" viewBox="0 0 512.002 512.002" width="512" xmlns="http://www.w3.org/2000/svg"><g><path d="m278.941 278.561c-1.255-.871-2.747-1.337-4.274-1.337h-189.256c-1.527 0-3.019.466-4.273 1.337-50.145 36.424-58.764 82.866-21.213 133.203 5.949 7.924 17.723-.341 12.266-8.632-13.959-19.835-20.746-36.143-20.746-49.856 0-22.201 13.216-44.346 36.351-61.052h184.486c76.299 56.686 14.966 119.42-28.395 170.211h-122.084c-8.475-9.744-17.143-19.318-25.579-29.096-2.706-3.136-7.442-3.486-10.578-.78s-3.486 7.441-.78 10.578c9.184 10.647 18.648 21.049 27.832 31.697 1.424 1.652 3.498 2.602 5.679 2.602h129.141c2.298 0 4.47-1.054 5.892-2.86 52.302-61.243 114.432-129.558 25.531-196.015z"/><path d="m100.326 320.462c7.384-6.6-1.866-17.633-9.656-11.478-15.621 13.14-24.224 28.87-24.224 44.292 0 4.142 3.358 7.5 7.5 7.5s7.5-3.358 7.5-7.5c0-10.919 6.705-22.572 18.88-32.814z"/><path d="m467.268 302.567c-19.502 10.09-47.53 31.431-66.168 49.264 1.586-5.423 3.097-11.134 4.507-17.145 23.766 2.601 126.241-115.652 100.682-136.483-21.293-16.458-79.409 58.137-91.685 77.503.733-9.186 1.222-18.819 1.423-28.917 19.198-16.985 14.487-67.037 13.504-89.135-.184-4.138-3.674-7.329-7.826-7.159-4.138.184-7.343 3.688-7.159 7.826 1.025 23.047 2.418 51.536-6.368 73.611-12.048-22.273-14.891-113.925-4.347-136.787 1.854 3.892 4.436 11.421 6.729 24.529 2.003 9.708 16.183 7.237 14.775-2.585-6.31-36.065-15.606-39.979-22.04-39.761-5.506.174-13.351 3.434-17.892 29.622-5.53 28.63-5.922 119.732 15.616 140.025-.156 7.354-.471 14.443-.928 21.27-6.825-22.14-36.419-105.108-61.488-96.743-16.839 4.41-4.55 50.685 2.059 70.3-10.103-2.274-17.617 3.099-17.956 28.583-7.13-7.329-15.193-14.108-24.036-20.229 58.335-45.639 6.926-135.121-62.194-108.632v-90.241c0-6.043-6.53-8.275-11.587-7.5v-26.283c0-9.649-7.851-17.5-17.5-17.5h-54.351c-9.649 0-17.5 7.851-17.5 17.5v26.283h-22.299c-15.012 0-24.295 17.326-15.768 29.754l26.48 38.595v94.286c0 9.046-6.082 16.816-14.466 19.766-65.506 22.235-107.833 72.122-107.833 127.092.08 55.009 48.481 102.206 84.627 144.052 8.042 9.325 19.74 14.672 32.094 14.672h129.146c14.786.16 27.875-7.753 36.165-19.75 15.474 18.519 54.372 24.285 79.226 14.307 21.812 12.296 48.427-.286 65.785-17.384 58.092-63.607-8.159-113.804-62.399-54.006-1.962-.846-3.999-1.621-6.113-2.307 3.41-3.844 14.946-20.605 14.946-20.605 18.819 5.09 58.76-27.044 75.075-40.491 11.252-9.275 67.813-53.289 51.443-73.148-3.503-4.251-10.88-8.466-34.379 3.951zm-90.438 17.805c-.799-3.533 9.409 9.472 13.895 11.572-2.285 9.604-4.803 18.296-7.408 26.103-1.302-11.63-3.506-24.494-6.487-37.675zm68.367-60.702c22.887-28.216 41.546-43.334 49.903-47.672-5.53 24.792-62.982 95.578-86.047 106.225 3.857-20.791 23.498-42.962 36.144-58.553zm-100.242-71.579c18.701 17.106 51.475 102.861 48.963 127.866-18.702-17.106-51.475-102.861-48.963-127.866zm-6.366 70.74c17.952 25.345 36.01 109.836 29.704 132.847-15.935-20.49-35.683-108.587-29.704-132.847zm-78.014-107.031c49.212.246 66.718 65.102 24.121 89.6-10.499-5.942-21.83-11.032-33.799-15.115-8.377-2.98-14.419-10.639-14.419-19.728v-48.382c7.306-4.179 15.56-6.375 24.097-6.375zm-110.037-134.3c0-1.378 1.122-2.5 2.5-2.5h54.351c1.378 0 2.5 1.122 2.5 2.5v26.283h-59.351zm118.53 469.044c-5.233 6.645-13.088 10.456-21.549 10.456h-129.146c-7.987 0-15.545-3.451-20.735-9.469-33.846-39.24-81.001-85.346-80.986-134.255 0-48.44 38.332-92.751 97.659-112.889 14.4-5.143 24.64-18.459 24.64-33.968v-96.612c0-1.515-.458-2.994-1.315-4.243 0 0-27.795-40.513-27.795-40.513-1.85-2.696.197-6.268 3.399-6.268h108.238v147.775c0 15.486 10.246 28.787 24.588 33.928 32.645 11.136 55.776 29.868 78.287 55.118 2.731 23.169 9.575 52.682 17.334 74.243-3.731 18.367-13.336 38.168-30.13 62.096-24.785 7.041-41.212 24.675-35.793 46.195-2.164 2.694-4.47 5.581-6.696 8.406zm22.144-9.707c-.065-.167-.139-.33-.216-.493-6.751-18.699 17.042-32.061 43.344-32.421 59.198 1.92 59.2 50.591 0 52.511-20.31.001-37.968-8.465-43.128-19.597zm89.746-35.402c17.116-17.116 40.078-23.074 50.142-13.011 19.265 22.912-21.471 69.826-50.473 68.062 18.224-14.814 17.545-39.29-1.139-53.533.483-.512.971-1.02 1.47-1.518zm-46.618-12.511c-.916 0-1.824.019-2.729.046 8.556-13.345 14.922-25.623 19.3-37.292 2.823 5.467 6.254 10.908 10.282 14.421-5.305 8.464-11.321 16.35-18.571 23.214-2.704-.25-5.464-.389-8.282-.389zm106.324-68.736c-26.562 21.894-47.061 33.012-56.841 36.326 1.183-2.37 2.37-4.845 3.556-7.445 15.747-24.06 78.895-74.377 100.564-79.156-4.273 8.39-19.244 27.167-47.279 50.275z"/></g></svg>