<svg id="Layer_1" enable-background="new 0 0 48 48" viewBox="0 0 48 48" xmlns="http://www.w3.org/2000/svg"><path d="m47.44 11.58c-.01-.01-.01-.02-.02-.04-.02-.05-.04-.09-.08-.13l-3.64-4.78v-5.38c0-.41-.34-.75-.75-.75h-37.91c-.41 0-.75.34-.75.75v5.39l-3.64 4.78c-.03.04-.05.09-.08.13-.01.01-.02.02-.02.04-.03.08-.05.17-.05.26 0 .01-.01.02-.01.03v7.38c0 1.58.81 2.97 2.03 3.78v22.96h-2.02v1.5h47v-1.5h-2.03v-22.97c1.22-.81 2.03-2.2 2.03-3.78v-7.38c0-.01 0-.02-.01-.03 0-.09-.01-.18-.05-.26zm-9.02 7.67c0 1.68-1.36 3.04-3.04 3.04s-3.04-1.36-3.04-3.04v-6.63h6.08zm-7.59 0c0 1.68-1.36 3.04-3.04 3.04s-3.04-1.36-3.04-3.04v-6.63h6.08zm-15.16 0c0 1.68-1.36 3.04-3.04 3.04s-3.04-1.36-3.04-3.04v-6.63h6.08zm14.07-11.61.7 2.75.18.72h-5.87v-3.47zm6.44 0 1.77 3.48h-5.78l-.7-2.75-.18-.72h4.89zm-12.93 3.48h-5.87l.18-.72.7-2.75h4.99zm-6.72-2.76-.7 2.75h-5.78l1.77-3.48h4.89zm.64 4.26h6.08v6.63c0 1.68-1.36 3.04-3.04 3.04s-3.04-1.36-3.04-3.04zm22.46-1.5-1.77-3.48h4.73l2.65 3.48zm-33.84-9.12h36.42v4.14h-5.57-6.32-6.32-6.32-6.32-5.57zm-.38 5.64h4.73l-1.77 3.48h-5.61zm-3.41 4.98h6.08v6.63c0 1.68-1.36 3.04-3.04 3.04s-3.04-1.36-3.04-3.04zm30.97 33.38h-8.22v-14.49h8.22zm-9.72 0h-8.22v-14.49h8.22zm20.72 0h-9.49v-14.49h2.23v-1.5h-2.98-19.45-2.98v1.5h2.23v14.49h-9.5v-22.33c.33.07.66.12 1.01.12 1.59 0 2.98-.82 3.79-2.05.81 1.23 2.21 2.05 3.79 2.05 1.59 0 2.98-.82 3.79-2.05.81 1.23 2.21 2.05 3.79 2.05s2.98-.82 3.79-2.05c.81 1.23 2.21 2.05 3.79 2.05 1.59 0 2.98-.82 3.79-2.05.81 1.23 2.21 2.05 3.79 2.05 1.59 0 2.98-.82 3.79-2.05.81 1.23 2.21 2.05 3.79 2.05.35 0 .68-.05 1.01-.12v22.33zm2.03-26.75c0 1.68-1.36 3.04-3.04 3.04s-3.04-1.36-3.04-3.04v-6.63h6.08z"/></svg>