<svg id="Capa_1" enable-background="new 0 0 511.998 511.998" height="512" viewBox="0 0 511.998 511.998" width="512" xmlns="http://www.w3.org/2000/svg"><g><path d="m170.427 386.412c7.479 0 14.242-3.11 19.076-8.1 4.834 4.989 11.597 8.1 19.076 8.1 14.654 0 26.576-11.922 26.576-26.576 0-12.529-8.718-23.054-20.404-25.845.857-2.608 1.328-5.389 1.328-8.28 0-14.654-11.922-26.576-26.576-26.576s-26.576 11.922-26.576 26.576c0 2.891.47 5.672 1.328 8.28-11.686 2.791-20.404 13.316-20.404 25.845-.001 14.654 11.921 26.576 26.576 26.576zm49.728-26.576c0 6.383-5.193 11.576-11.576 11.576s-11.576-5.193-11.576-11.576 5.193-11.576 11.576-11.576 11.576 5.192 11.576 11.576zm-30.652-45.701c6.383 0 11.576 5.193 11.576 11.576s-5.193 11.576-11.576 11.576-11.576-5.193-11.576-11.576 5.192-11.576 11.576-11.576zm-19.076 34.124c6.383 0 11.576 5.193 11.576 11.576s-5.193 11.576-11.576 11.576-11.576-5.193-11.576-11.576 5.192-11.576 11.576-11.576z"/><path d="m394.771 215.928-29.311-26.431c-3.052-2.751-5.212-6.297-6.245-10.254-1.047-4.008-5.146-6.409-9.152-5.361-4.008 1.047-6.408 5.144-5.361 9.152 1.776 6.799 5.481 12.887 10.715 17.604l14.812 13.357h-95.479l14.811-13.356c7.556-6.811 11.889-16.546 11.889-26.71v-60.06h42.08v32.4c0 4.142 3.357 7.5 7.5 7.5s7.5-3.358 7.5-7.5v-33.845c7.549-2.991 12.909-10.349 12.909-18.949v-8.387c0-10.297-7.68-18.814-17.609-20.178l-12.047-44.814c-1.154-4.302-4.172-7.759-8.279-9.486l-22.713-9.55c-4.185-1.758-8.938-1.309-12.715 1.202-3.779 2.511-6.035 6.718-6.035 11.255v51.275c-10.359.958-18.498 9.69-18.498 20.294v8.387c0 8.599 5.359 15.956 12.906 18.948v61.506c0 5.923-2.526 11.598-6.933 15.57l-23.521 21.209-23.525-21.21c-4.405-3.971-6.932-9.646-6.932-15.569v-61.504c7.55-2.991 12.912-10.349 12.912-18.95v-8.387c0-10.604-8.139-19.335-18.498-20.294v-51.274c0-4.541-2.258-8.75-6.041-11.26-3.781-2.508-8.533-2.954-12.702-1.196l-22.737 9.547c-4.087 1.727-7.098 5.178-8.264 9.482l-12.044 44.817c-9.929 1.363-17.611 9.88-17.611 20.178v8.387c0 8.598 5.358 15.955 12.904 18.947v61.507c0 5.922-2.524 11.599-6.921 15.569l-29.315 26.426c-7.552 6.795-11.884 16.533-11.884 26.715v229.47c0 21.996 17.89 39.89 39.88 39.89h88.56c8.005 0 15.695-2.377 22.222-6.771 6.352 4.273 13.994 6.771 22.208 6.771h58.271c4.143 0 7.5-3.358 7.5-7.5s-3.357-7.5-7.5-7.5h-58.271c-13.725 0-24.89-11.166-24.89-24.89v-45.167h138.34v45.167c0 12.871-10.035 23.766-22.847 24.805-4.128.335-7.204 3.953-6.869 8.082.318 3.923 3.6 6.895 7.468 6.895.203 0 .408-.008.614-.025 20.542-1.666 36.634-19.128 36.634-39.756v-229.47c.002-10.177-4.333-19.914-11.886-26.71zm-67.387-191.621 10.856 40.39h-31.199v-48.942zm-38.841 60.78c0-2.972 2.418-5.39 5.39-5.39h57.116c2.972 0 5.39 2.418 5.39 5.39v8.387c0 2.972-2.418 5.39-5.39 5.39h-57.116c-2.972 0-5.39-2.418-5.39-5.39zm-50.224 157.551v15.97h-69.47c-4.142 0-7.5 3.358-7.5 7.5s3.358 7.5 7.5 7.5h69.47v138.33h-117.98v-138.33h13.51c4.142 0 7.5-3.358 7.5-7.5s-3.358-7.5-7.5-7.5h-13.51v-15.97c0-5.033 1.818-9.873 5.052-13.644h115.635c-1.761 4.288-2.707 8.916-2.707 13.644zm-53.708-218.337 20.342-8.542v48.937h-31.198zm-29.056 60.786c0-2.972 2.418-5.39 5.39-5.39h57.116c2.972 0 5.39 2.418 5.39 5.39v8.387c0 2.972-2.418 5.39-5.39 5.39h-57.116c-2.972 0-5.39-2.418-5.39-5.39zm1.03 115.547c7.546-6.814 11.874-16.548 11.874-26.706v-60.06h42.08v60.06c0 10.164 4.333 19.899 11.888 26.71l14.814 13.356h-95.477zm-11.366 296.364c-13.719 0-24.88-11.166-24.88-24.89v-45.17h117.98v45.17c0 8.205 2.492 15.838 6.756 22.185-3.462 1.767-7.317 2.705-11.296 2.705zm246.439-85.057-138.335-.003v-138.33l138.335-.002zm-138.339-153.335v-15.968c0-5.029 1.821-9.868 5.061-13.644h128.22c3.238 3.772 5.06 8.613 5.06 13.644v15.968z"/><path d="m275.562 357.612c0 23.024 15.156 41.755 33.786 41.755h26.285c18.629 0 33.785-18.731 33.785-41.755s-15.156-41.755-33.785-41.755c-1.928 0-3.839.212-5.719.607-.907-9.268-4.176-21.396-14.485-27.821-3.515-2.19-8.141-1.118-10.332 2.398-2.19 3.515-1.117 8.141 2.398 10.332 4.624 2.882 6.627 9.184 7.377 15.049-1.817-.368-3.664-.565-5.525-.565-18.628 0-33.785 18.731-33.785 41.755zm78.857 0c0 14.503-8.603 26.755-18.785 26.755h-26.285c-10.184 0-18.786-12.252-18.786-26.755 0-14.502 8.603-26.755 18.786-26.755 3.013 0 5.915 1.037 8.627 3.082 2.672 2.017 6.359 2.017 9.031 0 2.712-2.045 5.614-3.082 8.627-3.082 10.182 0 18.785 12.253 18.785 26.755z"/></g></svg>