<svg height="512" viewBox="0 0 512 512" width="512" xmlns="http://www.w3.org/2000/svg"><g><path d="m476.5 212.5h-10.534c12.762-25.331 16.234-57.717 10-94.583a7.5 7.5 0 0 0 -6.146-6.145c-23.769-4.019-45.692-3.942-65.051.014a85.307 85.307 0 0 0 3.26-12.861 22.528 22.528 0 0 0 -23.738-26.334l-94.317 6.6a7.5 7.5 0 0 0 1.046 14.964l94.318-6.6a7.349 7.349 0 0 1 6.056 2.436 7.573 7.573 0 0 1 1.85 6.4 70.321 70.321 0 0 1 -6.972 20.642 101.611 101.611 0 0 0 -33.392 20.113 97.332 97.332 0 0 0 -74.88-35.13c-1.017 0-2.029.02-3.038.052a54.677 54.677 0 0 0 -73.983-41.5 54.693 54.693 0 0 0 -79.953-14.726 54.682 54.682 0 0 0 -76.684 76.682 54.014 54.014 0 0 0 -8.133 14.869 7.5 7.5 0 1 0 14.119 5.063 39.314 39.314 0 0 1 9.291-14.627 7.5 7.5 0 0 0 0-10.607 39.671 39.671 0 0 1 56.1-56.1 7.5 7.5 0 0 0 10.607 0 39.666 39.666 0 0 1 64.464 12.31 7.5 7.5 0 0 0 10.611 3.536 39.656 39.656 0 0 1 58.599 26.721 97.609 97.609 0 0 0 -58.75 35.766 97.6 97.6 0 0 0 -19.945-2.747c-21.264-24.439-49.572-45-84.222-61.117a7.5 7.5 0 1 0 -6.326 13.6c28.551 13.28 52.458 29.664 71.293 48.791a97.413 97.413 0 0 0 -79.114 74.518h-11.371a39.608 39.608 0 0 1 3.9-9.594 7.5 7.5 0 0 0 -3.535-10.606 39.681 39.681 0 0 1 -23.262-29.139 7.5 7.5 0 0 0 -14.748 2.729 54.735 54.735 0 0 0 25.155 36.592 55.235 55.235 0 0 0 -2.887 10.018h-20.688a17.52 17.52 0 0 0 -17.5 17.5v110a107.622 107.622 0 0 0 105.5 107.475v7.525a22.526 22.526 0 0 0 22.5 22.5h220a22.526 22.526 0 0 0 22.5-22.5v-7.525a107.622 107.622 0 0 0 105.5-107.475v-11.431a7.5 7.5 0 1 0 -15 0v11.431a92.6 92.6 0 0 1 -92.5 92.5h-176.433a7.5 7.5 0 0 0 0 15h163.433v7.5a7.509 7.509 0 0 1 -7.5 7.5h-220a7.509 7.509 0 0 1 -7.5-7.5v-7.5h43.331a7.5 7.5 0 1 0 0-15h-56.331a92.6 92.6 0 0 1 -92.5-92.5v-62.5h345.634a7.5 7.5 0 0 0 0-15h-345.634v-32.5a2.5 2.5 0 0 1 2.5-2.5h441a2.5 2.5 0 0 1 2.5 2.5v32.5h-74.443a7.5 7.5 0 0 0 0 15h74.443v7.5a7.5 7.5 0 0 0 15 0v-55a17.52 17.52 0 0 0 -17.5-17.5zm-14.49-86.768c5.015 34.871.47 64.7-13.218 86.768h-10.054a42.555 42.555 0 0 0 -20.757-32.134l29.719-29.717a7.5 7.5 0 0 0 -10.607-10.607l-34.87 34.87a42.433 42.433 0 0 0 -28.474 6.18 96.856 96.856 0 0 0 -12.1-31.615c22.486-21.501 57.721-29.861 100.361-23.745zm-86.51 73.534a27.5 27.5 0 0 1 48.123 13.234h-48.988a98.558 98.558 0 0 0 .865-12.984c0-.084 0-.167 0-.25zm-97.5-82.25a82.536 82.536 0 0 1 81.478 95.484h-15.246a67.5 67.5 0 1 0 -133.478-18.857 7.5 7.5 0 1 0 14.943 1.295 52.5 52.5 0 1 1 103.177 17.562h-132.352a82.536 82.536 0 0 1 81.478-95.484zm-96.635 95.484h-51.2a52.472 52.472 0 0 1 47.835-30.853c1.375 0 2.745.073 4.112.18a97.868 97.868 0 0 0 -.747 30.673zm-56.982-41.059a82.55 82.55 0 0 1 68-18.534 97.119 97.119 0 0 0 -6.347 14.231 67.379 67.379 0 0 0 -71.97 45.362h-15.679a82.671 82.671 0 0 1 25.996-41.059z"/><circle cx="486.5" cy="306.76" r="7.5"/><circle cx="308" cy="189.516" r="7.5"/><circle cx="278" cy="164.516" r="7.5"/><circle cx="248" cy="189.605" r="7.5"/></g></svg>