<svg id="Layer_1" enable-background="new 0 0 512 512" viewBox="0 0 512 512" xmlns="http://www.w3.org/2000/svg"><path d="m436.938 182.605-84.822-48.972c.197-2.722.302-5.47.302-8.245v-71.495c0-3.2-1.907-6.092-4.849-7.353l-88.418-37.893c-2.013-.862-4.29-.862-6.303 0l-88.418 37.893c-2.941 1.261-4.849 4.153-4.849 7.353v71.495c0 2.775.105 5.524.302 8.246l-84.822 48.972c-2.475 1.429-4 4.07-4 6.928v204.311c0 2.858 1.525 5.499 4 6.928l176.939 102.155c1.238.714 2.619 1.072 4 1.072s2.762-.357 4-1.072l176.938-102.155c2.475-1.429 4-4.07 4-6.928v-204.311c0-2.858-1.524-5.499-4-6.929zm-19.999 6.929-46.813 27.028-40.816-23.565c9.662-12.336 16.625-26.702 20.249-42.364zm-160.939 92.918-160.939-92.918 46.813-27.028 32.966 19.033c16.359 27.52 44.768 47.474 79.786 53.579.454.079.914.119 1.374.119s.919-.04 1.374-.119c2.559-.446 5.081-.968 7.567-1.559l37.873 21.865zm62.273-77.353 35.852 20.7-35.312 20.387-33.566-19.379c12.454-5.407 23.58-12.78 33.026-21.708zm8.54 54.944 35.312-20.387v61.978l-35.312 20.387zm-151.231-200.875 80.418-34.464 80.418 34.465v66.219c0 46.485-32.995 84.836-80.418 93.719-47.424-8.883-80.418-47.234-80.418-93.719zm-11.506 97.681-6.201-3.58 4.567-2.637c.485 2.096 1.031 4.169 1.634 6.217zm-77.014 46.541 160.938 92.918v185.835l-160.938-92.917zm176.938 278.753v-185.835l46.813-27.028v66.597c0 2.858 1.525 5.499 4 6.928 1.238.714 2.619 1.072 4 1.072s2.762-.357 4-1.072l51.312-29.625c2.475-1.429 4-4.07 4-6.928v-75.834l46.813-27.028v185.836zm-9.76-273.608c.579.13 1.169.196 1.76.196s1.181-.065 1.76-.196c41.067-9.261 68.659-42.675 68.659-83.147v-54.35c0-3.2-1.907-6.092-4.849-7.353l-62.418-26.75c-2.013-.862-4.29-.862-6.303 0l-62.418 26.75c-2.941 1.261-4.849 4.153-4.849 7.353v54.35c0 40.472 27.591 73.886 68.658 83.147zm-52.658-132.223 54.418-23.321 54.418 23.322v49.075c0 32.757-21.294 58.925-54.418 67.123-33.125-8.198-54.418-34.366-54.418-67.123zm45.162 84.853c4.732 0 9.464-1.801 13.067-5.404 8.803-8.803 17.68-17.807 26.264-26.514 5.171-5.245 10.342-10.49 15.526-15.722 7.157-7.222 7.118-18.926-.086-26.09-3.485-3.466-8.106-5.373-13.02-5.373-.024 0-.049 0-.073 0-4.934.019-9.561 1.958-13.03 5.461l-28.698 28.985-10.102-10.102c-7.205-7.205-18.929-7.206-26.135 0-7.204 7.205-7.204 18.928 0 26.133l23.22 23.22c3.603 3.605 8.335 5.406 13.067 5.406zm-24.973-43.444c.631-.631 1.37-.726 1.753-.726.384 0 1.123.094 1.754.726l15.787 15.787c1.5 1.5 3.535 2.343 5.657 2.343h.02c2.128-.005 4.167-.859 5.665-2.371l34.354-34.698c.586-.592 1.26-.718 1.722-.72.38-.039 1.119.09 1.75.718.96.954.961 2.517.003 3.483-5.193 5.242-10.374 10.496-15.554 15.75-8.564 8.687-17.421 17.67-26.184 26.433-.967.967-2.541.967-3.507 0l-23.219-23.219c-.968-.966-.968-2.539-.001-3.506z"/></svg>