<svg id="Layer_1" viewBox="0 0 512 512" xmlns="http://www.w3.org/2000/svg" data-name="Layer 1"><path d="m131.658 353.398h-69.349c-27.142.166-49.224 22.381-49.224 49.521v39.231c0 13.411 10.924 24.322 24.35 24.322 3.687 0 7.185-.825 10.318-2.3v16.614c0 3.867 3.135 7.002 7.002 7.002h84.5c3.867 0 7.002-3.135 7.002-7.002v-16.621c3.142 1.479 6.649 2.307 10.347 2.307 13.41 0 24.321-10.911 24.321-24.322v-39.231c0-27.141-22.082-49.355-49.267-49.521zm35.263 88.753c0 5.689-4.628 10.318-10.317 10.318s-10.347-4.629-10.347-10.318v-34.639c0-3.867-3.135-7.002-7.002-7.002s-7.002 3.135-7.002 7.002v66.273h-70.496v-69.108c0-3.867-3.135-7.002-7.002-7.002s-7.002 3.135-7.002 7.002v37.474c0 5.689-4.629 10.318-10.318 10.318s-10.346-4.629-10.346-10.318v-39.231c0-19.466 15.838-35.399 35.263-35.518h69.264c19.468.118 35.306 16.052 35.306 35.518v39.231zm201.884-139.011c0 25.478 20.728 46.205 46.205 46.205s46.205-20.728 46.205-46.205-20.728-46.205-46.205-46.205-46.205 20.728-46.205 46.205zm78.406 0c0 17.756-14.445 32.201-32.201 32.201s-32.201-14.445-32.201-32.201 14.445-32.201 32.201-32.201 32.201 14.445 32.201 32.201zm2.438 50.258h-69.351c-27.126.166-49.195 22.381-49.195 49.521v39.231c0 13.411 10.911 24.322 24.322 24.322 3.687 0 7.184-.824 10.317-2.299v16.613c0 3.867 3.135 7.002 7.002 7.002h84.529c3.867 0 7.002-3.135 7.002-7.002v-16.613c3.134 1.475 6.631 2.299 10.317 2.299 13.41 0 24.321-10.911 24.321-24.322v-39.231c0-27.141-22.082-49.355-49.266-49.521zm35.262 88.753c0 5.689-4.628 10.318-10.317 10.318s-10.317-4.629-10.317-10.318v-34.639c0-3.867-3.135-7.002-7.002-7.002s-7.002 3.135-7.002 7.002v66.273h-70.525v-69.108c0-3.867-3.135-7.002-7.002-7.002s-7.002 3.135-7.002 7.002v37.474c0 5.689-4.628 10.318-10.317 10.318s-10.318-4.629-10.318-10.318v-39.231c0-19.466 15.825-35.399 35.234-35.518h69.265c19.468.118 35.305 16.052 35.305 35.518v39.231zm-178.68-317.533-46.72-26.961c-2.166-1.246-4.828-1.246-6.994 0l-46.745 26.959c-2.167 1.25-3.503 3.562-3.503 6.064v53.972c0 2.502 1.336 4.814 3.503 6.064l46.74 26.984c1.083.626 2.293.939 3.502.939s2.419-.313 3.502-.939l46.715-26.986c2.166-1.251 3.5-3.562 3.5-6.062v-53.972c0-2.501-1.334-4.812-3.5-6.062zm-57.219 74.892-32.739-18.902v-37.801l32.739 18.901v37.801zm7.002-49.929-32.733-18.9 32.733-18.876 32.718 18.876zm39.713 31.03-32.711 18.896v-37.8l32.711-18.896zm-198.708 168.734c25.462 0 46.177-20.728 46.177-46.205s-20.715-46.205-46.177-46.205-46.205 20.728-46.205 46.205 20.728 46.205 46.205 46.205zm0-78.406c17.74 0 32.173 14.445 32.173 32.201s-14.433 32.201-32.173 32.201-32.201-14.445-32.201-32.201 14.445-32.201 32.201-32.201zm158.995 94.421c-15.912 0-28.857 12.933-28.857 28.829s12.945 28.857 28.857 28.857 28.828-12.945 28.828-28.857-12.933-28.829-28.828-28.829zm0 43.683c-8.19 0-14.854-6.663-14.854-14.854s6.663-14.825 14.854-14.825 14.824 6.65 14.824 14.825-6.65 14.854-14.824 14.854zm-164.103-162.485c.023.024.049.045.072.069.098.102.201.197.304.292.068.063.135.127.205.187.112.095.23.184.348.272.067.05.131.102.2.15.138.095.28.182.424.267.054.032.105.067.16.097.177.098.358.186.543.269.026.011.051.026.077.037.215.093.437.176.663.247.027.009.055.014.083.022.198.06.399.115.604.158.05.01.102.014.152.024.182.034.365.067.553.086.238.025.479.038.722.038s.483-.013.722-.038c.194-.02.385-.053.574-.089.043-.008.087-.011.13-.021.203-.042.4-.097.596-.156.03-.009.061-.015.091-.024.226-.072.447-.154.662-.247.024-.01.047-.024.072-.034.187-.083.37-.173.549-.272.052-.029.102-.063.154-.094.146-.086.291-.174.431-.271.067-.046.13-.098.196-.146.119-.089.238-.178.352-.275.07-.059.136-.123.204-.185.104-.095.207-.191.305-.293.023-.024.05-.045.073-.07l21.543-22.989c2.644-2.821 2.5-7.252-.322-9.896-2.821-2.643-7.251-2.5-9.896.322l-9.432 10.065v-98.338h58.619v145.87c0 19.585 15.934 35.519 35.519 35.519h115.71c19.585 0 35.519-15.934 35.519-35.519v-145.872h58.62v98.338l-9.432-10.065c-2.646-2.823-7.076-2.966-9.896-.322-2.822 2.645-2.966 7.075-.322 9.896l21.543 22.989c.023.025.049.046.073.07.098.102.201.198.305.293.067.062.134.126.204.185.114.097.233.187.353.276.065.048.128.099.194.145.14.097.285.185.432.271.052.03.101.064.153.093.179.099.362.189.549.272.024.011.047.024.072.034.215.093.437.176.662.247.03.009.061.015.091.024.196.059.394.114.596.156.043.009.087.012.13.021.189.036.38.069.574.089.239.025.479.038.722.038s.483-.013.722-.038c.194-.02.385-.053.574-.089.043-.008.087-.011.13-.021.203-.042.4-.097.596-.156.03-.009.061-.015.091-.024.226-.072.447-.154.662-.247.024-.01.047-.024.072-.034.187-.083.37-.173.549-.272.052-.029.102-.063.154-.094.146-.086.291-.174.431-.271.067-.046.13-.098.196-.146.119-.089.238-.178.352-.275.07-.059.136-.123.204-.185.104-.095.207-.191.305-.293.023-.024.05-.045.073-.07l21.543-22.989c2.644-2.821 2.5-7.252-.322-9.896-2.82-2.643-7.251-2.5-9.896.322l-9.432 10.065v-105.34c0-3.867-3.135-7.002-7.002-7.002h-65.622v-51.987c0-19.585-15.934-35.519-35.519-35.519h-115.71c-19.585 0-35.519 15.934-35.519 35.519v51.987h-65.621c-3.867 0-7.002 3.135-7.002 7.002v105.341l-9.434-10.066c-2.644-2.821-7.073-2.966-9.896-.32-2.821 2.644-2.965 7.074-.32 9.896l21.544 22.989zm191.606-208.344-2.602 14.088h-49.829l-2.602-14.088h55.032zm-106.872 21.515c0-11.863 9.651-21.515 21.515-21.515h16.085l4.129 22.361c.612 3.32 3.508 5.73 6.885 5.73h61.483c3.377 0 6.272-2.41 6.885-5.73l4.129-22.361h16.113c11.863 0 21.515 9.651 21.515 21.515v189.297h-158.739zm0 203.301h158.739v8.561c0 11.863-9.651 21.515-21.515 21.515h-115.71c-11.863 0-21.515-9.651-21.515-21.515v-8.561zm137.284 114.929-5.616-1.408c-.792-2.358-1.737-4.65-2.83-6.86l3.001-5.035c2.959-5.037 2.196-11.216-1.963-15.439l-5.596-5.595c-4.157-4.096-10.334-4.858-15.415-1.878l-4.996 2.979c-2.211-1.093-4.502-2.038-6.86-2.83l-1.416-5.647c-1.437-5.621-6.488-9.548-12.283-9.548h-7.88c-5.859 0-10.918 3.957-12.285 9.561l-1.431 5.637c-2.353.792-4.639 1.736-6.844 2.827l-5.035-3c-4.996-2.936-11.335-2.14-15.413 1.937l-5.584 5.584c-4.115 4.116-4.898 10.478-1.914 15.453l2.975 4.991c-1.104 2.222-2.056 4.516-2.85 6.864l-5.652 1.417c-5.621 1.437-9.548 6.487-9.548 12.282v7.881c0 5.857 3.956 10.915 9.561 12.285l5.642 1.432c.794 2.343 1.745 4.63 2.848 6.848l-2.964 4.974c-3.019 5.031-2.221 11.408 1.879 15.444l5.571 5.571c4.101 4.162 10.477 4.959 15.489 1.952l4.991-2.975c2.219 1.103 4.506 2.054 6.848 2.848l1.416 5.581c1.383 5.664 6.441 9.621 12.301 9.621h7.88c5.795 0 10.847-3.927 12.291-9.579l1.41-5.622c2.348-.793 4.64-1.745 6.863-2.85l4.975 2.965c4.992 2.996 11.354 2.213 15.469-1.903l5.586-5.586c4.075-4.077 4.871-10.415 1.913-15.451l-2.978-4.995c1.091-2.206 2.035-4.491 2.827-6.844l5.579-1.416c5.663-1.385 9.618-6.443 9.618-12.3v-7.881c0-5.794-3.927-10.845-9.579-12.29zm-4.425 19.137-8.496 2.156c-2.487.631-4.43 2.571-5.063 5.059-.992 3.898-2.516 7.582-4.527 10.95-1.318 2.209-1.32 4.964-.003 7.175l4.493 7.538-4.109 4.107-7.537-4.492c-2.21-1.317-4.966-1.316-7.174.003-3.429 2.047-7.119 3.579-10.97 4.554-2.498.632-4.447 2.585-5.073 5.084l-2.126 8.478h-5.81l-2.156-8.496c-.631-2.487-2.572-4.431-5.059-5.063-3.843-.979-7.527-2.511-10.952-4.556-2.209-1.319-4.963-1.32-7.174-.003l-7.542 4.495-4.106-4.105 4.496-7.543c1.317-2.211 1.315-4.967-.004-7.176-2.043-3.42-3.575-7.104-4.555-10.949-.634-2.487-2.576-4.428-5.063-5.059l-8.496-2.156v-5.81l8.478-2.126c2.499-.626 4.452-2.575 5.085-5.073.975-3.854 2.506-7.544 4.552-10.968 1.319-2.209 1.321-4.965.004-7.176l-4.493-7.538 4.108-4.107 7.537 4.492c2.211 1.317 4.967 1.316 7.174-.003 3.37-2.012 7.055-3.535 10.952-4.527 2.486-.633 4.428-2.576 5.059-5.063l2.156-8.496h5.81l2.126 8.478c.626 2.499 2.575 4.452 5.073 5.084 3.905.989 7.596 2.511 10.97 4.525 2.21 1.319 4.964 1.32 7.174.003l7.532-4.49 4.111 4.11-4.49 7.533c-1.317 2.211-1.315 4.966.003 7.175 2.015 3.372 3.536 7.062 4.524 10.969.633 2.498 2.586 4.447 5.085 5.073l8.478 2.126v5.81z"/></svg>