<svg id="Layer_1" enable-background="new 0 0 512 512" viewBox="0 0 512 512" xmlns="http://www.w3.org/2000/svg"><path d="m186.22 214.13c0-3.88 3.12-7 7-7 3.85 0 7 3.12 7 7v22.2l18.91 18.94c2.72 2.72 2.72 7.17 0 9.89s-7.17 2.72-9.89 0l-20.92-20.92c-1.3-1.28-2.1-3.03-2.1-4.99zm14.8-51.53v24.52c0 3.88-3.15 7-7 7-3.88 0-7-3.12-7-7v-24.52c-34.47 3.32-61.88 30.73-65.2 65.2h24.52c3.88 0 7 3.12 7 7 0 3.85-3.12 7-7 7h-24.52c3.32 34.47 30.73 61.88 65.2 65.17v-24.52c0-3.86 3.12-7 7-7 3.85 0 7 3.15 7 7v24.52c34.44-3.29 61.88-30.7 65.17-65.17h-24.52c-3.86 0-7-3.15-7-7 0-3.88 3.15-7 7-7h24.52c-3.29-34.48-30.73-61.89-65.17-65.2zm-7-14.32c47.76 0 86.51 38.72 86.51 86.51 0 47.76-38.75 86.51-86.51 86.51-47.79 0-86.51-38.75-86.51-86.51 0-47.79 38.72-86.51 86.51-86.51zm147.8 203.79c-2.75-2.75-2.75-7.17 0-9.89 2.72-2.75 7.17-2.75 9.89 0l15.05 15.05 26.28-45.5c1.93-3.34 6.18-4.48 9.52-2.55 3.32 1.9 4.48 6.15 2.55 9.5l-30.5 52.84c-2.49 4.88-8.14 5.22-11.31 2.04zm31.09-73.25c35.49 0 65.31 27.72 65.31 63.1 0 35.35-29.82 63.1-65.31 63.1-35.46 0-65.28-27.75-65.28-63.1 0-35.38 29.82-63.1 65.28-63.1zm36.4 28.46c-20.04-19.3-52.72-19.3-72.77 0-19.9 19.13-19.9 50.12 0 69.25 20.04 19.3 52.72 19.3 72.77 0 19.87-19.14 19.87-50.12 0-69.25zm10.6-55.39 6.43 10.94c1.59 2.66 3.97 4.22 7.03 4.79l12.87 2.38c12.36 2.3 21.06 13.44 19.62 25.88l-1.47 12.53c-.37 2.95.54 5.44 2.61 7.57l8.96 9.21c8.79 9.01 8.87 23.13.17 32.29l-8.82 9.3c-2.04 2.13-2.92 4.68-2.55 7.6l1.62 12.5c.99 7.71-1.9 15.05-7.37 20.1l18.88 52.84h-.03c2.1 5.92-4.17 11.45-9.81 8.53l-30.39-15.93-10.32 33.17c-1.98 6.38-11.11 6.58-13.29.17l-14.46-42.21c-3.26-.03-6.6-.71-9.75-2.1l-11.93-5.22c-2.98-1.3-5.84-1.28-8.84.06l-11.85 5.36c-3.57 1.62-7.37 2.3-11.08 2.18l-14.34 41.92c-2.18 6.41-11.28 6.24-13.27-.17l-10.32-33.17-30.42 15.93c-5.61 2.92-11.88-2.58-9.81-8.5l18.79-52.72c-3.32-3.29-5.61-7.51-6.52-12.1-24.38 16.19-53.57 31.86-83.03 47.25-2.13 1.11-4.56 1.02-6.55-.06-162.28-85.04-161.91-101.99-158.42-271.53.34-16.24.68-33.96.94-53.09.03-3.46 2.58-6.29 5.87-6.8 57.94-9.35 111.09-37.98 149.7-81.89 2.83-3.2 7.77-3.15 10.54.03 38.18 43.71 92.21 72.65 149.67 81.86 3.49.54 5.95 3.6 5.87 7.03.26 19.05.62 36.68.96 52.87.57 27.81 1.05 51.39.71 71.89l11.42 5.02c3 1.3 5.84 1.28 8.84-.06l11.85-5.36c11.34-5.12 24.94-1.06 31.29 9.71zm26.45 161.23-12.08 2.38c-3.17.62-5.39 2.1-6.97 4.88l-6.32 11.03c-1.98 3.46-4.73 6.26-7.94 8.28l7.29 21.32 6.46-20.72c1.28-4.17 6.04-6.29 10.35-3.86l21.54 11.28zm-113.5 26.31c-2.75-1.93-5.13-4.45-6.92-7.51l-6.46-10.94c-1.59-2.66-3.94-4.22-7.03-4.79l-13.21-2.47-12.1 33.99 23.16-12.02c3.69-1.13 7.6.91 8.76 4.59l6.43 20.69zm-51.62-62.05c.43-3.71.68-6.38-2.41-9.55-2.64-2.72-9.47-9.44-11.4-12.19-19.67 13.8-45.89 27.92-70.19 40.65-2.15 1.11-4.59.99-6.58-.06-126.04-66.08-125.76-79.26-123.07-210.93.28-12.56.54-26.22.74-40.96.03-3.46 2.58-6.29 5.87-6.8 44.33-7.17 84.98-29.06 114.55-62.67 2.83-3.2 7.77-3.12 10.54.06 29.23 33.42 70.55 55.59 114.52 62.62 3.49.54 5.95 3.6 5.87 7.03.2 14.66.48 28.23.74 40.73.62 30.9 1.13 55.13-.2 75.15l4.62-8.05c3.8-6.6 10.46-10.86 17.74-11.88.45-33.14-1.08-78.83-1.62-116.96-56.24-10.32-108.08-38.07-146.95-79.65-38.89 41.58-90.74 69.34-146.98 79.65-.23 17.15-.57 32.85-.85 47.4-3.32 160.58-3.63 177.65 147.83 257.24 29.63-15.57 62.85-33.51 87.23-50.83zm-17.97-35.95c.23-5.44 2.35-10.83 6.44-15.11l8.84-9.3c2.04-2.13 2.92-4.68 2.52-7.6l-1.62-12.5c-1.62-12.47 6.94-23.7 19.3-26.11l6.66-1.3c2.35-21.15 1.79-47.93 1.05-83.93-.23-10.86-.45-22.54-.65-35.29-42.66-8.11-82.01-29.11-111.8-60.43-29.79 31.32-69.17 52.33-111.83 60.43-.17 12.76-.42 24.43-.65 35.29-2.52 122.74-2.78 136.01 112.48 196.64 23.65-12.44 50.3-26.84 69.26-40.79zm151.06-71.54-6.46-10.97c-2.69-4.59-8.65-6.21-13.49-4l-11.85 5.33c-6.52 2.95-13.61 2.98-20.18.11l-11.91-5.22c-4.9-2.13-10.77-.48-13.44 4.2l-6.35 11.03c-3.52 6.15-9.41 10.29-16.41 11.65l-12.81 2.52c-5.1 1.02-8.79 5.53-8.14 10.63l1.64 12.5c.91 7.17-1.28 13.75-6.26 18.99l-8.84 9.3c-3.57 3.74-3.46 9.27.08 12.93l8.93 9.18c5.05 5.19 7.34 11.76 6.52 18.91l-1.47 12.53c-.62 5.27 3.23 9.64 8.25 10.54l12.84 2.38c7.12 1.33 12.87 5.27 16.55 11.48l6.44 10.97c2.72 4.59 8.67 6.18 13.52 4l11.85-5.33c6.49-2.95 13.61-2.98 20.15-.11l11.91 5.22c4.88 2.13 10.77.48 13.46-4.2l6.32-11.03c3.54-6.15 9.41-10.29 16.41-11.65l12.81-2.52c5.05-.99 8.82-5.44 8.14-10.63l-1.62-12.5c-.94-7.17 1.28-13.75 6.26-18.99l8.82-9.3c3.54-3.71 3.52-9.24-.06-12.93l-8.96-9.18c-5.05-5.19-7.34-11.76-6.49-18.91l1.45-12.53c.62-5.16-3.12-9.61-8.22-10.54l-12.84-2.38c-7.11-1.33-12.9-5.27-16.55-11.48z"/></svg>