<?xml version="1.0" encoding="UTF-8"?>
<svg xmlns="http://www.w3.org/2000/svg" id="Icons" viewBox="0 0 60 60" width="512" height="512"><path d="M58,0H2A2,2,0,0,0,0,2V6A2,2,0,0,0,2,8V26a2,2,0,0,0-2,2v4a2,2,0,0,0,2,2V52.184A3,3,0,0,0,0,55v3a2,2,0,0,0,2,2H58a2,2,0,0,0,2-2V55a3,3,0,0,0-2-2.816V34a2,2,0,0,0,2-2V28a2,2,0,0,0-2-2V8a2,2,0,0,0,2-2V2A2,2,0,0,0,58,0Zm0,58H2V55a1,1,0,0,1,1-1H57a1,1,0,0,1,1,1ZM10,39a1,1,0,0,1,1-1h6a1,1,0,0,1,0,2H11A1,1,0,0,1,10,39ZM9,50V44a2,2,0,0,1,2-2h6a2,2,0,0,1,2,2v6a2,2,0,0,1-2,2H11A2,2,0,0,1,9,50ZM26,39a1,1,0,0,1,1-1h6a1,1,0,0,1,0,2H27A1,1,0,0,1,26,39ZM25,50V44a2,2,0,0,1,2-2h6a2,2,0,0,1,2,2v6a2,2,0,0,1-2,2H27A2,2,0,0,1,25,50ZM42,39a1,1,0,0,1,1-1h6a1,1,0,0,1,0,2H43A1,1,0,0,1,42,39ZM41,50V44a2,2,0,0,1,2-2h6a2,2,0,0,1,2,2v6a2,2,0,0,1-2,2H43A2,2,0,0,1,41,50Zm15,2H52.444A3.959,3.959,0,0,0,53,50V44a3.981,3.981,0,0,0-1.619-3.195A2.972,2.972,0,0,0,52,39a3,3,0,0,0-3-3H43a3,3,0,0,0-3,3,2.972,2.972,0,0,0,.619,1.8A3.981,3.981,0,0,0,39,44v6a3.959,3.959,0,0,0,.556,2H36.444A3.959,3.959,0,0,0,37,50V44a3.981,3.981,0,0,0-1.619-3.195A2.972,2.972,0,0,0,36,39a3,3,0,0,0-3-3H27a3,3,0,0,0-3,3,2.972,2.972,0,0,0,.619,1.8A3.981,3.981,0,0,0,23,44v6a3.959,3.959,0,0,0,.556,2H20.444A3.959,3.959,0,0,0,21,50V44a3.981,3.981,0,0,0-1.619-3.195A2.972,2.972,0,0,0,20,39a3,3,0,0,0-3-3H11a3,3,0,0,0-3,3,2.972,2.972,0,0,0,.619,1.8A3.981,3.981,0,0,0,7,44v6a3.959,3.959,0,0,0,.556,2H4V34H56Zm2-20H2V28H58ZM9,25V18.829a1,1,0,0,1,.293-.708l1.414-1.414A1,1,0,0,0,11,16V12h2v4a1,1,0,0,0,.293.707l1.414,1.414a1,1,0,0,1,.293.708V25a1,1,0,0,1-1,1H10A1,1,0,0,1,9,25Zm12,0V18.829a1,1,0,0,1,.293-.708l1.414-1.414A1,1,0,0,0,23,16V12h2v4a1,1,0,0,0,.293.707l1.414,1.414a1,1,0,0,1,.293.708V25a1,1,0,0,1-1,1H22A1,1,0,0,1,21,25Zm12,0V18.829a1,1,0,0,1,.293-.708l1.414-1.414A1,1,0,0,0,35,16V12h2v4a1,1,0,0,0,.293.707l1.414,1.414a1,1,0,0,1,.293.708V25a1,1,0,0,1-1,1H34A1,1,0,0,1,33,25Zm12,0V18.829a1,1,0,0,1,.293-.708l1.414-1.414A1,1,0,0,0,47,16V12h2v4a1,1,0,0,0,.293.707l1.414,1.414a1,1,0,0,1,.293.708V25a1,1,0,0,1-1,1H46A1,1,0,0,1,45,25Zm11,1H52.816A2.966,2.966,0,0,0,53,25V18.829a2.978,2.978,0,0,0-.879-2.122L51,15.586V12a2,2,0,0,0-2-2H47a2,2,0,0,0-2,2v3.586l-1.121,1.121A2.978,2.978,0,0,0,43,18.829V25a2.966,2.966,0,0,0,.184,1H40.816A2.966,2.966,0,0,0,41,25V18.829a2.978,2.978,0,0,0-.879-2.122L39,15.586V12a2,2,0,0,0-2-2H35a2,2,0,0,0-2,2v3.586l-1.121,1.121A2.978,2.978,0,0,0,31,18.829V25a2.966,2.966,0,0,0,.184,1H28.816A2.966,2.966,0,0,0,29,25V18.829a2.978,2.978,0,0,0-.879-2.122L27,15.586V12a2,2,0,0,0-2-2H23a2,2,0,0,0-2,2v3.586l-1.121,1.121A2.978,2.978,0,0,0,19,18.829V25a2.966,2.966,0,0,0,.184,1H16.816A2.966,2.966,0,0,0,17,25V18.829a2.978,2.978,0,0,0-.879-2.122L15,15.586V12a2,2,0,0,0-2-2H11a2,2,0,0,0-2,2v3.586L7.879,16.707A2.978,2.978,0,0,0,7,18.829V25a2.966,2.966,0,0,0,.184,1H4V8H56ZM58,6H2V2H58Z"/></svg>
