<svg id="Layer_1" viewBox="0 0 100 100" xmlns="http://www.w3.org/2000/svg" data-name="Layer 1"><path d="m47.97 51.64c0-.41-.34-.75-.75-.75s-.75.34-.75.75c0 1.29 1.52 2.25 3.53 2.25s3.53-.97 3.53-2.25c0-.41-.34-.75-.75-.75s-.75.34-.75.75c0 .19-.7.75-2.03.75s-2.03-.56-2.03-.75z"/><path d="m56.36 43.41c1.25 0 2.38-.37 3.25-.96l1.13.82c.13.1.29.14.44.14.23 0 .46-.11.61-.31.24-.33.17-.8-.17-1.05l-.92-.67c.11-.17.21-.34.29-.52l1.1.72c.35.23.81.13 1.04-.22s.13-.81-.22-1.04l-2-1.3c-.23-.15-.52-.16-.77-.03-.24.13-.39.38-.39.66 0 1.22-1.55 2.26-3.39 2.26s-3.39-1.03-3.39-2.26c0-.41-.34-.75-.75-.75s-.75.34-.75.75c0 2.07 2.2 3.76 4.89 3.76z"/><path d="m38.62 41.59 1.1-.72c.08.18.18.35.29.52l-.92.67c-.34.24-.41.71-.17 1.05.15.2.38.31.61.31.15 0 .31-.05.44-.14l1.13-.82c.87.59 2 .96 3.25.96 2.7 0 4.89-1.69 4.89-3.76 0-.41-.34-.75-.75-.75s-.75.34-.75.75c0 1.22-1.55 2.26-3.39 2.26s-3.39-1.03-3.39-2.26c0-.27-.15-.53-.39-.66s-.54-.12-.77.03l-2 1.3c-.35.23-.45.69-.22 1.04s.69.44 1.04.22z"/><path d="m82.26 24.16h-9.78c.86-3.39 2.66-11.65 1.79-18.39-.05-.41-.42-.7-.84-.65-.41.05-.7.43-.65.84 1.06 8.22-2.13 19.24-2.16 19.35-.05.19-.03.39.05.56.03.07 3.4 6.67 2.62 14.82-.32 3.4-4.9 10.06-6.67 12.13-.97 1.14-2.19 1.31-2.82.82-.7-.55-.52-1.78.46-3.14l.48-.66c1.16-1.58 2.44-3.36 2.97-5.39.3-.11.61-.32.92-.71 1.18-1.51 1.4-4.73.55-8.21-.39-1.6-.73-2.5-.98-3.16-.36-.95-.47-1.24-.27-2.6.06-.41-.23-.79-.64-.85s-.79.23-.85.64c-.24 1.67-.07 2.2.35 3.34.23.62.55 1.48.92 2.99.85 3.45.45 6.01-.27 6.93-.13.16-.26.26-.35.26-1.04 0-1.91-2.04-2.6-6.05-.16-.93-.73-1.99-1.38-3.22-1.02-1.9-2.17-4.06-2.12-6.28.07-3.08 2.79-3.39 3.09-3.42.4-.03.7-.36.7-.76 0-.1-.2-9.76.02-17.45.01-.41-.31-.76-.73-.77-.42-.02-.76.31-.77.73-.04 1.32-.06 2.69-.08 4.06-2.23-1.69-5.72-3.38-10.42-3-4.53-1.31-10.91-2.74-15.7-.92 0-.05 0-.1 0-.14-.01-.41-.36-.75-.77-.73-.41.01-.74.36-.73.77.22 7.7.02 17.36.02 17.45 0 .4.3.73.69.76.31.03 3.02.34 3.1 3.42.05 2.22-1.1 4.38-2.12 6.29-.66 1.23-1.22 2.28-1.38 3.22-.69 4.01-1.56 6.05-2.6 6.05-.1 0-.23-.09-.35-.26-.72-.92-1.12-3.48-.27-6.93.37-1.51.69-2.36.92-2.99.43-1.14.59-1.67.35-3.34-.06-.41-.44-.69-.85-.64-.41.06-.7.44-.64.85.19 1.36.09 1.65-.27 2.6-.25.66-.58 1.56-.98 3.16-.85 3.48-.64 6.7.55 8.21.3.39.62.59.92.7.53 2.03 1.81 3.81 2.97 5.39l.48.66c.98 1.36 1.16 2.59.46 3.14-.62.49-1.85.32-2.82-.82-1.77-2.08-6.35-8.73-6.67-12.13-.77-8.15 2.59-14.76 2.62-14.82.09-.17.11-.37.05-.56-.03-.11-3.22-11.13-2.16-19.35.05-.41-.24-.79-.65-.84s-.79.24-.84.65c-.87 6.75.93 15 1.79 18.39h-10.19c-2.69 0-4.87 2.19-4.87 4.87v31.91c0 2.69 2.19 4.87 4.87 4.87h24.13c-1.17 1.51-2.83 2.6-4.96 3.18-1.01.28-2.35.41-3.77.54-5.63.54-13.34 1.29-15.67 11.7-2.64 11.77-1.88 12.89-1.63 13.26.12.17.35.34.56.38.04 0 .08.01.12.01h67.67s.08 0 .12-.01c.2-.03.44-.2.56-.38.25-.37 1-1.49-1.63-13.26-2.33-10.41-10.04-11.15-15.67-11.7-1.42-.14-2.76-.27-3.77-.54-2.12-.58-3.79-1.67-4.96-3.18h23.42c2.69 0 4.87-2.19 4.87-4.87v-31.91c0-2.69-2.19-4.87-4.87-4.87zm-22.76 3.33c-.01.57.05 1.13.15 1.68-1.9-1.5-4.06-2.86-6.46-4.07 2.97-.78 5.86-1.27 8.29-1.56-1.04.74-1.93 1.97-1.98 3.95zm-10.18-19.95c-1.33.37-2.72.88-4.2 1.6-2.89 1.42-5.6 3.29-7.91 5.45 0-2.23-.02-4.65-.06-6.98 3.46-1.56 8.14-1 12.17-.06zm-12.18 15.18c.02-1.05.05-3.29.06-6.02 2.41-2.49 5.37-4.64 8.58-6.21 8.9-4.36 14.71-1.08 17.43 1.34-.03 4.11.02 7.96.05 10.01-3.27.3-7.8.96-12.4 2.36-.03 0-.06.01-.09.03-3.48 1.07-6.98 2.57-9.97 4.68.07-.47.12-.94.11-1.42-.07-3.1-2.21-4.39-3.78-4.77zm-.26 26.23c-1.01-1.38-2.14-2.92-2.65-4.56 1.47-.6 2.42-2.78 3.16-7.12.12-.69.66-1.7 1.23-2.76.52-.97 1.1-2.06 1.55-3.23 3.08-2.58 6.96-4.35 10.85-5.56 3.67 1.67 6.81 3.69 9.33 6 .04.03 1.02 1.97 1.46 2.8.57 1.06 1.11 2.07 1.23 2.76.74 4.34 1.69 6.52 3.16 7.12-.51 1.64-1.64 3.18-2.65 4.56l-.49.67c-1.19 1.65-1.33 3.01-1 3.99-3.04 3.63-7.27 5.71-11.7 5.71s-8.87-2.18-11.92-5.97c.22-.95.01-2.22-1.07-3.73l-.49-.67zm-19.14 15.37c-1.86 0-3.37-1.51-3.37-3.37v-31.91c0-1.86 1.51-3.37 3.37-3.37h10.43c-.79 1.71-3.25 7.74-2.55 15.17.38 4 5.35 11 7.02 12.96.96 1.13 2.11 1.6 3.12 1.6.68 0 1.29-.21 1.76-.58.03-.03.06-.06.09-.09 1.77 2.07 3.9 3.66 6.23 4.7-.02 1.86-.37 3.5-1.04 4.89h-25.07zm11.41 29.06 2.38-10.01c.16-.67.75-1.13 1.43-1.13h24.45l-2.28 11.15h-25.98zm27.51 0 2.45-11.97c.14-.68.75-1.18 1.44-1.18h6.73c.69 0 1.28.47 1.44 1.14l2.84 12.01zm6.74-22.94c1.14.31 2.54.45 4.03.59 5.46.53 12.26 1.18 14.35 10.53 1.85 8.28 1.95 10.99 1.88 11.82h-10.55l-2.92-12.35c-.32-1.35-1.51-2.29-2.9-2.29h-6.73c-1.27 0-2.39.82-2.8 2h-24.8c-1.38 0-2.58.94-2.89 2.29l-2.46 10.36h-10.55c-.07-.83.03-3.54 1.88-11.82 2.09-9.35 8.89-10 14.35-10.53 1.49-.14 2.89-.28 4.03-.59 4.9-1.34 7.79-5.13 8.02-10.44 1.61.54 3.3.82 5.02.82s3.41-.3 5.02-.84c.23 5.32 3.12 9.12 8.02 10.46zm22.23-9.5c0 1.86-1.51 3.37-3.37 3.37h-24.36c-.68-1.39-1.03-3.04-1.04-4.91 2.28-1.01 4.35-2.55 6.09-4.54.46.34 1.05.54 1.7.54 1.01 0 2.16-.47 3.12-1.6 1.67-1.96 6.64-8.96 7.02-12.96.7-7.42-1.76-13.45-2.55-15.17h10.02c1.86 0 3.37 1.51 3.37 3.37v31.91z"/></svg>