<svg id="Capa_1" enable-background="new 0 0 512 512" height="512" viewBox="0 0 512 512" width="512" xmlns="http://www.w3.org/2000/svg"><g><path d="m368.519 460.29c-4.142 0-7.5 3.357-7.5 7.5v36.71c0 4.143 3.358 7.5 7.5 7.5s7.5-3.357 7.5-7.5v-36.71c0-4.143-3.358-7.5-7.5-7.5zm-282.999 0c-4.142 0-7.5 3.357-7.5 7.5v36.71c0 4.143 3.358 7.5 7.5 7.5s7.5-3.357 7.5-7.5v-36.71c0-4.143-3.358-7.5-7.5-7.5zm199.065-294.378c-2.547 1.643-6.73 3.618-12.192 3.706-6.097.088-10.727-2.281-12.939-3.707-3.48-2.245-8.123-1.241-10.367 2.24s-1.241 8.123 2.24 10.367c6.121 3.945 13.456 6.103 20.719 6.103 8.91 0 16.457-3.389 20.668-6.104 3.481-2.244 4.483-6.886 2.239-10.367-2.246-3.482-6.887-4.482-10.368-2.238zm52.356 72.088h57.503c53.687 0 97.459-43.192 97.576-96.283.058-26.315-10.286-50.928-29.126-69.304-18.834-18.37-43.723-28.102-70.055-27.377-15.963.434-30.986 4.784-44.139 12.119v-14.475c0-23.533-19.29-42.68-43-42.68h-157.36c-23.71 0-43 19.146-43 42.68v28.644c0 4.143 3.358 7.5 7.5 7.5s7.5-3.357 7.5-7.5v-28.644c0-15.263 12.561-27.68 28-27.68h157.36c15.439 0 28 12.417 28 27.68v24.802c-15.691 13.126-27.179 31.131-32.069 51.662-5.897-3.392-11.45-7.308-16.565-11.727-5.974-5.164-11.413-11.054-16.166-17.502-4.845-6.582-14.202-8.047-20.86-3.262-16.889 12.151-35.265 22.141-54.613 29.689-23.353 9.101-47.937 14.595-73.087 16.349v-26.368c0-4.143-3.358-7.5-7.5-7.5s-7.5 3.357-7.5 7.5v26.788c-17.631-.536-32.378 13.493-32.378 31.201 0 17.669 15.045 32.172 32.839 31.202 3.678 42.733 29.522 79.292 65.93 98.001v11.514c0 5.918-3.813 11.164-9.493 13.055l-93.241 31.091c-29.319 9.785-49.017 36.969-49.017 67.645v87.68c0 4.143 3.358 7.5 7.5 7.5s7.5-3.357 7.5-7.5v-87.68c0-24.212 15.578-45.679 38.763-53.415l87.547-29.192c4.948 6.132 15.005 17.381 30.66 25.152-39.629 14.591-67.704 53.438-66.57 97.988-12.305 2.807-21.518 13.831-21.518 26.974 0 15.259 12.414 27.673 27.673 27.673h190.97c15.259 0 27.673-12.414 27.673-27.673 0-13.143-9.213-24.167-21.518-26.974.835-44.407-26.183-82.624-65.523-97.602 15.773-7.549 26.277-18.607 31.395-24.944l85.764 28.597c23.186 7.737 38.764 29.204 38.764 53.416v87.68c0 4.143 3.358 7.5 7.5 7.5s7.5-3.357 7.5-7.5v-87.68c0-30.677-19.698-57.86-49.018-67.646l-93.243-31.091c-5.676-1.89-9.489-7.136-9.489-13.054v-11.289c23.496-11.865 42.884-31.215 54.631-55.74zm-231.601-57.485c-9.339.673-17.378-6.872-17.378-16.202 0-9.142 8.103-16.977 17.378-16.201zm208.744-42.293c1.689-43.167 36.396-77.022 79.162-78.191 22.259-.608 43.269 7.607 59.175 23.121 15.912 15.52 24.648 36.307 24.599 58.532-.099 44.837-37.142 81.316-82.576 81.316h-71.094l12.217-9.707c2.305-1.832 3.742-4.566 3.942-7.502.2-2.938-.853-5.842-2.889-7.97-15.406-16.105-23.41-37.271-22.536-59.599zm-.424 318.432h-50.42c-4.142 0-7.5 3.357-7.5 7.5s3.358 7.5 7.5 7.5h57.92c7.526-.184 14.018 3.654 14.018 12.673 0 6.988-5.685 12.673-12.673 12.673h-190.97c-6.988 0-12.673-5.685-12.673-12.673 0-8.878 6.587-12.867 14.018-12.673h95.36c4.142 0 7.5-3.357 7.5-7.5s-3.358-7.5-7.5-7.5h-87.86c-1.107-48.53 38.207-88.555 86.64-88.555 48.446.001 87.718 40.087 86.64 88.555zm-102.68-109.414c0-8.845 7.195-16.04 16.04-16.04s16.04 7.195 16.04 16.04c0 2.403-.548 4.758-1.569 6.894-4.729-.677-9.559-1.035-14.471-1.035s-9.743.358-14.471 1.035c-1.021-2.136-1.569-4.49-1.569-6.894zm47.032-1.688c-.88-16.333-14.443-29.352-30.992-29.352-16.224 0-29.571 12.514-30.919 28.394-9.409-5.193-16.261-11.866-20.612-16.81 6.951-5.342 11.241-13.659 11.241-22.754v-5.05c12.492 4.412 25.905 6.842 39.865 6.89.141 0 .281.001.421.001 13.994 0 27.578-2.367 40.294-6.778v4.938c0 9.682 4.863 18.479 12.621 23.744-4.577 5.002-11.939 11.725-21.919 16.777zm-30.996-53.681c-.121 0-.249-.001-.37-.001-58.514-.204-106.135-47.983-106.302-106.572v-37.566c27.021-1.778 53.442-7.637 78.532-17.415 20.524-8.008 40.013-18.603 57.946-31.507 5.416 7.347 11.617 14.061 18.435 19.955 7.293 6.3 15.348 11.712 23.987 16.153-.061.903-.113 1.808-.148 2.717-.97 24.775 7.299 48.346 23.369 66.91l-18.543 14.732c-3.493 2.774-4.853 7.468-3.383 11.68s5.453 7.042 9.914 7.042h9.557c-19.018 33.371-54.559 53.872-92.994 53.872zm-44.382-107.255c9.004-.145 15.89-3.396 20.08-6.099 3.481-2.244 4.483-6.886 2.239-10.367-2.246-3.482-6.888-4.482-10.368-2.238-2.547 1.643-6.73 3.618-12.192 3.706-6.086.088-10.727-2.281-12.939-3.707-3.481-2.245-8.123-1.241-10.367 2.24s-1.241 8.123 2.24 10.367c6.289 4.055 13.844 6.218 21.307 6.098zm81.776 43.876c-.845.632-1.839 1.33-2.945 2.058l-3.969-9.95c-4.575-11.577-17.809-17.168-29.277-12.59-11.423 4.56-17.209 17.863-12.605 29.287l1.115 2.795c-12.67-2.156-22.05-7.834-27.104-11.605-3.319-2.478-8.019-1.795-10.497 1.525-2.478 3.319-1.794 8.019 1.525 10.496 7.099 5.299 20.519 13.091 38.32 15.016 15.539 1.68 32.952 1.031 54.418-15.02 3.317-2.48 3.997-7.181 1.516-10.498-2.479-3.315-7.179-3.992-10.497-1.514zm-31.306 12.168-3.555-8.912c-1.536-3.811.401-8.275 4.222-9.802 3.83-1.53 8.266.337 9.792 4.212l4.438 11.125c-4.364 1.576-9.357 2.826-14.897 3.377zm119.499-48.133 72.677-1.562c11.85-.373 22.064-7.836 26.022-19.012l11.494-32.454c4.567-12.624-5.338-26.359-18.563-26.267h-16.814l2.502-8.435c2.702-9.107-.149-19.06-7.263-25.355-6.94-6.142-18.092-4.735-23.219 2.945l-27.822 41.201h-19.014c-7.995 0-14.5 6.505-14.5 14.5v39.938c0 7.996 6.505 14.501 14.5 14.501zm30.5-59.143 28.768-42.602c.118-.237.65-.281.846-.107 2.766 2.447 3.874 6.316 2.823 9.857l-4.375 14.75c-.901 3.035-.308 6.361 1.585 8.898s4.914 4.052 8.08 4.052h23.403c3.775.219 5.446 2.744 4.423 6.259l-11.494 32.454c-1.879 5.307-6.729 8.85-12.355 9.027l-41.705 1.314v-43.902zm-30 5.205h15v38.938h-15z"/></g></svg>