<svg id="Layer_1" enable-background="new 0 0 511.945 511.945" height="512" viewBox="0 0 511.945 511.945" width="512" xmlns="http://www.w3.org/2000/svg"><g><path d="m504.5 340.445h-39.347v-105.713h39.347c9.915-.337 9.937-14.655 0-15h-46.847c-4.143 0-7.5 3.358-7.5 7.5v16.276h-16.521c9.937-16.055 3.09-37.808-14.081-45.409l-131.684-58.296c-22.672-11.544-49.098-12.483-72.538-2.575l-103.179 43.618h-31.441c1.7-21.273-24.813-34.152-40.354-19.446-14.818-14.012-40.355-3.053-40.355 17.382v9.528c0 10.613 15 9.829 15-1.586v-7.942c0-11.54 17.854-11.54 17.854 0v94.771c0 11.54-17.854 11.54-17.854 0v-44.666c0-12.081-15-12.242-15-.589v45.256c0 20.418 25.533 31.398 40.355 17.381 14.818 14.012 40.354 3.055 40.354-17.381v-5.117h13.117c-9.937 16.055-3.091 37.807 14.081 45.409l131.684 58.296c22.39 11.4 49.395 12.358 72.538 2.575l30.848-13.041c8.932-3.776 3.094-17.589-5.84-13.816-34.64 14.554-53.422 27.181-91.284 10.65l-131.873-58.38c-15.938-7.057-10.746-31.693 6.71-31.693h103.985c-1.393 15.763 11.417 29.783 27.256 29.783h81.452c9.697 0 9.697-15 0-15h-81.452c-6.817 0-12.363-5.542-12.363-12.355s5.546-12.355 12.363-12.355h198.223v57.59h-36.366c-1.003 0-1.996.201-2.92.592l-29.458 12.453c-8.791 3.716-2.798 17.467 5.84 13.816l28.059-11.861h34.846v16.846c0 4.142 3.357 7.5 7.5 7.5h46.845c9.915-.337 9.938-14.656 0-15.001zm-438.791-66.892c0 11.54-17.854 11.54-17.854 0v-94.771c0-11.54 17.854-11.54 17.854 0zm165.146-20.117h-150.146v-57.59c.508-.163 37.007.496 35.882-.592l104.578-44.209c19.411-8.206 41.298-7.401 60.053 2.207.126.065.254.126.384.183l131.873 58.38c15.886 7.033 10.794 31.693-6.659 31.693l-103.984-.704c.985-15.524-11.754-29.079-27.309-29.079h-81.451c-9.697 0-9.697 15 0 15h81.451c7.726 0 13.612 7.295 12.129 14.783h-35.724c-8.471 0-16.054 3.868-21.077 9.928z"/><path d="m260.069 77.865c4.143 0 7.5-3.358 7.5-7.5v-25.097c0-9.697-15-9.697-15 0v25.097c0 4.142 3.358 7.5 7.5 7.5z"/><path d="m160.225 96.947c5.156 8.935 17.632.54 12.99-7.5l-12.548-21.734c-4.847-8.399-17.839-.898-12.99 7.5z"/><path d="m163.423 408.183c-3.59-2.072-8.175-.843-10.245 2.745l-12.549 21.735c-4.642 8.039 7.834 16.435 12.99 7.5l12.549-21.735c2.071-3.587.842-8.173-2.745-10.245z"/><path d="m251.931 434.08c-4.143 0-7.5 3.358-7.5 7.5v25.097c0 9.697 15 9.697 15 0v-25.097c0-4.142-3.358-7.5-7.5-7.5z"/><path d="m351.775 414.998c-4.847-8.399-17.839-.898-12.99 7.5l12.548 21.734c5.156 8.935 17.632.54 12.99-7.5z"/><path d="m348.577 103.761c3.793 1.966 7.208 1.051 10.245-2.745l12.549-21.735c4.849-8.397-8.143-15.9-12.99-7.5l-12.549 21.735c-2.071 3.587-.842 8.174 2.745 10.245z"/></g></svg>