<svg id="Capa_1" enable-background="new 0 0 512.002 512.002" viewBox="0 0 512.002 512.002" xmlns="http://www.w3.org/2000/svg"><g><g><path d="m118.781 312.221h-63.781c-5.523 0-10 4.477-10 10v63.781c0 5.523 4.477 10 10 10h63.781c5.523 0 10-4.477 10-10v-63.781c0-5.523-4.477-10-10-10zm-10 63.78h-43.781v-43.781h43.781z"/><path d="m407.001 261.432v-110.431c0-1.974-.584-3.904-1.68-5.547l-80.001-120c-1.854-2.782-4.977-4.453-8.32-4.453h-307c-5.523 0-10 4.477-10 10v30c0 22.056 17.944 40 40 40h4.649l26.667 40h-61.316c-5.523 0-10 4.477-10 10v280c0 5.523 4.477 10 10 10h292.179c20.75 30.175 55.515 50 94.823 50 63.411 0 115-51.589 115-115 0-60.043-46.254-109.485-105.001-114.569zm0 148.795 16.968-16.486c3.961-3.849 4.052-10.18.204-14.141-3.849-3.96-10.18-4.052-14.141-.204l-3.031 2.945v-43.18c0-5.523-4.477-10-10-10s-10 4.477-10 10v43.18l-3.03-2.944c-3.961-3.849-10.292-3.758-14.141.203s-3.758 10.292.203 14.141l16.968 16.486v24.778c-22.793-4.593-39.997-24.565-39.997-48.436 0-25.777 29.037-73.149 49.997-99.873 20.96 26.724 49.997 74.096 49.997 99.873 0 23.871-17.204 43.843-39.997 48.436zm-80-189.22c17.836-1.37 37.648-2.256 60-2.46v42.886c-22.453 1.943-43.082 10.366-60 23.384zm60-22.462c-22.291.198-42.113 1.058-60 2.392v-39.936h60zm-367.001-137.544v-20h287v20c0 11.028-8.972 20-20 20h-247c-11.028 0-20-8.972-20-20zm48.686 40h218.314c21.089 0 38.419-16.407 39.897-37.126l51.418 77.126h-282.962zm-48.686 320v-157.544c36.804-.326 69.763-2.478 100.49-6.552 5.475-.726 9.325-5.752 8.599-11.228s-5.756-9.326-11.228-8.599c-29.858 3.959-61.957 6.053-97.861 6.377v-82.455h287.001v41.694c-42.257 4.295-73.126 11.231-101.614 17.631-5.389 1.211-8.775 6.561-7.565 11.949 1.045 4.65 5.172 7.81 9.748 7.81.726 0 1.464-.08 2.201-.246 27.38-6.152 57.011-12.809 97.23-17.022v81.67c-15.643 19.646-25 44.507-25 71.513 0 15.961 3.269 31.172 9.171 45h-271.172zm282.001-45c0-44.513 30.774-81.974 72.164-92.225-21.483 29.521-47.161 74.072-47.161 102.793 0 34.916 26.12 63.895 59.997 68.722v15.187c-47.7-5.013-85-45.471-85-94.477zm105 94.477v-15.187c33.877-4.827 59.997-33.806 59.997-68.722 0-28.721-25.677-73.272-47.161-102.793 41.39 10.251 72.164 47.712 72.164 92.226.001 49.006-37.299 89.464-85 94.476z"/><path d="m163.501 229.151h-.007c-5.523 0-9.997 4.477-9.997 10s4.481 10 10.004 10 10-4.477 10-10-4.477-10-10-10z"/></g></g><g/><g/><g/><g/><g/><g/><g/><g/><g/><g/><g/><g/><g/><g/><g/></svg>