<svg id="Layer_1" viewBox="0 0 512 512" xmlns="http://www.w3.org/2000/svg" data-name="Layer 1"><path d="m12.6 329.257 35.26 16.584a22.871 22.871 0 0 0 9.744 2.181 23.113 23.113 0 0 0 16.859-7.328l13.659 9.812c3.664 4.231 5.935 11.708 8.333 19.606 2.254 7.422 4.573 15.044 8.475 21.648l-4.372 7.468a27.831 27.831 0 0 0 31.357 40.922 27.828 27.828 0 0 0 26.905 21.05 28.15 28.15 0 0 0 7.134-.925c.079-.021.157-.047.236-.068a27.737 27.737 0 0 0 26.923 21.036 28.11 28.11 0 0 0 16.918-5.671 27.656 27.656 0 0 0 24.13 14.109 28.158 28.158 0 0 0 17.714-6.291l22.519 13.371a29.826 29.826 0 0 0 15.266 4.206 30.474 30.474 0 0 0 7.557-.958 30.038 30.038 0 0 0 22.661-28.81 30.055 30.055 0 0 0 38.354-33.761 30.034 30.034 0 0 0 27.56-36.281 30.7 30.7 0 0 0 3.9-.728 30.045 30.045 0 0 0 21.708-36.617 30.841 30.841 0 0 0 -1.682-4.848c12.38-3.572 22.767-8.586 31.418-15.15a23.01 23.01 0 0 0 13.26 4.216 22.879 22.879 0 0 0 9.751-2.191l35.253-16.582a8 8 0 1 0 -6.808-14.479l-35.259 16.581a7.024 7.024 0 0 1 -9.311-3.359l-54.591-116.075a7.012 7.012 0 0 1 3.335-9.314l35.261-16.583a8 8 0 0 0 -6.808-14.479l-35.269 16.586a23.025 23.025 0 0 0 -13.175 21c-9.433 3.412-19.356 6.377-29.4 7.33-10.166.991-23.892-.789-38.423-2.672-26.339-3.414-53.574-6.944-71.807 3.8l-10.013 5.893c-16.753-12.1-32.605-10.2-49.3-8.184-10.788 1.3-21.944 2.648-35.2.678-2.624-.391-5.293-.925-8.046-1.608a23.051 23.051 0 0 0 -12.546-26.234l-35.259-16.589a8 8 0 0 0 -6.808 14.479l35.253 16.579a7.013 7.013 0 0 1 3.344 9.314l-54.594 116.079a7.009 7.009 0 0 1 -9.311 3.361l-35.265-16.583a8 8 0 0 0 -6.8 14.479zm106.025 94.275a11.9 11.9 0 0 1 -4.247-16.235l6.758-11.544c.118-.186.231-.374.332-.568l12.922-22.072a11.862 11.862 0 0 1 20.489 11.958l-20.009 34.209a11.909 11.909 0 0 1 -16.249 4.252zm34.3 20.04a11.864 11.864 0 0 1 -4.246-16.209l20.014-34.215a11.856 11.856 0 0 1 20.458 11.99l-20.02 34.2a11.881 11.881 0 0 1 -16.206 4.235zm34.269 20.068a11.9 11.9 0 0 1 -4.247-16.234l20.012-34.184a11.884 11.884 0 0 1 16.244-4.25 11.931 11.931 0 0 1 4.245 16.208l-10.02 17.129-3.21 5.45c-.15.254-.287.513-.428.771l-6.347 10.85a11.924 11.924 0 0 1 -16.255 4.26zm41.088 8.456a11.844 11.844 0 0 1 -5.472-7.267 11.7 11.7 0 0 1 1-8.587l3.4-5.813 10.085-17.117a11.841 11.841 0 0 1 21.715 3.019 11.663 11.663 0 0 1 -1.232 8.931l-13.259 22.551a11.948 11.948 0 0 1 -16.243 4.287zm16.988-240.722c13.5-7.954 39.072-4.641 61.631-1.717 15.459 2 30.059 3.9 42.011 2.732 11.488-1.09 22.427-4.3 32.709-7.993l50.079 106.492c-8.723 6.677-19.865 11.486-33.837 14.6-.085-.051-.166-.107-.251-.157l-47.052-27.931a8.022 8.022 0 0 0 -4.673-1.1c-33.349 2.47-68.566-.8-100.175-41.093a8 8 0 0 0 -9.047-2.573l-19.1 7a8 8 0 0 0 -3.688 2.766l-12.958 17.59c-7.261 9.613-17.165 12.764-26.494 8.426a9.8 9.8 0 0 1 -3.853-14.52l22.1-31.57 37.8-22.245.012-.008zm-65.518-.193c12.718-1.535 22.221-2.678 31.657 1.557l-28.341 16.681a8.016 8.016 0 0 0 -2.5 2.306l-23.08 32.964a25.8 25.8 0 0 0 10.189 38.234c16.174 7.52 34.233 2.3 46.068-13.366l11.582-15.721 11.487-4.209c34.589 41 73.583 45.032 107.729 42.812l44.912 26.65a14.133 14.133 0 0 1 -14.434 24.3l-36.339-21.543a8 8 0 1 0 -8.159 13.763l32.745 19.413c.1.067.2.14.308.2a14.237 14.237 0 0 1 4.936 19.363 14.164 14.164 0 0 1 -19.366 4.943l-36.146-21.45a8 8 0 1 0 -8.168 13.757l30.831 18.305c.035.021.066.046.1.067a14.237 14.237 0 0 1 4.937 19.364 14.163 14.163 0 0 1 -19.366 4.941l-16.147-9.585-.031-.019-14.856-8.82a8 8 0 0 0 -8.167 13.759l14.86 8.82a14.353 14.353 0 0 1 4.931 19.371 14.2 14.2 0 0 1 -19.362 4.962l-21.062-12.5 10.06-17.112a27.812 27.812 0 0 0 -31.37-40.929c-.025-.1-.045-.2-.072-.306a27.778 27.778 0 0 0 -34.227-19.81c-.022-.086-.039-.173-.062-.259a27.777 27.777 0 0 0 -34.2-19.81 27.849 27.849 0 0 0 -51.049-7.241l-5.78 9.867c-1.092-3.047-2.072-6.261-3.035-9.435-2.928-9.641-5.955-19.609-12.5-26.486l-.517-.543-16.448-11.81 45.82-97.416a104.141 104.141 0 0 0 12.16 2.59c15.382 2.287 28.177.743 39.466-.619zm73.223-43.281a8 8 0 0 0 6.05 0c37.033-15.129 76.6-61.127 76.6-144.853a8 8 0 0 0 -7.914-8c-26.7-.288-48.516-7.56-66.688-22.233a8 8 0 0 0 -10.052 0c-18.171 14.67-39.984 21.942-66.686 22.23a8 8 0 0 0 -7.914 8c0 83.725 39.571 129.723 76.604 144.856zm3.025-158.81c17.914 12.874 39.221 20.14 63.507 21.661-2.174 68.597-33.307 107.082-63.507 121.017-30.2-13.935-61.334-52.42-63.508-121.017 24.286-1.521 45.593-8.787 63.508-21.661zm-11.585 92.792-13.549-13.039a8 8 0 0 1 11.094-11.529l7.629 7.342 20.087-22.02a8 8 0 1 1 11.824 10.783l-25.624 28.09a8 8 0 0 1 -5.649 2.6c-.087 0-.174 0-.261 0a8 8 0 0 1 -5.551-2.227z"/></svg>