<svg id="Capa_1" enable-background="new 0 0 512.001 512.001" height="512" viewBox="0 0 512.001 512.001" width="512" xmlns="http://www.w3.org/2000/svg"><g><path d="m256.001 0c-141.492 0-256.001 114.498-256.001 256 0 141.491 114.498 256 256.001 256 141.493 0 256-114.497 256-256 0-141.492-114.497-256-256-256zm0 497c-81.155 0-153.065-40.324-196.758-101.984h18.718c39.014 49.86 97.085 81.237 159.944 86.245 4.152.311 7.743-2.753 8.072-6.881.329-4.129-2.752-7.743-6.881-8.072-54.698-4.357-105.529-30.103-141.684-71.292h317.176c-36.155 41.189-86.986 66.935-141.684 71.292-4.129.329-7.21 3.943-6.881 8.072.313 3.927 3.596 6.904 7.469 6.904.199 0 .401-.008.604-.023 62.858-5.008 120.929-36.385 159.944-86.245h18.717c-43.692 61.66-115.602 101.984-196.756 101.984zm206.567-116.984c-55.219 0-403.037 0-413.136 0-21.148-35.094-33.018-74.848-34.304-116.516h481.745c-1.227 39.733-12.161 79.772-34.305 116.516zm-240.619-140.327c4.467.498 8.893-.063 13.063-1.588l7.281 10.399h-197.161c2.266-64.471 33.606-121.669 81.27-158.88-1.609 2.566-2.834 5.419-3.583 8.496-16.409 67.46 30.181 133.924 99.13 141.573zm147.311-57.899c3.667 1.921 8.202.507 10.124-3.163 12.939-24.698 16.42-53.29 9.799-80.511-.749-3.077-1.976-5.932-3.586-8.498 47.666 37.211 79.006 94.41 81.272 158.882h-197.161l7.281-10.398c4.142 1.514 8.567 2.088 13.063 1.587 25.014-2.774 48.749-13.832 66.832-31.135 2.993-2.863 3.098-7.611.234-10.604-2.865-2.992-7.611-3.097-10.604-.233-15.718 15.039-36.357 24.65-58.117 27.064-.715.079-1.423.089-2.123.06l60.729-86.731c2.376-3.393 1.552-8.069-1.842-10.445s-8.069-1.551-10.445 1.842l-60.729 86.73c-.268-.648-.501-1.316-.671-2.016-14.268-58.673 26.238-116.465 86.209-123.119 6.939-.765 13.43 3.769 15.082 10.56 5.758 23.676 2.735 48.538-8.512 70.005-1.92 3.667-.504 8.201 3.165 10.123zm-11.388-105.597c-53.937 5.984-96.704 48.914-101.871 103.488-5.178-54.686-48.042-97.517-101.872-103.488-3.124-.349-6.201-.178-9.142.444 32.268-20.046 70.312-31.637 111.014-31.637 40.704 0 78.749 11.591 111.019 31.64-2.943-.624-6.023-.796-9.148-.447zm-93.164 153.296-8.708 12.436-8.708-12.436c2.79-3.316 4.885-7.279 5.966-11.724 1.318-5.418 2.223-10.888 2.742-16.368.519 5.479 1.423 10.95 2.741 16.368 1.082 4.444 3.177 8.407 5.967 11.724zm-112.233-138.388c60.016 6.659 100.471 64.491 86.209 123.119-.17.699-.403 1.367-.67 2.016l-60.729-86.73c-2.376-3.394-7.051-4.219-10.445-1.842-3.394 2.376-4.218 7.053-1.842 10.445l60.729 86.729c-.7.03-1.407.021-2.122-.058-60.015-6.659-100.469-64.489-86.209-123.12 1.639-6.748 8.08-11.328 15.079-10.559zm329.388 157.399c-3.972-121.157-103.756-218.5-225.862-218.5s-221.891 97.343-225.863 218.5h-15.01c3.978-129.43 110.495-233.5 240.873-233.5 130.377 0 236.894 104.07 240.872 233.5z"/><path d="m203.064 293.839c4.143 0 7.5-3.357 7.5-7.5s-3.357-7.5-7.5-7.5h-27.719c-4.143 0-7.5 3.357-7.5 7.5v70.838c0 4.143 3.357 7.5 7.5 7.5h27.719c4.143 0 7.5-3.357 7.5-7.5s-3.357-7.5-7.5-7.5h-20.219v-20.419h18.679c4.143 0 7.5-3.357 7.5-7.5s-3.357-7.5-7.5-7.5h-18.679v-20.419z"/><path d="m324.509 283.681c-1.104-2.914-3.896-4.842-7.014-4.842s-5.909 1.928-7.014 4.842l-26.846 70.838c-1.468 3.874.482 8.203 4.355 9.672 3.887 1.469 8.207-.491 9.672-4.355l4.805-12.68h30.055l4.805 12.68c1.47 3.874 5.8 5.818 9.672 4.355 3.873-1.469 5.823-5.798 4.355-9.672zm-16.357 48.475 9.343-24.653 9.343 24.653z"/><path d="m413.911 278.839c-4.143 0-7.5 3.357-7.5 7.5v45.728l-32.689-49.841c-1.818-2.773-5.241-4.021-8.418-3.073-3.177.949-5.354 3.871-5.354 7.187v70.838c0 4.143 3.357 7.5 7.5 7.5s7.5-3.357 7.5-7.5v-45.728l32.689 49.841c1.412 2.153 3.791 3.388 6.271 3.388.714 0 1.437-.103 2.146-.314 3.177-.949 5.354-3.871 5.354-7.187v-70.838c.001-4.143-3.356-7.501-7.499-7.501z"/><path d="m270.209 319.975h-12.326c-4.143 0-7.5 3.357-7.5 7.5s3.357 7.5 7.5 7.5h4.826v2.042c0 6.98-5.68 12.66-12.66 12.66s-12.659-5.68-12.659-12.66v-30.517c0-6.98 5.679-12.66 12.659-12.66 5.708 0 10.733 3.84 12.222 9.339 1.081 3.998 5.198 6.363 9.199 5.279 3.998-1.082 6.361-5.2 5.279-9.199-3.254-12.022-14.233-20.419-26.7-20.419-15.251 0-27.659 12.408-27.659 27.66v30.518c0 15.252 12.408 27.66 27.659 27.66 15.252 0 27.66-12.408 27.66-27.66v-9.542c0-4.143-3.357-7.501-7.5-7.501z"/><path d="m153.726 279.315c-3.878-1.452-8.2.517-9.652 4.396l-19.479 52.062-19.479-52.062c-1.452-3.88-5.775-5.849-9.652-4.396-3.88 1.451-5.848 5.773-4.396 9.652l26.504 70.837c1.097 2.931 3.896 4.872 7.024 4.872 3.129 0 5.929-1.941 7.024-4.872l26.503-70.837c1.45-3.88-.518-8.201-4.397-9.652z"/></g></svg>