<?xml version="1.0" encoding="UTF-8"?>
<svg xmlns="http://www.w3.org/2000/svg" xmlns:xlink="http://www.w3.org/1999/xlink" version="1.1" id="Capa_1" x="0px" y="0px" viewBox="0 0 512 512" style="enable-background:new 0 0 512 512;" xml:space="preserve" width="512" height="512">
<g>
	
		<line style="fill:none;stroke:#000000;stroke-width:15;stroke-linecap:round;stroke-linejoin:round;stroke-miterlimit:10;" x1="17.602" y1="474.195" x2="17.602" y2="148.923"/>
	
		<line style="fill:none;stroke:#000000;stroke-width:15;stroke-linecap:round;stroke-linejoin:round;stroke-miterlimit:10;" x1="494.398" y1="148.923" x2="494.398" y2="474.195"/>
	<path style="fill:none;stroke:#000000;stroke-width:15;stroke-linecap:round;stroke-linejoin:round;stroke-miterlimit:10;" d="&#10;&#9;&#9;M290.053,141.427v13.849c0,18.809-15.243,34.053-34.053,34.053s-34.053-15.243-34.053-34.053v-13.849"/>
	<path style="fill:none;stroke:#000000;stroke-width:15;stroke-linecap:round;stroke-linejoin:round;stroke-miterlimit:10;" d="&#10;&#9;&#9;M358.168,128.72v26.557c0,18.809-15.243,34.053-34.053,34.053s-34.063-15.243-34.063-34.053v-13.849"/>
	<path style="fill:none;stroke:#000000;stroke-width:15;stroke-linecap:round;stroke-linejoin:round;stroke-miterlimit:10;" d="&#10;&#9;&#9;M494.398,128.72v26.553c0,18.809-15.248,34.057-34.057,34.057h0c-18.809,0-34.057-15.248-34.057-34.057V128.72"/>
	
		<line style="fill:none;stroke:#000000;stroke-width:15;stroke-linecap:round;stroke-linejoin:round;stroke-miterlimit:10;" x1="282.264" y1="433.789" x2="47.907" y2="433.789"/>
	
		<polyline style="fill:none;stroke:#000000;stroke-width:15;stroke-linecap:round;stroke-linejoin:round;stroke-miterlimit:10;" points="&#10;&#9;&#9;141.31,219.63 282.26,219.63 282.26,403.48 47.91,403.48 47.91,219.63 106.31,219.63 &#9;"/>
	
		<polyline style="fill:none;stroke:#000000;stroke-width:15;stroke-linecap:round;stroke-linejoin:round;stroke-miterlimit:10;" points="&#10;&#9;&#9;312.569,474.195 312.569,219.634 464.094,219.634 464.094,474.195 &#9;"/>
	
		<rect x="342.874" y="249.939" style="fill:none;stroke:#000000;stroke-width:15;stroke-linecap:round;stroke-linejoin:round;stroke-miterlimit:10;" width="90.915" height="60.61"/>
	
		<line style="fill:none;stroke:#000000;stroke-width:15;stroke-linecap:round;stroke-linejoin:round;stroke-miterlimit:10;" x1="433.789" y1="346.915" x2="373.179" y2="346.915"/>
	
		<rect x="342.874" y="383.28" style="fill:none;stroke:#000000;stroke-width:15;stroke-linecap:round;stroke-linejoin:round;stroke-miterlimit:10;" width="90.915" height="60.61"/>
	<path style="fill:none;stroke:#000000;stroke-width:15;stroke-linecap:round;stroke-linejoin:round;stroke-miterlimit:10;" d="&#10;&#9;&#9;M417.01,98.41h79.41c4.46,0,8.08,3.62,8.08,8.09v14.14c0,4.46-3.62,8.08-8.08,8.08H306.87"/>
	
		<line style="fill:none;stroke:#000000;stroke-width:15;stroke-linecap:round;stroke-linejoin:round;stroke-miterlimit:10;" x1="382.01" y1="98.41" x2="324.55" y2="98.41"/>
	<path style="fill:none;stroke:#000000;stroke-width:15;stroke-linecap:round;stroke-linejoin:round;stroke-miterlimit:10;" d="&#10;&#9;&#9;M187.45,98.415H15.581c-4.465,0-8.081,3.616-8.081,8.081v14.142c0,4.465,3.616,8.081,8.081,8.081h189.547"/>
	
		<circle style="fill:none;stroke:#000000;stroke-width:15;stroke-linecap:round;stroke-linejoin:round;stroke-miterlimit:10;" cx="256" cy="78.786" r="71.286"/>
	<g>
		<path style="fill:none;stroke:#000000;stroke-width:15;stroke-linecap:round;stroke-linejoin:round;stroke-miterlimit:10;" d="&#10;&#9;&#9;&#9;M256,102.574c0.764,1.451,2.215,2.48,3.919,2.663c7.326,0.77,23.152,1.212,32.119-7.762c8.967-8.967,8.531-24.793,7.755-32.113&#10;&#9;&#9;&#9;c-0.246-2.36-2.114-4.222-4.468-4.474c-7.32-0.77-23.146-1.212-32.119,7.762c-4.02,4.02-6.152,9.415-7.206,14.81"/>
		<path style="fill:none;stroke:#000000;stroke-width:15;stroke-linecap:round;stroke-linejoin:round;stroke-miterlimit:10;" d="&#10;&#9;&#9;&#9;M219.962,97.478c8.969,8.969,24.795,8.531,32.118,7.757c2.355-0.249,4.221-2.115,4.47-4.47c0.774-7.323,1.212-23.149-7.757-32.118&#10;&#9;&#9;&#9;s-24.795-8.531-32.118-7.757c-2.355,0.249-4.221,2.115-4.47,4.47C211.431,72.684,210.993,88.509,219.962,97.478z"/>
	</g>
	<path style="fill:none;stroke:#000000;stroke-width:15;stroke-linecap:round;stroke-linejoin:round;stroke-miterlimit:10;" d="&#10;&#9;&#9;M426.285,128.72v26.553c0,18.809-15.248,34.057-34.057,34.057h0c-18.809,0-34.057-15.248-34.057-34.057V128.72"/>
	<path style="fill:none;stroke:#000000;stroke-width:15;stroke-linecap:round;stroke-linejoin:round;stroke-miterlimit:10;" d="&#10;&#9;&#9;M221.947,141.427v13.849c0,18.809-15.253,34.053-34.063,34.053s-34.053-15.243-34.053-34.053V128.72"/>
	<path style="fill:none;stroke:#000000;stroke-width:15;stroke-linecap:round;stroke-linejoin:round;stroke-miterlimit:10;" d="&#10;&#9;&#9;M17.602,128.72v26.553c0,18.809,15.248,34.057,34.057,34.057h0c18.809,0,34.057-15.248,34.057-34.057V128.72"/>
	<path style="fill:none;stroke:#000000;stroke-width:15;stroke-linecap:round;stroke-linejoin:round;stroke-miterlimit:10;" d="&#10;&#9;&#9;M85.715,128.72v26.553c0,18.809,15.248,34.057,34.057,34.057h0c18.809,0,34.057-15.248,34.057-34.057V128.72"/>
	<path style="fill:none;stroke:#000000;stroke-width:15;stroke-linecap:round;stroke-linejoin:round;stroke-miterlimit:10;" d="&#10;&#9;&#9;M387.5,504.5h108.92c4.46,0,8.08-3.62,8.08-8.08v-14.14c0-4.47-3.62-8.08-8.08-8.08H15.58c-4.46,0-8.08,3.61-8.08,8.08v14.14&#10;&#9;&#9;c0,4.46,3.62,8.08,8.08,8.08H352.5"/>
	
		<line style="fill:none;stroke:#000000;stroke-width:15;stroke-linecap:round;stroke-linejoin:round;stroke-miterlimit:10;" x1="342.874" y1="341.864" x2="342.874" y2="351.965"/>
</g>















</svg>
