<svg xmlns="http://www.w3.org/2000/svg" width="655.359" height="655.359" fill-rule="evenodd" clip-rule="evenodd" image-rendering="optimizeQuality" shape-rendering="geometricPrecision" text-rendering="geometricPrecision" viewBox="0 0 173.397 173.397" id="vegetable-shop">
  <path d="M138.789 43.8673c0.9843,0 1.782,0.7983 1.782,1.782 0,4.7614 3.8734,8.6348 8.6346,8.6348 4.7623,-0.0004 8.6347,-3.8734 8.6347,-8.6348l0.0007 -17.2324c-5.2931,2.1255 -9.9255,2.995 -14.1143,2.995 -9.0517,-0.0001 -16.0566,-4.0559 -23.3238,-8.2634 -8.6655,-5.0182 -18.4883,-10.7043 -33.7033,-10.7043 -15.2144,-0.0002 -25.0378,5.6862 -33.7033,10.7043 -10.6301,6.1563 -20.7001,11.9852 -37.4406,5.2687l0.0011 17.2321c0,4.7614 3.8755,8.6348 8.6367,8.6348 4.7618,-0.0004 8.6346,-3.8734 8.6346,-8.6348 0.0002,-0.9838 0.7982,-1.782 1.7822,-1.782 0.9843,0 1.7818,0.7983 1.7818,1.782 0.0002,4.7614 3.8734,8.6348 8.6346,8.6348 4.7655,-0.0004 8.6378,-3.8734 8.6378,-8.6348 0.0007,-0.9838 0.7981,-1.782 1.782,-1.782 0.985,0 1.782,0.7983 1.782,1.782 0.0007,4.7614 3.8734,8.6348 8.6348,8.6348 4.7614,-0.0004 8.6376,-3.8734 8.6376,-8.6348 0.0011,-0.9838 0.7953,-1.782 1.7789,-1.782 0.9871,0 1.782,0.7983 1.782,1.782 0,4.7614 3.8765,8.6348 8.6378,8.6348 4.7619,-0.0004 8.6346,-3.8734 8.6346,-8.6348 0.0005,-0.9838 0.7982,-1.782 1.7822,-1.782 0.9845,0 1.7818,0.7983 1.7818,1.782 0.0005,4.7614 3.8734,8.6348 8.6378,8.6348 4.7626,-0.0004 8.6346,-3.8734 8.6346,-8.6348 0.0011,-0.9838 0.7984,-1.782 1.782,-1.782 0.984,0 1.782,0.7983 1.782,1.782 0.0011,4.7614 3.8734,8.6348 8.6348,8.6348 4.7618,-0.0004 8.6376,-3.8734 8.6376,-8.6348 0,-0.9838 0.7953,-1.782 1.782,-1.782zm10.4177 13.9804c-4.4062,0 -8.2737,-2.3447 -10.4177,-5.8561 -2.1468,3.5114 -6.0142,5.8565 -10.4196,5.8565 -4.4043,-0.0004 -8.2728,-2.3451 -10.4168,-5.8565 -2.1429,3.5114 -6.0111,5.8565 -10.4166,5.8565 -4.405,-0.0004 -8.2758,-2.3451 -10.4196,-5.8565 -2.1437,3.5114 -6.0113,5.8565 -10.4168,5.8565 -4.4056,-0.0004 -8.2726,-2.3451 -10.4198,-5.8565 -2.144,3.5114 -6.0111,5.8565 -10.4165,5.8565 -4.4046,-0.0004 -8.2728,-2.3451 -10.4168,-5.8565 -2.1433,3.5114 -6.0142,5.8565 -10.4198,5.8565 -4.405,-0.0004 -8.2726,-2.3451 -10.4164,-5.8565 -2.144,3.5114 -6.0113,5.8565 -10.4168,5.8565 -6.7281,-0.0004 -12.2018,-5.4729 -12.2018,-12.1988l0.0011 -19.9361c0,-0.6066 0.3083,-1.1725 0.8187,-1.5004 0.5107,-0.3281 1.1541,-0.3744 1.7047,-0.1207 16.5983,7.6076 25.468,2.472 36.6949,-4.028 9.0531,-5.2409 19.3144,-11.1839 35.4885,-11.1839 16.1723,-0.0002 26.433,5.9431 35.4884,11.1839 11.2285,6.4998 20.097,11.6356 36.692,4.028 0.5537,-0.2537 1.1941,-0.2072 1.7045,0.1207 0.5114,0.3279 0.8198,0.8941 0.8198,1.5004l0.0007 19.9361c0,6.7258 -5.4734,12.1988 -12.1983,12.1984z"></path>
  <path d="M38.0201 91.7865l11.4939 0 0-34.7863c-1.4144.56-2.9277.8479-4.4838.8479-2.5579-.0004-4.9903-.7859-7.0103-2.206l.0002 36.1444zm13.2759 3.564l-15.0579 0c-.9829 0-1.7822-.7983-1.7822-1.782l.0002-42.3257c0-.7921.5226-1.488 1.2835-1.7108.7616-.2229 1.5747.0867 2.0019.7518 1.5968 2.5057 4.3217 4.0003 7.2887 4.0003 1.8915-.0004 3.6878-.6002 5.1913-1.7357.5427-.4056 1.2625-.4733 1.8686-.1701.6064.2999.987.9188.987 1.5933l.0009 39.5969c0 .9836-.7991 1.782-1.782 1.782zM123.887 91.7865l11.4896 0 0-36.1444c-2.0172 1.4201-4.4488 2.206-7.0073 2.206-1.5587-.0004-3.0724-.2878-4.4829-.8478l.0006 34.7862zm13.2716 3.564l-15.0536 0c-.987 0-1.7826-.7983-1.7826-1.782l.0006-39.597c0-.6745.3799-1.2932.9862-1.5932.6037-.3032 1.3272-.2352 1.8657.1701 1.5071 1.1353 3.3038 1.7357 5.1944 1.7357 2.9671-.0004 5.6893-1.4944 7.2888-4.0003.4245-.6653 1.2406-.9745 2.0016-.7518.7588.2226 1.2808.9189 1.2808 1.7109l.0001 42.3256c0 .9836-.795 1.782-1.782 1.782z"></path>
  <path d="M18.2539 155.471l43.4583 0c-8.864,-7.3567 -14.0153,-18.2002 -14.0153,-29.9564 0.0003,-11.7595 5.1511,-22.5999 14.015,-29.96l-43.458 -0.0002 0 59.9166zm49.0022 3.564l-50.783 0c-0.9869,0 -1.7832,-0.7949 -1.7832,-1.7817l0 -63.4809c0,-0.9867 0.7953,-1.7818 1.782,-1.7818l50.7842 -0.0002c0.7949,0 1.497,0.5293 1.7136,1.2965 0.2171,0.767 -0.1021,1.5871 -0.783,2.0048 -10.598,6.506 -16.9258,17.8045 -16.9258,30.2229 0.0003,12.4148 6.3268,23.7134 16.9258,30.2227 0.6814,0.4145 0.9994,1.2345 0.783,2.0016 -0.2158,0.767 -0.9191,1.2964 -1.7136,1.2961zm44.4302 -3.564l43.4599 0 0 -59.9166 -43.4599 0c8.8626,7.357 14.0166,18.2007 14.0166,29.9602 0,11.756 -5.1543,22.5997 -14.0179,29.9567l0.0013 -0.0003zm45.2419 3.564l-50.7828 0c-0.7991,0 -1.4986,-0.5288 -1.715,-1.2961 -0.2161,-0.7675 0.1019,-1.587 0.7826,-2.0016 10.5998,-6.5093 16.9259,-17.8076 16.9259,-30.2227 0,-12.4186 -6.3268,-23.7168 -16.9259,-30.2229 -0.6798,-0.4177 -0.9994,-1.2376 -0.7826,-2.0048 0.217,-0.7675 0.9156,-1.2963 1.7136,-1.2963l50.7842 -0.0002c0.9843,0 1.7816,0.7954 1.7816,1.7822l0.0004 63.4804c0,0.987 -0.7984,1.7823 -1.782,1.782z"></path>
  <path d="M27.2043 146.317l26.4988 0c-3.9387,-6.2154 -6.0062,-13.34 -6.0062,-20.8021 0.0003,-7.6417 2.1533,-14.9058 6.2619,-21.2108l-26.7545 -0.0002 0 42.0131zm29.9109 3.564l-31.6929 0c-0.983,0 -1.782,-0.798 -1.782,-1.7818l0 -45.5773c0,-0.984 0.798,-1.7818 1.7816,-1.7818l32.0051 -0.0002c0.6837,0 1.3053,0.39 1.6024,1.0025 0.3008,0.6156 0.2198,1.3428 -0.201,1.8811 -4.9499,6.2923 -7.5675,13.863 -7.5675,21.8914 0.0003,7.8453 2.5123,15.2799 7.2704,21.5015 0.4118,0.5382 0.4827,1.2653 0.1826,1.8717 -0.2998,0.6093 -0.9219,0.9931 -1.5987,0.9929zm62.5831 -3.564l26.4947 0 0 -42.0131 -26.751 0c4.1056,6.3052 6.2609,13.5693 6.2609,21.211 0,7.4618 -2.0669,14.5869 -6.0046,20.8021zm28.2767 3.564l-31.6918 0c-0.6779,0 -1.2972,-0.3835 -1.5972,-0.9929 -0.2988,-0.6064 -0.229,-1.3335 0.1824,-1.8717 4.756,-6.2188 7.2705,-13.6558 7.2705,-21.5015 0,-8.0284 -2.6174,-15.5988 -7.5674,-21.8914 -0.4239,-0.5384 -0.5011,-1.2654 -0.2043,-1.8811 0.3011,-0.6127 0.922,-1.0023 1.6027,-1.0023l32.0051 -0.0002c0.9843,0 1.7817,0.7983 1.7817,1.7822l0.0003 45.5769c0,0.9839 -0.7984,1.7822 -1.782,1.782z"></path>
  <path d="M86.7006 90.0755c-19.5406,0 -35.4397,15.8957 -35.4397,35.4391 0.0003,19.5397 15.8987,35.4388 35.439,35.4388 19.5402,-0.0003 35.439,-15.8988 35.439,-35.4388 0,-19.5435 -15.8988,-35.439 -35.4383,-35.4391zm0 74.4416c-21.5078,0 -39.0037,-17.498 -39.0037,-39.0025 0.0003,-21.5079 17.4953,-39.003 39.003,-39.003 21.5059,-0.0001 39.003,17.4951 39.003,39.003 0,21.5044 -17.4984,39.0028 -39.0023,39.0025z"></path>
  <path d="M86.6881 111.339c-3.5361,0.0248 -6.0456,0.8418 -7.4316,2.4289 -1.3239,1.5097 -1.7851,3.926 -1.3707,7.1775 0.1331,1.0394 0.2722,2.2523 0.4269,3.5857 0.6293,5.4417 1.4881,12.8948 3.0071,18.9523 2.1788,8.6871 4.4859,9.6277 5.3801,9.6277 0.8917,-0.0001 3.202,-0.9405 5.38,-9.6277 1.5191,-6.0607 2.379,-13.5135 3.0071,-18.9554 0.1547,-1.3334 0.2942,-2.543 0.4271,-3.5826 0.4125,-3.2517 -0.0496,-5.6677 -1.3705,-7.1775 -1.3856,-1.5872 -3.8952,-2.4038 -7.4555,-2.4289zm0.0125 45.336c-7.6319,0 -9.9996,-15.0108 -11.9301,-31.7356 -0.1512,-1.3181 -0.2908,-2.5183 -0.4208,-3.5454 -0.5462,-4.3066 0.2012,-7.6601 2.2245,-9.9742 2.0853,-2.3855 5.4883,-3.6105 10.1134,-3.6445 4.6504,0.0339 8.053,1.2592 10.1383,3.6445 2.0244,2.3138 2.7686,5.6678 2.2243,9.9742 -0.1331,1.0268 -0.2692,2.2244 -0.4208,3.5424 -1.9328,16.7245 -4.2971,31.7387 -11.9288,31.7386z"></path>
  <path d="M83.0657 136.658l-5.2193 0c-.9872 0-1.7827-.798-1.7827-1.7818.0007-.9841.7952-1.782 1.782-1.782l5.22-.0002c.9829 0 1.781.7983 1.781 1.7822.001.9838-.7981 1.782-1.781 1.7818zM83.2411 111.645c-.7016 0-1.3674-.4175-1.6489-1.1074-.701-1.7202-1.0736-3.7681-1.0736-5.9214.0008-5.8504 2.6576-10.262 6.1813-10.262 3.5243-.0002 6.1814 4.4117 6.1814 10.262.0007 2.153-.3713 4.2013-1.0736 5.9214-.3736.9093-1.4109 1.349-2.3233.9746-.9127-.3716-1.3491-1.4107-.9776-2.3235.523-1.278.8105-2.9018.8105-4.5725.0007-4.155-1.6954-6.7011-2.6174-6.7011-.9208-.0002-2.6173 2.5462-2.6173 6.7011.0007 1.6706.2877 3.2949.8076 4.5725.3751.9096-.0621 1.9523-.9745 2.3235-.2193.0896-.4487.133-.6746.1328z"></path>
  <path d="M78.7345 113.582c-.4984 0-.9941-.2071-1.3466-.6124-1.3862-1.5935-2.472-3.8672-3.0536-6.398-.5685-2.4812-.5939-4.9592-.0742-6.9763.6251-2.4257 1.9767-3.9909 3.802-4.4117 2.2875-.5263 4.7088.9343 6.4783 3.9074.5022.8444.2259 1.9398-.6216 2.441-.8447.504-1.9398.2258-2.4411-.6187-.971-1.6339-2.0698-2.3761-2.6172-2.2554-.4392.1019-.8879.8167-1.148 1.8284-.3771 1.4539-.3404 3.3814.096 5.2872.4458 1.9426 1.2747 3.7156 2.2678 4.8603.6477.7423.5693 1.8655-.1733 2.5121-.336.2938-.7549.4362-1.1685.4361zM94.6668 113.582c-.4148 0-.8326-.1422-1.1701-.4361-.7415-.6467-.8196-1.7696-.1761-2.5121.9966-1.1448 1.8224-2.9175 2.2707-4.8603.4371-1.9058.4735-3.8332.0959-5.2872-.259-1.012-.7114-1.7263-1.1476-1.8284-.5439-.1272-1.6459.6218-2.6174 2.2554-.5035.8442-1.5966 1.1229-2.4441.6187-.8436-.5012-1.123-1.5964-.6188-2.441 1.7701-2.9733 4.1891-4.4333 6.4784-3.9074 1.8253.4204 3.1741 1.9862 3.8023 4.4117.5204 2.0171.4918 4.4952-.0773 6.9763-.5813 2.5339-1.6647 4.8047-3.0505 6.398-.3515.405-.8478.6125-1.3454.6124zM89.8373 118.182l-6.4124 0c-.9843 0-1.7834-.7982-1.7834-1.782.0014-.9839.7984-1.782 1.782-1.782l6.4138 0c.9843 0 1.7817.7982 1.7817 1.782.0003.9836-.7981 1.782-1.7817 1.782zM92.2041 123.485l-6.4124 0c-.9843 0-1.7834-.7979-1.7834-1.7818.0014-.9841.7984-1.782 1.7823-1.782l6.4135-.0002c.9841 0 1.7816.7984 1.7816 1.7822.0004.9838-.7982 1.782-1.7816 1.7818zM87.0654 127.9l-6.4138 0c-.9829 0-1.7818-.7981-1.7818-1.782.0012-.987.798-1.782 1.7818-1.782l6.4138 0c.9843 0 1.7816.7952 1.7816 1.782.0004.9836-.7982 1.782-1.7816 1.782zM90.3968 133.094l-4.2754 0c-.9857 0-1.782-.795-1.782-1.7818 0-.9841.7953-1.7789 1.782-1.7789l4.2754-.0001c.9843 0 1.7824.7951 1.7824 1.779.001.9868-.7984 1.782-1.7824 1.7818zM88.5996 141.88l-4.5845 0c-.9843 0-1.7793-.7979-1.7793-1.7816.0001-.9871.7948-1.782 1.7788-1.782l4.585-.0004c.9843 0 1.782.7954 1.782 1.7824 0 .9836-.7983 1.782-1.782 1.7816zM88.015 147.458l-2.8305 0c-.9843 0-1.7824-.7979-1.7824-1.7818.0004-.984.7981-1.782 1.7817-1.782l2.8312-.0002c.9843 0 1.7816.7984 1.7816 1.7822.0004.9838-.798 1.782-1.7816 1.7818z"></path>
  <rect width="173.397" height="173.397" fill="none"></rect>
</svg>
