<svg id="Capa_1" enable-background="new 0 0 512 512" height="512" viewBox="0 0 512 512" width="512" xmlns="http://www.w3.org/2000/svg"><g><g><path d="m479.385 293.544c-4.214-5.019-8.762-9.709-13.589-14.055 7.925-11.794 12.568-25.97 12.568-41.216 0-11.91-2.911-23.771-8.418-34.3-1.919-3.67-6.452-5.089-10.122-3.17-3.67 1.92-5.089 6.452-3.17 10.122 4.453 8.512 6.71 17.713 6.71 27.348 0 11.68-3.408 22.576-9.278 31.754-3.646-2.637-7.409-5.1-11.282-7.37 4.483-7.06 7.091-15.42 7.091-24.385 0-25.171-20.478-45.649-45.649-45.649-7.418 0-14.422 1.789-20.619 4.945v-14.698c6.423-2.399 13.369-3.717 20.619-3.717 11.085 0 21.901 3.098 31.277 8.958 3.512 2.196 8.139 1.128 10.335-2.385 2.195-3.512 1.128-8.14-2.385-10.335-11.763-7.353-25.328-11.239-39.228-11.239-7.156 0-14.069 1.041-20.619 2.946v-58.099c13.468-.102 24.394-11.085 24.394-24.577 0-13.549-11.019-24.573-24.567-24.581l10.848-37.311c1.148-3.951.39-8.104-2.08-11.394-2.47-3.291-6.247-5.178-10.361-5.178h-92.219c-4.137 0-7.926 1.904-10.395 5.223s-3.203 7.495-2.014 11.457l11.167 37.203h-29.442c-4.733 0-9.037 2.605-11.232 6.8-2.194 4.194-1.881 9.215.818 13.105l10.351 14.911c6.235 8.984 16.487 14.347 27.423 14.347h3.367v118.651c0 8.933-6.331 16.533-15.054 18.072-23.991 4.233-46.454 14.841-65.106 30.466-4.54-32.115-14.302-60.595-28.278-81.383-1.969-2.93-5.256-4.679-8.793-4.679s-6.824 1.749-8.792 4.678c-19.804 29.458-31.163 74.349-31.163 123.162 0 7.371.272 14.673.797 21.86-3.701-4.138-7.549-8.214-11.54-12.205-2.6-2.6-5.271-5.171-8.166-7.86-3.034-2.818-7.78-2.644-10.6.391-2.819 3.035-2.644 7.781.391 10.6 2.759 2.563 5.3 5.008 7.769 7.477 13.616 13.616 25.487 28.173 35.132 42.825-1.492 1.065-2.938 2.214-4.343 3.429-4.711-2.445-9.756-4.411-15.054-5.834l-53.593-53.593c-2.929-2.929-7.678-2.929-10.606 0-2.929 2.929-2.929 7.678 0 10.606l40.443 40.443c-7.217.338-14.152 1.662-20.65 3.823-2.229-2.09-4.437-4.226-6.62-6.409-29.742-29.742-51.527-64.609-59.4-94.689 18.853 4.948 40.049 15.506 60.467 30.197 3.362 2.42 8.05 1.655 10.468-1.708 2.419-3.362 1.655-8.049-1.708-10.468-24.95-17.952-50.211-29.807-73.052-34.283-3.467-.68-7.025.409-9.525 2.91-2.501 2.5-3.588 6.061-2.91 9.525 3.289 16.781 10.833 35.468 21.819 54.04 11.385 19.247 25.931 37.78 43.235 55.083.853.853 1.718 1.688 2.579 2.527-19.417 11.626-32.274 31.65-32.274 54.373 0 35.845 31.972 65.008 71.271 65.008 17.099 0 32.79-5.541 45.082-14.732 13.151 9.755 28.55 14.693 43.539 14.693 12.913 0 25.513-3.683 36.111-11.094 15.583 7.14 32.896 11.134 51.128 11.134h106.128c67.924 0 123.184-55.26 123.184-123.184 0-32.544-11.583-64.263-32.615-89.312zm-75.139-85.92c16.9 0 30.649 13.749 30.649 30.649 0 6.492-2.035 12.513-5.493 17.472-9.864-4.432-20.247-7.721-30.941-9.737-8.595-1.621-14.833-9.203-14.833-18.03v-12.348c5.447-4.968 12.682-8.006 20.618-8.006zm-111.855-186.664h86.747l-11.305 38.883h-63.771zm-21.173 65.145-7.818-11.262h120.04c5.283 0 9.582 4.298 9.582 9.582s-4.298 9.582-9.582 9.582h-97.122c-6.022-.001-11.667-2.954-15.1-7.902zm-98.763 122.907c15.705 26.837 24.955 66.896 24.955 108.96 0 18.222-1.703 35.934-4.886 52.344-4.197-.588-8.405-.785-12.569-.605v-87.823c0-4.142-3.358-7.5-7.5-7.5s-7.5 3.358-7.5 7.5v90.237c-1.845.525-3.663 1.133-5.452 1.827-2.728-4.199-5.628-8.384-8.681-12.541-2.175-13.842-3.323-28.469-3.323-43.439 0-42.064 9.25-82.122 24.956-108.96zm-121.898 232.02c0-27.575 25.243-50.008 56.271-50.008 8.884 0 17.29 1.844 24.769 5.116-16.796 24.773-13.491 60.135 8.974 84.881-9.408 6.286-21.093 10.018-33.743 10.018-31.028.001-56.271-22.433-56.271-50.007zm103.247 32.148c-21.94-21.94-23.927-55.653-4.429-75.151 8.718-8.718 20.52-13.432 33.478-13.432.925 0 1.857.024 2.793.072 14.341.741 28.149 7.058 38.88 17.789 21.94 21.94 23.927 55.653 4.429 75.151-19.499 19.499-53.211 17.511-75.151-4.429zm235.012 17.86h-106.128c-13.777 0-26.954-2.6-39.083-7.317 2.193-2.688 4.131-5.526 5.796-8.492 10.399 3.759 21.608 5.81 33.287 5.81h106.128c49.507 0 91.398-37.025 97.442-86.124.506-4.111-2.417-7.854-6.527-8.36-4.116-.506-7.854 2.417-8.36 6.527-5.12 41.592-40.611 72.957-82.555 72.957h-106.128c-9.683 0-18.976-1.682-27.623-4.744 6.278-23.115-.528-50.042-19.932-69.445-8.279-8.279-17.932-14.248-28.071-17.906 2.453-12.388 4.081-25.444 4.843-38.852 3.171-5.733 6.908-11.185 11.206-16.247 14.936-17.589 35.452-29.507 57.83-33.611l110.777.208c22.109 4.33 42.341 16.322 57.034 33.822 10.012 11.925 17.167 26.251 20.689 41.43.936 4.035 4.961 6.546 9.001 5.61 4.035-.936 6.546-4.966 5.61-9.001-4.054-17.47-12.289-33.958-23.813-47.685-17.062-20.321-40.647-34.188-66.411-39.045-.454-.085-.914-.129-1.375-.13l-112.161-.21c-.427.019-.882.038-1.317.114-25.775 4.548-49.425 18.083-66.712 38.129-.142-4.666-.391-9.286-.739-13.854 17.973-17.761 40.939-29.752 65.713-34.124 15.905-2.806 27.448-16.618 27.448-32.843v-118.651h63.942v118.971c0 16.033 11.378 29.815 27.054 32.771 28.026 5.284 53.674 20.357 72.216 42.442 18.768 22.352 29.103 50.644 29.103 79.666 0 59.653-48.531 108.184-108.184 108.184z"/><path d="m69.248 426.699c-4.142 0-7.5 3.358-7.5 7.5v13.666c0 4.142 3.358 7.5 7.5 7.5s7.5-3.358 7.5-7.5v-13.666c0-4.142-3.357-7.5-7.5-7.5z"/><path d="m162.121 401.112-9.663 9.663c-2.929 2.929-2.929 7.677 0 10.606 1.464 1.465 3.384 2.197 5.303 2.197s3.839-.732 5.303-2.197l9.663-9.663c2.929-2.929 2.929-7.677 0-10.606-2.928-2.929-7.677-2.929-10.606 0z"/></g></g></svg>