<?xml version="1.0" encoding="iso-8859-1"?>
<!-- Generator: Adobe Illustrator 19.0.0, SVG Export Plug-In . SVG Version: 6.00 Build 0)  -->
<svg version="1.1" id="Capa_1" xmlns="http://www.w3.org/2000/svg" xmlns:xlink="http://www.w3.org/1999/xlink" x="0px" y="0px"
	 viewBox="0 0 512 512" style="enable-background:new 0 0 512 512;" xml:space="preserve">
<g>
	<g>
		<g>
			<path d="M341.219,206.851c14.266,24.688,40.032,39.439,68.221,39.439c1.918,0,3.851-0.069,5.788-0.207
				c3.586-0.256,7.186-0.763,10.697-1.508c4.052-0.86,6.64-4.841,5.781-8.893c-0.86-4.052-4.844-6.643-8.892-5.781
				c-2.84,0.602-5.752,1.012-8.653,1.22c-24.641,1.761-47.613-10.419-59.956-31.777c-8.533-14.768-10.801-31.972-6.383-48.443
				c4.417-16.473,14.992-30.241,29.775-38.768c30.522-17.606,69.689-7.121,87.309,23.371c8.533,14.767,10.801,31.972,6.383,48.443
				c-4.417,16.473-14.992,30.241-29.775,38.768c-3.588,2.07-4.819,6.656-2.75,10.244c2.069,3.588,6.653,4.819,10.243,2.75
				c18.255-10.53,31.312-27.532,36.769-47.876c5.456-20.345,2.656-41.595-7.885-59.835c-21.755-37.648-70.109-50.592-107.787-28.859
				c-18.255,10.53-31.312,27.532-36.769,47.876C327.88,167.359,330.68,188.609,341.219,206.851z"/>
			<path d="M232.423,115.106c4.02,1.004,8.089-1.437,9.095-5.455l2.84-11.349h23.285l2.84,11.349
				c0.853,3.407,3.909,5.681,7.269,5.681c0.602,0,1.216-0.073,1.826-0.226c4.019-1.006,6.461-5.078,5.455-9.097l-12.745-50.938
				c-1.873-7.482-8.571-12.708-16.287-12.708c-7.717,0-14.414,5.226-16.287,12.709l-12.745,50.938
				C225.964,110.028,228.406,114.101,232.423,115.106z M254.263,58.713c0.199-0.795,0.914-1.351,1.737-1.351
				s1.538,0.556,1.737,1.351l6.152,24.589h-15.778L254.263,58.713z"/>
			<path d="M256,157.693c43.51,0,78.909-35.37,78.909-78.846S299.51,0,256,0s-78.909,35.371-78.909,78.847
				S212.49,157.693,256,157.693z M256,15c35.241,0,63.911,28.642,63.911,63.847s-28.67,63.847-63.911,63.847
				c-35.241,0-63.911-28.642-63.911-63.847S220.76,15,256,15z"/>
			<path d="M401.642,128.584h-23.039c-4.142,0-7.499,3.358-7.499,7.5v57.968c0,4.142,3.357,7.5,7.499,7.5h27.756
				c12.824,0,23.258-10.434,23.258-23.26c0-7.827-3.885-14.763-9.829-18.981c1.642-2.967,2.577-6.377,2.577-10.002
				C422.365,137.881,413.068,128.584,401.642,128.584z M386.102,143.584h15.54c3.156,0,5.724,2.568,5.724,5.724
				s-2.568,5.724-5.724,5.724h-15.54V143.584z M406.359,186.552h-20.257v-16.52h20.257c4.554,0,8.259,3.705,8.259,8.26
				S410.914,186.552,406.359,186.552z"/>
			<path d="M201.815,267.968c2.759-3.09,2.49-7.831-0.6-10.59l-14.732-13.155c-1.483-1.325-3.445-2.007-5.42-1.893
				c-1.987,0.113-3.847,1.011-5.171,2.496l-12.571,14.099c-2.757,3.091-2.485,7.833,0.606,10.589
				c3.092,2.758,7.831,2.485,10.588-0.606l0.792-0.888c2.228,15.103,8.688,29.299,18.903,41.146
				c14.219,16.492,34.015,26.464,55.741,28.08c2.012,0.149,4.016,0.223,6.013,0.223c29.436,0,57.006-16.039,71.418-42.02
				c2.009-3.622,0.702-8.187-2.92-10.197c-3.624-2.009-8.187-0.702-10.196,2.92C302.501,309.38,280,322.47,255.971,322.469
				c-1.629,0-3.268-0.061-4.909-0.183c-17.733-1.318-33.889-9.457-45.495-22.916c-7.857-9.113-12.991-19.928-15.077-31.46
				l0.734,0.656C194.316,271.327,199.057,271.057,201.815,267.968z"/>
			<path d="M448.01,198.762v-7.246c0-4.142-3.357-7.5-7.499-7.5c-4.142,0-7.499,3.358-7.499,7.5v7.246c0,4.142,3.357,7.5,7.499,7.5
				C444.653,206.262,448.01,202.904,448.01,198.762z"/>
			<path d="M329.687,273.435c1.961,0,3.845-0.769,5.249-2.143l13.494-13.221c2.958-2.899,3.007-7.647,0.108-10.606
				c-2.898-2.959-7.647-3.007-10.605-0.109l-0.726,0.712c-1.587-16.646-8.261-32.365-19.407-45.292
				c-14.219-16.492-34.015-26.464-55.742-28.08c-33.492-2.486-65.608,16.24-79.894,46.612c-1.764,3.748-0.154,8.216,3.593,9.979
				c3.75,1.764,8.215,0.153,9.978-3.594c11.659-24.785,37.872-40.077,65.211-38.038c17.733,1.319,33.889,9.457,45.495,22.917
				c8.615,9.993,13.957,22.031,15.595,34.818l-0.8-0.817c-2.895-2.96-7.644-3.013-10.604-0.116
				c-2.961,2.897-3.012,7.646-0.115,10.606l13.811,14.116c1.391,1.422,3.291,2.233,5.281,2.254
				C329.635,273.435,329.661,273.435,329.687,273.435z"/>
			<path d="M411.075,336.463c1.642-2.967,2.577-6.377,2.577-10.002c0-11.427-9.296-20.724-20.722-20.724h-23.04
				c-4.142,0-7.499,3.358-7.499,7.5v57.968c0,4.142,3.357,7.5,7.499,7.5h27.756c12.824,0,23.258-10.434,23.258-23.26
				C420.904,347.618,417.018,340.682,411.075,336.463z M377.39,320.738h15.54c3.156,0,5.723,2.568,5.723,5.724
				s-2.567,5.724-5.723,5.724h-15.54V320.738z M397.646,363.706H377.39v-16.52h20.257c4.554,0,8.259,3.705,8.259,8.26
				C405.906,360,402.201,363.706,397.646,363.706z"/>
			<path d="M248.748,411.669h14.504c3.863,0,7.006,3.137,7.006,6.992c0,4.142,3.357,7.5,7.499,7.5c4.142,0,7.499-3.358,7.499-7.5
				c0-12.126-9.871-21.992-22.005-21.992h-14.504c-12.133,0-22.004,9.866-22.004,21.992v28.983c0,12.126,9.871,21.992,22.004,21.992
				h14.504c12.134,0,22.005-9.866,22.005-21.992c0-4.142-3.357-7.5-7.499-7.5c-4.142,0-7.499,3.358-7.499,7.5
				c0,3.855-3.143,6.992-7.006,6.992h-14.504c-3.863,0-7.005-3.137-7.005-6.992v-28.983
				C241.743,414.806,244.885,411.669,248.748,411.669z"/>
			<path d="M430.826,361.169c-4.142,0-7.499,3.358-7.499,7.5v7.246c0,4.142,3.357,7.5,7.499,7.5c4.142,0,7.499-3.358,7.499-7.5
				v-7.246C438.325,364.527,434.968,361.169,430.826,361.169z"/>
			<path d="M485.778,324.168c-5.457-20.344-18.514-37.346-36.769-47.875c-37.678-21.736-86.032-8.79-107.787,28.858
				c-10.541,18.24-13.342,39.49-7.885,59.835c5.457,20.343,18.514,37.346,36.769,47.876c12.395,7.149,25.938,10.545,39.318,10.545
				c27.289,0,53.871-14.142,68.469-39.404C488.434,365.763,491.234,344.513,485.778,324.168z M464.907,376.497
				c-17.62,30.493-56.787,40.978-87.309,23.371c-14.782-8.527-25.357-22.295-29.775-38.768c-4.418-16.471-2.15-33.675,6.383-48.443
				c11.825-20.463,33.351-31.914,55.458-31.914c10.834,0,21.812,2.752,31.851,8.543c14.782,8.527,25.357,22.295,29.775,38.768
				C475.708,344.525,473.44,361.729,464.907,376.497z"/>
			<path d="M449.224,361.169c-4.142,0-7.499,3.358-7.499,7.5v7.246c0,4.142,3.357,7.5,7.499,7.5c4.142,0,7.499-3.358,7.499-7.5
				v-7.246C456.722,364.527,453.365,361.169,449.224,361.169z"/>
			<path d="M62.992,235.708c12.395,7.15,25.939,10.547,39.318,10.546c27.289-0.002,53.871-14.142,68.469-39.404
				c10.541-18.24,13.341-39.49,7.885-59.835c-5.456-20.344-18.514-37.346-36.769-47.876c-28.553-16.469-64.734-13.357-90.034,7.743
				c-3.18,2.653-3.609,7.382-0.956,10.563c2.652,3.182,7.381,3.61,10.562,0.957c20.494-17.092,49.805-19.61,72.934-6.269
				c14.783,8.527,25.358,22.295,29.775,38.768c4.418,16.471,2.15,33.675-6.383,48.443c-17.62,30.492-56.787,40.977-87.309,23.371
				c-14.783-8.527-25.358-22.295-29.775-38.768c-4.418-16.471-2.15-33.676,6.383-48.443c2.073-3.586,0.846-8.174-2.74-10.247
				s-8.174-0.845-10.245,2.741c-10.541,18.24-13.341,39.49-7.885,59.835C31.68,208.176,44.737,225.178,62.992,235.708z"/>
			<path d="M284.662,359.671c-3.858-1.503-8.206,0.405-9.71,4.265c-1.504,3.859,0.405,8.208,4.265,9.711
				c24.72,9.634,40.693,32.991,40.693,59.505c0,35.205-28.67,63.847-63.911,63.847s-63.911-28.642-63.911-63.847
				c0-35.205,28.67-63.847,63.911-63.847c4.142,0,7.499-3.358,7.499-7.5c0-4.142-3.357-7.5-7.499-7.5
				c-43.51,0-78.909,35.371-78.909,78.847c0,43.476,35.4,78.848,78.91,78.848s78.909-35.371,78.909-78.847
				c0-16.19-4.876-31.748-14.101-44.992C311.8,375.228,299.302,365.376,284.662,359.671z"/>
			<path d="M120.576,145.939c4.142,0,7.499-3.358,7.499-7.5c0-4.142-3.357-7.5-7.499-7.5H84.313c-4.142,0-7.499,3.358-7.499,7.5
				v57.968c0,4.142,3.357,7.5,7.499,7.5h36.262c4.142,0,7.499-3.358,7.499-7.5c0-4.142-3.357-7.5-7.499-7.5H91.813v-16.52h20.241
				c4.142,0,7.499-3.358,7.499-7.5c0-4.142-3.357-7.5-7.499-7.5H91.813v-11.448H120.576z"/>
			<path d="M95.221,308.093H80.688c-4.142,0-7.499,3.358-7.499,7.5v57.968c0,4.142,3.357,7.5,7.499,7.5h14.533
				c20.115,0,36.48-16.367,36.48-36.484C131.701,324.459,115.336,308.093,95.221,308.093z M95.221,366.061h-7.034v-42.968h7.034
				c11.844,0,21.481,9.638,21.481,21.484S107.065,366.061,95.221,366.061z"/>
			<path d="M170.781,305.149c-21.754-37.647-70.109-50.593-107.787-28.858c-18.255,10.53-31.312,27.532-36.769,47.876
				c-5.456,20.345-2.656,41.595,7.885,59.835c14.599,25.264,41.178,39.404,68.469,39.404c13.376,0,26.925-3.397,39.318-10.545
				c18.255-10.53,31.313-27.532,36.769-47.876C184.122,344.641,181.321,323.391,170.781,305.149z M164.178,361.099
				c-4.417,16.473-14.992,30.241-29.775,38.768c-30.523,17.606-69.689,7.121-87.309-23.371
				c-8.533-14.767-10.801-31.972-6.383-48.443c4.417-16.473,14.992-30.241,29.775-38.768c10.041-5.792,21.014-8.543,31.851-8.543
				c22.106,0,43.634,11.453,55.458,31.914C166.328,327.424,168.596,344.628,164.178,361.099z"/>
		</g>
	</g>
</g>
<g>
</g>
<g>
</g>
<g>
</g>
<g>
</g>
<g>
</g>
<g>
</g>
<g>
</g>
<g>
</g>
<g>
</g>
<g>
</g>
<g>
</g>
<g>
</g>
<g>
</g>
<g>
</g>
<g>
</g>
</svg>
