<svg id="Layer_1" enable-background="new 0 0 512 512" viewBox="0 0 512 512" xmlns="http://www.w3.org/2000/svg"><path d="m271.877 43.944 14.104 11.625-4.578 17.693c-.72 2.785.335 5.726 2.663 7.417 2.326 1.69 5.449 1.786 7.876.24l15.413-9.822 15.413 9.822c1.15.733 2.457 1.097 3.761 1.097 1.447 0 2.891-.448 4.115-1.337 2.327-1.69 3.383-4.632 2.663-7.417l-4.578-17.693 14.104-11.625c2.219-1.83 3.094-4.83 2.205-7.565s-3.36-4.649-6.231-4.824l-18.242-1.114-6.697-17.005c-1.054-2.676-3.637-4.435-6.513-4.435s-5.459 1.759-6.513 4.435l-6.697 17.005-18.242 1.114c-2.871.175-5.342 2.088-6.231 4.824-.889 2.735-.014 5.736 2.205 7.565zm27.573.2c2.716-.166 5.09-1.89 6.087-4.422l1.818-4.616 1.818 4.616c.997 2.532 3.371 4.256 6.087 4.422l4.952.302-3.829 3.156c-2.1 1.731-3.006 4.521-2.325 7.155l1.243 4.802-4.184-2.666c-1.147-.731-2.455-1.097-3.762-1.097s-2.614.366-3.762 1.097l-4.184 2.666 1.243-4.802c.682-2.634-.225-5.424-2.325-7.155l-3.829-3.156zm-55.881 198.256h127.572c3.866 0 7-3.134 7-7v-51.92c0-3.866-3.134-7-7-7h-127.572c-3.866 0-7 3.134-7 7v51.92c0 3.865 3.134 7 7 7zm120.572-14h-49.786v-37.92h49.786zm-113.572-37.921h49.786v37.92h-49.786zm245.431-49.846h-93.263v-49.167c0-3.866-3.134-7-7-7h-176.765c-3.866 0-7 3.134-7 7v49.167h-93.262c-3.866 0-7 3.134-7 7v48.98c-24.181 7.503-41.792 30.078-41.792 56.691 0 32.726 26.625 59.35 59.351 59.35 13.237 0 25.473-4.359 35.355-11.712v42.014l-35.356 47.174-37.488-50.013c-1.914-2.554-5.314-3.491-8.266-2.274-45.265 18.637-74.514 62.302-74.514 111.242 0 11.47 6.057 27.68 34.915 39.768 18.49 7.744 44.059 12.668 71.996 13.863 4.429.189 8.862.283 13.278.283 26.851 0 53.038-3.457 73.428-9.807 25.617-7.978 41.22-20.025 45.625-35.082 13.947-1.426 24.864-13.241 24.864-27.559v-1.329h41.273c8.852 0 16.053-7.201 16.053-16.053 0-5.276-2.57-9.951-6.51-12.879h119.165c3.866 0 7-3.134 7-7v-10.217h45.913c3.866 0 7-3.134 7-7v-228.44c0-3.866-3.135-7-7-7zm-107.263-42.167v160.238h-162.765v-160.238zm-263.027 56.167h86.262v104.071h-23.611c.161-1.78.257-3.579.257-5.401 0-9.089-2.061-17.705-5.729-25.413h12.788c3.866 0 7-3.134 7-7v-51.92c0-3.866-3.134-7-7-7h-53.672c-3.866 0-7 3.134-7 7v25.273c-1.889-.182-3.802-.282-5.737-.282-1.196 0-2.38.046-3.558.116zm23.295 42.714v-21.377h39.672v37.92h-15.091c-6.604-7.416-15.034-13.166-24.581-16.543zm-19.737 101.306c-25.006 0-45.351-20.344-45.351-45.35 0-25.002 20.344-45.343 45.351-45.343s45.35 20.341 45.35 45.343c0 25.006-20.344 45.35-45.35 45.35zm-106.268 150.432c0-24.005 7.976-46.563 21.902-64.709 6.494 17.616 17.023 55.617 4.037 91.443-16.388-6.986-25.939-16.278-25.939-26.734zm93.509 39.643c-20.925-.895-39.441-3.809-54.37-8.225 16.676-45.937-.48-93.16-6.778-107.847 8.238-7.949 17.831-14.641 28.552-19.693l39.753 53.037c1.322 1.764 3.397 2.802 5.601 2.802s4.279-1.038 5.602-2.802l39.75-53.036c3.641 1.721 7.173 3.676 10.602 5.804-8.605 10.791-14.26 24.021-15.708 38.464-7.98.924-14.198 7.713-14.198 15.937 0 8.852 7.201 16.054 16.053 16.054h18.312c-1.185 18.461 1.051 35.629 6.691 51.213-21.255 6.348-49.383 9.598-79.862 8.292zm247.632-102.437h-49.786v-87.439h49.786zm-63.786-27.74c-1.628-2.026-3.353-3.969-5.181-5.812.005-.106.016-.21.016-.317v-20.859c0-3.866-3.134-7-7-7s-7 3.134-7 7v10.101c-6.189-3.789-12.97-6.695-20.168-8.533.068-.64.114-1.282.114-1.93 0-7.319-4.338-13.628-10.568-16.539v-15.812h49.786v59.701zm-57.482-31.612c2.278 0 4.128 1.799 4.242 4.049-1.405-.081-2.818-.132-4.242-.132s-2.837.051-4.242.132c.114-2.249 1.964-4.049 4.242-4.049zm0 17.917c30.32 0 55.547 22.87 59.257 52.26h-118.513c3.71-29.39 28.937-52.26 59.256-52.26zm-33.318 130.866c-5.081-14.025-7.034-29.616-5.843-46.5h8.928v1.329c0 12.894 8.855 23.759 20.804 26.833-3.676 7.041-12.07 13.291-23.889 18.338zm49.551-45.17c0 7.556-6.147 13.703-13.703 13.703h-5.06c-7.556 0-13.703-6.147-13.703-13.703v-1.329h32.465v1.329zm55.273-15.33h-143.012c-1.113 0-2.053-.94-2.053-2.054 0-1.112.94-2.053 2.053-2.053h143.012c1.113 0 2.053.94 2.053 2.054 0 1.113-.94 2.053-2.053 2.053zm121.708-28.931h-57.946v-94.439c0-3.866-3.134-7-7-7h-127.572c-3.866 0-7 3.134-7 7v22.233c-6.968 2.575-11.959 9.266-11.959 17.118 0 .647.046 1.29.115 1.93-11.05 2.821-21.112 8.164-29.557 15.359-5.274-3.46-10.808-6.508-16.545-9.093v-53.176c2.787-4.165 5.051-8.703 6.722-13.518h250.742zm52.913-17.217h-38.913v-103.37c0-3.866-3.134-7-7-7h-40.35v-104.071h86.263zm-69.968-141.184h53.672c3.866 0 7-3.134 7-7v-51.92c0-3.866-3.134-7-7-7h-53.672c-3.866 0-7 3.134-7 7v51.92c0 3.866 3.135 7 7 7zm7-51.92h39.672v37.92h-39.672zm-182.463-21.337h127.572c3.866 0 7-3.134 7-7v-29.926c0-3.866-3.134-7-7-7h-127.572c-3.866 0-7 3.134-7 7v29.926c0 3.865 3.134 7 7 7zm7-29.927h113.572v15.926h-113.572zm-121.301 292.272c-6.571 0-11.917 5.346-11.917 11.917s5.346 11.918 11.917 11.918 11.917-5.347 11.917-11.918-5.346-11.917-11.917-11.917zm0 14c-1.148 0-2.083-.935-2.083-2.083 0-1.147.935-2.082 2.083-2.082s2.083.935 2.083 2.082c-.001 1.149-.935 2.083-2.083 2.083zm0 24.151c-6.571 0-11.917 5.347-11.917 11.918s5.346 11.917 11.917 11.917 11.917-5.346 11.917-11.917-5.346-11.918-11.917-11.918zm0 14c-1.148 0-2.083-.934-2.083-2.082s.935-2.083 2.083-2.083 2.083.935 2.083 2.083-.935 2.082-2.083 2.082zm-15.024-113.788c2.085 0 4.166-.598 5.978-1.783l9.045-5.917 9.046 5.917c3.359 2.197 7.639 2.377 11.167.469 3.523-1.905 5.711-5.583 5.711-9.598v-17.564c0-4.014-2.188-7.691-5.71-9.597-3.528-1.909-7.807-1.729-11.168.467l-9.046 5.917-9.047-5.918c-3.36-2.197-7.639-2.375-11.167-.467-3.522 1.906-5.71 5.583-5.71 9.598v17.564c0 4.015 2.188 7.692 5.711 9.598 1.625.878 3.409 1.314 5.19 1.314zm26.949-22.761v6.132l-4.688-3.066zm-23.85 0 4.687 3.066-4.687 3.065zm202.176 19.843v-20.859c0-3.866 3.134-7 7-7s7 3.134 7 7v20.859c0 3.866-3.134 7-7 7s-7-3.134-7-7z"/></svg>