<svg id="OBJECT" viewBox="0 0 512 512" xmlns="http://www.w3.org/2000/svg"><path d="m489.5 50h-27.5v-27.5c0-12.41-10.09-22.5-22.5-22.5h-417c-12.41 0-22.5 10.09-22.5 22.5v417c0 12.41 10.09 22.5 22.5 22.5h27.5v27.5c0 12.41 10.09 22.5 22.5 22.5h417c12.41 0 22.5-10.09 22.5-22.5v-417c0-12.41-10.09-22.5-22.5-22.5zm0 15c4.14 0 7.5 3.36 7.5 7.5v37.5h-35v-45zm-467-50h417c4.14 0 7.5 3.36 7.5 7.5v37.5h-432v-37.5c0-4.14 3.36-7.5 7.5-7.5zm-7.5 424.5v-364.5h432v364.5c0 4.14-3.36 7.5-7.5 7.5h-417c-4.14 0-7.5-3.36-7.5-7.5zm474.5 57.5h-417c-4.14 0-7.5-3.36-7.5-7.5v-27.5h374.5c12.41 0 22.5-10.09 22.5-22.5v-314.5h35v364.5c0 4.14-3.36 7.5-7.5 7.5z"/><path d="m399.5 330h-70c-12.41 0-22.5 10.09-22.5 22.5v47c0 12.41 10.09 22.5 22.5 22.5h70c12.41 0 22.5-10.09 22.5-22.5v-47c0-12.41-10.09-22.5-22.5-22.5zm7.5 69.5c0 4.14-3.36 7.5-7.5 7.5h-70c-4.14 0-7.5-3.36-7.5-7.5v-47c0-4.14 3.36-7.5 7.5-7.5h70c4.14 0 7.5 3.36 7.5 7.5z"/><path d="m37.5 45h10c4.14 0 7.5-3.36 7.5-7.5s-3.36-7.5-7.5-7.5h-10c-4.14 0-7.5 3.36-7.5 7.5s3.36 7.5 7.5 7.5z"/><path d="m77.5 45h10c4.14 0 7.5-3.36 7.5-7.5s-3.36-7.5-7.5-7.5h-10c-4.14 0-7.5 3.36-7.5 7.5s3.36 7.5 7.5 7.5z"/><path d="m117.5 45h10c4.14 0 7.5-3.36 7.5-7.5s-3.36-7.5-7.5-7.5h-10c-4.14 0-7.5 3.36-7.5 7.5s3.36 7.5 7.5 7.5z"/><path d="m266 330h-70c-12.41 0-22.5 10.09-22.5 22.5v47c0 12.41 10.09 22.5 22.5 22.5h70c12.41 0 22.5-10.09 22.5-22.5v-47c0-12.41-10.09-22.5-22.5-22.5zm7.5 69.5c0 4.14-3.36 7.5-7.5 7.5h-70c-4.14 0-7.5-3.36-7.5-7.5v-47c0-4.14 3.36-7.5 7.5-7.5h70c4.14 0 7.5 3.36 7.5 7.5z"/><path d="m132.5 330h-70c-12.41 0-22.5 10.09-22.5 22.5v47c0 12.41 10.09 22.5 22.5 22.5h70c12.41 0 22.5-10.09 22.5-22.5v-47c0-12.41-10.09-22.5-22.5-22.5zm7.5 69.5c0 4.14-3.36 7.5-7.5 7.5h-70c-4.14 0-7.5-3.36-7.5-7.5v-47c0-4.14 3.36-7.5 7.5-7.5h70c4.14 0 7.5 3.36 7.5 7.5z"/><path d="m411 295c4.14 0 7.5-3.36 7.5-7.5s-3.36-7.5-7.5-7.5h-100c-4.14 0-7.5 3.36-7.5 7.5s3.36 7.5 7.5 7.5z"/><path d="m311 265h100c4.14 0 7.5-3.36 7.5-7.5s-3.36-7.5-7.5-7.5h-100c-4.14 0-7.5 3.36-7.5 7.5s3.36 7.5 7.5 7.5z"/><path d="m399.5 170h-77c-12.41 0-22.5 10.09-22.5 22.5v20c0 12.41 10.09 22.5 22.5 22.5h77c12.41 0 22.5-10.09 22.5-22.5v-20c0-12.41-10.09-22.5-22.5-22.5zm7.5 42.5c0 4.14-3.36 7.5-7.5 7.5h-77c-4.14 0-7.5-3.36-7.5-7.5v-20c0-4.14 3.36-7.5 7.5-7.5h77c4.14 0 7.5 3.36 7.5 7.5z"/><path d="m231.45 250h-137.9c-9.65 0-17.5 7.85-17.5 17.5v20c0 9.65 7.85 17.5 17.5 17.5h137.9c9.65 0 17.5-7.85 17.5-17.5v-20c0-9.65-7.85-17.5-17.5-17.5zm2.5 37.5c0 1.38-1.12 2.5-2.5 2.5h-137.9c-1.38 0-2.5-1.12-2.5-2.5v-20c0-1.38 1.12-2.5 2.5-2.5h137.9c1.38 0 2.5 1.12 2.5 2.5z"/><path d="m74.41 221.63c1.91 7.87 8.9 13.37 17.01 13.37h142.16c8.1 0 15.1-5.5 17.01-13.38l19.2-79.16c.69-2.83-.33-5.8-2.6-7.62s-5.39-2.16-8-.88l-49.5 24.38-41.17-55.33c-1.42-1.9-3.65-3.02-6.02-3.02s-4.6 1.12-6.02 3.02l-41.17 55.33-49.5-24.38c-2.61-1.29-5.73-.95-8 .88-2.27 1.82-3.29 4.79-2.6 7.62l19.2 79.16zm39.88-47.06c3.25 1.6 7.17.65 9.33-2.25l38.88-52.25 38.88 52.25c2.16 2.9 6.08 3.85 9.33 2.25l40.72-20.05-15.42 63.58c-.27 1.12-1.27 1.91-2.43 1.91h-142.16c-1.16 0-2.16-.79-2.43-1.91l-15.42-63.58z"/><path d="m213.5 358.5c-4.14 0-7.5 3.36-7.5 7.5v20c0 4.14 3.36 7.5 7.5 7.5s7.5-3.36 7.5-7.5v-20c0-4.14-3.36-7.5-7.5-7.5z"/><path d="m248.5 358.5c-4.14 0-7.5 3.36-7.5 7.5v20c0 4.14 3.36 7.5 7.5 7.5s7.5-3.36 7.5-7.5v-20c0-4.14-3.36-7.5-7.5-7.5z"/><path d="m80 358.5c-4.14 0-7.5 3.36-7.5 7.5v20c0 4.14 3.36 7.5 7.5 7.5s7.5-3.36 7.5-7.5v-20c0-4.14-3.36-7.5-7.5-7.5z"/><path d="m115 358.5c-4.14 0-7.5 3.36-7.5 7.5v20c0 4.14 3.36 7.5 7.5 7.5s7.5-3.36 7.5-7.5v-20c0-4.14-3.36-7.5-7.5-7.5z"/><path d="m347 358.5c-4.14 0-7.5 3.36-7.5 7.5v20c0 4.14 3.36 7.5 7.5 7.5s7.5-3.36 7.5-7.5v-20c0-4.14-3.36-7.5-7.5-7.5z"/><path d="m382 358.5c-4.14 0-7.5 3.36-7.5 7.5v20c0 4.14 3.36 7.5 7.5 7.5s7.5-3.36 7.5-7.5v-20c0-4.14-3.36-7.5-7.5-7.5z"/></svg>