<svg height="512" viewBox="0 0 512 512" width="512" xmlns="http://www.w3.org/2000/svg"><g id="Weight_Loss" data-name="Weight Loss"><path d="m314.037 77.269h-255.33a51.2 51.2 0 0 0 -51.141 51.147v251.7a51.2 51.2 0 0 0 51.141 51.148h255.33a51.207 51.207 0 0 0 51.15-51.148v-251.7a51.206 51.206 0 0 0 -51.15-51.147zm36.15 302.849a36.19 36.19 0 0 1 -36.15 36.148h-255.33a36.186 36.186 0 0 1 -36.141-36.148v-251.7a36.185 36.185 0 0 1 36.141-36.149h255.33a36.189 36.189 0 0 1 36.15 36.147z"/><path d="m304.307 106.227h-235.861a29.743 29.743 0 0 0 -29.71 29.709v72.856a29.743 29.743 0 0 0 29.71 29.708h235.861a29.738 29.738 0 0 0 29.7-29.709v-72.855a29.738 29.738 0 0 0 -29.7-29.709zm-132.994 117.273-23.435-25.768a6.081 6.081 0 0 1 .4-8.567 6.075 6.075 0 0 1 8.568.407l30.854 33.928zm147.694-14.709a14.722 14.722 0 0 1 -14.7 14.709h-96.333l-40.026-44.017a21.063 21.063 0 1 0 -31.171 28.337l14.261 15.68h-82.592a14.727 14.727 0 0 1 -14.71-14.709v-72.855a14.726 14.726 0 0 1 14.71-14.709h235.861a14.721 14.721 0 0 1 14.7 14.709z"/><path d="m167.617 348.835a117.018 117.018 0 0 1 -29.1-59.342l-4.1-23.9a19.3 19.3 0 0 0 -28.69-13.44l-10.747 6.217a52.857 52.857 0 0 0 -10.206 83.83l12.877 12.4a37.492 37.492 0 0 1 8.861 13.182 46.432 46.432 0 0 0 42.889 29c1.365 0 2.74-.061 4.116-.187l5.241-.477a23.958 23.958 0 0 0 15.489-40.038zm-2.687 26.659a8.885 8.885 0 0 1 -7.529 5.68l-5.245.477a31.3 31.3 0 0 1 -31.714-19.442 52.434 52.434 0 0 0 -12.383-18.421l-12.879-12.4a37.855 37.855 0 0 1 7.315-60.04l10.74-6.213a4.3 4.3 0 0 1 6.4 2.984v.008l4.1 23.9a131.989 131.989 0 0 0 32.82 66.937l6.629 7.239a8.909 8.909 0 0 1 1.746 9.291z"/><path d="m277.768 258.367-10.753-6.215a19.306 19.306 0 0 0 -28.688 13.427v.013l-1.373 8.01c-.869 5.07-1.8 10.505-2.728 15.89a116.928 116.928 0 0 1 -29.089 59.344l-6.624 7.234a23.95 23.95 0 0 0 15.487 40.043l5.224.476q2.067.189 4.117.187a46.415 46.415 0 0 0 42.889-29 37.495 37.495 0 0 1 8.87-13.176l2.129-2.05c3.093-2.978 6.78-6.527 10.742-10.349a52.847 52.847 0 0 0 -10.2-83.829zm-.209 73.029c-3.961 3.823-7.644 7.368-10.734 10.342l-2.134 2.053a52.4 52.4 0 0 0 -12.39 18.421 31.275 31.275 0 0 1 -31.711 19.439l-5.232-.476a8.95 8.95 0 0 1 -5.79-14.969l6.629-7.24a131.884 131.884 0 0 0 32.81-66.933c.929-5.383 1.86-10.824 2.729-15.9l1.371-8a4.329 4.329 0 0 1 2.427-3.179 4.282 4.282 0 0 1 3.973.177l10.755 6.216a37.845 37.845 0 0 1 7.3 60.042z"/><path d="m185.927 133.836a7.5 7.5 0 0 0 -7.5 7.5v3.427a7.5 7.5 0 0 0 15 0v-3.427a7.5 7.5 0 0 0 -7.5-7.5z"/><path d="m234.167 146.852a7.5 7.5 0 0 0 -10.25 2.728l-1.72 2.968a7.5 7.5 0 1 0 12.979 7.521l1.72-2.967a7.5 7.5 0 0 0 -2.729-10.25z"/><path d="m259.169 179.479-2.971 1.713a7.5 7.5 0 1 0 7.5 12.993l2.971-1.714a7.5 7.5 0 0 0 -7.5-12.992z"/><path d="m115.5 180.908-2.971-1.714a7.5 7.5 0 0 0 -7.5 12.993l2.971 1.713a7.5 7.5 0 0 0 7.5-12.992z"/><path d="m147.9 149.416a7.5 7.5 0 0 0 -12.979 7.52l1.721 2.969a7.5 7.5 0 1 0 12.978-7.519z"/><path d="m483.432 248.6a22.958 22.958 0 0 0 -14.475 5.082v-100.414a23.14 23.14 0 0 0 -46.28 0v99.183a23.139 23.139 0 0 0 -30.833 34.417l38.231 38.232a23.132 23.132 0 0 0 32.714 0l37-37a23.134 23.134 0 0 0 -16.357-39.5zm5.752 28.887-37 37a8.13 8.13 0 0 1 -11.5 0l-38.229-38.224a8.14 8.14 0 0 1 11.511-11.511l10.91 10.917a7.5 7.5 0 0 0 12.805-5.3v-117.1a8.14 8.14 0 0 1 16.28 0v118.331a7.5 7.5 0 0 0 12.8 5.3l10.922-10.919a8.136 8.136 0 0 1 11.5 11.509z"/></g></svg>