<?xml version="1.0" encoding="UTF-8"?>
<svg xmlns="http://www.w3.org/2000/svg" viewBox="0 0 512 512" width="512" height="512"><g id="OUTLINE"><path d="M87.07812,403.11475A223.33055,223.33055,0,0,1,35.31738,294.63037l-15.76367,2.73926A240.33364,240.33364,0,0,0,181.51953,484.21631l4.96094-15.21094A224.20283,224.20283,0,0,1,87.07812,403.11475Z"/><path d="M132.419,69.144l-8.8379-13.33691A240.402,240.402,0,0,0,37.4502,156.686L52.0127,163.314A224.42823,224.42823,0,0,1,132.419,69.144Z"/><path d="M325.51953,469.00537l4.96094,15.21094A239.478,239.478,0,0,0,466.22656,371.86768l-14.00586-7.73536A223.53524,223.53524,0,0,1,325.51953,469.00537Z"/><path d="M471.36914,194.20264,486.75,189.79736A240.369,240.369,0,0,0,388.41992,55.80713L379.58008,69.144A224.35847,224.35847,0,0,1,471.36914,194.20264Z"/><path d="M392,400a24.0275,24.0275,0,0,0-24-24H280v-4.68652l4.2832-4.28369A39.734,39.734,0,0,0,296,338.74512V320a40,40,0,0,0-80,0v18.74512a39.73513,39.73513,0,0,0,11.71582,28.28418L232,371.31348V376H144a24,24,0,0,0,0,48h56v72h16V416a8.00008,8.00008,0,0,0-8-8H144a8,8,0,0,1,0-16h96a8.00008,8.00008,0,0,0,8-8V368a8.00121,8.00121,0,0,0-2.34277-5.65674l-6.62793-6.62793A23.83889,23.83889,0,0,1,232,338.74512V320a24,24,0,0,1,48,0v18.74512a23.83777,23.83777,0,0,1-7.03027,16.9707l-6.627,6.62744A8.00121,8.00121,0,0,0,264,368v16a8.00008,8.00008,0,0,0,8,8h96a8,8,0,0,1,0,16H304a8.00008,8.00008,0,0,0-8,8v80h16V424h56A24.0275,24.0275,0,0,0,392,400Z"/><path d="M472,208H440a24.02718,24.02718,0,0,0-24,24v16H352V232a24.02718,24.02718,0,0,0-24-24H296a24.02718,24.02718,0,0,0-24,24v32h16V232a8.00917,8.00917,0,0,1,8-8h32a8.00917,8.00917,0,0,1,8,8v96a8.00917,8.00917,0,0,1-8,8H312v16h16a24.02718,24.02718,0,0,0,24-24V312h64v16a24.02718,24.02718,0,0,0,24,24h32a24.02718,24.02718,0,0,0,24-24V232A24.02718,24.02718,0,0,0,472,208ZM352,296V264h64v32Zm128,32a8.00917,8.00917,0,0,1-8,8H440a8.00917,8.00917,0,0,1-8-8V232a8.00917,8.00917,0,0,1,8-8h32a8.00917,8.00917,0,0,1,8,8Z"/><path d="M250.34277,200.56836a8.00063,8.00063,0,0,0,11.31446,0L323.314,138.91162H368v-16H339.314l6.34327-6.34326a58.91187,58.91187,0,0,0-83.31446-83.31348L256,39.59766l-6.34277-6.34278a58.91187,58.91187,0,1,0-83.31446,83.31348l6.34327,6.34326H136v16h52.686ZM256,183.59766l-45.2085-45.20838a7.98037,7.98037,0,0,0,4.36377-3.9L232,100.80029l16.84473,33.689A7.99869,7.99869,0,0,0,256,138.91162h44.686Zm-78.34277-78.34278a42.91151,42.91151,0,0,1,60.68554-60.68652l12,12a8.00122,8.00122,0,0,0,11.31446,0l12-12a42.9115,42.9115,0,1,1,60.68554,60.68652L316.686,122.91162h-55.7417L239.15527,79.334a7.99971,7.99971,0,0,0-14.31054,0l-21.78907,43.57764H195.314Z"/><path d="M50.27344,291.78662A41.73975,41.73975,0,0,0,79.98828,304.0957h.05078l6.67676-.00732,27.25293,27.25342v6.00293a24.02818,24.02818,0,0,0,40.999,16.99853l17.40137-17.40088a24.00049,24.00049,0,0,0-16.97168-40.9707h-6.05859l-24.019-24.01892a42.00278,42.00278,0,0,0,36.15772-5.18652l26.89062,26.8905,11.31446-11.31348-26.89087-26.89093a42.006,42.006,0,0,0-5.10913-53.10907l-40-40a41.926,41.926,0,0,0-71.126,35.81037,41.97536,41.97536,0,0,0-28.248,71.66864Zm95.75195,20.18506h9.37207a8.00025,8.00025,0,0,1,5.65723,13.65723l-17.40137,17.40088a8.02812,8.02812,0,0,1-13.68457-5.68506v-9.31641a8.00035,8.00035,0,0,0-2.34277-5.65674l-26.3-26.30054,12.71264-12.77233,26.32959,26.32971A8.00076,8.00076,0,0,0,146.02539,311.97168ZM126.71143,232H101.33936l-16-16h25.37207Zm-7.02881,18.34326L117.33936,248h25.37207l7.10351,7.10345A25.98266,25.98266,0,0,1,119.68262,250.34326Zm41.44629-6.55377L136,218.66064V193.28857l20.36816,20.36817A25.9819,25.9819,0,0,1,161.12891,243.78949ZM79.68262,173.65674a25.96934,25.96934,0,0,1,36.68554,0L120,177.28857v25.37207L95.68262,178.34326,84.36816,189.65674,94.71143,200H73.35962A25.96128,25.96128,0,0,1,79.68262,173.65674ZM39.61719,221.70752a26.19087,26.19087,0,0,1,23.02343-7.20325,41.89824,41.89824,0,0,0,5.72754,7.15247l37.46656,37.46655a26.09784,26.09784,0,0,1,.19067,2.96607v6.57983L86.69727,288.08813l-6.67676.00757h-.03125a25.84773,25.84773,0,0,1-18.40137-7.62256L39.62305,258.50879A26.0575,26.0575,0,0,1,39.61719,221.70752Z"/></g></svg>
