<svg id="Layer_1" enable-background="new 0 0 500 500" viewBox="0 0 500 500" xmlns="http://www.w3.org/2000/svg"><path clip-rule="evenodd" d="m312.553 322.104v2.398c0 3.785-3.07 6.854-6.859 6.854-3.788 0-6.859-3.069-6.859-6.854v-2.398c0-3.796 3.071-6.86 6.859-6.86 3.788.001 6.859 3.065 6.859 6.86zm-61.556 0v2.398c0 3.785-3.071 6.854-6.858 6.854-3.786 0-6.857-3.069-6.857-6.854v-2.398c0-3.796 3.071-6.86 6.857-6.86 3.787.001 6.858 3.065 6.858 6.86zm30.777-7.783v2.404c0 3.79-3.071 6.86-6.857 6.86-3.788 0-6.859-3.069-6.859-6.86v-2.404c0-3.785 3.07-6.86 6.859-6.86 3.786 0 6.857 3.075 6.857 6.86zm-68.843 118.801h69.633c4.078 0 8.028-.33 11.859-.952v17.702h-92.93v-17.625c3.701.573 7.51.875 11.438.875zm128.125-56.301c-5.116 9.302-11.324 17.861-18.529 25.43-10.817 11.387-24.261 17.157-39.962 17.157h-69.633c-15.701 0-29.146-5.77-39.962-17.157-7.205-7.569-13.413-16.129-18.529-25.43zm-151.05-26.217h161.946c-1.027 3.51-2.936 9.139-4.373 12.504h-199.662c-1.397-3.215-3.374-9.117-4.373-12.504zm84.911-59.981c-32.769 0-59.895 20.205-63.997 46.268h127.994c-4.103-26.063-31.228-46.268-63.997-46.268zm-66.689 10.881c1.854-12.867 23.72-15.648 23.632-36.641-.052-12.036-9.873-20.188-17.766-26.74-4.74-3.939-10.64-8.834-9.994-11.546.009-.022.956-2.063 8.888-4.467 15.91-4.815 21.49-22.151 10.692-33.676-.797-.853-2.454-2.607-2.507-8.576-.05-5.457 2.756-9.467 5.12-11.871 4.659-4.733 11.655-7.443 19.15-7.443 13.3 0 24.165 8.51 24.257 19.049.054 5.952-1.564 7.734-2.342 8.587-10.591 11.613-4.746 28.916 11.247 33.528 8.006 2.305 8.984 4.346 8.986 4.346.705 2.734-5.095 7.69-9.758 11.678-7.78 6.656-17.465 14.94-17.302 26.993.071 5.231 1.565 9.373 3.743 12.811-3.683.429-7.282 1.083-10.783 1.936l.282-81.82c.013-3.793-3.055-6.882-6.859-6.882-3.775 0-6.843 3.059-6.856 6.832l-.299 86.451c-12.184 5.259-22.551 13.141-30.064 22.795-1.024-2.962-1.405-4.679-1.467-5.344zm-60.666 13.807c-10.357-17.944-12.622-38.984-6.288-56.12 34.007 5.818 59.493 42.839 54.69 77.7h-2.011l-26.978-46.235c-1.911-3.273-6.109-4.368-9.382-2.47-3.27 1.915-4.375 6.112-2.467 9.385l22.945 39.32h-11.649c-7.472-5.71-13.974-13.114-18.86-21.58zm-59.901-71.913v206.474h100.118v-21.305c-9.161-3.548-17.44-9.17-24.752-16.86-17.451-18.354-29.452-41.736-35.042-66.45-.895-3.956 1.895-7.88 5.914-8.323l12.433-.044c-4.012-4.5-7.598-9.439-10.647-14.726-13.511-23.395-15.381-51.515-4.884-73.376 1.225-2.547 3.888-4.093 6.705-3.873 25.065 1.937 48.594 18.306 62.074 42.687 7.415-10.118 18.606-13.101 18.565-22.674-.024-5.638-6.524-11.035-12.811-16.25-8.064-6.7-17.203-14.286-14.56-25.331 2.048-8.543 11.395-12.289 18.247-14.357 2.237-.676 5.125-2.129 6.184-5.231 2.327-6.798-7.586-5.8-7.746-23.775-.173-19.378 18.188-33.091 37.705-33.159 21.01-.073 38.095 14.519 38.257 32.647.069 7.723-1.812 13.433-5.92 17.944-4.24 4.659-.233 9.629 4.908 11.117 6.878 1.975 16.277 5.594 18.468 14.088 4.983 19.312-26.807 28.889-26.627 41.922.073 5.308 3.208 8.235 8.75 12.718 36.735 3.229 66.017 28.247 69.779 59.629h8.047c4.368 0 7.653 4.105 6.689 8.367-5.59 24.712-17.59 48.095-35.042 66.45-7.198 7.569-15.338 13.131-24.331 16.695v21.47h100.118v-206.474l-151.672-130.056c-5-4.28-12.259-4.28-17.259 0zm-34.443-5.996c4.76 5.539 13.146 6.189 18.696 1.436l158.485-135.898c10.174-8.724 24.943-8.724 35.117 0l158.487 135.898c5.548 4.753 13.935 4.115 18.694-1.436l3.451-4.027c4.757-5.55 4.115-13.934-1.435-18.697l-188.125-161.312c-5.007-4.29-12.253-4.289-17.259 0l-188.127 161.312c-2.677 2.294-4.3 5.512-4.573 9.054-.485 6.331 2.917 9.383 6.589 13.67zm416.242 212.47h-47.488v-196.32c10.552 4.533 23.277 1.947 31.138-7.228l3.451-4.021c9.68-11.282 8.371-28.346-2.918-38.033l-188.127-161.323c-10.172-8.719-24.943-8.719-35.117 0l-188.125 161.324c-11.283 9.671-12.584 26.757-2.918 38.033l3.449 4.021c7.806 9.107 20.477 11.804 31.14 7.217v196.331h-43.405c-3.788 0-6.859 3.064-6.859 6.86 0 3.79 3.071 6.86 6.859 6.86h438.92c3.788 0 6.859-3.07 6.859-6.86 0-3.796-3.071-6.861-6.859-6.861z" fill-rule="evenodd"/></svg>