<svg id="Layer_1" enable-background="new 0 0 500 500" viewBox="0 0 500 500" xmlns="http://www.w3.org/2000/svg"><path clip-rule="evenodd" d="m222.301 179.059c2.69 2.673 2.706 7.013.039 9.703l-44.749 45.046c-2.679 2.682-7.034 2.692-9.715.017l-20.018-20.018c-2.679-2.679-2.679-7.025 0-9.704 2.679-2.668 7.025-2.668 9.692 0l15.155 15.155 39.903-40.173c2.674-2.678 7.014-2.694 9.693-.026zm27.702 211.826c77.677 0 140.882-63.194 140.882-140.882 0-77.683-63.205-140.888-140.882-140.888-77.419 0-140.437 62.765-140.877 140.079 35.855-9.88 81.117.633 107.569 26.613 22.642-18.708 48.55-23.137 72.892-12.564 5.22-21.47 7.168-38.242-1.568-56.076-6.089.347-13.428.258-20.259-2.871-10.254-4.698-16.162-14.715-17.559-29.76-1.117-11.992.908-20.881 6.183-27.174 7.752-9.253 19.477-9.566 28.28-10.413 17.96-1.672 34.259 14.148 48.424 46.994 12.289 28.472 21.794 72.259 22.207 87.876.011.126.011.248 0 .374-.567 20.832-11.018 39.083-30.238 52.759-31.751 22.608-79.168 27.702-109.038 19.957-12.097 10.655-30.733 16.651-48.391 19.314 23.18 16.766 51.642 26.662 82.375 26.662zm-140.255-127.559c3.273 34.738 19.209 65.85 43.143 88.652 24.039-1.353 46.389-9.038 56.235-19.462 1.81-1.909 4.544-2.624 7.047-1.826 25.717 8.119 71.61 3.966 100.93-16.91 15.738-11.2 23.973-25.254 24.479-41.779-.402-12.624-8.851-54.271-21.09-82.628-11.062-25.65-23.654-39.766-34.562-38.759-6.614.591-15.09.835-19.027 5.55-2.761 3.311-3.79 9.06-3.037 17.097 1.881 20.364 11.893 21.123 26.965 19.962 2.981-.218 5.555.648 7.123 3.394 15.936 27.972 8.966 54.728 2.822 78.327-1.138 4.381-6.175 6.478-10.078 4.208-31.217-18.109-57.093-.77-69.729 11.172-2.838 2.685-7.349 2.467-9.901-.501-24.682-28.593-70.862-36.36-101.32-26.497zm140.255-167.924c-85.252 0-154.601 69.354-154.601 154.601s69.349 154.596 154.601 154.596c85.247 0 154.596-69.349 154.596-154.596s-69.349-154.601-154.596-154.601zm201.424 173.958c7.206-4.164 11.172-11.04 11.172-19.357 0-8.323-3.966-15.194-11.172-19.352l-9.72-5.616c-17.218-9.951-23.143-32.036-13.202-49.266l5.611-9.72c4.164-7.206 4.164-15.144 0-22.35-4.159-7.206-11.024-11.172-19.357-11.172h-11.216c-19.891 0-36.069-16.178-36.069-36.063v-11.222c0-8.323-3.966-15.199-11.172-19.357-7.206-4.164-15.144-4.164-22.35 0l-9.72 5.611c-17.211 9.936-39.331 4.016-49.266-13.202l-5.605-9.72c-4.164-7.206-11.04-11.178-19.357-11.178-8.323 0-15.199 3.972-19.363 11.178l-5.606 9.72c-9.939 17.225-32.054 23.135-49.266 13.202l-9.72-5.611c-7.206-4.164-15.144-4.164-22.35 0-7.206 4.158-11.172 11.035-11.172 19.357v11.222c0 19.885-16.178 36.063-36.063 36.063h-11.228c-8.323 0-15.193 3.966-19.352 11.172-4.164 7.206-4.164 15.144 0 22.35l5.611 9.72c9.94 17.223 4.021 39.326-13.202 49.266l-9.72 5.616c-7.206 4.159-11.178 11.029-11.178 19.352 0 8.317 3.972 15.193 11.178 19.357l9.72 5.605c17.223 9.945 23.142 32.048 13.202 49.266l-5.611 9.72c-4.164 7.206-4.164 15.144 0 22.35 4.159 7.206 11.029 11.178 19.352 11.178h11.227c19.886 0 36.063 16.173 36.063 36.058v11.233c0 8.322 3.966 15.188 11.172 19.346 7.206 4.164 15.144 4.164 22.35 0l9.72-5.611c17.201-9.918 39.301-4.056 49.266 13.202l5.606 9.72c4.164 7.206 11.04 11.178 19.363 11.178 8.317 0 15.193-3.971 19.357-11.178l5.605-9.72c9.946-17.218 32.042-23.142 49.266-13.202l9.72 5.611c7.206 4.164 15.144 4.164 22.35 0 7.206-4.159 11.172-11.024 11.172-19.346v-11.233c0-19.885 16.178-36.058 36.069-36.058h11.216c8.323 0 15.199-3.972 19.357-11.178 4.164-7.206 4.164-15.144 0-22.35l-5.611-9.72c-9.94-17.218-4.016-39.32 13.202-49.266zm6.86-50.586-9.72-5.616c-10.672-6.161-14.346-19.864-8.185-30.53l5.616-9.726c13.926-24.109-3.392-54.095-31.239-54.095h-11.216c-12.327 0-22.35-10.022-22.35-22.344v-11.221c0-27.838-29.99-45.166-54.101-31.239l-9.715 5.616c-10.666 6.153-24.381 2.476-30.535-8.186l-5.606-9.72c-13.915-24.112-48.556-24.106-62.473 0l-5.605 9.72c-6.155 10.663-19.868 14.34-30.53 8.186l-9.725-5.616c-24.111-13.922-54.095 3.399-54.095 31.239v11.222c0 12.322-10.023 22.344-22.345 22.344h-11.227c-27.843 0-45.154 29.986-31.234 54.095l5.611 9.726c6.161 10.666 2.492 24.369-8.18 30.53l-9.72 5.616c-24.105 13.919-24.115 48.54 0 62.462l9.72 5.605c10.672 6.161 14.341 19.858 8.18 30.53l-5.611 9.726c-13.92 24.11 3.39 54.095 31.234 54.095h11.227c12.322 0 22.345 10.028 22.345 22.344v11.233c0 27.838 29.992 45.151 54.095 31.228l9.725-5.616c10.656-6.151 24.373-2.47 30.53 8.185l5.605 9.72c13.917 24.105 48.558 24.111 62.473 0l5.606-9.72c6.166-10.672 19.858-14.341 30.535-8.185l9.715 5.616c24.103 13.928 54.101-3.393 54.101-31.228v-11.233c0-12.316 10.023-22.344 22.35-22.344h11.216c27.847 0 45.165-29.987 31.239-54.095l-5.616-9.726c-6.161-10.672-2.487-24.369 8.185-30.53l9.72-5.605c24.11-13.92 24.109-48.55 0-62.463z" fill-rule="evenodd"/></svg>