<svg id="Layer_1" enable-background="new 0 0 500 500" viewBox="0 0 500 500" xmlns="http://www.w3.org/2000/svg"><path clip-rule="evenodd" d="m466.758 205.284c.017 3.439-2.508 5.983-6.205 6.21l-14.226.103c-1.513.218-3.048.137-4.566.201l-4.343.298-8.284.143c-3.809.036-6.927-3.006-6.949-6.955l-.034-3.036c-.017-.722-.149-1.461-.149-2.183 0-5.619-.273-8.948-.476-14.329l-.286-10.043-3.065.395c-.542.31-.443-.172-.624-.006l-4.566.607c-3.137.409-6.317-.09-9.104.768-.509.157-.197-.21-1.134.08l-4.589.344-2.246.418-7.603.401-4.137-.504c-1.729-.133-3.47-.049-5.437-1.209.393 9.487.927 18.83.957 28.296.012 3.415-2.75 6.193-6.165 6.205l-14.266.109c-1.524.218-3.042.137-4.566.201l-4.337.298-8.29.143c-3.818.036-6.936-3.021-6.955-6.955l-.029-3.036c-.017-.722-.149-1.461-.143-2.183.022-5.556-.287-9.018-.487-14.329-.422-11.223-.541-22.461-.281-33.688l.378-8.737.143-7.889c.151-3.839 3.342-6.846 7.374-6.743 3.743.095 14.167.904 16.574 1.96 2.102.922 4.767 1.01 7.374 2.028l4.394 1.576 1.278.934c-.219.72.291.726.332 1.152.052.544.052.544.441.785l-2.424.756c-1.175.076-1.227.621-2.67.785-3.374.384-2.946 1.437-7.041 1.495-1.825.026-3.844.86-6.027.968-.838.041-3.964.25-4.841.625l.229 35.435c.017 1.461.132 2.922.161 4.383v15.669l16.689.498.63-17.411.642-12.885c-.153-1.53.486-1.852.561-2.635l.699-7.734c.661-4.998.622-3.652.487-8.198-.027-.906.432-.876.51-1.822.252-2.991.062-5.989 1.415-8.949l.441 1.467c.17-.445.141-.707.418-.533.807-.255.346-.747.676-1.289.4-.657.858 2.246.934 2.658 1.971 10.73 3.475 12.576 4.176 24.951 2.618-.258 1.255-.663 2.068-.693.155-.011.315.04.47-.223.012-.023.029-.04.046-.034.332.143.653-.327.968-.59l.831-.08c1.086-.61 3.684-.709 4.795-.504 1.571.124 11.003-.528 11.836-.309.952.25 3.469-.618 7.03-.092 2.552.377 6.576 1.071 9.087 1.071l5.821.47c-.079-5.929.228-11.487.338-17.319.029-1.243-.023-2.504.206-3.73l.143-7.889c.188-3.898 3.359-6.845 7.368-6.743 3.731.094 14.194.908 16.575 1.96 2.066.913 4.762 1.009 7.374 2.028 2.576 1.005 3.238.781 5.58 2.355.327.22-.345.291.395 1.14.168.193-.224.532.476.951l-2.429.756c-1.189.075-1.217.619-2.676.785-3.353.382-2.952 1.437-7.035 1.495-1.842.026-3.832.86-6.033.968-.842.042-3.947.248-4.83.625l.069 12.873c-.046.785.057 1.576.069 2.372l.08 20.19c.023 1.461.143 2.922.166 4.383l.006 15.669 16.678.498.097-2.773c-.041-5.704.563-14.203.842-20.104l.338-7.419c-.135-1.575.494-1.852.567-2.635l.693-7.734c.57-4.382.671-4.053.487-8.198-.039-.885.413-.848.516-1.822.567-5.365-.433-3.263 1.404-8.949.272.075.396 1.175.453 1.467.081-.357.163-.708.407-.533.824-.236.36-.738.682-1.289.398-.682.867 2.293.934 2.658 1.512 8.27 3.502 13.442 4.028 22.424l.619 11.132c.31 1.842-.111 1.814.034 2.412l1.026 22.877c.033 2.006.033 4.028.033 6.039zm-365.443-75.316c1.448-2.134 1.223-.799 1.421-3.369.068-.886.669-.445.55-1.352-.119-.901-.575-3.163-.355-3.959.445-1.611 1.431-9.961 1.948-10.45.853-.806.562-1.47.808-2.429 1.235-4.828 1.374-5.592 3.283-9.992 1.865-4.298 3.798-7.181 6.554-10.943 3.215-4.388 8.859-8.602 13.418-11.556l5.615-3.105c.098 4.379-.488 12.708-1.73 16.729-.865 2.802-1.721 5.954-3.054 8.594l-1.994 3.953c-.751.997-1.461 2-2.063 3.077l-6.801 8.634c-1.615 1.578-.652.261-2.034 2.492-.602.973-1.057.948-1.152 1.163-.375.849-1.404.963-1.879 2.039-.322.728-3.038 2.548-3.581 2.882-1.792 1.104-2.732 2.603-4.566 3.432-.461.208-2.422 1.204-2.636 1.776-.885 2.37-.799 1.305-1.358 2.779-.172.464-.361.699-.561.888 0 .012-.006.017-.017.017-.12-.126-.223-.252-.344-.367.161-.325.333-.646.528-.933zm-43.759 91.513c7.701 6.706 17.897 11.498 28.062 7.5 4.532-1.783 11.493-4.68 14.065-9.052.872-1.481-.929.285-1.421.263-.065-1.261.551-1.331-.596-.871 1.667-1.91 1.01-2.816 3.987-4.48-2.42.339-3.329 2.225-3.329 2.062l-8.605 4.532c-5.555 1.896-3.679.417-6.096 1.083-2.279.628-4.801 1.051-7.093.246-5.038-1.768-8.307-4.874-12.1-8.571-.76-.741-4.021-4.845-4.24-5.643-.499-1.819-1.814-3.111-2.916-4.95-1.727-2.881-4.338-8.855-5.403-11.997-3.543-10.453-5.109-23.433-5.598-34.553-.34-7.735-.431-16.408 4.606-22.814 7.246-9.213 13.142-9.681 24.257-4.142 8.937 4.453 13.818 9.502 20.316 17.319 3.146 3.785 9.105 3.687 12.106-.298 2.325-3.087 7.255-8.821 10.003-10.754 1.587-1.112 3.06-2.349 4.709-3.369 7.255-4.483 18.01-9.715 25.569-3.277 8.858 7.543 9.526 18.544 8.468 30.434-1.019 11.678-2.25 19.162-5.603 30.938-.986 3.461-2.19 6.809-3.924 9.946-1.498 2.709-2.047 5.113-4.068 7.608l-.974 1.696c-.89 1.235-1.83 2.051-2.647 3.598-1 1.893-5.547 5.377-7.064 6.176-2.542 1.338-6.745 3.365-9.866 2.538l-5.237-1.169c-1.689-.464-3.772.305-7.591-1.398-2.672-1.191-2.035-.087-3.724-1.312-1.448-1.05-.539-.068-1.736-.888-.638-.437-.749-1.066-2.223-1.656 2.164 1.504 1.445 2.81 1.862 3.747.424.945 1.043 1.81 1.146 2.635.055.501 2.614 2.671 3.289 3.128 2.614 1.771 10.342 5.533 14.014 6.193 4.954.89 9.552.171 14.392-1.449 10.542-3.529 20.525-17.088 25.392-27.191 2.478-5.144 5.478-14.52 6.766-20.344 2.075-9.383 4.258-25.163 3.695-34.375-.515-8.426-2.749-16.584-7.792-23.616-5.691-7.937-14.1-13.553-24.246-13.71 7.854-11.781 10.584-26.337 9.339-40.345-.172-2.057-.16-4.131-.435-6.147-.074-.716-.281-1.415-.373-2.131-.193-1.561-.293-3.694-.911-5.082-1.541-3.397-5.546-4.91-8.943-3.38l-8.239 4.016-8.823 5.678c-4.679 3.082-11.621 9.13-14.793 13.435l-2.779 3.73-3.89 6.892c-.636 1.314-2.43 4.879-2.618 6.302-.08.601-.477.375-.859 2.131-.446 2.048-1.466 4.745-1.862 7.253-.605 3.835-1.128 5.371-.836 9.493.302 4.261 1.071 8.554 2.4 12.61.183.544.338 1.077.487 1.621-4.678-4.193-5.801-5.196-11.894-8.376-11.198-5.845-23.544-9.665-35.275-2.286-6.738 4.238-12.538 12.17-14.741 19.479-2.547 8.449-2.007 16.32-1.278 24.767.447 5.183 1.87 18.065 3.552 23.02.396 1.153.175 1.881 1.186 4.835 1.138 3.325 1.643 5.364 3.054 8.966 3.326 8.487 8.911 17.686 15.919 23.756zm131.553-150.832c.45-8.103 3.74-17.812 9.728-23.369 4.735-4.394 10.283-5.989 16.827-5.489 9.632.737 23.159 9.671 31.115 15.165 2.572 1.764 6.079 1.845 8.777-.057 3.341-2.349 10.876-7.268 13.996-8.622 5.515-2.394 9.799-4.977 16.276-5.397 22.09-1.433 28.38 21.673 25.77 40.866-1.043 7.67-2.95 14.838-6.204 22.521l-4.927-1.507c-2.734-.538-3.482-1.071-4.469-1.266-5.479-1.086-12.417-1.33-18.007-1.34l-6.508-.275c-13.653 8.135-3.787 2.257-6.835 4.068l-6.709 11.819-7.488-13.126-4.549-7.333-8.136-14.776c-2.109-3.912-8.314-4.783-11.012.481l-8.514 17.371c-.118.53-.453.179-.98 1.776l-1.198 2.446c-7.616.327-12.683 1.956-19.972 3.85-5.074-11.895-7.793-24.868-6.981-37.806zm-11.005 21.455c.898 3.969 2.942 11.732 4.647 15.177.587 1.187.47 1.981 1.959 4.921 1.616 3.189 2.522 5.493 4.457 8.961 8.528 15.285 17.713 25.519 31.917 35.464 5.808 4.066 15.552 9.739 22.47 12.742.267.116 4.192 1.873 3.97 1.215-.361-.516-1.152-.745-1.341-1.278.235-.046.418-.126.608-.201.661-.125.706.227.051-.624l2.847 1.152c-1.396-2.202-1.977-3.032-4.171-4.412-1.627-1.008-3.151-2.131-4.87-2.979-.483-.242-4.532-3.065-4.83-3.816-.509-1.286-6.491-4.313-9.127-7.127-6.053-6.281-11.543-11.335-16.861-18.74-.997-1.388-.472-1.819-2.813-4.629-1.936-2.324-6.907-11.069-8.061-13.326l3.168-.126c2.523.631 10.613.807 11.04 1.152.877.709 1.671.285 2.699.327 3.131.125 7.031.793 9.15-3.243 2.079-3.96 4.842-8.173 6.875-11.963 2.474 5.252 4.422 9.186 7.264 14.203.961 1.697 2.16 3.289 2.991 5.059.688 1.478 1.81 2.698 2.36 4.268l7.396 13.607c2.957 5.126 10.65 5.043 13.366-.481 3.419-6.953 7.227-13.437 10.634-20.247 3.196 0 4.888-.377 7.878-.567.63-.04 1.255.092 1.868-.074 1.043-.263 2.057-.728 3.145-.579.046.006.109-.011.155-.034.901-.462 1.818.05 2.887-.521.543-.29 4.348-.383 4.79-.378 2.161.023 3.46-.589 5.093-.67-1.844 3.547-2.641 5.387-4.847 8.92-.796 1.226-1.69 2.366-2.429 3.627-1.22 2.125-2.309 4.326-4.056 6.205-.08.086-.161.201-.218.304-1.009 1.948-2.873 3.311-4.131 5.471-1.532 2.631-11.401 11.423-13.888 13.79-3.69 3.512-9.47 6.798-10.811 8.285-3.2 3.549-6.554 4.769-7.511 6.153-.841 1.217-2.13 1.463-2.315 1.908-.304.745-1.043 1.306-1.839 2.028 1.872-.514 2.012.016 2.767-.08 2.867-.364 2.746.068 3.455-.115 9.064-2.338 17.403-7.036 25.151-12.255l5.953-3.959c8.686-6.666 17.338-16.438 23.387-25.736 2.689-4.137 6.449-11.22 8.68-15.904 8.512-19.148 12.629-43.271 3.523-62.861-7.056-15.179-20.721-23.833-37.257-22.544-9.914.773-19.873 5.66-28.107 10.507l-6.004 3.93c-3.175-2.19-11.128-7.091-14.563-8.657-8.937-4.073-16.275-6.442-26.171-5.586-16.361 1.415-27.611 13.398-32.072 28.669-3.319 11.362-2.716 24.219-.308 35.667zm254.994 177.817c-.283 1.593-.18 2.902-1.06 4.325-.96 1.553-3.578 1.806-6.319 2.366-7.522 1.537-8.669 1.334-15.56 4.709-11.952 5.854-19.29 13.2-30.009 20.046-9.107 5.816-25.771 14.567-36.054 19.428l-11.825 5.563c-.682.388-1.889.583-4.062 1.713-7.167 3.419-32.468 13.286-36.506 16.34-2.372 1.794-1.754 3.477-1.461 6.159l3.231 25.77c-11.778.846-5.859.274-16.059 2.223-5.171.988-21.408 3.227-27.414 2.939-5.005-.24-13.941-.566-18.488-1.404-.774-.143-1.558-.212-2.349-.298l-11.619-1.822-7.763-.401c1.391-5.233 3.765-23.523 4.48-29.826.289-2.959-2.035-5.087-4.48-6.36-3.898-2.029-8.953-4.068-12.971-5.775-3.478-1.49-6.955-2.985-10.427-4.475l-10.301-4.268c-3.389-1.809-8.373-3.716-12.037-5.46-13.034-6.203-32.578-15.467-44-23.048-12.538-8.246-22.169-17.2-37.509-20.837-2.675-.634-9.813-1.514-11.332-2.12-2.056-.819-2.228-2.31-2.859-5.403-.397-1.947.466-4.262 1.89-5.666 2.131-2.101 7.305-2.184 10.261-1.919 12.802 1.148 30.853 8.37 43.084 14.031l13.246 6.6c2.234 1.199 10.122 5.574 11.796 6.199.84.313 1.395 1.032 4.085 2.108 2.507 1.004 5.352 2.53 8.181 3.46 5.769 1.897 6.684 2.234 13.171 3.289 9.306 1.512 21.193-1.154 29.58-4.973l9.058-4.377c2.715-1.312 5.546-2.446 8.416-3.506 0 0 .006 0 .006-.006 6.304 5.968 14.455 9.638 22.974 10.994 3.339.531 9.863.552 13.429-.269 5.198-1.198 3.795-.644 9.121-2.916 4.522-1.928 7.471-4.382 11.178-7.305 3.394 1.96 7.318 3.461 10.811 5.334 2.725 1.378 12.89 6.149 15.749 7.11 10.391 2.731 13.056 2.852 22.59 2.229 9.17-.6 20.009-5.485 28.062-9.573 1.89-.957 3.632-1.982 5.448-2.951 14.976-8.003 28.655-15.064 44.963-20.396 4.296-1.404 20.908-6.556 25.844-2.469 1.377 1.141 2.041 3.079 1.81 4.888zm-114.171 121.545c8.325.526 21.092 1.573 27.58 7.185 2.96 2.56 5.168 6.938 3.466 10.903-1.065 2.481-2.926 4.825-4.824 6.967-1.914 2.12-4.228 4.102-6.675 6.004-3.065 1.805-6.107 3.627-9.127 5.488l-9.596 5.643c-1.473.802-2.996 1.484-4.423 2.355-2.396 1.495-4.687 3.146-7.333 4.205-.132.052-.263.132-.372.218-1.685 1.304-4.354 1.951-6.858 3.695-1.413.984-10.495 4.82-11.785 5.328-4.904 1.93-9.978 4.67-14.592 6.216-1.623.544-6.831 2.331-8.17 3.22-3.96 2.627-7.073 3.206-9.006 4.366l-.189-1.186c.627-1.42.435-4.64.854-4.904.735-.464.311-.917.361-1.364 1.019-8.619 1.478-13.22 7.293-20.579.762-1.01 3.091-4.802 4.022-5.374l5.689-4.652 7.534-4.102 4.984-1.988 1.656-.911c.263-.12.561-.092.791-.309.378-.372.705-.945 1.22-.934.029 0 .046-.029.063-.052.367-.603.783-.14 1.152-.848.263-.506 2.175-.636 3.541-1.621 1.083-.781 2.188-.367 2.498-1.066.677-1.524 1.408-.897 1.604-1.805.154-.711.513-.371.55-.67.057-.521.246-.659.418-.917-.951-.87-1.218-2.554-2.59-3.432-2.754-1.762-5.233-1.814-6.188-2.315-3.213-1.686-16.427 2.617-19.336 4.165-5.498 2.927-8.491 5.035-12.684 9.482-.739.773-1.518 1.495-2.24 2.286l-4.503 6.01-.934 1.942c-2.629-5.262-7.131-8.477-7.654-9.396-.539-.919-5.22-4.455-6.331-5.225-3.294-2.095-7.312-4.192-10.874-5.758-.361-.166-.756-.218-1.094-.401-1.919-1.053-5.792-2.348-8.032-2.337l-1.386-.327c-.607.109-1.237.418-1.759.126-.147-.058-.003.247-.911.017-.479-.121-1.023.505-3.271-.08-1.265-.329-2.178.351-3.082.034-2.016-.706-1.699.705-3.306.762-.656.023-.576.788-1.111.751-.43-.03.079.094-.951.819.638 1.105.391 2.795 1.358 4.102l3.088 3.14c2.432 1.643.027 1.449 7.253 4.486l2.171.745c.562.525 1.657.756 2.441 1.158.217.109.418.292.636.401 3.965 1.92 12.498 5.813 15.423 8.949.183.189.464.286.653.47 1.025 1.069 4.807 5.26 5.345 6.36 1.365 2.788 3.501 8.239 4.245 11.338l.624 2.601c.193.22-.279.151.075.899.309.657.415 5.656 1.26 7.305l2.492 6.125c-1.996-1.327-3.207-2.284-5.426-3.122-2.022-.762-4.022-1.53-6.113-2.057-1.042-.268-5.9-2.105-6.405-2.699-.942-1.105-8.843-2.849-12.295-4.532-4.806-2.331-25.078-10.867-27.007-12.627-1.64-1.496-4.253-2.387-6.4-3.478-4.438-2.256-20.339-10.987-23.673-13.343-1.84-1.301-5.503-4.799-6.926-6.348-2.331-2.538-5.403-6.843-5.403-10.29.001-18.871 45.41-15.756 57.246-14.987 2.481.161 4.961.361 7.454.567 2.194.493 4.383.951 6.594 1.369 8.593 1.636 22.165 2.96 31.224 2.59 1.404-.063 2.819-.126 4.222-.189 4.641-.172 9.201-1.008 13.859-1.341 5.155-.372 10.303-1.694 15.394-2.584 4.233-.74 26.53-.973 32.502-.642zm128.351-127.887c1.131 4.948.846 10.941-1.197 15.56-5.839 13.197-17.76 11.05-25.827 13.842-8.278 2.866-14.261 7.091-21.582 12.261-10.088 7.124-13.698 9.23-24.183 14.712-18.875 9.869-40.255 19.074-60.265 26.44-1.932.721-3.556 1.795-5.666 1.856-.94.027-7.703 2.576-9.402 3.197-.103 2.274-.138 4.549-.372 6.812-.336 3.232.805 9.441.046 10.542-.615.891-.341 5.67-.292 7.213 7.843-.338 15.749-.401 23.793.155 12.301.852 26.959 2.94 36.197 12.392 2.899 2.966 5.477 7.202 6.617 11.292 4.239 15.213-6.89 26.623-17.72 34.982l-18.408 10.244c-9.267 4.767-28.311 13.297-36.959 15.177-5.805 1.261-11.083 3.301-17.617 4.641-6.634 1.36 1.139.582-5.815 1.241-.052.005-11.048 9.395-16.183 5.449-.45-.013-12.362-5.897-12.79-6.003-28.156-6.956-44.622-10.775-71.306-25.369l-9.298-5.174c-4.936-2.509-3.079-2.095-5.265-3.552-2.584-1.736-4.818-3.999-7.081-6.331-5.313-5.477-9.784-13.24-8.743-21.273 1.52-11.725 9.857-18.656 20.636-22.332 12.609-4.3 32.173-4.653 45.57-4.176-.343-6.109-1.53-4.056-1.163-12.662.179-4.198-.784-9.249-.533-13.36l-2.383-.693c-2.326-.288-4.056-1.497-6.079-1.788-.109-.017-.235-.046-.344-.092-2.165-.986-4.417-1.364-6.646-1.965-1.323-.349-2.567-.968-3.85-1.438l-8.623-3.082c-5.759-2.001-18.77-7.646-24.756-10.633-1.404-.693-2.882-1.266-4.303-1.936-15.983-7.536-28.826-14.374-42.934-24.573-10.477-7.574-16.888-12.536-29.041-14.168-9.419-1.265-16.021-4.85-18.941-14.374-2.716-8.862-.668-18.374 7.144-24.16 14.21-10.524 41.611.908 55.9 7.041l8.496 3.896c7.702 3.438 15.028 7.816 22.338 11.991 8.965 5.12 16.176 9.29 26.395 11.361 2.189.444 3.501.043 5.145.939.545.297 4.154.32 5.197.361 4.155-.08 12.544-1.476 16.649-2.406 2.668-.604 8.785-3.859 10.163-3.415.594.192 4.482-.82 5.334-1.071-6.158-8.062-8.945-15.756-9.029-25.816-.029-3.41 1.012-9.656 2.217-12.977 3.716-9.259 8.314-16.243 17.36-21.135 1.383-.748 5.598-1.878 7.305-2.372 2.88-.833 7.471-.87 10.427-.309 2.693.511 1.868.903 3.707 2.137.444.298.329.696 1.541 1.272-.521.241-1.014.378-1.318.894-.169.31-.915-.056-1.473.653-.71.902-2.414.452-3.976 2.154-.751.818-3.61.933-5.408 2.412l-4.182 2.842c-3.553 2.807-1.82 2.107-3.237 3.443-1.248 1.178-.765 1.169-1.003 1.369-.939.792-1.143 1.766-1.535 2.727-.377.925-1.158 1.032-2.572 5.151-2.195 6.395-1.756 5.611-2.429 11.201-.069.665.132 1.341.149 2.005.241 3.57 1.192 7.07 2.79 10.255 2.466 5.357 7.535 9.718 12.799 12.249 2.464 1.184 3.996 1.381 4.881 1.782 1.359.616 4.363.739 5.867.768 2.1.04 6.86-.828 8.726-1.472 3.751-1.296 7.194-2.939 10.272-5.488 3.608-2.989 6.881-7.745 8.261-12.255 1.8-5.883 1.513-13.704-1.106-19.348-.516-1.111-2.548-4.966-3.569-5.97-1.81-1.779.902-1.011-5.626-6.423l-3.626-2.693c-1.475-1.217-4.342-.928-4.652-1.822-.177-.51-2.3-1.059-2.492-1.049-1.589.086-4.52-.813-5.54-1.994.325-.357 1.502-.487 1.994-.579-.622-.417-.359-.118.149-1.031-.189-.389-.63-.235-.883-.516-.338-.671 3.526-.91 3.907-.928 8.074-.387 16.003 1.678 22.401 6.749 3.782 2.997 8.084 9.369 9.677 13.716.16.424.321.859.533 1.26 1.027 1.998.446 1.922.808 2.716.846 1.856.705 2.537 1.089 4.314 1.869 8.658-.263 20.673-5.231 27.867l-3.225 4.474c1.553.229 3.071.361 4.577.338 2.351-.045 10.109 3.157 13.928 3.867 4.11.765 6.734 1.593 11.029 2.103 3.432.407 6.668-.265 9.488-.281 2.37.143 5.467-1.299 7.62-1.667 8.213-1.406 24.117-11.389 32.026-15.429 1.398-.716 2.727-1.576 4.159-2.315 12.108-6.362 24.616-11.847 37.75-15.864 9.279-2.838 21.931-6.001 31.74-2.401 6.089 2.239 11.399 7.389 12.882 13.845z" fill-rule="evenodd"/></svg>