<?xml version="1.0" encoding="UTF-8"?>
<svg xmlns="http://www.w3.org/2000/svg" viewBox="0 0 64 64" width="512" height="512"><g id="Layer_32" data-name="Layer 32"><path d="M37,32V30H35.211a24.736,24.736,0,0,0-13.766,4.168l1.11,1.664A22.738,22.738,0,0,1,35.211,32Z"/><path d="M24,47a1,1,0,0,0,.625-.219l3.715-2.972A10.11,10.11,0,0,1,30.9,42.317a12.171,12.171,0,0,0,5.883-5.009l1.075-1.793a1,1,0,0,0-1.372-1.372l-3.917,2.35a6.279,6.279,0,0,1-2,.774h0a8.292,8.292,0,0,0-6,4.865l-1.489,3.474A1,1,0,0,0,24,47Zm6.958-7.772a8.242,8.242,0,0,0,2.547-.966,10.14,10.14,0,0,1-3.349,2.2,12.069,12.069,0,0,0-3.065,1.787l-.594.475A6.293,6.293,0,0,1,30.958,39.228Z"/><path d="M18,33.252V38.19a22.614,22.614,0,0,0,5,14.167V63h2V52a1,1,0,0,0-.232-.64A20.61,20.61,0,0,1,20,38.19V33a.99.99,0,0,0-.12-.474l-6.512-12.1A3.087,3.087,0,0,1,13,18.973a.973.973,0,0,1,1.77-.558l6.411,9.158a1,1,0,0,0,1.8-.769L20.319,13.5A16.468,16.468,0,0,1,20,10.272a1.273,1.273,0,0,1,2.5-.34l4.538,16.336A1,1,0,0,0,29,26V4.083a1.083,1.083,0,0,1,2.163-.09L33,26.083a1,1,0,0,0,1.985.073L37.7,8.976a1.157,1.157,0,0,1,2.3.181c0,1.2-.043,2.412-.129,3.61L39,25v8a1,1,0,0,0,1.874.486L43.81,28.2A18.794,18.794,0,0,1,49,22.25a1.25,1.25,0,0,1,2,1,6.436,6.436,0,0,1-.677,2.867,27.176,27.176,0,0,0-2.768,9.732A17.976,17.976,0,0,1,43.28,45.97l-2.006,2.34a5.791,5.791,0,0,1-4.1,1.69,9.446,9.446,0,0,1-5.255-1.591l-.362-.241-1.108,1.664.361.241A11.443,11.443,0,0,0,37.171,52,7.783,7.783,0,0,0,41,51V63h2V49.37l1.8-2.1A19.964,19.964,0,0,0,49.547,36.03a25.177,25.177,0,0,1,2.565-9.019A8.448,8.448,0,0,0,53,23.25a3.25,3.25,0,0,0-5.2-2.6,20.8,20.8,0,0,0-5.738,6.579L41,29.143V25.071l.868-12.161C41.955,11.665,42,10.4,42,9.157a3.157,3.157,0,0,0-6.275-.492l-1.418,8.978L33.156,3.827A3.083,3.083,0,0,0,27,4.083V18.664L24.426,9.4A3.273,3.273,0,0,0,18,10.272a18.518,18.518,0,0,0,.358,3.618l1.726,8.629-3.676-5.251A2.973,2.973,0,0,0,11,18.973a5.088,5.088,0,0,0,.606,2.405Z"/></g></svg>
