<svg id="WhatsApp_1_" data-name="WhatsApp (1)" xmlns="http://www.w3.org/2000/svg" xmlns:xlink="http://www.w3.org/1999/xlink" width="15" height="15" viewBox="0 0 15.724 15.794">
  <defs>
    <linearGradient id="linear-gradient" x1="0.49" y1="0.06" x2="0.495" y2="0.915" gradientUnits="objectBoundingBox">
      <stop offset="0" stop-color="#57d163"/>
      <stop offset="1" stop-color="#23b33a"/>
    </linearGradient>
  </defs>
  <path id="Path_153236" data-name="Path 153236" d="M18.042,26.78l.237.14a6.465,6.465,0,0,0,3.3.9h0a6.473,6.473,0,1,0-5.484-3.033l.154.245-.654,2.388Zm-4.321,2.493,1.105-4.035a7.79,7.79,0,1,1,6.75,3.9h0a7.785,7.785,0,0,1-3.722-.948Zm0,0" transform="translate(-13.641 -13.478)" fill="none"/>
  <path id="Path_153237" data-name="Path 153237" d="M12.966,28.516l1.105-4.035a7.79,7.79,0,1,1,6.75,3.9h0a7.785,7.785,0,0,1-3.722-.948Z" transform="translate(-12.966 -12.802)" fill="#fff"/>
  <path id="Path_153238" data-name="Path 153238" d="M32.483,25.227A6.475,6.475,0,0,0,27,35.143l.154.245L26.5,37.776l2.45-.643.237.14a6.466,6.466,0,0,0,3.3.9h0a6.475,6.475,0,0,0,0-12.949Z" transform="translate(-24.625 -23.911)" fill="rgba(0,0,0,0)"/>
  <path id="Path_153239" data-name="Path 153239" d="M32.483,25.227A6.475,6.475,0,0,0,27,35.143l.154.245L26.5,37.776l2.45-.643.237.14a6.466,6.466,0,0,0,3.3.9h0a6.475,6.475,0,0,0,0-12.949Z" transform="translate(-24.625 -23.911)" fill="url(#linear-gradient)"/>
  <path id="Path_153240" data-name="Path 153240" d="M51.785,52.725c-.146-.324-.3-.331-.438-.336l-.373,0a.715.715,0,0,0-.519.243,2.182,2.182,0,0,0-.681,1.623,3.787,3.787,0,0,0,.795,2.013A7.987,7.987,0,0,0,53.893,59.2c1.644.648,1.979.519,2.336.487a1.965,1.965,0,0,0,1.314-.925,1.628,1.628,0,0,0,.114-.925c-.049-.081-.178-.13-.373-.227s-1.152-.568-1.33-.633-.308-.1-.438.1-.5.633-.616.763-.227.146-.422.049a5.313,5.313,0,0,1-1.565-.966,5.872,5.872,0,0,1-1.083-1.348c-.114-.195-.012-.3.086-.4s.195-.227.292-.341a1.32,1.32,0,0,0,.194-.324.358.358,0,0,0-.016-.341c-.049-.1-.427-1.06-.6-1.445" transform="translate(-45.877 -48.194)" fill="#fff" fill-rule="evenodd"/>
</svg>
